<svg width="19" height="20" viewBox="0 0 19 20" fill="none" xmlns="http://www.w3.org/2000/svg">
<path d="M17.3936 15.0109C17.3936 15.2959 17.3302 15.5888 17.1956 15.8738C17.0611 16.1588 16.8869 16.4279 16.6573 16.6813C16.2694 17.1088 15.8419 17.4175 15.359 17.6154C14.884 17.8134 14.3694 17.9163 13.8152 17.9163C13.0077 17.9163 12.1448 17.7263 11.2344 17.3384C10.324 16.9504 9.41357 16.4279 8.51107 15.7709C7.60065 15.1059 6.73773 14.3696 5.9144 13.5542C5.09898 12.7309 4.36273 11.8679 3.70565 10.9654C3.05648 10.0629 2.53398 9.16045 2.15398 8.26586C1.77398 7.36336 1.58398 6.50045 1.58398 5.67711C1.58398 5.13878 1.67898 4.6242 1.86898 4.1492C2.05898 3.66628 2.35982 3.22295 2.7794 2.82711C3.28607 2.32836 3.84023 2.08295 4.42607 2.08295C4.64773 2.08295 4.8694 2.13045 5.06732 2.22545C5.27315 2.32045 5.45523 2.46295 5.59773 2.66878L7.4344 5.25753C7.5769 5.45545 7.67982 5.63753 7.75107 5.8117C7.82232 5.97795 7.8619 6.1442 7.8619 6.29461C7.8619 6.48461 7.80648 6.67461 7.69565 6.8567C7.59273 7.03878 7.44232 7.22878 7.25232 7.41878L6.65065 8.0442C6.56357 8.13128 6.52398 8.2342 6.52398 8.36086C6.52398 8.4242 6.5319 8.47961 6.54773 8.54295C6.57148 8.60628 6.59523 8.65378 6.61107 8.70128C6.75357 8.96253 6.99898 9.30295 7.34732 9.71461C7.70357 10.1263 8.08357 10.5459 8.49523 10.9654C8.92273 11.385 9.3344 11.7729 9.75398 12.1292C10.1657 12.4775 10.5061 12.715 10.7752 12.8575C10.8148 12.8734 10.8623 12.8971 10.9177 12.9209C10.9811 12.9446 11.0444 12.9525 11.1157 12.9525C11.2502 12.9525 11.3532 12.905 11.4402 12.8179L12.0419 12.2242C12.2398 12.0263 12.4298 11.8759 12.6119 11.7809C12.794 11.67 12.9761 11.6146 13.174 11.6146C13.3244 11.6146 13.4827 11.6463 13.6569 11.7175C13.8311 11.7888 14.0132 11.8917 14.2111 12.0263L16.8315 13.8867C17.0373 14.0292 17.1798 14.1954 17.2669 14.3934C17.3461 14.5913 17.3936 14.7892 17.3936 15.0109Z" stroke="#043A4E" stroke-width="1.2" stroke-miterlimit="10"/>
<path d="M14.6458 7.62423C14.6458 7.14923 14.2737 6.42089 13.7196 5.82714C13.2129 5.28089 12.54 4.85339 11.875 4.85339" stroke="#043A4E" stroke-width="1.2" stroke-linecap="round" stroke-linejoin="round"/>
<path d="M17.4167 7.62461C17.4167 4.56086 14.9387 2.08295 11.875 2.08295" stroke="#043A4E" stroke-width="1.2" stroke-linecap="round" stroke-linejoin="round"/>
</svg>
