<svg width="31" height="28" viewBox="0 0 31 28" fill="none" xmlns="http://www.w3.org/2000/svg">
<path d="M26.1566 19.5769L26.1573 19.5769L28.7723 19.566V19.416L28.7729 19.566L28.7726 19.566C29.2823 19.5658 29.6922 19.1326 29.6922 18.6175C29.6922 18.1024 29.2821 17.6691 28.7723 17.6691L28.7716 17.6691L26.1566 17.68V17.83L26.156 17.68L26.1563 17.68C25.6467 17.6802 25.2367 18.1134 25.2367 18.6285C25.2367 19.1436 25.6468 19.5769 26.1566 19.5769Z" fill="#FF9D48" stroke="#FF9D48" stroke-width="0.3"/>
<path d="M14.7621 4.86714L14.7621 4.86655C14.7621 4.3514 15.1722 3.91812 15.682 3.91812C16.1917 3.91812 16.6018 4.35122 16.602 4.86623L16.602 4.86597L14.7621 4.86714ZM14.7621 4.86714L14.7727 7.57905M14.7621 4.86714L14.7727 7.57905M16.6125 7.57702L16.602 4.86655L16.6125 7.57544C16.6125 7.57596 16.6125 7.57649 16.6125 7.57702ZM16.6125 7.57702C16.6242 8.09629 16.2105 8.52749 15.6926 8.52749C15.1829 8.52749 14.7728 8.09438 14.7727 7.57936M16.6125 7.57702L14.7727 7.57936M14.7727 7.57936L14.7727 7.57964L14.9227 7.57905H14.7727M14.7727 7.57936L14.7727 7.57905" fill="#FF9D48" stroke="#FF9D48" stroke-width="0.3"/>
<path d="M22.7697 11.7233L22.7697 11.7233L22.7716 11.7251C22.9564 11.904 23.1831 11.997 23.4243 11.997C23.6647 11.997 23.8937 11.9044 24.0702 11.7215L24.0705 11.7211L25.9152 9.7972C26.2816 9.42909 26.2631 8.83451 25.9177 8.46356C25.5633 8.08294 24.9673 8.08266 24.6126 8.46272L22.7686 10.3859C22.4054 10.7508 22.4058 11.3589 22.7697 11.7233Z" fill="#FF9D48" stroke="#FF9D48" stroke-width="0.3"/>
<path d="M2.42227 19.3799L2.42289 19.3799L5.03789 19.3689V19.2189L5.03852 19.3689L5.03822 19.3689C5.54788 19.3688 5.95781 18.9356 5.95781 18.4205C5.95781 17.9054 5.5477 17.4721 5.03789 17.4721L5.03726 17.4721L2.42227 17.483V17.633L2.42164 17.483L2.42194 17.483C1.91228 17.4832 1.50234 17.9164 1.50234 18.4314C1.50234 18.9466 1.91245 19.3799 2.42227 19.3799Z" fill="#FF9D48" stroke="#FF9D48" stroke-width="0.3"/>
<path d="M11.4984 24.082L11.4991 24.082L14.1141 24.0711V23.9211L14.1147 24.0711L14.1144 24.0711C14.6241 24.0709 15.034 23.6377 15.034 23.1227C15.034 22.6075 14.6239 22.1742 14.1141 22.1742L14.1134 22.1742L11.4984 22.1852V22.3352L11.4978 22.1852L11.4981 22.1852C10.9884 22.1853 10.5785 22.6185 10.5785 23.1336C10.5785 23.6487 10.9886 24.082 11.4984 24.082Z" fill="#FF9D48" stroke="#FF9D48" stroke-width="0.3"/>
<path d="M14.1527 24.082L14.1534 24.082L16.7684 24.0711V23.9211L16.769 24.0711L16.7687 24.0711C17.2783 24.0709 17.6883 23.6377 17.6883 23.1227C17.6883 22.6075 17.2782 22.1742 16.7684 22.1742L16.7677 22.1742L14.1527 22.1852V22.3352L14.1521 22.1852L14.1524 22.1852C13.6427 22.1853 13.2328 22.6185 13.2328 23.1336C13.2328 23.6487 13.6429 24.082 14.1527 24.082Z" fill="#FF9D48" stroke="#FF9D48" stroke-width="0.3"/>
<path d="M17.0805 24.082L17.0811 24.082L19.6961 24.0711V23.9211L19.6967 24.0711L19.6964 24.0711C20.2061 24.0709 20.616 23.6377 20.616 23.1227C20.616 22.6075 20.2059 22.1742 19.6961 22.1742L19.6955 22.1742L17.0805 22.1852V22.3352L17.0798 22.1852L17.0801 22.1852C16.5705 22.1853 16.1605 22.6185 16.1605 23.1336C16.1605 23.6487 16.5707 24.082 17.0805 24.082Z" fill="#FF9D48" stroke="#FF9D48" stroke-width="0.3"/>
<path d="M7.30609 11.7218L7.30604 11.7219L7.30945 11.7252C7.49427 11.9041 7.72103 11.9971 7.96221 11.9971C8.20216 11.9971 8.43084 11.9048 8.60716 11.7224C8.97031 11.3578 8.97027 10.7502 8.60705 10.3856L6.75255 8.47338C6.39838 8.09428 5.80402 8.09403 5.44953 8.47262C5.08731 8.83737 5.08766 9.44422 5.45057 9.8085L7.30609 11.7218Z" fill="#FF9D48" stroke="#FF9D48" stroke-width="0.3"/>
<path d="M23.666 19.4785H23.816V19.3285V18.53C23.816 16.2497 22.9577 14.1122 21.4115 12.5087C19.8544 10.894 17.7906 10.0128 15.5977 10.0128C13.3939 10.0128 11.3302 10.9051 9.78382 12.5087C8.22692 14.1233 7.3793 16.2609 7.3793 18.53V19.3285V19.4785H7.5293H23.666ZM21.9034 17.5816H9.29188C9.7346 14.3759 12.4013 11.9207 15.5977 11.9207C18.794 11.9207 21.4607 14.3759 21.9034 17.5816Z" fill="#FF9D48" stroke="#FF9D48" stroke-width="0.3"/>
</svg>
