<svg width="33" height="33" viewBox="0 0 33 33" fill="none" xmlns="http://www.w3.org/2000/svg">
<g opacity="0.74">
<path d="M16.5 33C25.6127 33 33 25.6127 33 16.5C33 7.3873 25.6127 -8.80927e-08 16.5 -1.96761e-07C7.3873 -3.05428e-07 3.05428e-07 7.3873 1.96761e-07 16.5C8.80927e-08 25.6127 7.3873 33 16.5 33Z" fill="#6D597A"/>
<path d="M16.5 32.5C25.3366 32.5 32.5 25.3366 32.5 16.5C32.5 7.66344 25.3366 0.5 16.5 0.5C7.66344 0.5 0.5 7.66344 0.5 16.5C0.5 25.3366 7.66344 32.5 16.5 32.5Z" stroke="#E8ECF4" stroke-opacity="0.88"/>
</g>
<path d="M22.2406 20.7357C22.3148 20.6617 22.3736 20.5739 22.4138 20.4771C22.4539 20.3803 22.4746 20.2766 22.4746 20.1718C22.4746 20.0671 22.4539 19.9633 22.4138 19.8665C22.3736 19.7698 22.3148 19.6819 22.2406 19.6079L16.9455 14.3128C16.8866 14.2537 16.8165 14.2069 16.7395 14.1749C16.6624 14.1429 16.5797 14.1265 16.4963 14.1265C16.4128 14.1265 16.3302 14.1429 16.2531 14.1749C16.176 14.2069 16.106 14.2537 16.0471 14.3128L10.752 19.6079C10.4398 19.9201 10.4398 20.4235 10.752 20.7357C11.0642 21.048 11.5676 21.048 11.8798 20.7357L16.4995 16.1224L21.1191 20.7421C21.425 21.048 21.9348 21.048 22.2406 20.7357Z" fill="#CBE2D1" stroke="#CBE2D1" stroke-width="0.2"/>
</svg>
