<svg width="33" height="33" viewBox="0 0 33 33" fill="none" xmlns="http://www.w3.org/2000/svg">
<g opacity="0.74">
<path d="M33 16.5C33 7.3873 25.6127 0 16.5 0C7.3873 0 0 7.3873 0 16.5C0 25.6127 7.3873 33 16.5 33C25.6127 33 33 25.6127 33 16.5Z" fill="#6D597A"/>
<path d="M32.5 16.5C32.5 7.66344 25.3366 0.5 16.5 0.5C7.66344 0.5 0.5 7.66344 0.5 16.5C0.5 25.3366 7.66344 32.5 16.5 32.5C25.3366 32.5 32.5 25.3366 32.5 16.5Z" stroke="#E8ECF4" stroke-opacity="0.88"/>
</g>
<path d="M14.3614 10.7594C14.4354 10.6852 14.5233 10.6264 14.6201 10.5862C14.7168 10.5461 14.8206 10.5254 14.9253 10.5254C15.0301 10.5254 15.1339 10.5461 15.2306 10.5862C15.3274 10.6264 15.4153 10.6852 15.4893 10.7594L20.7844 16.0545C20.8434 16.1134 20.8903 16.1835 20.9223 16.2605C20.9542 16.3376 20.9707 16.4203 20.9707 16.5037C20.9707 16.5872 20.9542 16.6698 20.9223 16.7469C20.8903 16.824 20.8434 16.894 20.7844 16.9529L15.4893 22.248C15.177 22.5602 14.6737 22.5602 14.3614 22.248C14.0492 21.9358 14.0492 21.4324 14.3614 21.1202L18.9747 16.5005L14.3551 11.8809C14.0492 11.575 14.0492 11.0652 14.3614 10.7594Z" fill="#CBE2D1" stroke="#CBE2D1" stroke-width="0.2"/>
</svg>
