<svg width="21" height="21" viewBox="0 0 21 21" fill="none" xmlns="http://www.w3.org/2000/svg">
<path d="M8.75592 15.9158C8.6688 15.8415 8.65589 15.7092 8.7301 15.6221C8.80431 15.535 8.93661 15.5221 9.02373 15.5963L9.74006 16.1965C9.82718 16.2707 9.84009 16.403 9.76588 16.4901C9.69167 16.5772 9.55937 16.5901 9.47225 16.5159L8.75592 15.9158Z" fill="black"/>
<path d="M9.00928 17.0705C8.91893 17.1414 8.78663 17.1221 8.71887 17.0317C8.64788 16.9414 8.66725 16.8091 8.75759 16.7413L9.48037 16.1896C9.57072 16.1186 9.70301 16.1379 9.77077 16.2283C9.80304 16.2735 9.81918 16.3251 9.81272 16.3767L9.74173 17.0253C9.72883 17.1382 9.6288 17.2221 9.51264 17.2092C9.39971 17.1963 9.31581 17.0963 9.32872 16.9801L9.34808 16.8123L9.0125 17.0705H9.00928Z" fill="black"/>
<path fill-rule="evenodd" clip-rule="evenodd" d="M6.88383 0.556486C6.25462 -0.143709 5.64799 0.388697 5.02201 2.95715C4.05077 2.48606 3.48933 3.54441 3.25378 5.68372C1.52427 5.44494 1.06929 12.0016 7.48076 12.0048L6.88383 0.556486Z" fill="#8C9152"/>
<path d="M4.81576 2.98041C4.80286 2.86747 4.88674 2.76422 4.99968 2.75131C5.11261 2.7384 5.21588 2.8223 5.22878 2.93523L5.47401 5.17134C5.48691 5.28428 5.40303 5.38753 5.29009 5.40044C5.17716 5.41334 5.07389 5.32945 5.06099 5.21651L4.81576 2.98041Z" fill="black"/>
<path d="M3.05414 5.72935C3.02832 5.61642 3.09931 5.50671 3.20902 5.4809C3.32196 5.45508 3.43166 5.52607 3.45748 5.63578L3.84791 7.32012C3.87373 7.43305 3.80274 7.54276 3.69303 7.56857C3.58009 7.59439 3.47039 7.5234 3.44458 7.41369L3.05414 5.72935Z" fill="black"/>
<path fill-rule="evenodd" clip-rule="evenodd" d="M11.4939 14.6026C10.6098 15.0995 7.42183 17.7132 3.52397 15.5287C1.02327 14.1283 -0.528774 8.26536 2.90767 9.19143L12.4039 13.6185C14.711 14.1412 18.2797 15.3157 20.5771 17.1291C21.3225 17.7196 20.561 18.9974 19.8317 18.6037C20.7223 20.0816 19.3477 20.4526 18.683 19.6879C19.1348 20.5236 17.7215 21.6594 17.2116 20.3268C16.4372 18.3036 13.3299 15.5416 11.4939 14.6026Z" fill="#A7A17F"/>
<path fill-rule="evenodd" clip-rule="evenodd" d="M0.957031 10.2435C1.10546 9.37872 1.69917 8.86245 2.90918 9.18835L4.70646 10.0273C4.15792 10.1951 3.52549 10.3112 2.84466 10.35C2.16382 10.3887 1.52171 10.35 0.960261 10.2435H0.957031Z" fill="#EBB763"/>
<path d="M0.597612 10.1823L1.10743 9.7661C1.14937 9.7306 1.20423 9.70802 1.26231 9.71124C1.37847 9.72092 1.46237 9.81772 1.45592 9.93389L1.38815 10.8535C1.38492 10.9051 1.36234 10.9535 1.32039 10.9922C1.2365 11.0697 1.1042 11.0632 1.02676 10.9793L0.581472 10.4921C0.581472 10.4921 0.571796 10.4824 0.565343 10.476C0.494355 10.3856 0.507261 10.2566 0.594382 10.1823H0.597612Z" fill="black"/>
<path d="M1.65104 9.91091C1.5381 9.88833 1.46388 9.77862 1.48647 9.66568C1.50906 9.55275 1.61877 9.47853 1.7317 9.50112L2.1544 9.58501C2.26734 9.6076 2.34154 9.71731 2.31896 9.83024C2.29637 9.94318 2.18667 10.0174 2.07373 9.99481L1.65104 9.91091Z" fill="black"/>
<path d="M9.8985 15.448C9.81138 15.3738 9.79846 15.2415 9.87268 15.1544C9.94689 15.0672 10.0792 15.0543 10.1663 15.1285L10.8826 15.7287C10.9698 15.8029 10.9827 15.9352 10.9084 16.0223C10.8342 16.1095 10.7019 16.1224 10.6148 16.0482L9.8985 15.448Z" fill="black"/>
<path d="M10.1518 16.6037C10.0615 16.6747 9.92921 16.6553 9.86145 16.5649C9.79046 16.4746 9.80982 16.3423 9.90017 16.2745L10.623 15.7228C10.7133 15.6518 10.8456 15.6711 10.9134 15.7615C10.9456 15.8067 10.9618 15.8583 10.9553 15.9099L10.8843 16.5585C10.8714 16.6714 10.7714 16.7553 10.6552 16.7424C10.5423 16.7295 10.4584 16.6263 10.4713 16.5133L10.4907 16.3455L10.1551 16.6037H10.1518Z" fill="black"/>
<path d="M18.8413 19.5516C18.9252 19.6323 18.9252 19.7613 18.8477 19.8452C18.7671 19.9291 18.638 19.9291 18.5541 19.8517L17.5345 18.874C17.4506 18.7933 17.4506 18.6642 17.528 18.5804C17.6087 18.4965 17.7377 18.4965 17.8216 18.5739L18.8413 19.5516Z" fill="black"/>
<path d="M19.9605 18.4419C20.0508 18.5129 20.0637 18.6452 19.9927 18.7323C19.9217 18.8226 19.7894 18.8355 19.7023 18.7646L18.3923 17.7159C18.3019 17.6449 18.289 17.5126 18.36 17.4255C18.431 17.3351 18.5633 17.3222 18.6504 17.3932L19.9605 18.4419Z" fill="black"/>
<path fill-rule="evenodd" clip-rule="evenodd" d="M18.4157 8.40948C19.2901 8.84185 18.8707 9.57109 16.3409 10.8456C17.0508 11.6717 16.0796 12.4945 13.908 13.2753C14.5501 14.9016 7.82889 17.0441 6.36719 10.7972L18.4189 8.40625L18.4157 8.40948Z" fill="#8C9152"/>
<path d="M16.3257 10.6395C16.4386 10.6298 16.5419 10.7104 16.5516 10.8266C16.5613 10.9395 16.4806 11.0428 16.3644 11.0525L14.1251 11.2783C14.0122 11.288 13.9089 11.2074 13.8992 11.0912C13.8895 10.9783 13.9702 10.875 14.0864 10.8653L16.3257 10.6395Z" fill="black"/>
<path d="M13.9132 13.0693C14.0294 13.0693 14.1197 13.1661 14.1165 13.2823C14.1165 13.3984 14.0197 13.4888 13.9036 13.4855L11.6545 13.4339C11.5384 13.4339 11.448 13.3371 11.4513 13.2209C11.4513 13.1048 11.5481 13.0144 11.6642 13.0177L13.9132 13.0693Z" fill="black"/>
</svg>
