<svg width="46" height="46" viewBox="0 0 46 46" fill="none" xmlns="http://www.w3.org/2000/svg">
<rect opacity="0.5" x="0.0429688" y="0.240234" width="45.1836" height="45.1836" rx="9.76574" fill="#5E8492"/>
<path d="M15.9238 29.012H29.2572V30.6787H15.9238V29.012ZM29.2572 15.6787H15.9238V24.012C15.9238 25.8537 17.4155 27.3454 19.2572 27.3454H24.2572C26.0988 27.3454 27.5905 25.8537 27.5905 24.012V21.512H29.2572C29.6992 21.512 30.1231 21.3364 30.4357 21.0239C30.7482 20.7113 30.9238 20.2874 30.9238 19.8454V17.3454C30.9238 16.4204 30.1822 15.6787 29.2572 15.6787ZM25.9238 24.012C25.9238 24.9287 25.1738 25.6787 24.2572 25.6787H19.2572C18.3405 25.6787 17.5905 24.9287 17.5905 24.012V17.3454H25.9238V24.012ZM29.2572 19.8454H27.5905V17.3454H29.2572V19.8454Z" fill="#043A4E"/>
</svg>
