<svg width="40" height="38" viewBox="0 0 40 38" fill="none" xmlns="http://www.w3.org/2000/svg">
<path d="M18.1016 6.18619C18.1016 4.82793 18.0937 3.46967 18.1031 2.11141C18.1109 0.837845 18.8932 -0.018517 20.0103 0.000304139C21.0961 0.0191253 21.8486 0.859803 21.8517 2.09573C21.8611 4.864 21.8455 7.63228 21.8642 10.4006C21.8721 11.6004 22.3852 12.1007 23.5586 12.2152C23.9529 12.2529 24.1031 12.1478 24.1234 11.7322C24.2001 10.1653 24.3737 8.61255 24.8243 7.10058C25.1466 6.0168 25.5753 4.99105 26.356 4.14723C27.6217 2.77642 29.4944 2.44862 31.1247 3.35047C32.6344 4.18644 33.6373 5.52117 34.5072 6.96099C36.6881 10.5684 37.9507 14.5318 38.8628 18.6129C39.7999 22.81 40.2787 27.0526 39.8297 31.3595C39.656 33.0189 39.473 34.683 38.7846 36.231C37.9773 38.0488 36.613 38.5476 35.0281 37.343C32.7455 35.6083 30.1891 34.5638 27.5137 33.6557C24.7258 32.7115 23.5305 30.4827 23.2614 27.6658C23.0126 25.0701 23.41 22.5073 23.6462 19.935C23.7542 18.765 23.8449 17.5949 23.9748 16.428C24.0155 16.0657 23.8934 15.992 23.5633 15.97C22.3805 15.8916 21.2447 15.6281 20.2606 14.9255C20.015 14.7498 19.8663 14.8204 19.6504 14.9663C18.6976 15.6109 17.6166 15.8948 16.4885 15.9591C16.0192 15.9857 15.9566 16.1363 15.9988 16.5692C16.2648 19.3233 16.5151 22.0775 16.7357 24.8348C16.8578 26.3499 16.7858 27.8587 16.3915 29.3393C15.8174 31.4944 14.4687 32.9326 12.3926 33.6933C11.2709 34.1042 10.1334 34.4697 9.01637 34.8931C7.94155 35.3009 6.95902 35.8875 6.03908 36.5808C5.62292 36.8929 5.20519 37.2081 4.75774 37.4716C3.22764 38.3704 1.98697 37.9939 1.236 36.3894C0.517881 34.8539 0.283202 33.1914 0.145524 31.5304C-0.519398 23.486 1.12022 15.8697 4.53245 8.61098C5.31002 6.95629 6.28628 5.40511 7.6787 4.17389C10.1819 1.96398 13.0873 2.55057 14.5376 5.55725C15.3793 7.30291 15.639 9.18189 15.8033 11.0875C15.8361 11.4608 15.5655 12.0458 16.1506 12.2011C16.828 12.3799 17.7261 11.8592 17.9545 11.2585C18.0765 10.9354 18.1 10.5982 18.1 10.2578C18.0984 8.89957 18.1 7.54131 18.1 6.18305C18.1 6.18305 18.1016 6.18305 18.1031 6.18305L18.1016 6.18619Z" fill="#043446"/>
</svg>
