<svg width="117" height="77" viewBox="0 0 117 77" fill="none" xmlns="http://www.w3.org/2000/svg">
<path d="M37.0048 72.7847H115.147C115.91 72.7847 116.441 72.1747 116.34 71.4178L108.441 13.4855C108.339 12.7287 107.646 12.1187 106.897 12.1187H29.8178C29.0691 12.1187 28.5329 12.7287 28.6207 13.4855L35.4658 71.4178C35.5582 72.1747 36.2469 72.7847 37.0048 72.7847Z" fill="#3B2645"/>
<path d="M36.2431 72.7847H114.385C115.148 72.7847 115.679 72.1747 115.578 71.4178L107.674 13.4855C107.573 12.7287 106.879 12.1187 106.131 12.1187H29.0561C28.3074 12.1187 27.7712 12.7287 27.859 13.4855L34.704 71.4178C34.7965 72.1747 35.4851 72.7847 36.2431 72.7847Z" fill="url(#paint0_linear_3326_23164)"/>
<path opacity="0.3" d="M111.363 40.5211L103.302 72.7852H81.168L107.832 14.6235L111.363 40.5211Z" fill="#543753"/>
<path d="M99.7142 72.7847H21.5721C20.8095 72.7847 20.278 72.1747 20.3797 71.4178L28.2784 13.4855C28.3801 12.7287 29.0734 12.1187 29.8221 12.1187H106.897C107.645 12.1187 108.181 12.7287 108.094 13.4855L101.249 71.4178C101.161 72.1747 100.472 72.7847 99.7142 72.7847Z" fill="#3B2645"/>
<path d="M98.948 72.7847H20.8104C20.0478 72.7847 19.5163 72.1747 19.6179 71.4178L27.5167 13.4855C27.6184 12.7287 28.3117 12.1187 29.0604 12.1187H106.135C106.884 12.1187 107.42 12.7287 107.332 13.4855L100.487 71.4178C100.399 72.1747 99.7106 72.7847 98.948 72.7847Z" fill="url(#paint1_linear_3326_23164)"/>
<path d="M97.7738 71.2988H22.3909C22.1968 71.2988 22.0212 71.2254 21.901 71.0878C21.7808 70.9502 21.7254 70.7667 21.7531 70.5695L28.2099 23.0494C28.2607 22.6642 28.6212 22.3477 29.0048 22.3477H103.565C103.754 22.3477 103.93 22.421 104.05 22.5587C104.175 22.6963 104.231 22.8797 104.207 23.077L98.5687 70.5924C98.5225 70.9823 98.1666 71.2988 97.7738 71.2988ZM29.0048 22.5541C28.7183 22.5541 28.4502 22.788 28.4132 23.077L21.9565 70.597C21.938 70.73 21.975 70.8585 22.0535 70.9502C22.1367 71.0419 22.2523 71.0924 22.3863 71.0924H97.7691C98.0603 71.0924 98.3238 70.8585 98.3561 70.5695L103.995 23.054C104.013 22.9164 103.972 22.7926 103.889 22.6963C103.805 22.6045 103.69 22.5541 103.56 22.5541H29.0048Z" fill="white"/>
<path d="M83.4686 20.6962H52.2108C51.7209 20.6962 51.2818 20.5036 50.9721 20.1596C50.6579 19.8018 50.5192 19.3293 50.5839 18.8202C50.7179 17.8019 51.6516 16.9717 52.6684 16.9717H83.9031C84.393 16.9717 84.8367 17.1643 85.1417 17.5083C85.4606 17.8661 85.5993 18.3386 85.5392 18.8431C85.4144 19.866 84.4854 20.6962 83.4686 20.6962ZM52.6684 17.1735C51.7532 17.1735 50.9121 17.9212 50.7873 18.8431C50.7272 19.2881 50.8474 19.71 51.1247 20.0174C51.3927 20.3201 51.7764 20.4852 52.2062 20.4852H83.464C84.3791 20.4852 85.2157 19.7376 85.3312 18.8156C85.3867 18.3707 85.2619 17.9487 84.9846 17.6414C84.7165 17.3386 84.3283 17.1735 83.8984 17.1735H52.6684Z" fill="white"/>
<path d="M68.8868 32.5901H61.1035L61.8892 26.4482H69.6632L68.8868 32.5901Z" fill="#F2F9FF"/>
<path d="M78.8894 32.5901H71.1016L71.878 26.4482H79.6521L78.8894 32.5901Z" fill="#F2F9FF"/>
<path d="M88.8913 32.5901H81.1035L81.8615 26.4482H89.6401L88.8913 32.5901Z" fill="#F2F9FF"/>
<path d="M98.8933 32.5901H91.1055L91.8496 26.4482H99.6236L98.8933 32.5901Z" fill="url(#paint2_radial_3326_23164)"/>
<path d="M37.6904 41.5798H29.8887L30.716 35.438H38.5084L37.6904 41.5798Z" fill="#F2F9FF"/>
<path d="M47.71 41.5798H39.9082L40.7217 35.438H48.5142L47.71 41.5798Z" fill="#F2F9FF"/>
<path d="M57.7295 41.5798H49.9277L50.7273 35.438H58.5198L57.7295 41.5798Z" fill="#F2F9FF"/>
<path d="M67.751 41.5798H59.9492L60.7349 35.438H68.5274L67.751 41.5798Z" fill="#F2F9FF"/>
<path d="M77.7751 41.5798H69.9688L70.7452 35.438H78.5331L77.7751 41.5798Z" fill="#F2F9FF"/>
<path d="M87.7946 41.5798H79.9883L80.7509 35.438H88.5434L87.7946 41.5798Z" fill="#F2F9FF"/>
<path d="M97.8154 41.5798H90.0137L90.7578 35.438H98.5503L97.8154 41.5798Z" fill="url(#paint3_radial_3326_23164)"/>
<path d="M36.4921 50.575H28.6719L29.4992 44.4331H37.3102L36.4921 50.575Z" fill="#F2F9FF"/>
<path d="M46.5304 50.575H38.7148L39.5283 44.4331H47.3347L46.5304 50.575Z" fill="#F2F9FF"/>
<path d="M56.5741 50.575H48.7539L49.5581 44.4331H57.3645L56.5741 50.575Z" fill="#F2F9FF"/>
<path d="M66.6125 50.575H58.7969L59.5826 44.4331H67.3889L66.6125 50.575Z" fill="#F2F9FF"/>
<path d="M76.6562 50.575H68.8359L69.6124 44.4331H77.4188L76.6562 50.575Z" fill="#F2F9FF"/>
<path d="M86.6991 50.575H78.8789L79.6369 44.4331H87.4478L86.6991 50.575Z" fill="#F2F9FF"/>
<path d="M96.7382 50.575H88.918L89.6667 44.4331H97.4731L96.7382 50.575Z" fill="url(#paint4_radial_3326_23164)"/>
<path d="M35.2957 59.5705H27.457L28.289 53.4287H36.1138L35.2957 59.5705Z" fill="#F2F9FF"/>
<path d="M45.3563 59.5705H37.5176L38.3356 53.4287H46.1605L45.3563 59.5705Z" fill="#F2F9FF"/>
<path d="M55.4188 59.5705H47.5801L48.3843 53.4287H56.2091L55.4188 59.5705Z" fill="#F2F9FF"/>
<path d="M65.4813 59.5705H57.6426L58.4329 53.4287H66.2532L65.4813 59.5705Z" fill="#F2F9FF"/>
<path d="M75.5372 59.5705H67.7031L68.4796 53.4287H76.2998L75.5372 59.5705Z" fill="#F2F9FF"/>
<path d="M85.5997 59.5705H77.7656L78.5282 53.4287H86.3485L85.5997 59.5705Z" fill="#F2F9FF"/>
<path d="M95.6623 59.5705H87.8281L88.5769 53.4287H96.3972L95.6623 59.5705Z" fill="url(#paint5_radial_3326_23164)"/>
<path d="M34.094 68.5608H26.2461L27.0734 62.4189H34.9121L34.094 68.5608Z" fill="#F2F9FF"/>
<path d="M44.1788 68.5608H36.3262L37.1442 62.4189H44.983L44.1788 68.5608Z" fill="#F2F9FF"/>
<path d="M54.2581 68.5608H46.4102L47.2097 62.4189H55.0485L54.2581 68.5608Z" fill="#F2F9FF"/>
<path d="M64.3448 68.5608H56.4922L57.2779 62.4189H65.1212L64.3448 68.5608Z" fill="#F2F9FF"/>
<path d="M74.4248 68.5608H66.5723L67.3487 62.4189H75.1874L74.4248 68.5608Z" fill="#FDF8EE"/>
<path d="M99.8727 24.6776H92.0987C91.9277 24.6776 91.7891 24.54 91.7891 24.3703C91.7891 24.2006 91.9277 24.063 92.0987 24.063H99.8727C100.044 24.063 100.182 24.2006 100.182 24.3703C100.182 24.54 100.044 24.6776 99.8727 24.6776Z" fill="#F2F9FF"/>
<path d="M89.8884 24.6776H82.1144C81.9433 24.6776 81.8047 24.54 81.8047 24.3703C81.8047 24.2006 81.9433 24.063 82.1144 24.063H89.8884C90.0594 24.063 90.198 24.2006 90.198 24.3703C90.198 24.54 90.0594 24.6776 89.8884 24.6776Z" fill="url(#paint6_radial_3326_23164)"/>
<path d="M79.9098 24.6776H72.1358C71.9648 24.6776 71.8262 24.54 71.8262 24.3703C71.8262 24.2006 71.9648 24.063 72.1358 24.063H79.9098C80.0809 24.063 80.2195 24.2006 80.2195 24.3703C80.2195 24.54 80.0809 24.6776 79.9098 24.6776Z" fill="url(#paint7_radial_3326_23164)"/>
<path d="M69.9274 24.6776H62.1534C61.9824 24.6776 61.8438 24.54 61.8438 24.3703C61.8438 24.2006 61.9824 24.063 62.1534 24.063H69.9274C70.0984 24.063 70.2371 24.2006 70.2371 24.3703C70.2371 24.54 70.0984 24.6776 69.9274 24.6776Z" fill="url(#paint8_radial_3326_23164)"/>
<path d="M59.9451 24.6776H52.171C52 24.6776 51.8613 24.54 51.8613 24.3703C51.8613 24.2006 52 24.063 52.171 24.063H59.9451C60.1161 24.063 60.2547 24.2006 60.2547 24.3703C60.2547 24.54 60.1161 24.6776 59.9451 24.6776Z" fill="url(#paint9_radial_3326_23164)"/>
<path d="M49.9645 24.6776H42.1905C42.0195 24.6776 41.8809 24.54 41.8809 24.3703C41.8809 24.2006 42.0195 24.063 42.1905 24.063H49.9645C50.1355 24.063 50.2742 24.2006 50.2742 24.3703C50.2742 24.54 50.1355 24.6776 49.9645 24.6776Z" fill="url(#paint10_radial_3326_23164)"/>
<path d="M39.9821 24.6776H32.2081C32.0371 24.6776 31.8984 24.54 31.8984 24.3703C31.8984 24.2006 32.0371 24.063 32.2081 24.063H39.9821C40.1531 24.063 40.2918 24.2006 40.2918 24.3703C40.2918 24.54 40.1531 24.6776 39.9821 24.6776Z" fill="url(#paint11_radial_3326_23164)"/>
<path d="M36.0252 14.6235C35.9698 15.0409 35.5861 15.3804 35.1702 15.3804C34.7542 15.3804 34.463 15.0409 34.5185 14.6235C34.574 14.2061 34.9576 13.8667 35.3735 13.8667C35.7895 13.8667 36.0853 14.2061 36.0252 14.6235Z" fill="#3B2645"/>
<path d="M35.6967 9.229C35.0357 9.229 34.3563 9.45835 33.7878 9.87575C33.0206 10.4354 32.5122 11.2702 32.392 12.16C32.1748 13.7746 33.3025 15.091 34.9109 15.091C35.008 15.091 35.1051 15.0865 35.2021 15.0773C35.4517 15.0543 35.6643 14.8296 35.6736 14.5819C35.6828 14.3342 35.4887 14.1507 35.2345 14.1737C35.1698 14.1783 35.1004 14.1828 35.0357 14.1828C33.9265 14.1828 33.1454 13.2746 33.2979 12.16C33.3811 11.5454 33.7324 10.9674 34.2639 10.5821C34.6614 10.2886 35.1189 10.1372 35.5811 10.1372C36.6765 10.1372 37.4484 11.0225 37.3236 12.1233H38.2248C38.4097 10.5225 37.2866 9.229 35.6967 9.229Z" fill="#5080C0"/>
<path d="M36.0252 14.6235C35.9698 15.0409 35.5861 15.3804 35.1702 15.3804C34.7542 15.3804 34.463 15.0409 34.5185 14.6235C34.574 14.2061 34.9576 13.8667 35.3735 13.8667C35.7895 13.8667 36.0853 14.2061 36.0252 14.6235Z" fill="#3B2645"/>
<path d="M35.6967 9.229C35.0357 9.229 34.3563 9.45835 33.7878 9.87575C33.0206 10.4354 32.5122 11.2702 32.392 12.16C32.1748 13.7746 33.3025 15.091 34.9109 15.091C35.008 15.091 35.1051 15.0865 35.2021 15.0773C35.4517 15.0543 35.6643 14.8296 35.6736 14.5819C35.6828 14.3342 35.4887 14.1507 35.2345 14.1737C35.1698 14.1783 35.1004 14.1828 35.0357 14.1828C33.9265 14.1828 33.1454 13.2746 33.2979 12.16C33.3811 11.5454 33.7324 10.9674 34.2639 10.5821C34.6614 10.2886 35.1189 10.1372 35.5811 10.1372C36.6765 10.1372 37.4484 11.0225 37.3236 12.1233H38.2248C38.4097 10.5225 37.2866 9.229 35.6967 9.229Z" fill="#AA8CA7"/>
<path d="M44.1639 14.6235C44.1084 15.0409 43.7248 15.3804 43.3088 15.3804C42.8929 15.3804 42.6017 15.0409 42.6572 14.6235C42.7126 14.2061 43.0962 13.8667 43.5122 13.8667C43.9282 13.8667 44.2193 14.2061 44.1639 14.6235Z" fill="#3B2645"/>
<path d="M43.8216 9.229C43.1607 9.229 42.4812 9.45835 41.9127 9.87575C41.1455 10.4354 40.6371 11.2702 40.5169 12.16C40.2997 13.7746 41.4321 15.091 43.0405 15.091C43.1375 15.091 43.2346 15.0865 43.3317 15.0773C43.5813 15.0543 43.7939 14.8296 43.8031 14.5819C43.8123 14.3342 43.6136 14.1507 43.364 14.1737C43.2993 14.1783 43.23 14.1828 43.1653 14.1828C42.056 14.1828 41.2749 13.2746 41.4228 12.16C41.506 11.5454 41.8573 10.9674 42.3842 10.5821C42.7817 10.2886 43.2392 10.1372 43.7014 10.1372C44.7968 10.1372 45.5733 11.0225 45.4485 12.1233H46.3498C46.5393 10.5225 45.4161 9.229 43.8216 9.229Z" fill="#AA8CA7"/>
<path d="M52.3035 14.6235C52.2481 15.0409 51.8691 15.3804 51.4531 15.3804C51.0371 15.3804 50.7459 15.0409 50.7968 14.6235C50.8522 14.2061 51.2312 13.8667 51.6472 13.8667C52.0678 13.8667 52.359 14.2061 52.3035 14.6235Z" fill="#3B2645"/>
<path d="M51.9526 9.229C51.2917 9.229 50.6123 9.45835 50.0438 9.87575C49.2766 10.4354 48.7728 11.2702 48.6526 12.16C48.44 13.7746 49.5724 15.091 51.1808 15.091C51.2778 15.091 51.3749 15.0865 51.4719 15.0773C51.7215 15.0543 51.9341 14.8296 51.9388 14.5819C51.948 14.3342 51.7493 14.1507 51.4997 14.1737C51.435 14.1783 51.3656 14.1828 51.3009 14.1828C50.1917 14.1828 49.406 13.2746 49.5539 12.16C49.6371 11.5454 49.9837 10.9674 50.5152 10.5821C50.9127 10.2886 51.3703 10.1372 51.8325 10.1372C52.9278 10.1372 53.7043 11.0225 53.5841 12.1233H54.4854C54.6703 10.5225 53.5425 9.229 51.9526 9.229Z" fill="#AA8CA7"/>
<path d="M60.4431 14.6235C60.3876 15.0409 60.0086 15.3804 59.5927 15.3804C59.1767 15.3804 58.8809 15.0409 58.9364 14.6235C58.9918 14.2061 59.3708 13.8667 59.7868 13.8667C60.2027 13.8667 60.4985 14.2061 60.4431 14.6235Z" fill="#3B2645"/>
<path d="M60.081 9.229C59.42 9.229 58.7452 9.45835 58.1767 9.87575C57.4141 10.4354 56.9057 11.2702 56.7902 12.16C56.5822 13.7746 57.7192 15.091 59.323 15.091C59.42 15.091 59.5171 15.0865 59.6141 15.0773C59.8637 15.0543 60.0763 14.8296 60.081 14.5819C60.0902 14.3342 59.8915 14.1507 59.6419 14.1737C59.5772 14.1783 59.5078 14.1828 59.4431 14.1828C58.3339 14.1828 57.5482 13.2746 57.6914 12.16C57.77 11.5454 58.1213 10.9674 58.6482 10.5821C59.0457 10.2886 59.5032 10.1372 59.9654 10.1372C61.0608 10.1372 61.8373 11.0225 61.7171 12.1233H62.6184C62.7986 10.5225 61.6709 9.229 60.081 9.229Z" fill="#AA8CA7"/>
<path d="M68.5818 14.6235C68.531 15.0409 68.1473 15.3804 67.7314 15.3804C67.3154 15.3804 67.0196 15.0409 67.075 14.6235C67.1305 14.2061 67.5095 13.8667 67.9255 13.8667C68.3415 13.8667 68.6326 14.2061 68.5818 14.6235Z" fill="#3B2645"/>
<path d="M68.2071 9.229C67.5461 9.229 66.8714 9.45835 66.3029 9.87575C65.5403 10.4354 65.0365 11.2702 64.9209 12.16C64.713 13.7746 65.8546 15.091 67.463 15.091C67.56 15.091 67.6571 15.0865 67.7541 15.0773C68.0037 15.0543 68.2163 14.8296 68.2209 14.5819C68.2302 14.3342 68.0314 14.1507 67.7819 14.1737C67.7172 14.1783 67.6478 14.1828 67.5831 14.1828C66.4739 14.1828 65.6882 13.2746 65.8268 12.16C65.9054 11.5454 66.252 10.9674 66.7789 10.5821C67.1764 10.2886 67.6293 10.1372 68.0961 10.1372C69.1915 10.1372 69.9726 11.0225 69.8524 12.1233H70.7537C70.9339 10.5225 69.8016 9.229 68.2071 9.229Z" fill="#AA8CA7"/>
<path d="M76.7205 14.6235C76.6696 15.0409 76.2906 15.3804 75.87 15.3804C75.4541 15.3804 75.1583 15.0409 75.2137 14.6235C75.2646 14.2061 75.6482 13.8667 76.0641 13.8667C76.4801 13.8667 76.7713 14.2061 76.7205 14.6235Z" fill="#3B2645"/>
<path d="M76.3363 9.229C75.6753 9.229 75.0005 9.45835 74.432 9.87575C73.6694 10.4354 73.1656 11.2702 73.0547 12.16C72.8513 13.7746 73.993 15.091 75.6014 15.091C75.6984 15.091 75.7955 15.0865 75.8926 15.0773C76.1422 15.0543 76.3501 14.8296 76.3594 14.5819C76.364 14.3342 76.1699 14.1507 75.9157 14.1737C75.851 14.1783 75.7816 14.1828 75.7169 14.1828C74.6077 14.1828 73.8173 13.2746 73.9606 12.16C74.0392 11.5454 74.3858 10.9674 74.9127 10.5821C75.3102 10.2886 75.7632 10.1372 76.2253 10.1372C77.3207 10.1372 78.1018 11.0225 77.9863 12.1233H78.8876C79.0632 10.5225 77.9262 9.229 76.3363 9.229Z" fill="#AA8CA7"/>
<path d="M84.8542 14.6235C84.8034 15.0409 84.4244 15.3804 84.0084 15.3804C83.5924 15.3804 83.2966 15.0409 83.3475 14.6235C83.3983 14.2061 83.7773 13.8667 84.1933 13.8667C84.6139 13.8667 84.9097 14.2061 84.8542 14.6235Z" fill="#3B2645"/>
<path d="M84.4615 9.229C83.8006 9.229 83.1258 9.45835 82.5573 9.87575C81.7947 10.4354 81.2955 11.2702 81.1846 12.16C80.9858 13.7746 82.1275 15.091 83.7359 15.091C83.8329 15.091 83.93 15.0865 84.0271 15.0773C84.2766 15.0543 84.4846 14.8296 84.4939 14.5819C84.4985 14.3342 84.3044 14.1507 84.0502 14.1737C83.9855 14.1783 83.9161 14.1828 83.8514 14.1828C82.7422 14.1828 81.9518 13.2746 82.0905 12.16C82.169 11.5454 82.5111 10.9674 83.038 10.5821C83.4355 10.2886 83.8884 10.1372 84.3506 10.1372C85.446 10.1372 86.2317 11.0225 86.1162 12.1233H87.0174C87.1931 10.5225 86.0561 9.229 84.4615 9.229Z" fill="#AA8CA7"/>
<path d="M92.9948 14.6235C92.9439 15.0409 92.565 15.3804 92.149 15.3804C91.7331 15.3804 91.4373 15.0409 91.4881 14.6235C91.5389 14.2061 91.9179 13.8667 92.3339 13.8667C92.7498 13.8667 93.0456 14.2061 92.9948 14.6235Z" fill="#3B2645"/>
<path d="M92.5928 9.229C91.9318 9.229 91.2571 9.45835 90.6932 9.87575C89.9352 10.4354 89.4361 11.2702 89.3251 12.16C89.1264 13.7746 90.2726 15.091 91.881 15.091C91.9781 15.091 92.0751 15.0865 92.1722 15.0773C92.4218 15.0543 92.6297 14.8296 92.6344 14.5819C92.639 14.3342 92.4403 14.1507 92.1907 14.1737C92.126 14.1783 92.0566 14.1828 91.9919 14.1828C90.8827 14.1828 90.0877 13.2746 90.2264 12.16C90.3003 11.5454 90.647 10.9674 91.1739 10.5821C91.5713 10.2886 92.0243 10.1372 92.4865 10.1372C93.5818 10.1372 94.3676 11.0225 94.2566 12.1233H95.1579C95.3243 10.5225 94.1873 9.229 92.5928 9.229Z" fill="#AA8CA7"/>
<path d="M101.133 14.6235C101.083 15.0409 100.704 15.3804 100.288 15.3804C99.8717 15.3804 99.5759 15.0409 99.6268 14.6235C99.6776 14.2061 100.057 13.8667 100.473 13.8667C100.889 13.8667 101.184 14.2061 101.133 14.6235Z" fill="#3B2645"/>
<path d="M100.722 9.229C100.061 9.229 99.3862 9.45835 98.8223 9.87575C98.0643 10.4354 97.5652 11.2702 97.4589 12.16C97.2647 13.7746 98.4156 15.091 100.019 15.091C100.116 15.091 100.214 15.0865 100.311 15.0773C100.56 15.0543 100.768 14.8296 100.773 14.5819C100.777 14.3342 100.579 14.1507 100.329 14.1737C100.264 14.1783 100.195 14.1828 100.13 14.1828C99.0211 14.1828 98.2261 13.2746 98.3601 12.16C98.4341 11.5454 98.7761 10.9674 99.303 10.5821C99.7005 10.2886 100.153 10.1372 100.616 10.1372C101.711 10.1372 102.497 11.0225 102.386 12.1233H103.287C103.453 10.5225 102.312 9.229 100.722 9.229Z" fill="#AA8CA7"/>
<path d="M45.8023 40.6217C45.7191 40.6217 45.6359 40.5896 45.5758 40.5253L42.1556 36.8788C42.04 36.755 42.0447 36.5623 42.1695 36.443C42.2942 36.3284 42.4884 36.333 42.6085 36.4568L46.0287 40.1033C46.1443 40.2272 46.1397 40.4198 46.0149 40.5391C45.9502 40.5941 45.8762 40.6217 45.8023 40.6217Z" fill="#3B2645"/>
<path d="M42.0581 40.6215C41.9703 40.6215 41.8825 40.5848 41.8224 40.5114C41.7115 40.383 41.7253 40.1903 41.8594 40.0802L46.1716 36.4337C46.301 36.3236 46.4951 36.3373 46.6061 36.4704C46.717 36.5988 46.7031 36.7914 46.5691 36.9015L42.2569 40.5481C42.2014 40.5985 42.1321 40.6215 42.0581 40.6215Z" fill="#3B2645"/>
<path d="M64.4684 49.1398C64.3852 49.1398 64.302 49.1077 64.2419 49.0435L61.2747 45.8832C61.1592 45.7593 61.1638 45.5667 61.2886 45.4474C61.4134 45.3328 61.6075 45.3374 61.7277 45.4612L64.6949 48.6215C64.8104 48.7454 64.8058 48.938 64.681 49.0573C64.6163 49.1123 64.5424 49.1398 64.4684 49.1398Z" fill="#3B2645"/>
<path d="M61.2241 49.1397C61.1363 49.1397 61.0485 49.103 60.9884 49.0296C60.8775 48.9012 60.8914 48.7085 61.0254 48.5985L64.7645 45.4381C64.8939 45.328 65.088 45.3417 65.199 45.4748C65.3099 45.6032 65.296 45.7958 65.162 45.9059L61.4229 49.0663C61.3674 49.1168 61.2935 49.1397 61.2241 49.1397Z" fill="#3B2645"/>
<path d="M74.2908 31.4153L72.9643 29.4797C72.8349 29.2916 72.8857 29.0393 73.0752 28.9109C73.2647 28.7825 73.5189 28.8329 73.6484 29.021L74.4664 30.2136L77.8081 27.5027C77.9837 27.3605 78.2425 27.3835 78.3904 27.5624C78.5337 27.7367 78.5106 27.9935 78.3303 28.1403L74.2908 31.4153Z" fill="#3B2645"/>
<path d="M71.3699 57.7764L70.4408 56.4187C70.3438 56.2765 70.3807 56.0884 70.524 55.9921C70.6673 55.8958 70.8568 55.9325 70.9539 56.0746L71.5039 56.8773L73.7964 55.0197C73.9304 54.9142 74.1246 54.9325 74.2309 55.061C74.3372 55.194 74.3187 55.3866 74.1893 55.4921L71.3699 57.7764Z" fill="#3B2645"/>
<path d="M70.7503 59.1068C69.6041 59.1068 69.1326 58.6298 68.9431 58.2078C68.4162 57.0336 69.4932 55.1713 70.8289 53.9328C70.9537 53.8181 71.1478 53.8227 71.268 53.9466C71.3835 54.0704 71.3789 54.2631 71.2541 54.3823C69.9507 55.5887 69.1696 57.1895 69.5116 57.9555C69.7474 58.4784 70.5146 58.5243 71.1154 58.4738C73.0474 58.3041 74.5218 56.9739 74.9793 55.7492C75.155 55.2813 75.1504 54.8731 74.9701 54.6896C74.3877 54.0979 72.5482 54.8272 71.952 55.13C71.7995 55.208 71.6146 55.1483 71.536 54.997C71.4575 54.8456 71.5175 54.6621 71.6701 54.5841C71.9474 54.4419 74.4062 53.2402 75.4138 54.2631C75.7743 54.63 75.8298 55.2492 75.5617 55.9648C75.0533 57.3317 73.4634 58.8913 71.1709 59.0885C71.0184 59.1023 70.8797 59.1068 70.7503 59.1068Z" fill="#3B2645"/>
<path d="M53.8749 58.3177L52.7611 55.4922L51.2959 57.0609L50.8106 56.4325L49.2207 58.3131L53.8749 58.3177Z" fill="url(#paint12_radial_3326_23164)"/>
<path d="M52.064 55.0838C52.1056 54.8591 51.9484 54.6802 51.7173 54.6802C51.4862 54.6802 51.269 54.8637 51.2274 55.0838C51.1858 55.3086 51.3429 55.4875 51.574 55.4875C51.8051 55.4875 52.0224 55.3086 52.064 55.0838Z" fill="url(#paint13_radial_3326_23164)"/>
<path d="M67.2272 31.1361L66.1133 28.3105L64.6436 29.8838L64.1629 29.2509L62.5684 31.1315L67.2272 31.1361Z" fill="#3B2645"/>
<path d="M65.4154 27.9066C65.457 27.6818 65.2999 27.5029 65.0688 27.5029C64.8377 27.5029 64.6205 27.6864 64.5789 27.9066C64.5374 28.1313 64.6945 28.3102 64.9256 28.3102C65.152 28.3102 65.3738 28.1267 65.4154 27.9066Z" fill="#3B2645"/>
<path opacity="0.3" d="M46.3013 45.1904C46.3013 45.1904 46.0378 50.2865 45.3076 52.3047H38.3008C38.3008 52.3047 39.7289 48.7682 40.2096 45.5987L46.3013 45.1904Z" fill="#543753"/>
<path d="M46.3009 45.1901C46.3009 45.1901 46.093 49.2863 44.3505 51.3458L37.2051 51.1807C37.2051 51.1807 39.3219 48.6533 39.9782 45.1855H46.3009V45.1901Z" fill="url(#paint14_radial_3326_23164)"/>
<path d="M44.7764 47.1168H40.8016C40.7415 47.1168 40.6953 47.0709 40.6953 47.0113C40.6953 46.9516 40.7415 46.9058 40.8016 46.9058H44.7764C44.8365 46.9058 44.8827 46.9516 44.8827 47.0113C44.8781 47.0663 44.8319 47.1168 44.7764 47.1168Z" fill="#3B2645"/>
<path d="M44.4346 47.9014H40.4598C40.3997 47.9014 40.3535 47.8556 40.3535 47.7959C40.3535 47.7363 40.3997 47.6904 40.4598 47.6904H44.4346C44.4947 47.6904 44.541 47.7363 44.541 47.7959C44.5363 47.8556 44.4901 47.9014 44.4346 47.9014Z" fill="#3B2645"/>
<path d="M44.0635 48.69H40.0887C40.0286 48.69 39.9824 48.6441 39.9824 48.5845C39.9824 48.5249 40.0286 48.479 40.0887 48.479H44.0635C44.1236 48.479 44.1698 48.5249 44.1698 48.5845C44.1698 48.6441 44.1236 48.69 44.0635 48.69Z" fill="#3B2645"/>
<path d="M43.6905 49.5069H39.7157C39.6556 49.5069 39.6094 49.461 39.6094 49.4014C39.6094 49.3418 39.6556 49.2959 39.7157 49.2959H43.6905C43.7506 49.2959 43.7968 49.3418 43.7968 49.4014C43.7968 49.461 43.7506 49.5069 43.6905 49.5069Z" fill="#3B2645"/>
<path opacity="0.3" d="M77.9509 36.0024C77.9509 36.0024 77.6643 41.5709 76.8648 43.7726H69.2109C69.2109 43.7726 70.7685 39.9059 71.2954 36.4474L77.9509 36.0024Z" fill="#543753"/>
<path d="M77.9508 36.0024C77.9508 36.0024 77.7243 40.4792 75.8201 42.7268L68.0137 42.5479C68.0137 42.5479 70.3246 39.7866 71.041 36.0024H77.9508Z" fill="url(#paint15_radial_3326_23164)"/>
<path d="M76.2863 38.1034H71.9417C71.877 38.1034 71.8262 38.0529 71.8262 37.9887C71.8262 37.9245 71.877 37.874 71.9417 37.874H76.2863C76.351 37.874 76.4018 37.9245 76.4018 37.9887C76.4018 38.0529 76.3464 38.1034 76.2863 38.1034Z" fill="#3B2645"/>
<path d="M75.9132 38.9657H71.5687C71.504 38.9657 71.4531 38.9152 71.4531 38.851C71.4531 38.7868 71.504 38.7363 71.5687 38.7363H75.9132C75.9779 38.7363 76.0287 38.7868 76.0287 38.851C76.0287 38.9152 75.9733 38.9657 75.9132 38.9657Z" fill="#3B2645"/>
<path d="M75.5109 39.8275H71.1663C71.1016 39.8275 71.0508 39.7771 71.0508 39.7128C71.0508 39.6486 71.1016 39.5981 71.1663 39.5981H75.5109C75.5756 39.5981 75.6265 39.6486 75.6265 39.7128C75.6265 39.7771 75.5756 39.8275 75.5109 39.8275Z" fill="#3B2645"/>
<path d="M75.1028 40.7177H70.7581C70.6934 40.7177 70.6426 40.6672 70.6426 40.603C70.6426 40.5387 70.6934 40.4883 70.7581 40.4883H75.1028C75.1675 40.4883 75.2183 40.5387 75.2183 40.603C75.2183 40.6672 75.1629 40.7177 75.1028 40.7177Z" fill="#3B2645"/>
<path d="M17.8388 48.1901L11.0077 47.0342C11.0077 47.0342 9.8522 51.6532 9.53791 52.5614C9.22362 53.4696 7.94798 55.1209 6.811 59.3362C5.67864 63.547 3.84375 67.1385 3.84375 67.1385C3.84375 67.1385 4.6156 67.033 4.96687 67.7348C5.31813 68.4366 5.81729 70.2025 6.88495 69.4595C6.88495 69.4595 13.2262 58.3959 14.89 55.2906C16.5539 52.1807 17.8388 48.1901 17.8388 48.1901Z" fill="#FFEDE5"/>
<path d="M11.0079 47.0381C11.0079 47.0381 10.6982 48.2811 10.3516 49.6022C12.2743 50.3407 15.9348 50.4462 17.0302 50.4599C17.534 49.1343 17.8344 48.194 17.8344 48.194L11.0079 47.0381Z" fill="#DD825C"/>
<path d="M4.97088 67.7343C4.61961 67.0325 3.84776 67.138 3.84776 67.138C3.84776 67.138 1.33808 68.2617 0.473785 69.7204C-0.131682 70.7386 1.80489 73.6467 3.02506 75.3026C3.57969 76.0548 4.45785 76.4998 5.39609 76.4998H9.03351C9.10284 76.4998 9.16292 76.4401 9.1583 76.3713C9.12133 74.0962 8.15073 73.2385 7.38812 73.0367C6.61165 72.8303 6.23265 71.6652 6.69946 70.6148C7.17089 69.5644 6.88896 69.4589 6.88896 69.4589C5.81668 70.202 5.32214 68.436 4.97088 67.7343Z" fill="#3B2645"/>
<path d="M11.922 34.6263C11.922 34.6263 10.0409 39.305 11.1271 41.8186L10.2812 48.0659C10.2812 48.0659 14.9817 50.4832 18.4574 49.7401C18.4574 49.7401 20.8746 41.9883 20.1166 35.741C19.3586 29.4936 12.301 32.4934 11.922 34.6263Z" fill="#3B2645"/>
<path opacity="0.5" d="M17.3496 39.6172L18.8887 48.1901C19.2538 46.7498 19.7668 44.4518 20.0534 41.9106L17.3496 39.6172Z" fill="#3B2645"/>
<path d="M5.84513 74.0691C4.75436 72.3765 2.66989 68.5969 1.20476 68.8446C0.913579 69.1152 0.650132 69.4134 0.469878 69.7253C-0.135588 70.7436 1.80098 73.6517 3.02116 75.3076C3.57578 76.0598 4.45394 76.5047 5.39218 76.5047H9.0296C9.09893 76.5047 9.15902 76.4451 9.1544 76.3763C9.14977 76.1745 9.14053 75.9818 9.12204 75.8029C8.54893 75.7846 6.82959 75.5965 5.84513 74.0691Z" fill="#E5E5E5"/>
<path d="M3.02116 75.3074C3.57578 76.0597 4.45394 76.5046 5.39218 76.5046H8.58128C7.77245 76.4588 6.05311 76.1331 5.03168 74.2983C3.65898 71.8397 1.4035 68.7298 0.469878 69.7252C-0.135588 70.7435 1.80098 73.6516 3.02116 75.3074Z" fill="#AFAFAF"/>
<path d="M30.9977 72.0694C31.5061 72.1428 31.4738 71.1107 31.4738 71.1107C31.4738 71.1107 28.488 53.8366 28.0905 52.1853C27.6931 50.534 26.6809 45.438 26.6809 45.438L20.8203 48.0663C20.8203 48.0663 22.3132 51.9926 22.4102 52.8779C22.5073 53.7632 23.1821 58.5244 24.1943 60.6068C25.2065 62.6892 27.6931 68.2669 27.9796 71.6382C29.4078 70.5511 30.4893 71.996 30.9977 72.0694Z" fill="#FFEDE5"/>
<path d="M27.476 76.3487C27.4852 76.4358 27.5638 76.5046 27.6516 76.5046H36.766C36.8723 76.5046 36.9555 76.4175 36.9509 76.3165C36.9324 75.8166 36.8214 74.4864 36.179 74.2249C35.384 73.9039 32.7264 73.3764 31.9269 71.4682C31.6727 70.8582 31.4878 71.0921 31.4739 71.1105C31.4739 71.1105 31.5063 72.1425 30.9979 72.0691C30.4895 71.9957 29.4079 70.5509 27.9844 71.638C27.9844 71.638 27.2865 74.7066 27.476 76.3487Z" fill="#3B2645"/>
<path d="M27.6513 76.5H36.7657C36.872 76.5 36.9552 76.4128 36.9506 76.3119C36.946 76.1835 36.9367 76.0046 36.909 75.8027H27.4434C27.4434 75.9954 27.4572 76.1789 27.4757 76.3486C27.485 76.4357 27.5589 76.5 27.6513 76.5Z" fill="#E5E5E5"/>
<path d="M21.7401 50.589C21.7401 50.589 24.7674 51.1716 27.2632 48.3048L26.6855 45.438L20.8203 48.0663L21.7401 50.589Z" fill="#DD825C"/>
<path d="M25.234 35.2044C25.234 35.2044 26.9719 42.5572 28.0904 47.5156C28.0904 47.5156 25.4004 50.8228 20.7462 49.8412C20.7462 49.8412 18.8743 44.1213 18.5785 43.548C18.2827 42.9746 14.8348 38.4244 16.3323 34.8604C17.8298 31.2964 23.8613 32.1266 25.234 35.2044Z" fill="#3B2645"/>
<path d="M22.8529 13.9667C22.8529 13.9667 18.7486 12.8934 17.3482 12.9209C15.9478 12.9439 13.8263 14.7282 13.2255 18.5078C12.6247 22.2873 12.9112 27.3375 12.6247 28.9429C12.3335 30.5483 11.252 35.071 11.252 35.1398C11.252 35.2132 16.8629 36.869 18.8734 36.8323C20.8793 36.7956 21.4755 36.4562 21.4755 36.4562C21.4755 36.4562 22.3814 34.8416 22.4323 34.9104C22.4877 34.9838 23.0655 36.3278 23.0655 36.3278L25.5382 35.9287C25.5382 35.9287 24.7201 31.0804 24.7432 30.4612C24.7663 29.8373 25.7184 20.3012 25.8894 19.5581C26.0512 18.8197 25.626 15.1547 22.8529 13.9667Z" fill="#AA8CA7"/>
<path opacity="0.5" d="M21.6506 21.0948L24.7565 30.2226C24.8859 28.6035 25.7271 20.2554 25.8842 19.5627C26.0552 18.8197 25.6254 15.1547 22.8522 13.9667C22.8522 13.9667 18.748 12.8934 17.3476 12.9209C17.172 12.9255 16.9871 12.953 16.793 13.0127L23.3884 16.8198L21.6506 21.0948Z" fill="#543753"/>
<path d="M26.9335 5.78362C26.9335 5.78362 26.2078 12.5126 24.0587 13.5721C21.9049 14.6317 20.0422 9.80173 20.2595 7.89817C20.4767 5.99462 23.9477 3.3067 26.9335 5.78362Z" fill="#FFEDE5"/>
<path d="M23.6895 9.41682C23.6895 9.41682 24.4152 9.30215 24.637 7.97195C24.637 7.97195 25.5429 7.71967 25.3673 6.52708C25.3673 6.52708 26.6059 7.17384 27.4933 6.6601C28.3807 6.14637 28.598 4.89416 28.4408 4.68775C28.2883 4.48134 27.9971 4.62353 27.9971 4.62353C27.9971 4.62353 28.4038 3.15573 26.6152 3.13738C24.8265 3.11445 23.3521 2.22001 22.1135 1.90351C20.8748 1.58702 18.9752 2.50439 18.9752 4.27493C18.9752 4.27493 16.7336 5.09598 17.9492 9.60488C19.1647 14.1138 22.8206 12.1185 22.8206 12.1185C22.8206 12.1185 22.5248 9.50397 23.6895 9.41682Z" fill="#3B2645"/>
<path d="M23.4544 10.7162C23.925 10.5895 24.1427 9.88814 23.9407 9.14979C23.7387 8.41145 23.1936 7.91567 22.7231 8.04244C22.2525 8.16921 22.0348 8.87052 22.2368 9.60887C22.4388 10.3472 22.9839 10.843 23.4544 10.7162Z" fill="#FFEDE5"/>
<path d="M39.543 23.4208L44.6548 24.54C44.7657 24.5629 44.8396 24.4299 44.7611 24.3473L40.8417 20.5586L39.543 23.4208Z" fill="#F2F9FF"/>
<path d="M39.6819 21.7646C39.3445 22.5719 39.2844 23.315 39.5433 23.4205C39.8021 23.526 40.2874 22.9618 40.6248 22.1499C40.9622 21.3426 41.0222 20.5995 40.7634 20.494C40.5 20.3885 40.0147 20.9573 39.6819 21.7646Z" fill="url(#paint16_radial_3326_23164)"/>
<path d="M39.5426 23.4205L0.806641 4.74736L2.5722 0.513672L40.7628 20.4941L39.5426 23.4205Z" fill="url(#paint17_radial_3326_23164)"/>
<path d="M43.791 24.3516C43.9297 24.0856 44.0175 23.8654 44.0683 23.6865L44.7755 24.37C44.8494 24.4434 44.7847 24.5718 44.6784 24.5488L43.791 24.3516Z" fill="#3B2645"/>
<path d="M6.60808 2.62383C6.76522 3.01371 6.63581 3.88063 6.24295 4.82095C5.80387 5.87593 5.18916 6.64652 4.7963 6.67404L2.55469 5.59154L4.29714 1.41748L6.60808 2.62383Z" fill="#3B2645"/>
<path d="M4.54646 1.5547L4.83764 1.70607C5.03638 2.05926 4.91159 2.98122 4.49562 3.9674C4.04267 5.05449 3.40485 5.83885 3.01662 5.8205L2.84098 5.73793L0.802734 4.75176L2.56829 0.518066L4.54646 1.5547Z" fill="#EEEEEE"/>
<path d="M2.36953 2.91713C2.85771 1.74689 2.94757 0.672544 2.57024 0.517508C2.1929 0.362472 1.49126 1.18546 1.00308 2.3557C0.514892 3.52594 0.425031 4.60029 0.802366 4.75533C1.1797 4.91036 1.88134 4.08738 2.36953 2.91713Z" fill="#EEEEEE"/>
<path d="M18.8272 11.8757C18.7394 11.8757 18.6469 11.8573 18.5637 11.8115L2.1052 3.42664C1.82327 3.27986 1.70772 2.93585 1.85562 2.65605C2.00352 2.37625 2.35016 2.26158 2.6321 2.40836L19.0906 10.7886C19.3726 10.9354 19.4881 11.2794 19.3402 11.5592C19.2385 11.761 19.0352 11.8757 18.8272 11.8757Z" fill="#EEEEEE"/>
<path d="M38.0029 18.9487C37.9381 18.6185 35.5255 17.3983 35.373 17.3158C35.2205 17.2332 34.9709 17.4626 34.9709 17.4626L35.1881 17.5772C35.1881 17.5772 35.0541 18.2332 34.9894 18.5313C34.9247 18.8295 33.8755 19.9578 33.8755 19.9578C33.8755 19.9578 33.5659 19.678 33.2053 19.2331C32.8448 18.7882 32.4289 18.8386 32.4011 18.9212C32.3734 19.0038 32.9604 20.3569 33.0436 20.4899C33.1268 20.6229 33.552 21.3981 33.552 21.5403C33.552 21.6825 30.1595 25.3382 30.1595 25.3382C29.8545 24.664 29.3322 23.8521 28.7961 23.0769C27.8347 24.6135 25.8843 26.0354 24.6133 26.8565C25.5469 27.9665 28.5188 31.3471 30.0163 31.1498C31.8049 30.9159 35.7566 23.2604 35.8768 23.0356C35.9923 22.8109 36.168 22.7375 36.8844 22.1412C37.6008 21.5449 38.0629 19.2836 38.0029 18.9487Z" fill="#FFEDE5"/>
<path d="M28.7923 23.0731C28.0574 22.0043 27.304 21.0136 27.0914 20.564C26.7309 19.7889 25.9452 16.1239 23.8237 16.0735C21.7023 16.0276 21.0645 18.133 21.0645 20.564C21.0645 22.9951 24.3183 26.5086 24.3183 26.5086C24.3183 26.5086 24.4246 26.6416 24.6048 26.8572C25.8758 26.0316 27.8263 24.6051 28.7923 23.0731Z" fill="#AA8CA7"/>
<path opacity="0.5" d="M23.8246 16.068C23.3347 16.0588 22.928 16.1597 22.5859 16.3569L26.3435 18.5265C25.8305 17.3385 25.054 16.0955 23.8246 16.068Z" fill="#543753"/>
<defs>
<linearGradient id="paint0_linear_3326_23164" x1="27.8486" y1="42.4538" x2="115.588" y2="42.4538" gradientUnits="userSpaceOnUse">
<stop offset="0.0747467" stop-color="#97C1FB"/>
<stop offset="0.6348" stop-color="#94B2FB"/>
<stop offset="1" stop-color="#91A5FB"/>
</linearGradient>
<linearGradient id="paint1_linear_3326_23164" x1="19.605" y1="42.4538" x2="107.345" y2="42.4538" gradientUnits="userSpaceOnUse">
<stop offset="0.0747467" stop-color="#97C1FB"/>
<stop offset="0.6348" stop-color="#94B2FB"/>
<stop offset="1" stop-color="#91A5FB"/>
</linearGradient>
<radialGradient id="paint2_radial_3326_23164" cx="0" cy="0" r="1" gradientUnits="userSpaceOnUse" gradientTransform="translate(79.7811 11.4248) scale(24.4804 24.295)">
<stop offset="0.0747467" stop-color="#F99E96"/>
<stop offset="0.7122" stop-color="#F78F98"/>
<stop offset="1" stop-color="#F68699"/>
</radialGradient>
<radialGradient id="paint3_radial_3326_23164" cx="0" cy="0" r="1" gradientUnits="userSpaceOnUse" gradientTransform="translate(79.7801 11.4243) scale(24.4804 24.295)">
<stop offset="0.0747467" stop-color="#F99E96"/>
<stop offset="0.7122" stop-color="#F78F98"/>
<stop offset="1" stop-color="#F68699"/>
</radialGradient>
<radialGradient id="paint4_radial_3326_23164" cx="0" cy="0" r="1" gradientUnits="userSpaceOnUse" gradientTransform="translate(79.7797 11.4243) scale(24.4804 24.2952)">
<stop offset="0.0747467" stop-color="#F99E96"/>
<stop offset="0.7122" stop-color="#F78F98"/>
<stop offset="1" stop-color="#F68699"/>
</radialGradient>
<radialGradient id="paint5_radial_3326_23164" cx="0" cy="0" r="1" gradientUnits="userSpaceOnUse" gradientTransform="translate(79.7806 11.4253) scale(24.4806 24.295)">
<stop offset="0.0747467" stop-color="#F99E96"/>
<stop offset="0.7122" stop-color="#F78F98"/>
<stop offset="1" stop-color="#F68699"/>
</radialGradient>
<radialGradient id="paint6_radial_3326_23164" cx="0" cy="0" r="1" gradientUnits="userSpaceOnUse" gradientTransform="translate(79.7795 11.4248) scale(24.4804 24.295)">
<stop offset="0.0747467" stop-color="#F99E96"/>
<stop offset="0.7122" stop-color="#F78F98"/>
<stop offset="1" stop-color="#F68699"/>
</radialGradient>
<radialGradient id="paint7_radial_3326_23164" cx="0" cy="0" r="1" gradientUnits="userSpaceOnUse" gradientTransform="translate(79.7797 11.4248) scale(24.4804 24.295)">
<stop offset="0.0747467" stop-color="#F99E96"/>
<stop offset="0.7122" stop-color="#F78F98"/>
<stop offset="1" stop-color="#F68699"/>
</radialGradient>
<radialGradient id="paint8_radial_3326_23164" cx="0" cy="0" r="1" gradientUnits="userSpaceOnUse" gradientTransform="translate(79.7805 11.4248) scale(24.4804 24.295)">
<stop offset="0.0747467" stop-color="#F99E96"/>
<stop offset="0.7122" stop-color="#F78F98"/>
<stop offset="1" stop-color="#F68699"/>
</radialGradient>
<radialGradient id="paint9_radial_3326_23164" cx="0" cy="0" r="1" gradientUnits="userSpaceOnUse" gradientTransform="translate(79.7816 11.4248) scale(24.4807 24.295)">
<stop offset="0.0747467" stop-color="#F99E96"/>
<stop offset="0.7122" stop-color="#F78F98"/>
<stop offset="1" stop-color="#F68699"/>
</radialGradient>
<radialGradient id="paint10_radial_3326_23164" cx="0" cy="0" r="1" gradientUnits="userSpaceOnUse" gradientTransform="translate(79.7795 11.4248) scale(24.4804 24.295)">
<stop offset="0.0747467" stop-color="#F99E96"/>
<stop offset="0.7122" stop-color="#F78F98"/>
<stop offset="1" stop-color="#F68699"/>
</radialGradient>
<radialGradient id="paint11_radial_3326_23164" cx="0" cy="0" r="1" gradientUnits="userSpaceOnUse" gradientTransform="translate(79.7804 11.4248) scale(24.4804 24.295)">
<stop offset="0.0747467" stop-color="#F99E96"/>
<stop offset="0.7122" stop-color="#F78F98"/>
<stop offset="1" stop-color="#F68699"/>
</radialGradient>
<radialGradient id="paint12_radial_3326_23164" cx="0" cy="0" r="1" gradientUnits="userSpaceOnUse" gradientTransform="translate(54.1344 53.9271) scale(8.69533 8.62946)">
<stop offset="0.0747467" stop-color="#F99E96"/>
<stop offset="0.7122" stop-color="#F78F98"/>
<stop offset="1" stop-color="#F68699"/>
</radialGradient>
<radialGradient id="paint13_radial_3326_23164" cx="0" cy="0" r="1" gradientUnits="userSpaceOnUse" gradientTransform="translate(54.1352 53.9269) scale(8.69546 8.6295)">
<stop offset="0.0747467" stop-color="#F99E96"/>
<stop offset="0.7122" stop-color="#F78F98"/>
<stop offset="1" stop-color="#F68699"/>
</radialGradient>
<radialGradient id="paint14_radial_3326_23164" cx="0" cy="0" r="1" gradientUnits="userSpaceOnUse" gradientTransform="translate(47.5164 44.5579) scale(9.24615 9.17624)">
<stop offset="0.0747467" stop-color="#F99E96"/>
<stop offset="0.7122" stop-color="#F78F98"/>
<stop offset="1" stop-color="#F68699"/>
</radialGradient>
<radialGradient id="paint15_radial_3326_23164" cx="0" cy="0" r="1" gradientUnits="userSpaceOnUse" gradientTransform="translate(78.9846 34.327) scale(9.91827 9.84306)">
<stop offset="0.0747467" stop-color="#F99E96"/>
<stop offset="0.7122" stop-color="#F78F98"/>
<stop offset="1" stop-color="#F68699"/>
</radialGradient>
<radialGradient id="paint16_radial_3326_23164" cx="0" cy="0" r="1" gradientUnits="userSpaceOnUse" gradientTransform="translate(48.1668 19.7885) scale(30.7848 30.552)">
<stop offset="0.0747467" stop-color="#F99E96"/>
<stop offset="0.7122" stop-color="#F78F98"/>
<stop offset="1" stop-color="#F68699"/>
</radialGradient>
<radialGradient id="paint17_radial_3326_23164" cx="0" cy="0" r="1" gradientUnits="userSpaceOnUse" gradientTransform="translate(48.1663 19.7885) scale(30.7852 30.5521)">
<stop offset="0.0747467" stop-color="#F99E96"/>
<stop offset="0.7122" stop-color="#F78F98"/>
<stop offset="1" stop-color="#F68699"/>
</radialGradient>
</defs>
</svg>
