<svg width="49" height="49" viewBox="0 0 49 49" fill="none" xmlns="http://www.w3.org/2000/svg">
<rect x="0.166016" y="0.746399" width="48" height="48" rx="24" fill="#043A4E"/>
<path d="M33.9396 23.2034C33.9433 24.6366 33.6085 26.0504 32.9623 27.3297C32.1961 28.8627 31.0183 30.1522 29.5607 31.0536C28.1031 31.955 26.4233 32.4328 24.7095 32.4334C23.2763 32.4372 21.8624 32.1023 20.5831 31.4561L14.3936 33.5193L16.4567 27.3297C15.8106 26.0504 15.4757 24.6366 15.4794 23.2034C15.4801 21.4896 15.9579 19.8098 16.8593 18.3522C17.7607 16.8946 19.0501 15.7168 20.5831 14.9506C21.8624 14.3044 23.2763 13.9696 24.7095 13.9733H25.2525C27.5158 14.0982 29.6536 15.0535 31.2565 16.6564C32.8594 18.2593 33.8147 20.397 33.9396 22.6604V23.2034Z" stroke="#CBE2D1" stroke-width="2" stroke-linecap="round" stroke-linejoin="round"/>
</svg>
