<svg width="49" height="49" viewBox="0 0 49 49" fill="none" xmlns="http://www.w3.org/2000/svg">
<circle cx="24.0078" cy="24.4336" r="24.0078" fill="#4EA692"/>
<path d="M15.4206 20.4763L16.1468 20.6638L15.4206 20.4763ZM19.2398 16.8816L19.3811 17.6181L19.2398 16.8816ZM21.4929 26.3955L21.2813 25.676L21.4929 26.3955ZM22.7007 27.6032L21.9811 27.3916L22.7007 27.6032ZM28.6199 33.6756L28.8075 34.4017L28.6199 33.6756ZM32.2146 29.8563L32.9512 29.9976L32.2146 29.8563ZM34.1294 19.8723L33.3928 19.731V19.731L34.1294 19.8723ZM29.2239 14.9668L29.0826 14.2302L29.2239 14.9668ZM17.0154 31.0202C16.7225 31.3131 16.7225 31.7879 17.0154 32.0808C17.3083 32.3737 17.7831 32.3737 18.076 32.0808L17.0154 31.0202ZM19.6193 30.5375C19.9122 30.2446 19.9122 29.7698 19.6193 29.4769C19.3264 29.184 18.8515 29.184 18.5587 29.4769L19.6193 30.5375ZM17.787 34.8784C17.4941 35.1713 17.4941 35.6461 17.787 35.939C18.0799 36.2319 18.5548 36.2319 18.8477 35.939L17.787 34.8784ZM20.391 34.3957C20.6838 34.1029 20.6838 33.628 20.391 33.3351C20.0981 33.0422 19.6232 33.0422 19.3303 33.3351L20.391 34.3957ZM13.1572 30.2485C12.8643 30.5414 12.8643 31.0163 13.1572 31.3092C13.4501 31.6021 13.9249 31.6021 14.2178 31.3092L13.1572 30.2485ZM15.7611 29.7659C16.054 29.473 16.054 28.9981 15.7611 28.7052C15.4682 28.4123 14.9933 28.4123 14.7005 28.7052L15.7611 29.7659ZM33.3928 19.731L31.478 29.7151L32.9512 29.9976L34.866 20.0135L33.3928 19.731ZM19.3811 17.6181L29.3651 15.7034L29.0826 14.2302L19.0986 16.145L19.3811 17.6181ZM16.1468 20.6638C16.5479 19.1113 17.8109 17.9193 19.3811 17.6181L19.0986 16.145C16.9544 16.5562 15.2393 18.1794 14.6945 20.2887L16.1468 20.6638ZM21.2813 25.676C18.2259 26.5745 15.3452 23.7668 16.1468 20.6638L14.6945 20.2887C13.6065 24.5001 17.5124 28.3479 21.7045 27.115L21.2813 25.676ZM23.4202 27.8148C23.8049 26.5067 22.5895 25.2913 21.2813 25.676L21.7045 27.115C21.8737 27.0653 22.0309 27.2225 21.9811 27.3916L23.4202 27.8148ZM28.4324 32.9494C25.3294 33.751 22.5217 30.8703 23.4202 27.8148L21.9811 27.3916C20.7483 31.5838 24.5961 35.4897 28.8075 34.4017L28.4324 32.9494ZM31.478 29.7151C31.1769 31.2853 29.9849 32.5483 28.4324 32.9494L28.8075 34.4017C30.9168 33.8568 32.54 32.1418 32.9512 29.9976L31.478 29.7151ZM34.866 20.0135C35.5238 16.5836 32.5125 13.5724 29.0826 14.2302L29.3651 15.7034C31.7538 15.2453 33.8509 17.3423 33.3928 19.731L34.866 20.0135ZM18.076 32.0808L19.6193 30.5375L18.5587 29.4769L17.0154 31.0202L18.076 32.0808ZM18.8477 35.939L20.391 34.3957L19.3303 33.3351L17.787 34.8784L18.8477 35.939ZM14.2178 31.3092L15.7611 29.7659L14.7005 28.7052L13.1572 30.2485L14.2178 31.3092Z" fill="#F2F4F5"/>
</svg>
