<svg width="20" height="20" viewBox="0 0 20 20" fill="none" xmlns="http://www.w3.org/2000/svg">
<path d="M7.08268 15.8332H6.66602C3.33268 15.8332 1.66602 14.9998 1.66602 10.8332V6.6665C1.66602 3.33317 3.33268 1.6665 6.66602 1.6665H13.3327C16.666 1.6665 18.3327 3.33317 18.3327 6.6665V10.8332C18.3327 14.1665 16.666 15.8332 13.3327 15.8332H12.916C12.6577 15.8332 12.4077 15.9582 12.2493 16.1665L10.9993 17.8332C10.4493 18.5665 9.54935 18.5665 8.99935 17.8332L7.74935 16.1665C7.61602 15.9832 7.30768 15.8332 7.08268 15.8332Z" stroke="#CBE2D1" stroke-width="1.5" stroke-miterlimit="10" stroke-linecap="round" stroke-linejoin="round"/>
<path d="M5.83398 6.6665H14.1673" stroke="#CBE2D1" stroke-width="1.5" stroke-linecap="round" stroke-linejoin="round"/>
<path d="M5.83398 10.8335H10.834" stroke="#CBE2D1" stroke-width="1.5" stroke-linecap="round" stroke-linejoin="round"/>
</svg>
