<svg width="14" height="15" viewBox="0 0 14 15" fill="none" xmlns="http://www.w3.org/2000/svg">
<path d="M5.34349 6.76645C5.28516 6.76062 5.21516 6.76062 5.15099 6.76645C3.76266 6.71978 2.66016 5.58229 2.66016 4.18229C2.66016 2.75312 3.81516 1.59229 5.25016 1.59229C6.67932 1.59229 7.84016 2.75312 7.84016 4.18229C7.83432 5.58229 6.73182 6.71978 5.34349 6.76645Z" stroke="#CBE2D1" stroke-linecap="round" stroke-linejoin="round"/>
<path d="M9.57193 2.75928C10.7036 2.75928 11.6136 3.67511 11.6136 4.80094C11.6136 5.90344 10.7386 6.80178 9.64776 6.84261C9.60109 6.83678 9.54859 6.83678 9.49609 6.84261" stroke="#CBE2D1" stroke-linecap="round" stroke-linejoin="round"/>
<path d="M2.42594 8.91928C1.01427 9.86428 1.01427 11.4043 2.42594 12.3434C4.0301 13.4168 6.66094 13.4168 8.2651 12.3434C9.67677 11.3984 9.67677 9.85844 8.2651 8.91928C6.66677 7.85178 4.03594 7.85178 2.42594 8.91928Z" stroke="#CBE2D1" stroke-linecap="round" stroke-linejoin="round"/>
<path d="M10.6992 12.0923C11.1192 12.0048 11.5159 11.8356 11.8426 11.5848C12.7526 10.9023 12.7526 9.77645 11.8426 9.09395C11.5217 8.84895 11.1309 8.68562 10.7167 8.59229" stroke="#CBE2D1" stroke-linecap="round" stroke-linejoin="round"/>
</svg>
