<svg width="15" height="14" viewBox="0 0 15 14" fill="none" xmlns="http://www.w3.org/2000/svg">
<path d="M5.59349 6.34116C5.53516 6.33533 5.46516 6.33533 5.40099 6.34116C4.01266 6.29449 2.91016 5.15699 2.91016 3.75699C2.91016 2.32783 4.06516 1.16699 5.50016 1.16699C6.92932 1.16699 8.09016 2.32783 8.09016 3.75699C8.08432 5.15699 6.98182 6.29449 5.59349 6.34116Z" stroke="#043A4E" stroke-linecap="round" stroke-linejoin="round"/>
<path d="M9.82193 2.33398C10.9536 2.33398 11.8636 3.24982 11.8636 4.37565C11.8636 5.47815 10.9886 6.37648 9.89776 6.41732C9.85109 6.41148 9.79859 6.41148 9.74609 6.41732" stroke="#043A4E" stroke-linecap="round" stroke-linejoin="round"/>
<path d="M2.67594 8.49398C1.26427 9.43898 1.26427 10.979 2.67594 11.9182C4.2801 12.9915 6.91094 12.9915 8.5151 11.9182C9.92677 10.9732 9.92677 9.43315 8.5151 8.49398C6.91677 7.42648 4.28594 7.42648 2.67594 8.49398Z" stroke="#043A4E" stroke-linecap="round" stroke-linejoin="round"/>
<path d="M10.9492 11.666C11.3692 11.5785 11.7659 11.4093 12.0926 11.1585C13.0026 10.476 13.0026 9.35018 12.0926 8.66768C11.7717 8.42268 11.3809 8.25935 10.9667 8.16602" stroke="#043A4E" stroke-linecap="round" stroke-linejoin="round"/>
</svg>
