<svg width="262" height="209" viewBox="0 0 262 209" fill="none" xmlns="http://www.w3.org/2000/svg">
<path d="M93.3377 193.112C144.887 193.112 186.675 151.323 186.675 99.7743C186.675 48.2252 144.887 6.43652 93.3377 6.43652C41.7887 6.43652 0 48.2252 0 99.7743C0 151.323 41.7887 193.112 93.3377 193.112Z" fill="#B9DAC2"/>
<path d="M2.17241 65.8105C2.61992 64.6742 3.0631 63.5422 3.51061 62.4059C3.98854 61.9798 4.25357 61.4504 4.32744 60.822C6.18267 58.3342 8.11612 55.911 10.5275 53.9096C17.1273 49.0028 23.9399 49.7733 30.896 53.0875C33.2291 54.1979 35.6058 55.2395 38.0389 56.109C40.4589 56.9741 42.9355 57.8263 45.6032 57.3314C48.1449 57.6111 50.3781 56.6599 52.581 55.6097C58.1597 52.9454 62.9173 49.2181 67.0926 44.703C69.7604 41.8149 72.4237 38.8752 76.3471 37.5624C78 37.2396 80 36.0001 81.0094 36.9877C81.0094 36.9877 81.3651 37.0459 81.93 36.736C82.3905 36.4821 82.4041 36.85 82.2868 36.3894C82.1969 36.0368 82.6078 35.9922 83.2355 36.1289C84.3172 36.0223 85.3997 35.956 86.4531 36.3616C86.7614 36.4074 86.9182 36.4591 86.9852 36.5072C86.99 36.5048 86.9949 36.5024 87 36.5C87.0524 36.4747 87.6089 36.7145 87.3438 36.5208C87.9825 36.5897 88.6342 36.6069 89.2642 36.7317C95.2079 37.9283 101.191 38.7805 107.256 39.0172C110.345 39.9555 112.9 41.5524 114.269 44.6083C114.896 46.0101 115.468 48.006 114.762 48.622C114.831 48.7331 114.91 48.8588 115 49C114.929 48.9768 114.86 48.9554 114.794 48.9358C114.847 49.0693 114.901 49.2124 114.953 49.3628C115.016 49.2838 115.062 49.2925 115 49.5C114.985 49.4536 114.969 49.4079 114.953 49.3628C114.832 49.5147 114.651 49.9915 115.068 50C115.954 50.0172 115.02 50.5911 115.068 51.2066C115.107 51.7188 115.377 51.977 115.868 52.0502C115.62 57.4906 112.639 60.8995 107.708 62.8708L107.252 62.3715C107.2 60.0214 107.434 57.6714 107.043 55.3601C107.582 55.2395 107.651 55.5796 107.834 55.769C108.212 56.1649 108.481 56.7847 109.185 56.5781C109.394 56.5136 109.524 56.1822 109.689 55.9756C109.133 55.5624 109.676 54.4949 108.781 54.3615C108.334 54.2969 108.142 54.2022 108.134 53.7761C108.19 53.7159 108.247 53.6513 108.308 53.5911C108.247 53.647 108.182 53.703 108.121 53.7632L105.914 53.7761C104.919 53.1434 103.772 52.967 102.646 52.7518C100.122 52.2654 99.6006 52.6829 99.4659 55.2309C99.3095 58.2051 98.0321 59.6384 95.0776 60.1506C93.4092 60.4389 91.7755 60.1118 90.1332 59.8751C87.4047 59.4791 86.5748 60.1506 86.5444 62.9009C86.527 64.2739 86.7573 65.647 86.905 67.3514L86.6658 67.1894C85.9637 66.7136 85.4941 66.3955 85.028 66.0774C84.5327 65.6943 84.2416 65.1821 83.9462 64.6269C82.7079 62.2983 80.831 60.8306 78.085 60.6542C78.0025 58.5537 78.4674 56.505 79.0322 54.5294C81.2828 46.6485 84.8369 40.0373 94.5779 39.9512L94.5966 39.9512C94.9457 39.9514 95.3823 39.9516 95.4122 39.4907C95.4469 38.901 94.9342 38.8537 94.5084 38.8494C91.2455 38.8106 88.178 39.5294 85.5842 41.5524C79.3624 46.4118 77.6983 53.3543 76.8511 60.6499C74.4875 60.4734 72.4759 61.2137 70.8944 62.9698C68.2484 65.9095 68.0833 69.1721 69.6995 72.6369C68.9739 72.9038 69.0913 73.3299 69.4997 73.7775C70.5685 74.9525 71.6981 76.403 73.2666 76.502C75.791 76.6613 77.6679 77.5178 78.9887 79.6225C79.1278 79.7646 79.2712 79.9066 79.4102 80.0486C79.5405 80.7502 79.2147 81.2452 78.7845 81.7832C75.8388 85.4503 72.402 88.6526 68.9522 91.8205C66.8797 93.7229 66.9362 94.5837 69.743 95.6985C69.6952 95.2509 69.5431 94.5192 69.6257 94.4933C70.9508 94.0672 71.7199 93.0471 72.654 92.1261C73.3535 91.4417 73.6099 93.172 74.4832 92.9438C74.8395 94.8807 74.2399 96.7444 74.0313 98.6382C71.8285 98.4144 73.145 100.308 72.6236 101.113C72.15 101.849 72.415 102.688 70.9204 102.645C69.9472 102.62 68.4222 102.805 67.7226 104.066C67.097 104.238 66.467 104.397 65.8457 104.591C62.4307 105.667 58.8375 106.132 55.5441 107.608C54.0495 107.427 53.476 108.477 53.1154 109.571C52.1117 112.601 52.3941 115.64 53.1328 119.147C55.0097 116.337 56.6173 113.927 58.2249 111.521C58.6289 111.663 58.6594 112.02 58.7071 112.36C51.1776 123.564 44.3128 135.09 41.0151 148.342C40.8978 148.82 40.7544 149.104 41.2149 149.384C41.1889 149.961 41.493 150.18 42.0404 150.137C41.9492 150.301 41.8536 150.464 41.7624 150.628C40.9542 150.611 40.5328 150.077 40.1722 149.462C40.3329 147.473 40.9629 145.592 41.4669 143.677C42.514 139.7 44.5257 136.08 45.7553 132.172C47.0326 130.678 47.6192 128.858 48.5403 127.076C46.3985 126.809 45.4219 127.618 43.6732 127.059C43.2279 127.748 41.6951 126.484 40.7978 126.439L40.4911 126.4C39.5817 126.284 38.6752 126.168 37.7651 126.056C36.8006 125.789 35.8404 125.518 34.8758 125.259C23.4968 122.208 13.9686 116.513 7.56432 106.403C4.98785 102.335 3.39765 97.8247 1.74227 93.3484C1.10793 89.6296 0.0347585 85.9754 0 82.162C1.19917 80.9869 1.20351 77.3069 0 76.1319C0.0434482 75.9253 0.0868963 75.7187 0.134689 75.5121C0.790756 74.733 1.82048 74.2897 1.50331 72.8306C1.39343 72.3304 1.82231 71.6414 2.29195 71.1892C1.84217 71.1579 1.54198 71.0184 1.89103 70.6951C3.42041 69.2834 1.84759 68.9562 1.5 68.5C1.04294 67.9009 2.08141 67.3923 3.05846 67.0913C3.04402 67.0933 3.02964 67.0953 3.0153 67.0975H3.01096C3.01096 66.4949 3.08047 65.8493 2.19413 65.7976L2.17241 65.8105Z" fill="#2E2E2E"/>
<path d="M45.9635 132.816C44.7425 136.725 42.7492 140.342 41.705 144.324C41.2045 146.24 40.5789 148.122 40.4193 150.111C39.7893 153.77 39.2026 157.456 39.4701 161.171C39.7376 164.908 40.9759 168.331 43.8364 170.927C49.6827 176.231 59.1144 174.931 64.3394 168.232C66.8376 165.033 68.2442 161.266 70.0994 157.735C70.6042 163.509 71.122 169.278 71.6139 175.047C71.9677 179.206 73.7755 181.355 77.8873 182.031C79.7814 182.345 81.7489 182.233 83.6818 182.315C81.9991 185.996 79.8979 189.483 78.4957 193.293C78.2454 193.664 77.9908 194.03 77.7406 194.4C73.9912 194.361 70.2418 194.322 66.4924 194.284C63.0451 192.265 59.602 190.25 56.1546 188.23C52.7029 185.931 49.2469 183.632 45.7953 181.329C43.6682 179.572 41.7439 177.562 39.319 176.18C37.2782 173.756 34.6938 171.913 32.4114 169.743C32.1395 169.588 31.8677 169.433 31.5959 169.278C31.4924 168.318 30.7157 167.827 30.1074 167.242C26.5953 163.849 23.5923 160.034 20.5937 156.194C18.7556 153.835 17.3707 151.131 15.1659 149.051C15.0278 148.909 14.8941 148.767 14.756 148.63C13.1208 144.561 10.765 140.867 8.69831 137.022C8.39197 136.161 8.08995 135.304 7.78361 134.443C7.64554 133.445 7.22271 132.583 6.51943 131.86C6.36842 131.288 6.21741 130.715 6.07071 130.138C5.63062 127.895 4.70298 125.815 3.93067 123.68C3.76672 122.677 3.60708 121.674 3.44744 120.67C3.48627 120.309 3.40429 120.003 3.06344 119.809C2.10559 115.267 1.8424 110.635 1.35054 106.032C1.05714 102.429 1.88555 98.868 1.73022 95.2687C1.79494 94.7995 1.70002 94.2656 2.24366 93.9814C3.88752 98.459 5.46667 102.971 8.02523 107.04C14.3893 117.153 23.8469 122.849 35.1468 125.901C36.1047 126.16 37.0582 126.431 38.016 126.698C40.3761 129.105 42.7794 131.46 45.9549 132.816H45.9635ZM18.4752 137.819C16.7407 137.802 15.3903 139.166 15.3687 140.957C15.3428 142.8 16.5768 144.049 18.4364 144.062C20.2442 144.074 21.5558 142.791 21.5731 140.996C21.5903 139.252 20.2097 137.836 18.4752 137.819Z" fill="#B9DAC2"/>
<path d="M133.381 208.489C127.463 208.515 121.551 208.558 115.633 208.558C78.6792 208.567 41.7294 208.558 4.77526 208.558C0.772728 208.558 0.0363301 207.817 0.0146714 203.727C0.00600787 201.85 -0.0156509 199.974 0.0190031 198.098C0.0709841 195.415 1.03696 194.406 3.69666 194.406C21.0886 194.393 38.4849 194.406 55.8769 194.419C57.458 194.419 59.0391 194.492 60.6245 194.531C60.6245 194.744 60.6158 194.956 60.6115 195.164C59.8751 195.212 59.1387 195.259 58.4023 195.307C57.9995 195.307 57.5923 195.303 57.1894 195.298C56.7259 195.298 56.2624 195.298 55.7989 195.303C54.5297 195.138 53.2649 195.134 52 195.316C36.8086 195.316 21.6214 195.316 6.42999 195.316C5.10448 195.199 3.77463 195.008 2.46211 195.424C2.13723 195.537 1.78636 195.606 1.66074 195.992L1.6694 195.983C1.24056 196.161 1.08461 196.507 1.07595 196.945C1.02397 199.389 0.950329 201.833 0.920007 204.281C0.881021 207.21 1.33152 207.657 4.28144 207.657C88.4733 207.657 172.665 207.657 256.853 207.67C257.81 207.67 258.724 207.639 259.499 206.989C259.686 207.163 259.872 207.332 260.058 207.505C259.118 208.714 257.775 208.545 256.485 208.545C217.819 208.545 179.15 208.549 140.485 208.545C138.54 208.545 136.595 208.502 134.65 208.48C134.23 208.047 133.805 208.055 133.381 208.476V208.489Z" fill="#141419"/>
<path d="M249.207 139.381C252.192 139.26 255.177 139.054 258.163 139.041C260.622 139.032 261.683 140.371 261.251 142.694C258.644 156.841 256.041 170.988 253.406 185.126C253.046 187.054 253.276 189.188 251.567 190.711C251.243 190.999 250.843 191.206 250.475 191.446C249.886 191.571 249.297 191.7 248.708 191.825C248.303 191.808 247.903 191.791 247.498 191.773C247.395 191.67 247.291 191.571 247.184 191.468C247.579 190.504 248.577 191.102 249.207 190.754C249.742 190.724 250.218 190.577 250.556 190.151C251.019 190.018 251.302 189.725 251.396 189.269C251.931 188.787 251.922 188.155 251.931 187.527C251.931 187.329 251.931 187.127 251.931 186.929C252.268 186.628 252.268 186.236 252.246 185.845C252.277 185.595 252.313 185.345 252.345 185.096C254.067 177.648 255.245 170.106 256.576 162.593C256.656 162.021 256.737 161.445 256.823 160.872C258.068 155.18 259.129 149.462 259.983 143.705C260.064 143.253 260.15 142.802 260.231 142.345C260.689 140.629 259.736 139.932 258.145 139.927C255.645 139.923 253.141 140.044 250.641 140.108C250.155 139.996 249.67 139.889 249.184 139.777C249.193 139.648 249.198 139.514 249.202 139.385L249.207 139.381Z" fill="#1C1F26"/>
<path d="M61.7949 195.681C61.7949 195.356 61.8034 195.031 61.8077 194.712C63.503 194.606 65.1983 194.507 66.8936 194.4C70.5859 194.46 74.2782 194.52 77.9705 194.58C78.6673 195.409 79.4746 195.011 80.2267 195.011C87.0801 195.044 93.9336 195.011 100.787 195.051C101.531 195.051 102.359 194.626 102.992 195.681C89.2598 195.681 75.5274 195.681 61.7949 195.688V195.681Z" fill="#010102"/>
<path d="M251.933 194.406C254.052 194.406 256.175 194.384 258.294 194.427C259.736 194.459 260.92 195.052 261.344 196.975C261.078 196.975 260.817 196.97 260.551 196.965C260.13 196.562 259.714 196.159 259.294 195.757C257.291 195.11 255.27 195.439 253.254 195.555C252.95 195.555 252.645 195.555 252.345 195.561C252.07 195.561 251.791 195.561 251.517 195.561C251.358 195.518 251.204 195.476 251.045 195.428C251.049 194.702 251.684 194.803 251.937 194.4L251.933 194.406Z" fill="#1C1F26"/>
<path d="M260.399 196.975C260.653 196.975 260.903 196.979 261.157 196.983C261.51 199.885 261.251 202.795 261.3 205.702C261.313 206.336 261.075 206.862 260.587 207.274C260.411 207.112 260.235 206.955 260.059 206.793C261.075 203.551 260.44 200.253 260.399 196.975Z" fill="#141419"/>
<path d="M251.047 194.717C250.793 195.079 250.16 194.989 250.152 195.642C250.027 195.695 249.898 195.7 249.769 195.666C250.496 193.987 250.014 192.87 248.473 192.245C249.037 192.107 249.601 191.964 250.165 191.825C250.458 192.789 250.75 193.753 251.043 194.717H251.047Z" fill="#6480CB"/>
<path d="M249.758 139.046C249.758 139.194 249.753 139.337 249.738 139.481C248.892 139.801 248.05 141.202 247.184 139.505C247.331 139.419 247.483 139.337 247.63 139.251L249.758 139.041V139.046Z" fill="#6480CB"/>
<path d="M133.891 94.831C136.057 96.0042 137.342 97.9822 138.598 99.9688C142.861 106.708 147.102 113.473 153.091 118.897C156.374 121.873 159.869 124.562 164.421 125.392C164.663 125.426 164.904 125.461 165.15 125.495C168.615 126.861 172.11 126.848 175.631 125.739C176.23 125.619 176.826 125.499 177.426 125.379C188.734 121.376 195.241 113.027 198.856 102.062C199.655 99.6391 198.938 97.7852 196.846 96.3424C195.487 95.4048 194.141 94.4928 192.605 93.842C191.897 93.5423 190.512 93.842 190.857 92.2964C191.172 90.8921 191.944 89.9202 193.455 89.8945C194.214 89.8817 195.042 90.0957 195.737 90.4211C200.052 92.4505 203.836 91.2988 207.305 88.533C209.932 86.4394 212.422 84.1787 215.023 82.0508C216.391 80.9291 217.755 79.6104 219.8 80.7322C220.335 81.0276 220.684 80.4068 221.124 80.2312C222.104 79.8416 223.191 79.5248 223.959 80.2783C224.857 81.1646 223.321 81.6355 223.269 82.5689C223.825 83.0099 225.051 82.6545 225.266 83.6264C225.491 84.6197 224.429 85.0051 223.951 85.6601C223.364 86.4608 222.669 87.1843 221.974 87.9978C223.709 88.4474 223.869 89.6975 222.932 90.785C218.997 95.3534 215.528 100.534 209.117 102.135C207.809 102.461 208.254 103.458 208.258 104.207C208.306 111.439 207.49 118.559 205.574 125.551C204.267 130.316 202.356 134.816 199.784 139.042C199.43 139.042 199.072 139.042 198.718 139.042C201.57 134.469 203.646 129.575 204.979 124.36C206.757 117.412 207.507 110.356 207.417 103.197C207.408 102.448 206.959 101.591 208.4 101.317C213.971 100.256 217.22 96.0855 220.533 92.0524C220.585 91.9924 220.473 91.7998 220.4 91.5257C218.764 91.7184 218.039 93.6922 215.826 93.8206C218.799 90.3055 221.483 87.1287 224.166 83.9518C224.011 83.8105 223.851 83.6692 223.696 83.5322C220.141 85.2063 218.329 88.974 214.907 90.8835C217.444 87.4755 220.87 84.7696 222.95 80.8007C221.521 80.745 220.689 81.5157 219.89 82.312C217.707 84.4827 215.55 86.6791 213.367 88.8413C213.009 89.1966 212.711 89.8774 211.736 89.2309C213.669 87.2785 215.597 85.4075 217.422 83.438C217.979 82.8386 219.433 82.2778 218.648 81.3658C218.096 80.7236 217.013 81.7383 216.245 82.205C216.003 82.3506 215.792 82.5561 215.571 82.7402C212.715 85.1249 209.949 87.6253 206.981 89.8603C203.62 92.3906 199.862 93.0799 195.832 91.4144C195.111 91.1147 194.399 90.7679 193.571 90.7808C192.747 90.7936 192.182 91.2089 191.91 91.9154C191.513 92.9515 192.561 92.7973 193.027 93.0671C193.951 93.598 195.008 93.9319 195.866 94.5399C200.276 97.6782 200.988 98.3718 199.18 103.972C196.889 111.088 192.566 116.893 186.711 121.526C182.655 124.737 178.064 126.792 172.8 127.225C164.369 127.918 157.6 124.549 151.71 118.914C146.067 113.52 141.976 106.978 137.826 100.478C136.751 98.7957 135.681 97.1088 133.925 96.0084C133.912 95.6145 133.904 95.2206 133.891 94.8267V94.831Z" fill="#1C1F26"/>
<path d="M199.3 139.053C199.652 139.053 200.008 139.053 200.36 139.053C201.557 139.097 202.75 139.176 203.947 139.176C217.516 139.176 231.084 139.168 244.652 139.176C245.502 139.176 246.347 139.307 247.197 139.378V139.505C247.935 140.914 248.643 139.751 249.36 139.485C249.823 139.588 250.287 139.688 250.75 139.791C252.097 140.239 253.616 139.446 254.908 140.283C251.758 140.231 248.806 140.818 246.283 142.675C245.524 143.234 245.292 142.643 245.009 142.211C244.395 141.275 243.743 140.664 242.344 140.652C229.23 140.56 216.108 141.056 203.003 140.291C201.068 138.886 200.321 140.794 199.137 141.477C199.064 140.842 199.395 140.017 198.262 139.878C198.571 139.608 198.88 139.335 199.184 139.065L199.304 139.041L199.3 139.053Z" fill="#5777E2"/>
<path d="M41.6716 151.318C41.7626 151.151 41.858 150.985 41.949 150.818C50.915 134.541 61.4844 119.324 72.0278 104.085C73.2325 102.346 73.7828 100.466 73.8522 98.3937C74.0559 96.4659 74.6582 94.5687 74.2985 92.5926L74.2119 92.4261C74.9009 92.0099 74.6019 91.2738 74.7579 90.6867C76.3439 82.8307 82.1378 77.4677 89.2318 77.3188C89.8385 77.3056 90.6575 76.9902 90.9652 77.7744C91.2859 78.6025 90.5925 79.1064 90.0248 79.5446C88.6251 80.6268 86.961 81.1131 85.3186 81.6564C84.8333 81.8185 83.9882 81.7134 84.0576 82.5327C84.1182 83.2382 84.8593 82.9446 85.297 83.0541C86.7703 83.4266 88.1917 83.9348 89.4615 84.7761C90.3368 85.3588 91.8015 85.9897 91.3075 87.1026C90.7788 88.2988 89.2881 87.7423 88.1831 87.4488C87.8407 87.3568 87.5287 87.1464 87.1907 87.0325C86.0987 86.6645 84.9979 86.3446 83.8192 86.4016C83.3425 86.4235 82.9222 86.5637 82.7749 87.0062C82.6015 87.5189 83.0392 87.7993 83.4076 88.0184C84.7769 88.8289 86.0943 89.6921 87.2254 90.84C88.4171 92.0537 88.4084 93.2148 87.3034 94.4635C86.09 95.8349 84.6339 96.9172 83.1085 97.8767C80.8811 99.2744 79.6374 101.268 79.1737 103.822C78.541 104.677 78.4587 105.702 78.32 106.701C76.8813 116.853 75.7936 127.062 73.9735 137.157C72.4481 145.609 70.6281 153.99 67.0009 161.829C65.3109 165.479 63.2438 168.879 59.9503 171.332C53.047 176.481 43.2793 173.208 40.6966 164.944C39.2275 160.243 39.9685 155.765 41.6673 151.322L41.6716 151.318Z" fill="#FAFAFB"/>
<path d="M84.7528 66.3015C85.2731 66.6549 85.7977 67.0082 86.6416 67.5769C86.4929 65.8707 86.2612 64.4962 86.2787 63.1217C86.3093 60.3684 87.1443 59.6962 89.89 60.0926C91.5427 60.3296 93.1866 60.6614 94.8655 60.3684C97.8385 59.8556 99.1239 58.4208 99.2813 55.4435C99.4168 52.8927 99.9415 52.4747 102.482 52.9616C103.614 53.1771 104.768 53.3537 105.769 53.9871C105.791 54.2758 105.813 54.5602 105.839 54.8489C105.848 54.9867 105.857 55.1246 105.866 55.2625C105.713 56.5724 105.857 57.8607 106.141 59.1361C106.176 60.0021 106.211 60.8682 106.242 61.7343L106.264 62.5917C106.434 66.3446 107.475 69.8864 109.084 73.2602C109.652 74.4494 109.599 75.2207 108.332 75.8584C106.688 76.6857 105.765 78.1075 105.315 79.8397C105.07 79.7578 104.825 79.6759 104.58 79.5941L104.637 79.5036L104.576 79.4131C103.789 77.1769 102.42 76.7115 100.453 78.0041L100.44 77.9697C100.291 78.1119 100.138 78.2541 99.9896 78.3962L100.134 78.4867L99.9852 78.4005C99.325 78.6634 99.2201 79.1977 99.2769 79.8095C99.2201 79.9474 99.2069 80.0853 99.2288 80.2318C96.5269 81.1452 93.8686 82.2095 90.9699 82.3948C90.2485 81.6494 90.4496 81.0849 91.2191 80.4688C91.9624 79.8741 92.1504 78.9908 91.7656 78.1291C91.3722 77.263 90.4759 77.2803 89.6845 77.3104C88.7445 77.3449 87.8002 77.444 86.8689 77.5862C86.0163 77.7198 85.5442 77.4612 85.7846 76.5952C86.3399 74.6088 85.3124 73.5187 83.6816 72.713C84.0358 70.5715 84.3943 68.4344 84.7484 66.2929L84.7528 66.3015Z" fill="#FAFAFB"/>
<path d="M69.2553 72.4925C67.6701 69.0314 67.8282 65.7764 70.4302 62.8477C71.9854 61.0957 73.9636 60.3613 76.2879 60.5331C76.5699 60.5417 76.8476 60.5503 77.1296 60.5589C83.6409 64.75 84.1665 70.7705 78.4028 75.1163C77.6978 75.3782 76.9886 75.6359 76.2836 75.8978C73.2159 76.2714 71.0027 74.8715 69.2553 72.4882V72.4925Z" fill="#FF9D48"/>
<path d="M41.2463 150.682C39.5407 155.078 38.7905 159.518 40.2692 164.174C42.8646 172.359 52.7011 175.601 59.6499 170.502C62.965 168.071 65.0457 164.699 66.7469 161.089C70.398 153.325 72.2301 145.023 73.7655 136.652C75.6019 126.649 76.6925 116.542 78.1407 106.487C78.2846 105.497 78.3631 104.482 79 103.635C79.1963 104.182 79.5496 103.913 79.8724 103.8C85.0807 103.514 90.2018 102.633 95.3272 101.704C99.2138 101.001 102.843 99.209 106.856 99.1309C106.49 99.899 105.574 99.7124 105.033 100.172C104.522 100.368 104.008 100.567 103.497 100.763C96.457 102.551 89.3643 104.108 82.0971 104.573C79.7459 104.72 79.1919 105.788 78.8997 107.884C76.5965 124.466 75.0131 141.187 69.6521 157.2C67.7764 160.763 66.3544 164.556 63.8331 167.781C58.5506 174.533 49.0151 175.844 43.1045 170.497C40.2081 167.88 38.9606 164.43 38.6901 160.663C38.4197 156.918 39.0129 153.204 39.6498 149.515C40.0118 150.135 40.4349 150.673 41.2463 150.691V150.682Z" fill="#1C1F26"/>
<path d="M41.5116 149.341C41.0576 149.059 41.1947 148.768 41.3146 148.291C44.5657 134.927 51.3336 123.308 58.7569 112.006C60.4317 112.982 60.2989 115.248 61.7767 116.364C61.9138 117.262 61.2884 117.818 60.8686 118.469C56.2981 125.569 51.6934 132.648 47.1786 139.784C45.1997 142.909 43.3964 146.151 41.5116 149.341Z" fill="#F7F9F9"/>
<path d="M80.0151 104.114C79.6852 104.227 79.3241 104.497 79.1235 103.949C79.6005 101.41 80.8799 99.4294 83.1713 98.0405C84.7405 97.087 86.234 96.016 87.4867 94.6488C88.6234 93.408 88.6324 92.2542 87.4064 91.0482C86.2429 89.9075 84.8876 89.0497 83.4789 88.2443C83.0955 88.0266 82.6497 87.7479 82.828 87.2385C82.9796 86.7988 83.412 86.6595 83.9024 86.6377C85.115 86.5854 86.2473 86.8989 87.3708 87.2646C87.7185 87.3778 88.0394 87.5912 88.3916 87.6783C89.5284 87.9656 91.062 88.5229 91.6059 87.3343C92.1096 86.2284 90.6073 85.5971 89.7067 85.0224C88.4005 84.1864 86.9383 83.677 85.4226 83.3113C84.9679 83.2025 84.2056 83.4942 84.1476 82.7932C84.0763 81.9834 84.9456 82.0835 85.4449 81.9224C87.1345 81.3825 88.8463 80.8993 90.2863 79.8239C90.8703 79.3885 91.5836 78.8834 91.2537 78.0649C90.9416 77.2855 90.0946 77.599 89.4705 77.6121C82.1683 77.7601 76.2079 83.0893 74.5763 90.8958C73.8184 91.2963 73.8318 91.932 74.0146 92.6243C74.0146 92.6243 74.0993 92.7897 74.1037 92.7897C73.2121 93.0205 72.9491 91.2702 72.2314 91.9625C71.2729 92.8942 70.4794 93.9261 69.1242 94.3571C69.0395 94.3833 69.1955 95.1234 69.2445 95.5762C66.3647 94.4529 66.3067 93.5821 68.4332 91.6534C71.9728 88.4445 75.4991 85.2053 78.5216 81.5001C78.963 80.9602 79.2973 80.4552 79.1636 79.7455C79.2215 79.6932 79.2839 79.641 79.3419 79.5844C79.6049 79.6671 79.9838 79.9022 80.1176 79.8064C80.9066 79.2448 80.1176 78.7963 79.8947 78.3566C79.2839 77.1549 77.9198 75.9663 80.0596 74.9083C81.8295 74.6253 82.4491 72.8663 83.84 72.0957C85.5029 72.9099 86.5505 74.0114 85.9843 76.0186C85.7391 76.8937 86.225 77.1549 87.0899 77.0199C88.0394 76.8719 88.9979 76.7718 89.9608 76.7413C90.7677 76.7152 91.6816 76.6934 92.0829 77.5685C92.4796 78.4393 92.2835 79.3319 91.5256 79.9327C90.7365 80.5553 90.5359 81.1257 91.2715 81.8789C91.169 82.3622 90.79 82.3752 90.3977 82.3665C89.1005 80.1069 88.0439 82.6234 86.6798 82.3404C87.1568 82.9195 87.6115 82.8933 88.035 82.9456C88.3337 83.455 88.8508 83.5987 89.3858 83.7075C89.7469 83.9383 90.1258 84.1429 90.4601 84.4041C91.588 85.2793 93.3222 86.1065 92.4662 87.7741C91.6371 89.3893 89.8806 88.9931 88.3158 88.5752C87.3752 88.327 86.5505 87.5302 85.1462 87.9221C86.0735 88.6884 86.8625 89.2805 87.5892 89.9466C89.7379 91.9146 89.8227 93.704 87.7051 95.672C86.4301 96.8563 85.0125 97.9317 83.5324 98.8677C81.5308 100.135 80.4163 101.868 80.0061 104.105L80.0151 104.114Z" fill="#141419"/>
<path d="M61.5965 117.151C60.0938 116.051 60.2288 113.828 58.5258 112.868C58.4736 112.527 58.4431 112.177 58.0424 112.036C57.8638 110.27 55.673 109.839 55.3594 108.163C58.6609 106.695 62.2629 106.235 65.6863 105.172C66.3048 104.98 66.9407 104.827 67.5679 104.652C68.5958 104.788 69.5714 103.854 70.8084 104.528C68.1776 108.888 65.0373 112.834 62.1845 116.968C62.093 117.1 61.7968 117.096 61.5965 117.155V117.151Z" fill="#B9DAC2"/>
<path d="M105.096 79.5984C105.539 77.8062 106.439 76.343 108.038 75.4891C109.274 74.8309 109.325 74.0349 108.771 72.8074C107.202 69.3252 106.187 65.6695 106.021 61.7959C106.302 61.7959 106.584 61.7959 106.865 61.7959L107.313 62.3118C106.507 63.6193 107.279 64.8868 107.505 66.1142C107.901 68.2578 108.549 70.3614 109.525 72.3049C110.182 73.6124 110.225 74.7865 109.308 75.9428C106.967 76.7344 106.192 78.7268 105.659 80.9727C104.149 87.3545 103.228 88.0305 96.9955 87.5502C96.8932 87.5413 96.7823 87.7014 96.6757 87.7815C97.8993 93.4118 100.082 95.2663 105.539 95.2441C107.381 95.2352 109.227 95.1195 111.069 95.0528C112.604 95.4975 114.177 95.1017 115.724 95.2529C115.852 95.5954 116.01 96.0401 115.622 96.218C113.486 97.1964 111.614 98.8108 109.206 99.131C109.82 97.2098 112.139 97.8368 113.217 96.1291C109.977 96.1291 106.912 96.1513 103.847 96.1246C100.926 96.0979 98.2745 94.9016 97.3067 92.1087C96.1087 88.6487 94.2371 86.047 91.4062 84.0502C91.4958 83.4498 91.9179 83.6099 92.2802 83.6366C93.9131 85.5445 96.0149 86.4428 98.3939 86.7586C102.124 87.2523 103.958 85.7313 104.337 81.8088L104.316 81.831C104.708 81.662 104.682 81.2795 104.738 80.9371C105.151 80.5769 105.228 80.1143 105.1 79.594L105.096 79.5984Z" fill="#1C1F26"/>
<path d="M61.3521 117.183C61.5481 117.123 61.8379 117.127 61.9274 116.994C64.7188 112.829 67.7914 108.846 70.3654 104.449C69.1509 103.769 68.2005 104.712 67.1948 104.574C67.8809 103.313 69.3768 103.124 70.3314 103.154C71.7974 103.197 71.5331 102.358 72.0019 101.623C72.5133 100.818 71.2178 98.9254 73.3827 99.1491C73.3145 101.184 72.7733 103.029 71.5885 104.737C61.2242 119.7 50.8258 134.64 42.0085 150.622C41.4715 150.665 41.1732 150.442 41.1988 149.87C43.0739 146.708 44.8681 143.498 46.8369 140.397C51.3287 133.324 55.91 126.308 60.4571 119.269C60.8748 118.62 61.497 118.069 61.3606 117.183H61.3521Z" fill="#1C1F26"/>
<path d="M78.0752 60.5091C77.7968 60.5005 77.5226 60.4919 77.2441 60.4832C78.0668 53.1725 79.6825 46.2071 85.7237 41.3347C88.2422 39.3064 91.2206 38.5857 94.3889 38.6245C94.8023 38.6288 95.3001 38.6763 95.2664 39.2676C95.241 39.7336 94.7981 39.725 94.4564 39.7293C84.9981 39.8156 81.5472 46.4402 79.3619 54.3464C78.8135 56.3273 78.3621 58.3815 78.4422 60.4876C78.3157 60.4228 78.1933 60.4315 78.0752 60.5091Z" fill="#C9DBFB"/>
<path d="M55.5416 108.168C55.8252 109.864 57.7794 110.295 57.9348 112.086C56.4973 114.502 55.0598 116.917 53.3814 119.73C52.7209 116.214 52.4684 113.168 53.3659 110.131C53.6884 109.035 54.2051 107.983 55.5377 108.164L55.5416 108.168Z" fill="#B9DAC2"/>
<path d="M45.9291 132.604C42.4918 131.177 39.8952 128.699 37.3359 126.167C38.4241 126.303 39.5076 126.439 40.5957 126.57C41.2122 126.602 41.824 126.638 42.4405 126.67C44.444 127.376 46.5502 126.951 48.9227 127.241C47.9326 129.111 47.3021 131.028 45.9291 132.604Z" fill="#F7F9F9"/>
<path d="M77.2441 60.5743C77.3725 60.4953 77.5054 60.487 77.643 60.5535C80.5402 60.7239 82.5206 62.1414 83.8272 64.3903C84.1389 64.9266 84.446 65.4213 84.9686 65.7912C84.5927 67.853 84.2214 69.919 83.8455 71.985C82.4152 72.7208 81.7826 74.4002 79.958 74.6704C79.5088 74.6704 79.0595 74.6704 78.6103 74.6704C84.7944 70.4636 84.2306 64.6356 77.2441 60.5784V60.5743Z" fill="url(#paint0_linear_3530_4841)"/>
<path d="M106.945 61.7958C106.652 61.7958 106.359 61.7958 106.066 61.7958L106.043 61.0272C106.669 60.2277 106.829 59.4437 105.941 58.6983C105.653 57.5512 105.506 56.3964 105.662 55.2261C105.715 55.1875 105.817 55.1334 105.808 55.1141C105.768 55.0214 105.697 54.9403 105.639 54.8553C105.617 54.5966 105.595 54.3416 105.568 54.0829C106.319 54.079 107.073 54.0752 107.824 54.0713L107.841 54.0867C107.85 54.4691 108.05 54.5502 108.503 54.6081C109.417 54.7279 108.862 55.6896 109.431 56.0565C109.262 56.2457 109.129 56.5431 108.916 56.5972C108.201 56.7826 107.921 56.2264 107.535 55.8711C107.349 55.7012 107.278 55.396 106.727 55.5042C107.127 57.5782 106.891 59.6909 106.94 61.7958H106.945Z" fill="#2E2E2E"/>
<path d="M69.9903 72.0957C71.5861 74.7308 73.6073 76.2862 76.4088 75.8723C77.9072 76.4431 77.8447 78.3362 78.5315 79.5967C78.4651 79.668 78.3988 79.7441 78.3325 79.8202C77.1463 77.499 75.4568 76.5478 73.1937 76.3718C71.7851 76.2624 70.7745 74.6594 69.8108 73.3609C69.444 72.8663 69.3426 72.3954 69.9903 72.1005V72.0957Z" fill="#141419"/>
<path d="M83.7278 181.985C91.9759 181.102 100.228 180.209 108.477 179.348C109.61 179.228 110.756 179.255 111.898 179.21C112.196 179.201 112.499 179.192 112.797 179.188C113.822 179.107 114.843 179.027 115.868 178.951C115.786 179.388 115.665 179.777 115.336 180.12C112.066 183.542 109.143 187.298 105.509 190.372C104.316 191.385 102.884 192.451 102.815 194.374C95.5831 194.374 88.3514 194.383 81.124 194.383C80.1422 194.383 79.0609 194.615 78.5332 193.366C79.9389 189.413 82.0453 185.804 83.7321 181.989L83.7278 181.985Z" fill="#2E2E2E"/>
<path d="M78.0122 193.119C78.5477 194.696 79.645 194.404 80.6413 194.404C87.9799 194.404 95.3185 194.398 102.653 194.392C103.254 194.375 103.855 194.364 104.457 194.347C119.819 194.364 135.18 194.37 150.542 194.42C151.446 194.42 152.245 194.015 153.097 193.823C153.211 193.93 153.233 194.065 153.158 194.218C152.452 195.468 151.411 194.928 150.525 194.928C135.992 194.961 121.46 194.944 106.928 194.967C106.081 194.967 105.163 194.606 104.404 195.451V195.666C104.123 195.671 103.842 195.677 103.557 195.688C103.403 195.626 103.245 195.564 103.092 195.497C102.438 194.601 101.582 194.967 100.814 194.961C93.734 194.933 86.6544 194.961 79.5748 194.928C78.7979 194.928 77.964 195.266 77.2441 194.561C77.4987 194.077 77.7577 193.598 78.0122 193.113V193.119Z" fill="#1C1F26"/>
<path d="M18.6723 137.754C20.4672 137.772 21.904 139.232 21.8861 141.03C21.8682 142.881 20.5075 144.204 18.632 144.191C16.7073 144.178 15.4271 142.89 15.4495 140.99C15.4764 139.144 16.8729 137.736 18.6723 137.754ZM20.9685 140.924C20.7224 139.543 19.9883 138.637 18.4619 138.748C17.052 138.851 16.3223 139.814 16.3626 141.101C16.4029 142.411 17.3026 143.37 18.6231 143.356C20.0286 143.343 20.8745 142.42 20.9685 140.919V140.924Z" fill="#1C1F26"/>
<path d="M249.839 195.708C249.968 195.74 250.098 195.732 250.223 195.688C250.383 195.72 250.539 195.752 250.699 195.788C250.976 196.082 251.257 196.09 251.534 195.788C251.841 195.788 252.148 195.788 252.451 195.784C254.47 196.268 256.507 196.014 258.544 195.937C258.968 196.243 259.388 196.55 259.811 196.856C259.855 200.123 260.525 203.411 259.453 206.642C258.678 207.246 257.77 207.274 256.81 207.274C172.754 207.262 88.6974 207.262 4.64535 207.262C1.70018 207.262 1.2504 206.851 1.28932 204.124C1.31959 201.852 1.39312 199.575 1.44501 197.303C1.92506 197.166 2.06778 196.836 2.03751 196.409L2.02886 196.417C2.2451 196.429 2.46134 196.449 2.67757 196.449C52.6071 196.449 102.532 196.457 152.462 196.449C153.089 196.449 153.777 196.61 154.287 196.074C154.443 196.046 154.603 196.018 154.758 195.994C155.701 196.368 156.679 196.473 157.704 196.473C185.412 196.461 213.121 196.465 240.834 196.449C241.583 196.449 242.426 196.743 243.075 196.098C245.324 195.82 247.629 196.429 249.847 195.704L249.839 195.708Z" fill="#B9DAC2"/>
<path d="M2.56617 195.688C2.63153 196.302 2.32343 196.778 1.28711 196.975C1.30578 196.389 1.64189 195.925 2.56617 195.688Z" fill="#9AB6F6"/>
<path d="M250.112 195.284C247.882 196.025 245.564 195.403 243.308 195.687C242.351 194.732 241.117 195.21 240.03 195.206C212.652 195.173 185.27 195.181 157.892 195.181C156.883 195.181 155.862 195.263 154.909 194.823C154.505 194.234 154.383 193.604 154.588 192.921C154.983 192.682 155.379 192.444 155.779 192.205C162.435 192.176 169.087 192.147 175.744 192.118C176.318 192.176 176.887 192.279 177.461 192.279C198.878 192.279 220.3 192.262 241.717 192.254C242.295 192.254 242.882 192.279 243.386 191.933C244.395 191.237 246.169 190.69 245.943 189.525C245.638 187.956 246.538 186.956 247.438 186.857C249.525 186.635 250.708 185.511 251.86 184.14C251.921 184.07 252.134 184.116 252.277 184.107C252.295 184.7 252.312 185.293 252.334 185.886C252.303 186.125 252.269 186.363 252.238 186.598C251.847 186.866 251.882 187.248 251.934 187.639C251.934 187.829 251.934 188.022 251.934 188.212C251.208 188.615 251.464 189.29 251.421 189.879C251.33 190.315 251.056 190.591 250.608 190.723C250.077 190.723 249.486 190.595 249.304 191.299C248.695 191.637 247.73 191.064 247.347 191.982C247.225 192.287 247.443 192.275 247.647 192.275C248.038 192.291 248.425 192.308 248.817 192.324C250.373 192.863 250.856 193.827 250.125 195.276L250.112 195.284Z" fill="#043A4E"/>
<path d="M252.387 185.388C252.37 184.75 252.354 184.112 252.334 183.475C252.342 183.187 252.346 182.894 252.354 182.602C252.876 179.089 253.524 175.589 253.868 172.054C254.034 170.348 254.86 168.824 254.771 167.092C255.091 166.897 255.156 166.57 255.148 166.202C255.383 164.837 254.634 163.163 256.196 162.215C254.994 169.95 253.937 177.716 252.387 185.384V185.388Z" fill="#6480CB"/>
<path d="M256.75 160.927C255.945 160.31 256.213 159.505 256.364 158.788C257.32 154.241 258.478 149.723 259.076 145.122C259.151 144.551 259.377 144.207 260.06 144.19C259.16 149.803 258.049 155.382 256.75 160.927Z" fill="#6480CB"/>
<path d="M259.954 142.903C258.935 140.351 256.848 141.263 255.09 141.089C253.834 140.122 252.356 141.038 251.045 140.521C253.37 140.452 255.691 140.324 258.013 140.328C259.491 140.328 260.376 141.075 259.95 142.903H259.954Z" fill="#6480CB"/>
<path d="M251.067 189.25C251.174 188.793 250.552 188.274 252.332 187.963C252.322 188.427 252.332 188.894 251.067 189.25Z" fill="#6480CB"/>
<path d="M161.918 33.8876L161.814 33.9756L161.853 34.1075C161.74 34.3274 161.631 34.5517 161.518 34.7715C161.062 35.2465 160.61 35.7214 160.153 36.1964C160.01 36.3019 159.871 36.4118 159.728 36.5174C159.488 36.6405 159.249 36.7636 159.01 36.8868C154.464 36.9352 149.914 36.9835 145.368 37.0319C141.504 37.0715 140.87 37.5464 139.488 41.4295C138.501 43.4392 137.515 45.4488 136.441 47.6344C134.755 45.8358 134.173 43.5051 132.817 41.6801C131.691 38.1049 129.401 36.6097 125.606 36.9747C122.451 37.2738 119.248 37.0627 116.062 37.0231C112.803 36.9835 110.978 35.1365 110.965 31.8164C110.934 25.009 110.965 18.2059 110.938 11.3985C110.938 10.6905 111.164 9.9385 110.717 9.27007C111.191 7.99037 110.925 6.65792 110.96 5.35184C111.047 2.10644 112.742 0.382588 115.941 0.299035C121.43 0.153915 126.923 0.492527 132.408 0.0791563C139.34 0.255059 146.272 0.413371 153.204 0C154.521 0.892706 155.994 0.382589 157.394 0.426564C160.232 0.514516 161.953 2.09324 161.996 4.97804C162.048 8.39495 161.996 11.8119 162.018 15.2288C162.022 16.0203 162.144 16.8075 162.213 17.5991C162.148 18.3906 162.035 19.1778 162.027 19.9693C161.974 24.6088 161.948 29.2526 161.909 33.8964L161.918 33.8876ZM136.28 45.9326C137.323 43.6458 138.28 41.7109 139.092 39.7144C140.127 37.1594 141.917 36.0161 144.647 36.0732C148.554 36.1568 152.461 36.1084 156.368 36.0908C159.801 36.0732 161.162 34.7672 161.17 31.3722C161.196 22.8058 161.201 14.2437 161.17 5.67726C161.162 2.58137 159.701 1.0906 156.642 1.0818C143.186 1.05102 129.727 1.04662 116.271 1.06861C113.477 1.06861 111.855 2.58577 111.838 5.34304C111.786 14.1997 111.795 23.0564 111.855 31.9131C111.873 34.6572 113.372 36.0205 116.097 36.0468C119.861 36.082 123.62 36.1216 127.384 36.0776C129.787 36.0512 131.53 36.9308 132.634 39.1735C133.712 41.3591 134.942 43.4699 136.28 45.9282V45.9326Z" fill="#1C1F26"/>
<path d="M111.43 95.0768C109.526 95.1436 107.619 95.2593 105.716 95.2682C100.072 95.286 97.821 93.4305 96.5566 87.8018C96.6668 87.7217 96.7813 87.5615 96.8871 87.5704C103.328 88.051 104.279 87.3746 105.839 80.9895C106.39 78.7425 107.191 76.7491 109.61 75.957C111.478 78.2041 111.615 79.6546 110.187 82.1775C107.015 87.7795 107.227 88.7584 112.465 92.7141C112.813 92.9766 113.236 93.1591 113.293 93.6752C113.055 94.6541 111.522 93.8888 111.434 95.0813L111.43 95.0768Z" fill="#B9DAC2"/>
<path d="M110.717 95.0168C110.801 93.68 112.349 94.5412 112.594 93.4347C115.383 94.1156 117.967 92.7387 120.653 92.3883C123.887 91.9677 127.121 91.6573 130.368 91.4269C132.663 91.2667 133.855 92.0077 133.89 94.6664C133.752 94.6163 133.521 94.6063 133.486 94.5061C132.16 90.9513 129.425 91.9326 127.147 92.2781C123.029 92.899 118.856 93.1343 114.84 94.3209C115.04 94.5762 115.307 94.9117 115.574 95.2471C113.959 95.0769 112.318 95.5225 110.717 95.0218V95.0168Z" fill="#6480CB"/>
<path d="M146.888 147.033C146.828 146.893 146.767 146.754 146.703 146.614C145.393 142.873 144.277 139.054 142.507 135.487C142.558 135.404 142.545 135.33 142.464 135.274C141.977 133.769 141.49 132.265 140.999 130.761C139.948 127.543 138.311 124.513 137.768 121.143C136.906 115.802 136.26 110.422 135.377 105.081C135.114 103.489 135.39 101.737 134.291 100.328C134.287 100.202 134.261 100.075 134.218 99.9577C134.761 98.4361 134.003 97.0147 133.891 95.5454C133.985 95.4712 133.99 95.3928 133.908 95.3099C135.661 96.4305 136.725 98.1483 137.802 99.8618C141.947 106.48 146.035 113.138 151.665 118.636C157.546 124.374 164.305 127.805 172.723 127.099C177.974 126.658 182.562 124.566 186.612 121.296C192.458 116.574 196.775 110.661 199.062 103.42C200.863 97.7166 200.156 97.0103 195.754 93.8144C194.896 93.191 193.841 92.8509 192.919 92.3146C192.454 92.0443 191.407 92.2013 191.803 91.1418C192.075 90.4224 192.635 89.9994 193.462 89.9864C194.285 89.9733 194.995 90.3265 195.719 90.6317C199.743 92.3277 203.495 91.6257 206.851 89.049C209.815 86.773 212.576 84.2224 215.428 81.7983C215.648 81.6108 215.855 81.4015 216.1 81.2533C216.867 80.778 217.948 79.7447 218.5 80.3987C219.284 81.3318 217.832 81.8986 217.276 82.509C215.454 84.5102 213.524 86.4199 211.598 88.408C212.572 89.0664 212.865 88.3732 213.227 88.0113C215.411 85.8051 217.565 83.5728 219.741 81.3623C220.538 80.5513 221.365 79.7665 222.795 79.8232C220.723 83.8649 217.298 86.6205 214.765 90.091C218.185 88.1465 219.99 84.3096 223.54 82.6049C223.695 82.7488 223.855 82.8927 224.01 83.0322C221.33 86.2673 218.646 89.5024 215.682 93.082C217.897 92.9512 218.62 90.9369 220.249 90.745C220.322 91.0284 220.434 91.2202 220.382 91.2813C217.074 95.3884 213.83 99.6351 208.268 100.716C206.829 100.995 207.273 101.867 207.286 102.63C207.377 109.92 206.627 117.106 204.852 124.182C203.521 129.492 201.453 134.476 198.601 139.132L198.481 139.158C197.701 139.198 196.921 139.224 196.146 139.276C193.608 139.446 191.036 138.879 188.529 139.647C185.561 139.647 184.734 140.275 184.131 143.178C183.545 145.982 183.045 148.807 182.506 151.619C172.577 154.257 162.836 153.52 153.234 150.002C151.174 149.247 149.374 147.892 147.194 147.429L147.224 147.473C147.375 147.12 147.065 147.129 146.888 147.033ZM202.625 98.2834C204.193 93.6662 207.777 94.2548 211.232 94.4161C212.038 94.4554 213.033 94.5426 213.705 93.2215C211.71 93.4482 210.052 93.7927 208.324 93.4787C205.429 92.9512 203.155 94.7519 202.625 98.2878V98.2834Z" fill="#FAFAFB"/>
<path d="M202.124 140.848C200.566 143.729 199.313 146.78 196.38 148.742C195.622 149.247 194.269 149.467 194.177 149.968C193.881 151.561 191.457 150.932 191.532 152.844C191.557 153.474 190.674 153.151 190.204 152.82C189.579 152.377 188.792 151.979 189.583 151.069C190.479 150.034 191.257 148.808 192.361 148.063C194.24 146.797 195.672 145.228 196.73 143.278C197.093 142.612 197.78 142.426 198.371 142.094C199.521 141.378 200.246 139.387 202.124 140.857V140.848Z" fill="#5379F5"/>
<path d="M189.289 139.744C191.55 138.639 193.869 139.455 196.157 139.211C196.856 139.135 197.559 139.098 198.262 139.041C197.982 139.468 197.706 139.895 197.427 140.328C194.7 140.328 191.973 140.322 189.25 140.316C189.254 140.121 189.269 139.933 189.293 139.744H189.289Z" fill="#6480CB"/>
<path d="M104.222 79.0624L104.281 79.1589C104.281 79.1589 104.226 79.2555 104.226 79.2601C104.206 79.8072 104.185 80.3543 104.168 80.8968C104.168 81.2094 104.164 81.5175 104.16 81.8301L104.181 81.8071C103.461 81.5818 103.037 82.6622 102.292 82.3312C101.921 82.3312 101.555 82.3312 101.185 82.3312L101.202 82.368C100.952 81.7197 100.436 81.5496 99.8703 81.4715L99.7871 81.5175C99.5707 80.9933 99.3586 80.4692 99.1422 79.9451C99.1172 79.7888 99.1339 79.6371 99.188 79.4946C99.6248 79.1084 99.8453 78.6073 99.862 77.9912L100.003 78.0831L99.8661 77.9866C100.157 78.005 100.295 77.8487 100.295 77.5314L100.307 77.5682C102.038 76.7177 103.207 77.6602 104.226 79.0716L104.222 79.0624Z" fill="#FF9D48"/>
<path d="M99.6984 79.8245C99.9402 80.3015 100.177 80.7785 100.419 81.2556C97.4574 81.2054 94.7794 82.105 92.1757 83.2432C91.7805 83.2181 91.3202 83.0675 91.2226 83.6324C90.4601 83.3897 89.7069 83.5026 88.9537 83.6826C88.3958 83.578 87.8564 83.4399 87.5449 82.9503C88.3307 82.6323 89.2977 82.967 90.0091 82.3896C90.4182 82.3979 90.8134 82.3854 90.9204 81.9209C94.0029 81.7452 96.8298 80.7116 99.7031 79.8203L99.6984 79.8245Z" fill="#FF9D48"/>
<path d="M104.28 78.5325C103.276 77.7297 102.124 77.1936 100.418 77.6774C102.259 76.8928 103.542 77.1753 104.28 78.5325Z" fill="#FF9D48"/>
<path d="M105.568 59.2207C107.415 60.0491 107.083 60.9159 105.781 61.7955C105.707 60.9373 105.633 60.079 105.568 59.2207Z" fill="#1C1F26"/>
<path d="M104.281 81.097C104.314 80.6702 104.341 80.2471 104.374 79.8203C104.743 79.8884 105.112 79.9566 105.481 80.0247C105.679 80.4443 105.561 80.8173 104.921 81.1077C104.71 81.0575 104.492 81.0539 104.281 81.1006V81.097Z" fill="#FF9D48"/>
<path d="M100.418 78.5332C100.387 79.0608 99.9737 79.4938 99.1546 79.8206C99.0532 79.2616 99.2405 78.7734 100.418 78.5332Z" fill="#FF9D48"/>
<path d="M80.008 79.5636C79.8808 79.3996 79.7579 79.231 79.6307 79.0669C78.863 77.8595 78.9288 76.046 77.2441 75.4992C77.968 75.2213 78.6963 74.9479 79.4201 74.6699C79.85 74.6699 80.28 74.6699 80.7099 74.6699C78.5997 75.7817 79.9466 77.0211 80.5476 78.2787C80.7669 78.7343 81.5478 79.2036 80.7669 79.796C80.6353 79.8962 80.2624 79.6502 80.0036 79.5636H80.008Z" fill="#C56711"/>
<path d="M88.9572 83.8796C89.6607 83.6923 90.3642 83.5747 91.0764 83.8274C93.9642 85.783 95.8663 88.3311 97.0865 91.7197C98.0723 94.455 100.778 95.6267 103.748 95.6528C106.87 95.679 109.997 95.6572 113.293 95.6572C112.194 97.3297 109.832 96.7156 109.207 98.5972C108.438 99.1112 107.287 98.6495 106.688 99.5947C102.689 99.6774 99.0755 101.472 95.2062 102.178C90.1036 103.11 85.0054 103.994 79.8203 104.281C80.2198 102.043 81.3055 100.309 83.2553 99.0415C84.6971 98.105 86.0737 97.0292 87.32 95.8445C89.3827 93.8757 89.2959 92.0856 87.2071 90.1169C86.4992 89.4548 85.7306 88.8581 84.8273 88.0915C86.1953 87.6995 86.9943 88.4922 87.9149 88.7448C89.4392 89.1586 91.1502 89.555 91.9579 87.9434C92.7917 86.2796 91.1024 85.452 90.0037 84.5722C89.678 84.3108 89.3046 84.1061 88.9572 83.8753V83.8796Z" fill="#F7F9F9"/>
<path d="M90.1201 82.7001C89.4115 83.7116 88.4483 83.1252 87.6656 83.6823C87.2257 83.5943 86.7533 83.6309 86.2578 82.6634C87.6749 83.1399 88.7724 78.9033 90.1201 82.7074V82.7001Z" fill="#C9DBFB"/>
<path d="M92.6934 83.1763C94.987 82.016 97.3461 81.0989 99.955 81.1501L100.037 81.1074C100.25 81.7644 100.717 81.9904 101.348 81.9435L101.331 81.9094C101.696 82.3232 102.056 82.2464 102.421 81.9094C103.154 82.2122 103.572 81.2141 104.28 81.4231C103.916 85.1812 102.15 86.6444 98.5707 86.1709C96.2853 85.868 94.262 85.0106 92.6975 83.1763H92.6934Z" fill="#F7F9F9"/>
<path d="M152.319 194.107C152.393 193.984 152.371 193.883 152.258 193.8C149.215 184.848 145.524 176.158 141.615 167.561C142.367 165.734 144.221 164.66 144.877 162.767C147.518 158.968 148.209 154.735 147.658 150.226C147.566 149.477 147.072 148.684 147.925 148.053C159.079 153.605 170.675 155.182 182.813 151.992C180.967 162.443 179.017 172.876 177.347 183.354C176.949 185.842 175.633 188.366 176.818 191C176.652 191.066 176.486 191.131 176.315 191.197C169.477 191.127 162.638 190.974 155.8 191.276C155.371 191.294 155.043 191.478 154.851 191.876C154.405 192.17 154.051 192.595 154.064 193.099C154.094 194.576 153.377 194.606 152.315 194.116L152.319 194.107Z" fill="#CBE2D1"/>
<path d="M141.453 167.364C145.296 176.069 148.924 184.866 151.916 193.93C151.082 194.081 150.299 194.404 149.414 194.4C134.37 194.36 119.326 194.356 104.281 194.342C105.321 193.482 106.637 193.153 107.763 192.328C109.027 191.405 108.73 191.113 107.905 190.296C110.402 190.234 113.501 187.617 114.159 185.052C114.554 183.517 115.216 182.51 116.893 183.105C117.151 182.293 116.153 182.027 116.549 181.259C116.845 180.603 118.578 183.247 118.191 180.612C118.126 180.186 118.728 180.292 119.05 180.186C120.804 179.587 122.193 178.007 124.221 178.114C124.282 178.114 124.359 177.728 124.428 177.519C128.679 175.82 132.895 174.077 136.622 171.264C138.273 170.013 139.614 168.358 141.453 167.369V167.364Z" fill="#2E2E2E"/>
<path d="M124.878 177.668C124.81 177.875 124.732 178.263 124.672 178.259C122.646 178.157 121.259 179.72 119.508 180.315C119.19 180.425 118.589 180.315 118.649 180.737C119.035 183.353 117.31 180.733 117.009 181.38C116.614 182.142 117.606 182.406 117.353 183.212C115.678 182.626 115.017 183.622 114.622 185.145C113.961 187.69 110.87 190.292 108.376 190.35C109.2 191.16 109.496 191.45 108.234 192.366C107.109 193.185 105.796 193.511 104.757 194.365C104.168 194.378 103.58 194.387 102.992 194.4C103.061 192.503 104.482 191.45 105.667 190.451C109.273 187.421 112.175 183.71 115.421 180.332C115.747 179.993 115.867 179.606 115.949 179.179C118.924 178.672 121.899 178.17 124.878 177.664V177.668Z" fill="#2E2E2E"/>
<path d="M133.906 100.418C135.115 101.814 134.817 103.562 135.101 105.145C136.073 110.458 136.785 115.805 137.733 121.122C138.331 124.475 140.133 127.489 141.29 130.69C141.831 132.186 142.367 133.682 142.903 135.178C141.347 133.496 140.887 131.349 139.967 129.397C137.477 124.149 136.282 118.633 135.727 112.952C135.471 110.323 134.911 107.708 134.276 105.128C133.887 103.549 133.863 101.997 133.906 100.418Z" fill="#6480CB"/>
<path d="M147.29 152.781C147.194 151.929 147.59 150.987 146.943 150.234C147.028 149.514 146.079 148.734 147.043 148.07L147.194 148.053L147.338 148.108L147.313 148.066C147.205 148.751 147.826 148.802 148.051 149.199C147.331 149.812 147.748 150.583 147.826 151.311C148.295 155.694 147.708 159.809 145.477 163.502C146.433 160.009 147.763 156.597 147.29 152.781Z" fill="#6480CB"/>
<path d="M142.904 135.179C144.53 138.893 145.561 142.87 146.767 146.765C145.359 145.649 145.371 143.714 144.8 142.139C143.987 139.896 142.988 137.689 142.904 135.179Z" fill="#6480CB"/>
<path d="M152.766 194.388C153.827 194.95 154.543 194.915 154.512 193.225C154.503 192.648 154.857 192.156 155.298 191.825C155.35 192.126 155.403 192.432 155.455 192.733C155.25 193.561 155.372 194.333 155.778 195.045C155.625 195.216 155.477 195.381 155.324 195.552C154.468 195.597 153.613 195.642 152.757 195.687C137.681 195.667 122.609 195.647 107.533 195.617C106.451 195.617 105.364 195.532 104.281 195.487C105.036 194.734 105.953 195.06 106.791 195.055C121.243 195.035 135.695 195.05 150.147 195.02C151.029 195.02 152.063 195.502 152.766 194.388Z" fill="#010102"/>
<path d="M20.5989 140.865C20.4938 142.116 19.5433 142.888 17.9774 142.903C16.5016 142.914 15.496 142.112 15.451 141.017C15.406 139.94 16.2214 139.13 17.7973 139.049C19.5083 138.956 20.3287 139.71 20.5989 140.868V140.865Z" fill="#C9DBFB"/>
<path d="M154.49 194.815C154.642 194.675 154.79 194.54 154.942 194.4C155.894 194.84 156.911 194.758 157.924 194.758C185.296 194.758 212.673 194.749 240.044 194.782C241.131 194.782 242.366 194.306 243.322 195.262C242.67 195.919 241.822 195.62 241.07 195.62C213.22 195.636 185.37 195.632 157.516 195.644C156.485 195.644 155.503 195.537 154.555 195.156C154.542 195.041 154.521 194.926 154.49 194.811V194.815Z" fill="#141419"/>
<path d="M176.87 190.499C175.662 187.955 177.003 185.517 177.408 183.113C179.109 172.993 181.086 162.914 182.961 152.819C182.987 152.531 183.014 152.239 183.041 151.951C183.596 149.217 184.111 146.478 184.715 143.757C185.337 140.938 186.19 140.328 189.251 140.328C189.224 140.455 189.211 140.586 189.202 140.713L189.229 140.726C189.051 140.866 188.878 141.001 188.7 141.141C188.576 141.264 188.451 141.386 188.332 141.505C188.189 141.678 188.043 141.848 187.901 142.017C187.87 142.127 187.865 142.241 187.883 142.356C186.901 144.98 186.635 147.74 186.186 150.466C186.164 150.749 186.141 151.033 186.119 151.316C185.346 153.793 184.969 156.341 184.711 158.906C184.382 159.13 184.364 159.456 184.396 159.795C184.364 159.926 184.36 160.061 184.382 160.197C184.36 160.616 184.338 161.035 184.316 161.458C183.458 163.308 183.578 165.361 182.987 167.266C182.165 167.841 182.272 168.764 182.117 169.555C181.388 173.289 180.633 177.018 180.046 180.772C179.669 183.185 178.718 185.534 179.06 188.036C179.194 188.87 179.322 189.704 179.456 190.537C178.594 190.525 177.732 190.508 176.87 190.495V190.499Z" fill="#9AB6F6"/>
<path d="M179.333 191.758C179.205 190.662 179.08 189.566 178.951 188.469C179.205 188.302 179.454 188.135 179.703 187.963C179.66 189.465 180.029 190.295 181.377 190.406C182.275 190.478 183.176 190.829 184.112 190.829C203.125 190.818 222.142 190.818 241.154 190.812C241.61 190.84 241.962 191.029 242.035 191.692C241.897 191.736 241.76 191.825 241.622 191.825C220.858 191.808 200.098 191.781 179.333 191.758Z" fill="#5777E2"/>
<path d="M242.886 191.222C242.816 190.723 242.479 190.577 242.044 190.56C241.908 188.742 243.366 187.767 244.389 186.879C246.232 185.283 247.908 183.529 249.657 181.841C250.125 181.389 250.491 181.405 250.762 182.004C251.078 182.699 251.521 183.147 252.334 183.039C252.326 183.315 252.322 183.587 252.314 183.864C252.178 183.872 251.973 183.822 251.92 183.897C250.832 185.292 249.719 186.431 247.744 186.661C246.894 186.757 246.039 187.775 246.331 189.375C246.545 190.56 244.873 191.117 243.916 191.825C243.715 191.368 243.28 191.335 242.886 191.226V191.222Z" fill="#5379F5"/>
<path d="M179.699 187.581C179.473 187.707 179.242 187.833 179.015 187.963C178.714 185.482 179.551 183.152 179.883 180.759C180.399 177.036 181.06 173.334 181.705 169.635C181.841 168.85 181.748 167.935 182.471 167.364C183.108 168.116 182.682 168.93 182.572 169.711C182.268 171.881 181.927 174.047 181.603 176.213L181.662 176.259C181.079 177.758 180.939 179.349 180.829 180.944C180.841 181.137 180.856 181.326 180.868 181.519C180.063 183.463 179.989 185.562 179.707 187.619V187.585L179.699 187.581Z" fill="#1C1F26"/>
<path d="M181.53 176.363C181.914 174.074 182.317 171.785 182.678 169.492C182.808 168.667 183.313 167.807 182.558 167.013C183.179 165.016 183.054 162.865 183.943 160.927C184.498 162.807 183.392 164.608 183.577 166.418C183.892 169.545 182.822 172.486 182.586 175.529C182.535 176.181 182.183 176.438 181.525 176.363H181.53Z" fill="#5777E2"/>
<path d="M184.102 158.352C184.454 155.742 184.965 153.153 186.029 150.628C187.604 152.463 185.847 154.195 185.561 155.953C185.433 156.733 186.418 158.141 184.108 158.352H184.102Z" fill="#5777E2"/>
<path d="M185.389 150.628C186.063 147.599 186.464 144.532 187.939 141.616C188.16 144.443 186.817 147.148 186.564 149.941C186.524 150.407 185.97 150.553 185.389 150.628Z" fill="#5777E2"/>
<path d="M180.238 187.962C180.518 185.792 180.592 183.577 181.393 181.525C181.307 183.74 182.209 186.186 180.238 187.962Z" fill="#5777E2"/>
<path d="M242.243 190.537C242.656 190.685 243.112 190.73 243.323 191.348C242.823 191.825 242.247 191.785 241.67 191.79C220.474 191.808 199.273 191.825 178.077 191.825C177.509 191.825 176.945 191.677 176.377 191.603C176.386 191.337 176.398 191.07 176.407 190.804C176.571 190.719 176.734 190.634 176.902 190.548C177.737 190.565 178.571 190.588 179.406 190.605C200.215 190.628 221.02 190.656 241.83 190.673C241.967 190.673 242.105 190.588 242.243 190.537Z" fill="#1C1F26"/>
<path d="M155.391 191.829C155.52 192.024 155.649 192.214 155.778 192.408C155.4 192.643 155.022 192.878 154.64 193.113C154.59 192.87 154.54 192.627 154.49 192.38C154.673 192.015 154.984 191.845 155.391 191.825V191.829Z" fill="#1C1F26"/>
<path d="M136.252 45.055C134.93 42.6573 133.707 40.5985 132.64 38.4667C131.546 36.2792 129.82 35.4214 127.439 35.4471C123.715 35.49 119.987 35.4471 116.259 35.4171C113.555 35.3914 112.074 34.066 112.057 31.3852C111.997 22.7467 111.988 14.1082 112.04 5.46965C112.057 2.7803 113.663 1.3048 116.431 1.30051C129.759 1.27907 143.092 1.28336 156.421 1.31338C159.452 1.32196 160.898 2.77172 160.907 5.79563C160.937 14.1511 160.933 22.5022 160.907 30.8576C160.894 34.1732 159.551 35.4428 156.15 35.46C152.279 35.4771 148.409 35.5286 144.539 35.4428C141.831 35.3828 140.062 36.5023 139.037 38.9943C138.236 40.9416 137.285 42.8246 136.252 45.0593V45.055ZM144.061 18.2387H121.52C123.177 18.9722 141.973 18.9722 144.061 18.2387ZM121.545 11.1615C124.529 12.3667 151.582 11.9636 152.447 11.1615H121.545ZM121.571 25.3331C121.571 25.4704 121.571 25.6119 121.567 25.7492H152.611C152.611 25.6119 152.611 25.4704 152.607 25.3331H121.576H121.571Z" fill="#FAFAFB"/>
<path d="M182.813 152.074C182.787 152.359 182.761 152.648 182.734 152.933C170.536 155.978 158.873 154.47 147.659 149.167C147.391 148.777 146.653 148.727 146.78 148.053C149 148.497 150.838 149.795 152.943 150.524C162.746 153.904 172.681 154.612 182.813 152.078V152.074Z" fill="#1C1F26"/>
<path d="M203.412 99.1311C203.905 95.537 206.019 93.7067 208.71 94.2429C210.316 94.562 211.857 94.2119 213.711 93.9814C213.087 95.3243 212.158 95.2356 211.413 95.1957C208.201 95.0318 204.87 94.4379 203.412 99.1267V99.1311Z" fill="#1C1F26"/>
<path d="M101.705 82.3857C101.09 82.4575 100.631 82.1118 100.418 81.1074C100.961 81.2248 101.464 81.4596 101.705 82.3857Z" fill="#FF9D48"/>
<path d="M144.191 18.0244C142.045 19.741 122.717 19.741 121.018 18.0244H144.191Z" fill="#1C1F26"/>
<defs>
<linearGradient id="paint0_linear_3530_4841" x1="84.9686" y1="74.6704" x2="79.1644" y2="59.7612" gradientUnits="userSpaceOnUse">
<stop stop-color="#B85B05"/>
<stop offset="0.895" stop-color="#FF9D48"/>
</linearGradient>
</defs>
</svg>
