<svg width="13" height="17" viewBox="0 0 13 17" fill="none" xmlns="http://www.w3.org/2000/svg">
<path d="M4.01562 9.70703C4.51291 9.70703 4.98982 9.50949 5.34145 9.15786C5.69308 8.80623 5.89062 8.32931 5.89062 7.83203C5.89062 6.79703 5.51562 6.33203 5.14062 5.58203C4.33662 3.97478 4.97263 2.54153 6.64062 1.08203C7.01562 2.95703 8.14062 4.75703 9.64062 5.95703C11.1406 7.15703 11.8906 8.58203 11.8906 10.082C11.8906 10.7715 11.7548 11.4542 11.491 12.0911C11.2272 12.7281 10.8404 13.3068 10.3529 13.7943C9.86543 14.2818 9.28667 14.6686 8.64971 14.9324C8.01275 15.1962 7.33006 15.332 6.64062 15.332C5.95119 15.332 5.2685 15.1962 4.63154 14.9324C3.99458 14.6686 3.41582 14.2818 2.92831 13.7943C2.44081 13.3068 2.05409 12.7281 1.79026 12.0911C1.52642 11.4542 1.39062 10.7715 1.39063 10.082C1.39063 9.21728 1.71538 8.36153 2.14062 7.83203C2.14063 8.32931 2.33817 8.80623 2.6898 9.15786C3.04143 9.50949 3.51834 9.70703 4.01562 9.70703Z" stroke="#043A4E" stroke-width="1.5" stroke-linecap="round" stroke-linejoin="round"/>
</svg>
