<svg width="120" height="52" viewBox="0 0 120 52" fill="none" xmlns="http://www.w3.org/2000/svg">
<path d="M110.325 7.91318C113.529 8.95658 119.25 7.91318 119.25 7.91318V52H0.25V46.3479C0.25 46.3479 9.00267 40.8467 15.125 41.8262C19.2241 42.482 19.9517 47.0065 24.05 46.3479C27.6891 45.7632 26.2805 40.7172 30 40.6958C32.9044 40.6791 33.3076 43.1706 35.95 44.0871C39.1646 45.202 40.4125 46.3481 44.875 45.2175C49.3375 44.087 47.85 33.913 50.825 32.7827C53.8 31.6524 54.2785 34.67 58.2625 33.9132C62.2465 33.1564 73.1375 5.65217 76.1125 3.39144C79.0875 1.1307 80.9299 8.5375 85.0375 7.91318C88.2598 7.42342 88.0125 0 90.9875 0C93.9625 0 94.7281 8.22534 98.425 7.91318C101.691 7.6374 102.888 3.39123 104.375 3.39144C105.863 3.39164 107.305 6.92945 110.325 7.91318Z" fill="url(#paint0_linear_5624_18982)"/>
<defs>
<linearGradient id="paint0_linear_5624_18982" x1="58.2988" y1="11.3043" x2="58.2988" y2="55.3913" gradientUnits="userSpaceOnUse">
<stop stop-color="#EA973D" stop-opacity="0.31"/>
<stop offset="0.929726" stop-color="#EA973D" stop-opacity="0.01"/>
</linearGradient>
</defs>
</svg>
