<svg width="42" height="41" viewBox="0 0 42 41" fill="none" xmlns="http://www.w3.org/2000/svg">
<rect x="0.382812" y="0.105469" width="40.7015" height="40.7015" rx="8.57588" fill="#A0A0A0"/>
<g clip-path="url(#clip0_6884_42342)">
<path d="M14.585 13.4172V24.2506C14.585 25.4531 13.6208 26.4172 12.4183 26.4172H11.335C10.7391 26.4172 10.2516 25.9297 10.2516 25.3339V22.0839H8.08496V25.3339C8.08496 27.1322 9.53663 28.5839 11.335 28.5839H12.4183C14.8125 28.5839 16.7516 26.6447 16.7516 24.2506V13.4172M31.9183 22.4956L30.5858 21.1631C30.1924 20.7679 29.7248 20.4544 29.2098 20.2406C28.6948 20.0268 28.1426 19.9169 27.585 19.9172H25.4183V22.0839H27.585C28.1266 22.0839 28.6683 22.3006 29.0475 22.6906L29.4266 23.0697L28.1266 23.8172C27.6283 24.0989 27.0758 24.2506 26.5016 24.2506H25.4183C24.8116 24.2506 24.335 23.7739 24.335 23.1672V14.5006H22.1683V18.6281L21.4966 17.8806C20.76 17.0681 19.5683 16.6672 18.4741 16.6672H17.835V18.8339H18.4741C19.1675 18.8339 19.8283 19.1047 20.3158 19.6031L22.1683 21.4447V23.1672C22.1683 24.3806 21.215 25.3339 20.0016 25.3339H17.835V27.5006H20.0016C21.4858 27.5006 22.71 26.7422 23.4358 25.5939C23.6927 25.859 24.0011 26.0688 24.342 26.2104C24.6829 26.352 25.0492 26.4224 25.4183 26.4172H26.5016C27.455 26.4172 28.3866 26.1681 29.21 25.6914L31.9183 24.1314V22.4956Z" fill="#CBE2D1"/>
</g>
<defs>
<clipPath id="clip0_6884_42342">
<rect width="26" height="26" fill="white" transform="translate(7.7334 7.4563)"/>
</clipPath>
</defs>
</svg>
