<svg width="41" height="41" viewBox="0 0 41 41" fill="none" xmlns="http://www.w3.org/2000/svg">
<rect width="40.7015" height="40.7015" rx="8.57588" fill="#FF9D48"/>
<g clip-path="url(#clip0_6884_42331)">
<path d="M30.2627 27.527C30.1467 28.2107 29.8209 28.8415 29.3305 29.3319C28.8401 29.8223 28.2093 30.1481 27.5255 30.2641C24.238 30.8216 18.0406 31.0766 13.4825 26.5164C8.92437 21.9562 9.17726 15.7609 9.73484 12.4734C9.85115 11.7889 10.1777 11.1576 10.6691 10.6671C11.1604 10.1766 11.7923 9.85129 12.477 9.73625C13.6289 9.5398 14.7952 9.43992 15.9637 9.43766C19.2228 9.43766 23.2812 10.2502 26.515 13.4839C31.0741 18.042 30.8202 24.2394 30.2627 27.527ZM24.0054 28.9488C25.0948 28.945 26.1819 28.8499 27.2554 28.6645C27.6069 28.6044 27.9311 28.4366 28.1831 28.1842C28.4351 27.9319 28.6025 27.6074 28.662 27.2558C28.8716 26.0413 28.9634 24.8094 28.9362 23.5772L23.5748 28.9377C23.7169 28.9458 23.8581 28.9478 24.0054 28.9478V28.9488ZM12.7431 11.3369C12.3915 11.3967 12.0672 11.5643 11.815 11.8164C11.5628 12.0686 11.3953 12.3929 11.3355 12.7445C11.1259 13.9591 11.0341 15.191 11.0612 16.4231L16.4217 11.0627C15.1895 11.035 13.9576 11.1268 12.7431 11.3369ZM25.3673 14.6316C24.1882 13.4534 21.9884 11.8152 18.5251 11.2526L11.2512 18.5265C11.8138 21.9898 13.452 24.1896 14.6302 25.3687C15.8083 26.5479 18.0081 28.1861 21.4714 28.7487L28.7463 21.4738C28.1837 18.0105 26.5455 15.8107 25.3673 14.6316ZM23.8216 23.823C23.9738 23.6706 24.0593 23.464 24.0593 23.2486C24.0593 23.0332 23.9738 22.8267 23.8216 22.6743L22.3652 21.2189L23.0091 20.575C23.0893 20.5007 23.1538 20.411 23.1986 20.3112C23.2433 20.2114 23.2675 20.1036 23.2696 19.9942C23.2717 19.8848 23.2517 19.7762 23.2108 19.6747C23.1699 19.5733 23.1089 19.4812 23.0315 19.4038C22.9541 19.3265 22.8619 19.2656 22.7605 19.2248C22.659 19.184 22.5503 19.1641 22.441 19.1663C22.3316 19.1685 22.2238 19.1927 22.124 19.2376C22.0243 19.2825 21.9346 19.347 21.8604 19.4273L21.2175 20.0702L19.9287 18.7814L20.5726 18.1375C20.6529 18.0633 20.7175 17.9736 20.7623 17.8738C20.8072 17.7741 20.8314 17.6663 20.8336 17.5569C20.8358 17.4476 20.8159 17.3389 20.7751 17.2374C20.7343 17.1359 20.6734 17.0437 20.5961 16.9664C20.5188 16.889 20.4266 16.828 20.3252 16.7871C20.2237 16.7462 20.1151 16.7262 20.0057 16.7283C19.8964 16.7304 19.7885 16.7545 19.6887 16.7993C19.5889 16.8441 19.4992 16.9085 19.4249 16.9888L18.78 17.6337L17.3236 16.1773C17.2489 16.0987 17.1592 16.0358 17.0598 15.9924C16.9605 15.949 16.8534 15.9259 16.7449 15.9245C16.6365 15.9231 16.5289 15.9435 16.4284 15.9843C16.328 16.0252 16.2367 16.0858 16.16 16.1624C16.0833 16.2391 16.0228 16.3304 15.9819 16.4309C15.9411 16.5313 15.9207 16.6389 15.9221 16.7474C15.9235 16.8558 15.9466 16.9629 15.99 17.0623C16.0334 17.1616 16.0963 17.2513 16.1749 17.326L17.6323 18.7814L16.9884 19.4253C16.846 19.5796 16.7687 19.783 16.773 19.9929C16.7772 20.2028 16.8625 20.403 17.011 20.5514C17.1596 20.6998 17.3598 20.7849 17.5697 20.7889C17.7796 20.793 17.983 20.7156 18.1371 20.573L18.781 19.9291L20.0688 21.2189L19.4249 21.8628C19.2823 22.0169 19.2049 22.2203 19.2089 22.4302C19.213 22.6401 19.2981 22.8404 19.4465 22.9889C19.5949 23.1374 19.7951 23.2227 20.005 23.227C20.2149 23.2312 20.4183 23.1539 20.5726 23.0115L21.2175 22.3666L22.6739 23.823C22.8262 23.9749 23.0326 24.0602 23.2477 24.0602C23.4629 24.0602 23.6692 23.9749 23.8216 23.823Z" fill="#CBE2D1"/>
</g>
<defs>
<clipPath id="clip0_6884_42331">
<rect width="26" height="26" fill="white" transform="translate(7.35059 7.35083)"/>
</clipPath>
</defs>
</svg>
