<svg width="14" height="14" viewBox="0 0 14 14" fill="none" xmlns="http://www.w3.org/2000/svg">
<path d="M12.6049 0.285633C12.8701 0.286725 13.1239 0.393088 13.3107 0.581331C13.4974 0.769573 13.6018 1.02428 13.6008 1.28944L13.569 9.28959C13.5708 9.42236 13.5461 9.55416 13.4964 9.67729C13.4467 9.80042 13.373 9.91242 13.2795 10.0068C13.1861 10.1011 13.0748 10.1759 12.9521 10.2267C12.8295 10.2776 12.6979 10.3035 12.5651 10.303C12.4323 10.3025 12.301 10.2755 12.1787 10.2237C12.0565 10.1718 11.9458 10.0962 11.8531 10.0011C11.7604 9.90602 11.6876 9.79344 11.6388 9.66991C11.5901 9.54639 11.5665 9.4144 11.5693 9.28165L11.5915 3.69555L2.19017 13.0225C2.00189 13.2093 1.74712 13.3136 1.4819 13.3126C1.21669 13.3115 0.962756 13.2052 0.775966 13.0169C0.589176 12.8286 0.484829 12.5738 0.485882 12.3086C0.486935 12.0434 0.593301 11.7895 0.781581 11.6027L10.1829 2.27573L4.5968 2.25355C4.33466 2.24795 4.0852 2.13961 3.90215 1.95187C3.71911 1.76413 3.61712 1.51201 3.61816 1.24981C3.6192 0.987601 3.72319 0.736294 3.90772 0.550013C4.09225 0.363732 4.34256 0.257381 4.60475 0.253865L12.6049 0.285633Z" fill="#4EA692"/>
</svg>
