<svg width="46" height="46" viewBox="0 0 46 46" fill="none" xmlns="http://www.w3.org/2000/svg">
<rect opacity="0.5" x="0.0429688" y="0.240234" width="45.1836" height="45.1836" rx="9.76574" fill="#95B3B2"/>
<path d="M17.6074 15.3527C17.1105 15.512 16.6793 15.8589 16.4918 16.262C16.398 16.4589 16.3699 16.5995 16.3699 16.9558V17.387L16.1168 17.2933C15.9199 17.2183 15.7324 17.1995 15.273 17.1995C14.4855 17.1995 14.2793 17.2745 13.8762 17.6683C13.4262 18.1277 13.4074 18.2027 13.4074 19.712V20.9589L13.0418 20.987C12.4605 21.0245 12.0012 21.3152 11.7105 21.8402C11.5699 22.0933 11.5605 22.1308 11.5605 22.7589C11.5605 23.3777 11.5699 23.4245 11.6918 23.6683C11.973 24.1933 12.4324 24.5027 13.0324 24.5402L13.398 24.5683V25.8339C13.398 26.987 13.4074 27.1183 13.5012 27.3152C13.6605 27.6808 13.923 27.9527 14.2605 28.1214C14.5605 28.2714 14.5887 28.2808 15.2449 28.2808C15.7324 28.2808 15.9668 28.262 16.098 28.2058C16.1918 28.1683 16.2949 28.1308 16.323 28.1308C16.3512 28.1308 16.3699 28.3652 16.3699 28.6464C16.3699 29.2464 16.4637 29.4902 16.8105 29.8277C17.6168 30.6152 19.2199 30.5683 19.9699 29.7339C20.3449 29.312 20.3543 29.2839 20.3543 26.762V24.5589H22.623H24.8824V26.837C24.8824 29.0214 24.8918 29.1245 24.9855 29.3402C25.2199 29.8652 25.8012 30.2589 26.4949 30.3527C27.4324 30.4933 28.2949 30.137 28.698 29.4433C28.8199 29.237 28.8293 29.1433 28.8574 28.6652C28.8668 28.3652 28.8762 28.1308 28.8855 28.1308C28.8855 28.1308 28.9793 28.1683 29.0918 28.2058C29.223 28.2527 29.5137 28.2808 29.973 28.2808C30.5355 28.2902 30.6855 28.262 30.8637 28.187C31.1543 28.0558 31.5199 27.6995 31.6699 27.3995C31.8105 27.1464 31.8105 27.1464 31.8199 25.862L31.8387 24.5683L32.2043 24.5495C32.8324 24.5214 33.3293 24.1839 33.5824 23.6214C33.6949 23.3777 33.7043 23.2839 33.7043 22.7589C33.6949 22.262 33.6762 22.1402 33.5824 21.9152C33.3293 21.3714 32.823 21.0339 32.2043 20.9964L31.8387 20.9777V19.7402C31.8387 18.6339 31.8293 18.4933 31.7355 18.2402C31.6043 17.8933 31.3137 17.5652 30.9762 17.3777C30.7137 17.2277 30.6949 17.2277 29.9449 17.2277C29.3168 17.2277 29.1668 17.2464 29.0262 17.3214L28.8574 17.4152V17.0214C28.8574 16.787 28.8199 16.5245 28.773 16.3745C28.6699 16.0558 28.2574 15.6433 27.8637 15.4558C27.5918 15.3339 27.5262 15.3245 26.8699 15.3245C26.2137 15.3245 26.148 15.3339 25.8762 15.4558C25.5012 15.6245 25.1637 15.9433 25.0043 16.262L24.8824 16.5152V18.7464V20.9777H22.6137H20.3449V18.8214C20.3449 17.5089 20.3262 16.5995 20.298 16.487C20.1668 16.0183 19.6699 15.5495 19.1168 15.3714C18.798 15.2683 17.9074 15.2589 17.6074 15.3527ZM19.1262 16.1964C19.248 16.2527 19.3793 16.3652 19.4449 16.4589C19.548 16.6277 19.548 16.6933 19.548 22.8245V29.0214L19.4355 29.1902C19.248 29.4808 19.0043 29.5652 18.348 29.5652C17.8512 29.5652 17.7387 29.5464 17.5605 29.4527C17.1387 29.2277 17.1762 29.837 17.1762 22.9464C17.1855 19.5808 17.1855 16.7683 17.1855 16.6933C17.1949 16.5245 17.4105 16.262 17.6168 16.1683C17.7105 16.1308 17.9824 16.1027 18.348 16.1027C18.798 16.0933 18.9574 16.112 19.1262 16.1964ZM27.6199 16.187C27.7324 16.2339 27.8637 16.3277 27.9199 16.3933C28.023 16.5058 28.023 16.5808 28.0324 22.7964L28.0418 29.087L27.8543 29.2745C27.7043 29.4245 27.6012 29.4714 27.3668 29.5277C26.9449 29.612 26.3637 29.5745 26.0824 29.4339C25.6512 29.2183 25.6887 29.8277 25.6887 22.787V16.5527L25.8293 16.3839C26.0355 16.1402 26.2043 16.0933 26.8512 16.0933C27.3012 16.0933 27.4605 16.112 27.6199 16.187ZM16.023 18.0808C16.3418 18.2402 16.323 18.0339 16.323 22.787V27.1183L16.1543 27.287C16.0137 27.4183 15.9293 27.4558 15.6949 27.4839C15.3012 27.5308 14.7012 27.4839 14.5137 27.3902C14.1949 27.2214 14.2043 27.4464 14.2043 22.7308C14.2043 17.9777 14.1855 18.2495 14.523 18.0808C14.7574 17.9777 15.8168 17.9777 16.023 18.0808ZM30.6668 18.0714C30.7324 18.1089 30.8449 18.212 30.9012 18.3058L31.0137 18.4745V22.7214C31.0137 27.4183 31.0324 27.2308 30.6949 27.3995C30.5168 27.4933 29.9168 27.5495 29.523 27.4933C29.298 27.4652 29.1949 27.4183 29.0543 27.2964L28.8762 27.1277L28.8574 22.8433C28.8387 18.1183 28.8293 18.3058 29.1574 18.1089C29.298 18.0245 29.4105 18.0058 29.9262 18.0058C30.3199 18.0058 30.5918 18.0339 30.6668 18.0714ZM13.4074 22.7683V23.7527L13.0512 23.7339C12.7324 23.7152 12.6855 23.6964 12.5355 23.5558L12.3762 23.3964V22.7683C12.3762 22.1683 12.3855 22.1308 12.498 22.0089C12.6668 21.8308 12.7699 21.7839 13.1168 21.7839L13.4074 21.7745V22.7683ZM24.8824 22.7589V23.7433H22.6137H20.3449V22.7589V21.7745H22.6137H24.8824V22.7589ZM32.5605 21.8495C32.8324 21.962 32.9168 22.1683 32.9168 22.7589C32.9168 23.5277 32.748 23.7433 32.1387 23.7433H31.8387V22.7589V21.7745H32.1199C32.2605 21.7745 32.4574 21.812 32.5605 21.8495Z" fill="#043A4E" stroke="#043A4E" stroke-width="0.3"/>
</svg>
