<svg width="27" height="27" viewBox="0 0 27 27" fill="none" xmlns="http://www.w3.org/2000/svg">
<circle cx="13.2188" cy="13.7637" r="12.5" fill="#F4CFAF" stroke="white"/>
<path d="M10.3193 11.083H8.68594C8.59311 11.083 8.50409 11.1199 8.43845 11.1855C8.37281 11.2512 8.33594 11.3402 8.33594 11.433V16.5663C8.33594 16.6123 8.34499 16.6578 8.36258 16.7003C8.38017 16.7427 8.40595 16.7813 8.43845 16.8138C8.47095 16.8463 8.50953 16.8721 8.552 16.8897C8.59446 16.9073 8.63997 16.9163 8.68594 16.9163H10.3193C10.3652 16.9163 10.4107 16.9073 10.4532 16.8897C10.4957 16.8721 10.5343 16.8463 10.5668 16.8138C10.5993 16.7813 10.625 16.7427 10.6426 16.7003C10.6602 16.6578 10.6693 16.6123 10.6693 16.5663V11.433C10.6693 11.3402 10.6324 11.2512 10.5668 11.1855C10.5011 11.1199 10.4121 11.083 10.3193 11.083ZM17.3193 11.083H15.6859C15.5931 11.083 15.5041 11.1199 15.4384 11.1855C15.3728 11.2512 15.3359 11.3402 15.3359 11.433V16.5663C15.3359 16.6123 15.345 16.6578 15.3626 16.7003C15.3802 16.7427 15.4059 16.7813 15.4384 16.8138C15.471 16.8463 15.5095 16.8721 15.552 16.8897C15.5945 16.9073 15.64 16.9163 15.6859 16.9163H17.3193C17.3652 16.9163 17.4107 16.9073 17.4532 16.8897C17.4957 16.8721 17.5343 16.8463 17.5668 16.8138C17.5993 16.7813 17.625 16.7427 17.6426 16.7003C17.6602 16.6578 17.6693 16.6123 17.6693 16.5663V11.433C17.6693 11.3402 17.6324 11.2512 17.5668 11.1855C17.5011 11.1199 17.4121 11.083 17.3193 11.083Z" stroke="#FF9D48" stroke-linecap="round" stroke-linejoin="round"/>
<path d="M10.6693 14H15.3359M6.58594 15.4V12.6C6.58594 12.5072 6.62281 12.4182 6.68845 12.3525C6.75409 12.2869 6.84311 12.25 6.93594 12.25H7.98594C8.07876 12.25 8.16779 12.2869 8.23342 12.3525C8.29906 12.4182 8.33594 12.5072 8.33594 12.6V15.4C8.33594 15.4928 8.29906 15.5818 8.23342 15.6475C8.16779 15.7131 8.07876 15.75 7.98594 15.75H6.93594C6.84311 15.75 6.75409 15.7131 6.68845 15.6475C6.62281 15.5818 6.58594 15.4928 6.58594 15.4ZM19.4193 15.4V12.6C19.4193 12.5072 19.3824 12.4182 19.3168 12.3525C19.2511 12.2869 19.1621 12.25 19.0693 12.25H18.0193C17.9264 12.25 17.8374 12.2869 17.7718 12.3525C17.7061 12.4182 17.6693 12.5072 17.6693 12.6V15.4C17.6693 15.4928 17.7061 15.5818 17.7718 15.6475C17.8374 15.7131 17.9264 15.75 18.0193 15.75H19.0693C19.1621 15.75 19.2511 15.7131 19.3168 15.6475C19.3824 15.5818 19.4193 15.4928 19.4193 15.4Z" stroke="#FF9D48" stroke-linecap="round" stroke-linejoin="round"/>
</svg>
