<svg width="41" height="41" viewBox="0 0 41 41" fill="none" xmlns="http://www.w3.org/2000/svg">
<rect width="40.7015" height="40.7015" rx="8.57588" fill="#806E8B"/>
<g clip-path="url(#clip0_6884_42320)">
<path d="M27.6572 22.2373L21.5288 28.3668C21.1225 28.773 20.5715 29.0012 19.997 29.0012C19.4224 29.0012 18.8714 28.773 18.4651 28.3668L12.3367 22.2384C11.8301 21.7362 11.4277 21.1389 11.1526 20.4808C10.8774 19.8227 10.735 19.1167 10.7334 18.4034C10.7318 17.6901 10.8712 16.9835 11.1435 16.3241C11.4157 15.6648 11.8155 15.0658 12.3199 14.5614C12.8243 14.057 13.4234 13.6572 14.0827 13.3849C14.742 13.1127 15.4486 12.9733 16.1619 12.9749C16.8752 12.9764 17.5812 13.1189 18.2394 13.394C18.8975 13.6691 19.4948 14.0716 19.997 14.5782C21.017 13.5835 22.3878 13.0308 23.8125 13.0397C25.2372 13.0487 26.601 13.6185 27.6084 14.6259C28.6159 15.6332 29.186 16.9969 29.1951 18.4216C29.2042 19.8463 28.6517 21.2172 27.6572 22.2373Z" stroke="#CBE2D1" stroke-width="2" stroke-linecap="round" stroke-linejoin="round"/>
</g>
<defs>
<clipPath id="clip0_6884_42320">
<rect width="26" height="26" fill="white" transform="translate(7.35059 7.35083)"/>
</clipPath>
</defs>
</svg>
