<svg width="375" height="304" viewBox="0 0 375 304" fill="none" xmlns="http://www.w3.org/2000/svg">
<g opacity="0.39">
<g style="mix-blend-mode:luminosity">
<path d="M229.037 153.653C229.71 153.494 230.408 153.158 231.132 152.939C232.032 152.662 233.135 151.873 234.018 151.394C236.181 150.218 238.369 148.95 240.641 148.034C242.593 147.253 244.149 145.993 245.933 144.927C249.712 142.667 253.195 139.224 256.485 136.267C260.575 132.588 265.481 129.775 269.536 126.062C271.102 124.634 272.549 123.064 274.417 122.266C275.292 121.888 276.487 121.451 277.379 121.544C278.372 121.644 279.482 122.19 280.467 122.409C282.478 122.854 284.43 122.896 286.509 122.837C289.386 122.753 290.935 119.368 292.433 117.193C294.09 114.774 297.498 116.386 300.014 116.739C302.294 117.067 304.255 117.184 306.291 118.217C307.663 118.906 308.614 119.704 309.8 120.62C311.054 121.586 312.796 123.156 314.47 123.131C315.085 123.131 315.657 122.787 316.263 122.711C317.374 122.577 318.509 122.803 319.629 122.736C322.01 122.593 324.341 121.905 326.579 121.115C328.944 120.284 330.66 118.957 332.663 117.52C335.995 115.127 339.411 113.354 342.643 110.767C345.142 108.76 348.02 107.055 350.207 104.703C352.311 102.436 354.995 100.68 356.67 98.0428C361.096 91.1051 368.459 86.1917 374.399 80.5475C377.454 77.6498 380.105 74.3489 383.041 71.342C385.052 69.2927 387.291 67.4784 389.251 65.3871C391.59 62.8841 394.157 60.4736 396.808 58.273C398.423 56.9292 399.803 56.5176 401.545 55.3921C403.346 54.2246 405.012 52.4608 406.779 51.1506C410.338 48.4965 412.694 44.9856 415.867 42.0627C417.28 40.7609 418.997 40.2317 420.242 38.7787C422.127 36.6033 423.928 34.3776 425.922 32.2442C428.682 29.2877 432.082 26.6252 434.572 23.4755C437.602 19.6287 440.412 15.8407 442.928 11.6916C445.276 7.81117 447.926 3.67881 450.543 0C452.243 0.28557 454.768 4.19116 455.828 5.38383C456.333 5.94657 456.686 6.79488 457.225 7.29043C457.973 7.97915 458.823 7.97075 459.513 8.80227C460.574 10.0789 461.146 11.9855 462.273 13.1782C464.226 15.2444 466.405 12.1871 467.978 10.8684C469.804 9.33981 471.563 7.72718 473.397 6.19854C474.163 5.56021 474.752 4.80429 475.585 4.24995C476.258 3.8132 476.923 4.24995 477.479 3.41004C482.679 5.45102 484.269 10.4653 488.14 14.1861C491.152 17.0754 493.963 19.2592 496.134 22.8876C498.431 26.7344 500.602 30.6567 502.815 34.5455C504.035 36.6873 505.196 38.9131 506.56 40.9709C506.551 40.9541 507.393 41.584 507.376 41.542C508.007 42.9866 508.141 45.2124 508.52 46.825C509.631 51.4865 511.861 56.6268 514.04 60.8515C515.63 63.934 517.162 67.5876 519.274 70.3341C520.73 72.2323 522.825 73.5594 524.239 75.4912C526.199 78.1705 527.175 81.3958 529.414 83.9407C531.198 85.9649 533.385 87.4179 534.69 89.7949C535.893 91.9786 536.734 91.7267 538.695 89.9965C540.176 88.6946 541.421 87.0064 542.852 85.5785C543.828 84.6042 545.864 81.5637 547.16 81.4294C549.659 81.1774 549.163 83.3696 549.651 85.2174C550.694 89.1901 553.766 93.5157 555.861 97.0265C560.354 104.552 564.89 112.078 568.542 120.057C573.935 131.841 576.695 144.767 581.5 156.803C583.654 162.187 586.187 167.999 589.704 172.677C593.18 177.305 597.766 180.984 601.426 185.478C605.936 191.013 611.002 197.975 616.901 202.234C618.996 203.746 621.579 204.434 623.725 205.887C625.997 207.433 628.159 209.289 630.288 211.028C632.762 213.043 634.832 215.37 637.146 217.554C638.879 219.192 641.042 220.107 642.868 221.619C645.493 223.794 649.036 227.994 647.951 231.656C645.233 232.269 641.724 232.009 638.922 232.361C632.022 233.226 625.349 233.932 618.651 235.931C604.64 240.114 591.547 246.707 578.412 252.998C556.307 263.589 533.823 273.761 510.178 280.396C485.658 287.275 460.843 290.912 435.439 291.886C411.003 292.818 386.634 290.777 362.257 289.324C342.769 288.157 323.777 285.712 304.785 281.127C304.196 280.984 303.616 280.841 303.027 280.707C294.469 278.657 285.886 276.692 277.463 274.13C273.828 273.021 270.319 271.972 267.079 269.973C263.503 267.772 259.927 269.091 256.081 268.301C255.265 268.133 254.011 267.587 253.161 267.167C251.866 266.529 250.469 266.218 249.097 265.781C246.893 265.084 244.789 264.312 242.525 263.808C240.927 263.446 239.311 263.253 237.746 262.724C236.097 262.161 234.767 261.414 233.034 261.179C230.4 260.818 227.968 260.087 225.393 259.339C222.448 258.483 219.545 258.231 216.541 257.643C210.39 256.442 203.81 257.416 197.566 256.811C192.038 256.282 186.316 255.711 180.77 255.568C173.551 255.375 166.71 253.947 159.633 252.645C151.664 251.184 143.788 249.538 135.702 248.807C131.133 248.395 126.572 248.051 122.011 247.589C105.754 245.943 89.5981 244.893 73.2653 244.229C60.2058 243.7 47.2641 242.247 34.2803 240.828C22.9963 239.593 11.7123 239.156 0.445114 237.787C-4.06512 237.233 -8.6006 236.905 -13.0435 235.956C-16.9816 235.116 -20.7682 233.823 -24.6557 232.773C-35.6705 229.791 -46.8367 227.305 -57.3886 222.845C-66.9897 218.78 -76.9274 213.321 -84.2228 205.82C-89.8017 200.084 -92.3345 193.44 -93.5462 185.637C-95.1198 175.491 -93.9754 164.891 -92.9909 154.728C-92.6206 150.856 -92.3934 146.867 -91.6025 143.054C-91.249 141.357 -90.8283 139.518 -89.625 138.174C-88.0178 136.368 -84.5931 135.444 -82.5483 134.403C-79.6958 132.958 -76.9105 131.362 -74.1253 129.791C-68.9671 126.885 -63.7837 124.013 -58.634 121.09C-54.8979 118.965 -51.734 116.286 -48.2335 113.833C-46.0541 112.304 -43.8158 111.137 -41.5102 109.844C-36.7559 107.181 -32.2962 104.031 -27.7607 101.024C-25.6823 99.647 -23.7049 98.2696 -21.7527 96.7241C-21.13 96.237 -20.3474 95.5987 -19.6069 95.2627C-18.7991 94.9015 -18.8075 94.7336 -18.0418 95.4475C-17.0489 96.363 -16.3673 97.6229 -15.4585 98.6307C-14.1711 100.042 -12.7995 101.108 -11.2176 102.142C-9.6945 103.141 -8.20512 104.359 -6.52219 105.081C-4.41012 105.98 -2.16341 106.165 0.0243835 106.744C1.43804 107.122 2.91901 107.727 4.25694 108.307C5.54438 108.869 4.82913 108.458 5.88096 107.836C7.37876 106.946 9.129 109.365 10.1892 109.97C13.2438 111.717 15.684 113.959 18.5281 116.025C24.2669 120.2 29.9889 124.416 36.0306 128.179C39.5647 130.379 43.1746 132.647 46.8265 134.655C50.0072 136.402 53.4909 136.796 56.8315 138.056C60.1469 139.308 62.2253 142.205 65.8772 142.684C69.3272 143.138 72.7015 142.163 76.1852 142.751C80.9563 143.549 85.4244 144.927 90.0188 146.363C94.5795 147.782 98.425 149.555 103.28 149.513C109.372 149.462 115.347 148.555 121.397 149.773C128.718 151.251 135.677 154.25 142.964 155.913C158.337 159.423 173.879 162.649 189.707 160.154C194.268 159.432 199.678 157.895 203.616 155.342C205.636 154.031 207.176 151.973 209.271 150.814C211.694 149.471 214.74 151.05 217.256 151.562C218.569 151.831 220.058 151.713 221.321 152.083C222.213 152.343 223.298 153.091 224.097 153.511C224.577 153.762 225.074 154.334 225.688 154.283C226.184 154.241 226.125 153.779 226.546 153.712C227.337 153.586 228.271 153.872 229.054 153.695L229.037 153.653Z" fill="url(#paint0_linear_6884_28571)"/>
</g>
<g style="mix-blend-mode:luminosity">
<path d="M247.35 186.896C248.218 186.357 249.195 186.045 250.324 186.129C252.278 186.289 254.097 187.217 256.06 187.419C259.126 187.731 262.537 187.284 265.535 186.61C267.59 186.146 269.41 185.125 271.372 184.434C273.048 183.843 274.683 183.422 276.333 182.705C281.185 180.579 286.331 178.85 290.618 175.671C293.726 173.368 296.809 171.243 299.976 169.05C301.509 167.979 303.067 167.397 304.482 166.132C305.434 165.28 307.447 162.927 308.727 162.724C309.629 162.581 309.907 163.239 310.378 163.863C311.212 164.959 312.097 165.752 313.158 166.663C314.826 168.088 316.19 169.539 318.237 170.383C320.174 171.184 322.254 171.369 324.158 172.289C327.536 173.942 330.593 176.025 334.265 176.961C335.824 177.358 337.171 177.239 338.746 177.324C340.498 177.417 342.04 177.939 343.825 177.923C345.468 177.906 347.523 178.218 349.132 177.872C350.024 177.678 350.42 177.366 351.381 177.349C352.206 177.332 352.989 177.433 353.781 177.231C356.308 176.582 358.119 173.748 360.292 172.297C362.701 170.686 365.346 169.623 367.527 167.675C369.81 165.643 372.252 163.829 374.678 161.965C379.049 158.617 383.522 155.488 387.868 152.123C392.838 148.277 397.478 144.009 402.313 139.994C405.177 137.616 407.805 134.985 410.593 132.522C413.735 129.747 416.556 126.601 419.732 123.877C422.806 121.245 426.133 118.918 429.342 116.463C431.945 114.464 434.008 111.993 436.484 109.876C438.279 108.35 439.037 107.81 440.898 108.906C441.909 109.505 443.037 109.961 444.116 110.425C446.348 111.386 448.293 112.803 450.433 113.933C452.639 115.105 454.897 116.404 457.045 117.686C459.883 119.382 462.25 121.895 464.937 123.826C467.699 125.808 470.563 127.799 473.511 129.486C476.703 131.316 480.359 131.695 483.593 133.483C487.72 135.769 491.78 139.05 496.649 139.151C502.039 139.269 507.421 139.522 512.694 140.914C514.463 141.378 515.912 142.499 517.706 142.938C519.458 143.368 521.21 143.638 523.012 143.638C526.238 143.638 529.321 142.255 532.488 142.474C534.459 142.609 535.393 144.212 537.019 145.257C543.26 149.28 550.066 152.435 556.552 156.036C560.637 158.305 564.848 160.177 569.379 161.291C571.687 161.856 573.726 161.434 576.059 161.063C580.093 160.422 584.086 159.612 587.952 158.254C591.312 157.074 594.589 155.598 597.958 154.391C599.567 153.818 601.892 152.696 603.702 153.118C604.848 153.379 605.547 154.189 606.052 155.277C606.566 156.39 606.575 157.639 606.709 158.819C607.198 162.994 607.771 167.161 608.394 171.319C609.59 179.247 610.516 187.2 611.519 195.162C612.866 205.89 613.869 217.327 611.056 227.937C609.809 232.635 608.225 237.762 605.336 241.71C600.948 247.732 595.212 252.387 588.861 256.199C582.401 260.079 575.537 262.424 568.318 264.482C557.647 267.535 546.84 270.133 536.017 272.57C509.283 278.583 482.001 280.835 454.711 282.396C430.925 283.754 407.224 284.985 383.396 284.799C363.391 284.639 343.101 282.868 323.644 277.959C308.904 274.24 293.609 269.871 280.806 261.488C271.836 255.609 264.432 248.305 256.683 241.01C251.975 236.573 247.755 231.504 243.922 226.284C240.739 221.949 237.083 217.2 235.719 211.92C234.742 208.15 233.672 203.739 234.792 199.893C235.466 197.599 236.199 195.761 238.186 194.411C240.57 192.792 243.072 191.35 244.942 189.115C245.658 188.263 246.432 187.453 247.334 186.888L247.35 186.896Z" fill="url(#paint1_linear_6884_28571)"/>
</g>
<g style="mix-blend-mode:luminosity">
<path d="M218.879 189.202C222.645 188.364 226.386 189.461 230.085 190.215C232.884 190.784 235.574 191.739 238.382 192.266C240.996 192.752 243.678 193.104 246.343 193.112C248.478 193.121 250.614 192.434 252.732 192.643C254.212 192.786 255.431 193.573 256.868 193.824C258.079 194.042 259.55 194.176 260.76 194.167C262.459 194.151 263.392 193.338 264.871 192.71C265.981 192.241 267.368 191.99 268.579 191.873C269.613 191.772 270.478 192.032 271.378 192.493C272.513 193.07 272.891 193.162 274.186 192.685C277.901 191.303 282.122 189.754 285.341 187.359C286.157 187.946 286.88 188.582 287.771 189.068C288.788 189.629 289.839 189.972 290.949 190.324C292.924 190.952 294.757 191.797 296.623 192.693C300.087 194.36 303.92 194.544 307.358 196.202C309.636 197.299 311.805 198.597 314.042 199.786C316.395 201.042 318.724 201.662 321.347 202.097C325.718 202.817 330.065 203.069 334.343 204.341C335.848 204.794 337.328 205.405 338.765 206.025C340.388 206.72 341.733 207.884 343.347 208.579C344.49 209.064 345.819 209.542 347.046 209.743C348.383 209.96 349.736 209.709 351.081 209.843C352.199 209.952 353.267 210.337 354.393 210.228C355.755 210.094 357.184 209.433 358.437 208.897C361.035 207.791 364.111 205.798 367.003 206.226C368.046 206.376 369.012 206.477 369.937 206.887C372.207 207.892 373.821 209.843 376.015 210.99C378.024 212.037 381.219 213.1 383.505 213.192C386.061 213.293 388.465 210.756 390.399 209.408C392.845 207.699 395.325 206.159 398.082 204.995C400.958 203.78 403.975 203.219 406.968 202.39C412.248 200.917 417.157 198.538 422.361 196.83C428.447 194.829 434.702 193.405 440.78 191.404C447.345 189.243 452.246 183.859 457.626 179.748C462.292 176.18 466.798 172.245 471.876 169.239C472.414 168.92 473.414 168.116 474.028 167.999C474.591 167.899 474.473 168.075 474.894 168.234C475.835 168.585 476.634 169.306 477.525 169.774C479.038 170.57 480.577 171.365 482.107 172.136C486.663 174.447 491.951 174.949 496.667 176.934C499.155 177.981 501.744 178.768 504.199 179.865C507.015 181.129 509.613 182.754 512.185 184.445C514.043 185.668 516.052 186.589 518.028 187.594C520.13 188.666 522.231 189.796 524.661 189.805C526.451 189.813 528.225 189.218 529.991 188.967C531.966 188.682 533.975 188.481 535.968 188.44C537.447 188.406 538.885 188.364 540.289 188.858C541.491 189.277 542.592 189.754 543.895 189.788C545.879 189.838 547.787 189.118 549.654 188.565C552.251 187.795 554.933 187.401 557.539 186.673C561.045 185.701 565.382 184.353 568.266 187.276C570.006 189.043 571.175 191.396 572.267 193.589C574.47 198.002 576.614 202.449 578.421 207.038C579.783 210.496 581.078 214.021 582.036 217.614C583.104 221.591 581.893 225.167 579.346 228.299C576.513 231.782 572.822 233.968 568.98 236.204C564.702 238.691 560.263 240.918 555.706 242.878C542.802 248.413 529.074 251.988 515.506 255.472C508.571 257.255 501.568 259.039 494.523 260.362C485.494 262.053 476.348 262.949 467.227 263.896C453.432 265.328 439.653 266.768 425.841 268.016C393.997 270.896 362.22 274.405 330.249 275.611C315.916 276.147 301.507 276.875 287.208 275.544C274.203 274.338 261.181 271.884 249.504 265.864C236.297 259.047 223.116 250.313 215.129 237.451C210.876 230.593 210.169 223.007 209.976 215.127C209.884 211.35 210.817 207.775 211.876 204.174C212.902 200.682 213.675 197.098 215.045 193.715C215.432 192.752 215.886 191.781 216.323 190.843C216.416 190.65 216.331 190.441 216.474 190.257C216.962 189.637 218.013 189.419 218.736 189.252C218.778 189.243 218.82 189.235 218.862 189.227L218.879 189.202Z" fill="url(#paint2_linear_6884_28571)"/>
</g>
<g style="mix-blend-mode:luminosity">
<path d="M356.989 260.188C356.627 258.399 356.029 256.517 354.429 256.559C353.561 256.585 353.072 257.108 352.129 256.872C350.781 256.543 349.332 255.513 348.111 254.863C342.408 251.825 337.253 247.226 330.969 245.716C329.133 245.277 327.962 244.188 326.446 243.125C324.845 242.003 323.009 241.944 321.375 241.024C319.909 240.197 318.637 238.416 317.349 237.26C315.605 235.707 313.693 234.349 311.983 232.746C310.526 231.378 309.018 230.332 307.35 229.227C305.75 228.163 304.368 226.585 302.734 225.665C301.47 224.957 299.617 224.864 298.488 223.809C297.655 223.033 297.318 221.758 296.568 220.881C295.532 219.683 294.647 219.573 293.283 219.016C290.309 217.809 288.456 214.737 286.039 212.746C283.764 210.873 280.968 209.472 278.82 207.446C276.436 205.193 274.279 202.56 271.955 200.214C269.798 198.037 267.642 196.088 265.654 193.75C264.702 192.628 263.438 191.101 261.846 191.219C260.861 191.295 260.322 191.81 259.471 192.223C257.93 192.974 256.649 194.223 255.276 195.312C254.274 196.105 253.819 196.501 252.724 195.885C251.983 195.472 251.224 194.552 250.601 193.987C247.653 191.329 244.351 189.025 241.15 186.687C237.983 184.367 235.38 181.506 232.524 178.839C228.574 175.152 224.564 171.667 220.833 167.734C219.089 165.894 217.261 164.097 215.585 162.198C213.715 160.097 212.182 157.701 210.194 155.701C208.012 153.507 205.401 152.46 202.899 150.764C200.271 148.983 198.519 146.587 196.312 144.384C194.585 142.663 192.193 141.397 190.677 139.532C189 137.465 187.611 135.431 185.513 133.709C183.289 131.887 181.209 130.098 179.153 128.081C177.924 126.874 176.98 125.499 175.792 124.3C174.453 122.942 173.552 121.364 172.575 119.676C171.336 117.524 169.736 115.533 168.371 113.457C166.535 110.672 164.648 107.912 162.879 105.085C162.096 103.837 161.279 102.419 160.217 101.389C159.493 100.689 158.701 100.52 157.85 100.031C156.646 99.3388 155.711 98.132 154.658 97.246C154.068 96.7481 153.681 96.0224 153.201 95.4317C152.586 94.6806 151.979 94.3853 151.078 94.1237C150.244 93.879 149.688 93.4148 148.989 94.0224C148.5 94.4443 148.197 94.9338 147.624 95.2882C147.338 95.4654 147.085 95.5751 146.849 95.7945C146.454 96.1658 146.108 96.6046 145.653 96.9253C145.241 97.2207 144.912 97.1869 144.449 97.2966C143.893 97.4316 143.387 97.8704 142.907 98.1658C142.326 98.5287 141.745 98.8915 141.155 99.2459C138.898 100.621 136.615 101.963 134.366 103.356C131.948 104.841 129.699 106.579 127.273 108.047C126.22 108.68 125.033 109.111 123.997 109.752C123.803 109.87 123.668 109.98 123.542 110.166C123.323 110.503 123.289 110.824 122.935 111.069C122.581 111.322 122.017 111.465 121.588 111.44C120.063 111.33 118.648 109.761 118.016 108.478C117.578 107.592 117.115 107.474 116.188 107.17C115.43 106.925 114.706 106.554 114.032 107.052C113.653 107.339 113.358 107.71 112.987 108.005C112.229 108.596 111.724 109.28 111.058 109.946C109.938 111.069 108.666 111.963 107.276 112.714C106.114 113.339 104.951 113.904 103.755 114.436C102.534 114.984 101.91 116.376 100.706 116.9C100.217 117.111 99.7203 117.111 99.2317 117.372C96.0139 119.085 93.0573 121.912 89.6963 123.321C86.1248 124.815 82.1742 125.456 78.5521 126.891C76.5052 127.701 74.0371 127.836 72.0913 128.68C69.8844 129.642 67.8627 131.971 65.6811 133.212C64.5776 133.836 63.5415 134.587 62.2106 134.562C60.3996 134.536 59.7678 133.389 58.1674 132.899C55.9183 132.207 54.1157 133.465 52.1446 134.418C48.6741 136.098 45.8944 137.203 41.9859 137.009C38.8524 136.849 35.5588 136.435 32.4674 135.794C31.5408 135.6 30.7069 135.271 29.7382 135.397C26.8911 135.768 24.7515 138.68 22.5361 140.241C14.298 146.047 2.73261 146.308 -6.85328 147.616C-13.8953 148.578 -20.971 149.237 -27.9793 150.443C-33.7831 151.447 -39.511 153 -45.3653 153.65C-55.4987 154.772 -65.1941 157.371 -75.1507 159.43C-78.4611 160.114 -81.8473 160.831 -85.0903 161.819C-88.2491 162.772 -90.9783 164.376 -93.9939 165.616C-96.9253 166.823 -100.531 166.975 -103.108 168.806C-107.118 171.641 -104.565 175.396 -103.378 178.991C-101.794 183.793 -102.51 189.624 -102.08 194.645C-101.449 202.113 -100.724 209.801 -98.8121 217.075C-97.3128 222.763 -95.1479 229.336 -91.5343 233.978C-88.3418 238.087 -84.8039 241.108 -80.5248 244.003C-65.1773 254.391 -46.4941 258.661 -29.2176 264.804C-7.45977 272.542 13.9863 281.057 35.9631 288.179C44.6561 290.998 53.366 293.808 62.1432 296.365C74.9722 300.103 88.079 302.77 101.009 306.111C131.182 313.9 160.9 323.799 192.302 324.862C206.361 325.343 220.487 324.389 234.428 322.482C248.975 320.491 263.321 317.208 277.127 312.187C283.293 309.942 289.585 307.453 295.389 304.407C299.432 302.289 303.349 299.917 307.375 297.757C313.263 294.609 319.185 291.74 324.812 288.137C331.711 283.715 338.66 279.85 346.115 276.492C350.495 274.517 354.816 271.8 357.587 267.808C359.289 265.344 358.101 264.762 357.478 262.703C357.301 262.112 357.175 261.167 356.973 260.197L356.989 260.188Z" fill="url(#paint3_linear_6884_28571)"/>
</g>
<g style="mix-blend-mode:luminosity">
<path d="M78.5123 204.055C78.8576 203.954 79.2112 203.879 79.5818 203.837C80.887 203.686 81.7206 203.929 82.8237 203.367C82.3606 203.602 79.0007 204.432 79.3375 203.048C79.4723 202.495 83.4048 202.352 84.0532 202.377C84.8279 202.419 85.5773 202.671 86.352 202.688C89.3161 202.772 92.516 201.262 95.2695 200.365C99.7325 198.914 104.204 197.388 108.869 196.692C113.425 196.013 117.947 195.786 122.494 195.065C125.971 194.511 129.896 193.413 132.91 191.451C133.735 190.914 134.257 190.159 135.158 189.715C135.992 189.304 136.649 189.58 137.432 189.346C138.064 189.153 138.114 188.583 138.636 188.314C139.546 187.853 140.017 188.482 140.758 188.775C143.377 189.824 147.116 187.258 149.785 186.268C152.227 185.354 154.433 184.23 156.943 183.593C157.861 183.358 158.24 183.065 159.174 183.299C159.899 183.475 160.219 184.13 160.757 184.54C162.197 185.639 164.126 186.167 165.827 186.805C167.797 187.551 169.448 188.205 171.561 188.222C174.904 188.255 177.506 188.046 180.647 186.821C182.929 185.933 185.236 185.211 187.51 184.289C189.396 183.526 191.704 182.343 193.767 182.075C194.499 181.983 195.333 182.016 196.082 182.05C197.396 182.109 197.076 182.243 198.002 183.023C199.046 183.912 200.368 184.683 201.514 185.48C203.872 187.132 205.522 189.614 207.669 191.526C213.842 197.019 219.273 203.216 225.252 208.919C228.982 212.483 233.883 215.124 238.337 217.699C239.836 218.562 241.411 219.284 242.96 220.064C244.813 221.003 246.682 221.464 248.577 222.261C250.253 222.965 251.499 224.265 253.065 225.129C254.623 225.984 256.004 226.772 257.444 227.795C258.446 228.508 259.549 228.76 260.518 229.557C261.781 230.58 262.926 231.032 264.265 231.905C265.73 232.861 267.271 233.708 268.231 235.167C268.98 236.316 269.62 236.961 271.044 236.852C272.281 236.76 272.357 236.341 273.393 235.695C274.816 234.806 276.475 234.152 277.957 233.272C279.919 232.106 282.125 231.284 283.986 229.976C285.207 229.112 286.26 228.315 287.759 228.005C289.729 227.594 290.9 228.483 292.617 229.28C295.792 230.747 298.941 232.223 302.108 233.699C306.613 235.804 311.926 236.299 315.943 239.326C317.518 240.517 319 242.152 321.029 242.454C323.26 242.781 326.065 241.632 328.246 241.289C330.25 240.97 332.759 240.215 334.788 240.274C336.405 240.324 337.828 240.878 339.504 240.769C344.152 240.458 348.952 238.932 353.365 237.565C363.116 234.538 372.993 230.16 381.532 224.533C384.285 222.714 386.803 220.625 389.641 218.931C391.822 217.623 393.877 216.206 395.704 214.428C396.445 213.715 397.918 211.879 399.064 211.745C400.108 211.619 400.133 212.072 400.933 212.642C402.701 213.883 405.261 214.445 407.274 214.973C413.278 216.55 419.248 218.537 425.168 220.382C437.268 224.148 449.369 228.164 461.158 232.81C465.293 234.437 470.269 237.414 474.901 236.718C481.738 235.695 488.045 232.911 494.487 230.504C496.668 229.691 498.639 228.919 500.988 228.995C502.841 229.053 503.371 228.416 504.761 227.25C510.217 222.663 515.286 218.227 521.703 215.015C532.01 209.858 540.195 201.162 548.961 193.908C557.104 187.174 566.03 181.421 574.72 175.433C576.8 173.999 578.871 172.574 580.842 170.997C582.088 169.999 583.359 168.532 584.858 167.97C584.799 169.219 584.286 170.578 584.126 171.802C583.713 174.88 583.696 177.932 583.705 181.035C583.738 190.159 583.713 199.25 583.309 208.365C582.997 215.284 582.61 222.202 582.576 229.129C582.551 234.915 582.644 240.584 582.088 246.354C581.743 249.918 581.524 253.473 579.966 256.752C578.568 259.696 576.572 261.834 573.92 263.679C571.251 265.163 568.455 266.363 565.541 267.277C561.188 268.92 556.767 270.338 552.27 271.537C539.235 275.386 526.023 278.833 512.752 281.759C480.366 288.913 447.887 295.269 415.055 300.032C369.76 306.599 324.187 311.412 278.37 310.188C241.866 309.215 205.522 307.513 169.616 300.393C156.429 297.777 143.36 294.582 130.434 290.908C121.837 288.552 113.433 285.65 105.231 282.195C97.7115 279.537 90.4782 276.233 83.5479 272.266C73.0473 265.147 63.0856 255.612 58.2352 243.712C55.3806 236.701 54.1512 228.483 57.0311 221.238C58.9931 216.315 61.5614 211.845 65.5107 208.281C68.4074 205.673 71.06 205.053 74.8072 204.952C76.1545 204.918 77.2913 204.348 78.5207 204.004L78.5123 204.055Z" fill="url(#paint4_linear_6884_28571)"/>
</g>
<g style="mix-blend-mode:luminosity">
<path d="M-86.4314 170.694C-85.6317 169.939 -84.8404 169.158 -84.0575 168.361C-83.9481 168.42 -83.7797 168.537 -83.6619 168.579C-83.0305 168.176 -82.4581 167.698 -81.8941 167.211C-78.0555 163.87 -74.8988 159.682 -70.875 156.576C-68.3664 154.637 -65.7821 152.455 -63.1977 150.642C-62.4485 150.113 -61.4889 149.551 -60.5713 149.45C-58.5089 149.232 -56.9263 151.011 -55.0996 151.632C-53.2897 152.245 -51.362 152.295 -49.6195 151.422C-44.9222 149.089 -40.3849 145.69 -36.3022 142.408C-28.928 136.473 -21.5539 130.598 -14.9457 123.782C-13.0096 121.784 -10.5936 117.688 -7.74834 116.849C-1.5611 125.771 7.64819 132.075 15.9568 139.159C25.3597 147.175 36.2862 153.294 45.5376 161.436C54.7469 169.545 64.7054 176.696 73.6201 185.157C83.0062 194.063 91.9629 203.027 102.157 211.035C109.573 216.852 117.579 224.221 126.948 226.84C129.617 227.587 132.226 227.579 134.954 227.596C135.408 227.596 135.871 227.596 136.326 227.57C136.713 227.554 137.126 227.478 137.513 227.512C137.782 227.537 138.018 227.638 138.296 227.604C138.506 227.579 138.7 227.495 138.902 227.47C139.095 227.445 139.289 227.47 139.483 227.436C139.676 227.403 139.828 227.319 140.013 227.243C140.409 227.084 140.787 226.949 141.141 226.748C141.444 226.572 141.789 226.488 142.101 226.328C142.429 226.16 142.732 225.959 143.069 225.799C143.195 225.741 143.355 225.69 143.49 225.648C143.717 225.564 143.801 225.497 143.986 225.355C144.71 224.817 145.392 224.247 146.183 223.793C146.941 223.357 147.766 223.105 148.507 222.635C148.894 222.392 149.214 222.089 149.567 221.812C149.862 221.577 150.182 221.435 150.51 221.275C150.754 221.158 150.948 221.065 151.116 220.855C151.2 220.746 151.192 220.688 151.327 220.62C151.689 220.411 152.135 221.049 152.371 221.292C154.467 223.55 156.815 225.531 159.206 227.478C159.652 227.839 160.048 228.217 160.435 228.636C160.831 229.065 161.353 229.342 161.79 229.719C162.295 230.156 162.842 230.508 163.398 230.886C164.998 231.96 166.631 232.976 168.297 233.95C171.648 235.897 175.116 237.643 178.626 239.28C185.58 242.52 192.71 245.348 199.688 248.538C213.544 254.875 227.737 259.71 242.511 263.361C248.588 264.864 254.161 266.501 260.441 267.105C268.589 267.894 276.982 267.298 285.148 266.878C294.197 266.417 303.364 264.855 312.313 263.479C323.298 261.783 334.082 259.996 344.916 257.477C361.962 253.516 379.236 250.796 396.316 247.027C401.24 245.944 406.224 245.743 411.19 244.954C414.364 244.45 417.016 244.601 420.13 245.273C421.974 245.676 423.759 246.607 425.501 247.371C428.498 248.681 431.478 249.923 434.559 251.073C438.406 252.508 442.59 253.776 446.563 254.766C449.854 255.589 451.993 256.806 455.099 258.057C456 258.417 464.594 259.651 462.927 261.834C462.869 261.918 459.56 262.673 459.156 262.841C454.779 264.704 450.2 266.106 445.763 267.844C418.304 278.655 389.438 286.562 360.935 294.099C336.733 300.495 312.178 305.02 287.581 309.636C264.7 313.925 241.761 318.508 218.679 321.538C196.211 324.485 173.735 325.047 151.099 324.98C125.475 324.904 100.086 324.476 74.504 322.831C58.7455 321.815 43.1974 320.632 27.3968 320.691C15.1318 320.741 2.86678 320.674 -9.39825 320.775C-16.2505 320.833 -23.1112 320.456 -29.9045 319.591C-35.4183 318.886 -41.0752 318.156 -46.1092 315.696C-49.9815 313.808 -53.2224 312.473 -57.6334 312.339C-60.4703 312.255 -62.6421 311.315 -65.378 310.836C-68.1391 310.35 -70.9844 310.652 -73.7707 310.652C-77.1043 310.652 -80.1516 310.719 -83.4262 311.306C-88.2581 312.171 -93.6036 311.466 -98.5028 311.491C-110.549 311.542 -122.233 308.511 -133.741 305.171C-141.081 303.039 -148.649 302.653 -156.099 300.949C-164.778 298.968 -173.12 295.627 -181.791 293.545C-185.335 292.698 -188.879 291.976 -192.305 290.7C-193.921 290.104 -197.052 289.323 -198.357 287.997C-200.546 285.781 -196.556 283.389 -195.167 281.819C-189.956 275.944 -183.525 271.21 -178.373 265.25C-170.553 256.202 -165.594 244.627 -159.988 234.168C-154.045 223.08 -146.334 213.133 -141.258 201.6C-140.147 199.082 -139.094 196.791 -138.783 194.037C-138.682 193.148 -139.103 192.451 -138.244 191.763C-137.15 192.384 -136.317 193.341 -135.214 193.962C-132.259 195.616 -128.496 196.463 -125.146 196.556C-119.329 196.723 -114.91 195.934 -110.271 192.283C-103.621 187.054 -98.1914 180.557 -91.6085 175.227C-89.7902 173.758 -88.0813 172.256 -86.423 170.686L-86.4314 170.694Z" fill="url(#paint5_linear_6884_28571)"/>
</g>
<g style="mix-blend-mode:luminosity">
<path d="M-85.3628 213.558C-83.8176 212.128 -81.3485 211.612 -79.3918 211.037C-76.78 210.267 -74.4285 208.913 -71.8923 207.957C-68.8773 206.815 -65.8456 205.994 -63.0239 204.387C-60.5632 202.991 -57.9682 201.959 -55.432 200.732C-53.3576 199.725 -51.3589 198.49 -49.1502 197.813C-48.4279 197.593 -47.4034 197.128 -46.6475 197.187C-46.5551 198.473 -46.152 198.955 -45.3794 199.936C-43.2043 202.703 -41.4827 205.571 -38.6609 207.729C-35.0665 210.47 -31.0774 212.627 -27.2647 215.039C-24.2329 216.951 -21.0417 218.516 -17.6908 219.802C-15.8936 220.487 -14.4407 221.342 -12.5008 221.266C-10.4768 221.198 -8.3437 220.724 -6.36174 220.293C-5.49673 220.106 -3.4812 219.294 -2.5994 219.65C-1.92755 219.92 -0.986954 221.172 -0.441078 221.646C3.6404 225.25 8.88084 227.924 13.9953 229.734C19.0174 231.511 24.9716 231.173 30.2121 231.004C36.8634 230.792 43.3131 228.77 49.9224 228.457C50.9386 228.406 51.9296 228.102 52.9206 227.907C54.0459 227.687 55.1461 227.746 56.2546 227.56C57.6067 227.332 59.0176 226.892 60.4117 227.239C60.4957 228.897 63.0487 231.122 64.2076 232.019C66.1896 233.559 68.3143 234.929 70.3719 236.368C72.6897 237.984 74.7389 239.955 76.7796 241.901C80.3488 245.302 84.867 247.705 89.5616 249.202C91.6695 249.879 93.6514 249.828 95.8097 250.116C97.5146 250.344 99.2278 250.666 100.941 250.818C101.907 250.903 102.889 250.937 103.847 250.759C104.661 250.615 105.417 250.26 106.274 250.421C107.248 250.607 106.627 250.522 107.172 251.173C107.651 251.749 108.793 252.409 109.406 252.756C110.893 253.593 112.715 254.262 114.302 254.854C116.771 255.776 119.157 256.944 121.525 258.094C126.916 260.725 132.761 262.756 138.657 263.974C144.393 265.159 149.927 265.853 155.789 265.641C159.022 265.523 162.323 264.871 165.481 264.16C168.613 263.45 171.527 262.079 174.668 261.394C176.65 260.962 178.481 260.979 180.37 261.622C181.067 261.859 181.815 262.257 182.495 262.553C184.914 263.602 187.332 264.389 189.852 265.21C193.505 266.402 197.133 267.232 200.862 268.162C205.598 269.347 210.284 270.946 215.063 271.927C223.234 273.602 231.297 275.701 239.611 276.564C246.59 277.291 253.61 277.071 260.614 277.071C263.596 277.071 266.611 277.207 269.592 277.097C271.708 277.012 273.741 276.631 275.865 276.648C277.822 276.665 279.141 276.936 280.971 277.689C282.508 278.323 284.037 278.916 285.649 279.288C287.337 279.677 288.773 280.548 290.394 281.065C293.208 281.953 296.063 282.621 298.969 283.053C299.892 283.188 306.611 284.457 306.099 285.447C303.73 286.107 301.27 286.462 298.859 286.928C293.208 288.019 287.598 289.237 281.929 290.21C274.404 291.505 266.846 292.232 259.229 292.715C241.013 293.865 222.739 294.161 204.498 294.618C190.885 294.957 177.263 295.261 163.667 296.057C153.555 296.649 143.469 297.47 133.375 298.231C111.817 299.864 90.1662 301.201 68.5495 301.734C58.2953 301.987 48.0245 301.852 37.7704 301.344C27.0292 300.811 16.4056 299.39 5.76514 297.884C-8.62083 295.837 -23.1328 294.466 -37.3676 291.471C-42.9608 290.295 -48.4699 288.848 -53.9623 287.275C-59.4882 285.701 -65.4677 284.22 -70.4898 281.344C-76.654 277.807 -82.8602 273.256 -86.2446 266.834C-88.6969 262.189 -90.007 257.054 -91.0316 251.926C-91.4851 249.668 -91.905 247.442 -91.8882 245.124C-91.8714 243.347 -91.6026 241.613 -91.3507 239.853C-91.04 237.645 -90.5781 235.488 -90.2338 233.288C-89.9062 231.232 -89.7467 229.125 -89.3436 227.086C-88.7473 224.032 -86.8073 221.342 -86.7317 218.16C-86.7149 217.501 -86.8493 216.824 -86.7401 216.164C-86.5554 215.039 -86.0431 214.192 -85.3293 213.541L-85.3628 213.558Z" fill="url(#paint6_linear_6884_28571)"/>
</g>
<g style="mix-blend-mode:luminosity">
<path d="M429.06 272.646C429.06 272.646 -63.8321 302.019 -116.232 294.473L-103.61 451.452L297.046 482L429.06 272.646Z" fill="url(#paint7_linear_6884_28571)"/>
</g>
<g style="mix-blend-mode:luminosity">
<path d="M-161.268 398.358C-161.268 398.358 552.886 242.109 617.722 200.833V466.176H-155.256L-161.268 398.358Z" fill="url(#paint8_linear_6884_28571)"/>
</g>
<g style="mix-blend-mode:luminosity">
</g>
</g>
<defs>
<linearGradient id="paint0_linear_6884_28571" x1="276.908" y1="172.467" x2="276.908" y2="56.4336" gradientUnits="userSpaceOnUse">
<stop stop-color="#6D597A"/>
<stop offset="1" stop-color="#6A6C84"/>
</linearGradient>
<linearGradient id="paint1_linear_6884_28571" x1="423.589" y1="118.749" x2="423.589" y2="167.709" gradientUnits="userSpaceOnUse">
<stop stop-color="#2F4C6D"/>
<stop offset="1" stop-color="#3C5473"/>
</linearGradient>
<linearGradient id="paint2_linear_6884_28571" x1="396.208" y1="206.46" x2="396.208" y2="239.16" gradientUnits="userSpaceOnUse">
<stop stop-color="#2F4C6D"/>
<stop offset="1" stop-color="#3C5473"/>
</linearGradient>
<linearGradient id="paint3_linear_6884_28571" x1="126.616" y1="101.237" x2="126.616" y2="220.501" gradientUnits="userSpaceOnUse">
<stop stop-color="#102D52"/>
<stop offset="1" stop-color="#124162"/>
</linearGradient>
<linearGradient id="paint4_linear_6884_28571" x1="320.111" y1="207.778" x2="320.111" y2="268.157" gradientUnits="userSpaceOnUse">
<stop stop-color="#102D52"/>
<stop offset="1" stop-color="#124162"/>
</linearGradient>
<linearGradient id="paint5_linear_6884_28571" x1="132.058" y1="239.741" x2="132.058" y2="157.055" gradientUnits="userSpaceOnUse">
<stop stop-color="#102D52"/>
<stop offset="1" stop-color="#0F122E"/>
</linearGradient>
<linearGradient id="paint6_linear_6884_28571" x1="107.097" y1="273.712" x2="107.097" y2="190.664" gradientUnits="userSpaceOnUse">
<stop stop-color="#102D52"/>
<stop offset="1" stop-color="#0F122E"/>
</linearGradient>
<linearGradient id="paint7_linear_6884_28571" x1="-116.232" y1="377.319" x2="429.06" y2="377.319" gradientUnits="userSpaceOnUse">
<stop stop-color="#0F2144"/>
<stop offset="1" stop-color="#100A25"/>
</linearGradient>
<linearGradient id="paint8_linear_6884_28571" x1="-161.268" y1="333.505" x2="617.722" y2="333.505" gradientUnits="userSpaceOnUse">
<stop stop-color="#0F2144"/>
<stop offset="1" stop-color="#100A25"/>
</linearGradient>
</defs>
</svg>
