<svg width="19" height="20" viewBox="0 0 19 20" fill="none" xmlns="http://www.w3.org/2000/svg">
<path d="M9.5 18.9419C4.56779 18.9419 0.55814 14.9322 0.55814 10C0.55814 5.06779 4.56779 1.05814 9.5 1.05814C14.4322 1.05814 18.4419 5.06779 18.4419 10C18.4419 14.9322 14.4322 18.9419 9.5 18.9419ZM9.5 1.26744C4.68477 1.26744 0.767442 5.18477 0.767442 10C0.767442 14.8152 4.68477 18.7326 9.5 18.7326C14.3152 18.7326 18.2326 14.8152 18.2326 10C18.2326 5.18477 14.3152 1.26744 9.5 1.26744Z" fill="#878787" stroke="#043A4E" stroke-width="1.11628"/>
<path d="M12.7529 12.9108L12.7413 12.9031L12.7293 12.896L9.98996 11.2612C9.47851 10.9557 9.07767 10.2453 9.07767 9.65478V6.03153C9.07767 6.00742 9.08743 5.98122 9.10972 5.95893C9.13201 5.93664 9.1582 5.92688 9.18232 5.92688C9.20644 5.92688 9.23264 5.93664 9.25493 5.95893C9.27721 5.98122 9.28697 6.00742 9.28697 6.03153V9.65478C9.28697 9.94597 9.39961 10.2396 9.52676 10.4632C9.65294 10.685 9.84749 10.9329 10.1005 11.0811L12.8377 12.7145L12.8377 12.7146L12.8425 12.7174C12.8803 12.7394 12.907 12.7952 12.8753 12.857C12.8449 12.9008 12.8053 12.9143 12.7791 12.9143C12.7646 12.9143 12.7575 12.9127 12.7556 12.9121L12.7546 12.9118L12.7543 12.9117L12.754 12.9116L12.7529 12.9108Z" fill="#878787" stroke="#043A4E" stroke-width="1.11628"/>
</svg>
