<svg width="17" height="17" viewBox="0 0 17 17" fill="none" xmlns="http://www.w3.org/2000/svg">
<path fill-rule="evenodd" clip-rule="evenodd" d="M14.6522 5.25985L14.2372 4.51465C13.8862 3.88409 13.1082 3.66656 12.4981 4.02837V4.02837C12.2077 4.20543 11.8611 4.25566 11.5349 4.16799C11.2086 4.08032 10.9295 3.86195 10.759 3.56104C10.6493 3.36977 10.5904 3.15191 10.5881 2.92951V2.92951C10.598 2.57293 10.468 2.22739 10.2278 1.9716C9.98751 1.71582 9.65744 1.57157 9.31276 1.57172H8.47675C8.13906 1.57171 7.8153 1.71097 7.57709 1.95869C7.33888 2.2064 7.20587 2.54214 7.20749 2.89161V2.89161C7.19748 3.61316 6.62941 4.19264 5.93213 4.19257C5.71723 4.19026 5.50672 4.12926 5.32191 4.01574V4.01574C4.7118 3.65393 3.93383 3.87146 3.58278 4.50202L3.13732 5.25985C2.78669 5.88962 2.99402 6.69424 3.60109 7.05971V7.05971C3.99569 7.29549 4.23877 7.73122 4.23877 8.20278C4.23877 8.67434 3.99569 9.11007 3.60109 9.34585V9.34585C2.99479 9.70885 2.78724 10.5115 3.13732 11.1394V11.1394L3.55837 11.8909C3.72285 12.1981 3.99882 12.4247 4.32522 12.5207C4.65161 12.6167 5.00151 12.5742 5.2975 12.4025V12.4025C5.58847 12.2267 5.93521 12.1786 6.26065 12.2687C6.58608 12.3589 6.86324 12.5798 7.03053 12.8824C7.14022 13.0737 7.19916 13.2915 7.20139 13.5139V13.5139C7.20139 14.2429 7.77239 14.8338 8.47675 14.8338H9.31276C10.0147 14.8339 10.5848 14.2468 10.5881 13.5203V13.5203C10.5865 13.1697 10.7203 12.833 10.9599 12.5851C11.1994 12.3372 11.5247 12.1987 11.8635 12.2004C12.0779 12.2063 12.2875 12.2671 12.4737 12.3772V12.3772C13.0822 12.7401 13.8597 12.5255 14.2128 11.8972V11.8972L14.6522 11.1394C14.8223 10.8373 14.8689 10.4775 14.7819 10.1397C14.6948 9.80185 14.4813 9.51388 14.1884 9.33953V9.33953C13.8956 9.16519 13.682 8.87722 13.595 8.53939C13.5079 8.20157 13.5546 7.84177 13.7247 7.53967C13.8352 7.33985 13.9953 7.17417 14.1884 7.05971V7.05971C14.7919 6.69444 14.9987 5.89452 14.6522 5.26617V5.26617V5.25985Z" stroke="#CBE2D1" stroke-width="1.2" stroke-linecap="round" stroke-linejoin="round"/>
<ellipse cx="8.89806" cy="8.20278" rx="1.75744" ry="1.81881" stroke="#CBE2D1" stroke-width="1.2" stroke-linecap="round" stroke-linejoin="round"/>
</svg>
