<svg width="15" height="15" viewBox="0 0 15 15" fill="none" xmlns="http://www.w3.org/2000/svg">
<path d="M12.0697 6.77934H3.90299C3.25866 6.77934 2.73633 7.30168 2.73633 7.94601V12.0293C2.73633 12.6737 3.25866 13.196 3.90299 13.196H12.0697C12.714 13.196 13.2363 12.6737 13.2363 12.0293V7.94601C13.2363 7.30168 12.714 6.77934 12.0697 6.77934Z" stroke="#CBE2D1" stroke-linecap="round" stroke-linejoin="round"/>
<path d="M5.07031 6.7793V4.44596C5.07031 3.67242 5.3776 2.93055 5.92458 2.38357C6.47157 1.83659 7.21343 1.5293 7.98698 1.5293C8.76053 1.5293 9.50239 1.83659 10.0494 2.38357C10.5964 2.93055 10.9036 3.67242 10.9036 4.44596V6.7793" stroke="#CBE2D1" stroke-linecap="round" stroke-linejoin="round"/>
</svg>
