<svg width="46" height="46" viewBox="0 0 46 46" fill="none" xmlns="http://www.w3.org/2000/svg">
<rect x="0.0429688" y="0.240234" width="45.1836" height="45.1836" rx="9.76574" fill="#B0CAC1"/>
<path d="M31.8288 18.8324L31.8289 18.8324C31.9621 18.8755 32.0712 18.973 32.1288 19.1011M31.8288 18.8324L32.1288 19.1012C32.1288 19.1012 32.1288 19.1011 32.1288 19.1011M31.8288 18.8324C31.0167 18.5696 30.0941 18.531 29.1418 18.7097M31.8288 18.8324L29 18.9423M32.1288 19.1011C32.6342 20.2228 32.7013 21.5757 32.3414 23.0065L32.1475 22.9577M32.1288 19.1011L32.1475 22.9577M32.1475 22.9577L32.3414 23.0065C31.9795 24.4452 31.2119 25.8458 30.1256 27.0592C29.0394 28.2726 27.732 29.1899 26.3419 29.7082C25.5342 30.0094 24.7373 30.1626 23.9809 30.1626C23.4976 30.1626 23.0315 30.0993 22.5897 29.973M32.1475 22.9577L22.5897 29.973M27.8036 16.3777C27.704 16.2786 27.5674 16.2267 27.4276 16.2339L27.4274 16.2339C26.5746 16.2785 25.7015 16.5715 24.8764 17.0779M27.8036 16.3777L27.6626 16.5195M27.8036 16.3777C27.8036 16.3777 27.8036 16.3777 27.8036 16.3777L27.6626 16.5195M27.8036 16.3777C28.4097 16.9801 28.8648 17.7813 29.1418 18.7097M27.6626 16.5195C28.2786 17.1318 28.7372 17.9652 29 18.9423M27.6626 16.5195C27.6032 16.4604 27.5216 16.4293 27.4378 16.4336C26.5709 16.4789 25.6737 16.7937 24.8266 17.346M29.1418 18.7097C29.0806 18.7212 29.0192 18.7336 28.9577 18.7469L29 18.9423M29.1418 18.7097C29.1597 18.7694 29.1768 18.8296 29.1931 18.8904L29 18.9423M24.8266 17.346L24.9887 17.2289C24.9517 17.1777 24.9143 17.1274 24.8764 17.0779M24.8266 17.346L24.7173 17.1785C24.7701 17.144 24.8231 17.1105 24.8764 17.0779M24.8266 17.346L24.8764 17.0779M24.8764 17.0779C24.2885 16.3097 23.5823 15.7288 22.7911 15.378L22.7911 15.378C22.6629 15.3212 22.5167 15.3212 22.3885 15.378L22.3884 15.378C21.6085 15.7238 20.8956 16.314 20.3061 17.0797C19.4801 16.5722 18.6061 16.2785 17.7523 16.2339L24.8764 17.0779ZM17.3759 16.3777L17.376 16.3776C17.4753 16.2789 17.6119 16.2265 17.7522 16.2339L17.3759 16.3777ZM17.3759 16.3777C16.7699 16.9801 16.3147 17.7814 16.0377 18.7097M17.3759 16.3777L16.0377 18.7097M13.3789 23.1644L13.3787 23.1645C13.1111 23.2235 12.8457 23.0549 12.7863 22.7868L13.3789 23.1644ZM13.3789 23.1644C13.6468 23.105 13.8158 22.8398 13.7565 22.5719L13.7565 22.5719M13.3789 23.1644L13.7565 22.5719M13.7565 22.5719C13.5202 21.5054 13.5652 20.5253 13.8712 19.7159C14.5559 19.5413 15.3485 19.552 16.1805 19.7571L16.1806 19.7572L13.7565 22.5719ZM19.802 27.0479L19.6249 27.141C19.6249 27.141 19.6249 27.141 19.6249 27.141C18.7922 25.556 18.4821 23.726 18.5946 21.9595C18.5946 21.9594 18.5946 21.9593 18.5946 21.9593L21.2095 29.1652C21.3128 29.1651 21.4148 29.1616 21.5153 29.1548C21.3933 29.0609 21.2757 28.9615 21.1619 28.8573C20.6024 28.3451 20.1539 27.7178 19.802 27.0479ZM19.802 27.0479C18.9889 25.5004 18.6836 23.7079 18.7942 21.972L19.802 27.0479ZM15.2028 26.9258L15.0537 27.0592C14.2578 26.1701 13.6378 25.1895 13.2126 24.1444L15.2028 26.9258ZM15.2028 26.9258L15.0537 27.0592C16.14 28.2726 17.4474 29.1899 18.8375 29.7082C19.6453 30.0094 20.442 30.1626 21.1985 30.1626C21.6817 30.1626 22.1479 30.0992 22.5897 29.973M15.2028 26.9258L22.5897 29.973M28.0561 19.0047L28.0563 19.0047L28.0645 19.0017L28.0738 18.9985L28.0739 18.9984L28.1401 19.1872L28.0561 19.0047ZM28.0561 19.0047C27.6849 19.1353 27.3242 19.2936 26.9761 19.4744L28.0561 19.0047ZM23.9708 29.1651C24.6096 29.1656 25.2992 29.0366 25.9949 28.7771C27.2281 28.3173 28.4015 27.4955 29.3854 26.3964C30.3693 25.2974 31.0568 24.0405 31.3779 22.7641L31.5718 22.8129L31.3779 22.7641C31.6604 21.6412 31.6289 20.57 31.3081 19.7157C30.1892 19.4292 28.9704 19.6658 27.899 20.1344C27.3897 20.3573 26.9039 20.6366 26.4486 20.959C26.4489 20.9612 26.4491 20.9635 26.4493 20.9659C26.4564 21.0334 26.47 21.1248 26.486 21.222C26.5003 21.3086 26.5158 21.3966 26.5292 21.4721L26.5336 21.4974L26.5344 21.502C26.5472 21.5743 26.5597 21.6453 26.5626 21.6766C26.5919 21.9979 26.607 22.3206 26.607 22.6434C26.607 23.778 26.4327 24.8706 26.088 25.8905L26.0879 25.8905C26.0457 26.0155 25.952 26.1206 25.8347 26.1777L25.8346 26.1777C25.7191 26.234 25.5812 26.2435 25.4583 26.202L25.4582 26.202C25.1981 26.1141 25.0585 25.8321 25.1465 25.5721C25.4558 24.6572 25.6132 23.672 25.6132 22.6434C25.6132 22.0336 25.5564 21.4224 25.4397 20.8248C25.2547 19.8778 24.9238 18.9661 24.4133 18.1542L23.9708 29.1651ZM23.9708 29.1651C24.4293 28.7794 24.8218 28.3197 25.1493 27.8263L25.1493 27.8263C25.2964 27.6046 25.4316 27.3751 25.5549 27.1402L23.9708 29.1651ZM19.5442 20.7848C19.4706 21.1612 19.4196 21.5464 19.3918 21.9362L19.5913 21.9502C19.5434 22.6333 19.5649 23.3213 19.6609 23.9983L19.6609 23.9983C19.6948 24.2373 19.738 24.4749 19.7908 24.7101C19.9988 25.6365 20.356 26.5325 20.8851 27.3138L20.8851 27.3138C21.3043 27.9329 21.8301 28.4304 22.456 28.8477C22.4725 28.8587 22.4854 28.8674 22.4964 28.875C22.5119 28.8855 22.5239 28.8937 22.5377 28.9024C22.5493 28.9098 22.5568 28.9138 22.5612 28.916C22.5661 28.9144 22.5744 28.9111 22.5867 28.9047L22.5867 28.9047C22.7591 28.8148 22.9248 28.7105 23.0834 28.5949L23.2012 28.7565L23.0834 28.5949C23.7585 28.1028 24.2848 27.4227 24.6776 26.6737L24.8547 26.7665L24.6776 26.6737C24.805 26.4307 25.1052 26.3369 25.3483 26.4644C25.5909 26.5916 25.6849 26.8911 25.5582 27.134L19.5913 21.9505C19.6185 21.5686 19.6685 21.1914 19.7405 20.8232M19.5442 20.7848L19.7403 20.824M19.5442 20.7848L19.5445 20.7835L19.7405 20.8232M19.5442 20.7848L19.7405 20.8232M19.7403 20.824C19.7402 20.8248 19.74 20.8255 19.7401 20.825L19.7403 20.8243L19.7403 20.824ZM19.7403 20.824L19.7405 20.8232M19.7405 20.8232L19.7406 20.8227L19.7408 20.8219C19.8109 20.4634 19.9028 20.109 20.0174 19.7629L20.0174 19.7629C20.1037 19.5024 19.9624 19.2214 19.702 19.1351L19.7012 19.1348C19.696 19.1331 19.6913 19.1318 19.6883 19.131C19.4317 19.0539 19.1588 19.1944 19.074 19.4505L19.074 19.4505C19.0249 19.5989 18.9795 19.7488 18.9377 19.8999C18.4894 19.6126 18.0162 19.362 17.5229 19.1578C17.351 19.0866 17.1761 19.0208 16.999 18.9613C17.2064 18.2803 17.5221 17.6973 17.9231 17.245C18.5234 17.3145 19.1474 17.5383 19.7561 17.9072C19.7039 17.999 19.6535 18.0918 19.605 18.1853C19.605 18.1853 19.605 18.1853 19.605 18.1853C19.605 18.1854 19.6049 18.1855 19.6048 18.1856L19.5998 18.195L19.5998 18.195C19.4739 18.4387 19.5694 18.7385 19.8133 18.8644C19.8133 18.8644 19.8133 18.8644 19.8133 18.8644L19.905 18.6867M19.7405 20.8232L20.4902 18.637L20.3128 18.5447M19.905 18.6867C20.0489 18.761 20.2308 18.7029 20.3051 18.5593L20.3128 18.5447M19.905 18.6867C19.7594 18.6115 19.7023 18.4324 19.7775 18.2868L19.905 18.6867ZM20.3128 18.5447L20.4902 18.6369M20.3128 18.5447L20.4902 18.6369M20.4902 18.6369C20.562 18.499 20.6387 18.3633 20.7199 18.23C21.233 17.3906 21.8839 16.7523 22.5899 16.3836C23.2525 16.7297 23.8677 17.3142 24.3652 18.0793C24.3819 18.1051 24.3978 18.1296 24.4133 18.1542L20.4902 18.6369ZM16.0377 18.7097C15.0854 18.5309 14.1629 18.5696 13.3507 18.8324C13.2173 18.8755 13.1082 18.9731 13.0506 19.1011M16.0377 18.7097L13.0506 19.1011M13.0506 19.1011C13.0507 19.1011 13.0507 19.101 13.0507 19.101L13.233 19.1832L13.0506 19.1011ZM13.0506 19.1011C12.5733 20.1607 12.4873 21.4372 12.7863 22.7867L13.0506 19.1011ZM18.9268 20.8536L18.8907 20.8472L18.8907 20.8472L18.7298 20.8188C18.7225 20.8603 18.7155 20.9018 18.7087 20.9434C18.7337 20.9609 18.7585 20.9786 18.7833 20.9964L18.7835 20.9965C18.7888 21.0003 18.7917 21.0025 18.7953 21.0052C18.7987 21.0077 18.8025 21.0105 18.8093 21.0155L18.9268 20.8536ZM15.794 26.3965C15.0724 25.5903 14.514 24.7065 14.1329 23.7698L14.1329 23.7698C14.0295 23.5157 13.7397 23.3934 13.4855 23.4969C13.4855 23.4969 13.4855 23.4969 13.4854 23.4969L13.5609 23.6822L15.794 26.3965ZM27.2566 17.245C27.6576 17.6973 27.9733 18.2805 28.1808 18.9616L26.4633 19.7623L26.4627 19.7626L26.461 19.7637L26.4551 19.767L26.4366 19.7777L26.3796 19.8104C26.3395 19.8334 26.2899 19.8621 26.2401 19.8918C26.0488 19.2024 25.7792 18.5317 25.4236 17.9071C26.0323 17.5383 26.6563 17.3145 27.2566 17.245Z" fill="#043A4E" stroke="#043A4E" stroke-width="0.4"/>
</svg>
