<svg width="15" height="15" viewBox="0 0 15 15" fill="none" xmlns="http://www.w3.org/2000/svg">
<path d="M5.44727 7.69043H9.5306" stroke="#CBE2D1" stroke-miterlimit="10" stroke-linecap="round" stroke-linejoin="round"/>
<path d="M5.44727 10.0225H8.00227" stroke="#CBE2D1" stroke-miterlimit="10" stroke-linecap="round" stroke-linejoin="round"/>
<path d="M6.61393 4.07259H8.94727C10.1139 4.07259 10.1139 3.48926 10.1139 2.90592C10.1139 1.73926 9.5306 1.73926 8.94727 1.73926H6.61393C6.0306 1.73926 5.44727 1.73926 5.44727 2.90592C5.44727 4.07259 6.0306 4.07259 6.61393 4.07259Z" stroke="#CBE2D1" stroke-miterlimit="10" stroke-linecap="round" stroke-linejoin="round"/>
<path d="M10.1146 2.91895C12.0571 3.02395 13.0312 3.74145 13.0312 6.40728V9.90728C13.0312 12.2406 12.4479 13.4073 9.53125 13.4073H6.03125C3.11458 13.4073 2.53125 12.2406 2.53125 9.90728V6.40728C2.53125 3.74728 3.50542 3.02395 5.44792 2.91895" stroke="#CBE2D1" stroke-miterlimit="10" stroke-linecap="round" stroke-linejoin="round"/>
</svg>
