<svg width="165" height="70" viewBox="0 0 165 70" fill="none" xmlns="http://www.w3.org/2000/svg">
<path d="M117.142 9.15156C124.954 -4.05857 160.706 24.3881 164.149 46.875C165.588 56.2808 157.75 52.5766 148.796 61.1015C143.291 66.3417 135.893 61.492 131.107 65.1994C110.534 77.8159 93.6712 12.8236 117.142 9.15156Z" fill="#043A4E"/>
<path d="M164.961 45.6548C164.987 45.7678 164.916 45.8775 164.803 45.9033C164.69 45.9291 164.58 45.8581 164.554 45.7452C162.351 35.794 154 24.0359 144.775 15.7078C140.38 11.739 135.788 8.54774 131.574 6.71174C127.396 4.88865 123.595 4.39497 120.749 5.79858C119.368 6.47942 118.203 7.60876 117.325 9.25116C117.27 9.35119 117.144 9.38991 117.044 9.33828C116.944 9.28343 116.906 9.15759 116.961 9.05756C117.883 7.33127 119.11 6.14384 120.568 5.42751C123.537 3.96582 127.454 4.46273 131.742 6.33422C135.998 8.18957 140.625 11.4034 145.055 15.4045C154.332 23.7842 162.738 35.6263 164.961 45.6613V45.6548Z" fill="black"/>
<path fill-rule="evenodd" clip-rule="evenodd" d="M90.0044 48.972C94.4379 49.2721 103.005 32.9869 112.849 31.4252C117.16 30.7411 119.264 32.6933 121.491 36.817C124.514 42.4186 122.72 53.157 118.625 57.8713C112.198 65.2701 98.9262 69.5906 88.262 69.0324C85.5774 62.0208 85.3257 56.1708 85.4999 48.6655L90.0044 48.9688V48.972Z" fill="#FF9D48"/>
<path fill-rule="evenodd" clip-rule="evenodd" d="M136.689 55.2508L154.055 39.1883L151.88 35.8486L133.395 52.5081L136.689 55.2508Z" fill="#F7EBE4"/>
<path d="M136.678 54.9766L153.786 39.1528L151.841 36.1649L133.71 52.5049L136.678 54.9766ZM154.196 39.34L136.83 55.4025C136.756 55.4703 136.64 55.4767 136.559 55.409L133.274 52.6727C133.274 52.6727 133.255 52.6566 133.245 52.6469C133.168 52.563 133.171 52.4339 133.255 52.3565L151.734 35.7035C151.734 35.7035 151.754 35.6841 151.767 35.6777C151.86 35.6163 151.989 35.6454 152.054 35.7422L154.228 39.0818C154.283 39.1657 154.274 39.2754 154.199 39.3432L154.196 39.34Z" fill="#8C9152"/>
<path fill-rule="evenodd" clip-rule="evenodd" d="M139.141 53.8896L156.132 38.9951L154.88 37.8916L137.879 52.4699L139.141 53.8896Z" fill="white"/>
<path fill-rule="evenodd" clip-rule="evenodd" d="M156.538 38.6367L158.716 44.0124L142.541 56.7773L138.246 54.6734L156.538 38.6367Z" fill="#8C9152"/>
<path fill-rule="evenodd" clip-rule="evenodd" d="M149.081 53.4056C149.3 53.0313 149.901 52.0149 150.201 51.2082C149.93 50.9178 148.845 50.2724 147.79 52.1665C147.965 51.7632 148.468 51.305 148.387 50.95C147.848 50.266 147.093 50.1853 146.025 51.2953C143.418 54.0057 139.801 57.2098 140.456 54.1509C140.753 52.7764 142.318 50.9565 140.275 49.8981C138.72 52.9022 135.367 54.0928 134.725 57.4938L120.86 58.7006L119.405 48.3525L107.908 49.0108C108.505 55.2351 109.392 61.3207 111.361 65.5477C111.454 65.7606 111.561 65.9833 111.68 66.2091C114.378 71.3267 127.297 69.6682 138.894 63.9085C140.953 62.9405 149.042 57.8068 150.188 53.9444C150.017 53.2507 149.523 53.2281 149.081 53.3991V53.4056Z" fill="#FDBCA0"/>
<path d="M143.384 56.7378C143.291 56.8055 143.162 56.7829 143.094 56.6926C143.026 56.599 143.049 56.4699 143.139 56.4022C143.775 55.9408 144.733 55.2148 145.692 54.2919C146.643 53.3723 147.595 52.2591 148.225 51.0233C148.276 50.92 148.402 50.8813 148.505 50.9329C148.609 50.9846 148.647 51.1104 148.596 51.2136C147.941 52.4979 146.96 53.6466 145.979 54.592C145.001 55.5342 144.03 56.2731 143.384 56.741V56.7378Z" fill="black"/>
<path d="M144.506 58.5448C144.409 58.6093 144.28 58.5835 144.215 58.4899C144.151 58.3931 144.177 58.264 144.27 58.1995C144.857 57.8026 146.497 56.4216 147.92 54.6663C148.797 53.5821 149.591 52.3592 149.994 51.1427C150.03 51.033 150.149 50.9749 150.256 51.0104C150.365 51.0459 150.424 51.1653 150.388 51.2718C149.965 52.5431 149.146 53.8112 148.242 54.9276C146.79 56.7217 145.106 58.135 144.506 58.5448Z" fill="black"/>
<path d="M107.329 44.9415C107.319 44.8285 107.403 44.7253 107.519 44.7156C107.632 44.7059 107.735 44.7898 107.745 44.906L108.094 48.7974L119.39 48.1488C119.506 48.1424 119.603 48.2295 119.61 48.3456C119.616 48.4618 119.529 48.5586 119.413 48.5651L107.916 49.2233C107.803 49.2298 107.706 49.1459 107.697 49.0329L107.329 44.9415Z" fill="black"/>
<path d="M123.307 58.281C123.424 58.2714 123.524 58.3552 123.533 58.4714C123.543 58.5876 123.459 58.6876 123.343 58.6973L116.17 59.32C116.054 59.3297 115.954 59.2458 115.944 59.1297C115.934 59.0135 116.018 58.9135 116.134 58.9038L123.307 58.281Z" fill="black"/>
<path fill-rule="evenodd" clip-rule="evenodd" d="M124.805 23.9616C124.553 22.871 119.574 23.839 118.771 24.2423C117.345 27.4852 115.351 30.1246 113.176 31.6379C114.892 34.5032 118.284 37.5944 120.484 38.1881C119.971 33.561 121.833 27.4981 124.802 23.9584L124.805 23.9616Z" fill="#FDBCA0"/>
<path d="M113 31.751C112.939 31.6542 112.971 31.5252 113.068 31.4638C113.165 31.4025 113.294 31.4348 113.355 31.5316C113.884 32.3899 114.959 33.6257 116.391 34.9067C117.582 35.9748 119.021 37.0751 120.596 38.0108C120.696 38.0689 120.725 38.198 120.667 38.2948C120.609 38.3948 120.479 38.4239 120.383 38.3658C118.785 37.4139 117.327 36.2975 116.117 35.2133C114.655 33.9032 113.555 32.6351 113.006 31.7478L113 31.751Z" fill="black"/>
<path fill-rule="evenodd" clip-rule="evenodd" d="M118.765 24.2455C115.48 25.8201 114.135 19.9733 117.613 20.6993C120.065 21.9287 120.652 18.1728 121.895 16.4756C123.072 17.6404 124.873 18.318 127.99 17.6888C131.952 27.227 122.227 31.9638 118.765 24.2487V24.2455Z" fill="#FDBCA0"/>
<path d="M118.567 24.3036C118.535 24.1939 118.599 24.0777 118.709 24.0454C118.819 24.0132 118.935 24.0777 118.967 24.1874C119.08 24.5778 119.322 25.0199 119.603 25.4265C119.941 25.9105 120.335 26.3461 120.645 26.5978C120.735 26.6687 120.748 26.801 120.674 26.8914C120.603 26.9817 120.471 26.9946 120.38 26.9204C120.042 26.6429 119.616 26.1783 119.257 25.6652C118.951 25.2264 118.69 24.7456 118.564 24.3036H118.567Z" fill="black"/>
<path d="M116.853 22.0867C116.744 22.1222 116.628 22.0609 116.592 21.9512C116.557 21.8415 116.618 21.7253 116.728 21.6898C116.773 21.6769 116.815 21.664 116.853 21.6543C117.154 21.5834 117.46 21.6092 117.725 21.7512C117.989 21.8931 118.205 22.1448 118.331 22.5352C118.347 22.5901 118.364 22.6449 118.376 22.6998C118.402 22.8127 118.335 22.9224 118.222 22.9483C118.151 22.9644 118.076 22.9418 118.028 22.8934C117.925 22.7998 117.825 22.7288 117.728 22.6804C117.628 22.6288 117.531 22.5998 117.438 22.5901C117.325 22.5772 117.241 22.4739 117.254 22.361C117.266 22.2481 117.37 22.1642 117.483 22.1771C117.544 22.1835 117.602 22.1964 117.663 22.2126C117.621 22.1738 117.576 22.1416 117.528 22.119C117.357 22.0286 117.154 22.0157 116.947 22.0609C116.912 22.0674 116.883 22.077 116.853 22.0867Z" fill="black"/>
<path d="M124.728 22.6549C124.615 22.6323 124.544 22.5194 124.567 22.4097C124.589 22.2967 124.702 22.2257 124.812 22.2483C125.164 22.3225 125.344 22.5387 125.396 22.7743C125.422 22.8872 125.412 23.0034 125.38 23.1099C125.348 23.2163 125.286 23.3164 125.206 23.397C125.035 23.5616 124.776 23.639 124.473 23.5164C124.367 23.4712 124.315 23.3519 124.36 23.2454C124.405 23.1389 124.525 23.0873 124.631 23.1324C124.754 23.1841 124.854 23.1583 124.915 23.1002C124.944 23.0711 124.967 23.0324 124.98 22.9905C124.993 22.9485 124.996 22.9066 124.986 22.8614C124.967 22.7711 124.886 22.6872 124.722 22.6549H124.728Z" fill="black"/>
<path d="M125.724 19.6352C125.611 19.661 125.501 19.5932 125.472 19.4835C125.446 19.3706 125.514 19.2609 125.624 19.2318C126.089 19.1189 126.524 19.0737 126.937 19.1318C127.36 19.1931 127.747 19.3609 128.099 19.6868C128.183 19.7642 128.189 19.8965 128.112 19.9804C128.034 20.0643 127.902 20.0708 127.818 19.9933C127.537 19.732 127.221 19.5932 126.879 19.5448C126.524 19.4932 126.137 19.5384 125.724 19.6384V19.6352Z" fill="black"/>
<path d="M121.496 20.2584C121.409 20.3326 121.276 20.323 121.202 20.2359C121.128 20.1487 121.138 20.0164 121.225 19.9422C121.538 19.6712 122.06 19.4292 122.632 19.3291C123.116 19.242 123.642 19.2517 124.113 19.4259C124.219 19.4647 124.277 19.5841 124.238 19.6938C124.2 19.8002 124.08 19.8583 123.971 19.8196C123.574 19.6744 123.122 19.668 122.703 19.7422C122.202 19.8325 121.754 20.0358 121.496 20.2584Z" fill="black"/>
<path d="M123.058 24.9819C123.058 24.8657 123.152 24.7754 123.268 24.7754C123.384 24.7754 123.474 24.869 123.474 24.9851C123.474 25.1561 123.516 25.282 123.584 25.3659C123.645 25.4401 123.736 25.482 123.842 25.5014C123.961 25.5208 124.097 25.5079 124.236 25.4627C124.5 25.3788 124.762 25.1916 124.923 24.927C124.984 24.8302 125.11 24.798 125.21 24.8593C125.307 24.9206 125.339 25.0464 125.278 25.1465C125.059 25.5046 124.71 25.7531 124.358 25.8628C124.158 25.9241 123.955 25.9435 123.771 25.9144C123.574 25.8822 123.397 25.7918 123.265 25.6402C123.132 25.4853 123.052 25.2691 123.055 24.9884L123.058 24.9819Z" fill="black"/>
<path d="M120.694 21.9295C120.61 21.852 120.604 21.7197 120.681 21.6358C120.759 21.5519 120.891 21.5455 120.975 21.6229C121.339 21.9553 121.859 22.1166 122.385 22.1069C122.904 22.0972 123.427 21.9166 123.805 21.5616C123.889 21.4842 124.021 21.4874 124.098 21.5713C124.176 21.6552 124.173 21.7875 124.089 21.8649C123.634 22.2908 123.011 22.5103 122.395 22.5232C121.769 22.5361 121.143 22.336 120.697 21.9327L120.694 21.9295Z" fill="black"/>
<path d="M120.572 22.277C120.456 22.2674 120.372 22.1673 120.382 22.0544C120.391 21.9415 120.491 21.8543 120.604 21.864C120.682 21.8705 120.756 21.8705 120.83 21.864C120.908 21.8608 120.985 21.8511 121.062 21.835C121.175 21.8124 121.285 21.8898 121.304 21.9995C121.327 22.1125 121.253 22.2222 121.14 22.2416C121.046 22.2609 120.95 22.2706 120.853 22.277C120.756 22.2835 120.662 22.2803 120.572 22.277Z" fill="black"/>
<path d="M121.005 22.6321C120.892 22.6547 120.783 22.5837 120.76 22.4707C120.737 22.3578 120.808 22.2481 120.921 22.2255C120.996 22.2094 121.067 22.19 121.138 22.1642C121.209 22.1384 121.28 22.1061 121.351 22.0706C121.454 22.019 121.58 22.0577 121.631 22.161C121.683 22.2642 121.644 22.3901 121.541 22.4417C121.457 22.4836 121.37 22.5224 121.276 22.5579C121.186 22.5901 121.096 22.6159 121.005 22.6353V22.6321Z" fill="black"/>
<path d="M125.086 21.904C124.989 21.8427 124.96 21.7136 125.025 21.6168C125.086 21.52 125.215 21.491 125.312 21.5555C125.757 21.8427 126.254 21.9491 126.716 21.8846C127.164 21.8201 127.577 21.591 127.88 21.2005C127.951 21.1102 128.08 21.0941 128.171 21.1618C128.261 21.2328 128.277 21.3619 128.21 21.4522C127.838 21.933 127.329 22.217 126.774 22.2944C126.219 22.3718 125.622 22.246 125.089 21.904H125.086Z" fill="black"/>
<path d="M128.353 21.2552C128.463 21.2197 128.579 21.281 128.614 21.3907C128.65 21.5004 128.589 21.6166 128.479 21.6521C128.385 21.6811 128.295 21.7037 128.205 21.7198C128.111 21.736 128.017 21.7457 127.917 21.7489C127.801 21.7521 127.708 21.665 127.701 21.5488C127.698 21.4327 127.785 21.3391 127.901 21.3326C127.979 21.3326 128.056 21.323 128.134 21.3068C128.211 21.2939 128.285 21.2746 128.353 21.2552Z" fill="black"/>
<path d="M128.131 21.6778C128.248 21.6778 128.341 21.7681 128.341 21.8811C128.341 21.9972 128.251 22.0908 128.138 22.0908C128.041 22.0908 127.947 22.0876 127.857 22.0779H127.851C127.76 22.065 127.667 22.0489 127.573 22.0231C127.463 21.994 127.396 21.8811 127.425 21.7714C127.454 21.6617 127.567 21.5939 127.676 21.6229C127.747 21.6423 127.822 21.6552 127.899 21.6649H127.905C127.983 21.6746 128.06 21.681 128.131 21.6778Z" fill="black"/>
<path fill-rule="evenodd" clip-rule="evenodd" d="M39.1688 47.7426C43.2216 52.3665 48.1003 57.0323 53.0985 61.4852C45.761 61.8756 38.9559 63.176 33.0639 65.2023C23.5645 62.521 8.53126 41.3538 0.351562 26.9562L15.3848 14.7012L39.1656 47.7426H39.1688Z" fill="#F7EBE4"/>
<path d="M39.3293 47.6144C41.3492 49.9182 43.5756 52.235 45.9247 54.5324C48.2705 56.8266 50.7357 59.1047 53.2364 61.3343C53.3235 61.4118 53.33 61.5408 53.2525 61.6279C53.2106 61.6731 53.1557 61.6989 53.0976 61.6989C49.4773 61.8925 45.9892 62.3056 42.6786 62.9219C39.297 63.5478 36.0993 64.3836 33.1308 65.4032C33.0856 65.4193 33.0372 65.4193 32.9953 65.4032C28.8134 64.2158 23.5959 59.5177 18.3654 53.3998C11.6022 45.4912 4.79384 35.198 0.173202 27.0635C0.121575 26.9731 0.147389 26.8602 0.228056 26.7957L15.258 14.5439C15.3484 14.4729 15.4775 14.4858 15.5517 14.5729C15.5549 14.5794 15.5581 14.5826 15.5646 14.589L39.3357 47.6144H39.3293ZM45.631 54.8261C43.2788 52.5222 41.0427 50.1957 39.0098 47.879C39.0066 47.8725 39.0001 47.8693 38.9969 47.8628L15.3452 15.0021L0.618488 27.0086C5.22622 35.1012 11.9733 45.2879 18.6784 53.1288C23.8443 59.166 28.9715 63.8027 33.0566 64.9869C36.0219 63.9705 39.2196 63.1381 42.6012 62.5121C45.7795 61.9216 49.1191 61.515 52.5814 61.3117C50.213 59.1918 47.8704 57.0234 45.631 54.8293V54.8261Z" fill="black"/>
<path fill-rule="evenodd" clip-rule="evenodd" d="M15.3837 14.702C13.6639 12.3433 4.11286 3.60216 1.33789 5.6608L5.1938 16.4864C5.62618 17.6996 5.8101 20.11 8.94969 20.0842L15.3805 14.702H15.3837Z" fill="black"/>
<path fill-rule="evenodd" clip-rule="evenodd" d="M35.3315 66.9516C20.3306 58.5653 39.3552 19.8384 44.9342 9.21289L63.0554 17.0602L50.1615 52.7411C65.5528 51.4795 74.3553 45.936 85.5003 48.669L88.2624 69.036C67.9374 69.5523 56.5987 69.4135 46.5701 69.036C41.3751 68.8392 37.9548 68.5326 35.3347 66.9516H35.3315Z" fill="#FFFAFF"/>
<path d="M35.214 67.1223C27.6184 62.8566 28.6154 50.9953 32.2164 38.8628C35.8013 26.7885 41.9579 14.4334 44.749 9.11584C44.8006 9.01581 44.9264 8.97709 45.0265 9.02871L63.1347 16.8728C63.2348 16.918 63.2864 17.0309 63.2477 17.1342L50.4667 52.5086C56.4199 51.9923 61.3858 50.8436 65.8903 49.7981C72.8891 48.1751 78.781 46.8102 85.5474 48.4687C85.6345 48.4881 85.6926 48.5591 85.7055 48.643L88.4676 69.0099C88.4837 69.1229 88.4031 69.2294 88.2901 69.2423C88.2804 69.2423 88.2708 69.2423 88.2579 69.2423C78.1002 69.5004 70.1851 69.594 63.5542 69.5779C56.9201 69.5617 51.5767 69.4326 46.5624 69.2423C43.9584 69.1455 41.7965 69.0164 39.9541 68.7163C38.0955 68.413 36.5596 67.9322 35.2269 67.1288L35.2173 67.1223H35.214ZM32.6133 38.979C29.0607 50.9469 28.0443 62.6275 35.4206 66.7642C35.427 66.7642 35.4302 66.7706 35.4367 66.7738C36.7209 67.5483 38.2084 68.0129 40.0154 68.3065C41.8385 68.6034 43.9842 68.7292 46.572 68.826C51.5863 69.0164 56.9265 69.1455 63.551 69.1616C70.127 69.1777 77.9711 69.0874 88.0223 68.8325L85.3119 48.8366C78.6971 47.2523 72.8826 48.601 65.9839 50.1983C61.3826 51.2663 56.3038 52.444 50.1763 52.9474C50.1472 52.9474 50.1182 52.9474 50.0892 52.9345C49.9827 52.8958 49.9246 52.7764 49.9633 52.6667L62.7895 17.1697L45.0265 9.47723C42.1999 14.8723 36.1498 27.0628 32.6133 38.9758V38.979Z" fill="black"/>
<path fill-rule="evenodd" clip-rule="evenodd" d="M63.0541 17.06C64.3383 14.4367 67.6199 1.91389 64.5093 0.419922L56.7265 8.87711C55.8553 9.82577 53.8063 11.1132 55.2938 13.8785L63.0541 17.06Z" fill="black"/>
</svg>
