<svg width="22" height="22" viewBox="0 0 22 22" fill="none" xmlns="http://www.w3.org/2000/svg">
<path d="M11.1758 1V2M11.1758 20V21M21.1758 11H20.1758M2.17578 11H1.17578M18.2458 3.93L17.8538 4.323M4.49778 17.678L4.10478 18.071M18.2458 18.07L17.8538 17.677M4.49778 4.322L4.10478 3.929M5.51678 9C5.06355 10.2831 5.05993 11.6821 5.50651 12.9675C5.9531 14.2529 6.82336 15.3484 7.97449 16.074C9.12562 16.7997 10.4892 17.1125 11.8416 16.9612C13.1939 16.8098 14.4546 16.2033 15.4168 15.2411C16.379 14.2788 16.9856 13.0181 17.137 11.6658C17.2883 10.3135 16.9755 8.94984 16.2498 7.79871C15.5241 6.64758 14.4287 5.77732 13.1433 5.33073C11.8579 4.88415 10.4589 4.88777 9.17578 5.341" stroke="#FF9D48" stroke-width="1.5" stroke-linecap="round"/>
</svg>
