<svg width="48" height="40" viewBox="0 0 48 40" fill="none" xmlns="http://www.w3.org/2000/svg">
<g clip-path="url(#clip0_6884_27636)">
<path d="M24.1965 36.117C17.9646 36.117 11.7327 36.032 5.50266 36.1532C2.3774 36.2147 0.0697774 34.4328 0.324939 31.1566C0.429238 29.8089 0.334252 28.4485 0.343564 27.0935C0.356601 25.3243 1.33441 23.9042 3.05721 23.2783C7.35584 21.7207 11.796 20.742 16.3498 20.2101C20.2685 19.7507 24.1965 19.6403 28.1319 19.8664C33.9951 20.2047 39.711 21.2702 45.2259 23.2548C47.0362 23.906 47.9842 25.3225 47.9917 27.2202C47.9973 28.6963 47.9935 30.1707 47.9917 31.6469C47.9879 34.431 46.2484 36.1152 43.3522 36.117C36.9657 36.1224 30.5792 36.117 24.1928 36.117H24.1965Z" fill="#043446"/>
<path d="M22.0523 12.9761C20.0744 12.9417 18.0517 13.2221 16.1464 12.5908C13.9337 11.8581 11.7788 10.9536 9.60717 10.1033C8.99814 9.86455 8.73925 9.35802 8.73739 8.7339C8.73366 6.32427 8.7169 3.91464 8.74484 1.505C8.75788 0.34903 9.71147 -0.336594 10.7526 0.168126C13.2018 1.35847 15.7869 1.45616 18.4372 1.40731C21.6929 1.34762 24.9485 1.4037 28.2041 1.38742C29.411 1.38199 30.5546 1.62621 31.5753 2.22138C34.0673 3.67042 36.5332 5.15925 38.9936 6.65894C39.9602 7.24869 40.2824 8.26175 39.9006 9.24043C39.3921 10.5393 38.1033 11.0278 36.8014 10.3602C34.5906 9.22777 32.3929 8.06999 30.2007 6.90497C29.2006 6.37311 28.1557 6.10357 27.0103 6.12166C25.1199 6.1506 23.2276 6.13432 21.3353 6.12708C20.73 6.12528 20.2234 6.25553 20.039 6.89954C19.8378 7.60687 20.2886 8.1333 21.1639 8.14597C22.7135 8.16768 24.265 8.12788 25.8146 8.16406C27.042 8.193 27.9248 8.81893 28.2507 9.78676C28.5841 10.7709 28.2563 11.8255 27.4144 12.4533C26.9041 12.8332 26.3156 12.9761 25.6786 12.9725C24.4698 12.967 23.2592 12.9725 22.0505 12.9725L22.0523 12.9761Z" fill="#043446"/>
<path d="M24.2039 24.5572C26.0571 24.4794 27.8954 24.7146 29.7113 25.1289C30.8307 25.3857 31.3373 26.0388 31.1138 26.8764C30.8828 27.7429 30.1732 28.0504 29.0315 27.7863C25.8131 27.041 22.5947 27.0374 19.3745 27.7719C18.1695 28.0468 17.4412 27.7429 17.2196 26.8492C17.0073 25.9936 17.5362 25.3857 18.7524 25.1071C20.5386 24.6965 22.347 24.4848 24.2021 24.5554L24.2039 24.5572Z" fill="#D4751F"/>
</g>
<defs>
<clipPath id="clip0_6884_27636">
<rect width="48" height="40" fill="white"/>
</clipPath>
</defs>
</svg>
