<svg width="153" height="138" viewBox="0 0 153 138" fill="none" xmlns="http://www.w3.org/2000/svg">
<path d="M93.3936 48.1914C93.3936 48.1914 69.656 47.1146 67.076 44.3039C63.4891 40.4024 57.4201 34.9696 56.4063 28.2364C56.4063 28.2364 55.5952 24.0412 60.0071 23.4259C64.419 22.8106 65.3979 25.8941 65.3979 25.8941C67.062 32.1239 71.0124 39.3606 72.9212 39.5843L93.2958 44.6535C94.4844 44.9191 94.5403 44.3318 95.7429 44.3318C99.9661 44.3318 98.8963 46.6042 99.2948 46.807C99.9101 47.1216 96.575 46.4224 96.575 46.4224C96.575 46.4224 91.9183 46.0728 93.4006 48.1844L93.3936 48.1914Z" fill="#FFB494"/>
<path d="M68.4171 30.5021C68.3401 30.5021 66.3614 25.1882 65.9069 24.44C65.9069 24.44 64.2918 22.1397 59.8869 22.755C55.475 23.3703 56.0064 27.5934 56.0064 27.5934C56.8734 33.3128 58.3556 35.2916 59.775 36.3403L68.4171 30.5021Z" fill="white" stroke="white" stroke-width="0.97" stroke-miterlimit="10"/>
<path d="M67.9693 31.6211L61.9422 38.8018C61.9422 38.8018 60.7466 37.8299 60.0684 36.5574L67.9623 31.6211H67.9693Z" fill="#FFB494"/>
<path d="M68.2356 89.716C67.2148 92.5547 63.9355 99.1621 63.9355 99.1621L75.4932 104.637C74.4374 103.168 71.1093 97.3302 71.1093 97.3302L72.9272 91.8485C72.9272 91.8485 68.2006 89.7509 68.2286 89.709L68.2356 89.716Z" fill="#FF94CB"/>
<path d="M71.1373 97.3581L75.717 104.588C75.9268 104.909 75.6122 105.322 75.2486 105.189C72.298 104.133 64.3691 101.239 62.2855 100.469C62.0338 100.379 61.9429 100.064 62.1107 99.8472C63.0267 98.6516 65.2711 95.1696 66.0262 94.2047C66.1451 94.0509 66.8443 97.8964 67.8371 97.8755C68.6901 97.8545 71.0744 97.3371 71.1373 97.3511V97.3581Z" fill="#FF8008"/>
<path d="M71.4237 97.7559L69.6337 98.5879C69.2072 98.7837 69.0254 99.2871 69.2212 99.7136C69.417 100.14 69.9204 100.322 70.3469 100.126L72.3536 99.1962" stroke="#FCF8F5" stroke-width="0.39" stroke-miterlimit="10"/>
<path d="M68.1599 89.6738L66.0273 94.2116C66.0273 94.2116 66.6496 96.8965 66.9153 97.0154C67.181 97.1342 70.1666 90.6457 70.1666 90.6457L68.1599 89.6808V89.6738Z" fill="#D44A9C"/>
<path d="M41.6243 60.6016C39.1772 54.3927 45.1063 48.5615 46.5187 46.1143C47.7772 46.1073 50.2384 48.995 52.4618 49.2257C62.3345 50.2675 74.6193 57.5321 77.9335 59.8465C83.1984 63.5172 75.2416 89.3315 73.5146 94.4146C72.9902 94.8271 65.6626 91.3591 66.0402 91.5479C68.1727 80.2909 72.7105 74.9421 67.5015 70.677C62.6281 66.6846 43.8827 66.314 41.6383 60.6086L41.6243 60.6016Z" fill="#E2EDE8"/>
<path d="M96.0775 53.0503L94.5952 49.876C94.0988 48.8062 93.0081 48.135 91.8334 48.163L84.1562 48.3587" stroke="#D4EEFF" stroke-width="2.12" stroke-miterlimit="10" stroke-linecap="round"/>
<path d="M91.8334 48.1699L84.1562 48.3657" stroke="#043A4E" stroke-width="2.12" stroke-miterlimit="10" stroke-linecap="round"/>
<path d="M92.7715 47.2959L100.449 47.4917" stroke="#043A4E" stroke-width="2.12" stroke-miterlimit="10" stroke-linecap="round"/>
<path d="M125.831 84.584L120.168 105.874" stroke="#043A4E" stroke-width="0.92" stroke-miterlimit="10"/>
<path d="M139.324 94.7715L120.264 105.819" stroke="#043A4E" stroke-width="0.92" stroke-miterlimit="10"/>
<path d="M140.548 111.741L119.258 106.077" stroke="#043A4E" stroke-width="0.92" stroke-miterlimit="10"/>
<path d="M130.362 125.236L119.314 106.176" stroke="#043A4E" stroke-width="0.92" stroke-miterlimit="10"/>
<path d="M108.492 87.2275L119.539 106.288" stroke="#043A4E" stroke-width="0.92" stroke-miterlimit="10"/>
<path d="M98.1426 100.596L119.433 106.259" stroke="#043A4E" stroke-width="0.92" stroke-miterlimit="10"/>
<path d="M101.416 117.293L120.476 106.246" stroke="#043A4E" stroke-width="0.92" stroke-miterlimit="10"/>
<path d="M114.783 127.648L120.447 106.357" stroke="#043A4E" stroke-width="0.92" stroke-miterlimit="10"/>
<path d="M136.119 121.828C145.018 112.929 145.018 98.501 136.119 89.6022C127.22 80.7034 112.793 80.7034 103.894 89.6022C94.9951 98.501 94.9951 112.929 103.894 121.828C112.793 130.726 127.22 130.726 136.119 121.828Z" stroke="#A0A0A0" stroke-width="3.5" stroke-miterlimit="10"/>
<path d="M125.131 105.72C125.131 102.888 122.838 100.588 119.999 100.588C117.161 100.588 114.867 102.881 114.867 105.72C114.867 108.559 117.161 110.852 119.999 110.852C122.838 110.852 125.131 108.559 125.131 105.72Z" fill="#A0A0A0"/>
<path d="M123.283 105.721C123.283 103.91 121.815 102.441 120.004 102.441C118.193 102.441 116.725 103.91 116.725 105.721C116.725 107.532 118.193 109 120.004 109C121.815 109 123.283 107.532 123.283 105.721Z" fill="#D4EEFF"/>
<path d="M122.298 105.72C122.298 104.455 121.27 103.427 120.004 103.427C118.739 103.427 117.711 104.455 117.711 105.72C117.711 106.986 118.739 108.013 120.004 108.013C121.27 108.013 122.298 106.986 122.298 105.72Z" fill="#A0A0A0"/>
<path d="M129.541 128.414C142.083 123.152 147.984 108.72 142.722 96.1786C137.461 83.6373 123.029 77.7359 110.487 82.9975C97.9461 88.259 92.0447 102.691 97.3063 115.233C102.568 127.774 117 133.675 129.541 128.414Z" stroke="white" stroke-width="2.82" stroke-miterlimit="10"/>
<path d="M120.006 77.8643C104.624 77.8643 92.1504 90.3379 92.1504 105.72" stroke="#D4EEFF" stroke-width="3.19" stroke-miterlimit="10" stroke-linecap="round"/>
<path d="M38.1986 84.584L32.5352 105.874" stroke="#043A4E" stroke-width="0.92" stroke-miterlimit="10"/>
<path d="M51.6909 94.7715L32.6309 105.819" stroke="#043A4E" stroke-width="0.92" stroke-miterlimit="10"/>
<path d="M52.9155 111.741L31.625 106.077" stroke="#043A4E" stroke-width="0.92" stroke-miterlimit="10"/>
<path d="M42.7289 125.235L31.6816 106.175" stroke="#043A4E" stroke-width="0.92" stroke-miterlimit="10"/>
<path d="M20.8594 87.2275L31.9066 106.288" stroke="#043A4E" stroke-width="0.92" stroke-miterlimit="10"/>
<path d="M10.5098 100.596L31.8002 106.259" stroke="#043A4E" stroke-width="0.92" stroke-miterlimit="10"/>
<path d="M13.7832 117.293L32.8432 106.246" stroke="#043A4E" stroke-width="0.92" stroke-miterlimit="10"/>
<path d="M27.1445 127.648L32.815 106.357" stroke="#043A4E" stroke-width="0.92" stroke-miterlimit="10"/>
<path d="M36.0487 128.21C48.4677 126.174 56.8849 114.456 54.849 102.037C52.8131 89.6177 41.095 81.2006 28.676 83.2365C16.257 85.2724 7.83989 96.9904 9.8758 109.409C11.9117 121.828 23.6297 130.246 36.0487 128.21Z" stroke="#A0A0A0" stroke-width="3.5" stroke-miterlimit="10"/>
<path d="M37.4985 105.72C37.4985 102.888 35.2052 100.588 32.3665 100.588C29.5277 100.588 27.2344 102.881 27.2344 105.72C27.2344 108.559 29.5277 110.852 32.3665 110.852C35.2052 110.852 37.4985 108.559 37.4985 105.72Z" fill="#A0A0A0"/>
<path d="M35.6541 105.721C35.6541 103.91 34.1858 102.441 32.3749 102.441C30.564 102.441 29.0957 103.91 29.0957 105.721C29.0957 107.532 30.564 109 32.3749 109C34.1858 109 35.6541 107.532 35.6541 105.721Z" fill="#D4EEFF"/>
<path d="M34.5339 105.721C34.5339 104.525 33.569 103.561 32.3734 103.561C31.1778 103.561 30.2129 104.525 30.2129 105.721C30.2129 106.917 31.1778 107.882 32.3734 107.882C33.569 107.882 34.5339 106.917 34.5339 105.721Z" fill="#043A4E"/>
<path d="M41.7036 128.511C54.2895 123.357 60.3141 108.975 55.1599 96.3896C50.0058 83.8037 35.6246 77.7791 23.0388 82.9332C10.4529 88.0874 4.42826 102.468 9.58241 115.054C14.7366 127.64 29.1177 133.665 41.7036 128.511Z" stroke="white" stroke-width="2.82" stroke-miterlimit="10"/>
<path d="M60.1959 105.72C60.1959 90.352 47.7363 77.8994 32.375 77.8994" stroke="#D4EEFF" stroke-width="3.19" stroke-miterlimit="10" stroke-linecap="round"/>
<path d="M85.1484 85.5693L87.7005 88.45" stroke="white" stroke-width="2.82" stroke-miterlimit="10"/>
<path d="M67.8711 96.1201C67.8711 96.1201 88.9798 92.6031 98.2511 58.6992" stroke="white" stroke-width="2.82" stroke-miterlimit="10"/>
<path d="M94.9648 53.0497L118.989 106.175C119.178 106.587 119.583 106.832 120.01 106.832C120.164 106.832 120.318 106.797 120.471 106.734C121.031 106.482 121.283 105.818 121.031 105.259L97.0065 52.1338L94.9718 53.0567L94.9648 53.0497Z" fill="#D4EEFF"/>
<path d="M72.2414 106.853L53.7617 67.0898" stroke="#D4EEFF" stroke-width="3.19" stroke-miterlimit="10" stroke-linecap="round"/>
<path d="M59.8724 81.5915L32.373 105.721H70.2484L105.222 73.2012" stroke="#D4EEFF" stroke-width="3.19" stroke-linecap="round" stroke-linejoin="round"/>
<path d="M71.6738 108.398C73.2918 108.398 74.6034 107.087 74.6034 105.469C74.6034 103.851 73.2918 102.539 71.6738 102.539C70.0558 102.539 68.7441 103.851 68.7441 105.469C68.7441 107.087 70.0558 108.398 71.6738 108.398Z" fill="#A0A0A0"/>
<path d="M71.6758 111.643C75.0856 111.643 77.8497 108.879 77.8497 105.469C77.8497 102.059 75.0856 99.2949 71.6758 99.2949C68.2661 99.2949 65.502 102.059 65.502 105.469C65.502 108.879 68.2661 111.643 71.6758 111.643Z" stroke="#A0A0A0" stroke-width="1.38" stroke-miterlimit="10"/>
<path d="M53.8319 66.8101H46.798C45.7353 66.8101 44.8752 65.9501 44.8752 64.8874V63.5449" stroke="#D4EEFF" stroke-width="0.92" stroke-miterlimit="10" stroke-linecap="round"/>
<path d="M55.9624 65.9573H42.5588C40.2795 65.9573 38.4336 64.1114 38.4336 61.832H55.9554C57.0951 61.832 58.018 62.755 58.018 63.8947C58.018 65.0343 57.0951 65.9573 55.9554 65.9573H55.9624Z" fill="#A0A0A0" stroke="#A0A0A0" stroke-width="0.97" stroke-miterlimit="10"/>
<path d="M71.6777 105.469L79.5786 119.005" stroke="white" stroke-width="0.92" stroke-miterlimit="10" stroke-linecap="round"/>
<path d="M86.1364 118.586H74.4249C73.8418 118.586 73.3691 119.059 73.3691 119.642C73.3691 120.225 73.8418 120.697 74.4249 120.697H86.1364C86.7195 120.697 87.1922 120.225 87.1922 119.642C87.1922 119.059 86.7195 118.586 86.1364 118.586Z" fill="#043A4E"/>
<path d="M60.7592 16.3777C60.7592 16.3777 56.8018 8.09231 61.6122 6.14156C66.4227 4.1908 72.5896 8.75655 71.1073 14.9304L60.7592 16.3777Z" fill="#043A4E"/>
<path d="M62.4533 12.1612C62.3764 12.2451 62.2506 12.2451 62.1806 12.1612C61.88 11.8116 61.0759 11.0635 60.083 11.8256C59.0832 12.5947 60.153 13.9651 60.4466 14.6014C60.8661 15.5383 58.8944 18.2232 57.8946 20.5445C57.1744 22.2226 53.3848 25.2012 53.3848 25.2012C53.3848 25.2012 60.4886 29.7809 63.3902 27.8581C63.3902 27.8581 63.7049 21.6353 64.6628 20.4047C64.6837 20.3767 67.1379 21.866 69.9347 17.6988C72.5776 13.7763 69.9836 11.3012 69.3614 10.7978C68.83 10.3713 66.4108 8.04994 62.4533 12.1542V12.1612Z" fill="#FDBCA0"/>
<path d="M63.6131 25.3408C63.5152 25.3408 59.5508 27.2636 59.5508 27.2636C59.5508 27.2636 61.3687 29.1305 63.3963 27.8579L63.6131 25.3408Z" fill="#F3A888"/>
<path d="M61.8098 12.7198C61.5161 12.4191 60.9568 12.2723 60.6561 12.5659C60.3555 12.8596 60.4324 13.4749 60.726 13.7755" fill="#F3A888"/>
<path d="M71.1434 12.6926C71.1434 12.6926 64.7178 14.049 62.1797 12.1542C59.6346 10.2594 65.6687 5.91737 68.6752 8.28065C70.5491 9.75595 71.1504 12.6856 71.1504 12.6856L71.1434 12.6926Z" fill="#043A4E"/>
<path d="M64.6773 20.4183C64.6773 20.4183 63.2439 19.7471 62.4468 18.125C61.9993 17.216 61.9854 21.607 63.9571 22.6488C63.9571 22.6488 64.3137 21.4601 64.6773 20.4183Z" fill="#F3A888" stroke="#F3A888" stroke-width="0.61" stroke-miterlimit="10"/>
<path d="M67.9857 15.1884C67.706 15.2233 68.3632 14.7549 68.6779 14.8318C68.9925 14.9087 69.1953 15.1954 69.1323 15.4681C69.1323 15.4681 68.6569 15.1115 67.9857 15.1884Z" fill="#0E2A35"/>
<path d="M70.8225 15.9786C70.5778 15.7618 70.2072 15.7548 70.0254 15.9646C70.0254 15.9646 70.396 16.0834 70.7036 16.447" fill="#0E2A35"/>
<path d="M68.2433 16.6644C68.1455 16.8672 68.1455 17.0769 68.2433 17.1259C68.3412 17.1748 68.502 17.049 68.6069 16.8392C68.7048 16.6364 68.7048 16.4267 68.6069 16.3777C68.509 16.3288 68.3482 16.4546 68.2433 16.6644Z" fill="#0E2A35"/>
<path d="M69.3123 17.1816C69.2214 17.3773 69.2214 17.5661 69.3123 17.6151C69.4032 17.664 69.557 17.5382 69.6549 17.3494C69.7458 17.1536 69.7458 16.9648 69.6549 16.9159C69.564 16.8669 69.4102 16.9928 69.3193 17.1816H69.3123Z" fill="#0E2A35"/>
<path d="M63.5765 25.8734C63.7583 26.216 64.9469 35.1237 63.2059 38.1093C62.0383 40.116 59.5911 43.3532 56.6545 47.017C56.6545 47.017 51.865 45.8913 46.4043 45.3739C47.1454 42.64 46.649 30.8866 50.3408 25.7125C51.9699 23.4262 54.9554 22.4753 57.5844 23.4611C57.6683 23.4891 57.7382 23.5241 57.8082 23.552C57.8082 23.552 61.2552 29.4463 63.5765 25.8734Z" fill="#FDBCA0" stroke="#FDBCA0" stroke-width="0.8" stroke-linecap="round" stroke-linejoin="round"/>
<path d="M63.5767 25.8722C63.7584 26.2148 64.9471 35.1226 63.2061 38.1081C62.0384 40.1148 61.8986 44.6106 58.962 48.2674C58.962 48.2674 52.0679 45.3588 42.6777 39.4296C43.4329 36.6468 46.0548 29.6129 50.3689 25.1381C52.2287 23.2083 55.0605 22.5161 57.5706 23.453C57.6545 23.481 58.3397 23.8655 58.3956 23.9145C59.4095 24.8514 61.2483 29.4311 63.5697 25.8582L63.5767 25.8722Z" fill="white" stroke="white" stroke-width="0.97" stroke-miterlimit="10"/>
<path d="M87.1241 48.9189C87.1241 48.9189 63.3865 47.8422 60.8064 45.0314C57.2196 41.1299 51.1506 35.6972 50.1367 28.9639C50.1367 28.9639 49.3257 24.7688 53.7376 24.1535C58.1495 23.5382 59.1284 26.6216 59.1284 26.6216C60.7925 32.8514 64.7429 40.0881 66.6517 40.3119L87.0262 45.381C88.2149 45.6467 88.2708 45.0594 89.4734 45.0594C93.6965 45.0594 92.6268 47.3318 93.0253 47.5345C93.6406 47.8492 90.3055 47.15 90.3055 47.15C90.3055 47.15 85.6488 46.8004 87.1311 48.9119L87.1241 48.9189Z" fill="#FDBCA0"/>
<path d="M62.1573 31.2286C62.0804 31.2286 60.1017 25.9147 59.6472 25.1666C59.6472 25.1666 58.032 22.8663 53.6271 23.4815C49.2152 24.0968 49.7466 28.32 49.7466 28.32C50.6136 34.0394 52.0959 36.0181 53.5152 37.0669L62.1573 31.2286Z" fill="white" stroke="#F3F3F3" stroke-width="0.97" stroke-miterlimit="10"/>
<path d="M61.0263 32.1865L55.3489 39.612C55.3489 39.612 54.5658 38.6261 53.8945 37.3536L61.0263 32.1865Z" fill="#FFB494"/>
<path d="M59.801 7.32309C59.801 7.32309 58.9479 -2.24889 51.3827 2.05116C44.5026 5.95965 34.5531 -1.23505 30.1691 5.19054C27.3793 9.28083 22.1983 6.53999 19.9539 8.7844C17.7095 11.0288 16.8145 15.9651 25.0021 15.4058C33.1966 14.8464 32.861 15.4058 34.6579 19.6709C36.4549 23.9359 38.1399 25.3972 44.6494 22.4746C51.1589 19.559 59.801 7.32309 59.801 7.32309Z" fill="#043A4E" stroke="#043A4E" stroke-width="0.61" stroke-miterlimit="10"/>
<path d="M58.0551 6.50534C57.8523 5.42858 57.5167 4.198 56.8385 3.31003C56.2092 2.48498 55.3143 2.48498 54.4333 2.90449C53.2726 3.45686 52.1889 4.1071 50.9653 4.52662C49.7417 4.94613 48.3713 5.16289 47.0498 4.92516C46.7421 4.86923 46.6093 5.34467 46.9169 5.40061C49.0285 5.77817 51.0771 5.14191 52.965 4.22597C53.8669 3.79247 55.3702 2.53391 56.2931 3.43588C57.0762 4.198 57.3839 5.60338 57.5797 6.63819C57.6356 6.94583 58.111 6.81997 58.0551 6.50534Z" fill="#FBFFFF"/>
<path d="M32.1692 6.42867C32.9802 5.05126 35.0009 5.08621 36.3923 5.10019C38.2731 5.12816 40.14 5.39386 42.0278 5.42881C42.3424 5.42881 42.3424 4.94637 42.0278 4.93938C39.8813 4.89044 37.7487 4.55482 35.6022 4.61076C34.2038 4.65271 32.5258 4.84848 31.7427 6.17695C31.5818 6.44963 32.0084 6.70135 32.1692 6.42867Z" fill="#FBFFFF"/>
<path d="M76.6356 106.595C76.7056 109.608 76.0273 116.957 76.0273 116.957L88.7806 117.901C87.2704 116.915 82.0614 112.671 82.0614 112.671L80.2854 106.881C80.2854 106.881 76.6217 106.651 76.6356 106.602V106.595Z" fill="#FDBCA0"/>
<path d="M82.0977 112.671L88.9777 117.768C89.2924 117.991 89.1386 118.488 88.761 118.502C85.6286 118.579 77.1893 118.74 74.9659 118.775C74.7002 118.775 74.5044 118.516 74.5813 118.257C75.0009 116.81 75.8469 112.754 76.2035 111.587C76.2594 111.398 78.3011 114.74 79.21 114.356C79.9931 114.027 82.0348 112.685 82.0977 112.678V112.671Z" fill="#FF8008"/>
<path d="M82.503 112.943L81.1326 114.363C80.8109 114.698 80.8179 115.237 81.1535 115.558C81.4892 115.887 82.0275 115.873 82.3492 115.537L83.8874 113.943" stroke="#FCF8F5" stroke-width="0.39" stroke-miterlimit="10"/>
<path d="M75.4844 106.783L76.1976 111.587C76.1976 111.587 77.7428 113.866 78.0364 113.88C78.3301 113.894 77.561 106.972 77.561 106.972L75.4914 106.783H75.4844Z" fill="#FFB494"/>
<path d="M45.949 45.548C45.949 45.548 40.3065 54.3928 41.0547 57.5881C42.3831 63.2376 50.6476 65.6778 51.2139 66.6147C51.7803 67.5586 66.4494 85.8006 75.6718 109.881L83.5727 109.503C83.5727 109.503 76.9862 76.774 74.1685 72.2572C64.5196 56.826 55.9055 47.0862 55.9055 47.0862L45.949 45.541V45.548Z" fill="#FBFFFF"/>
<path d="M47.3249 46.3867C47.0802 47.0649 46.9264 47.7711 46.8564 48.4843C46.8425 48.6171 46.9823 48.729 47.1012 48.729C47.248 48.729 47.3319 48.6171 47.3459 48.4843C47.4158 47.8131 47.5696 47.1488 47.8004 46.5196C47.8423 46.3937 47.7514 46.2469 47.6256 46.2189C47.4857 46.184 47.3669 46.2679 47.3249 46.3937V46.3867Z" fill="#0E2A35"/>
<path d="M49.3531 46.4498C49.2971 47.2259 49.2342 48.002 49.1783 48.7781C49.1713 48.911 49.2971 49.0228 49.423 49.0228C49.5628 49.0228 49.6607 48.911 49.6677 48.7781C49.7236 48.002 49.7866 47.2259 49.8425 46.4498C49.8495 46.317 49.7236 46.2051 49.5978 46.2051C49.4579 46.2051 49.36 46.317 49.3531 46.4498Z" fill="#0E2A35"/>
<path d="M51.2393 46.8834C51.2812 47.261 51.3371 47.6385 51.3861 48.0091C51.414 48.2189 51.442 48.4286 51.47 48.6314C51.477 48.6803 51.47 48.6104 51.47 48.6664C51.47 48.6873 51.47 48.7083 51.477 48.7293C51.477 48.7712 51.491 48.8132 51.491 48.8481C51.498 48.918 51.5119 48.988 51.5189 49.0649C51.5329 49.1977 51.6238 49.3096 51.7636 49.3096C51.8825 49.3096 52.0223 49.1977 52.0084 49.0649C51.9664 48.6873 51.9105 48.3098 51.8615 47.9392C51.8336 47.7294 51.8056 47.5197 51.7776 47.3169C51.7706 47.2679 51.7776 47.3379 51.7776 47.2819C51.7776 47.261 51.7776 47.24 51.7706 47.219C51.7706 47.1771 51.7567 47.1351 51.7567 47.1001C51.7497 47.0302 51.7357 46.9603 51.7287 46.8834C51.7147 46.7505 51.6238 46.6387 51.484 46.6387C51.3651 46.6387 51.2253 46.7505 51.2393 46.8834Z" fill="#0E2A35"/>
<path d="M53.2891 46.8834C53.387 47.6106 53.4779 48.3377 53.5758 49.0649C53.5898 49.1977 53.6737 49.3096 53.8205 49.3096C53.9394 49.3096 54.0862 49.1977 54.0652 49.0649C53.9673 48.3377 53.8764 47.6106 53.7786 46.8834C53.7646 46.7505 53.6807 46.6387 53.5338 46.6387C53.415 46.6387 53.2682 46.7505 53.2891 46.8834Z" fill="#0E2A35"/>
<path d="M55.1686 47.5401C55.3643 48.1204 55.5531 48.7077 55.7489 49.2881C55.7908 49.4139 55.9167 49.4978 56.0495 49.4629C56.1754 49.4279 56.2663 49.2881 56.2243 49.1622C56.0286 48.5819 55.8398 47.9946 55.644 47.4142C55.6021 47.2884 55.4762 47.2045 55.3434 47.2394C55.2175 47.2744 55.1266 47.4142 55.1686 47.5401Z" fill="#0E2A35"/>
<path d="M56.3658 22.7258C56.3658 22.7258 60.6169 22.4251 62.26 31.5286L54.1074 37.4228" stroke="#F3F3F3" stroke-width="0.7" stroke-miterlimit="10"/>
<path d="M50.6465 50.3727C51.3597 58.9728 57.3867 65.5312 62.4559 72.0058C67.532 78.4873 72.1747 85.4093 75.4749 92.9746C77.3417 97.2607 78.7331 101.743 79.5022 106.357C79.5512 106.672 80.0266 106.539 79.9777 106.224C78.6492 98.2605 75.4329 90.7721 71.3077 83.8711C69.252 80.4381 66.9797 77.1449 64.5744 73.9565C61.9874 70.5235 59.1557 67.2722 56.6805 63.7623C53.8698 59.7769 51.5554 55.302 51.1429 50.3727C51.1149 50.0581 50.6255 50.0581 50.6535 50.3727H50.6465Z" fill="#0E2A35"/>
<path d="M76.007 106.329C76.2517 107.448 76.4964 108.56 76.7411 109.678C76.8111 109.986 77.2865 109.86 77.2166 109.545C76.9719 108.427 76.7272 107.315 76.4824 106.196C76.4125 105.889 75.9371 106.014 76.007 106.329Z" fill="#0E2A35"/>
<path d="M77.5924 106.188C77.8371 107.16 78.0818 108.125 78.3265 109.097C78.4034 109.405 78.8789 109.272 78.802 108.964C78.5573 107.992 78.3125 107.027 78.0678 106.056C77.9909 105.748 77.5155 105.881 77.5924 106.188Z" fill="#0E2A35"/>
<path d="M80.3625 106.265C80.4394 107.37 80.6142 108.468 80.9008 109.544C80.9848 109.852 81.4602 109.719 81.3763 109.412C81.1036 108.384 80.9288 107.328 80.8519 106.265C80.8309 105.951 80.3345 105.951 80.3625 106.265Z" fill="#0E2A35"/>
<path d="M81.9008 105.175C82.0965 106.399 82.3552 107.608 82.6839 108.804C82.7678 109.112 83.2432 108.979 83.1593 108.671C82.8307 107.475 82.572 106.266 82.3762 105.042C82.3552 104.909 82.1944 104.839 82.0756 104.867C81.9357 104.902 81.8798 105.042 81.9008 105.168V105.175Z" fill="#0E2A35"/>
</svg>
