<svg width="267" height="85" viewBox="0 0 267 85" fill="none" xmlns="http://www.w3.org/2000/svg">
<path d="M261.533 31.5146H3.21132C1.75489 31.5146 0.574219 32.6953 0.574219 34.1518V56.7422C0.574219 58.1986 1.75489 59.3793 3.21132 59.3793H261.533C262.989 59.3793 264.17 58.1986 264.17 56.7422V34.1518C264.17 32.6953 262.989 31.5146 261.533 31.5146Z" fill="#402B54"/>
<path d="M265.484 64.0098H1.88867V84.2418H265.484V64.0098Z" fill="#9478A6"/>
<path d="M265.091 59.165H2.26748C1.54913 59.165 0.966797 59.7474 0.966797 60.4657V62.7098C0.966797 63.4281 1.54913 64.0104 2.26748 64.0104H265.091C265.81 64.0104 266.392 63.4281 266.392 62.7098V60.4657C266.392 59.7474 265.81 59.165 265.091 59.165Z" fill="#CBE2D1"/>
<g style="mix-blend-mode:multiply">
<path d="M259.474 43.7991C258.502 43.5776 257.344 43.4704 256.18 43.4704C255.386 43.4704 254.936 43.7849 255.422 44.0064L255.636 44.0993L257.923 45.1213L258.016 45.1641C258.016 45.1641 257.873 45.1356 257.595 45.0855H257.559C257.559 45.0855 257.509 45.0784 257.487 45.0712C257.416 45.0569 257.33 45.0498 257.237 45.0355C257.194 45.0141 257.151 44.9926 257.101 44.9712C257.209 44.9712 257.323 44.9712 257.43 44.9855C256.401 44.4352 254.779 44.1565 254.136 43.4918C253.664 42.9987 253.607 42.4198 253.564 41.9124C253.492 40.9977 254.2 40.0972 254.529 39.2039C254.843 38.332 254.722 37.4744 253.75 36.6525C252.706 35.7735 249.462 35.2089 246.882 35.0303C245.781 34.9516 244.166 34.8659 242.422 34.9302C241.736 34.9016 241.029 34.9088 240.328 34.9445C240.321 34.9445 240.307 34.9445 240.3 34.9445C238.971 35.0231 237.698 35.0445 236.319 35.0445C233.775 35.0445 231.302 34.9874 228.744 34.9874C226.578 34.9874 224.306 35.1517 222.355 35.459C222.054 34.8016 220.911 34.2656 219.339 33.8868C218.431 33.4366 217.03 33.115 215.372 33.0578C213.907 33.0078 212.542 33.1578 211.477 33.4294C210.956 33.4794 210.434 33.5366 209.927 33.6152C201.479 34.923 187.887 37.4815 175.087 35.1732C175.087 35.1732 156.927 27.0832 130.578 37.4458L115.213 43.0916C115.213 43.0916 96.7386 42.7772 73.4692 44.0564L68.1093 44.0779L67.9949 44.0207C66.7514 43.3918 64.8147 42.963 62.635 42.8558C58.6829 42.6628 53.7374 42.8201 53.7374 42.8201C49.2922 42.3269 45.1829 42.1983 42.553 42.184C40.4876 42.1697 38.4222 42.2626 36.4855 42.5127C32.1547 43.0702 33.2409 43.7706 36.0639 44.4066C32.5692 44.428 28.71 44.6424 25.0152 45.2499C23.5787 45.4857 22.4781 45.9431 22.3138 46.4934C22.0994 47.2081 23.4215 48.0657 30.9898 48.0228L47.4055 47.6726L115.741 48.8589C118.021 48.9018 120.294 48.7374 122.338 48.3873C122.738 48.3158 123.181 48.2372 123.646 48.1586C161.601 47.9084 172.285 45.1713 174.565 44.3995L192.053 43.9778C194.483 43.9206 196.87 44.1922 198.528 44.7139C200.243 45.4429 203.43 45.7359 206.26 45.4286L207.325 45.3142C207.597 46.1146 209.548 46.7293 211.906 46.7293L247.375 46.6435H260.989C261.968 46.6435 262.783 46.3791 262.833 46.0432C262.905 45.4357 262.461 44.4852 259.467 43.7991H259.474Z" fill="#ECB8FF"/>
</g>
<path d="M257.988 32.164C257.38 27.6259 253.185 27.8189 250.119 27.1829C246.946 26.5254 243.945 25.9679 240.657 25.7535C235.912 25.4462 231.288 25.3104 226.564 26.5397C222.919 27.483 219.189 29.6913 215.615 30.263C215.279 32.893 215.587 36.3377 215.587 36.3377C215.587 40.2469 213.636 44.592 217.481 45.6569C220.854 46.5931 225.056 45.5354 228.451 45.3353C235.947 44.885 242.88 47.0647 250.126 47.515C251.942 47.6293 253.785 47.5721 255.615 47.5864C258.002 47.6079 258.588 47.9295 258.588 44.6563C258.588 41.0187 258.488 35.8517 257.995 32.1712L257.988 32.164Z" fill="#CBE2D1"/>
<path d="M237.613 41.0839C236.176 40.4621 234.432 40.5193 232.967 41.4055C231.702 42.1773 231.852 42.6918 231.524 44.0926C231.145 45.7363 229.901 46.3009 228.751 46.8011C225.571 48.1876 221.99 48.1804 218.66 48.1804C214.994 48.1804 211.134 48.0447 207.532 47.1585C204.817 46.4938 202.094 46.5582 199.328 46.6082C200.772 45.8792 202.323 45.5862 203.859 45.3933C204.588 45.3004 206.16 45.3647 206.703 44.6357C207.632 43.3994 206.268 43.1564 205.889 42.2702C203.838 37.5248 215.072 39.5545 210.963 35.0307C212.013 33.9801 214.386 34.4875 215.587 34.6733C217.945 35.045 220.303 35.681 222.633 36.217C225.678 36.9174 228.794 37.0603 231.802 37.9822C233.203 38.411 235.14 38.7755 236.276 40.0262" fill="#6F4B91"/>
<path d="M245.802 35.0735C245.109 33.7014 244.415 32.415 244.23 30.9285C244.015 29.2205 243.958 27.5196 243.972 25.8115C243.987 24.2964 244.472 22.8314 244.558 21.3235C244.637 19.9156 244.129 18.3862 243.686 17.0283C243.086 15.1917 241.528 13.8195 240.313 12.2473L237.147 9.91031C235.632 8.78829 233.51 8.25944 231.459 8.60248C231.451 8.60248 231.437 8.60248 231.43 8.60248C230.101 8.83117 228.829 8.89549 227.449 8.89549C224.905 8.89549 222.432 8.73826 219.874 8.73826C214.457 8.73826 208.368 11.7113 208.368 16.4352C208.368 21.3949 207.896 27.1051 201.9 29.8494C199.099 31.1286 195.661 31.9576 193.124 33.5084C192.288 34.0158 191.13 35.924 192.467 36.4814C192.81 36.6244 193.517 36.4099 193.853 36.3599C195.025 36.1741 196.183 35.924 197.383 35.8239C199.385 35.6596 201.528 35.6881 203.508 35.9597C207.746 36.5457 211.519 38.1466 215.765 38.6897C219.988 39.2329 223.955 39.7617 228.25 39.5902C231.516 39.4616 234.689 38.7397 237.94 38.6468C240.663 38.5682 243.365 38.3967 246.102 38.411C246.967 38.411 247.846 38.6325 248.689 38.5611C248.66 37.2318 246.431 36.2956 245.809 35.0735H245.802Z" fill="#043A4E"/>
<path d="M166.202 35.3023C166.202 35.3023 158.019 47.3943 105.327 46.794L44.9885 41.4841C39.9502 41.041 35.0047 39.8189 30.4166 37.6892C25.657 35.4809 21.8335 32.5937 27.5937 30.464C29.5304 29.7493 31.5958 29.4778 33.6612 29.5207C36.2983 29.5707 40.4004 29.9352 44.8456 31.3645C44.8456 31.3645 49.7839 30.9214 53.7431 31.4788C55.9229 31.7861 57.8596 33.0225 59.1031 34.8449L59.2175 35.0092L113.103 34.2874C113.103 34.2874 151.623 18.6078 166.195 21.9167V35.288L166.202 35.3023Z" fill="#6F4B91"/>
<path d="M166.202 9.28877C166.202 9.28877 148.043 -14.0807 121.693 15.8565L106.328 32.1722C106.328 32.1722 81.7795 30.9645 53.6361 36.9819L39.4644 37.8681C39.4644 37.8681 27.065 33.2156 16.1307 38.3826C14.6942 39.0616 13.5936 40.3908 13.4293 41.9774C13.2149 44.0499 14.537 46.5155 22.1052 46.394L38.521 45.3792L106.857 48.7953C109.137 48.9239 111.409 48.4522 113.453 47.4231C122.379 42.935 147.707 29.9997 153.439 24.7969L166.21 24.8898V9.28877H166.202Z" fill="#6F4B91"/>
<path d="M213.285 21.6237C212.964 24.4823 212.52 27.4553 212.092 30.3926C211.663 33.337 209.047 35.724 205.595 36.3171L197.37 38.8685C194.532 39.7475 191.352 38.8971 189.637 36.796C188.129 35.4238 186.021 34.652 183.82 34.652C183.605 34.652 183.384 34.6591 183.162 34.6734L165.01 35.9455L165.431 26.5978L166.203 9.28865C179.01 15.9564 192.603 8.56685 201.05 4.77914C206.26 2.4422 212.699 5.16506 213.478 10.1034C213.993 13.3193 213.771 17.3357 213.285 21.6237Z" fill="#FF9D48"/>
<path d="M218.471 28.4564H210.638C208.301 28.4564 206.4 26.5625 206.4 24.2184C206.4 21.8815 208.294 19.9805 210.638 19.9805H218.471V28.4564Z" fill="#FBA57F"/>
<path d="M229.057 34.8099C223.668 36.5251 216.936 34.2668 214.685 29.2498C214.642 29.1426 214.585 29.0211 214.549 28.8997C213.184 25.1334 216.2 19.6877 220.009 16.4931C220.059 14.6279 220.359 12.5482 222.71 11.3404C224.561 10.3971 227.298 10.2827 227.849 11.8764C228.02 12.3624 227.97 12.9556 227.784 13.5845C233.68 13.3915 240.97 15.9571 242.356 19.9521C242.714 20.9884 242.942 22.0246 242.985 23.0537C243.121 27.2488 240.012 31.3366 229.057 34.8099Z" fill="#FDBCA0"/>
<path d="M229.056 34.8096C223.668 36.5248 216.936 34.2664 214.685 29.2495C214.642 29.1423 214.585 29.0208 214.549 28.8993C218.044 29.1352 224.876 29.2567 224.876 29.2567L225.998 30.3858L227.198 28.6421C234.145 27.5701 240.32 24.5113 242.978 23.0605C243.114 27.2556 240.005 31.3435 229.049 34.8167L229.056 34.8096Z" fill="#FBA57F"/>
<path d="M229.821 20.6736C229.821 20.8022 229.907 20.9237 230.035 20.9737C232.065 21.7884 231.458 23.6394 231.429 23.718C231.365 23.8967 231.465 24.0897 231.643 24.154C231.822 24.2111 232.015 24.1182 232.079 23.9396C232.38 23.0605 232.387 21.181 230.293 20.3377C230.114 20.2662 229.914 20.352 229.842 20.5306C229.821 20.5807 229.814 20.6235 229.821 20.6736Z" fill="#043A4E"/>
<path d="M232.845 29.221C232.787 29.3139 232.78 29.4354 232.845 29.5355C233.838 31.0791 232.516 32.0511 232.459 32.094C232.33 32.1869 232.301 32.3655 232.394 32.4942C232.487 32.6228 232.666 32.6514 232.795 32.5585C233.431 32.1082 234.353 30.8219 233.323 29.221C233.238 29.0852 233.059 29.0495 232.923 29.1353C232.888 29.1567 232.859 29.1853 232.837 29.221H232.845Z" fill="#043A4E"/>
<path d="M224.739 29.6072C224.682 29.4714 224.739 29.3142 224.882 29.257C225.017 29.1998 225.175 29.257 225.232 29.3999C225.232 29.3999 225.446 29.8716 225.754 29.8859C225.896 29.8859 226.282 29.793 226.847 28.7425C226.918 28.6138 227.083 28.5638 227.211 28.6353C227.34 28.7067 227.39 28.8711 227.319 28.9997C226.79 29.9788 226.268 30.4433 225.725 30.4219C225.075 30.3933 224.753 29.6429 224.739 29.6143V29.6072Z" fill="#043A4E"/>
<path d="M228.171 25.3909C227.899 25.3909 227.628 25.3052 227.399 25.1479C227.106 24.9407 226.913 24.6334 226.856 24.2832C226.799 23.933 226.877 23.5757 227.085 23.2827C227.292 22.9897 227.599 22.7967 227.949 22.7324C228.107 22.7109 228.271 22.811 228.292 22.9754C228.321 23.1397 228.214 23.2898 228.049 23.3184C227.857 23.3541 227.685 23.4613 227.571 23.6186C227.456 23.7829 227.413 23.9759 227.449 24.1688C227.485 24.3618 227.592 24.5333 227.749 24.6477C227.914 24.762 228.107 24.8049 228.3 24.7692C228.464 24.7477 228.621 24.8478 228.643 25.0121C228.671 25.1765 228.564 25.3266 228.4 25.3552C228.321 25.3695 228.242 25.3766 228.171 25.3766V25.3909Z" fill="#043A4E"/>
<path d="M229.428 32.2227C228.806 32.2227 228.249 31.7867 228.12 31.1578C227.97 30.436 228.434 29.7214 229.156 29.5713C229.321 29.5427 229.478 29.6427 229.514 29.8C229.549 29.9643 229.442 30.1216 229.285 30.1573C228.885 30.2431 228.627 30.6361 228.713 31.0363C228.799 31.4365 229.192 31.6938 229.592 31.6081C229.757 31.5723 229.914 31.6795 229.95 31.8368C229.985 32.0011 229.878 32.1584 229.721 32.1941C229.628 32.2155 229.535 32.2227 229.442 32.2227H229.428Z" fill="#043A4E"/>
<path d="M223.297 27.9921C223.282 28.6711 222.596 29.2142 221.767 29.1928C220.938 29.1713 220.281 28.6067 220.295 27.9278C220.309 27.2489 220.996 26.7057 221.825 26.7272C222.654 26.7486 223.311 27.3132 223.297 27.9921Z" fill="#043A4E"/>
<path d="M245.251 33.2728C244.779 31.8506 244.722 30.1855 244.679 28.7061C244.608 26.069 245.315 23.4605 245.644 20.8734C245.958 18.3578 245.837 15.8851 244.865 13.5053C243.821 10.9539 240.577 9.33163 237.997 8.82422C235.438 8.31681 230.093 7.58071 226.884 12.812C226.105 14.0841 226.226 15.6064 226.991 16.8427C227.706 17.9862 228.799 18.9867 230.064 19.5299C231.172 20.0087 232.465 19.8014 233.53 20.2016C232.88 21.1736 232.873 22.6458 232.851 23.7821C232.801 26.2191 233.023 27.8199 234.131 30.0711C235.982 33.8374 240.227 35.9242 244.129 37.0391C245.565 37.4464 247.109 37.3392 248.552 37.5751C247.523 35.9814 245.901 35.1881 245.258 33.2728H245.251Z" fill="#043A4E"/>
<path d="M253.949 40.6409C253.913 41.3126 253.527 41.8701 252.977 42.1559C252.713 42.2989 252.42 42.3775 252.105 42.3775H238.491L203.015 42.6276C201.143 42.6276 199.52 41.5199 198.799 39.9048C198.577 39.4116 198.434 38.8685 198.398 38.2968L198.613 35.0022L200.342 8.75267C200.342 6.36571 201.829 4.31463 203.937 3.51421C204.444 3.32125 204.988 3.19975 205.552 3.15687C205.659 3.14973 205.767 3.14258 205.881 3.14258C206.081 3.14258 206.288 3.14973 206.496 3.17117C208.575 3.37128 210.262 4.76486 211.055 6.60869C211.512 7.66639 211.57 8.85987 211.384 9.99618L207.496 33.337C211.548 32.7796 231.023 36.2028 236.84 37.2534C242.143 34.5448 247.167 37.1676 248.611 37.8251C248.632 37.8537 248.653 37.8608 248.682 37.8608L248.718 37.8751C248.989 38.0181 249.132 38.1038 249.132 38.1038L249.039 37.9823L246.752 35.0379L246.538 34.7592C246.045 34.1303 246.502 33.2155 247.288 33.2155C248.453 33.2155 249.611 33.53 250.583 34.166C253.577 36.1385 254.021 38.8828 253.949 40.6409Z" fill="#FDBCA0"/>
<path d="M252.829 42.2807C252.564 42.4236 252.271 42.5023 251.957 42.5023H238.343L202.867 42.7524C200.423 42.7524 198.4 40.8657 198.25 38.4215L198.464 35.127C199.751 37.2566 202.495 39.5364 208.37 39.7437L235.312 39.6508C236.391 39.6508 237.142 38.5645 236.756 37.5497L236.692 37.3781C236.82 37.5282 239.014 39.9009 243.524 40.0295C243.781 40.0367 244.045 40.0367 244.317 40.0295C249.52 39.8795 251.9 41.5446 251.9 41.5446L252.822 42.2736L252.829 42.2807Z" fill="#FBA57F"/>
<path d="M248.609 37.8252C248.609 37.8252 248.659 37.8607 248.68 37.8607L248.624 37.8465L248.609 37.8252Z" fill="#FCC775"/>
<path d="M252.055 38.9177L249.039 37.9815L246.752 35.0371C250.454 35.7303 252.055 38.9177 252.055 38.9177Z" fill="#FBA57F"/>
<path d="M218.131 10.6679C215.394 8.48103 212.399 9.96753 210.991 12.8762C209.841 15.2489 209.119 18.3291 209.712 20.9233C210.012 22.2454 210.477 23.4675 211.056 24.6681L212.442 27.1194C212.206 24.1178 215.051 20.1943 216.952 18.0503C218.874 15.8778 221.183 13.1049 218.131 10.6607V10.6679Z" fill="#043A4E"/>
<path d="M202.945 38.7356L198.65 40.0291C198.429 39.536 198.286 38.9929 198.25 38.4211L198.464 35.1266L200.194 8.87705C200.194 6.49008 201.68 4.439 203.789 3.63858C204.296 3.44562 204.839 3.32413 205.404 3.28125C201.723 4.33895 197.428 32.368 202.945 38.7356Z" fill="#FBA57F"/>
<path d="M188.593 49.1021C187.178 50.5243 186.106 51.4891 185.134 53.3043C183.448 56.4488 184.062 59.5862 183.862 63.038C183.698 65.768 182.876 69.9131 180.153 71.2781C176.423 73.1505 171.263 70.0417 168.276 68.0192C160.664 62.8808 151.159 58.9573 142.126 62.9523C131.871 67.4975 122.208 75.1872 110.345 71.8212C108.487 71.2995 106.293 70.2918 105.836 68.2408C105.457 66.5256 105.778 64.8032 104.249 63.4525C100.44 60.0793 92.8787 65.9038 89.4126 67.4761C82.409 70.6563 74.9765 71.7069 67.2724 71.4067C62.0197 71.1994 59.4111 68.3837 56.4667 64.4602C49.5774 55.2768 34.6839 60.9226 25.5076 62.9951C21.6699 63.8599 18.3896 65.3178 14.3875 65.3178C11.1572 65.3178 6.27606 65.132 3.92483 62.6164C1.21626 59.7077 5.29698 57.0349 6.46188 54.3763C7.06934 52.9899 7.94837 51.2461 7.64821 49.7024C7.36235 48.1945 6.36182 46.9581 6.11169 45.393C5.61143 42.2557 4.78242 38.3393 6.32609 35.3663C7.89834 32.329 11.3073 29.8777 14.7377 30.5138C16.0526 30.7639 17.1889 30.9497 18.2752 31.0283C18.9113 31.0784 19.5259 31.0926 20.1548 31.0569C20.1905 31.0569 20.2191 31.0569 20.2548 31.0569C21.4412 30.9854 22.6704 30.7425 24.1212 30.2708C27.7945 29.0702 31.6108 28.2983 35.3914 27.648C38.5859 27.0977 41.8662 26.7547 45.1108 26.3402C46.4972 26.1615 48.2195 26.04 49.9133 26.09C51.5642 26.14 53.1793 26.3473 54.4371 26.8047C56.1237 27.4264 57.6602 28.6056 59.0967 29.5919C60.4688 30.5352 61.5265 31.8287 62.9487 32.5434C63.449 32.8078 63.9993 32.9937 64.621 33.0651C68.666 33.5154 72.9826 32.6292 76.9561 32.1718C77.8351 32.0717 78.7141 31.9431 79.586 31.8002C82.3446 31.3499 85.0746 30.7853 87.8904 30.6924C90.7705 30.5995 93.6792 30.6924 96.5378 30.5567C96.7236 30.5567 96.9023 30.5424 97.0881 30.5352C102.927 30.2136 107.751 27.5837 111.874 23.7674C113.375 22.3952 114.783 20.8587 116.112 19.215C120.743 13.512 127.09 9.3598 133.214 5.39343C143.956 -1.55308 147.386 -0.0594403 154.554 0.619488C161.701 1.29842 167.311 7.28728 174.229 8.93815C177.559 9.73142 181.268 10.7034 184.706 10.589L186.221 10.4175C184.327 12.0827 183.183 14.9913 183.519 17.5141C184.005 21.2017 187.85 22.6739 188.429 26.09C189.122 30.1922 183.484 32.1289 184.741 36.7885C185.606 39.9902 189.244 41.9912 189.901 45.3501C190.201 46.8581 189.644 48.0516 188.593 49.1093V49.1021Z" fill="#9478A6"/>
<path d="M193.789 39.669C192.746 37.4392 191.331 35.8098 191.302 33.287C191.266 30.4355 193.032 27.9271 193.596 25.1471C194.175 22.2813 193.718 20.3803 192.067 18.0433C190.688 16.0923 189.28 13.9483 189.966 11.4756C190.266 10.3821 191.281 9.45308 191.059 8.30248C188.129 8.18813 185.163 8.28104 182.226 8.28104C179.539 8.28104 175.351 7.46633 175.265 10.8038C172.171 12.6262 170.784 16.6068 173.636 19.9157C175.908 22.5528 180.003 23.5105 180.246 27.5269C180.518 31.922 176.866 34.7235 175.458 38.4898C174.965 39.8119 174.543 42.0059 174.893 43.4352C175.394 45.4363 177.259 46.1081 178.245 47.7018C180.025 50.5818 178.138 53.8407 176.88 56.4278C174.779 60.7515 172.221 67.0691 173.171 71.9502C173.321 72.7006 173.593 74.3801 174.222 74.9089C175.265 75.7951 176.294 74.6588 177.831 74.4301C180.546 74.0228 182.026 75.2091 184.42 76.2525C185.835 76.8671 188.565 77.4603 190.152 77.0172C193.139 76.181 190.044 74.4801 189.966 72.2147C189.744 65.797 193.589 60.2298 195.126 54.2338C196.312 49.6099 195.783 43.9284 193.789 39.6618V39.669Z" fill="#CBE2D1"/>
</svg>
