<svg width="64" height="99" viewBox="0 0 64 99" fill="none" xmlns="http://www.w3.org/2000/svg">
<mask id="mask0_5624_18989" style="mask-type:alpha" maskUnits="userSpaceOnUse" x="0" y="0" width="64" height="99">
<rect x="0.25" width="63" height="98.8615" fill="#D9D9D9"/>
</mask>
<g mask="url(#mask0_5624_18989)">
<g opacity="0.97">
<path d="M36.898 41.3516C36.8716 42.1977 36.8804 43.0482 36.9639 43.8678C36.9331 43.3126 36.9287 42.7485 36.9156 42.1932C36.9112 41.9112 36.9068 41.6336 36.9024 41.3516H36.898Z" fill="#A0A0A0"/>
<path d="M27.0011 86.7879C28.9963 84.5977 30.631 82.0639 31.9143 79.3493C32.0197 79.2215 32.1208 79.0937 32.2263 78.9659C41.6746 81.8832 45.3617 71.9636 45.1332 71.946C42.3118 71.7257 39.8245 71.6551 37.3152 73.1138C35.342 74.2639 33.7688 76.0134 32.5383 77.948C33.6985 75.1893 34.5158 72.2809 34.9861 69.3813C35.0036 69.3769 35.0168 69.3725 35.0344 69.3636C37.2405 68.1077 39.6971 66.4199 40.6199 63.9213C41.5604 61.3786 40.7649 58.0251 40.2376 55.4692C40.2068 55.3282 40.0442 55.3194 39.9871 55.4207C36.2957 59.2105 33.3073 63.3088 34.696 68.6938C33.3029 75.3127 30.5915 80.5568 26.733 85.9682C24.2018 78.1815 23.0899 70.0379 23.837 61.7135C23.9249 60.7132 24.048 59.7217 24.1886 58.7302C24.2369 58.7302 24.2853 58.7125 24.338 58.6817C27.1769 56.9146 29.9235 54.8214 32.4636 52.477C32.5734 52.4153 32.6745 52.3492 32.78 52.2831C37.5261 56.8617 43.7049 52.9485 48.1566 50.0357C48.1654 50.0269 48.1698 50.0181 48.1786 50.0136C48.372 49.9475 48.3808 49.6259 48.1435 49.5509C48.1303 49.5509 48.1171 49.5421 48.1039 49.5377C48.0775 49.5245 48.0556 49.5157 48.0292 49.5113C45.1156 48.5859 42.4305 47.2727 39.3147 47.9998C37.7634 48.3611 36.2693 49.1015 34.9289 50.0489C38.8006 45.9639 42.0174 41.2442 44.0301 36.1016C44.0653 36.1016 44.1048 36.0928 44.1444 36.0707C49.62 33.2724 51.9623 28.5837 51.3163 22.5861C51.3471 22.5376 51.3823 22.4892 51.4086 22.4407C51.4877 22.3085 51.2856 22.1895 51.1889 22.2953C47.7172 26.0718 42.5228 29.1081 44.0916 34.8721C42.4876 37.9392 40.7693 40.8256 38.8841 43.5357C40.6551 38.706 40.6858 34.2816 38.3391 29.1521C38.4051 29.0067 38.2556 28.8789 38.1238 28.9142C38.0886 28.9142 38.0579 28.9318 38.0359 28.9583C38.0359 28.9583 38.0315 28.9583 38.0271 28.9583C35.676 31.6816 34.1599 35.6962 33.9577 39.2965C33.7995 42.1124 35.1223 44.1659 37.0955 46.0035C33.5798 50.5689 29.4489 54.5614 24.3116 57.9149C26.0211 46.6645 30.6266 36.225 34.9729 25.7501C34.9905 25.7413 35.008 25.7369 35.0256 25.7193C37.3416 23.7671 40.5408 22.1631 41.8592 19.2678C43.2874 16.1346 42.6151 12.0628 42.2679 8.76657C42.2723 8.75776 42.1009 8.69166 42.1009 8.73132C39.6224 11.0625 36.9636 13.6536 35.5662 16.8089C34.3532 19.541 34.4455 22.4539 34.5422 25.3712C34.5334 25.3844 34.5246 25.3932 34.5159 25.4064C34.4851 25.4461 34.5158 25.4901 34.5466 25.499C34.551 25.6444 34.5554 25.7942 34.5598 25.9396C33.2985 28.3281 32.112 30.7694 31.0002 33.246C31.1848 30.624 31.4836 27.883 30.82 25.3888C30.0026 22.3305 25.8673 16.8397 25.8409 16.8397C25.819 16.8221 25.7794 16.8397 25.7926 16.8706C25.7926 16.8706 25.7926 16.8706 25.7926 16.875H25.7882C25.7794 16.9455 25.7267 17.1967 25.7355 17.2187C24.7071 23.8596 22.5889 31.4965 30.4509 34.4579C30.4509 34.4667 30.4509 34.4711 30.4509 34.4799C24.9093 47.2418 21.6573 60.9952 23.1734 74.4138C18.3789 66.7284 16.3794 58.4041 15.4873 49.4011C15.5225 49.3835 15.5532 49.3526 15.5708 49.3086C16.7837 46.215 18.0713 42.8086 17.8252 39.4331C17.5923 36.2426 15.918 33.2063 14.582 30.3596C14.5205 30.2318 14.3271 30.1965 14.2568 30.342C12.6308 33.9687 10.8203 37.2385 11.0488 41.35C11.2333 44.6815 13.0439 46.475 15.2236 48.8282C15.2192 48.8415 15.206 48.8503 15.206 48.8679C15.206 48.9208 15.206 48.9781 15.206 49.0309C15.1885 49.0794 15.1753 49.1279 15.1577 49.1764C15.1357 49.2513 15.1577 49.313 15.206 49.357C15.2236 54.1207 15.6982 59.0651 17.043 63.701C15.9971 61.1274 15.3071 58.6156 13.4482 56.4387C11.3608 53.9973 8.82511 51.7675 6.29383 49.8065C6.1532 49.6964 5.98181 49.8947 6.11365 50.0181C6.13123 50.0357 6.1532 50.0533 6.17078 50.0709C6.48719 53.3099 6.75966 57.3729 8.51749 60.2373C10.4028 63.3088 13.9404 64.1901 17.2847 64.6661C17.2979 64.6661 17.3067 64.6661 17.3154 64.6661C18.5591 68.5484 20.4488 72.1751 23.2613 75.251C24.1446 82.1652 26.3068 88.9868 30.0993 95.522C30.2311 95.7468 30.6266 95.5485 30.5124 95.3105C29.1545 92.521 27.9767 89.6699 26.9923 86.7703L27.0011 86.7879ZM36.9373 73.9863C39.6092 72.184 41.8856 72.5409 44.7201 72.3823C43.1644 74.3829 42.2855 76.1324 40.1585 77.4588C37.8557 78.8954 35.0959 78.6883 32.4899 78.6442C33.8391 76.9609 35.1267 75.207 36.9373 73.9863ZM35.0959 68.7159C35.1091 68.6145 35.052 68.5528 34.9817 68.5175C34.7751 65.7545 34.7048 63.5335 36.3132 60.982C37.4339 59.2017 38.7039 57.4963 39.9783 55.8217C40.075 58.1441 40.5364 60.4885 40.1365 62.78C39.6575 65.5121 37.4207 67.385 35.0959 68.7159ZM47.392 26.8562C48.6884 25.5739 50.0419 24.4634 51.0658 22.9695C50.6484 25.5474 50.8637 28.0064 49.453 30.364C48.2489 32.3691 46.5087 33.8585 44.5531 35.0704C44.0257 31.7918 45.0453 29.1786 47.392 26.8562ZM36.9636 43.8618C36.9856 44.2717 37.0296 44.6771 37.0999 45.0781C35.8254 42.9937 35.175 40.6449 35.3508 38.1595C35.5662 35.1101 37.2493 32.5674 38.0842 29.6986C38.0842 29.7382 38.0843 29.7735 38.0886 29.8132C37.3943 32.4131 37.0691 35.1321 36.9373 37.8114C36.8801 38.988 36.8801 40.169 36.8977 41.3456C36.9373 40.1293 37.0427 38.9219 37.1043 37.8114C37.2405 35.2555 37.5964 32.7613 38.1106 30.267C38.2425 32.7436 38.7698 35.1718 38.6204 37.6704C38.4666 40.2659 37.9129 42.8086 37.28 45.3249C37.2449 45.2852 37.2141 45.2456 37.179 45.2059C37.0779 44.7696 37.0076 44.3201 36.9636 43.8618ZM39.6004 36.4629C39.7893 39.6446 38.4534 42.553 37.4119 45.4835C37.3899 45.4571 37.3679 45.435 37.3504 45.4086C37.9524 42.932 38.5852 40.4422 38.7566 37.8951C38.9324 35.2687 38.5633 32.6114 38.1677 30.0115C38.1765 29.9674 38.1853 29.9233 38.1941 29.8793C38.6863 32.0562 39.4729 34.2507 39.6004 36.4629ZM35.0476 36.7097C35.6497 34.2287 36.7483 32.1796 37.8997 29.9938C36.8713 32.9067 35.2322 35.5419 35.175 38.7236C35.1399 40.7286 35.6013 42.769 36.5989 44.5052C34.8059 42.1961 34.217 40.1426 35.0476 36.7097ZM39.5037 48.7004C42.2987 48.0527 44.7113 49.2689 47.348 49.8815C45.1595 51.3357 42.9315 53.0675 40.3299 53.539C37.6668 54.0238 35.4695 53.2262 33.2107 52.0319C35.2454 50.754 37.0823 49.2645 39.5037 48.7004ZM36.4495 16.6106C37.7151 13.7903 39.6487 11.6133 41.6746 9.38351C38.6511 13.376 36.5198 18.1045 35.2717 22.9607C35.4783 20.8366 35.5046 18.7214 36.4495 16.6106ZM35.0168 24.8291C35.0652 24.5735 35.1047 24.3224 35.1443 24.0668C36.4055 18.7875 38.6863 14.0414 41.7274 9.57741C39.1126 14.3984 37.0471 19.4661 35.197 24.622C35.1355 24.6925 35.0784 24.7586 35.0168 24.8291ZM35.2541 24.5515C37.1262 19.2811 39.4949 14.2045 41.9822 9.20284C41.4857 12.0099 41.3011 14.9801 40.2464 17.6373C39.1961 20.2858 37.1174 22.4054 35.2497 24.5515H35.2541ZM40.2903 17.9326C41.4373 15.1916 41.7186 11.9703 42.0965 9.03538C42.0877 12.0011 42.2371 16.2007 41.0638 18.9065C39.9476 21.4756 37.3811 23.0444 35.2585 24.7586C37.1394 22.6742 39.2093 20.5149 40.2947 17.9326H40.2903ZM25.9728 17.4831C25.9728 17.439 25.9728 17.3994 25.9728 17.3553C27.2384 19.8627 28.9259 21.9824 29.8312 24.7939C30.6662 27.3806 30.6135 30.6064 30.5431 33.4267C30.464 31.8491 30.2487 30.2715 29.9279 28.7335C29.9279 28.7115 29.8927 28.7203 29.8971 28.7423C30.152 30.4037 30.3058 32.0562 30.4025 33.7263C29.2467 31.122 27.8229 28.6322 27.067 25.8647C26.3815 23.3573 25.92 20.4885 25.9596 17.8489C27.278 21.2332 29.2907 24.2122 29.7565 27.9359C29.361 24.3003 27.5548 20.7529 25.964 17.4831H25.9728ZM26.1266 21.7356C26.32 23.1369 26.5485 24.5383 26.922 25.9044C27.6911 28.7115 29.049 31.4436 30.4113 34.0128C28.2887 32.087 26.6671 29.7426 25.9816 26.9135C25.3575 24.3444 25.5992 21.6475 25.7926 19.0034C25.8585 19.92 26.0079 20.841 26.131 21.7356H26.1266ZM25.1949 25.3624C25.1686 24.1505 25.2828 22.9519 25.4278 21.7532C25.3444 23.6966 25.4454 25.6312 26.0343 27.4996C26.8385 30.0423 28.3327 32.4087 30.4245 34.0745C30.4245 34.1318 30.4333 34.189 30.4333 34.2463C27.1286 32.0826 25.2916 29.4386 25.1949 25.3624ZM11.7915 40.7639C11.7431 37.5382 14.3887 31.2145 14.3887 31.2145C14.5556 31.3114 16.9068 37.7144 17.0737 39.0188C17.478 42.1608 16.3003 45.6818 15.3203 48.7048C13.9668 45.8625 11.8442 44.2717 11.7915 40.7639ZM8.2626 58.2631C7.2958 55.716 7.03212 52.9309 6.39051 50.2869C8.6713 52.3845 11.062 54.3939 13.0879 56.7471C15.0127 58.9858 15.6323 61.6607 17.0298 64.1417C13.2461 63.3352 9.77434 62.2379 8.2626 58.2631Z" fill="#A0A0A0"/>
<path d="M48.6792 29.7403C49.7251 27.6648 50.4414 25.3821 50.9731 23.1214C51.0259 23.0465 51.083 22.9716 51.1357 22.8923C51.1533 22.8658 51.1094 22.8306 51.0874 22.857C51.0566 22.8879 51.0303 22.9231 50.9995 22.954C50.9863 22.9231 50.9424 22.9187 50.9204 22.9452C50.9072 22.9407 50.894 22.9452 50.8853 22.954C50.8062 23.0818 50.7358 23.2096 50.6567 23.3374C47.6508 26.7173 45.0712 30.5159 44.3593 35.0461C44.2802 35.1298 44.2011 35.2135 44.122 35.2972C44.1132 35.3105 44.1264 35.3237 44.1396 35.3149C44.2099 35.24 44.2802 35.165 44.3549 35.0901C44.3329 35.2488 44.3022 35.403 44.2846 35.5617C44.2846 35.5837 44.3154 35.5925 44.3197 35.5705C44.3417 35.3942 44.3725 35.2223 44.3988 35.0461C44.4516 34.9888 44.5043 34.9359 44.5571 34.8786C44.5219 34.9844 44.4867 35.0857 44.456 35.1915C44.4384 35.2488 44.5219 35.2664 44.5395 35.2135C44.6186 35.024 44.6977 34.8345 44.7768 34.645C46.2402 33.1247 47.7124 31.6617 48.6792 29.7403ZM50.793 23.377C50.1909 25.5143 49.5537 27.678 48.5605 29.6698C47.6245 31.5427 46.2314 33.0763 44.8075 34.5789C46.4335 30.7803 48.6748 27.3034 50.5908 23.6502C50.6567 23.5577 50.727 23.4696 50.793 23.377ZM44.4032 35.002C44.7768 32.7501 45.5239 30.6129 46.7807 28.6871C47.7651 27.1756 48.9385 25.8095 50.0371 24.3862C49.0791 26.0343 48.1694 27.7132 47.2421 29.379C46.2622 31.1417 45.1943 32.9 44.5746 34.8257C44.5175 34.883 44.4604 34.9447 44.4032 35.002Z" fill="#A0A0A0"/>
<path d="M47.914 49.9344C47.7777 49.9036 47.6415 49.8728 47.5053 49.8463C47.5053 49.8375 47.4921 49.8287 47.4789 49.8287C47.4569 49.8287 47.435 49.8287 47.413 49.8287C47.4042 49.8287 47.3954 49.8287 47.3866 49.8243C47.413 49.8022 47.435 49.7802 47.4613 49.7538C47.4701 49.745 47.4613 49.7273 47.4482 49.7361C47.4086 49.7626 47.3734 49.789 47.3339 49.8111C45.0487 49.3175 42.6976 48.9341 40.3641 49.2734C37.9339 49.6304 35.3674 50.7144 33.1965 51.8998C33.0779 51.847 32.9592 51.7941 32.8406 51.7368C32.8318 51.7368 32.823 51.7456 32.8318 51.75C32.946 51.8073 33.0603 51.8602 33.1745 51.9131C33.157 51.9219 33.1394 51.9307 33.1218 51.9439C33.0647 51.9615 33.0075 51.9792 32.9504 52.0012C32.9284 52.01 32.9328 52.0365 32.9504 52.0409C32.9504 52.0409 32.9504 52.0409 32.946 52.0409C32.9197 52.0541 32.946 52.0893 32.968 52.0805C33.0647 52.0409 33.157 51.9968 33.2536 51.9527C35.429 52.9398 37.802 53.31 40.1839 52.9575C41.4451 52.768 42.6537 52.3582 43.8138 51.8337C44.9564 51.3182 46.3231 50.7717 47.2812 49.9212C47.4833 49.9653 47.6855 50.0094 47.8832 50.0534C47.9535 50.0711 47.9843 49.9565 47.914 49.9433V49.9344ZM40.3817 49.4233C42.4955 49.106 44.618 49.3792 46.7011 49.7978C42.3065 49.6789 37.8811 50.4104 33.6975 51.7456C35.8465 50.7894 38.0613 49.767 40.3817 49.4189V49.4233ZM33.28 51.9351C33.28 51.9351 33.302 51.9263 33.3108 51.9219C37.8108 50.4721 42.4207 49.8772 47.1405 49.8904C47.1581 49.8904 47.1801 49.8992 47.1977 49.9036C43.0272 52.7239 38.0086 53.9754 33.28 51.9395V51.9351Z" fill="#A0A0A0"/>
<path d="M35.1878 68.6823C35.1878 68.6823 35.201 68.6691 35.2098 68.6602C35.2054 68.6823 35.201 68.7043 35.1966 68.7307C35.1922 68.7528 35.2273 68.7616 35.2317 68.7396C35.2405 68.6999 35.2493 68.6558 35.2537 68.6162C36.7786 67.0033 38.2552 65.2538 39.0418 63.1606C39.8944 60.8912 39.9559 58.4498 39.9383 56.0526C39.9779 55.9953 40.013 55.9424 40.0526 55.8851C40.0658 55.8631 40.0306 55.8366 40.013 55.8542C39.9867 55.8895 39.9603 55.9204 39.9383 55.9556C39.9383 55.9292 39.9383 55.9027 39.9383 55.8763C39.9383 55.8587 39.9164 55.8631 39.9164 55.8763C39.9164 55.9159 39.9164 55.9556 39.912 55.9997C39.8548 56.0746 39.8021 56.1495 39.745 56.22C39.8065 56.0702 39.8724 55.9248 39.9295 55.7749C39.9383 55.7573 39.912 55.7397 39.9032 55.7573C39.7669 56.0085 39.6395 56.2685 39.5164 56.5241C36.8797 60.0979 34.9944 64.1257 35.0779 68.6735C34.9725 68.7924 34.8626 68.907 34.7571 69.026C34.722 69.0657 34.7791 69.1185 34.8142 69.0833C34.9021 68.9907 34.9944 68.8982 35.0823 68.8057C35.0823 68.9114 35.0823 69.0172 35.0867 69.1229C35.0867 69.1934 35.1966 69.1934 35.1966 69.1229C35.1966 68.9775 35.1966 68.8321 35.1966 68.6823H35.1878ZM36.3611 62.222C37.0423 60.3447 38.1541 58.6481 39.2835 57C38.6243 58.4234 38.075 59.8908 37.5213 61.3627C37.5169 61.3759 37.5389 61.3847 37.5433 61.3671C38.1717 59.7278 38.9144 58.1369 39.6043 56.5241C39.701 56.3831 39.7977 56.242 39.8944 56.101C39.7845 58.3132 39.7098 60.5783 39.0243 62.6979C38.2948 64.9542 36.8314 66.7125 35.2801 68.4311C35.6228 66.5891 36.2205 64.7955 36.9061 63.0549C36.1238 64.8087 35.636 66.6067 35.2449 68.4752C35.2273 68.4972 35.2054 68.5192 35.1878 68.5413C35.2142 66.4172 35.6448 64.205 36.3611 62.222Z" fill="#A0A0A0"/>
<path d="M44.8482 72.334C44.8745 72.3163 44.8701 72.2811 44.8482 72.2679C44.8789 72.2326 44.9053 72.1974 44.9361 72.1621C44.958 72.1313 44.9185 72.0916 44.8921 72.118C44.8438 72.1753 44.791 72.2326 44.7383 72.2855C44.6548 72.3119 44.5713 72.3384 44.4878 72.3604C42.3477 72.6689 40.1679 73.0875 38.186 73.9733C36.1689 74.8767 34.5956 76.3221 33.0883 77.8865C32.851 78.0583 32.618 78.2302 32.3895 78.4065C32.3719 78.4197 32.3939 78.4549 32.4159 78.4417C32.5389 78.358 32.662 78.2831 32.785 78.1993C32.7367 78.2478 32.6928 78.2963 32.6444 78.3448C32.6444 78.3448 32.6444 78.3536 32.6488 78.3492C32.7235 78.2787 32.8026 78.2082 32.8773 78.1376C36.4545 75.7844 40.2163 74.0438 44.2197 72.5631C44.3252 72.5455 44.4263 72.5235 44.5318 72.5058C43.0552 74.1099 41.3589 75.498 39.4384 76.538C37.0873 77.8115 34.7802 78.2743 32.161 78.5783C32.139 78.5783 32.139 78.6092 32.161 78.6092C36.9072 78.759 41.6401 76.0533 44.6592 72.4794C44.7163 72.4706 44.7735 72.4574 44.8306 72.4485C44.9009 72.4353 44.8921 72.356 44.8438 72.3208L44.8482 72.334ZM33.3519 77.7058C34.8461 76.3177 36.4018 74.9692 38.2783 74.1319C39.8955 73.4092 41.6182 73.0523 43.3496 72.7306C39.8296 73.916 36.3798 75.5597 33.3519 77.7058Z" fill="#A0A0A0"/>
<path d="M15.4516 48.918C15.4516 48.8739 15.4472 48.8342 15.4428 48.7902C15.478 48.7725 15.4999 48.7285 15.4824 48.6844C15.4648 48.6447 15.4472 48.6095 15.434 48.5698C15.2978 45.8288 14.8188 43.1363 14.5507 40.4041C14.2695 37.4913 14.3573 34.5696 14.3617 31.6479C14.4233 31.3791 14.4848 31.1103 14.5375 30.8415C14.5551 30.749 14.4277 30.7181 14.3969 30.8063C13.8564 32.4632 13.5092 34.195 13.1752 35.9004C12.8983 37.315 12.6303 38.756 12.7094 40.2058C12.8676 43.1143 14.0541 46.177 15.3505 48.7593C15.3637 48.7813 15.3813 48.7946 15.3989 48.799C15.3989 48.8386 15.4033 48.8783 15.4077 48.918C15.4077 48.9444 15.4516 48.9444 15.4516 48.918ZM12.9203 39.7519C12.9071 37.0638 13.7157 34.4154 14.3222 31.8022C14.186 34.6666 14.1464 37.5486 14.4189 40.4041C14.6738 43.0922 15.2099 45.7451 15.3769 48.442C14.1991 45.7495 12.9335 42.7265 12.9203 39.7519Z" fill="#A0A0A0"/>
<path d="M15.5392 49.0014C15.6578 46.0709 16.7916 43.3828 16.5323 40.4082C16.3126 37.8832 15.7897 35.3273 14.7745 33.0005C14.7657 32.9829 14.735 32.9961 14.7438 33.0137C15.7633 35.5212 16.2994 38.3371 16.4313 41.034C16.5675 43.7397 15.5743 46.3089 15.4776 48.997C15.4776 49.0366 15.5392 49.0366 15.5436 48.997L15.5392 49.0014Z" fill="#A0A0A0"/>
<path d="M17.9399 63.9998C17.6411 63.9778 17.3422 63.9293 17.039 63.8764C16.9643 63.8236 16.8896 63.7707 16.8105 63.7178C15.3031 61.5144 13.9935 59.2053 12.2972 57.1297C10.4164 54.8206 8.57063 52.4101 6.48321 50.2816C6.46563 50.264 6.43926 50.2905 6.45684 50.3081C8.2718 52.5026 10.1175 54.6708 11.9237 56.8697C13.6464 58.9673 14.9428 61.3073 16.5029 63.5019C14.3539 61.9507 12.4071 60.2056 10.7591 58.1036C8.89144 55.724 7.67414 53.0711 6.44805 50.3345C6.43926 50.3169 6.4085 50.3301 6.41729 50.3478C6.45244 50.4755 6.49639 50.5989 6.53155 50.7267C6.45244 50.5196 6.36895 50.3125 6.27227 50.1098C6.2459 50.0525 6.14922 50.0922 6.17119 50.1539C7.14679 53.124 7.35333 56.6185 9.30453 59.1656C11.1371 61.5585 13.9013 63.4798 16.894 64.0483C16.9335 64.1012 16.9731 64.1585 17.0126 64.2114C17.0566 64.2686 17.1533 64.2114 17.1093 64.1541C17.0917 64.1276 17.0742 64.1012 17.0522 64.0747C17.0961 64.0836 17.1445 64.088 17.1884 64.0968C17.2192 64.1144 17.2499 64.1364 17.2807 64.1585C17.3115 64.1761 17.3378 64.1497 17.3378 64.1232C17.5356 64.1541 17.7333 64.1805 17.9355 64.1937C18.0541 64.2025 18.0498 64.0175 17.9355 64.0086L17.9399 63.9998ZM16.7314 63.8192C13.5717 63.1493 10.5042 60.9239 8.88265 58.1918C7.72248 56.2396 7.51154 53.9525 6.8919 51.8064C8.64974 56.5965 12.5082 61.0033 16.6962 63.7619C16.7094 63.7795 16.7226 63.7971 16.7314 63.8147V63.8192Z" fill="#A0A0A0"/>
<path d="M33.2105 123.753C33.2105 125.343 26.6054 125.489 26.6054 125.489C26.6054 125.489 20.0003 125.339 20.0003 123.753C20.0003 122.166 16.265 85.6211 17.034 85.6211H36.1856C36.9547 85.6211 33.2105 122.162 33.2105 123.753Z" fill="#A0A0A0"/>
</g>
</g>
</svg>
