<svg width="95" height="92" viewBox="0 0 95 92" fill="none" xmlns="http://www.w3.org/2000/svg">
<g style="mix-blend-mode:multiply" opacity="0.33">
<path d="M47.3035 91.1978C73.2311 91.1978 94.2496 90.0235 94.2496 88.5749C94.2496 87.1264 73.2311 85.9521 47.3035 85.9521C21.3759 85.9521 0.357422 87.1264 0.357422 88.5749C0.357422 90.0235 21.3759 91.1978 47.3035 91.1978Z" fill="#6F4B91"/>
</g>
<path d="M51.9722 11.4122C53.9375 10.6761 52.1723 9.79711 50.9502 9.43978C49.9568 9.15391 47.4698 8.67509 48.4917 6.98134C49.5637 5.20898 50.5643 7.41013 51.4076 7.66741C53.2871 8.23199 51.3433 5.85932 50.8787 5.22327C50.2427 4.35853 48.9063 2.58617 50.5714 2.30031C51.9221 2.07162 53.3014 3.95833 53.8589 4.89453C54.2519 5.56631 55.2096 8.69653 56.2387 8.01046C57.0105 7.48875 56.2387 4.35854 58.0611 6.60257C58.8043 7.51734 58.6757 8.97525 59.0044 10.0187C59.4904 11.548 59.6905 12.1769 61.0484 11.7982C61.7487 11.598 61.7773 10.719 62.6421 11.3193C63.0851 11.6266 63.2066 13.0345 63.1995 13.5276C63.1352 18.0157 61.3199 21.0101 60.4695 21.3961C59.3189 21.9106 57.1963 21.1388 56.2173 20.5742C55.7313 20.2883 54.8451 19.8238 54.9166 19.1163C54.9952 18.323 56.2172 18.4445 56.2673 17.9728C56.4031 16.6507 53.9589 17.9014 53.28 17.7084C52.4081 17.4583 50.9645 15.886 51.8935 15.0642C51.9864 14.9784 55.8027 14.7283 53.6302 13.4991C52.4295 12.8201 51.1217 14.6782 49.964 13.3418C48.2988 11.4265 51.2432 11.691 51.9793 11.4194L51.9722 11.4122Z" fill="#9478A6"/>
<path d="M52.2948 12.1199C53.1381 11.7697 54.01 11.4552 54.9319 11.3838C54.2887 10.5762 53.6241 9.76862 53.1381 8.8753C53.0023 8.62517 53.4168 8.45364 53.5526 8.70377C53.6098 8.81097 53.6741 8.91818 53.7384 9.02538C53.8099 8.75381 53.7313 8.34645 53.7027 8.1249C53.6384 7.56032 53.4311 7.05291 53.2096 6.53121C53.0952 6.26678 53.5097 6.09526 53.6241 6.35969C53.9099 7.03147 54.1315 7.67467 54.1744 8.41077C54.1958 8.7681 54.2172 9.16117 54.0028 9.46132C54.6889 10.4976 55.5465 11.4481 56.2612 12.4557C56.5756 11.9698 56.8043 11.4624 56.9115 10.8764C57.033 10.2474 56.9544 9.60426 57.0258 8.96821C57.0544 8.68234 57.5047 8.73952 57.469 9.02538C57.3832 9.79007 57.4689 10.5405 57.276 11.298C57.1259 11.8626 56.8615 12.37 56.5399 12.8488C57.3617 14.0566 58.1264 15.3144 58.7482 16.6365C58.9554 17.0796 59.1412 17.5227 59.3271 17.9729C59.7487 17.3512 60.0989 16.7008 60.3419 15.9862C60.4777 15.586 60.6278 15.1643 60.6849 14.7498C60.7278 14.4354 60.6992 14.1352 60.8207 13.835C60.935 13.5706 61.3496 13.735 61.2352 14.0066C61.078 14.371 61.128 14.8499 61.028 15.2429C60.9351 15.6217 60.8136 16.0005 60.6778 16.3649C60.4062 17.1153 59.9989 17.7943 59.5415 18.4446C59.5415 18.4518 59.5272 18.4589 59.52 18.4661C59.8273 19.245 60.1275 20.024 60.4705 20.7887C60.4991 20.8101 60.5206 20.8387 60.542 20.8816C60.5777 20.9674 60.6421 21.0817 60.6635 21.1889C61.2781 22.7612 61.8927 24.3334 62.4787 25.9128C62.5788 26.1844 62.1643 26.3559 62.0642 26.0843C61.4782 24.5121 60.8636 22.9398 60.249 21.3747C60.249 21.3747 60.2418 21.3676 60.2347 21.3533C60.0417 20.9459 59.8559 20.5243 59.6844 20.1026C58.8697 20.3027 57.9621 20.0597 57.2045 19.7524C56.9401 19.6452 57.1045 19.2307 57.376 19.3379C58.0335 19.6095 58.7982 19.8168 59.5129 19.681C59.127 18.7162 58.7625 17.7442 58.3265 16.8009C58.1479 16.4293 57.9621 16.0576 57.7691 15.7003C57.7548 15.7075 57.7405 15.7218 57.7262 15.7289C56.6114 16.172 55.4107 16.3435 54.2244 16.1506C53.9385 16.1005 53.9957 15.6574 54.2816 15.7075C55.3964 15.8933 56.5042 15.736 57.5476 15.3144C56.9401 14.2424 56.2612 13.2133 55.5465 12.2199C55.425 12.0484 55.2964 11.884 55.1677 11.7125C55.1392 11.7768 55.0891 11.8197 55.0034 11.8269C54.11 11.8912 53.2739 12.1985 52.4592 12.5344C52.1948 12.6416 52.0161 12.2342 52.2877 12.1199H52.2948Z" fill="#ECB8FF"/>
<path d="M72.7826 12.102C70.7671 11.518 72.4582 10.5059 73.6585 10.0572C74.6259 9.69404 77.0766 9.0349 75.9245 7.4226C74.7236 5.73524 73.8949 8.00851 73.0728 8.32825C71.2377 9.03534 73.0012 6.51937 73.4185 5.85128C73.9841 4.93838 75.1871 3.07008 73.5004 2.91523C72.1389 2.78969 70.9034 4.77851 70.4191 5.75149C70.0743 6.45062 69.3577 9.6451 68.2832 9.03287C67.4695 8.56946 68.0065 5.39177 66.3593 7.76746C65.6895 8.73786 65.926 10.181 65.6753 11.2476C65.3071 12.8029 65.1527 13.4504 63.7734 13.1772C63.0552 13.0334 62.9674 12.1577 62.1537 12.823C61.7337 13.1649 61.7185 14.5777 61.7641 15.0652C62.1684 19.5385 64.2062 22.3838 65.0757 22.6987C66.2583 23.1256 68.3177 22.1985 69.249 21.556C69.713 21.2379 70.561 20.7047 70.4391 19.9975C70.3037 19.2098 69.0915 19.4247 69.0067 18.9648C68.7726 17.6529 71.3008 18.7165 71.9607 18.4716C72.8114 18.1592 74.1299 16.4831 73.146 15.733C73.0429 15.6531 69.2205 15.6939 71.2943 14.3036C72.4406 13.5335 73.8888 15.2893 74.937 13.8734C76.4489 11.8389 73.5365 12.3301 72.7792 12.1083L72.7826 12.102Z" fill="#9478A6"/>
<path d="M72.5168 12.8357C71.6463 12.5528 70.7525 12.2979 69.8348 12.2981C70.4115 11.4399 71.0168 10.589 71.4392 9.6557C71.556 9.39393 71.1287 9.25271 71.0119 9.51448C70.9605 9.62479 70.9057 9.74141 70.848 9.84833C70.7572 9.5801 70.8084 9.1692 70.8153 8.94558C70.8362 8.38025 71.006 7.85474 71.1855 7.32633C71.2773 7.05099 70.85 6.90978 70.7583 7.18512C70.5224 7.87805 70.3549 8.53474 70.364 9.27047C70.3719 9.63205 70.3788 10.0256 70.6099 10.3046C70.0006 11.3888 69.2176 12.4036 68.5836 13.4583C68.2335 12.9933 67.9672 12.5086 67.8124 11.9378C67.643 11.3185 67.6697 10.6671 67.5516 10.0431C67.4996 9.76324 67.0619 9.85194 67.114 10.1318C67.2566 10.8908 67.2298 11.6478 67.4819 12.3847C67.6692 12.9406 67.9708 13.42 68.334 13.8758C67.604 15.1385 66.9426 16.4545 66.4173 17.8195C66.2465 18.2714 66.0946 18.7336 65.9428 19.1957C65.4718 18.6086 65.0754 17.9888 64.7774 17.292C64.6136 16.9032 64.4281 16.4945 64.3418 16.0825C64.2748 15.7703 64.2842 15.4668 64.1363 15.184C64.0068 14.9273 63.6073 15.1259 63.7368 15.3826C63.921 15.7337 63.9089 16.2225 64.0379 16.6007C64.1639 16.9691 64.3059 17.3381 64.4706 17.6949C64.7996 18.4246 65.2526 19.0751 65.7613 19.6825C65.7739 19.6893 65.7802 19.6927 65.7865 19.696C65.5409 20.4974 65.2953 21.2987 65.012 22.0797C64.9824 22.1044 64.9655 22.1358 64.9514 22.177C64.9261 22.2689 64.8714 22.3855 64.8553 22.4905C64.367 24.1029 63.869 25.7182 63.3996 27.3407C63.3176 27.6132 63.7415 27.7607 63.8269 27.482C64.2929 25.8657 64.7875 24.2567 65.2821 22.6477C65.2855 22.6414 65.2889 22.6351 65.2923 22.6288C65.4557 22.2055 65.6066 21.7753 65.7449 21.3383C66.572 21.476 67.4547 21.1645 68.1888 20.7973C68.4454 20.6678 68.2468 20.2683 67.9902 20.3978C67.3534 20.7201 66.6097 20.9847 65.8832 20.9014C66.1987 19.9103 66.4856 18.912 66.8485 17.9384C66.9916 17.5528 67.157 17.171 67.3189 16.7956C67.3378 16.8057 67.3504 16.8125 67.3693 16.8227C68.5156 17.1814 69.7217 17.2637 70.8914 16.9772C71.1717 16.9091 71.083 16.4715 70.8027 16.5395C69.7071 16.8092 68.5871 16.7327 67.5168 16.3988C68.0375 15.2831 68.6401 14.2115 69.2804 13.1602C69.3913 12.9846 69.5057 12.8027 69.6167 12.6271C69.6501 12.6857 69.7062 12.7322 69.7957 12.7318C70.6912 12.7277 71.5438 12.9685 72.3858 13.2441C72.6612 13.3358 72.8024 12.9085 72.527 12.8168L72.5168 12.8357Z" fill="#ECB8FF"/>
<path d="M67.9576 24.4412C67.9576 24.6413 67.8718 24.8271 67.7432 24.9557C67.6074 25.0915 67.4287 25.1701 67.2286 25.1701L56.4158 25.1844C56.0156 25.1844 55.6797 24.8557 55.6797 24.4555C55.6797 24.2554 55.7655 24.0695 55.8941 23.9338C56.0227 23.798 56.2086 23.7194 56.4087 23.7194L67.2215 23.7051C67.6217 23.7051 67.9576 24.0338 67.9576 24.4412Z" fill="#ECB8FF"/>
<path d="M64.769 33.0884C64.769 33.2885 64.6833 33.4743 64.5547 33.6101C64.4189 33.7459 64.2402 33.8245 64.0401 33.8245H59.6306C59.2233 33.8245 58.8945 33.5029 58.8945 33.0956C58.8945 32.8955 58.9803 32.7097 59.1089 32.5739C59.1661 32.5095 59.2447 32.4595 59.3233 32.4238C60.0666 32.7811 60.9027 32.9812 61.7889 32.9812C62.6894 32.9812 63.5398 32.774 64.2974 32.4023C64.5761 32.5024 64.7762 32.774 64.7762 33.0884H64.769Z" fill="#ECB8FF"/>
<path d="M67.4925 27.2571C67.4925 29.5154 66.1847 31.4664 64.2837 32.4027C63.5261 32.7743 62.6757 32.9815 61.7752 32.9815C60.8962 32.9815 60.06 32.7814 59.3096 32.4241C57.38 31.5093 56.0508 29.544 56.0508 27.2642C56.0508 26.5281 56.1866 25.8278 56.4367 25.1846H67.0852C67.3424 25.8206 67.4782 26.521 67.4782 27.2571H67.4925Z" fill="#A68DDB"/>
<path d="M16.2148 89.8114H19.245L32.0089 36.1689H28.9787L16.2148 89.8114Z" fill="#CBE2D1"/>
<path d="M79.2979 89.8114H76.2677L63.5039 36.1689H66.5269L79.2979 89.8114Z" fill="#CBE2D1"/>
<path d="M49.1036 35.4609H46.6309V89.8109H49.1036V35.4609Z" fill="#CBE2D1"/>
<path d="M71.0947 37.498H22.1689C21.0398 37.498 20.125 36.5833 20.125 35.4541C20.125 34.3249 21.0398 33.4102 22.1689 33.4102H71.0947C72.2238 33.4102 73.1386 34.3249 73.1386 35.4541C73.1386 36.5833 72.2238 37.498 71.0947 37.498Z" fill="#9478A6"/>
</svg>
