<svg width="91" height="92" viewBox="0 0 91 92" fill="none" xmlns="http://www.w3.org/2000/svg">
<circle opacity="0.21" cx="45.5" cy="46.2041" r="45.3359" fill="#043A4E"/>
<path opacity="0.4" d="M43.3701 23.4974L30.5367 28.3041C28.0867 29.2374 26.0801 32.1308 26.0801 34.7674V53.6674C26.0801 55.5574 27.3167 58.0541 28.8334 59.1741L41.6667 68.7641C43.9301 70.4674 47.6401 70.4674 49.9034 68.7641L62.7367 59.1741C64.2534 58.0308 65.4901 55.5574 65.4901 53.6674V34.7674C65.4901 32.1541 63.4834 29.2374 61.0334 28.3274L48.2001 23.5208C46.8934 23.0074 44.7001 23.0074 43.3701 23.4974Z" fill="#043A4E"/>
<path d="M51.6296 43.0745C51.6296 39.8545 49.0162 37.2412 45.7962 37.2412C42.5762 37.2412 39.9629 39.8545 39.9629 43.0745C39.9629 45.6879 41.6896 47.8579 44.0462 48.6045V54.7412C44.0462 55.6979 44.8396 56.4912 45.7962 56.4912C46.7529 56.4912 47.5462 55.6979 47.5462 54.7412V48.6045C49.9029 47.8579 51.6296 45.6879 51.6296 43.0745Z" fill="#043A4E"/>
</svg>
