<svg width="14" height="18" viewBox="0 0 14 18" fill="none" xmlns="http://www.w3.org/2000/svg">
<path d="M7.62629 0.55597C7.43876 0.368499 7.18445 0.263184 6.91929 0.263184C6.65412 0.263184 6.39982 0.368499 6.21229 0.55597L0.555288 6.21297C0.459778 6.30522 0.383596 6.41556 0.331187 6.53757C0.278778 6.65957 0.251192 6.79079 0.250038 6.92357C0.248884 7.05635 0.274186 7.18803 0.324467 7.31092C0.374748 7.43382 0.449001 7.54547 0.542893 7.63936C0.636786 7.73326 0.748438 7.80751 0.871334 7.85779C0.994231 7.90807 1.12591 7.93337 1.25869 7.93222C1.39147 7.93107 1.52269 7.90348 1.64469 7.85107C1.7667 7.79866 1.87704 7.72248 1.96929 7.62697L5.91929 3.67697L5.91929 16.92C5.91929 17.1852 6.02465 17.4395 6.21218 17.6271C6.39972 17.8146 6.65407 17.92 6.91929 17.92C7.1845 17.92 7.43886 17.8146 7.62639 17.6271C7.81393 17.4395 7.91929 17.1852 7.91929 16.92L7.91929 3.67697L11.8693 7.62697C12.0579 7.80913 12.3105 7.90992 12.5727 7.90764C12.8349 7.90537 13.0857 7.8002 13.2711 7.61479C13.4565 7.42938 13.5617 7.17857 13.564 6.91637C13.5662 6.65417 13.4654 6.40157 13.2833 6.21297L7.62629 0.55597Z" fill="#FF4A55"/>
</svg>
