<svg width="61" height="60" viewBox="0 0 61 60" fill="none" xmlns="http://www.w3.org/2000/svg">
<circle opacity="0.5" cx="30.3535" cy="30" r="30" fill="white"/>
<g clip-path="url(#clip0_3326_23128)">
<path d="M43.6461 20.3027H23.8855C23.4062 20.3027 22.9464 20.4975 22.6075 20.8443C22.2685 21.1911 22.0781 21.6614 22.0781 22.1518V42.3679C22.0781 42.8583 22.2685 43.3287 22.6075 43.6754C22.9464 44.0222 23.4062 44.217 23.8855 44.217H37.5573L43.057 48.8499V44.217H43.6317C44.1111 44.217 44.5708 44.0222 44.9097 43.6754C45.2487 43.3287 45.4391 42.8583 45.4391 42.3679V22.1518C45.4391 21.6639 45.2507 21.1958 44.9148 20.8495C44.579 20.5031 44.1229 20.3066 43.6461 20.3027Z" fill="white"/>
<path d="M24.1039 20.3028H43.7295C44.1867 20.3028 44.6252 20.4886 44.9485 20.8194C45.2719 21.1502 45.4535 21.5988 45.4535 22.0666V27.7843C45.4535 27.8022 45.4465 27.8194 45.4342 27.8321C45.4218 27.8448 45.405 27.8519 45.3874 27.8519H22.1442C22.1267 27.8519 22.1099 27.8448 22.0975 27.8321C22.0851 27.8194 22.0782 27.8022 22.0782 27.7843V22.3723C22.0766 22.0999 22.128 21.8298 22.2293 21.5778C22.3306 21.3258 22.4798 21.0969 22.6683 20.9044C22.8567 20.7119 23.0807 20.5596 23.3271 20.4563C23.5736 20.353 23.8376 20.3008 24.1039 20.3028Z" fill="#6D597A"/>
<path d="M32.1604 31.415V39.5462H30.3214V32.926H28.7324V31.415H32.1604Z" fill="#043A4E"/>
<path d="M39.7755 31.415V32.635L36.8159 39.5462H34.8045L37.6549 32.9495H35.0315V34.2812H33.3965V31.415H39.7755Z" fill="#043A4E"/>
<path d="M37.0304 24.5803C37.0304 24.6215 35.4242 24.6568 33.4444 24.6568C31.4646 24.6568 29.8555 24.6274 29.8555 24.5803C29.8555 24.5333 31.4617 24.5039 33.4444 24.5039C35.427 24.5039 37.0304 24.5451 37.0304 24.5803Z" fill="#263238"/>
<path d="M43.6458 20.3028C43.6458 20.3028 43.686 20.3028 43.7694 20.3028C43.8898 20.308 44.0092 20.3267 44.1257 20.3586C44.3549 20.4197 44.5701 20.5265 44.7589 20.6728C44.9477 20.819 45.1065 21.002 45.2262 21.2111C45.4023 21.5191 45.49 21.8716 45.479 22.2282C45.479 22.6133 45.479 23.0367 45.479 23.4894C45.479 24.4007 45.479 25.4442 45.479 26.6113C45.479 28.963 45.479 31.7822 45.479 35.0217C45.479 36.6415 45.479 38.3641 45.479 40.175C45.479 40.6306 45.479 41.0892 45.479 41.5537V42.2533C45.4875 42.4962 45.4555 42.7387 45.3842 42.9706C45.2293 43.449 44.8957 43.8454 44.4561 44.073C44.2511 44.1821 44.0279 44.251 43.7981 44.2758C43.5481 44.2758 43.3154 44.2758 43.0711 44.2758L43.1372 44.2082C43.1372 45.678 43.1372 47.2331 43.1372 48.8382V48.991L43.0223 48.894L37.511 44.2758L37.557 44.2934H23.8622C23.5425 44.2892 23.2291 44.2017 22.9516 44.0392C22.6741 43.8766 22.4416 43.6444 22.2761 43.3645C22.1673 43.183 22.0886 42.9844 22.0434 42.7766C22.0088 42.5679 21.9953 42.3561 22.0031 42.1445V38.467C22.0031 35.251 22.0031 32.1496 22.0031 29.1953C22.0031 27.7156 22.0031 26.2762 22.0031 24.8769C22.0031 24.1772 22.0031 23.4913 22.0031 22.8191C21.9903 22.4787 22.0018 22.1378 22.0376 21.799C22.1031 21.4604 22.2559 21.1457 22.4801 20.8877C22.7003 20.6358 22.9819 20.4482 23.2962 20.3439C23.6048 20.2579 23.9254 20.226 24.2444 20.2498H29.5085L39.8529 20.2763H42.666H43.3958C43.5625 20.2763 43.6458 20.2763 43.6458 20.2763H43.3958H42.666H39.8529L29.5085 20.2998H26.0805H24.2588C23.9534 20.2769 23.6465 20.3067 23.3508 20.388C23.0569 20.4877 22.7934 20.664 22.5864 20.8995C22.3777 21.14 22.2358 21.4334 22.1755 21.7491C22.1426 22.0801 22.133 22.4132 22.1468 22.7456V24.8034C22.1468 26.2027 22.1468 27.6421 22.1468 29.1218C22.1468 32.0615 22.1468 35.1775 22.1468 38.3935V42.1298C22.1395 42.3266 22.152 42.5236 22.1842 42.7178C22.2245 42.9128 22.2964 43.0996 22.3968 43.2704C22.6006 43.6159 22.914 43.8794 23.2847 44.0171C23.6713 44.1278 24.0744 44.1656 24.4743 44.1288H37.5771L37.5972 44.1465L43.0941 48.7823L42.9792 48.8352C42.9792 47.2302 42.9792 45.6663 42.9792 44.2053V44.1376H43.0481C43.2866 44.1376 43.5337 44.1376 43.7665 44.1376C44.109 44.1112 44.4362 43.9818 44.7071 43.7658C44.978 43.5499 45.1806 43.2568 45.2894 42.9236C45.3591 42.7056 45.3902 42.4766 45.3814 42.2474V41.5478C45.3814 41.0833 45.3814 40.6247 45.3814 40.1691C45.3814 38.3582 45.3814 36.6415 45.3814 35.0158C45.3814 31.7822 45.3814 28.9454 45.3957 26.6054C45.3957 25.4295 45.3957 24.3948 45.3957 23.4835C45.3957 22.5722 45.5107 21.7696 45.1601 21.2287C44.9278 20.8107 44.5437 20.5033 44.0912 20.3733C43.9451 20.3363 43.796 20.3126 43.6458 20.3028Z" fill="#263238"/>
<path d="M37.2532 17.96H37.2044C36.7981 17.96 36.4688 18.2969 36.4688 18.7125V22.6076C36.4688 23.0232 36.7981 23.3601 37.2044 23.3601H37.2532C37.6595 23.3601 37.9888 23.0232 37.9888 22.6076V18.7125C37.9888 18.2969 37.6595 17.96 37.2532 17.96Z" fill="#E0E0E0"/>
<path d="M37.2543 23.3598C37.4107 23.3373 37.559 23.2746 37.6853 23.1775C37.8263 23.0592 37.917 22.8895 37.9382 22.7042C37.9382 22.4896 37.9382 22.2221 37.9382 21.9399C37.9382 21.352 37.9382 20.6817 37.9382 19.935C37.9382 19.5558 37.9382 19.159 37.9382 18.7592C37.9429 18.6628 37.9275 18.5666 37.8932 18.4767C37.8589 18.3869 37.8063 18.3055 37.7389 18.238C37.6716 18.1705 37.591 18.1184 37.5025 18.0851C37.414 18.0518 37.3196 18.038 37.2256 18.0448C37.1308 18.0446 37.0371 18.0652 36.9509 18.1053C36.8646 18.1454 36.7878 18.2039 36.7256 18.2771C36.6652 18.3501 36.6198 18.4349 36.5921 18.5263C36.5645 18.6177 36.5551 18.7139 36.5647 18.8091C36.5647 19.2207 36.5647 19.6175 36.5647 19.985C36.5647 20.7346 36.5647 21.4137 36.5647 21.9928C36.5647 22.1339 36.5647 22.2691 36.5647 22.3985C36.5543 22.5158 36.5543 22.6339 36.5647 22.7512C36.5996 22.9353 36.7025 23.0985 36.852 23.2069C36.9856 23.2951 37.1388 23.3477 37.2974 23.3598C37.2557 23.3686 37.2127 23.3686 37.171 23.3598C37.0463 23.3536 36.9254 23.3141 36.8204 23.2451C36.6508 23.1332 36.5302 22.9582 36.4842 22.7571C36.4658 22.6346 36.4591 22.5106 36.4641 22.3867C36.4641 22.2574 36.4641 22.1222 36.4641 21.9811C36.4641 21.3931 36.4641 20.7229 36.4469 19.9732C36.4469 19.597 36.4469 19.2001 36.4469 18.7974C36.4367 18.684 36.4487 18.5697 36.4823 18.4612C36.5158 18.3527 36.5702 18.2521 36.6423 18.1653C36.7174 18.074 36.8111 18.0004 36.9167 17.9497C37.0224 17.8989 37.1376 17.8722 37.2543 17.8714C37.3696 17.8649 37.4849 17.8833 37.5928 17.9253C37.7007 17.9674 37.7988 18.0321 37.8807 18.1154C37.9487 18.2044 37.9987 18.3064 38.0278 18.4154C38.0569 18.5245 38.0645 18.6383 38.0502 18.7503C38.0502 19.159 38.0502 19.5558 38.0502 19.9262C38.0502 20.6729 38.0502 21.352 38.033 21.9311C38.033 22.225 38.033 22.469 38.0129 22.7072C37.9985 22.8083 37.9644 22.9055 37.9126 22.9928C37.8607 23.0802 37.7922 23.156 37.7112 23.2157C37.6125 23.2925 37.4953 23.3402 37.3721 23.3539C37.3336 23.3637 37.2936 23.3657 37.2543 23.3598Z" fill="#263238"/>
<path d="M30.1184 17.96H30.0696C29.6633 17.96 29.334 18.2969 29.334 18.7125V22.6076C29.334 23.0232 29.6633 23.3601 30.0696 23.3601H30.1184C30.5247 23.3601 30.854 23.0232 30.854 22.6076V18.7125C30.854 18.2969 30.5247 17.96 30.1184 17.96Z" fill="#E0E0E0"/>
<path d="M30.1171 23.3599C30.2746 23.3381 30.424 23.2754 30.551 23.1776C30.692 23.0593 30.7827 22.8896 30.8039 22.7043C30.8039 22.4897 30.8039 22.2222 30.8039 21.94C30.8039 21.3521 30.8039 20.6818 30.7866 19.9352C30.7866 19.5559 30.7866 19.1591 30.7866 18.7593C30.7913 18.6629 30.776 18.5667 30.7416 18.4768C30.7073 18.387 30.6547 18.3056 30.5874 18.2381C30.52 18.1706 30.4394 18.1185 30.3509 18.0852C30.2625 18.0519 30.1681 18.0382 30.074 18.0449C29.9792 18.0443 29.8854 18.0648 29.7991 18.1049C29.7128 18.145 29.636 18.2038 29.574 18.2772C29.5132 18.3501 29.4674 18.4348 29.4393 18.5262C29.4111 18.6176 29.4013 18.7139 29.4102 18.8093C29.4102 19.2208 29.4102 19.6177 29.4102 19.9851C29.4102 20.7347 29.4102 21.4138 29.393 21.9929C29.393 22.134 29.393 22.2693 29.393 22.3986C29.3825 22.5159 29.3825 22.634 29.393 22.7514C29.4268 22.9359 29.53 23.0994 29.6803 23.207C29.8129 23.2954 29.9651 23.348 30.1229 23.3599C30.1229 23.3599 30.0826 23.3599 29.9964 23.3599C29.8727 23.3536 29.7528 23.3141 29.6487 23.2452C29.4782 23.1342 29.3574 22.9589 29.3125 22.7572C29.2946 22.6347 29.2869 22.5108 29.2896 22.3868C29.2896 22.2575 29.2896 22.1223 29.2896 21.9812C29.2896 21.3932 29.2896 20.723 29.2896 19.9734C29.2896 19.5971 29.2896 19.2002 29.2896 18.7975C29.2727 18.5684 29.3438 18.3417 29.4878 18.1655C29.5629 18.074 29.6565 18.0003 29.7622 17.9495C29.8679 17.8988 29.9831 17.8721 30.0999 17.8715C30.2148 17.8647 30.3297 17.883 30.4372 17.925C30.5447 17.9671 30.6423 18.032 30.7234 18.1155C30.8021 18.1975 30.8636 18.2951 30.9041 18.4022C30.9446 18.5094 30.9633 18.6239 30.959 18.7387C30.959 19.1473 30.959 19.5442 30.959 19.9146C30.959 20.6613 30.959 21.3403 30.959 21.9194C30.959 22.2134 30.959 22.4574 30.9389 22.6955C30.9114 22.8968 30.8083 23.0792 30.6516 23.2041C30.5527 23.2803 30.4356 23.328 30.3125 23.3422C30.2508 23.3692 30.1824 23.3753 30.1171 23.3599Z" fill="#263238"/>
<g opacity="0.3">
<path opacity="0.3" d="M28.4616 20.5293C28.5574 21.4867 28.4679 22.4541 28.1981 23.3762C27.9283 24.2982 27.4836 25.1568 26.8893 25.9029C26.295 26.649 25.5629 27.268 24.7347 27.7245C23.9065 28.181 22.9984 28.4661 22.0625 28.5634L22.3498 24.5449L25.91 20.5852L28.4616 20.5293Z" fill="black"/>
</g>
<path d="M22.8265 26.8952C26.4149 25.9696 28.5906 22.2432 27.6859 18.572C26.7812 14.9008 23.1387 12.675 19.5503 13.6005C15.9618 14.5261 13.7861 18.2525 14.6908 21.9237C15.5955 25.5949 19.238 27.8207 22.8265 26.8952Z" fill="white"/>
<path d="M21.183 27.8407C19.7598 27.8397 18.3668 27.4202 17.1702 26.6321C15.9735 25.8439 15.0235 24.7204 14.4335 23.3954C13.8435 22.0704 13.6383 20.5998 13.8423 19.1588C14.0464 17.7178 14.6511 16.3673 15.5844 15.268C16.5177 14.1688 17.7402 13.3673 19.1064 12.959C20.4725 12.5507 21.9245 12.5528 23.2895 12.9651C24.6544 13.3774 25.8747 14.1825 26.8049 15.2845C27.7352 16.3865 28.3361 17.7388 28.5361 19.1804C28.8101 21.1735 28.3003 23.1965 27.1185 24.8056C25.9367 26.4148 24.1793 27.4787 22.2318 27.7642C21.8845 27.8157 21.5339 27.8412 21.183 27.8407ZM21.2002 14.133C20.9118 14.1326 20.6238 14.1532 20.3382 14.1947C19.1685 14.3666 18.0748 14.8894 17.1954 15.697C16.316 16.5046 15.6904 17.5608 15.3976 18.732C15.1048 19.9033 15.1579 21.1371 15.5503 22.2775C15.9428 23.4179 16.6568 24.4136 17.6022 25.139C18.5477 25.8643 19.6821 26.2866 20.862 26.3525C22.042 26.4184 23.2146 26.125 24.2316 25.5094C25.2486 24.8937 26.0644 23.9834 26.5759 22.8935C27.0874 21.8036 27.2715 20.5831 27.1051 19.3862C26.9027 17.9305 26.1943 16.5982 25.1099 15.6335C24.0254 14.6687 22.6374 14.136 21.2002 14.133Z" fill="#043A4E"/>
<path d="M21.1984 14.1324C21.2308 14.1277 21.2637 14.1277 21.2961 14.1324C21.3593 14.1324 21.4541 14.1324 21.5834 14.1324C21.9497 14.1493 22.3134 14.2025 22.6696 14.2911C23.2343 14.4339 23.7755 14.6607 24.2759 14.9643C24.9425 15.3663 25.5277 15.8951 25.9999 16.5223C26.5704 17.2848 26.9573 18.1741 27.1292 19.1181C27.1731 19.3769 27.2037 19.6379 27.2211 19.9C27.2283 20.0342 27.2283 20.1686 27.2211 20.3027C27.2211 20.438 27.2211 20.5761 27.2211 20.7114C27.1754 21.2767 27.0595 21.8339 26.8763 22.3693C26.6634 22.9259 26.3803 23.4516 26.0344 23.9332C25.667 24.4276 25.2348 24.8678 24.75 25.2414C23.7103 26.0181 22.4556 26.4352 21.1683 26.432C19.881 26.4289 18.6282 26.0056 17.5923 25.2238C17.1066 24.8499 16.6743 24.4086 16.3078 23.9127C15.9697 23.4272 15.6953 22.8985 15.4918 22.3399C15.3104 21.8053 15.1965 21.2491 15.1527 20.6849C15.0763 19.5412 15.3127 18.3983 15.8355 17.3843C16.3582 16.3702 17.1466 15.5252 18.1123 14.9437C18.7988 14.5341 19.5593 14.2711 20.3479 14.1706L20.8105 14.1441L21.0978 14.1294C21.1303 14.1261 21.163 14.1261 21.1955 14.1294H21.0978L20.8105 14.1559L20.3507 14.197C20.1697 14.2264 19.9657 14.2676 19.7358 14.3264C18.4329 14.6672 17.2819 15.4508 16.4716 16.5488C15.9138 17.2986 15.535 18.1713 15.3653 19.0975C15.2708 19.6108 15.2428 20.1347 15.282 20.6555C15.326 21.2079 15.4389 21.7523 15.6182 22.2753C15.8183 22.8197 16.0878 23.3347 16.4199 23.8068C16.7791 24.29 17.2017 24.7203 17.6756 25.0856C18.6869 25.8463 19.9087 26.2581 21.164 26.2613C22.4193 26.2645 23.643 25.8589 24.658 25.1032C25.1334 24.7398 25.557 24.3104 25.9166 23.8274C26.2504 23.3565 26.5219 22.8425 26.724 22.2988C26.9073 21.7775 27.0233 21.234 27.0688 20.682C27.0861 20.5497 27.0688 20.4145 27.0688 20.2822C27.076 20.151 27.076 20.0195 27.0688 19.8883C27.043 19.6266 27.0315 19.3709 26.9826 19.121C26.8185 18.194 26.4446 17.3191 25.8907 16.5664C25.0793 15.4707 23.9335 14.6834 22.6351 14.3293C22.2828 14.2353 21.9233 14.1723 21.5605 14.1412C21.3306 14.1382 21.1984 14.1382 21.1984 14.1324Z" fill="#263238"/>
<path d="M21.1827 27.84C21.1827 27.84 21.2229 27.84 21.3033 27.84L21.6539 27.8135C21.8091 27.7988 21.9987 27.7812 22.2286 27.7459L22.9958 27.5842C23.6846 27.3934 24.3455 27.1097 24.9612 26.7405C25.768 26.2364 26.4763 25.5835 27.0502 24.815C27.737 23.8777 28.2039 22.7915 28.4151 21.6402C28.4483 21.4852 28.4713 21.328 28.484 21.1698C28.484 21.0111 28.5185 20.8524 28.5329 20.6877C28.5473 20.5231 28.5329 20.3644 28.5329 20.1968V19.9499L28.5099 19.7C28.4655 19.0122 28.3262 18.3342 28.0961 17.6863C27.5796 16.2383 26.6416 14.9872 25.4085 14.1015C24.1754 13.2158 22.7065 12.7382 21.1999 12.733C19.6889 12.7279 18.2132 13.1997 16.974 14.084C15.7347 14.9683 14.7922 16.2222 14.2749 17.6746C13.8218 18.9432 13.7155 20.3143 13.9675 21.6402C14.0744 22.2377 14.2509 22.82 14.4933 23.3746C14.6103 23.6343 14.7407 23.8875 14.8841 24.133L15.0967 24.4887L15.3352 24.815C15.9023 25.5843 16.6085 26.235 17.4156 26.7317C18.0292 27.105 18.6907 27.3889 19.381 27.5754C19.6322 27.6452 19.8875 27.6982 20.1453 27.7341C20.3353 27.769 20.5273 27.7916 20.72 27.8017L21.0735 27.8282C21.1136 27.825 21.154 27.825 21.1941 27.8282H21.0735H20.72C20.5274 27.8239 20.3353 27.8052 20.1453 27.7724C19.8854 27.7435 19.6279 27.6944 19.3753 27.6254C18.6756 27.4483 18.0041 27.1702 17.3811 26.7993C16.5534 26.304 15.8266 25.6503 15.2404 24.8738L14.999 24.5446L14.7806 24.1859C14.633 23.9328 14.4987 23.6718 14.3784 23.404C14.1302 22.8402 13.9488 22.2481 13.8382 21.6402C13.5815 20.2943 13.6868 18.9023 14.1427 17.6128C14.6695 16.1342 15.6287 14.8575 16.8899 13.9565C18.1511 13.0555 19.653 12.5739 21.1913 12.5772C22.7302 12.5785 24.2314 13.0645 25.4909 13.9691C26.7504 14.8737 27.7072 16.1531 28.2312 17.6334C28.465 18.2956 28.6053 18.9885 28.6478 19.6912L28.6679 19.944V20.1968C28.6679 20.3644 28.6679 20.5319 28.6679 20.6966C28.6679 20.8612 28.622 21.0199 28.622 21.1816C28.6097 21.3429 28.5857 21.5031 28.5501 21.6608C28.325 22.8298 27.8382 23.9296 27.1278 24.8738C26.5425 25.6491 25.8203 26.3052 24.9986 26.8081C24.3728 27.1738 23.7022 27.4526 23.0044 27.6371L22.2286 27.7841C22.038 27.8119 21.8462 27.8295 21.6539 27.837C21.4987 27.837 21.3666 27.837 21.3005 27.837L21.1827 27.84Z" fill="#263238"/>
<path d="M24.5888 10.7992L23.9766 11.8037L27.9137 14.3153L28.526 13.3108L24.5888 10.7992Z" fill="#455A64"/>
<path d="M27.9055 14.3442C27.9055 14.3442 27.9572 14.2384 28.0578 14.0502L28.4802 13.3094L28.4946 13.3712C27.6038 12.8214 26.1642 11.9395 24.5522 10.896L24.6557 10.8724L24.6355 10.9048L24.5752 10.9988L24.4976 11.1282L24.3424 11.381L24.0551 11.8749L24.0235 11.769C25.124 12.4804 26.0866 13.1154 26.782 13.5799L27.6038 14.1296C27.7963 14.2619 27.8911 14.3354 27.8911 14.3442C27.7901 14.2994 27.6939 14.2443 27.6038 14.1796L26.782 13.6769C26.0751 13.2418 25.0752 12.6186 23.9402 11.8984L23.877 11.8572L23.9172 11.7955L24.2045 11.2987L24.3712 11.0576L24.4488 10.9312L24.489 10.8666L24.5091 10.8225V10.8048L24.6298 10.7637C26.2447 11.7955 27.6699 12.7215 28.5434 13.3006L28.5808 13.3271L28.5578 13.3653C28.3509 13.6857 28.1871 13.9356 28.0779 14.1002C28.0283 14.1871 27.9706 14.2688 27.9055 14.3442Z" fill="#043A4E"/>
<path d="M15.1232 12.4491L11.9043 16.1963L12.772 16.9764L15.9909 13.2292L15.1232 12.4491Z" fill="#455A64"/>
<path d="M12.7745 16.9755C12.7745 16.9755 12.8607 16.8579 13.0159 16.6639L13.6796 15.8555C14.2543 15.1764 15.0302 14.2387 15.9324 13.1804V13.2862L15.0704 12.5072H15.1767L15.148 12.5278L15.1164 12.5719L15.056 12.6424L14.9325 12.7865L14.6882 13.0804L14.217 13.6184L13.3348 14.6326L11.9383 16.2259V16.1612C12.1883 16.3993 12.3924 16.5963 12.5533 16.7491C12.6324 16.8209 12.7073 16.8974 12.7774 16.9784C12.6897 16.9244 12.607 16.8624 12.5303 16.7932C12.378 16.6668 12.151 16.4787 11.8665 16.2288L11.832 16.1994L11.8608 16.1641L13.2228 14.5444L14.0848 13.5184L14.579 12.9687C14.6566 12.8746 14.7399 12.7806 14.8204 12.6747L14.944 12.5307L15.0043 12.4572L15.0359 12.4219L15.0531 12.4043H15.1595C15.4468 12.6747 15.7341 12.9364 16.0215 13.1863L16.0761 13.2362L16.0272 13.2921C15.1164 14.3562 14.2946 15.2911 13.7084 15.9495L13.0216 16.7168C12.9449 16.8085 12.8624 16.8949 12.7745 16.9755Z" fill="#043A4E"/>
<path d="M18.2656 20.8465L18.8374 19.7324L20.8804 20.679L23.0786 16.584L24.1073 17.1866L21.2597 22.3516L18.2656 20.8465Z" fill="#043A4E"/>
<path d="M21.2634 22.3605L18.2578 20.8495L18.8325 19.7295L20.8698 20.6702L23.0766 16.5752L24.111 17.1808L21.2634 22.3605ZM18.2779 20.8436L21.2605 22.3428L24.1024 17.1896L23.0852 16.6017L20.8841 20.6878L18.8526 19.7442L18.2779 20.8436Z" fill="#263238"/>
<path d="M17.1961 28.71C17.0875 28.6759 16.9825 28.6306 16.8829 28.5747C16.7627 28.5176 16.6457 28.4538 16.5323 28.3837C16.378 28.2938 16.2283 28.1957 16.0841 28.0897C15.7024 27.8281 15.3438 27.533 15.0123 27.2078C14.607 26.8102 14.2394 26.3741 13.9146 25.9055C13.6005 25.4361 13.3293 24.9382 13.1043 24.418C12.922 23.9884 12.7749 23.5439 12.6647 23.0893C12.6205 22.9149 12.585 22.7383 12.5584 22.5602C12.5318 22.4272 12.5135 22.2927 12.5038 22.1574C12.4865 22.0427 12.4808 21.9265 12.4865 21.8105C12.5153 21.8105 12.5612 22.2985 12.7739 23.0599C12.8956 23.5054 13.0502 23.9407 13.2365 24.3622C13.4694 24.875 13.7443 25.3667 14.0583 25.832C14.3747 26.2919 14.7284 26.7236 15.1157 27.1225C15.4401 27.4419 15.7868 27.7367 16.153 28.0044C16.7737 28.4719 17.2105 28.6953 17.1961 28.71Z" fill="#263238"/>
<path d="M13.8058 27.1434C13.6221 26.9767 13.4608 26.786 13.3259 26.576C12.9763 26.0894 12.6714 25.5708 12.4151 25.0268C12.1591 24.4815 11.9541 23.9126 11.803 23.3277C11.7249 23.0903 11.6794 22.843 11.668 22.5928C11.7596 22.8229 11.8373 23.0585 11.9007 23.2983C12.0789 23.866 12.2939 24.4209 12.5444 24.9592C12.7989 25.4959 13.0868 26.0154 13.4064 26.5143C13.5541 26.714 13.6875 26.9242 13.8058 27.1434Z" fill="#263238"/>
</g>
<defs>
<clipPath id="clip0_3326_23128">
<rect width="34.4754" height="38.2364" fill="white" transform="translate(11.041 10.7637)"/>
</clipPath>
</defs>
</svg>
