<svg width="41" height="41" viewBox="0 0 41 41" fill="none" xmlns="http://www.w3.org/2000/svg">
<rect width="40.7015" height="40.7015" rx="8.57588" fill="#4EA692"/>
<path d="M17.5065 19.8857C17.9539 22.8625 17.1343 24.49 14.8197 24.8323C12.2476 25.2127 11.1878 23.4896 10.7404 20.5128C10.1387 16.5072 11.5529 14.0159 13.5694 13.8554C15.4047 13.7097 17.0586 16.9094 17.5065 19.8857ZM18.7075 28.1473C18.8664 29.8373 17.9529 31.4146 16.5747 31.6847C15.1833 31.9569 13.5933 30.8534 13.2693 29.1868C12.9453 27.5202 14.1707 27.4318 15.6723 27.1449C17.1739 26.858 18.5155 26.1089 18.7075 28.1473ZM23.194 15.0102C22.7466 17.987 23.5662 19.6145 25.8803 19.9568C28.4529 20.3371 29.5122 18.6141 29.9596 15.6373C30.5619 11.6312 29.1471 9.12617 27.1311 8.97992C25.2826 8.84586 23.6419 12.0334 23.194 15.0102ZM21.993 23.2723C21.8341 24.9618 22.7476 26.5396 24.1258 26.8097C25.5172 27.0819 27.1072 25.9784 27.4312 24.3118C27.7552 22.6452 26.5298 22.5568 25.0282 22.2694C23.5266 21.9819 22.185 21.2334 21.993 23.2723Z" stroke="#CBE2D1" stroke-width="1.5" stroke-miterlimit="10"/>
</svg>
