<svg width="91" height="92" viewBox="0 0 91 92" fill="none" xmlns="http://www.w3.org/2000/svg">
<circle opacity="0.21" cx="45.5625" cy="46.2041" r="45.3359" fill="#043A4E"/>
<path opacity="0.4" d="M63.9679 36.5814V56.6015C63.9679 62.6075 60.9649 66.6116 53.9578 66.6116H37.9417C30.9347 66.6116 27.9316 62.6075 27.9316 56.6015V36.5814C27.9316 30.5753 30.9347 26.5713 37.9417 26.5713H53.9578C60.9649 26.5713 63.9679 30.5753 63.9679 36.5814Z" fill="#043A4E"/>
<path d="M58.9627 41.0863H54.9587C51.9156 41.0863 49.4531 38.6238 49.4531 35.5807V31.5767C49.4531 30.7559 50.1338 30.0752 50.9546 30.0752C51.7755 30.0752 52.4561 30.7559 52.4561 31.5767V35.5807C52.4561 36.9621 53.5773 38.0833 54.9587 38.0833H58.9627C59.7835 38.0833 60.4642 38.7639 60.4642 39.5848C60.4642 40.4056 59.7835 41.0863 58.9627 41.0863Z" fill="#043A4E"/>
<path d="M45.949 50.0948H37.941C37.1201 50.0948 36.4395 49.4141 36.4395 48.5933C36.4395 47.7725 37.1201 47.0918 37.941 47.0918H45.949C46.7698 47.0918 47.4505 47.7725 47.4505 48.5933C47.4505 49.4141 46.7698 50.0948 45.949 50.0948Z" fill="#043A4E"/>
<path d="M53.9571 58.1036H37.941C37.1201 58.1036 36.4395 57.4229 36.4395 56.6021C36.4395 55.7813 37.1201 55.1006 37.941 55.1006H53.9571C54.7779 55.1006 55.4586 55.7813 55.4586 56.6021C55.4586 57.4229 54.7779 58.1036 53.9571 58.1036Z" fill="#043A4E"/>
</svg>
