<svg width="24" height="25" viewBox="0 0 24 25" fill="none" xmlns="http://www.w3.org/2000/svg">
<path d="M3 6.55859H5H21" stroke="#CBE2D1" stroke-width="2" stroke-linecap="round" stroke-linejoin="round"/>
<path d="M19 6.55859V20.5586C19 21.089 18.7893 21.5977 18.4142 21.9728C18.0391 22.3479 17.5304 22.5586 17 22.5586H7C6.46957 22.5586 5.96086 22.3479 5.58579 21.9728C5.21071 21.5977 5 21.089 5 20.5586V6.55859M8 6.55859V4.55859C8 4.02816 8.21071 3.51945 8.58579 3.14438C8.96086 2.76931 9.46957 2.55859 10 2.55859H14C14.5304 2.55859 15.0391 2.76931 15.4142 3.14438C15.7893 3.51945 16 4.02816 16 4.55859V6.55859" stroke="#CBE2D1" stroke-width="2" stroke-linecap="round" stroke-linejoin="round"/>
</svg>
