<svg width="190" height="141" viewBox="0 0 190 141" fill="none" xmlns="http://www.w3.org/2000/svg">
<path opacity="0.8" d="M156.259 28.2835C156.259 28.2835 139.053 16.8874 118.095 22.8991C97.1338 28.9089 82.8265 47.6959 70.8317 62.6072C58.835 77.5209 59.3589 95.882 71.5798 107.26C83.8007 118.639 96.1108 109.474 115.993 113.866C135.876 118.257 140.516 122.414 159.547 115.366C178.579 108.318 187.781 82.7038 179.472 59.9611C171.16 37.2165 156.259 28.2835 156.259 28.2835Z" fill="white"/>
<path d="M101.544 96.4767C100.713 96.7512 99.814 96.2975 99.5399 95.4681L93.9941 78.6883C93.7561 77.9683 92.9795 77.5764 92.2611 77.8139C91.5426 78.0513 91.1525 78.8288 91.3905 79.5488L95.5303 92.0746C95.774 92.8119 95.3742 93.6085 94.6386 93.8517C93.9029 94.0948 93.1071 93.6933 92.8635 92.956L90.5779 86.0407C90.4018 85.5079 89.828 85.2184 89.2964 85.3941C88.7647 85.5698 88.4764 86.1443 88.6525 86.6771L89.5026 89.2491L87.3818 89.95L87.2866 89.662L89.12 89.056L88.3652 86.7721C88.1367 86.0808 88.5115 85.334 89.2012 85.1061C89.8909 84.8781 90.6369 85.2545 90.8653 85.9458L93.1508 92.861C93.3422 93.4399 93.9657 93.7546 94.5434 93.5637C95.121 93.3728 95.4343 92.7485 95.2429 92.1696L91.1031 79.6438C90.8128 78.7653 91.2894 77.8155 92.1659 77.5258C93.0424 77.2362 93.9911 77.7149 94.2815 78.5933L99.8272 95.3731C100.049 96.0442 100.776 96.4109 101.448 96.1887C102.118 95.9674 102.483 95.2397 102.261 94.5686L95.4952 74.0965C95.143 73.0309 95.7215 71.8781 96.7847 71.5266C97.848 71.1752 98.9995 71.7563 99.3517 72.8219L106.086 93.199C106.324 93.919 107.101 94.3109 107.819 94.0734C108.538 93.836 108.928 93.0585 108.69 92.3385L103.323 76.1002C102.986 75.0806 103.54 73.9776 104.557 73.6414C105.574 73.3051 106.676 73.8611 107.013 74.8807L110.972 86.8592C111.179 87.4842 111.856 87.8259 112.479 87.6198C113.103 87.4137 113.443 86.7358 113.237 86.1108L111.084 79.5988C110.836 78.847 111.243 78.0351 111.993 77.7872C112.743 77.5393 113.557 77.9476 113.806 78.6993L114.46 80.678L116.581 79.977L116.676 80.2651L114.268 81.061L113.518 78.7943C113.322 78.201 112.681 77.8796 112.089 78.0752C111.497 78.2709 111.177 78.9133 111.372 79.5038L113.524 86.0158C113.783 86.7992 113.356 87.6494 112.575 87.9078C111.793 88.1661 110.944 87.7376 110.685 86.9542L106.726 74.9756C106.441 74.1145 105.512 73.6454 104.652 73.9294C103.793 74.2134 103.326 75.144 103.611 76.0052L108.977 92.2435C109.268 93.1219 108.791 94.0718 107.915 94.3614C107.038 94.6511 106.089 94.1724 105.799 93.2939L99.0644 72.9169C98.7645 72.0096 97.7852 71.5155 96.8799 71.8147C95.9747 72.1138 95.4827 73.0943 95.7826 74.0015L102.549 94.4736C102.826 95.3022 102.374 96.2022 101.544 96.4767Z" fill="#4EA692"/>
<path d="M129.276 87.3107C128.445 87.5852 127.546 87.1315 127.272 86.302L121.727 69.5223C121.489 68.8023 120.712 68.4104 119.993 68.6478C119.275 68.8853 118.885 69.6628 119.123 70.3828L123.263 82.9086C123.506 83.6459 123.107 84.4425 122.371 84.6857C121.635 84.9288 120.84 84.5273 120.596 83.79L118.31 76.8747C118.134 76.3419 117.56 76.0523 117.029 76.2281C116.497 76.4038 116.209 76.9783 116.385 77.5111L117.235 80.0831L115.114 80.784L115.019 80.496L116.852 79.89L116.098 77.6061C115.869 76.9148 116.244 76.168 116.934 75.94C117.623 75.7121 118.369 76.0885 118.598 76.7797L120.883 83.695C121.075 84.2739 121.698 84.5885 122.276 84.3976C122.853 84.2067 123.167 83.5825 122.975 83.0035L118.836 70.4778C118.545 69.5993 119.022 68.6495 119.898 68.3598C120.775 68.0701 121.724 68.5489 122.014 69.4273L127.56 86.2071C127.781 86.8781 128.508 87.2449 129.181 87.0227C129.85 86.8014 130.216 86.0737 129.994 85.4026L123.228 64.9305C122.875 63.8649 123.454 62.712 124.517 62.3606C125.58 62.0092 126.732 62.5902 127.084 63.6559L133.819 84.033C134.057 84.753 134.833 85.1449 135.552 84.9074C136.27 84.67 136.66 83.8925 136.422 83.1724L131.056 66.9342C130.719 65.9146 131.272 64.8116 132.289 64.4754C133.307 64.1391 134.409 64.6951 134.746 65.7146L138.704 77.6932C138.911 78.3182 139.588 78.6599 140.212 78.4538C140.835 78.2477 141.176 77.5698 140.969 76.9448L138.817 70.4327C138.568 69.681 138.976 68.8691 139.729 68.6202C140.479 68.3723 141.29 68.7816 141.538 69.5333L142.192 71.512L144.313 70.811L144.408 71.099L142 71.895L141.251 69.6283C141.055 69.035 140.416 68.7126 139.824 68.9083C139.232 69.1039 138.909 69.7473 139.104 70.3378L141.256 76.8498C141.515 77.6332 141.089 78.4834 140.307 78.7418C139.525 79.0001 138.676 78.5716 138.417 77.7882L134.458 65.8096C134.174 64.9485 133.244 64.4794 132.385 64.7634C131.525 65.0474 131.058 65.978 131.343 66.8392L136.71 83.0775C137 83.9559 136.524 84.9057 135.647 85.1954C134.771 85.4851 133.822 85.0064 133.531 84.1279L126.797 63.7509C126.497 62.8436 125.518 62.3495 124.612 62.6486C123.707 62.9478 123.215 63.9283 123.515 64.8355L130.281 85.3076C130.558 86.1362 130.106 87.0362 129.276 87.3107Z" fill="#4EA692"/>
<path d="M157.006 78.1456C156.176 78.4201 155.277 77.9665 155.003 77.137L149.457 60.3573C149.219 59.6372 148.442 59.2454 147.724 59.4828C147.006 59.7202 146.615 60.4977 146.853 61.2178L150.993 73.7435C151.237 74.4808 150.837 75.2775 150.101 75.5206C149.366 75.7638 148.57 75.3622 148.326 74.6249L146.041 67.7097C145.865 67.1769 145.291 66.8873 144.759 67.063C144.228 67.2387 143.939 67.8132 144.115 68.346L144.965 70.918L142.845 71.619L142.749 71.3309L144.583 70.725L143.828 68.441C143.6 67.7498 143.974 67.003 144.664 66.775C145.354 66.5471 146.1 66.9235 146.328 67.6147L148.614 74.5299C148.805 75.1089 149.429 75.4235 150.006 75.2326C150.584 75.0417 150.897 74.4174 150.706 73.8385L146.566 61.3127C146.276 60.4343 146.752 59.4845 147.629 59.1948C148.505 58.9051 149.454 59.3838 149.744 60.2623L155.29 77.042C155.512 77.7131 156.239 78.0799 156.911 77.8576C157.584 77.6354 157.946 76.9086 157.724 76.2376L150.958 55.7655C150.606 54.6998 151.184 53.547 152.248 53.1956C153.311 52.8442 154.462 53.4252 154.815 54.4909L161.549 74.8679C161.787 75.5879 162.564 75.9798 163.282 75.7424C164.001 75.5049 164.391 74.7274 164.153 74.0074L158.786 57.7691C158.449 56.7496 159.003 55.6465 160.02 55.3103C161.037 54.9741 162.139 55.53 162.476 56.5496L166.435 68.5281C166.642 69.1531 167.319 69.4948 167.942 69.2887C168.566 69.0826 168.906 68.4047 168.699 67.7797L166.547 61.2677C166.299 60.516 166.706 59.704 167.459 59.4552C168.209 59.2073 169.02 59.6165 169.269 60.3683L169.923 62.3469L172.043 61.646L172.139 61.934L169.73 62.7299L168.981 60.4632C168.785 59.8699 168.146 59.5476 167.554 59.7432C166.962 59.9389 166.639 60.5823 166.835 61.1727L168.987 67.6847C169.246 68.4681 168.819 69.3184 168.037 69.5767C167.256 69.8351 166.407 69.4065 166.148 68.6231L162.189 56.6446C161.904 55.7834 160.974 55.3143 160.115 55.5983C159.256 55.8823 158.789 56.813 159.074 57.6741L164.44 73.9124C164.731 74.7909 164.254 75.7407 163.378 76.0304C162.501 76.3201 161.552 75.8413 161.262 74.9629L154.527 54.5858C154.227 53.6786 153.248 53.1844 152.343 53.4836C151.438 53.7828 150.946 54.7632 151.245 55.6705L158.012 76.1426C158.289 76.9711 157.837 77.8711 157.006 78.1456Z" fill="#4EA692"/>
<path d="M114.236 31.6914L113.354 29.0215L111.49 31.1167L114.236 31.6914Z" fill="#263238"/>
<path d="M110.681 29.8345L110.262 29.9731L111.163 32.7006L111.583 32.562L110.681 29.8345Z" fill="#263238"/>
<path d="M126.439 27.6582L128.302 25.5601L125.557 24.9883L126.439 27.6582Z" fill="#263238"/>
<path d="M128.609 23.9092L128.189 24.0479L129.091 26.7754L129.51 26.6367L128.609 23.9092Z" fill="#263238"/>
<path d="M118.749 24.4173C116.789 25.0651 115.73 27.1821 116.378 29.1435C117.027 31.1077 119.142 32.1723 121.099 31.5255C123.059 30.8778 124.118 28.7608 123.47 26.7994C122.821 24.8351 120.709 23.7696 118.749 24.4173ZM120.04 30.0097L118.985 30.3583L117.747 26.6112L118.801 26.2627L120.04 30.0097ZM122.1 29.3287L121.046 29.6773L119.807 25.9302L120.862 25.5817L122.1 29.3287Z" fill="#263238"/>
<path d="M158.505 44.6296C158.266 44.7084 158.01 44.579 157.931 44.34L156.641 40.4374C156.562 40.1983 156.691 39.9417 156.929 39.8629C157.168 39.7841 157.424 39.9134 157.503 40.1525L158.793 44.0551C158.871 44.2912 158.743 44.5507 158.505 44.6296Z" fill="#F5F7F8"/>
<path d="M156.923 44.5804C156.685 44.6592 156.429 44.5299 156.35 44.2908L155.401 41.4193C155.322 41.1803 155.45 40.9237 155.689 40.8448C155.927 40.766 156.184 40.8953 156.263 41.1344L157.212 44.0059C157.291 44.245 157.162 44.5016 156.923 44.5804Z" fill="#F5F7F8"/>
<path d="M155.511 45.0467C155.273 45.1255 155.017 44.9962 154.938 44.7571L153.988 41.8856C153.909 41.6466 154.038 41.39 154.277 41.3111C154.515 41.2323 154.772 41.3616 154.851 41.6007L155.8 44.4722C155.879 44.7113 155.75 44.9679 155.511 45.0467Z" fill="#F5F7F8"/>
<path d="M172.439 39.4525C172.201 39.5313 171.944 39.402 171.865 39.1629L170.916 36.2914C170.837 36.0523 170.966 35.7957 171.205 35.7169C171.443 35.6381 171.699 35.7674 171.778 36.0065L172.727 38.878C172.806 39.117 172.678 39.3736 172.439 39.4525Z" fill="#F5F7F8"/>
<path d="M171.027 39.9188C170.788 39.9976 170.532 39.8683 170.453 39.6292L169.504 36.7577C169.425 36.5187 169.554 36.262 169.792 36.1832C170.031 36.1044 170.287 36.2337 170.366 36.4728L171.315 39.3443C171.394 39.5833 171.266 39.8399 171.027 39.9188Z" fill="#F5F7F8"/>
<path d="M159.917 44.1632C159.678 44.2421 159.422 44.1127 159.343 43.8737L158.053 39.9711C157.974 39.732 158.103 39.4754 158.341 39.3966C158.58 39.3178 158.836 39.4471 158.915 39.6862L160.205 43.5888C160.283 43.8249 160.152 44.0854 159.917 44.1632Z" fill="#F5F7F8"/>
<path d="M161.55 44.3833C161.312 44.4621 161.056 44.3328 160.977 44.0937L159.233 38.8173C159.154 38.5782 159.282 38.3216 159.521 38.2428C159.759 38.164 160.016 38.2933 160.095 38.5323L161.839 43.8088C161.918 44.0478 161.789 44.3044 161.55 44.3833Z" fill="#F5F7F8"/>
<path d="M163.32 45.0004C163.081 45.0792 162.825 44.9499 162.746 44.7108L160.287 37.2714C160.208 37.0323 160.337 36.7757 160.576 36.6969C160.814 36.6181 161.07 36.7474 161.149 36.9864L163.608 44.4259C163.686 44.662 163.558 44.9215 163.32 45.0004Z" fill="#F5F7F8"/>
<path d="M169.79 40.9001C169.551 40.9789 169.295 40.8496 169.216 40.6105L167.926 36.7079C167.847 36.4688 167.976 36.2122 168.214 36.1334C168.453 36.0546 168.709 36.1839 168.788 36.423L170.078 40.3256C170.156 40.5617 170.025 40.8222 169.79 40.9001Z" fill="#F5F7F8"/>
<path d="M168.378 41.3664C168.139 41.4452 167.883 41.3159 167.804 41.0768L166.514 37.1742C166.435 36.9352 166.564 36.6786 166.802 36.5997C167.041 36.5209 167.297 36.6502 167.376 36.8893L168.666 40.7919C168.744 41.0281 168.616 41.2875 168.378 41.3664Z" fill="#F5F7F8"/>
<path d="M167.195 42.518C166.956 42.5969 166.7 42.4675 166.621 42.2285L164.877 36.952C164.798 36.713 164.927 36.4564 165.165 36.3776C165.404 36.2987 165.66 36.4281 165.739 36.6671L167.483 41.9435C167.562 42.1826 167.433 42.4392 167.195 42.518Z" fill="#F5F7F8"/>
<path d="M166.14 44.0677C165.902 44.1466 165.645 44.0172 165.566 43.7782L163.108 36.3388C163.029 36.0997 163.157 35.8431 163.396 35.7643C163.634 35.6854 163.891 35.8148 163.97 36.0538L166.429 43.4932C166.507 43.7294 166.379 43.9889 166.14 44.0677Z" fill="#F5F7F8"/>
<path d="M165.184 45.9071C164.946 45.986 164.689 45.8566 164.61 45.6176L161.242 35.4276C161.163 35.1886 161.292 34.932 161.531 34.8531C161.769 34.7743 162.026 34.9036 162.105 35.1427L165.472 45.3327C165.551 45.5717 165.423 45.8283 165.184 45.9071Z" fill="#F5F7F8"/>
<path d="M79.0672 59.9878C78.1901 58.5589 76.4194 57.8886 74.8043 58.4224C73.1778 58.9599 72.1475 60.5783 72.3196 62.2658C70.7279 63.073 69.9317 64.9559 70.5019 66.6811C71.1007 68.4927 72.9492 69.5335 74.8053 69.1021L74.6372 68.3813C73.1575 68.7266 71.681 67.8952 71.2031 66.4494C70.7233 64.9978 71.4539 63.4081 72.8632 62.8305L73.1382 62.7173L73.0851 62.4217C72.8245 60.9967 73.6629 59.5791 75.0366 59.1251C76.4131 58.6702 77.9321 59.3118 78.5711 60.6182L78.7294 60.9428L79.0561 60.7933C79.1558 60.7476 79.2563 60.7048 79.3598 60.6706C80.8886 60.1653 82.5423 61.0021 83.0477 62.5315C83.5541 64.0637 82.721 65.7192 81.1951 66.2235L81.4273 66.9263C83.3412 66.2937 84.3829 64.2179 83.7489 62.2997C83.1102 60.3575 80.9898 59.2948 79.0672 59.9878Z" fill="#043A4E"/>
<path d="M78.8509 63.1806C78.8147 63.0712 78.7278 62.9817 78.6168 62.9449C78.5058 62.9081 78.3842 62.926 78.2883 62.9928L74.9688 65.3039C74.8336 65.3965 74.7788 65.568 74.8302 65.7235L76.2266 69.9487C76.0907 69.9425 75.949 69.9574 75.8139 70.002C75.2162 70.1996 74.8914 70.8468 75.0894 71.4459C75.2874 72.045 75.9339 72.3712 76.5316 72.1737C77.0978 71.9866 77.4129 71.3968 77.2789 70.8277L77.2904 70.8239L76.2253 67.601L78.916 65.7309L79.5328 67.5972C79.3998 67.5901 79.2619 67.6069 79.1268 67.6516C78.5291 67.8491 78.2043 68.4964 78.4023 69.0954C78.6003 69.6945 79.2468 70.0207 79.8445 69.8232C80.4423 69.6256 80.7671 68.9784 80.5691 68.3793C80.5672 68.3735 80.5624 68.3687 80.5605 68.363L78.848 63.1816L78.8509 63.1806ZM78.6723 64.9936L75.9825 66.8665L75.6141 65.7519L78.3049 63.8818L78.6723 64.9936Z" fill="#043A4E"/>
<path d="M108.662 46.9414C108.53 46.541 108.933 45.9286 108.756 45.5588C108.574 45.1813 107.845 45.1156 107.617 44.7725C107.387 44.4237 107.618 43.7243 107.349 43.4137C107.076 43.0982 106.353 43.2254 106.045 42.9501C105.734 42.6729 105.778 41.9394 105.433 41.7052C105.088 41.4711 104.426 41.7826 104.055 41.5953C103.684 41.4081 103.539 40.6893 103.145 40.5509C102.756 40.4144 102.191 40.8854 101.784 40.7997C101.38 40.7159 101.051 40.0579 100.635 40.0259C100.224 39.9958 99.8043 40.5977 99.3878 40.6203C98.9781 40.6439 98.4899 40.0928 98.0791 40.1711C97.6769 40.2465 97.4276 40.9391 97.0282 41.0711C96.6287 41.2032 96.0168 40.7984 95.6479 40.9746C95.2713 41.1566 95.2068 41.8872 94.8646 42.1153C94.5166 42.3453 93.8182 42.1129 93.5085 42.3814C93.194 42.6546 93.3219 43.3791 93.0475 43.687C92.7712 43.9988 92.0389 43.9533 91.8057 44.2987C91.5724 44.6442 91.8842 45.3079 91.6978 45.6794C91.5113 46.0509 90.794 46.1953 90.6564 46.589C90.5207 46.9789 90.9916 47.5453 90.9066 47.9536C90.8235 48.358 90.1671 48.6868 90.1357 49.1029C90.1062 49.5152 90.7075 49.9362 90.7307 50.3535C90.7548 50.764 90.2053 51.2523 90.284 51.664C90.3627 52.066 91.0515 52.3176 91.1838 52.718C91.3162 53.1183 90.9129 53.7308 91.0893 54.1006C91.2715 54.4781 92.0008 54.5437 92.229 54.8868C92.459 55.2357 92.228 55.935 92.4964 56.2456C92.7696 56.5611 93.4926 56.4339 93.8003 56.7092C94.1119 56.9864 94.0674 57.7199 94.4126 57.9541C94.7577 58.1882 95.4198 57.8768 95.7909 58.064C96.162 58.2513 96.3071 58.97 96.7003 59.1084C97.0897 59.2449 97.6544 58.7739 98.0621 58.8596C98.4659 58.9434 98.795 59.6014 99.2104 59.6334C99.622 59.6635 100.041 59.0617 100.458 59.039C100.868 59.0154 101.356 59.5665 101.767 59.4882C102.168 59.4099 102.418 58.7202 102.818 58.5882C103.217 58.4562 103.829 58.8609 104.198 58.6847C104.574 58.5027 104.639 57.7722 104.981 57.5441C105.329 57.3141 106.028 57.5465 106.337 57.278C106.652 57.0047 106.524 56.2802 106.798 55.9723C107.075 55.6606 107.807 55.7061 108.04 55.3606C108.273 55.0151 107.962 54.3515 108.148 53.98C108.334 53.6084 109.052 53.464 109.189 53.0703C109.325 52.6804 108.854 52.114 108.939 51.7058C109.022 51.3013 109.679 50.9726 109.71 50.5565C109.74 50.1442 109.138 49.7231 109.115 49.3059C109.091 48.8953 109.64 48.407 109.562 47.9954C109.485 47.5895 108.794 47.3417 108.662 46.9414Z" fill="black"/>
<path d="M101.865 59.6174C101.842 59.625 101.818 59.6297 101.795 59.6344C101.524 59.6854 101.26 59.5397 101.005 59.3969C100.814 59.2908 100.619 59.1828 100.469 59.1909C100.312 59.201 100.127 59.3327 99.9463 59.4626C99.7124 59.6325 99.467 59.8063 99.199 59.7862C98.9271 59.7643 98.7083 59.5555 98.5009 59.3524C98.3452 59.1994 98.1818 59.0426 98.0306 59.0095C97.8794 58.9764 97.6667 59.0563 97.4598 59.1343C97.1877 59.237 96.907 59.3425 96.6506 59.2515C96.3942 59.1606 96.2387 58.9021 96.0898 58.6542C95.9763 58.4649 95.8608 58.2698 95.7231 58.2003C95.5853 58.1308 95.3603 58.1541 95.1411 58.1754C94.8509 58.2042 94.5512 58.233 94.3256 58.0808C94.1 57.9285 94.0172 57.6396 93.9373 57.3593C93.8765 57.1462 93.8137 56.9273 93.6971 56.8253C93.5834 56.7223 93.3585 56.688 93.1422 56.6509C92.8551 56.602 92.5555 56.554 92.3788 56.3473C92.203 56.1434 92.196 55.8422 92.1927 55.5526C92.1893 55.3301 92.1839 55.1018 92.099 54.9702C92.0159 54.8443 91.8093 54.7496 91.6142 54.6608C91.3473 54.5381 91.0709 54.4154 90.9527 54.1638C90.8373 53.9208 90.9077 53.6323 90.9781 53.3535C91.0312 53.1379 91.0881 52.9146 91.0386 52.7648C90.9891 52.6151 90.8104 52.4697 90.6393 52.3281C90.4165 52.1462 90.1843 51.9546 90.1359 51.6926C90.0848 51.422 90.2298 51.1568 90.372 50.9022C90.4776 50.7107 90.5852 50.5154 90.5769 50.3648C90.5667 50.2085 90.4349 50.022 90.306 49.8442C90.136 49.6096 89.9623 49.3635 89.9819 49.0951C90.0035 48.8228 90.2116 48.6038 90.414 48.3964C90.5665 48.2405 90.7229 48.077 90.7557 47.9256C90.7886 47.7742 90.7085 47.561 90.6304 47.3536C90.5276 47.0809 90.4218 46.7996 90.5123 46.5429C90.6028 46.2862 90.8606 46.1307 91.1078 45.9818C91.2966 45.8683 91.4912 45.7529 91.5604 45.615C91.6296 45.4772 91.6061 45.2517 91.5845 45.032C91.5553 44.7413 91.5262 44.4411 91.6788 44.2181C91.8305 43.9923 92.1188 43.9098 92.3985 43.8301C92.6112 43.7694 92.8295 43.7068 92.9312 43.5901C93.0339 43.4763 93.0678 43.2511 93.1046 43.0345C93.153 42.7469 93.2005 42.4469 93.4066 42.2701C93.6099 42.0943 93.9105 42.0876 94.1996 42.0847C94.4218 42.0816 94.6496 42.0766 94.7809 41.9916C94.9065 41.9086 95.0007 41.7018 95.0891 41.5064C95.2112 41.2392 95.3333 40.9625 95.5815 40.8453C95.8239 40.73 96.1119 40.801 96.3904 40.8719C96.6057 40.9253 96.8286 40.9826 96.978 40.9332C97.1275 40.8838 97.2724 40.705 97.4134 40.5338C97.5948 40.3109 97.7857 40.0785 98.0471 40.0304C98.3172 39.9795 98.5821 40.1251 98.8394 40.2669C99.0306 40.373 99.2257 40.4811 99.376 40.4729C99.5321 40.4629 99.7181 40.3311 99.8954 40.2022C100.129 40.0323 100.375 39.8585 100.643 39.8786C100.915 39.9006 101.133 40.1094 101.341 40.3124C101.496 40.4654 101.66 40.6222 101.811 40.6553C101.962 40.6884 102.178 40.6076 102.382 40.5306C102.654 40.4279 102.935 40.3223 103.191 40.4133C103.447 40.5043 103.603 40.7627 103.753 41.0135C103.866 41.2028 103.982 41.3979 104.12 41.4674C104.257 41.5369 104.482 41.5136 104.702 41.4923C104.992 41.4635 105.291 41.4347 105.517 41.587C105.743 41.7392 105.825 42.0281 105.905 42.3084C105.966 42.5215 106.029 42.7404 106.146 42.8424C106.259 42.9454 106.484 42.9797 106.7 43.0168C106.988 43.0657 107.287 43.1137 107.464 43.3204C107.64 43.5243 107.647 43.8255 107.65 44.1151C107.653 44.3376 107.659 44.5659 107.744 44.6975C107.827 44.8234 108.033 44.9181 108.228 45.0069C108.495 45.1296 108.772 45.2523 108.889 45.501C109.004 45.7441 108.934 46.0325 108.864 46.3113C108.81 46.527 108.754 46.7502 108.803 46.9C108.853 47.0498 109.031 47.1951 109.202 47.3367C109.425 47.5186 109.657 47.7102 109.706 47.9722C109.757 48.2428 109.612 48.508 109.471 48.7655C109.365 48.957 109.255 49.1532 109.266 49.3029C109.276 49.4592 109.408 49.6457 109.538 49.8264C109.708 50.061 109.881 50.3071 109.862 50.5755C109.84 50.8478 109.632 51.0668 109.43 51.2742C109.277 51.43 109.121 51.5935 109.088 51.745C109.055 51.8964 109.135 52.1095 109.213 52.3169C109.316 52.5896 109.422 52.871 109.331 53.1277C109.241 53.3844 108.983 53.5399 108.733 53.6897C108.544 53.8032 108.35 53.9186 108.28 54.0565C108.211 54.1944 108.235 54.4198 108.256 54.6395C108.285 54.9302 108.315 55.2305 108.163 55.4563C108.01 55.6793 107.723 55.7647 107.443 55.8443C107.231 55.905 107.012 55.9676 106.91 56.0843C106.808 56.1981 106.774 56.4233 106.737 56.64C106.689 56.9275 106.641 57.2275 106.435 57.4043C106.232 57.5801 105.931 57.5868 105.642 57.5897C105.42 57.5928 105.195 57.5969 105.061 57.6828C104.935 57.7658 104.841 57.9727 104.753 58.168C104.63 58.4352 104.508 58.712 104.257 58.8301C104.019 58.9473 103.727 58.8744 103.448 58.8035C103.233 58.75 103.01 58.6927 102.861 58.7421C102.711 58.7915 102.566 58.9704 102.425 59.1416C102.262 59.3329 102.092 59.5424 101.865 59.6174ZM100.268 58.9218C100.325 58.9028 100.385 58.8895 100.447 58.8849C100.685 58.8704 100.923 59.0025 101.149 59.1289C101.357 59.2456 101.575 59.3652 101.737 59.3341C101.892 59.302 102.044 59.1174 102.194 58.9337C102.362 58.7281 102.538 58.5167 102.77 58.4398C103.003 58.3628 103.271 58.4308 103.528 58.493C103.753 58.5494 103.99 58.6086 104.133 58.542C104.282 58.4705 104.383 58.2455 104.483 58.0271C104.59 57.7906 104.702 57.5426 104.901 57.4128C105.106 57.2782 105.378 57.2743 105.642 57.2703C105.876 57.2663 106.12 57.2623 106.242 57.1582C106.366 57.0502 106.406 56.8067 106.444 56.5738C106.486 56.314 106.529 56.0476 106.689 55.8668C106.849 55.6861 107.11 55.6092 107.364 55.5381C107.591 55.4727 107.827 55.4044 107.917 55.2723C108.009 55.1365 107.983 54.8928 107.959 54.6577C107.933 54.3949 107.908 54.1253 108.014 53.908C108.121 53.6906 108.356 53.5523 108.582 53.4168C108.784 53.2957 108.994 53.1688 109.049 53.0165C109.101 52.8651 109.015 52.6347 108.932 52.4129C108.838 52.1661 108.744 51.9098 108.793 51.673C108.842 51.4363 109.03 51.2432 109.214 51.0549C109.381 50.8847 109.551 50.7069 109.561 50.5439C109.572 50.3837 109.43 50.1848 109.293 49.9935C109.139 49.7791 108.98 49.5571 108.966 49.3125C108.951 49.0746 109.083 48.8362 109.209 48.6093C109.325 48.4016 109.444 48.1833 109.413 48.0211C109.383 47.8647 109.196 47.7126 109.012 47.5624C108.807 47.3939 108.596 47.2177 108.519 46.9844C108.442 46.7511 108.509 46.4828 108.571 46.226C108.627 45.9999 108.686 45.7632 108.619 45.6191C108.547 45.4702 108.323 45.3688 108.104 45.2684C107.868 45.1611 107.62 45.0481 107.491 44.8482C107.356 44.6435 107.352 44.3702 107.347 44.1065C107.343 43.8715 107.339 43.6269 107.235 43.5048C107.127 43.3807 106.884 43.3397 106.651 43.3015C106.392 43.2594 106.126 43.2164 105.945 43.0556C105.764 42.8949 105.687 42.6328 105.616 42.3785C105.55 42.151 105.482 41.9148 105.35 41.8243C105.215 41.7346 104.971 41.7578 104.736 41.781C104.474 41.807 104.205 41.8321 103.988 41.7249C103.774 41.6168 103.632 41.3824 103.497 41.1556C103.376 40.9529 103.249 40.7424 103.097 40.6873C102.946 40.635 102.716 40.7206 102.494 40.8033C102.247 40.8946 101.992 40.9916 101.756 40.9419C101.52 40.8922 101.327 40.7036 101.138 40.5198C100.968 40.3524 100.791 40.1811 100.628 40.171C100.468 40.16 100.27 40.3022 100.079 40.4388C99.865 40.5925 99.6436 40.7519 99.3994 40.7655C99.162 40.7801 98.9238 40.6479 98.6972 40.5216C98.4897 40.4049 98.2716 40.2853 98.1098 40.3164C97.9537 40.3456 97.8021 40.5331 97.6524 40.7167C97.4845 40.9224 97.3098 41.1367 97.0771 41.2136C96.8443 41.2905 96.5764 41.2225 96.319 41.1574C96.0932 41.1011 95.8568 41.0418 95.7131 41.1085C95.5646 41.1799 95.4636 41.405 95.3637 41.6233C95.257 41.8599 95.1445 42.1079 94.9451 42.2377C94.7409 42.3722 94.4681 42.3762 94.2048 42.3801C93.9703 42.3842 93.7262 42.3882 93.6044 42.4923C93.4807 42.6003 93.44 42.8437 93.4023 43.0767C93.3606 43.3364 93.318 43.6029 93.1578 43.7836C92.9976 43.9644 92.7351 44.0383 92.4822 44.1123C92.2552 44.1778 92.0196 44.2461 91.9294 44.3781C91.8401 44.5131 91.8636 44.7577 91.887 44.9927C91.9134 45.2556 91.9387 45.5251 91.832 45.7425C91.7254 45.9599 91.4905 46.0982 91.2644 46.2336C91.0621 46.3548 90.8523 46.4816 90.7974 46.6339C90.7454 46.7853 90.8311 47.0157 90.914 47.2376C91.0055 47.4853 91.1026 47.7407 91.0533 47.9774C91.0041 48.2141 90.8161 48.4073 90.6329 48.5956C90.466 48.7658 90.2952 48.9436 90.2854 49.1066C90.2745 49.2667 90.4168 49.4657 90.5533 49.657C90.7071 49.8713 90.8665 50.0934 90.8804 50.338C90.8953 50.5759 90.7637 50.8142 90.6379 51.0411C90.5216 51.2489 90.4025 51.4671 90.4338 51.6293C90.4632 51.7857 90.6505 51.9379 90.834 52.0881C91.0396 52.2566 91.2508 52.4327 91.3279 52.666C91.405 52.8993 91.3375 53.1676 91.2757 53.4245C91.2198 53.6506 91.1609 53.8873 91.2277 54.0314C91.2992 54.1802 91.5249 54.2845 91.7421 54.3821C91.9783 54.4893 92.226 54.6023 92.3559 54.8022C92.4905 55.0069 92.4947 55.2803 92.499 55.544C92.5034 55.779 92.5077 56.0235 92.6118 56.1457C92.7198 56.2697 92.9628 56.3108 93.1954 56.349C93.4547 56.391 93.7208 56.4341 93.9014 56.5948C94.0821 56.7556 94.1591 57.0176 94.2304 57.272C94.2961 57.4995 94.3645 57.7356 94.4965 57.8262C94.6322 57.9187 94.8755 57.8926 95.11 57.8694C95.3724 57.8434 95.6415 57.8184 95.8586 57.9255C96.0757 58.0327 96.214 58.2681 96.3495 58.4949C96.4707 58.6976 96.5977 58.908 96.7498 58.9632C96.9009 59.0155 97.1309 58.9299 97.3522 58.8472C97.5984 58.753 97.8541 58.6589 98.0905 58.7086C98.3269 58.7582 98.5199 58.9468 98.7081 59.1306C98.8782 59.298 99.056 59.4693 99.2187 59.4794C99.3785 59.4905 99.5741 59.3492 99.7677 59.2117C99.9278 59.0981 100.093 58.9797 100.268 58.9218Z" fill="#4A5161"/>
<path d="M96.0435 54.228C95.9343 54.2641 95.8071 54.2358 95.7249 54.1416C95.3523 53.728 95.0277 53.2666 94.7616 52.77C93.1265 49.7035 94.0831 45.9913 96.8899 44.4918C99.6967 42.9922 103.309 44.2679 104.944 47.3343C105.038 47.5111 105.126 47.6927 105.203 47.8751C105.269 48.0288 105.197 48.206 105.044 48.2726C104.887 48.3373 104.714 48.2667 104.647 48.1131C104.576 47.9479 104.496 47.7827 104.41 47.6194C102.934 44.8488 99.6897 43.6846 97.1752 45.0269C94.6635 46.3681 93.8186 49.7143 95.2953 52.4849C95.5376 52.9384 95.8336 53.3613 96.1708 53.7354C96.2826 53.8614 96.2755 54.0523 96.1499 54.1641C96.1221 54.1956 96.0838 54.2147 96.0435 54.228Z" fill="white"/>
<path d="M96.0913 54.3724C95.9218 54.4285 95.7333 54.3789 95.6129 54.2462C95.2308 53.823 94.8995 53.3511 94.6295 52.8429C93.8225 51.3269 93.6017 49.6076 94.0164 48.0074C94.4291 46.4014 95.4252 45.1041 96.8215 44.3616C98.2167 43.6161 99.8453 43.5091 101.409 44.0627C102.968 44.6144 104.272 45.7521 105.079 47.2681C105.173 47.4477 105.264 47.635 105.344 47.8194C105.442 48.0489 105.336 48.3171 105.104 48.4161C104.867 48.517 104.607 48.4078 104.508 48.1754C104.44 48.016 104.363 47.8527 104.279 47.6952C102.844 45.0005 99.6886 43.8644 97.2498 45.1656C94.811 46.4669 93.9959 49.7201 95.4326 52.4177C95.6691 52.8635 95.9575 53.2729 96.289 53.6394C96.4561 53.8269 96.4422 54.1127 96.259 54.2819C96.2082 54.321 96.1517 54.3525 96.0913 54.3724ZM97.778 44.2754C97.4992 44.3676 97.2252 44.4837 96.9626 44.6248C95.6431 45.3293 94.7007 46.5576 94.3082 48.0803C93.9147 49.6096 94.1251 51.2493 94.8969 52.697C95.1564 53.1831 95.4724 53.6377 95.8383 54.0407C95.8927 54.0994 95.9913 54.1084 96.0517 54.0501C96.1131 53.9946 96.119 53.8968 96.0608 53.8362C95.714 53.4525 95.4113 53.019 95.1623 52.5549C93.6455 49.7113 94.5174 46.2732 97.1019 44.8918C99.6873 43.5134 103.026 44.7038 104.54 47.5483C104.63 47.7136 104.709 47.8855 104.78 48.0535C104.813 48.1323 104.9 48.1642 104.982 48.1338C105.019 48.1185 105.047 48.0899 105.06 48.0506C105.076 48.0132 105.075 47.972 105.06 47.9355C104.986 47.7588 104.898 47.5801 104.806 47.4091C104.034 45.9585 102.788 44.8718 101.302 44.3472C100.12 43.9262 98.8959 43.906 97.778 44.2754Z" fill="#263238"/>
<path d="M129.014 89.3135C129.014 89.3135 139.742 82.5859 142.238 77.9273C142.238 77.9273 142.992 83.7482 145.86 85.9948C148.729 88.2414 158.892 93.3359 160.741 94.4275C162.591 95.519 166.293 98.3016 167.026 97.9539C167.762 97.6052 168.726 93.4529 169.078 92.2696C169.43 91.0892 170.395 90.093 170.049 88.3992C169.702 86.7025 168.711 86.9247 168.487 87.532C168.264 88.1393 166.78 90.2943 165.662 91.0886C164.545 91.8829 163.345 92.7777 163.345 92.7777C163.345 92.7777 158.963 89.6448 155.077 85.6034C151.191 81.5621 145.82 73.3345 144.452 71.7612C143.082 70.1916 141.742 69.9955 140.305 70.4704C138.869 70.9453 134.271 72.4649 127.398 78.6755C120.525 84.8862 121.955 88.2474 123.135 89.2438C124.314 90.244 126.58 90.6675 129.014 89.3135Z" fill="black"/>
<path d="M167.05 98.112C166.452 98.3096 164.88 97.3148 162.571 95.7873C161.861 95.3161 161.188 94.8708 160.666 94.5642C160.143 94.2575 158.957 93.6275 157.453 92.8305C153.624 90.8023 147.836 87.7378 145.771 86.12C143.312 84.195 142.394 79.7891 142.156 78.3824C139.334 82.992 129.521 89.1778 129.096 89.4459C129.093 89.4469 129.09 89.4478 129.089 89.4517C126.607 90.8276 124.264 90.4009 123.039 89.368C122.734 89.1109 122.025 88.3615 121.999 86.9517C121.97 85.3414 122.867 82.5784 127.3 78.5705C134.196 72.336 138.76 70.8278 140.26 70.332C141.924 69.7821 143.295 70.2075 144.568 71.6683C145.03 72.1963 145.928 73.4584 147.068 75.056C149.404 78.3319 152.603 82.8141 155.189 85.5058C158.716 89.1768 162.704 92.1271 163.346 92.5953C163.645 92.3719 164.644 91.6328 165.576 90.9702C166.672 90.1892 168.138 88.0467 168.347 87.4825C168.475 87.1367 168.8 86.9143 169.14 86.9394C169.375 86.9574 169.946 87.1328 170.201 88.3746C170.454 89.6135 170.045 90.4773 169.647 91.3084C169.483 91.6531 169.328 91.9758 169.225 92.3198C169.159 92.543 169.068 92.8765 168.962 93.2693C168.324 95.6495 167.699 97.8082 167.092 98.0949C167.079 98.1025 167.064 98.1073 167.05 98.112ZM142.191 77.786C142.214 77.7784 142.242 77.7756 142.266 77.7805C142.33 77.7912 142.38 77.8451 142.388 77.9094C142.395 77.9679 143.169 83.6958 145.953 85.8779C147.996 87.4803 153.769 90.5371 157.591 92.5614C159.098 93.3604 160.291 93.9914 160.818 94.3029C161.345 94.6143 162.022 95.0615 162.736 95.5347C164.241 96.5292 166.52 98.0317 166.963 97.8212C167.495 97.5687 168.29 94.6098 168.671 93.1898C168.779 92.7931 168.869 92.4567 168.935 92.2335C169.044 91.8685 169.213 91.519 169.372 91.1819C169.749 90.3929 170.136 89.578 169.903 88.4379C169.754 87.7172 169.46 87.2713 169.116 87.2443C168.913 87.2283 168.712 87.3715 168.631 87.5899C168.407 88.1943 166.911 90.3914 165.753 91.2182C164.649 92.0049 163.452 92.8958 163.439 92.9063C163.386 92.9464 163.316 92.9472 163.261 92.9077C163.216 92.8778 158.822 89.72 154.971 85.7151C152.368 83.01 149.164 78.5133 146.821 75.2336C145.687 73.6437 144.79 72.3874 144.338 71.869C143.137 70.4928 141.91 70.1062 140.352 70.6209C138.867 71.112 134.349 72.605 127.498 78.7956C123.149 82.7251 122.269 85.3961 122.296 86.9459C122.319 88.2292 122.956 88.9035 123.23 89.1355C124.375 90.1021 126.579 90.4918 128.934 89.1865C129.176 89.0329 139.669 82.4023 142.104 77.8596C142.124 77.8241 142.157 77.7974 142.191 77.786ZM129.015 89.3162L129.018 89.3153L129.015 89.3162Z" fill="#263238"/>
<path d="M170.052 88.4016C169.705 86.7049 168.714 86.9271 168.491 87.5344C168.267 88.1417 166.783 90.2967 165.666 91.091C164.548 91.8853 163.349 92.7801 163.349 92.7801C163.349 92.7801 159.935 90.3399 156.462 86.9894C155.967 88.926 154.933 90.1751 154.136 90.889C157.102 92.4838 159.865 93.9092 160.744 94.4299C162.594 95.5214 166.296 98.304 167.029 97.9563C167.765 97.6077 168.729 93.4553 169.081 92.272C169.436 91.0907 170.402 90.0974 170.052 88.4016Z" fill="#FFE2B5"/>
<path d="M167.05 98.1117C166.453 98.3093 164.881 97.3145 162.572 95.787C161.861 95.3158 161.188 94.8705 160.666 94.5639C160.144 94.2572 158.953 93.6253 157.446 92.8263C156.426 92.285 155.26 91.6704 154.064 91.024C154.021 90.9999 153.992 90.9585 153.985 90.9096C153.979 90.8607 153.998 90.8128 154.034 90.7784C154.803 90.0865 155.827 88.8632 156.315 86.9544C156.329 86.9017 156.371 86.8625 156.42 86.8463C156.472 86.8321 156.528 86.8457 156.566 86.8842C159.682 89.8893 162.784 92.1866 163.344 92.596C163.643 92.3725 164.642 91.6334 165.573 90.9709C166.67 90.1899 168.136 88.0474 168.345 87.4832C168.473 87.1374 168.798 86.9149 169.137 86.94C169.373 86.958 169.944 87.1335 170.198 88.3753C170.452 89.6142 170.042 90.4779 169.644 91.3091C169.481 91.6538 169.326 91.9765 169.223 92.3204C169.157 92.5437 169.066 92.8771 168.96 93.27C168.322 95.6502 167.696 97.8089 167.09 98.0956C167.079 98.1023 167.065 98.107 167.05 98.1117ZM154.395 90.8572C155.526 91.4641 156.62 92.0449 157.589 92.5554C159.1 93.3562 160.294 93.9873 160.821 94.2987C161.348 94.6102 162.025 95.0574 162.739 95.5306C164.244 96.5251 166.522 98.0276 166.966 97.8171C167.498 97.5646 168.292 94.6057 168.674 93.1856C168.782 92.7889 168.871 92.4526 168.938 92.2294C169.047 91.8643 169.215 91.5148 169.374 91.1778C169.751 90.3887 170.139 89.5739 169.905 88.4338C169.756 87.7131 169.462 87.2671 169.119 87.2401C168.916 87.2241 168.714 87.3673 168.634 87.5857C168.409 88.1902 166.914 90.3873 165.756 91.2141C164.651 92.0008 163.454 92.8917 163.442 92.9022C163.388 92.9423 163.318 92.943 163.264 92.9035C163.23 92.8795 159.924 90.5058 156.545 87.2745C156.046 88.9953 155.137 90.1518 154.395 90.8572Z" fill="#263238"/>
<path d="M102.224 57.4606C102.224 57.4606 104.345 59.6444 104.765 60.4418C105.185 61.2391 104.365 62.0565 103.451 62.5915C102.538 63.1266 100.809 63.075 99.8466 65.3419C98.884 67.6089 97.6294 76.5247 97.4612 77.9062C97.2959 79.2866 98.1818 80.0864 99.6317 79.2941C101.082 78.5019 103.407 71.6504 103.407 71.6504C103.407 71.6504 110.597 76.2164 111.67 77.341C112.744 78.4684 113.275 80.7881 113.904 83.1551C114.53 85.523 115.294 89.0116 118.304 91.0582C121.314 93.1049 125.99 92.4189 129.011 89.3117C132.031 86.2085 133.804 78.3511 131.166 76.2615C128.529 74.1681 124.154 74.1511 122.124 72.0136C120.095 69.8762 120.046 68.3396 119.187 65.7389C118.327 63.1381 116.644 59.9755 116.644 59.9755C116.644 59.9755 122.203 56.5409 128.878 53.271C131.199 52.1334 128.767 49.8767 127.179 49.7785C125.187 49.6542 117.666 53.047 115.476 53.5473C112.314 54.2727 110.961 55.4259 110.423 56.1501C109.885 56.8744 109.206 57.8782 108.41 58.0646C107.614 58.2509 105.519 54.7294 105.519 54.7294C105.519 54.7294 104.047 57.0915 102.224 57.4606Z" fill="#6D597A"/>
<path d="M125.163 91.8956C122.752 92.6925 120.158 92.5019 118.221 91.1838C115.331 89.219 114.484 85.9719 113.865 83.5982L113.597 82.575C113.042 80.4519 112.516 78.4439 111.564 77.4454C110.606 76.4362 104.564 72.5644 103.493 71.88C103.104 72.9989 101.073 78.6794 99.7067 79.425C98.9851 79.8168 98.3341 79.8627 97.8771 79.5505C97.4287 79.245 97.2221 78.6392 97.3135 77.8838C97.4584 76.673 98.7257 67.5932 99.7075 65.2784C100.453 63.5209 101.634 63.1114 102.58 62.7826C102.878 62.681 103.155 62.5831 103.375 62.4562C103.783 62.2159 105.081 61.3684 104.63 60.5077C104.227 59.7401 102.136 57.5813 102.113 57.5602C102.075 57.5217 102.062 57.4622 102.076 57.4095C102.094 57.3558 102.135 57.3167 102.191 57.3044C103.93 56.9503 105.378 54.6667 105.393 54.6457C105.42 54.6017 105.472 54.575 105.522 54.5742C105.574 54.5763 105.624 54.6014 105.651 54.6465C106.653 56.328 107.948 58.0086 108.378 57.9112C109.051 57.7561 109.669 56.916 110.167 56.2434L110.305 56.054C110.802 55.3881 112.129 54.1543 115.444 53.3939C116.265 53.2057 117.896 52.5866 119.624 51.9295C122.575 50.8102 125.921 49.5416 127.189 49.6176C128.256 49.6834 129.745 50.6961 129.96 51.7815C130.053 52.2459 129.952 52.9054 128.945 53.398C122.888 56.3649 117.691 59.5073 116.845 60.0234C117.166 60.6391 118.573 63.3913 119.331 65.6839C119.519 66.2541 119.666 66.7648 119.809 67.2573C120.312 68.9986 120.674 70.2589 122.237 71.902C123.269 72.989 124.928 73.5141 126.684 74.0712C128.304 74.5866 129.978 75.1166 131.261 76.1364C132.03 76.7449 132.487 77.8589 132.584 79.3572C132.801 82.7135 131.248 87.2265 129.121 89.412C127.994 90.5832 126.612 91.4169 125.163 91.8956ZM103.363 71.5075C103.406 71.4933 103.453 71.5001 103.492 71.5223C103.787 71.7093 110.709 76.1115 111.783 77.2389C112.789 78.2961 113.324 80.3396 113.889 82.504L114.157 83.5272C114.764 85.8539 115.595 89.0357 118.391 90.9359C121.372 92.9633 125.992 92.2033 128.905 89.2118C130.947 87.1153 132.492 82.6176 132.282 79.3898C132.189 77.9797 131.773 76.9417 131.073 76.387C129.833 75.4039 128.185 74.8816 126.593 74.3759C124.798 73.8062 123.103 73.2675 122.017 72.1247C120.405 70.4278 120.014 69.0714 119.519 67.3532C119.376 66.8636 119.231 66.3558 119.044 65.7913C118.198 63.2309 116.53 60.0828 116.513 60.053C116.477 59.9819 116.499 59.8947 116.568 59.8527C116.624 59.8184 122.21 56.3781 128.816 53.1406C129.485 52.8138 129.772 52.3803 129.669 51.8553C129.48 50.9082 128.117 49.9946 127.176 49.935C125.972 49.8602 122.513 51.1725 119.735 52.2281C117.923 52.9166 116.356 53.5109 115.514 53.7029C112.291 54.4425 111.021 55.6161 110.548 56.2485L110.409 56.4351C109.883 57.1488 109.229 58.0357 108.448 58.2173C107.663 58.3999 106.059 55.908 105.516 55.0172C105.13 55.5761 103.965 57.1144 102.511 57.5471C103.038 58.1012 104.541 59.697 104.896 60.3752C105.284 61.1159 104.774 61.9937 103.524 62.7262C103.281 62.8674 102.987 62.9709 102.678 63.0793C101.786 63.3871 100.676 63.7729 99.983 65.4078C99.0137 67.6929 97.756 76.7248 97.6092 77.9298C97.5324 78.5654 97.6894 79.0694 98.0422 79.3074C98.4036 79.5522 98.9417 79.5021 99.5579 79.1675C100.666 78.565 102.465 73.9578 103.263 71.6079C103.284 71.5562 103.317 71.5227 103.363 71.5075Z" fill="#263238"/>
<path d="M118.772 52.4216C118.577 52.4958 118.384 52.569 118.197 52.6374C118.56 53.8719 119.383 55.83 121.147 57.349C121.33 57.247 121.521 57.1393 121.711 57.0315C119.943 55.5873 119.125 53.6148 118.772 52.4216Z" fill="#263238"/>
<path d="M121.329 71.0646C121.204 70.8983 121.088 70.732 120.983 70.5687C116.955 72.9734 114.21 77.0117 112.83 79.4259C112.922 79.6736 113.007 79.93 113.092 80.1988C114.33 77.927 117.117 73.559 121.329 71.0646Z" fill="#263238"/>
<path d="M110.852 76.652C111.039 76.7946 111.207 76.9275 111.344 77.042C112.216 75.332 114.603 71.5084 119.845 67.9164C119.785 67.7158 119.725 67.5056 119.665 67.2953C114.267 70.9261 111.801 74.7984 110.852 76.652Z" fill="#263238"/>
<path d="M103.406 68.4646C104.401 68.0113 109.073 65.6364 114.695 58.6507C115.618 59.5629 116.397 60.1648 116.466 60.2187C116.547 60.2813 116.654 60.297 116.746 60.2666C116.761 60.2618 116.777 60.2533 116.79 60.2456C116.703 60.0766 116.651 59.9786 116.651 59.9786C116.651 59.9786 116.741 59.9232 116.908 59.8202C116.888 59.7885 116.866 59.7606 116.835 59.7356C116.801 59.7086 113.558 57.2085 112.452 54.5936C112.26 54.6888 112.079 54.787 111.917 54.8853C112.139 55.3933 112.429 55.8949 112.759 56.3707C108.66 62.1021 103.588 64.6761 102.195 65.3026C101.804 64.6013 101.41 64.0543 101.098 63.6716C100.943 63.79 100.79 63.9238 100.642 64.0845C100.909 64.421 101.247 64.8939 101.588 65.4906C101.111 65.1946 100.586 65.004 100.073 64.8796C99.9958 65.0232 99.918 65.1735 99.8488 65.3402C99.8343 65.3737 99.8209 65.4101 99.8064 65.4436C100.762 65.6548 101.772 66.1164 102.342 67.0879C102.542 67.6064 102.718 68.1776 102.85 68.7985C102.187 68.1423 101.017 67.331 99.2678 67.2957C99.2225 67.4864 99.1771 67.6867 99.1327 67.8898C101.787 67.8686 102.932 69.8096 102.999 69.9249C103.013 69.946 103.028 69.9633 103.046 69.9797C103.083 70.3126 103.106 70.6531 103.112 71.0089C102.343 70.4483 100.765 69.558 98.7481 69.774C98.7104 69.9782 98.6698 70.1833 98.633 70.3903C101 70.0393 102.702 71.4066 103.107 71.7742C103.101 72.035 103.098 72.2882 103.095 72.5385C103.294 71.9935 103.412 71.6448 103.412 71.6448C103.412 71.6448 103.521 71.7142 103.71 71.8337C103.712 71.7723 103.712 71.7148 103.714 71.6534C103.751 70.4816 103.624 69.4147 103.406 68.4646ZM113.127 56.8878C113.492 57.3647 113.882 57.8109 114.267 58.214C108.924 64.8678 104.361 67.3312 103.249 67.8647C103.17 67.5873 103.083 67.3223 102.992 67.0679C102.989 67.0305 102.979 66.9892 102.961 66.9537C102.953 66.9402 102.946 66.9268 102.937 66.9104C102.791 66.5273 102.635 66.17 102.473 65.8435C103.963 65.1625 109.011 62.5645 113.127 56.8878Z" fill="#263238"/>
<path d="M123.649 73.0995C123.445 72.9943 123.25 72.8862 123.063 72.7658C118.535 75.8469 115.528 80.0004 113.832 82.874C113.857 82.968 113.882 83.0621 113.906 83.1562C113.952 83.3328 114 83.518 114.049 83.7033C115.669 80.8419 118.779 76.3225 123.649 73.0995Z" fill="#263238"/>
<path d="M118.981 65.1351C118.912 64.9469 118.84 64.7568 118.767 64.5667C111.523 67.3955 109.139 72.3844 108.374 74.8994C108.55 75.0198 108.723 75.1384 108.896 75.254C109.551 72.9448 111.76 67.9593 118.981 65.1351Z" fill="#263238"/>
<path d="M122.556 51.0047C122.359 51.076 122.163 51.1473 121.964 51.2195C122.199 52.4996 122.759 54.1865 124.052 55.7529C124.233 55.6547 124.418 55.5584 124.605 55.4583C123.314 53.9264 122.776 52.2416 122.556 51.0047Z" fill="#263238"/>
<path d="M114.711 53.7446C115.407 55.1375 116.637 57.2005 118.462 58.8913C118.635 58.7893 118.819 58.6805 119.012 58.569C117.245 56.9742 116.023 54.9659 115.315 53.5864C115.109 53.6385 114.906 53.6896 114.711 53.7446Z" fill="#263238"/>
<path d="M117.691 62.0822C117.601 61.8881 117.512 61.7066 117.429 61.5328C109.412 65.3009 106.392 70.2378 105.306 72.8717C105.477 72.9844 105.655 73.0982 105.838 73.2196C106.867 70.7294 109.807 65.8028 117.691 62.0822Z" fill="#263238"/>
<path d="M129.015 89.3131C131.514 86.7461 133.157 80.9253 132.156 77.8091C131.941 77.2282 131.629 76.7467 131.209 76.4097C130.853 76.1247 130.468 75.8367 130.065 75.5448C128.77 74.8482 127.256 74.4319 125.84 73.967C120.291 78.4557 116.805 84.9495 115.349 87.5074C115.991 88.8319 116.902 90.1027 118.308 91.0596C121.318 93.1062 125.994 92.4202 129.015 89.3131Z" fill="black"/>
<path d="M125.163 91.8957C122.752 92.6926 120.158 92.502 118.221 91.1839C116.955 90.3243 115.968 89.1425 115.21 87.5721C115.189 87.5279 115.19 87.4732 115.214 87.4301L115.486 86.9505C117.111 84.0749 120.491 78.0956 125.743 73.8487C125.783 73.8162 125.834 73.8058 125.884 73.8242C126.146 73.9104 126.409 73.9928 126.676 74.0771C127.852 74.452 129.069 74.8386 130.136 75.4126C130.597 75.7459 130.973 76.0272 131.3 76.2929C131.726 76.6347 132.061 77.1278 132.294 77.7567C133.301 80.8902 131.697 86.7716 129.121 89.4217C127.993 90.5833 126.611 91.4171 125.163 91.8957ZM115.519 87.5117C116.248 88.9957 117.189 90.116 118.393 90.9322C121.374 92.9596 125.993 92.1996 128.906 89.2081C131.421 86.623 132.987 80.895 132.01 77.8536C131.799 77.2814 131.495 76.8354 131.113 76.5273C130.788 76.2673 130.418 75.987 129.977 75.6663C128.95 75.1144 127.75 74.7317 126.585 74.3626C126.346 74.2851 126.108 74.2105 125.871 74.132C120.702 78.3389 117.361 84.2512 115.754 87.0953L115.519 87.5117Z" fill="#2E2E2E"/>
<path d="M96.0604 53.047C95.9387 53.0936 95.8256 53.1565 95.7221 53.2387C94.8823 53.89 94.9713 55.4133 95.9225 56.642C96.8708 57.8716 98.3202 58.3414 99.161 57.6929C99.3384 57.5544 99.4718 57.3794 99.5669 57.1754L96.0604 53.047Z" fill="white"/>
<path d="M98.7981 58.0531C98.4273 58.1756 97.9937 58.1656 97.5335 58.0174C96.8944 57.8101 96.2788 57.3555 95.7993 56.7344C95.3209 56.1162 95.0379 55.4047 94.9971 54.7313C94.9553 54.0359 95.1804 53.4631 95.6271 53.1173C95.7412 53.0285 95.8677 52.958 96.0038 52.9066C96.0641 52.8867 96.132 52.8994 96.1741 52.9494L99.6768 57.0758C99.714 57.121 99.7225 57.1853 99.6985 57.238C99.588 57.4726 99.4383 57.6658 99.2504 57.811C99.1133 57.917 98.9619 57.999 98.7981 58.0531ZM96.0185 53.2308C95.9447 53.268 95.8785 53.309 95.8153 53.3587C95.45 53.6423 95.2682 54.1241 95.3034 54.7131C95.3396 55.3241 95.6036 55.9781 96.0438 56.5482C96.4841 57.1183 97.05 57.5383 97.6317 57.7262C98.1952 57.9073 98.7065 57.8534 99.0689 57.5706C99.1955 57.4713 99.3039 57.346 99.3875 57.1938L96.0185 53.2308Z" fill="#263238"/>
<path d="M96.0584 53.0477C95.9367 53.0943 95.8236 53.1572 95.7201 53.2394C95.6232 53.3129 95.5407 53.4009 95.4707 53.4975L99.1072 57.7299C99.1254 57.7175 99.1446 57.7079 99.1619 57.6927C99.3392 57.5542 99.4726 57.3791 99.5678 57.1751L96.0584 53.0477Z" fill="white"/>
<path d="M99.1668 57.86C99.1064 57.88 99.0279 57.874 98.9897 57.8259L95.3532 53.5935C95.3064 53.5387 95.3027 53.46 95.3478 53.4036C95.4322 53.2926 95.5243 53.1951 95.6259 53.1168C95.74 53.0279 95.8665 52.9574 96.0026 52.906C96.0629 52.8861 96.1309 52.8988 96.1729 52.9488L99.6756 57.0752C99.7129 57.1204 99.7214 57.1847 99.6973 57.2374C99.5868 57.472 99.4371 57.6652 99.2492 57.8104C99.2338 57.8219 99.2204 57.8295 99.2051 57.841C99.1917 57.8486 99.1811 57.8553 99.1668 57.86ZM95.6674 53.4928L99.1243 57.5194C99.2298 57.4239 99.3133 57.3196 99.3805 57.1951L96.0144 53.2312C95.9406 53.2683 95.8745 53.3094 95.8112 53.359C95.7604 53.3982 95.7115 53.4431 95.6674 53.4928Z" fill="#263238"/>
<path d="M103.765 47.2911C103.842 47.1859 103.931 47.0893 104.035 47.01C104.875 46.3587 106.325 46.8285 107.273 48.0581C108.224 49.2868 108.313 50.81 107.476 51.4605C107.299 51.5989 107.094 51.6827 106.875 51.7232L103.765 47.2911Z" fill="white"/>
<path d="M107.121 51.8169C107.049 51.8407 106.975 51.8587 106.898 51.8747C106.84 51.8841 106.782 51.8619 106.746 51.8129L103.637 47.3808C103.601 47.3289 103.6 47.2588 103.636 47.2053C103.721 47.0847 103.823 46.9805 103.937 46.8917C104.841 46.1935 106.39 46.6723 107.388 47.9683C107.867 48.5864 108.153 49.2971 108.191 49.9714C108.232 50.6668 108.01 51.2386 107.564 51.5844C107.434 51.6846 107.287 51.7618 107.121 51.8169ZM106.936 51.5555C107.103 51.5129 107.252 51.4414 107.378 51.3421C107.744 51.0584 107.925 50.5766 107.89 49.9877C107.853 49.3738 107.59 48.7227 107.15 48.1526C106.253 46.9921 104.893 46.5341 104.122 47.1311C104.058 47.1807 104 47.2352 103.947 47.2974L106.936 51.5555Z" fill="#263238"/>
<path d="M107.121 51.8175C107.049 51.8412 106.976 51.8592 106.898 51.8753C106.841 51.8847 106.782 51.8624 106.747 51.8134L103.637 47.3813C103.601 47.3294 103.6 47.2594 103.637 47.2058C103.721 47.0852 103.824 46.981 103.938 46.8922C104.04 46.8139 104.155 46.7471 104.284 46.6948C104.351 46.6663 104.426 46.6895 104.468 46.7491L107.644 51.3348C107.688 51.4002 107.678 51.4865 107.618 51.5352C107.591 51.56 107.579 51.5734 107.563 51.582C107.435 51.6852 107.288 51.7624 107.121 51.8175ZM106.936 51.556C107.078 51.522 107.202 51.4648 107.315 51.3894L104.291 47.0247C104.232 47.0572 104.173 47.0924 104.122 47.1316C104.059 47.1813 104 47.2357 103.948 47.2979L106.936 51.556Z" fill="#263238"/>
<path d="M109.74 57.0573C109.346 57.5327 108.904 57.9503 108.418 58.0629C107.623 58.2493 105.528 54.7277 105.528 54.7277C105.528 54.7277 104.051 57.0879 102.229 57.457C102.229 57.457 104.35 59.6408 104.769 60.4382C105.11 61.0828 104.636 61.7411 103.96 62.252C104.681 63.2085 106.685 65.2807 109.533 63.4994C112.022 61.9451 110.761 58.8348 109.74 57.0573Z" fill="#FFE2B5"/>
<path d="M108.504 64.1607C106.145 64.9405 104.492 63.2185 103.834 62.3465C103.81 62.3129 103.801 62.2745 103.804 62.2352C103.81 62.1949 103.83 62.1595 103.863 62.1356C104.297 61.8071 104.973 61.1619 104.63 60.5116C104.227 59.744 102.136 57.5852 102.113 57.5641C102.075 57.5256 102.062 57.4661 102.076 57.4134C102.094 57.3597 102.135 57.3205 102.191 57.3082C103.93 56.9542 105.378 54.6706 105.393 54.6496C105.42 54.6055 105.472 54.5788 105.522 54.5781C105.574 54.5801 105.624 54.6052 105.651 54.6504C106.653 56.3319 107.948 58.0125 108.378 57.9151C108.754 57.8261 109.151 57.5224 109.618 56.9591C109.65 56.9199 109.698 56.9008 109.746 56.9039C109.795 56.9069 109.84 56.9368 109.864 56.98C110.887 58.7633 112.216 61.9947 109.604 63.6281C109.225 63.8715 108.858 64.0439 108.504 64.1607ZM104.169 62.2805C104.939 63.2496 106.826 65.0127 109.449 63.3725C111.761 61.928 110.665 59.0378 109.715 57.32C109.397 57.6805 108.957 58.0944 108.451 58.2107C107.666 58.3933 106.062 55.9013 105.519 55.0106C105.133 55.5694 103.968 57.1078 102.514 57.5404C103.041 58.0945 104.544 59.6904 104.899 60.3686C105.215 60.97 104.954 61.6443 104.169 62.2805Z" fill="#FEDEA5"/>
<path d="M106.855 56.7128C106.526 56.2754 106.21 55.8111 105.969 55.4402C105.803 55.2363 105.639 55.0191 105.477 54.8008C105.224 55.1817 103.867 57.1251 102.221 57.4584C102.221 57.4584 102.938 58.1991 103.621 58.9734C104.366 58.9508 105.371 58.791 105.993 58.1543C106.386 57.7528 106.661 57.2243 106.855 56.7128Z" fill="#263238"/>
<path d="M105.029 58.8968C104.552 59.0545 104.048 59.1094 103.628 59.1234C103.584 59.1252 103.539 59.1049 103.51 59.0732C102.836 58.3086 102.121 57.5707 102.115 57.563C102.077 57.5245 102.063 57.465 102.078 57.4123C102.095 57.3587 102.136 57.3195 102.193 57.3072C103.777 56.9882 105.101 55.0907 105.352 54.7136C105.38 54.6725 105.426 54.6477 105.477 54.6469C105.527 54.6461 105.573 54.6693 105.602 54.7077C105.771 54.9394 105.934 55.1538 106.088 55.3394C106.399 55.818 106.703 56.2543 106.975 56.6148C107.007 56.6552 107.013 56.7109 106.998 56.7607C106.759 57.389 106.459 57.8906 106.107 58.2529C105.805 58.5637 105.426 58.7658 105.029 58.8968ZM103.69 58.8187C104.395 58.7902 105.32 58.6283 105.887 58.048C106.196 57.7286 106.464 57.2884 106.681 56.7376C106.35 56.2973 106.042 55.8369 105.84 55.5237C105.729 55.391 105.607 55.2333 105.481 55.0641C105.066 55.6516 103.924 57.1248 102.51 57.5442C102.762 57.8029 103.233 58.3022 103.69 58.8187Z" fill="#263238"/>
<path d="M95.9245 52.0535C95.9245 52.0535 98.3018 55.9481 99.3742 56.8396C100.448 57.734 103.414 58.2327 104.654 57.9796C105.893 57.7266 106.247 55.9708 106.553 54.5438C106.859 53.1168 106.743 52.0625 105.953 50.6079C105.16 49.1544 103.436 46.9958 102.294 45.8912C101.553 45.1743 99.118 44.9919 97.3151 46.1341C95.5122 47.2763 94.8304 49.92 95.9245 52.0535Z" fill="#FFE2B5"/>
<path d="M104.863 58.0831C104.806 58.1021 104.747 58.1182 104.684 58.1295C103.343 58.4033 100.369 57.8625 99.2792 56.9575C98.1981 56.0592 95.8952 52.2934 95.7979 52.1339C95.7969 52.131 95.7931 52.1291 95.7912 52.1233C94.6809 49.96 95.3294 47.2154 97.2348 46.0074C99.1249 44.8109 101.631 45.0434 102.399 45.7862C103.518 46.8668 105.268 49.036 106.087 50.5414C106.864 51.9652 107.028 53.061 106.702 54.5809L106.684 54.6605C106.393 56.0185 106.033 57.6966 104.863 58.0831ZM96.0557 51.9784C96.1521 52.135 98.4445 55.8692 99.4692 56.7222C100.477 57.5617 103.354 58.0898 104.62 57.8311C105.738 57.6055 106.097 55.9341 106.387 54.5924L106.405 54.5128C106.72 53.0542 106.567 52.0506 105.821 50.6806C105.016 49.1992 103.291 47.0665 102.189 45.9994C101.506 45.3403 99.1396 45.1543 97.3981 46.2602C95.6192 47.388 95.0189 49.9505 96.0557 51.9784Z" fill="#263238"/>
<path d="M101.18 53.1276C101.171 53.1304 101.162 53.1333 101.153 53.1333C101.071 53.1445 100.995 53.0896 100.981 53.008C100.979 52.9927 100.924 52.6242 101.182 52.3153C101.395 52.0628 101.747 51.9306 102.225 51.9226C102.308 51.9209 102.378 51.9873 102.38 52.0727C102.382 52.1552 102.313 52.2259 102.231 52.2276C101.844 52.234 101.569 52.3281 101.415 52.5098C101.246 52.7097 101.278 52.961 101.279 52.9639C101.293 53.0359 101.249 53.1048 101.18 53.1276Z" fill="#263238"/>
<path d="M102.161 54.6588C101.477 54.8848 100.879 54.7726 100.865 54.7678C100.782 54.7502 100.731 54.6714 100.745 54.59C100.763 54.5075 100.841 54.456 100.923 54.4707C101.012 54.4892 103.123 54.8777 103.717 52.2787C103.735 52.1962 103.817 52.1466 103.9 52.1642C103.982 52.1817 104.031 52.2643 104.014 52.3468C103.679 53.8216 102.874 54.4232 102.161 54.6588Z" fill="#263238"/>
<path d="M99.0237 53.7026C98.699 53.8099 98.4559 53.7689 98.4358 53.7659C98.2731 53.7366 98.1633 53.578 98.1914 53.4122C98.2204 53.2493 98.3757 53.1404 98.5375 53.1669C98.5748 53.1737 99.2448 53.243 99.7591 52.1274C99.8302 51.9761 100.008 51.9076 100.159 51.979C100.311 52.0505 100.379 52.2291 100.308 52.3804C99.9159 53.2384 99.4117 53.5744 99.0237 53.7026Z" fill="#263238"/>
<path d="M102.752 50.8607C102.456 50.9585 102.159 50.9959 101.93 50.9952C101.764 50.9956 101.626 50.859 101.628 50.6893C101.627 50.5233 101.763 50.3857 101.93 50.3881C101.984 50.3893 103.274 50.3752 103.312 49.4201C103.317 49.2523 103.459 49.1223 103.627 49.1277C103.794 49.133 103.924 49.2754 103.919 49.4432C103.888 50.2554 103.324 50.6717 102.752 50.8607Z" fill="#263238"/>
<path d="M97.6053 52.4365C97.5306 52.4612 97.4484 52.4245 97.4179 52.3515C97.4036 52.3179 97.0672 51.5026 97.4313 50.8104C97.6532 50.392 98.075 50.1152 98.6908 49.9916C98.7712 49.9746 98.8525 50.0276 98.8705 50.1111C98.8876 50.1917 98.8376 50.2721 98.7515 50.291C98.2286 50.3967 97.8749 50.6191 97.6991 50.9551C97.4012 51.52 97.6928 52.2287 97.6957 52.2373C97.7281 52.3161 97.6935 52.4042 97.6149 52.4365C97.614 52.4337 97.6082 52.4356 97.6053 52.4365Z" fill="#263238"/>
<path d="M100.511 48.9812C100.477 48.9926 100.438 48.9925 100.401 48.9761C100.325 48.9403 100.29 48.853 100.325 48.7744C100.331 48.7629 100.934 47.474 102.554 47.8523C102.637 47.8698 102.686 47.9525 102.669 48.0349C102.651 48.1173 102.569 48.1669 102.487 48.1494C101.105 47.8265 100.605 48.8895 100.599 48.9009C100.581 48.9421 100.548 48.9689 100.511 48.9812Z" fill="#263238"/>
<path d="M94.1233 54.8363C94.1233 54.8363 94.6341 57.0859 95.0296 57.5782C95.425 58.0705 98.0165 59.5557 98.5299 59.9324C99.0432 60.309 99.1351 60.3553 98.8755 61.9235C98.616 63.4916 95.6514 74.0621 96.1594 76.3126C96.6702 78.5622 97.4611 80.4828 99.6355 79.2978C101.813 78.1117 101.214 71.8339 101.105 68.2056C100.996 64.5772 100.63 59.941 100.328 59.0251C100.026 58.1121 96.3243 56.8084 95.9197 56.645C95.5179 56.4807 94.9821 55.332 94.7736 54.7012C94.5661 54.0638 94.2155 54.1796 94.1233 54.8363Z" fill="#FFE2B5"/>
<path d="M99.1215 79.6865C98.6215 79.8518 98.1735 79.8465 97.7832 79.6688C96.7856 79.2158 96.3279 77.7345 96.0136 76.34C95.6272 74.6308 97.1775 68.3263 98.1036 64.5603C98.4143 63.2916 98.6631 62.2892 98.7271 61.8943C98.9691 60.4374 98.9108 60.3959 98.4596 60.0626C98.2789 59.9307 97.8859 59.6868 97.4288 59.4034C96.4344 58.7864 95.1932 58.0209 94.9115 57.67C94.5056 57.1652 94.027 55.0998 93.9757 54.8676C93.9729 54.8493 93.97 54.8311 93.9729 54.811C94.0331 54.3949 94.1963 54.1461 94.4184 54.1238C94.5391 54.1127 94.7639 54.1662 94.922 54.6443C95.1733 55.4046 95.6893 56.3778 95.9801 56.4957C96.0213 56.5141 96.1007 56.5421 96.2097 56.5828C98.9199 57.6071 100.276 58.3633 100.476 58.9682C100.795 59.933 101.153 64.6325 101.261 68.1908C101.276 68.6521 101.295 69.1538 101.32 69.6823C101.479 73.3357 101.694 78.3378 99.7117 79.418C99.5057 79.5372 99.3083 79.6248 99.1215 79.6865ZM94.2725 54.8301C94.4197 55.4684 94.8398 57.1058 95.1425 57.4818C95.3918 57.7923 96.7104 58.6089 97.5834 59.1478C98.0644 59.4457 98.4412 59.679 98.6142 59.8071C99.2107 60.2425 99.2774 60.4057 99.0209 61.9442C98.954 62.3496 98.7042 63.3587 98.3926 64.6341C97.4742 68.3752 95.9345 74.6346 96.3048 76.2758C96.5877 77.5177 97.0215 78.994 97.9053 79.392C98.3587 79.5968 98.9007 79.5199 99.5629 79.1605C101.381 78.1699 101.166 73.2762 101.012 69.7043C100.989 69.172 100.966 68.6684 100.953 68.2061C100.837 64.3533 100.463 59.9118 100.184 59.0679C100.071 58.7281 99.2704 58.0695 96.0981 56.872C95.9881 56.8285 95.9049 56.7985 95.8609 56.7811C95.3711 56.582 94.8182 55.3239 94.626 54.7421C94.5412 54.4858 94.4552 54.4279 94.436 54.4279C94.4178 54.4307 94.3239 54.5129 94.2725 54.8301Z" fill="#263238"/>
<path d="M101.105 68.2013C101.094 67.8407 101.081 67.4714 101.065 67.0964L97.6842 66.9071C96.8149 70.5266 95.8493 74.9446 96.1597 76.3084C96.6705 78.558 97.4615 80.4786 99.6359 79.2935C101.813 78.1075 101.215 71.8326 101.105 68.2013Z" fill="#6D597A"/>
<path d="M99.1219 79.6867C98.6218 79.8519 98.1738 79.8467 97.7836 79.669C96.7859 79.216 96.3283 77.7347 96.014 76.3402C95.6912 74.9102 96.7301 70.2508 97.5415 66.8709C97.5598 66.8009 97.6231 66.7513 97.6978 66.7554L101.078 66.9417C101.155 66.9449 101.217 67.0074 101.221 67.086C101.237 67.4611 101.251 67.8332 101.262 68.1939C101.277 68.6552 101.297 69.1568 101.321 69.6853C101.48 73.3388 101.696 78.3408 99.713 79.421C99.506 79.5374 99.3087 79.6249 99.1219 79.6867ZM97.8035 67.0655C97.0045 70.4061 96.0014 74.9227 96.308 76.275C96.591 77.5169 97.0247 78.9933 97.9086 79.3912C98.3619 79.596 98.9039 79.5191 99.5661 79.1597C101.384 78.1691 101.169 73.2755 101.015 69.7035C100.992 69.1712 100.969 68.6676 100.957 68.2053C100.948 67.8888 100.937 67.5666 100.921 67.2395L97.8035 67.0655Z" fill="#263238"/>
<path d="M97.0731 69.56C97.0683 69.584 97.0634 69.6079 97.0586 69.6319C97.0461 69.6903 97.0326 69.7459 97.02 69.8044C96.992 69.9318 96.9669 70.0583 96.9379 70.1829C97.7642 70.1079 99.2013 70.0387 101.185 70.1467C101.176 69.9386 101.167 69.7372 101.159 69.5386C99.3116 69.4368 97.9358 69.4889 97.0731 69.56Z" fill="#263238"/>
<path d="M100.817 77.5106C100.881 77.2912 100.937 77.0554 100.986 76.8091C99.0791 77.481 97.5433 77.5988 96.4961 77.5552C96.5684 77.7741 96.6465 77.9815 96.7304 78.1774C97.7528 78.1941 99.1364 78.0595 100.817 77.5106Z" fill="#263238"/>
<path d="M96.3267 73.3878C96.317 73.4453 96.3073 73.5028 96.3005 73.5594C96.2918 73.6198 96.2811 73.684 96.2724 73.7444C96.2578 73.8451 96.2471 73.9381 96.2345 74.0349C97.4039 73.773 99.2223 73.517 101.259 73.7672C101.262 73.5648 101.265 73.3596 101.264 73.1553C99.2885 72.9169 97.5305 73.1337 96.3267 73.3878Z" fill="#263238"/>
<path d="M105.519 45.5713C105.519 45.5713 107.723 46.242 108.184 46.6712C108.645 47.1033 109.938 49.7976 110.275 50.3376C110.613 50.8777 110.654 50.9728 112.235 50.8273C113.815 50.6789 124.554 48.4713 126.756 49.1429C128.96 49.8137 130.816 50.7403 129.479 52.8305C128.143 54.9208 121.936 53.8765 118.329 53.5063C114.723 53.136 110.133 52.4422 109.243 52.0749C108.353 51.7076 107.32 47.9152 107.187 47.5024C107.053 47.0896 105.947 46.4713 105.331 46.218C104.721 45.9629 104.862 45.619 105.519 45.5713Z" fill="#FFE2B5"/>
<path d="M128.207 53.8729C126.144 54.5549 122.578 54.1425 119.8 53.821C119.274 53.7617 118.776 53.7026 118.317 53.656C114.781 53.2946 110.127 52.5997 109.189 52.2131C108.602 51.9695 107.942 50.5614 107.118 47.7795C107.085 47.6691 107.061 47.5875 107.047 47.5443C106.951 47.2438 106.018 46.6577 105.279 46.3523C104.814 46.1609 104.776 45.9306 104.795 45.8127C104.83 45.5904 105.091 45.4464 105.509 45.417C105.528 45.4171 105.547 45.4172 105.565 45.4239C105.795 45.4918 107.815 46.1178 108.289 46.5586C108.621 46.8675 109.294 48.1596 109.837 49.1971C110.086 49.6707 110.299 50.0828 110.407 50.2548C110.717 50.7497 110.753 50.8112 112.222 50.674C112.62 50.635 113.637 50.4618 114.923 50.2415C118.738 49.5844 125.126 48.4858 126.802 48.9956C128.164 49.4114 129.608 49.9723 129.99 51.0026C130.195 51.5547 130.066 52.1978 129.61 52.9108C129.324 53.3567 128.836 53.6649 128.207 53.8729ZM105.244 45.7729C105.132 45.81 105.095 45.854 105.092 45.8645C105.091 45.8808 105.144 45.9721 105.392 46.0755C105.956 46.3075 107.17 46.9511 107.332 47.4532C107.347 47.4964 107.371 47.5808 107.406 47.6941C108.373 50.9493 108.972 51.7961 109.301 51.9334C110.121 52.2726 114.515 52.9638 118.345 53.3531C118.803 53.3996 119.304 53.4578 119.831 53.5199C123.377 53.9293 128.236 54.4897 129.352 52.7469C129.76 52.1105 129.873 51.5747 129.703 51.1071C129.367 50.1959 127.929 49.6552 126.714 49.2869C125.108 48.7983 118.765 49.8885 114.974 50.5409C113.68 50.764 112.66 50.9382 112.249 50.9781C110.697 51.1237 110.54 51.0445 110.161 50.4381C110.034 50.2373 109.83 49.8415 109.566 49.341C109.09 48.4313 108.374 47.0547 108.08 46.7843C107.726 46.4542 106.126 45.9158 105.502 45.7258C105.39 45.7341 105.307 45.7521 105.244 45.7729Z" fill="#263238"/>
<path d="M118.332 53.5052C117.975 53.4696 117.605 53.4291 117.234 53.3857L117.289 49.9938C120.955 49.386 125.426 48.7358 126.758 49.1419C128.963 49.8127 130.818 50.7393 129.482 52.8295C128.145 54.9197 121.938 53.8755 118.332 53.5052Z" fill="#6D597A"/>
<path d="M128.207 53.8735C126.144 54.5555 122.578 54.1431 119.8 53.8216C119.274 53.7623 118.776 53.7032 118.317 53.6566C117.958 53.619 117.591 53.5804 117.217 53.538C117.14 53.5282 117.08 53.4618 117.083 53.3841L117.138 49.9922C117.139 49.9184 117.189 49.8572 117.265 49.8449C120.688 49.2757 125.403 48.5707 126.805 48.9952C128.167 49.411 129.611 49.9719 129.993 51.0022C130.198 51.5543 130.069 52.1974 129.613 52.9104C129.324 53.3573 128.834 53.6665 128.207 53.8735ZM118.346 53.3565C118.804 53.4031 119.305 53.4613 119.832 53.5234C123.378 53.9328 128.237 54.4932 129.353 52.7504C129.761 52.1139 129.874 51.5782 129.704 51.1106C129.368 50.1994 127.93 49.6587 126.715 49.2903C125.389 48.8881 120.82 49.5677 117.438 50.1265L117.388 53.2547C117.711 53.2883 118.032 53.3229 118.346 53.3565Z" fill="#263238"/>
<path d="M123.842 54.0537C124.047 54.0658 124.247 54.0732 124.447 54.0805L124.722 49.0379C124.59 49.0432 124.456 49.0524 124.316 49.0634C124.288 49.0662 124.256 49.0671 124.229 49.0699C124.191 49.0726 124.151 49.0763 124.114 49.0791L123.842 54.0537Z" fill="#263238"/>
<path d="M121.103 49.41C121.051 49.4175 120.996 49.426 120.944 49.4306C120.804 49.4513 120.663 49.469 120.523 49.4897L120.244 53.7191C120.399 53.7349 120.555 53.7536 120.712 53.7723C120.755 53.7773 120.801 53.7813 120.847 53.7881L121.136 49.4053C121.125 49.4091 121.115 49.4091 121.103 49.41Z" fill="#263238"/>
<path d="M127.884 49.5301C127.786 50.5368 127.6 52.3651 127.38 53.9295C127.603 53.888 127.816 53.8398 128.013 53.7809C128.209 52.3555 128.371 50.7746 128.466 49.788C128.283 49.6954 128.085 49.6104 127.884 49.5301Z" fill="#263238"/>
<path d="M163.861 93.6787C164.531 93.7768 165.201 94.1942 165.201 94.1942C165.201 94.1942 165.174 94.9795 164.023 96.6954C165.39 97.3807 166.66 98.1366 167.035 97.9585C167.771 97.6099 168.735 93.4575 169.086 92.2742C169.439 91.0939 170.404 90.0977 170.058 88.4039C169.711 86.7072 168.719 86.9294 168.496 87.5367C168.273 88.144 166.445 90.4925 165.328 91.2897C164.21 92.084 163.352 92.7861 163.352 92.7861C163.352 92.7861 163.191 93.5806 163.861 93.6787Z" fill="#F37630"/>
<path d="M167.052 98.1118C166.69 98.2314 165.972 97.8743 164.769 97.2528C164.504 97.1167 164.227 96.972 163.948 96.8311C163.909 96.8118 163.879 96.7771 163.868 96.7359C163.858 96.6946 163.865 96.6476 163.888 96.6113C164.782 95.2772 164.984 94.5174 165.028 94.2759C164.832 94.1649 164.328 93.9034 163.833 93.8309C163.612 93.7985 163.445 93.7001 163.331 93.5367C163.107 93.2176 163.192 92.771 163.199 92.7528C163.207 92.7183 163.225 92.6867 163.253 92.6647C163.26 92.659 164.126 91.9511 165.236 91.1626C166.343 90.3749 168.137 88.057 168.352 87.4813C168.48 87.1355 168.805 86.9131 169.144 86.9381C169.38 86.9562 169.951 87.1316 170.205 88.3734C170.459 89.6123 170.049 90.476 169.651 91.3072C169.488 91.6519 169.333 91.9746 169.23 92.3186C169.163 92.5418 169.073 92.8753 168.967 93.2681C168.329 95.6483 167.703 97.807 167.097 98.0937C167.082 98.0984 167.066 98.107 167.052 98.1118ZM164.237 96.6364C164.467 96.7522 164.69 96.8699 164.909 96.9828C165.764 97.4286 166.733 97.9295 166.965 97.8209C167.497 97.5685 168.291 94.6096 168.673 93.1895C168.781 92.7928 168.871 92.4565 168.937 92.2332C169.046 91.8682 169.214 91.5187 169.374 91.1816C169.751 90.3926 170.138 89.5777 169.905 88.4376C169.756 87.7169 169.462 87.271 169.118 87.244C168.915 87.228 168.714 87.3712 168.633 87.5896C168.404 88.2084 166.581 90.5809 165.411 91.4115C164.453 92.0922 163.682 92.7083 163.491 92.864C163.48 92.9666 163.469 93.2034 163.583 93.364C163.649 93.4572 163.746 93.5112 163.88 93.5308C164.574 93.6338 165.25 94.0493 165.279 94.0686C165.327 94.0975 165.353 94.1494 165.348 94.2021C165.345 94.2318 165.308 95.0047 164.237 96.6364Z" fill="#263238"/>
<path d="M169.362 87.161C169.766 89.2156 169.354 90.0611 167.88 93.296C166.728 95.8203 166.433 97.2435 166.363 97.9184C166.667 97.9999 166.9 98.0189 167.03 97.9599C167.766 97.6112 168.73 93.4589 169.082 92.2756C169.435 91.0952 170.399 90.099 170.053 88.4052C169.904 87.6749 169.638 87.3029 169.362 87.161Z" fill="white"/>
<path d="M167.043 98.1147C166.885 98.1669 166.653 98.1508 166.325 98.0644C166.252 98.0469 166.203 97.9768 166.214 97.903C166.295 97.1254 166.625 95.6841 167.743 93.2316L167.828 93.0468C169.228 89.9805 169.603 89.157 169.214 87.1897C169.202 87.1331 169.227 87.0737 169.273 87.0393C169.319 87.0049 169.381 87.0004 169.435 87.0274C169.685 87.1586 170.024 87.5002 170.205 88.3735C170.458 89.6124 170.049 90.4761 169.651 91.3073C169.487 91.652 169.333 91.9747 169.229 92.3186C169.163 92.5419 169.072 92.8753 168.966 93.2682C168.328 95.6484 167.703 97.807 167.096 98.0938C167.08 98.1023 167.063 98.108 167.043 98.1147ZM166.531 97.8014C166.823 97.8646 166.932 97.8381 166.965 97.821C167.496 97.5685 168.291 94.6096 168.673 93.1896C168.781 92.7929 168.87 92.4565 168.937 92.2333C169.046 91.8683 169.214 91.5188 169.373 91.1817C169.75 90.3927 170.137 89.5778 169.904 88.4377C169.821 88.0308 169.703 87.7629 169.589 87.5899C169.847 89.3543 169.39 90.3551 168.101 93.1772L168.016 93.362C166.934 95.7321 166.619 97.1236 166.531 97.8014Z" fill="#263238"/>
<path d="M120.478 84.3357C120.435 84.35 120.383 84.345 120.343 84.3132C120.276 84.2651 120.26 84.1682 120.308 84.1012C120.308 84.1012 120.546 83.7701 120.941 83.2276C120.989 83.1606 121.086 83.1447 121.153 83.1957C121.22 83.2439 121.236 83.3408 121.186 83.4087C120.79 83.9483 120.556 84.2813 120.556 84.2813C120.533 84.3081 120.507 84.3262 120.478 84.3357Z" fill="white"/>
<path d="M119.573 85.2078C119.573 85.2078 126.645 74.7781 133.133 69.6499C139.621 64.5247 142.713 65.5253 143.092 68.2751C143.469 71.0258 142.879 80.4857 141.816 85.9488C140.752 91.4118 138.853 100.451 138.853 100.451C138.853 100.451 145.004 104.913 145.609 105.461C146.213 106.006 143.469 107.021 142.097 106.727C141.006 106.493 141.06 106.597 138.652 105.949C134.572 104.85 134.094 104.05 134.317 103.123C135.035 100.154 136.202 97.4841 135.962 94.2696C135.524 88.4306 135.709 80.619 136.241 81.293C136.241 81.293 134.03 85.8575 129.526 89.2629C125.019 92.6693 121.564 93.3161 118.317 91.0538" fill="black"/>
<path d="M144.488 106.604C143.681 106.871 142.694 107.012 142.061 106.879C141.742 106.812 141.522 106.773 141.309 106.735C140.798 106.645 140.313 106.559 138.609 106.1C134.55 105.007 133.907 104.169 134.166 103.093C134.349 102.333 134.563 101.585 134.774 100.863C135.398 98.6986 135.986 96.6578 135.808 94.2884C135.537 90.6528 135.466 85.073 135.738 82.5008C134.779 84.0858 132.736 87.0292 129.612 89.3909C124.981 92.8927 121.468 93.4434 118.222 91.184C118.153 91.1368 118.137 91.0428 118.185 90.9729C118.232 90.9031 118.328 90.8871 118.395 90.9353C121.514 93.1089 124.918 92.5588 129.427 89.1486C133.018 86.4346 135.158 82.9449 135.849 81.7003C135.917 81.3649 135.999 81.159 136.098 81.1228C136.133 81.1114 136.249 81.0763 136.353 81.2081C136.39 81.2533 136.395 81.3156 136.371 81.3683C136.367 81.3759 136.275 81.5627 136.097 81.8805C135.83 83.5819 135.728 89.2418 136.105 94.2702C136.287 96.6923 135.69 98.7619 135.061 100.95C134.853 101.671 134.64 102.415 134.459 103.169C134.287 103.883 134.47 104.676 138.685 105.81C140.376 106.267 140.853 106.349 141.358 106.441C141.574 106.478 141.798 106.519 142.124 106.587C143.265 106.83 145.292 106.144 145.526 105.683C145.547 105.641 145.546 105.619 145.505 105.581C144.914 105.048 138.824 100.627 138.762 100.583C138.712 100.549 138.69 100.489 138.702 100.431C138.721 100.342 140.613 91.3299 141.665 85.9282C142.74 80.4038 143.312 71.0168 142.941 68.3025C142.809 67.3335 142.337 66.6587 141.584 66.3552C140.59 65.952 138.182 65.8628 133.225 69.776C126.83 74.8287 119.768 85.1941 119.697 85.2975C119.65 85.3673 119.557 85.3853 119.487 85.338C119.418 85.2908 119.4 85.1977 119.447 85.1279C119.518 85.0245 126.607 74.6179 133.037 69.5375C136.799 66.5661 139.873 65.336 141.694 66.0726C142.555 66.4206 143.089 67.1771 143.24 68.2613C143.615 70.9967 143.04 80.4355 141.96 85.9838C140.968 91.0846 139.224 99.4053 139.018 100.393C139.772 100.94 145.132 104.839 145.707 105.355C145.849 105.484 145.882 105.652 145.797 105.82C145.646 106.107 145.123 106.394 144.488 106.604Z" fill="#2E2E2E"/>
<path d="M122.067 82.1683C122.021 82.1835 121.971 82.1747 121.929 82.1468C121.862 82.0957 121.849 82.0007 121.897 81.9338C123.381 79.9514 125.489 77.2355 127.12 75.5625C127.177 75.5023 127.275 75.5016 127.332 75.5593C127.394 75.619 127.393 75.7149 127.336 75.7722C125.718 77.4348 123.618 80.1382 122.139 82.1158C122.122 82.1407 122.096 82.1588 122.067 82.1683Z" fill="#2E2E2E"/>
<path d="M133.688 85.0815C133.648 85.0948 133.602 85.0908 133.562 85.0657C133.49 85.0223 133.469 84.9273 133.512 84.8555L135.288 81.965C135.261 81.3607 135.066 75.275 137.742 71.1896C137.789 71.1197 137.881 71.0989 137.951 71.1461C138.021 71.1933 138.042 71.2855 137.994 71.3553C135.247 75.5509 135.589 81.9295 135.594 81.9919C135.595 82.0235 135.589 82.0542 135.571 82.0791L133.773 85.0089C133.751 85.0481 133.723 85.0701 133.688 85.0815Z" fill="#2E2E2E"/>
<path d="M142.756 79.8932C142.739 79.8989 142.718 79.9026 142.698 79.8997C142.613 79.8956 142.551 79.8235 142.555 79.7391L142.646 78.2491C142.65 78.1647 142.722 78.1026 142.806 78.1067C142.89 78.1108 142.953 78.1829 142.949 78.2673L142.858 79.7573C142.857 79.8216 142.813 79.8742 142.756 79.8932Z" fill="#2E2E2E"/>
<path d="M142.926 77.0921C142.908 77.0978 142.887 77.1016 142.867 77.0986C142.783 77.0945 142.721 77.0224 142.725 76.938L143.052 71.5426C143.056 71.4583 143.128 71.3962 143.212 71.4003C143.296 71.4044 143.358 71.4765 143.354 71.5609L143.027 76.9563C143.023 77.0215 142.983 77.0731 142.926 77.0921Z" fill="#2E2E2E"/>
<path d="M142.091 106.732C143.463 107.023 146.21 106.01 145.603 105.466C144.999 104.921 138.847 100.456 138.847 100.456C138.847 100.456 139.35 98.0633 139.984 94.9946C138.055 95.3672 136.754 94.9247 135.964 94.4321C136.155 97.5764 135.019 100.207 134.311 103.128C134.088 104.055 134.566 104.855 138.646 105.954C141.054 106.602 141 106.498 142.091 106.732Z" fill="#FFE2B5"/>
<path d="M144.487 106.604C143.68 106.871 142.694 107.012 142.06 106.88C141.741 106.812 141.521 106.773 141.308 106.735C140.797 106.645 140.313 106.559 138.609 106.1C134.55 105.007 133.906 104.169 134.166 103.093C134.349 102.336 134.562 101.591 134.77 100.871C135.38 98.7523 135.955 96.7508 135.814 94.4429C135.811 94.3863 135.838 94.3327 135.889 94.3031C135.937 94.2745 135.997 94.2737 136.046 94.3055C136.773 94.7586 138.04 95.2182 139.958 94.8465C140.008 94.8362 140.058 94.8517 140.092 94.8882C140.127 94.9248 140.144 94.9766 140.131 95.0255C139.573 97.7339 139.114 99.9142 139.017 100.391C139.771 100.937 145.13 104.836 145.706 105.352C145.847 105.481 145.88 105.649 145.796 105.817C145.646 106.107 145.123 106.395 144.487 106.604ZM136.13 94.7028C136.213 96.9434 135.653 98.8951 135.062 100.953C134.856 101.67 134.643 102.414 134.46 103.165C134.289 103.88 134.471 104.672 138.687 105.806C140.377 106.263 140.854 106.345 141.359 106.437C141.576 106.474 141.799 106.515 142.125 106.583C143.266 106.826 145.293 106.14 145.527 105.679C145.548 105.637 145.547 105.615 145.506 105.578C144.915 105.045 138.826 100.623 138.764 100.58C138.714 100.545 138.691 100.485 138.703 100.427C138.703 100.427 139.184 98.147 139.792 95.1855C138.092 95.463 136.893 95.1119 136.13 94.7028Z" fill="#263238"/>
<path d="M138.846 100.456C138.846 100.456 138.369 100.294 138.143 101.222C137.917 102.15 137.883 103.011 137.883 103.011L134.826 101.216C134.644 101.845 134.465 102.479 134.31 103.128C134.087 104.054 134.565 104.855 138.645 105.954C141.052 106.602 140.999 106.498 142.09 106.732C143.461 107.023 146.209 106.01 145.602 105.466C144.997 104.918 138.846 100.456 138.846 100.456Z" fill="#F37630"/>
<path d="M144.487 106.604C143.68 106.871 142.693 107.012 142.06 106.879C141.741 106.812 141.521 106.773 141.308 106.735C140.796 106.645 140.312 106.559 138.608 106.1C134.549 105.007 133.906 104.169 134.165 103.093C134.328 102.419 134.518 101.749 134.682 101.174C134.695 101.128 134.728 101.092 134.77 101.075C134.815 101.057 134.861 101.061 134.904 101.085L137.751 102.754C137.777 102.429 137.842 101.823 137.997 101.184C138.098 100.767 138.265 100.492 138.494 100.365C138.7 100.252 138.877 100.306 138.895 100.312C138.909 100.317 138.924 100.325 138.937 100.334C139.188 100.516 145.101 104.807 145.705 105.352C145.847 105.481 145.88 105.649 145.795 105.817C145.645 106.107 145.122 106.394 144.487 106.604ZM134.918 101.445C134.767 101.974 134.6 102.566 134.456 103.163C134.284 103.878 134.467 104.67 138.682 105.804C140.373 106.261 140.85 106.343 141.355 106.435C141.571 106.472 141.795 106.513 142.121 106.581C143.262 106.824 145.289 106.138 145.523 105.677C145.544 105.635 145.543 105.613 145.502 105.576C144.929 105.059 139.225 100.916 138.784 100.595C138.757 100.591 138.698 100.595 138.631 100.633C138.529 100.692 138.386 100.848 138.288 101.254C138.069 102.154 138.035 103.005 138.034 103.012C138.032 103.064 138 103.113 137.955 103.14C137.909 103.165 137.852 103.165 137.805 103.139L134.918 101.445Z" fill="#F37630"/>
<path d="M138.648 105.953C141.056 106.602 141.002 106.498 142.093 106.732C143.328 106.994 145.673 106.2 145.692 105.641C141.253 106.853 136.487 104.565 134.286 103.277C134.15 104.14 134.788 104.913 138.648 105.953Z" fill="white"/>
<path d="M144.464 106.618C143.68 106.877 142.72 107.022 142.061 106.879C141.742 106.812 141.522 106.773 141.309 106.734C140.798 106.645 140.313 106.559 138.609 106.1C134.682 105.04 133.986 104.225 134.133 103.253C134.142 103.202 134.173 103.16 134.217 103.139C134.264 103.117 134.316 103.119 134.359 103.146C136.722 104.528 141.33 106.673 145.649 105.495C145.695 105.483 145.743 105.492 145.782 105.521C145.82 105.55 145.842 105.597 145.839 105.646C145.834 105.795 145.737 105.945 145.552 106.089C145.306 106.282 144.912 106.47 144.464 106.618ZM134.419 103.529C134.448 104.117 135.063 104.831 138.687 105.805C140.378 106.262 140.855 106.345 141.36 106.436C141.576 106.473 141.8 106.514 142.125 106.583C143.037 106.776 144.654 106.364 145.314 105.89C141.136 106.83 136.797 104.89 134.419 103.529Z" fill="#263238"/>
</svg>
