<svg width="16" height="13" viewBox="0 0 16 13" fill="none" xmlns="http://www.w3.org/2000/svg">
<path d="M10.5 4.83333L14.2942 2.93667C14.4212 2.8732 14.5623 2.84323 14.7042 2.84962C14.846 2.85601 14.9839 2.89854 15.1047 2.97317C15.2255 3.0478 15.3252 3.15206 15.3944 3.27606C15.4636 3.40006 15.4999 3.53967 15.5 3.68167V9.31833C15.4999 9.46033 15.4636 9.59994 15.3944 9.72394C15.3252 9.84794 15.2255 9.9522 15.1047 10.0268C14.9839 10.1015 14.846 10.144 14.7042 10.1504C14.5623 10.1568 14.4212 10.1268 14.2942 10.0633L10.5 8.16667V4.83333ZM0.5 3.16667C0.5 2.72464 0.675595 2.30072 0.988155 1.98816C1.30072 1.67559 1.72464 1.5 2.16667 1.5H8.83333C9.27536 1.5 9.69928 1.67559 10.0118 1.98816C10.3244 2.30072 10.5 2.72464 10.5 3.16667V9.83333C10.5 10.2754 10.3244 10.6993 10.0118 11.0118C9.69928 11.3244 9.27536 11.5 8.83333 11.5H2.16667C1.72464 11.5 1.30072 11.3244 0.988155 11.0118C0.675595 10.6993 0.5 10.2754 0.5 9.83333V3.16667Z" stroke="white" stroke-width="1.66667" stroke-linecap="round" stroke-linejoin="round"/>
</svg>
