<svg width="27" height="27" viewBox="0 0 27 27" fill="none" xmlns="http://www.w3.org/2000/svg">
<circle cx="13.625" cy="13.7637" r="12.5" fill="#88D8C6" stroke="white"/>
<path d="M13.7949 17.7714C13.5025 17.7715 13.2183 17.675 12.9863 17.497C12.7543 17.3191 12.5875 17.0695 12.5117 16.7871" stroke="#4EA692" stroke-width="1.5" stroke-linecap="round"/>
<path d="M12.7491 8.92407C13.1682 8.21142 13.3781 7.85476 13.6776 7.80162C13.7558 7.78748 13.8359 7.78748 13.9141 7.80162C14.2136 7.85476 14.4235 8.21142 14.8426 8.92407L15.9504 10.8077C16.7247 12.1241 17.3288 13.5334 17.7484 15.0019C18.4305 17.3883 16.6392 19.764 14.1565 19.764H13.4352C10.9532 19.764 9.16127 17.3883 9.84337 15.0019C10.2629 13.5334 10.867 12.1241 11.6413 10.8077L12.7491 8.92407Z" stroke="#4EA692" stroke-width="1.5"/>
</svg>
