<svg width="12" height="17" viewBox="0 0 12 17" fill="none" xmlns="http://www.w3.org/2000/svg">
<path d="M3.375 9.70703C3.87228 9.70703 4.34919 9.50949 4.70083 9.15786C5.05246 8.80623 5.25 8.32931 5.25 7.83203C5.25 6.79703 4.875 6.33203 4.5 5.58203C3.696 3.97478 4.332 2.54153 6 1.08203C6.375 2.95703 7.5 4.75703 9 5.95703C10.5 7.15703 11.25 8.58203 11.25 10.082C11.25 10.7715 11.1142 11.4542 10.8504 12.0911C10.5865 12.7281 10.1998 13.3068 9.71231 13.7943C9.2248 14.2818 8.64605 14.6686 8.00909 14.9324C7.37213 15.1962 6.68944 15.332 6 15.332C5.31056 15.332 4.62787 15.1962 3.99091 14.9324C3.35395 14.6686 2.7752 14.2818 2.28769 13.7943C1.80018 13.3068 1.41347 12.7281 1.14963 12.0911C0.885795 11.4542 0.75 10.7715 0.75 10.082C0.75 9.21728 1.07475 8.36153 1.5 7.83203C1.5 8.32931 1.69754 8.80623 2.04917 9.15786C2.40081 9.50949 2.87772 9.70703 3.375 9.70703Z" stroke="#CBE2D1" stroke-width="1.5" stroke-linecap="round" stroke-linejoin="round"/>
</svg>
