<svg width="42" height="38" viewBox="0 0 42 38" fill="none" xmlns="http://www.w3.org/2000/svg">
<path d="M21 0.333008C23.59 0.333008 25.6667 2.40967 25.6667 4.99967C25.6667 7.58967 23.59 9.66634 21 9.66634C18.41 9.66634 16.3333 7.58967 16.3333 4.99967C16.3333 2.40967 18.4333 0.333008 21 0.333008ZM42 28.333V23.6663C36.7733 23.6663 32.2933 21.4263 28.9333 17.413L25.8067 13.6797C25.3725 13.1534 24.8273 12.7299 24.21 12.4394C23.5928 12.1489 22.9188 11.9988 22.2367 11.9997H19.8333C18.41 11.9997 17.1033 12.6063 16.2167 13.6797L13.09 17.413C9.70667 21.4263 5.22667 23.6663 0 23.6663V28.333C6.46333 28.333 12.11 25.603 16.3333 20.7497V25.9997L7.28 29.6163C5.71667 30.2463 4.66667 31.833 4.66667 33.4897C4.66667 35.7997 6.53333 37.6663 8.84333 37.6663H14V36.4997C14 34.9526 14.6146 33.4688 15.7085 32.3749C16.8025 31.2809 18.2862 30.6663 19.8333 30.6663H26.8333C27.4867 30.6663 28 31.1797 28 31.833C28 32.4863 27.4867 32.9997 26.8333 32.9997H19.8333C17.8967 32.9997 16.3333 34.563 16.3333 36.4997V37.6663H33.1567C35.4667 37.6663 37.3333 35.7997 37.3333 33.4897C37.3333 31.833 36.2833 30.2463 34.72 29.6163L25.6667 25.9997V20.7497C29.89 25.603 35.5367 28.333 42 28.333Z" fill="#043446"/>
</svg>
