<svg width="106" height="117" viewBox="0 0 106 117" fill="none" xmlns="http://www.w3.org/2000/svg">
<path d="M53.2384 19.9811C49.147 19.554 45.1293 20.6911 41.4679 22.4581C38.1444 24.0624 35.0298 26.1429 32.2131 28.5246C26.9238 32.9962 22.4914 38.7953 20.4518 45.4795C18.4061 52.1822 19.2386 59.2567 22.4914 65.4338C25.904 71.9183 31.4759 77.0966 37.7359 80.7937C44.5887 84.8411 52.406 87.2382 60.3492 87.7176C67.6228 88.1571 75.4033 86.9923 81.5096 82.7667C87.0785 78.9129 90.3467 72.7388 91.2191 66.0946C92.1221 59.229 90.5279 52.3297 87.1184 46.3462C83.497 39.9938 78.1186 34.7971 72.1873 30.6021C65.7307 26.0323 58.2236 22.0156 50.1975 21.4348C48.2624 21.2934 46.3303 21.3856 44.4167 21.696C44.1218 21.7452 44.2447 22.1939 44.5395 22.1478C52.7039 20.8232 60.77 24.0316 67.6443 28.1897C73.7261 31.8683 79.4117 36.4412 83.7458 42.1205C87.9416 47.6185 90.7245 54.1367 90.9795 61.1006C91.2191 67.6004 89.3484 74.3338 84.9007 79.2018C79.9677 84.6014 72.5804 86.8971 65.4542 87.2781C57.7936 87.6869 49.9917 86.1134 42.9976 82.991C30.4408 77.3824 18.3509 65.3324 19.8928 50.5042C20.6054 43.651 24.1624 37.3785 28.8005 32.4092C31.1565 29.883 33.8196 27.6488 36.6946 25.7373C39.9475 23.5768 43.5136 21.7052 47.3409 20.8293C49.2791 20.3868 51.2541 20.2424 53.2322 20.4483C53.5302 20.479 53.5302 20.0119 53.2322 19.9811H53.2384Z" fill="#E9FBFF"/>
<path d="M56.3362 89.294C52.1557 90.7445 47.6128 90.0961 43.3493 89.4046C39.2671 88.7408 35.2218 87.7881 31.3301 86.3744C23.9797 83.7007 17.1699 79.2139 12.7559 72.6434C8.66759 66.5584 7.28536 59.2319 9.07305 52.1021C10.8085 45.1843 15.0873 38.9949 20.5794 34.508C33.2038 24.1943 51.2219 23.4905 66.6814 25.4297C71.1936 25.9952 75.669 26.8741 80.0399 28.128C83.7013 29.179 87.504 30.436 90.508 32.8669C93.678 35.433 95.2291 39.1762 95.1032 43.2297C94.9711 47.4431 93.1312 51.3307 90.7783 54.745C86.3798 61.1281 80.5959 66.752 74.5018 71.5032C68.3677 76.2882 61.5917 80.2618 54.4133 83.2521C52.6871 83.9712 50.9363 84.6319 49.167 85.2373C48.8844 85.3357 49.0042 85.7874 49.2899 85.6891C64.4545 80.4892 78.1294 71.0822 88.3395 58.7095C93.2203 52.7966 98.0212 44.5789 94.3046 36.8283C92.7043 33.4908 89.5804 31.2903 86.2876 29.8213C82.3344 28.0573 78.028 26.9848 73.8015 26.1243C65.1978 24.3726 56.2102 23.6811 47.45 24.3941C39.3869 25.0487 31.327 27.0616 24.3605 31.278C12.1201 38.6814 3.85128 54.3179 9.84095 68.2825C12.8665 75.3355 18.7702 80.8304 25.497 84.3338C29.2567 86.2915 33.2898 87.6867 37.4027 88.6886C41.6016 89.7119 46.0339 90.5571 50.368 90.6277C52.4383 90.6616 54.4993 90.428 56.4621 89.7488C56.7447 89.6505 56.6218 89.1987 56.3392 89.2971L56.3362 89.294Z" fill="#E9FBFF"/>
<path d="M21.9801 47.0131C22.8929 46.0998 22.8929 44.619 21.9801 43.7057C21.0672 42.7923 19.5872 42.7923 18.6744 43.7057C17.7615 44.619 17.7615 46.0998 18.6744 47.0131C19.5872 47.9264 21.0672 47.9264 21.9801 47.0131Z" fill="#E9FBFF"/>
<path d="M25.4715 19.9284C25.4715 20.7028 24.8418 21.3328 24.0678 21.3328C23.2937 21.3328 22.6641 20.7028 22.6641 19.9284C22.6641 19.1539 23.2937 18.5239 24.0678 18.5239C24.8418 18.5239 25.4715 19.1539 25.4715 19.9284Z" fill="#E9FBFF"/>
<path d="M17.9911 66.8874C17.9911 67.6618 17.3614 68.2918 16.5873 68.2918C15.8133 68.2918 15.1836 67.6618 15.1836 66.8874C15.1836 66.1129 15.8133 65.4829 16.5873 65.4829C17.3614 65.4829 17.9911 66.1129 17.9911 66.8874Z" fill="#E9FBFF"/>
<path d="M77.0867 44.1885C77.0867 44.8338 76.5645 45.3594 75.9164 45.3594C75.2683 45.3594 74.7461 44.8369 74.7461 44.1885C74.7461 43.54 75.2683 43.0176 75.9164 43.0176C76.5645 43.0176 77.0867 43.54 77.0867 44.1885Z" fill="#E9FBFF"/>
<path d="M36.7029 43.5646C36.7029 43.8658 36.4571 44.1116 36.1561 44.1116C35.8551 44.1116 35.6094 43.8658 35.6094 43.5646C35.6094 43.2634 35.8551 43.0176 36.1561 43.0176C36.4571 43.0176 36.7029 43.2634 36.7029 43.5646Z" fill="#E9FBFF"/>
<path d="M72.0968 12.8296C72.0968 13.3029 71.7128 13.687 71.2398 13.687C70.7668 13.687 70.3828 13.3029 70.3828 12.8296C70.3828 12.3563 70.7668 11.9722 71.2398 11.9722C71.7128 11.9722 72.0968 12.3563 72.0968 12.8296Z" fill="#E9FBFF"/>
<path d="M72.0968 82.4136C72.0968 82.8869 71.7128 83.271 71.2398 83.271C70.7668 83.271 70.3828 82.8869 70.3828 82.4136C70.3828 81.9403 70.7668 81.5562 71.2398 81.5562C71.7128 81.5562 72.0968 81.9403 72.0968 82.4136Z" fill="#E9FBFF"/>
<path d="M105.312 63.458C105.312 64.5766 104.406 65.4863 103.285 65.4863C102.164 65.4863 101.258 64.5797 101.258 63.458C101.258 62.3363 102.164 61.4297 103.285 61.4297C104.406 61.4297 105.312 62.3363 105.312 63.458Z" fill="#E9FBFF"/>
<path d="M4.57846 81.8662C5.78461 81.8662 6.76239 80.8879 6.76239 79.6811C6.76239 78.4744 5.78461 77.4961 4.57846 77.4961C3.37231 77.4961 2.39453 78.4744 2.39453 79.6811C2.39453 80.8879 3.37231 81.8662 4.57846 81.8662Z" fill="#E9FBFF"/>
<path d="M2.55186 31.395C2.55186 31.8683 2.16791 32.2524 1.69487 32.2524C1.22184 32.2524 0.837891 31.8683 0.837891 31.395C0.837891 30.9218 1.22184 30.5376 1.69487 30.5376C2.16791 30.5376 2.55186 30.9218 2.55186 31.395Z" fill="#E9FBFF"/>
<path d="M54.7891 5.73063C56.1666 5.73063 57.2832 4.61338 57.2832 3.23519C57.2832 1.85699 56.1666 0.739746 54.7891 0.739746C53.4116 0.739746 52.2949 1.85699 52.2949 3.23519C52.2949 4.61338 53.4116 5.73063 54.7891 5.73063Z" fill="#E9FBFF"/>
<path d="M67.8878 110.259C68.8344 110.259 69.6018 109.492 69.6018 108.544C69.6018 107.597 68.8344 106.83 67.8878 106.83C66.9412 106.83 66.1738 107.597 66.1738 108.544C66.1738 109.492 66.9412 110.259 67.8878 110.259Z" fill="#E9FBFF"/>
<path d="M91.4374 38.4936C92.5571 38.4936 93.4647 37.5855 93.4647 36.4653C93.4647 35.3451 92.5571 34.437 91.4374 34.437C90.3178 34.437 89.4102 35.3451 89.4102 36.4653C89.4102 37.5855 90.3178 38.4936 91.4374 38.4936Z" fill="#E9FBFF"/>
<path d="M34.0256 73.781L35.629 72.4688C34.9164 70.8369 33.2024 70.5603 32.2379 70.5449L30.5977 71.3993C31.0707 73.781 34.0256 73.781 34.0256 73.781Z" fill="#1D3542"/>
<path d="M47.3492 72.1052C47.3492 72.1052 44.7291 70.501 42.9814 72.5416C42.9814 72.5416 41.378 71.2294 38.6135 73.27L37.5938 73.7064C37.5938 73.7064 40.3613 75.8914 43.4176 74.2903C43.4176 74.2903 48.2246 75.0186 48.369 73.7064C48.5134 72.3941 47.3492 72.1021 47.3492 72.1021V72.1052Z" fill="#1D3542"/>
<path d="M55.7246 42.4552C55.7246 42.4552 64.1716 38.8135 65.7719 31.6744C67.3753 24.5354 61.2567 16.668 61.2567 16.668C61.2567 16.668 35.9157 38.3771 41.4508 42.8947C44.3043 45.2242 55.7216 44.2069 55.7216 44.2069" fill="#1D3542"/>
<mask id="mask0_6978_57065" style="mask-type:luminance" maskUnits="userSpaceOnUse" x="40" y="16" width="27" height="29">
<path d="M55.7246 42.4552C55.7246 42.4552 64.1716 38.8135 65.7719 31.6744C67.3753 24.5354 61.2567 16.668 61.2567 16.668C61.2567 16.668 35.9157 38.3771 41.4508 42.8947C44.3043 45.2242 55.7216 44.2069 55.7216 44.2069" fill="white"/>
</mask>
<g mask="url(#mask0_6978_57065)">
<g style="mix-blend-mode:multiply" opacity="0.22">
<path d="M45.6742 34.4404C45.6742 34.4404 48.4418 41.435 53.5376 41.143C58.6334 40.8511 62.2211 34.3451 62.5405 31.0414C62.86 27.7377 45.0906 30.7986 45.6742 34.4404Z" fill="#1D3542"/>
</g>
</g>
<path d="M45.9666 77.5697C45.9666 77.5697 40.4315 86.021 40.1428 87.3332C40.1428 87.3332 21.3567 88.3535 16.9889 90.2466C12.621 92.1397 11.0176 97.8221 14.805 100.739C18.5923 103.655 43.7858 104.672 50.7768 102.195C50.7768 102.195 86.893 107.005 93.0086 100.01C99.1242 93.0156 81.9415 86.1685 67.3789 86.8968C67.3789 86.8968 62.2831 76.8444 59.5156 75.5321C56.748 74.2199 45.9728 77.5727 45.9728 77.5727L45.9666 77.5697Z" fill="#FF9D48"/>
<mask id="mask1_6978_57065" style="mask-type:luminance" maskUnits="userSpaceOnUse" x="12" y="75" width="83" height="29">
<path d="M45.9666 77.5697C45.9666 77.5697 40.4315 86.021 40.1428 87.3332C40.1428 87.3332 21.3567 88.3535 16.9889 90.2466C12.621 92.1397 11.0176 97.8221 14.805 100.739C18.5923 103.655 43.7858 104.672 50.7768 102.195C50.7768 102.195 86.893 107.005 93.0086 100.01C99.1242 93.0156 81.9415 86.1685 67.3789 86.8968C67.3789 86.8968 62.2831 76.8444 59.5156 75.5321C56.748 74.2199 45.9728 77.5727 45.9728 77.5727L45.9666 77.5697Z" fill="white"/>
</mask>
<g mask="url(#mask1_6978_57065)">
<g style="mix-blend-mode:multiply" opacity="0.23">
<path d="M53.1884 102.484C53.1884 102.484 45.967 101.9 39.4121 97.2378C39.4121 97.2378 43.4912 102.92 48.1509 103.796C52.8105 104.669 53.1884 102.484 53.1884 102.484Z" fill="#D25A5C"/>
</g>
<g style="mix-blend-mode:multiply" opacity="0.23">
<path d="M25.7242 90.6825C25.4477 90.9867 23.9764 91.7028 25.4324 92.2867C26.8883 92.8706 34.8991 97.2407 36.9387 96.6568C38.9782 96.0729 27.1801 89.0814 25.7242 90.6825Z" fill="#D25A5C"/>
</g>
<g style="mix-blend-mode:multiply" opacity="0.23">
<path d="M68.8105 95.9072C69.1239 95.9288 75.3869 94.3246 78.1514 93.1598C80.9189 91.9951 81.4994 91.1192 82.2305 91.1192C82.9615 91.1192 82.8141 89.6625 80.7745 89.8069C78.735 89.9514 70.288 93.5962 70.288 93.5962L68.8105 96.1193" fill="#D25A5C"/>
</g>
<g style="mix-blend-mode:multiply" opacity="0.23">
<path d="M66.7928 92.2867C66.7928 92.2867 60.0936 93.7435 59.0738 93.599C58.0541 93.4546 61.1134 87.1883 68.2488 86.6044C68.2488 86.6044 61.2578 86.46 56.5981 91.7028C51.9385 96.9488 48.0068 90.3906 45.0918 88.9339C45.0918 88.9339 49.773 94.8406 49.9818 95.6027C49.9818 95.6027 57.2278 94.6716 59.3165 95.0065C59.3165 95.0065 64.6089 95.0526 67.1553 92.213L66.7898 92.2867H66.7928Z" fill="#D25A5C"/>
</g>
<path d="M41.8381 95.1023C43.9606 96.055 46.3043 96.0519 48.5773 95.8521C51.1298 95.6278 53.67 95.3143 56.2318 95.1945C58.898 95.0685 61.5733 95.0869 64.2334 95.3082C65.0381 95.3758 65.8368 95.4403 66.62 95.6309C67.3142 95.7999 68.0023 95.9966 68.6872 96.1963C70.1155 96.6143 71.5623 97.023 72.9506 97.5639C73.0827 97.6161 73.138 97.4041 73.009 97.3519C71.8203 96.8909 70.5824 96.5344 69.363 96.1687C68.1436 95.803 66.9149 95.3696 65.6617 95.2283C60.4184 94.6351 55.1536 94.9332 49.9257 95.4987C47.2688 95.7845 44.4552 96.0396 41.9487 94.9148C41.8228 94.8564 41.7091 95.0469 41.8381 95.1023Z" fill="#AA353B"/>
<path d="M39.8159 97.8771C43.6247 100.105 47.7898 101.688 52.1177 102.555C52.256 102.582 52.3143 102.37 52.1761 102.342C47.8666 101.482 43.7199 99.9054 39.9264 97.6866C39.8036 97.6159 39.6961 97.8033 39.8159 97.874V97.8771Z" fill="#AA353B"/>
<path d="M32.3197 93.3165C30.0897 92.7602 27.7122 92.2347 25.473 93.0522C25.3409 93.1014 25.3993 93.3103 25.5314 93.2642C27.7337 92.4591 30.0651 92.9815 32.2613 93.5285C32.3965 93.5623 32.4548 93.3503 32.3197 93.3165Z" fill="#AA353B"/>
<g style="mix-blend-mode:multiply" opacity="0.49">
<path d="M49.7268 95.4371C48.9159 94.2631 48.1019 93.0861 47.291 91.9121L49.7268 95.4371Z" fill="#D25A5C"/>
</g>
<path d="M68.6103 86.4202C67.612 86.4663 66.6198 86.6998 65.6676 86.9887C64.7154 87.2776 63.7632 87.6402 62.8817 88.1197C62.7588 88.1873 62.8694 88.3747 62.9923 88.3071C63.8585 87.8369 64.7861 87.4835 65.726 87.1977C66.6659 86.9119 67.6304 86.6814 68.6103 86.6353C68.7516 86.6292 68.7516 86.411 68.6103 86.4171V86.4202Z" fill="#AA353B"/>
<path d="M39.4107 87.3028C40.9526 87.3612 42.4331 88.0281 43.5021 89.1406C43.6004 89.242 43.7539 89.0883 43.6556 88.9869C42.5468 87.8314 41.0079 87.1461 39.4107 87.0846C39.2694 87.0785 39.2694 87.2966 39.4107 87.3028Z" fill="#AA353B"/>
<path d="M66.0191 93.1626C64.17 94.1091 62.2656 94.8436 60.1646 94.8713C60.0233 94.8713 60.0233 95.0926 60.1646 95.0895C62.3055 95.0618 64.2498 94.315 66.1297 93.3531C66.2556 93.2886 66.145 93.1011 66.0191 93.1657V93.1626Z" fill="#AA353B"/>
</g>
<path d="M39.6563 49.0444C39.6686 49.3364 39.0389 51.4077 38.4154 56.8319C37.7949 62.2592 34.6434 69.6994 34.6833 70.5722C34.7233 71.445 32.7206 72.2686 31.1448 75.9903C29.5691 79.7119 26.1933 82.3487 25.3548 83.117C25.3548 83.117 23.5825 82.6161 21.6965 82.8497C19.8136 83.0832 18.0382 82.5823 17.7218 82.0138C17.7218 82.0138 16.8832 82.7821 17.645 83.4766C18.4068 84.1712 20.1238 83.5073 20.603 84.3586C21.0791 85.213 19.9764 86.5744 18.9382 86.1872C17.9 85.7969 17.5744 85.0839 17.4085 84.6536C17.2426 84.2234 17.8877 82.444 16.5577 82.0691C16.5577 82.0691 16.1614 84.4938 16.3334 85.0685C16.3334 85.0685 14.4935 83.114 13.5137 84.0329C13.5137 84.0329 15.3351 85.551 15.501 85.9813C15.501 85.9813 14.0113 85.3205 13.6181 86.2148C13.6181 86.2148 14.9696 87.0262 15.5563 87.146C16.1461 87.2659 16.5884 87.3888 16.8986 87.8129C16.8986 87.8129 15.286 87.5978 15.1816 88.4767C15.1816 88.4767 16.7819 88.4029 17.5221 88.658C18.2624 88.9162 21.0392 89.076 22.0313 88.446C23.0234 87.816 36.6676 80.3235 39.6931 73.3258C39.6931 73.3258 43.3392 60.9039 43.3484 57.9844" fill="#FDBCA0"/>
<mask id="mask2_6978_57065" style="mask-type:luminance" maskUnits="userSpaceOnUse" x="13" y="49" width="31" height="40">
<path d="M39.6563 49.0444C39.6686 49.3364 39.0389 51.4077 38.4154 56.8319C37.7949 62.2592 34.6434 69.6994 34.6833 70.5722C34.7233 71.445 32.7206 72.2686 31.1448 75.9903C29.5691 79.7119 26.1933 82.3487 25.3548 83.117C25.3548 83.117 23.5825 82.6161 21.6965 82.8497C19.8136 83.0832 18.0382 82.5823 17.7218 82.0138C17.7218 82.0138 16.8832 82.7821 17.645 83.4766C18.4068 84.1712 20.1238 83.5073 20.603 84.3586C21.0791 85.213 19.9764 86.5744 18.9382 86.1872C17.9 85.7969 17.5744 85.0839 17.4085 84.6536C17.2426 84.2234 17.8877 82.444 16.5577 82.0691C16.5577 82.0691 16.1614 84.4938 16.3334 85.0685C16.3334 85.0685 14.4935 83.114 13.5137 84.0329C13.5137 84.0329 15.3351 85.551 15.501 85.9813C15.501 85.9813 14.0113 85.3205 13.6181 86.2148C13.6181 86.2148 14.9696 87.0262 15.5563 87.146C16.1461 87.2659 16.5884 87.3888 16.8986 87.8129C16.8986 87.8129 15.286 87.5978 15.1816 88.4767C15.1816 88.4767 16.7819 88.4029 17.5221 88.658C18.2624 88.9162 21.0392 89.076 22.0313 88.446C23.0234 87.816 36.6676 80.3235 39.6931 73.3258C39.6931 73.3258 43.3392 60.9039 43.3484 57.9844" fill="white"/>
</mask>
<g mask="url(#mask2_6978_57065)">
<g style="mix-blend-mode:multiply" opacity="0.21">
<path d="M36.9336 63.5837C36.9336 63.5837 39.9929 69.8499 43.9246 72.3269C47.8563 74.8039 42.0325 59.0691 36.9336 63.5837Z" fill="#D18161"/>
</g>
</g>
<path d="M68.6832 49.5947C68.6678 49.8867 69.0395 50.7472 69.6231 56.1775C70.2067 61.6079 73.2998 69.0727 73.2538 69.9455C73.2077 70.8183 75.2042 71.6572 76.7523 75.3881C78.3004 79.119 81.6577 81.7835 82.4901 82.5579C82.4901 82.5579 84.2655 82.0693 86.1484 82.3182C88.0313 82.5671 89.8068 82.0785 90.1293 81.513C90.1293 81.513 90.9617 82.2875 90.1968 82.9759C89.4289 83.6643 87.718 82.9881 87.2327 83.8363C86.7505 84.6846 87.8409 86.0583 88.8822 85.6772C89.9235 85.2961 90.2552 84.5831 90.4242 84.156C90.5931 83.7288 89.9603 81.9433 91.2934 81.5776C91.2934 81.5776 91.6712 84.0054 91.4961 84.5801C91.4961 84.5801 93.3514 82.6378 94.322 83.5659C94.322 83.5659 92.4914 85.0718 92.3224 85.502C92.3224 85.502 93.8152 84.8536 94.2053 85.751C94.2053 85.751 92.8507 86.5531 92.261 86.6668C91.6712 86.7805 91.2258 86.9034 90.9125 87.3244C90.9125 87.3244 92.5282 87.1185 92.6265 88.0005C92.6265 88.0005 91.0262 87.9145 90.2829 88.1665C89.5395 88.4185 86.7628 88.5599 85.7737 87.9237C84.7877 87.2876 71.1958 79.6937 68.2224 72.6745C68.2224 72.6745 64.6655 60.2249 64.6778 57.3085" fill="#FDBCA0"/>
<mask id="mask3_6978_57065" style="mask-type:luminance" maskUnits="userSpaceOnUse" x="64" y="49" width="31" height="40">
<path d="M68.6832 49.5947C68.6678 49.8867 69.0395 50.7472 69.6231 56.1775C70.2067 61.6079 73.2998 69.0727 73.2538 69.9455C73.2077 70.8183 75.2042 71.6572 76.7523 75.3881C78.3004 79.119 81.6577 81.7835 82.4901 82.5579C82.4901 82.5579 84.2655 82.0693 86.1484 82.3182C88.0313 82.5671 89.8068 82.0785 90.1293 81.513C90.1293 81.513 90.9617 82.2875 90.1968 82.9759C89.4289 83.6643 87.718 82.9881 87.2327 83.8363C86.7505 84.6846 87.8409 86.0583 88.8822 85.6772C89.9235 85.2961 90.2552 84.5831 90.4242 84.156C90.5931 83.7288 89.9603 81.9433 91.2934 81.5776C91.2934 81.5776 91.6712 84.0054 91.4961 84.5801C91.4961 84.5801 93.3514 82.6378 94.322 83.5659C94.322 83.5659 92.4914 85.0718 92.3224 85.502C92.3224 85.502 93.8152 84.8536 94.2053 85.751C94.2053 85.751 92.8507 86.5531 92.261 86.6668C91.6712 86.7805 91.2258 86.9034 90.9125 87.3244C90.9125 87.3244 92.5282 87.1185 92.6265 88.0005C92.6265 88.0005 91.0262 87.9145 90.2829 88.1665C89.5395 88.4185 86.7628 88.5599 85.7737 87.9237C84.7877 87.2876 71.1958 79.6937 68.2224 72.6745C68.2224 72.6745 64.6655 60.2249 64.6778 57.3085" fill="white"/>
</mask>
<g mask="url(#mask3_6978_57065)">
<g style="mix-blend-mode:multiply" opacity="0.21">
<path d="M68.2443 75.2374C68.2443 75.2374 71.0118 70.5753 73.4875 69.9914C75.9633 69.4075 66.9327 64.1646 68.2443 75.2374Z" fill="#D18161"/>
</g>
</g>
<path d="M45.6729 78.1538L42.9054 58.3378L39.4406 50.1631C39.4406 50.1631 38.7648 48.0918 46.5453 44.3486C54.4117 40.5655 68.2432 45.0769 68.7501 50.0586C69.3091 55.5504 65.3313 57.3144 65.3313 57.3144L62.272 78.1507C62.272 78.1507 55.1366 81.7925 45.6698 78.1507L45.6729 78.1538Z" fill="#FDBCA0"/>
<mask id="mask4_6978_57065" style="mask-type:luminance" maskUnits="userSpaceOnUse" x="39" y="42" width="30" height="38">
<path d="M45.6729 78.1538L42.9054 58.3378L39.4406 50.1631C39.4406 50.1631 38.7648 48.0918 46.5453 44.3486C54.4117 40.5655 68.2432 45.0769 68.7501 50.0586C69.3091 55.5504 65.3313 57.3144 65.3313 57.3144L62.272 78.1507C62.272 78.1507 55.1366 81.7925 45.6698 78.1507L45.6729 78.1538Z" fill="white"/>
</mask>
<g mask="url(#mask4_6978_57065)">
<g style="mix-blend-mode:multiply" opacity="0.21">
<path d="M43.9239 72.3238C43.884 72.6465 57.35 81.6387 63.8158 76.6908C70.2816 71.743 45.2324 61.8349 43.9239 72.3238Z" fill="#D18161"/>
</g>
</g>
<path d="M47.375 44.3269C47.1324 45.0553 51.4787 39.8216 51.0671 32.2554H55.9817C55.9817 32.2554 55.9879 41.6747 60.9639 44.6158C60.9639 44.6158 53.1343 51.8839 47.375 44.33V44.3269Z" fill="#FDBCA0"/>
<mask id="mask5_6978_57065" style="mask-type:luminance" maskUnits="userSpaceOnUse" x="47" y="32" width="14" height="16">
<path d="M47.375 44.3269C47.1324 45.0553 51.4787 39.8216 51.0671 32.2554H55.9817C55.9817 32.2554 55.9879 41.6747 60.9639 44.6158C60.9639 44.6158 53.1343 51.8839 47.375 44.33V44.3269Z" fill="white"/>
</mask>
<g mask="url(#mask5_6978_57065)">
<g style="mix-blend-mode:multiply" opacity="0.34">
<path d="M53.467 41.146C55.92 41.146 57.9085 39.5472 57.9085 37.575C57.9085 35.6027 55.92 34.0039 53.467 34.0039C51.0139 34.0039 49.0254 35.6027 49.0254 37.575C49.0254 39.5472 51.0139 41.146 53.467 41.146Z" fill="#D18161"/>
</g>
</g>
<path d="M41.5978 95.0531C41.5978 95.0531 41.0142 93.4488 40.4336 91.7033C39.8531 89.9577 37.3743 89.8102 35.4822 90.8305C33.59 91.8508 29.6584 89.5182 28.1993 89.3738C26.7434 89.2293 24.7038 89.3738 25.14 90.5385C25.6499 91.903 27.4714 90.683 28.1993 91.5588C28.9273 92.4316 37.3743 97.9695 39.85 97.9695C39.85 97.9695 41.5978 97.5331 41.5978 95.0561V95.0531Z" fill="#FDBCA0"/>
<path d="M66.2595 92.9419C66.2595 92.9419 66.9936 91.4023 67.7431 89.7181C68.4926 88.034 70.9683 88.1262 72.756 89.3248C74.5437 90.5233 78.6811 88.5811 80.1432 88.5749C81.6053 88.5688 83.6234 88.913 83.0736 90.0285C82.4347 91.3377 80.7391 89.9486 79.9313 90.7477C79.1235 91.5467 70.182 96.2456 67.7185 96.0059C67.7185 96.0059 66.0199 95.4036 66.2595 92.9358V92.9419Z" fill="#FDBCA0"/>
<path d="M40.2621 48.4452C40.4372 48.4544 64.6386 57.3667 69.2092 52.7507C69.2092 52.7507 70.1245 60.1479 71.1596 62.9968C72.3238 66.2021 73.491 69.8439 73.491 69.9914C73.491 69.9914 71.8876 69.6994 66.9362 74.6534C60.2431 81.3499 45.7358 75.2711 36.8926 63.5254C36.8926 63.5254 37.9062 48.3161 40.2591 48.4452H40.2621Z" fill="#FFD2B9"/>
<mask id="mask6_6978_57065" style="mask-type:luminance" maskUnits="userSpaceOnUse" x="36" y="48" width="38" height="30">
<path d="M40.2621 48.4452C40.4372 48.4544 64.6386 57.3667 69.2092 52.7507C69.2092 52.7507 70.1245 60.1479 71.1596 62.9968C72.3238 66.2021 73.491 69.8439 73.491 69.9914C73.491 69.9914 71.8876 69.6994 66.9362 74.6534C60.2431 81.3499 45.7358 75.2711 36.8926 63.5254C36.8926 63.5254 37.9062 48.3161 40.2591 48.4452H40.2621Z" fill="white"/>
</mask>
<g mask="url(#mask6_6978_57065)">
<path d="M35.6454 55.5106C38.4406 54.1492 42.1357 56.282 44.9555 54.9636C45.2688 54.8161 45.5698 54.6286 45.9138 54.561C46.2241 54.5026 46.5466 54.5456 46.8568 54.5917L55.9581 55.904C56.772 56.0207 57.5891 56.1375 58.4123 56.1406C59.4935 56.1437 60.6024 55.9562 61.6344 56.2543C62.1228 56.3957 62.5682 56.6446 63.0505 56.8075C64.3098 57.2377 65.7074 57.0749 67.0374 56.9089C68.8497 56.6815 70.6619 56.451 72.4742 56.2236C72.9902 56.159 73.7151 56.2359 73.7551 56.7153C73.7981 57.2316 73.0117 57.3699 72.4496 57.3668C70.7756 57.3637 69.1446 57.8309 67.4828 57.9999C66.2849 58.1197 65.0777 58.0829 63.8736 58.0398C58.0898 57.8432 52.309 57.5727 46.5312 57.2285C45.4162 57.1609 44.2982 57.0933 43.1985 56.915C42.8084 56.8505 42.403 56.7768 42.019 56.8628C41.6996 56.9366 41.4201 57.1179 41.1037 57.2101C39.8873 57.5696 38.6587 56.537 37.3839 56.6139C36.8218 56.6477 36.2812 56.8966 35.7191 56.8505C35.157 56.8044 34.6041 56.2051 34.9481 55.7933" fill="#FCEBE6"/>
<path d="M34.5859 60.1078C34.7119 59.484 35.6118 59.2658 36.2692 59.4563C36.9265 59.6468 37.461 60.0955 38.0999 60.3322C40.0657 61.0574 42.2066 59.6161 44.323 59.7114C45.7544 59.7759 47.112 60.5442 48.5342 60.3844C48.955 60.3352 49.3574 60.2092 49.7782 60.157C50.6628 60.0494 51.5474 60.2953 52.4167 60.4858C55.2825 61.1128 58.2528 61.165 61.1985 61.2111C62.9985 61.2388 64.8015 61.2695 66.6015 61.2972C68.2264 61.3217 69.8789 61.3463 71.4454 60.9468C72.0506 60.7931 72.6495 60.575 73.2761 60.5657C73.9027 60.5596 74.5908 60.827 74.815 61.3678C73.0058 61.6045 71.1936 61.8442 69.3844 62.0808C68.5028 62.1976 67.6213 62.3113 66.7305 62.339C65.3759 62.382 64.0213 62.2191 62.6667 62.1607C58.4617 61.9825 54.2198 62.8184 50.0608 62.213C48.9673 62.0532 47.8738 61.795 46.7711 61.8657C45.8189 61.9272 44.8912 62.2283 43.939 62.2007C43.2295 62.1792 42.5414 61.9733 41.8565 61.8042C39.4514 61.208 36.9296 61.0267 34.4538 61.2726L33.5508 59.9511C33.9163 59.9357 34.2818 59.9204 34.6473 59.905" fill="#FCEBE6"/>
<path d="M34.6001 64.831C35.881 64.0566 37.5765 64.244 39.0386 64.662C40.5007 65.0799 41.9351 65.7007 43.4679 65.7069C44.9023 65.7161 46.2815 65.1814 47.7159 65.1137C49.992 65.0062 52.2312 66.0787 54.4858 65.7745C55.438 65.6454 56.3441 65.2766 57.3056 65.209C58.0151 65.1598 58.7277 65.2766 59.4281 65.3965C60.8349 65.6331 62.2417 65.8697 63.6454 66.1064C64.0785 66.1801 64.5177 66.2539 64.957 66.2262C65.5283 66.1924 66.0689 65.9896 66.6034 65.8083C67.9518 65.3473 69.3371 64.9785 70.7439 64.7081C71.5026 64.5636 72.335 64.453 73.0231 64.7818C73.2872 64.9078 73.5207 65.0953 73.8063 65.1752C74.3654 65.3289 74.9367 65.0308 75.5049 64.9078C76.0732 64.7849 76.8657 65.0185 76.835 65.5563C75.2285 66.0849 73.4623 65.8175 71.7606 65.8943C69.9514 65.9742 68.1945 66.4444 66.4099 66.7241C63.6239 67.1636 60.7519 67.1359 57.9752 66.6473C57.023 66.4813 56.0769 66.257 55.1093 66.2232C53.9606 66.1801 52.8241 66.4014 51.6876 66.5366C48.8463 66.8747 45.9651 66.6811 43.1054 66.4875L38.4028 66.1679C37.1895 66.0849 35.97 66.0019 34.7905 65.7315C34.5387 65.6731 34.2653 65.5932 34.1271 65.3903C33.9888 65.1875 34.1056 64.8433 34.3636 64.8433" fill="#FCEBE6"/>
<path d="M39.8855 70.0224C40.979 69.5615 42.2629 69.7274 43.4117 70.0532C44.5605 70.3759 45.6724 70.8491 46.8673 70.9874C50.2584 71.3777 53.7846 69.0236 56.9392 70.2376C57.4921 70.4496 58.0296 70.7723 58.6286 70.7477C59.077 70.7293 59.4886 70.5172 59.9187 70.3974C61.1504 70.0593 62.4589 70.5142 63.6476 70.9628C64.0899 71.1288 64.5752 71.2978 65.0298 71.1657C65.3677 71.0673 65.6288 70.8215 65.9513 70.6832C66.6762 70.3759 67.5117 70.6832 68.3011 70.7877C69.4714 70.9475 70.6509 70.6586 71.8212 70.4988C72.9915 70.339 74.2816 70.3328 75.243 70.969C74.5304 71.473 73.5966 71.6021 72.6997 71.6605C69.7233 71.8479 66.6701 71.3962 63.7828 72.0999C63.322 72.2106 62.8613 72.355 62.3882 72.3396C61.8691 72.3243 61.3808 72.1214 60.8893 71.9616C59.0279 71.3562 57.0129 71.3408 55.0409 71.3347C54.2269 71.3316 53.413 71.3285 52.602 71.4085C50.7253 71.5959 48.8977 72.229 47.0148 72.1645C44.7387 72.0846 42.6039 70.9844 40.3247 70.9628C39.9961 70.9598 39.6521 70.9782 39.348 70.8553C39.0439 70.7354 38.8012 70.4189 38.9087 70.1331C39.0162 69.8473 39.5722 69.8073 39.6428 70.1023" fill="#FCEBE6"/>
<path d="M35.5012 52.09C36.091 51.082 37.4978 50.7071 38.7356 50.8085C39.9735 50.9099 41.1377 51.377 42.3479 51.6383C43.6011 51.9087 44.9096 51.9517 46.1813 51.7673C46.8601 51.669 47.5451 51.5061 48.2239 51.6014C48.8751 51.6905 49.4618 52.0101 50.0915 52.1791C52.3337 52.7815 54.6098 51.4754 56.9228 51.1834C58.4709 50.9867 60.0435 51.251 61.5793 51.5245C65.3329 52.1914 69.1693 52.9198 72.9536 52.4096C72.9321 53.2609 71.7219 53.5529 70.8004 53.5836C67.1482 53.6973 63.4868 53.5774 59.85 53.2271C58.0255 53.0519 56.1978 52.8184 54.3672 52.9167C53.0832 52.9874 51.8085 53.221 50.5246 53.1749C48.3621 53.095 46.2949 52.2283 44.1325 52.1945C43.0206 52.1761 41.9179 52.382 40.8121 52.4926C39.3039 52.6432 37.7742 52.6155 36.2753 52.4096C35.965 52.3666 35.6272 52.3021 35.4306 52.0808C35.2309 51.8565 35.3077 51.4293 35.6179 51.3893" fill="#FCEBE6"/>
<path d="M47.7305 74.54C51.1492 74.6229 54.5894 74.7028 57.9774 74.2787C58.733 74.1835 59.4917 74.0636 60.2535 74.079C60.9262 74.0913 61.5897 74.2111 62.2531 74.3218C64.7012 74.7336 67.1708 75.044 69.6496 75.256C67.5117 76.2056 65.0084 76.1012 62.6586 75.7969C60.3088 75.4927 57.9406 75.0132 55.5846 75.2775C54.2239 75.4312 52.8908 75.8338 51.5209 75.7877C50.4734 75.7508 49.4383 75.4466 48.5629 74.9149" fill="#FCEBE6"/>
</g>
<path d="M63.1134 29.0687C63.1134 35.0922 56.3773 39.9785 53.5391 39.9785C50.7009 39.9785 43.9648 35.0952 43.9648 29.0687C43.9648 23.0421 48.0747 15.5005 53.361 15.5005C58.6472 15.5005 63.1134 23.0452 63.1134 29.0687Z" fill="#FDBCA0"/>
<mask id="mask7_6978_57065" style="mask-type:luminance" maskUnits="userSpaceOnUse" x="43" y="15" width="21" height="25">
<path d="M63.1114 29.0687C63.1114 35.0922 56.3753 39.9785 53.5372 39.9785C50.699 39.9785 43.9629 35.0952 43.9629 29.0687C43.9629 23.0421 48.0727 15.5005 53.359 15.5005C58.6453 15.5005 63.1114 23.0452 63.1114 29.0687Z" fill="white"/>
</mask>
<g mask="url(#mask7_6978_57065)">
<g style="mix-blend-mode:multiply" opacity="0.18">
<path d="M53.2949 18.718C53.2949 18.718 56.7351 25.98 62.2548 28.6199L55.402 18.5213L51.3044 17.6424C51.3044 17.6424 45.2318 26.739 46.1103 29.4834C46.1103 29.4834 51.1416 19.7321 54.3638 18.7579C57.5859 17.7837 52.6191 17.3228 52.6191 17.3228" fill="#A05940"/>
</g>
</g>
<path d="M53.3919 18.9975C53.3919 18.9975 48.4405 22.2029 46.1091 29.4895C46.1091 29.4895 44.7975 32.6948 45.6729 34.4435C46.5483 36.1921 49.8964 38.5247 49.1684 40.7097C49.1684 40.7097 49.3128 44.499 45.9647 47.1204C45.9647 47.1204 49.1684 45.8082 51.936 50.9097C51.936 50.9097 57.7598 47.8488 61.9833 53.2422C61.9833 53.2422 65.0426 49.7449 68.0989 54.2625C68.0989 54.2625 70.8664 52.3694 72.3224 56.0112C72.3224 56.0112 74.5063 54.2625 73.7783 59.0721C73.7783 59.0721 76.254 61.1127 73.1947 63.0058C73.1947 63.0058 73.6309 64.0261 71.8831 65.0464L71.0108 62.5694C71.0108 62.5694 71.4469 62.133 72.4667 62.133C72.4667 62.133 71.5944 60.0924 73.0503 59.0721C73.0503 59.0721 70.719 58.4882 70.719 56.0112C70.719 56.0112 68.0989 57.7598 66.3511 54.6989C66.3511 54.6989 62.1276 58.1962 58.7796 53.5342C58.7796 53.5342 52.0803 58.0518 49.021 52.0775C49.021 52.0775 40.7215 55.8668 40.2822 48.4357C40.2822 48.4357 35.9144 42.4614 41.4464 38.9641C41.4464 38.9641 36.3628 32.24 39.4068 26.2872C42.6105 20.0209 45.6698 10.6968 52.6578 14.6305C52.6578 14.6305 64.8921 9.24012 63.1443 29.3481C63.1443 29.3481 57.0287 24.686 53.3858 19.0037L53.3919 18.9975Z" fill="#1D3542"/>
<mask id="mask8_6978_57065" style="mask-type:luminance" maskUnits="userSpaceOnUse" x="38" y="13" width="37" height="53">
<path d="M53.3919 18.9975C53.3919 18.9975 48.4405 22.2029 46.1091 29.4895C46.1091 29.4895 44.7975 32.6948 45.6729 34.4435C46.5483 36.1921 49.8964 38.5247 49.1684 40.7097C49.1684 40.7097 49.3128 44.499 45.9647 47.1204C45.9647 47.1204 49.1684 45.8082 51.936 50.9097C51.936 50.9097 57.7598 47.8488 61.9833 53.2422C61.9833 53.2422 65.0426 49.7449 68.0989 54.2625C68.0989 54.2625 70.8664 52.3694 72.3224 56.0112C72.3224 56.0112 74.5063 54.2625 73.7783 59.0721C73.7783 59.0721 76.254 61.1127 73.1947 63.0058C73.1947 63.0058 73.6309 64.0261 71.8831 65.0464L71.0108 62.5694C71.0108 62.5694 71.4469 62.133 72.4667 62.133C72.4667 62.133 71.5944 60.0924 73.0503 59.0721C73.0503 59.0721 70.719 58.4882 70.719 56.0112C70.719 56.0112 68.0989 57.7598 66.3511 54.6989C66.3511 54.6989 62.1276 58.1962 58.7796 53.5342C58.7796 53.5342 52.0803 58.0518 49.021 52.0775C49.021 52.0775 40.7215 55.8668 40.2822 48.4357C40.2822 48.4357 35.9144 42.4614 41.4464 38.9641C41.4464 38.9641 36.3628 32.24 39.4068 26.2872C42.6105 20.0209 45.6698 10.6968 52.6578 14.6305C52.6578 14.6305 64.8921 9.24012 63.1443 29.3481C63.1443 29.3481 57.0287 24.686 53.3858 19.0037L53.3919 18.9975Z" fill="white"/>
</mask>
<g mask="url(#mask8_6978_57065)">
<g style="mix-blend-mode:multiply" opacity="0.22">
<path d="M45.6723 34.4404C45.6723 34.4404 48.4398 41.435 53.5356 41.143C58.6315 40.8511 62.2191 34.3451 62.5386 31.0414C62.858 27.7377 45.0887 30.7986 45.6723 34.4404Z" fill="#1D3542"/>
</g>
</g>
<path d="M46.2291 29.9541C46.5056 31.085 46.1216 32.1545 45.3721 32.3389C44.6196 32.5233 43.7872 31.755 43.5077 30.624C43.2312 29.4931 43.6152 28.4236 44.3647 28.2392C45.1172 28.0548 45.9496 28.8232 46.2291 29.9541Z" fill="#FDBCA0"/>
<path d="M62.16 28.936C61.8836 30.067 62.2675 31.1364 63.017 31.3208C63.7696 31.5052 64.602 30.7369 64.8815 29.606C65.1579 28.475 64.774 27.4056 64.0245 27.2212C63.2719 27.0368 62.4395 27.8051 62.16 28.936Z" fill="#FDBCA0"/>
<path d="M37.6658 62.4156C34.6064 61.3953 33.2979 65.037 33.2979 65.037C31.114 64.1642 30.5304 66.9301 30.5304 66.9301C28.6383 68.5343 30.5304 70.7194 30.5304 70.7194C30.5304 70.9652 30.555 71.1896 30.5949 71.3955L32.2352 70.5411C31.8236 70.5319 31.5471 70.5719 31.5471 70.5719C32.2751 69.1152 31.1109 67.511 31.1109 67.511C33.2949 67.6554 34.0228 65.7623 34.0228 65.7623C41.8862 68.6757 43.9258 59.6436 43.9258 59.6436C43.9258 59.6436 40.7221 63.4328 37.6627 62.4125L37.6658 62.4156Z" fill="#1D3542"/>
<path d="M47.9023 29.7015C48.5412 29.8552 49.1648 29.9259 49.7914 29.8798C50.418 29.8398 51.0262 29.6831 51.6405 29.4434C51.146 29.8859 50.4794 30.1225 49.8129 30.1686C49.1464 30.2117 48.4522 30.0703 47.9023 29.7015Z" fill="#2E2430"/>
<path d="M52.2286 36.3919C53.1194 36.7514 54.0808 36.6777 54.9132 36.2013C55.0545 36.1214 54.9255 35.9032 54.7873 35.9831C54.0071 36.4318 53.1286 36.4841 52.2993 36.1491C52.1488 36.0876 52.0843 36.3335 52.2317 36.3919H52.2286Z" fill="#A34F31"/>
<path d="M52.2637 33.9391C52.5063 33.9453 52.7213 33.9606 52.9364 33.9606C53.1483 33.9606 53.3572 33.9606 53.563 33.9422C53.7688 33.9268 53.9776 33.9053 54.1865 33.8715C54.3985 33.8408 54.6104 33.7978 54.85 33.7578C54.7056 33.9545 54.506 34.0959 54.2909 34.2003C54.0729 34.3018 53.8363 34.3632 53.5937 34.3786C53.3541 34.394 53.1084 34.3694 52.878 34.2987C52.6507 34.2249 52.4326 34.1112 52.2637 33.9391Z" fill="#A34F31"/>
<path d="M55.7695 29.7259C56.4084 29.8796 57.032 29.9503 57.6586 29.9042C58.2852 29.8642 58.8934 29.7075 59.5077 29.4678C59.0132 29.9103 58.3466 30.147 57.6801 30.193C57.0135 30.2361 56.3194 30.0947 55.7695 29.7259Z" fill="#2E2430"/>
<path d="M47.8567 28.272C48.7137 27.2855 49.9731 26.8369 51.2601 27.0858C51.4813 27.1288 51.5765 26.7908 51.3522 26.7477C49.9485 26.4742 48.5478 26.9383 47.6079 28.0231C47.4605 28.1921 47.7062 28.4411 47.8567 28.272Z" fill="#1D3542"/>
<path d="M59.6172 27.8761C58.6773 26.7913 57.2766 26.3272 55.8729 26.6008C55.6517 26.6438 55.7439 26.9818 55.965 26.9388C57.2521 26.6868 58.5114 27.1355 59.3684 28.1251C59.5158 28.2972 59.7646 28.0452 59.6172 27.8761Z" fill="#1D3542"/>
<path d="M53.6807 18.5024C53.8742 19.4152 54.2367 20.3433 54.679 21.2007C55.1244 22.0643 55.6619 22.8879 56.3008 23.6285C56.9366 24.3661 57.64 25.0637 58.4356 25.6384C58.8165 25.9519 59.2465 26.1947 59.6612 26.462C60.082 26.7202 60.5335 26.923 60.9697 27.1566C60.5243 26.9445 60.0605 26.7632 59.6274 26.5266C59.1973 26.2807 58.755 26.0533 58.3526 25.7583C57.5172 25.2174 56.7708 24.5474 56.0827 23.8222C55.3916 23.0969 54.8018 22.2794 54.295 21.4128C53.7913 20.5369 53.3766 19.6303 53.1094 18.6192L53.6807 18.5055V18.5024Z" fill="#1D3542"/>
<path d="M53.8823 17.8692C53.6795 18.3333 53.5321 18.868 53.4399 19.3905C53.3478 19.919 53.3202 20.4599 53.357 20.9977C53.3877 21.5386 53.5044 22.0734 53.698 22.5835C53.873 23.1029 54.1741 23.57 54.4904 24.0218C54.1372 23.6007 53.7901 23.1551 53.5659 22.6419C53.3232 22.1379 53.1512 21.5939 53.0714 21.0346C52.9823 20.4753 52.9638 19.9037 53.013 19.3382C53.0652 18.7666 53.1604 18.2165 53.3509 17.6479L53.8884 17.8723L53.8823 17.8692Z" fill="#1D3542"/>
<path d="M54.3655 18.4321C54.1137 18.595 53.8495 18.807 53.613 19.0222C53.3703 19.2404 53.143 19.477 52.9311 19.7259C52.7161 19.9749 52.5195 20.2392 52.3413 20.5219C52.157 20.7985 52.0096 21.0966 51.8652 21.4008C51.9635 21.0812 52.068 20.7585 52.2123 20.4512C52.3506 20.1408 52.5133 19.8427 52.6946 19.5538C52.8758 19.265 53.0755 18.9853 53.2966 18.721C53.5178 18.4536 53.7451 18.2047 54.0246 17.9619L54.3686 18.4321H54.3655Z" fill="#1D3542"/>
<g style="mix-blend-mode:multiply" opacity="0.56">
<path d="M101.258 115.41C101.258 116.184 80.9425 116.814 55.8811 116.814C30.8197 116.814 10.5039 116.184 10.5039 115.41C10.5039 114.635 30.8197 114.005 55.8811 114.005C80.9425 114.005 101.258 114.635 101.258 115.41Z" fill="#A7D3DF"/>
</g>
</svg>
