<svg width="178" height="146" viewBox="0 0 178 146" fill="none" xmlns="http://www.w3.org/2000/svg">
<path d="M177.338 154.862C177.243 154.358 177.134 153.823 177.037 153.379C177.032 153.363 176.965 153.284 176.963 153.266C176.91 153.074 176.898 152.877 176.85 152.694C176.651 151.938 176.406 151.056 176.207 150.374C176.123 150.08 176.019 149.877 175.906 149.652C175.577 149.083 175.307 148.459 174.999 147.864C174.895 147.529 174.59 147.394 174.435 147.103C174.187 146.911 173.99 146.661 173.791 146.42C173.336 145.99 172.949 145.495 172.434 145.125C172.098 144.907 171.714 144.699 171.413 144.519C171.346 144.477 171.288 144.403 171.226 144.364C171.076 144.274 170.918 144.225 170.77 144.137C170.495 143.968 170.247 143.769 169.942 143.64C169.637 143.515 169.287 143.462 168.959 143.297C167.615 142.876 166.391 142.333 164.991 141.967C163.636 141.546 162.206 141.195 160.721 140.903C159.291 140.507 157.806 140.309 156.376 139.955C154.947 139.596 153.526 139.258 152.111 138.927C150.658 138.615 149.205 138.284 147.729 138.014C146.235 137.743 144.74 137.414 143.156 137.253C143.287 137.132 143.503 137.095 143.611 136.952C143.718 136.79 143.887 136.695 143.949 136.491C144.308 135.885 144.076 134.888 143.912 134.247C143.882 133.977 143.708 133.845 143.762 133.486C143.924 133.276 144.247 133.313 144.518 133.26C144.796 133.204 145.057 133.093 145.309 133.068C145.497 132.929 145.821 132.922 145.989 132.767C146.073 132.684 146.2 132.647 146.253 132.538C146.38 132.496 146.482 132.401 146.517 132.309C146.649 132.087 146.792 131.876 146.859 131.587C146.931 131.298 147.003 130.958 147.047 130.599C147.093 130.231 147.16 129.815 147.123 129.459C147.081 129.075 146.864 128.797 146.822 128.469C146.806 127.712 146.857 126.886 146.785 126.188C146.774 125.804 146.676 125.515 146.672 125.121C146.607 124.994 146.593 124.821 146.595 124.629C146.531 124.49 146.45 124.369 146.441 124.173C146.429 123.123 146.392 122.095 146.327 121.094C146.422 120.77 146.515 120.446 146.593 120.104C146.521 119.87 146.552 119.534 146.478 119.305C146.364 119.106 146.267 118.887 146.14 118.695C146.024 118.498 145.823 118.382 145.726 118.163C145.517 118.054 145.36 117.897 145.196 117.744C144.56 117.383 143.491 117.619 142.778 117.744C142.73 117.809 142.61 117.804 142.552 117.857C142.142 118.096 141.839 118.433 141.569 118.81C141.282 119.169 141.041 119.574 140.999 120.178C140.824 120.328 140.743 120.58 140.548 120.712C140.454 120.946 140.225 121.043 140.134 121.281C139.942 121.42 139.822 121.628 139.605 121.741C139.415 121.892 139.276 122.091 139.001 122.16C137.932 121.369 137.076 120.367 136.428 119.155C135.686 118.003 135.228 116.643 134.656 115.352C134.085 114.061 133.458 112.803 132.766 111.662C132.447 111.061 132.028 110.556 131.633 110.029C131.151 109.573 130.638 109.152 130.198 108.657C129.28 107.715 129.088 106.048 128.609 104.666C128.422 103.748 128.109 102.86 127.857 101.962C127.591 101.032 127.39 100.095 127.175 99.1491C126.747 97.2637 126.312 95.376 125.817 93.5207C124.831 89.8378 123.735 86.178 123.057 82.3008C122.733 80.6884 122.768 78.8632 122.717 77.0564C122.668 75.2682 122.451 73.5031 122.266 71.9208C122.183 71.3147 122.127 70.6785 122.037 70.0562C121.954 69.457 121.785 68.881 121.699 68.3096C121.602 67.6549 121.627 67.0072 121.549 66.3664C121.472 65.7742 121.322 65.1958 121.211 64.6198C121.188 64.171 120.989 63.905 120.906 63.5163C120.755 63.1971 120.683 62.8038 120.529 62.4892C120.464 62.0982 120.235 61.8761 120.114 61.5407C119.918 61.2654 119.818 60.8999 119.622 60.6269C119.249 60.0671 118.807 59.5697 118.414 59.0307C117.928 58.5819 117.419 58.1586 116.903 57.7398C116.626 57.5293 116.283 57.4391 115.96 57.2795C115.594 57.106 115.252 56.8307 114.863 56.7474C114.252 56.6919 113.674 56.6017 113.123 56.4791C112.679 56.3819 112.21 56.4305 111.726 56.442C110.225 56.479 108.691 56.4675 107.305 56.3287C104.874 56.0395 102.639 55.5445 100.768 54.6955C100.289 54.4849 99.8192 54.286 99.4098 54.0107C99.0026 53.7354 98.6949 53.3676 98.4266 52.9442C98.3849 52.6805 98.2276 52.4515 98.1629 52.1831C98.0911 51.8939 98.0911 51.5817 98.0495 51.2717C97.9709 50.6818 97.8321 50.0664 97.8205 49.4464C97.802 48.4494 97.8621 47.4893 97.9292 46.5617C98.5353 44.8891 99.153 42.9019 99.6943 40.6117C100.12 39.7835 100.451 38.8605 100.715 37.868C101.425 41.2594 100.971 41.9164 100.865 43.3414C100.708 45.088 99.574 48.1579 99.574 48.1579C99.574 48.1579 101.746 45.0672 103.539 38.4996C104.858 37.9883 106.669 36.2371 107.564 30.6943C107.74 29.0819 107.9 27.37 107.865 25.7876C107.907 24.1243 107.731 22.6738 107.548 21.1817C107.261 19.8677 107.007 18.4404 106.528 17.3531C104.476 5.33515 97.1404 -1.78076 88.5578 0.386868C85.4902 1.15953 83.7622 2.08951 83.0381 6.69311C83.0334 6.71855 83.0335 6.74168 83.0288 6.76944C82.6101 6.8666 82.1659 6.96608 81.6871 7.06324C76.4635 8.11119 74.4809 13.9964 74.0853 16.6197C74.0599 16.8048 74.0321 16.9783 74.0067 17.1518C73.4862 20.9874 73.9789 22.5697 74.4162 23.428C74.6151 23.8351 74.8048 24.0827 74.8649 24.3348C75.0917 25.2417 75.3438 25.5401 75.7949 26.5001C75.9013 26.595 76.017 26.7037 76.1327 26.8309C76.1327 26.9258 76.1373 27.023 76.1327 27.1201C75.9754 27.2288 75.9222 26.9651 75.7926 26.9281C75.6954 26.8124 75.6284 26.6644 75.4919 26.5904C75.3646 26.3012 75.0917 26.1531 74.7724 26.056C74.2843 26.0606 74.0599 26.3266 73.8679 26.6274C73.6296 27.5203 73.7152 28.5174 73.8309 29.4404C73.9442 30.3635 74.127 31.2634 74.3213 32.0268C74.5064 32.8712 74.8094 33.5906 75.2281 34.1967C75.3947 34.5368 75.67 34.7658 75.7949 35.1452C76.0216 35.4344 76.1627 35.8114 76.5861 35.9063C76.593 35.9618 76.6786 35.941 76.7388 35.9433C76.9493 35.9549 77.1344 35.9364 77.2292 35.8299C77.294 35.7952 77.3449 35.7443 77.3796 35.6796C77.4235 35.668 77.4883 35.4621 77.4929 35.6379C77.6294 36.5679 77.8353 37.5349 78.0597 38.3006C78.2124 38.8211 78.372 39.2838 78.5895 39.7095C78.8162 40.3456 79.1493 40.8685 79.4963 41.382C79.9104 42.2866 80.114 43.3206 80.3268 44.4287C80.38 44.6971 80.4517 44.94 80.4795 45.2268C80.5743 46.1915 80.5535 47.1007 80.5928 48.0769C80.6622 48.8727 80.5605 49.6847 80.4402 50.4365C80.3176 51.2092 80.2435 51.9587 79.9497 52.5648C79.4639 53.8025 78.2402 54.2929 77.0025 54.7718C74.0136 56.0303 69.9005 56.4467 65.6323 56.1806C65.2853 56.2593 64.9221 56.3241 64.5381 56.368C64.2027 56.4767 63.7122 56.4258 63.4045 56.5554C63.1986 56.5924 63.0922 56.7243 62.9141 56.7844C62.4352 57.0504 61.8916 57.2517 61.4405 57.5455C61.1467 57.7445 60.9246 58.0151 60.647 58.2303C60.3879 58.4755 60.0918 58.686 59.8535 58.952C59.4417 59.5234 58.993 60.0624 58.6066 60.6616C58.3591 61.4135 57.8872 61.9409 57.6998 62.7552C57.1099 64.1525 56.8531 65.8852 56.7559 67.7752C56.7073 68.7168 56.4899 69.4848 56.3788 70.3616C56.0781 72.7675 55.863 75.3793 55.8121 78.0049C55.7843 79.3906 55.8329 80.7277 55.6987 82.0001C55.5692 83.2239 55.317 84.3806 55.0949 85.4979C54.5282 88.3318 53.7647 91.0662 53.0915 93.752C52.9227 94.4298 52.7399 95.1794 52.6011 95.804C52.5317 96.1209 52.4669 96.3916 52.4137 96.6391C52.2495 97.3956 52.1662 98.0919 51.9603 98.809C51.7614 100.058 51.4352 101.245 51.1275 102.423C50.8198 103.616 50.5977 104.826 50.26 106.034C50.1744 106.429 50.0726 106.839 49.9569 107.211C49.839 107.6 49.7025 107.961 49.4665 108.238C49.0247 108.78 48.3792 109.12 47.9189 109.647C47.7639 109.726 47.6343 109.844 47.5025 109.948C47.366 110.061 47.2411 110.195 47.0861 110.29C46.8501 110.561 46.6442 110.859 46.3689 111.088C46.325 111.283 46.1144 111.315 46.0659 111.507C45.9132 111.609 45.8623 111.812 45.7281 111.926C45.5361 112.231 45.2955 112.479 45.1243 112.803C44.8791 113.052 44.7125 113.379 44.5205 113.677C44.31 113.973 44.0972 114.265 43.9144 114.591C43.1094 115.789 42.4709 117.099 41.6473 118.276C40.8284 119.454 40.0395 120.629 39.0425 121.623C38.0686 122.648 37.0299 123.604 35.6812 124.249C35.2254 123.972 34.8252 123.638 34.4343 123.301C34.0664 122.935 33.7541 122.514 33.4164 122.119C33.3123 121.859 33.1179 121.686 33 121.438C32.8542 121.216 32.6692 121.036 32.4332 120.904C32.2713 120.696 32.0399 120.564 31.8664 120.372C31.5263 120.346 31.487 120.018 31.184 119.953C30.7791 119.685 29.9278 119.643 29.4466 119.877C29.0973 120.154 28.6971 120.388 28.4264 120.749C28.1511 121.103 27.8828 121.468 27.8597 122.079C27.8597 122.553 28.0517 122.824 28.1257 123.22C28.1604 124.013 28.0031 124.619 27.9753 125.35C27.8805 125.646 27.5983 125.757 27.4456 125.998C27.2651 126.209 27.0662 126.401 26.9551 126.678C26.8418 126.785 26.7978 126.953 26.7654 127.139C26.6521 127.236 26.6451 127.446 26.6521 127.668C26.5873 128.034 26.5434 128.422 26.5387 128.846C26.4902 129.637 26.5642 130.484 26.6521 131.245C26.4439 131.726 26.4647 132.413 26.5387 133.031C26.5434 133.368 26.5943 133.66 26.6521 133.944C26.7331 134.204 26.888 134.393 26.9551 134.666C27.1425 134.768 27.3045 134.895 27.4456 135.046C27.6607 135.12 27.8342 135.233 28.0864 135.272C28.2691 135.381 28.4843 135.457 28.7272 135.501C28.8451 135.52 28.9747 135.531 29.0672 135.578C29.1204 135.601 29.2616 135.534 29.2546 135.615C29.3194 135.622 29.442 135.578 29.405 135.689C29.4582 135.939 29.3125 136.031 29.2176 136.144C29.1158 136.269 28.9516 136.339 28.8775 136.487C28.6601 136.714 28.5999 137.098 28.4611 137.401C26.3745 137.849 24.1883 138.266 22.1526 138.731C21.299 138.925 20.3297 139.152 19.5084 139.265C19.3048 139.293 19.1105 139.272 18.9046 139.302C18.5345 139.351 18.1713 139.429 17.8081 139.49C17.2506 139.584 16.6815 139.67 16.1448 139.758C15.194 139.915 14.3658 140.082 13.4613 140.251C12.7534 140.387 12.0293 140.491 11.3469 140.709C10.4932 140.991 9.60489 141.236 8.73969 141.507C7.8236 141.736 7.18742 142.249 6.43558 142.647C6.10245 142.881 5.71613 143.061 5.37606 143.29C5.22107 143.415 5.07763 143.55 4.92264 143.67C4.79078 143.827 4.58258 143.91 4.50624 144.128C4.00655 144.764 3.54155 145.44 2.9956 146.029C2.77814 146.379 2.42883 146.599 2.27615 147.015C2.08182 147.392 1.95459 147.832 1.74639 148.192C1.59834 148.613 1.40169 148.986 1.21662 149.37C1.12871 149.851 0.996854 150.288 0.915887 150.779C0.733131 151.737 0.483292 152.625 0.386131 153.671C0.240389 154.307 0.219557 154.959 0.272764 155.609C0.295898 155.938 0.325973 156.264 0.346794 156.599C0.367614 156.939 0.342175 157.289 0.383815 157.624C0.418516 157.888 0.531866 158.184 0.610521 158.459C0.770143 159.031 0.897383 159.611 1.06395 160.134C1.08939 160.217 1.07319 160.291 1.10095 160.361C1.17498 160.541 1.35774 160.703 1.404 160.895C1.62609 161.254 1.84586 161.617 2.08413 161.962C2.24144 162.26 2.45891 162.586 2.6139 162.836C2.67868 162.945 2.78046 163.033 2.84061 163.104C3.13903 163.465 3.45134 163.789 3.78447 164.09C3.89782 164.192 3.9996 164.305 4.12452 164.395C4.24945 164.486 4.40213 164.532 4.5016 164.664C4.86712 164.867 5.14934 165.154 5.52179 165.348C6.14409 165.869 6.95145 166.2 7.74957 166.526C7.77733 166.537 7.82592 166.586 7.86293 166.602C8.05031 166.674 8.19837 166.704 8.35336 166.753C8.57082 166.82 8.80447 166.868 9.03349 166.945C9.46147 167.076 9.88481 167.299 10.3567 167.324C13.297 167.907 16.6468 167.898 19.9156 167.743C21.4863 167.666 23.0409 167.454 24.5631 167.287C24.9564 167.243 25.345 167.222 25.7337 167.171C26.8719 167.023 28.0447 166.873 29.1713 166.753C30.7467 166.503 32.3013 166.794 33.8189 166.982C35.3457 167.169 36.8818 167.347 38.3901 167.551C41.4114 167.96 44.4419 168.344 47.6459 168.541H47.7199C47.9351 168.529 47.9281 168.737 48.06 168.809C48.1965 168.886 48.2959 169.001 48.4764 169.036C48.7031 169.149 49.027 169.168 49.3069 169.228C49.2028 169.545 49.2421 169.966 49.2699 170.294C49.3717 170.482 49.4503 170.695 49.5729 170.863C49.6817 170.905 49.7534 170.984 49.8366 171.055C50.7203 171.516 52.1454 171.8 53.427 171.511C54.0886 171.453 54.6207 171.266 55.3517 171.282C58.0653 171.319 60.6771 171.359 63.2842 171.282C64.36 171.252 65.3454 171.143 66.3078 171.055C67.3326 170.961 68.3066 170.9 69.255 170.787C69.7154 170.729 70.1804 170.618 70.6546 170.558C71.6239 170.438 72.6141 170.355 73.5995 170.294C74.1108 170.26 74.6174 170.246 75.1102 170.216C75.6006 170.19 76.061 170.109 76.5445 170.026C77.2477 169.906 77.9741 169.841 78.6219 169.684C78.8393 169.63 79.0637 169.499 79.302 169.533C79.9891 169.499 80.6252 169.418 81.2684 169.341C81.3169 169.378 81.4072 169.378 81.4557 169.418C81.9462 169.598 82.3973 169.809 82.816 170.028C82.9548 170.1 83.0867 170.218 83.2324 170.297C83.5193 170.452 83.8316 170.579 84.1369 170.715C84.4446 170.847 84.7615 171.005 85.1201 171.058C85.754 171.333 86.5822 171.34 87.4612 171.284C88.2385 171.284 88.9719 171.067 89.7283 170.905C90.4547 170.75 91.1973 170.597 91.9561 170.486C92.7426 170.373 93.5176 170.287 94.3366 170.22C96.8396 170.021 99.4607 170.065 102.008 170.183C103.689 170.262 105.348 170.41 106.958 170.526C107.895 170.47 108.823 170.563 109.753 170.602C111.673 170.685 113.547 170.806 115.381 170.944C117.195 171.083 119.201 171.22 121.047 171.136C121.995 171.095 122.944 171.069 123.883 170.981C124.797 170.898 125.69 170.782 126.601 170.718C127.538 170.651 128.491 170.621 129.435 170.563C133.18 170.341 136.687 169.85 140.127 169.346C143.662 168.83 147.19 168.483 150.741 168.016C151.535 167.997 152.367 168.069 153.2 168.129C154.424 168.215 155.689 168.316 156.902 168.393C157.33 168.423 157.753 168.416 158.185 168.434C160.267 168.518 162.516 168.661 164.647 168.585C165.054 168.569 165.456 168.513 165.854 168.471C166.257 168.43 166.645 168.377 167.025 168.316C167.589 168.226 168.098 168.069 168.609 167.937C168.797 167.888 168.963 167.831 169.139 167.787C169.505 167.69 169.873 167.659 170.196 167.481C170.742 167.218 171.344 166.901 171.818 166.646C171.931 166.586 172.052 166.551 172.161 166.491C172.371 166.373 172.551 166.19 172.762 166.072C172.822 165.964 172.954 165.934 173.026 165.883C173.06 165.86 173.072 165.793 173.104 165.769C173.134 165.744 173.188 165.753 173.218 165.732C173.248 165.707 173.259 165.642 173.294 165.617C173.324 165.594 173.38 165.598 173.407 165.58C173.437 165.557 173.442 165.483 173.521 165.503C173.738 165.277 174.02 165.119 174.201 164.856C174.418 164.638 174.601 164.37 174.842 164.171C175.226 163.655 175.554 163.121 175.901 162.575C176.239 162.043 176.602 161.478 176.771 160.789C176.938 160.067 177.088 159.331 177.298 158.658C177.393 157.793 177.412 156.937 177.412 156.109C177.412 155.672 177.414 155.264 177.336 154.855L177.338 154.862ZM68.642 120.444C68.3575 121.27 68.0937 122.093 67.8115 122.917C67.5339 123.722 67.2123 124.524 66.9417 125.35C66.3957 127.011 66.0001 128.73 65.5444 130.523C65.3825 131.464 65.0979 132.281 64.9383 133.223C64.7023 134.074 64.5404 135.004 64.3345 135.885C63.8487 135.716 63.3213 135.585 62.8632 135.388C62.0466 135.305 61.2462 135.117 60.4064 135.009C59.5343 134.9 58.6367 134.932 57.7229 134.895C56.8485 134.861 55.9624 134.93 55.0787 134.969C53.2789 135.057 51.4745 135.046 49.6377 135.124C46.9866 135.238 44.2545 135.351 41.7422 135.617C41.8763 134.886 41.7607 134.148 41.6658 133.447C41.8602 132.758 41.955 131.964 42.0452 131.166C42.0452 130.99 42.1817 130.951 42.2719 130.865C42.3344 130.759 42.42 130.68 42.538 130.636C42.6768 130.449 42.9012 130.343 43.0677 130.181C43.4541 129.894 43.882 129.658 44.2383 129.341C44.4858 129.246 44.6385 129.059 44.8814 128.961C45.0503 128.804 45.2932 128.716 45.4482 128.543C45.8877 128.325 46.2417 128.027 46.6558 127.782C47.4631 127.252 48.2427 126.694 49.0755 126.185C49.4989 125.94 49.8783 125.651 50.2831 125.387C50.489 125.262 50.6926 125.142 50.8869 125.006C51.1344 124.927 51.2547 124.719 51.4907 124.626C51.8446 124.309 52.224 124.02 52.6243 123.752C52.9458 123.402 53.3668 123.153 53.6815 122.799C54.1904 122.308 54.6901 121.811 55.1921 121.316C55.6918 120.823 56.2308 120.351 56.7027 119.833C56.8161 119.708 56.9063 119.558 57.0405 119.414C57.3898 119.056 57.7969 118.692 58.174 118.311C58.6645 117.818 59.1896 117.358 59.6106 116.789C60.182 116.02 60.6169 115.116 60.9315 114.089C61.1583 113.645 61.2554 113.071 61.422 112.567C61.5376 112.025 61.6765 111.505 61.7621 110.933C62.005 108.516 62.5116 106.362 63.046 104.238C63.6775 102.2 64.2674 100.118 64.8596 98.041C65.3408 95.8618 65.9354 93.7983 66.4836 91.6885V91.5751C66.516 91.5682 66.5183 91.589 66.5206 91.6121C66.7728 93.5669 67.1638 95.3737 67.5408 97.2036C68.3505 100.706 68.568 104.893 69.0515 108.879C69.1625 109.793 69.3291 110.781 69.4309 111.806C69.5303 112.819 69.6136 113.862 69.6576 114.889C69.7455 116.976 69.4123 118.945 68.6374 120.439L68.642 120.444ZM105.429 32.5542C105.249 35.129 104.534 36.6142 103.798 37.4632C104.388 35.1128 104.925 32.3622 105.3 29.1883C105.431 27.6661 105.503 31.4854 105.427 32.5542H105.429ZM132.074 130.104C131.996 130.44 131.776 130.639 131.66 130.939C131.559 131.636 131.552 132.427 131.51 133.183C131.524 133.338 131.427 133.169 131.323 133.22C131.274 133.167 131.156 133.183 131.059 133.183C130.943 133.255 130.71 133.213 130.603 133.297C130.316 133.403 130.115 133.586 130.002 133.868C129.918 134.287 130.141 134.539 130.228 134.893C130.39 135.159 130.356 135.626 130.492 135.92C128.387 135.784 126.201 135.721 123.994 135.615C123.286 135.58 122.574 135.467 121.877 135.464C121.398 135.46 120.924 135.501 120.443 135.501C119.962 135.501 119.471 135.49 119.009 135.538C118.125 135.633 117.255 135.795 116.399 135.881C115.906 136.043 115.402 136.193 114.889 136.336C113.639 131.027 112.381 125.73 110.505 121.05C110.199 120.266 109.864 119.509 109.635 118.651C109.216 116.955 109.251 115.134 109.408 113.365C109.563 111.62 109.822 109.892 110.01 108.234C110.209 106.501 110.401 104.78 110.579 103.061C110.752 101.347 110.891 99.6349 111.259 98.004C111.678 96.2458 112.045 94.4391 112.316 92.5259V92.4126C112.346 92.4056 112.348 92.4288 112.353 92.4496C112.749 93.8353 113.135 95.1979 113.524 96.5581C113.912 97.9184 114.266 99.2879 114.694 100.63C114.801 100.965 114.923 101.284 115.032 101.615C115.138 101.944 115.229 102.281 115.333 102.605C115.471 103.026 115.615 103.408 115.751 103.859C115.775 103.935 115.8 104.009 115.825 104.088C115.879 104.264 115.886 104.447 115.939 104.62C115.987 104.789 116.078 104.949 116.126 105.118C116.27 105.61 116.374 106.149 116.503 106.677C116.677 107.378 116.876 108.074 116.996 108.805C117.153 109.441 117.202 110.084 117.297 110.707C117.392 111.324 117.565 111.919 117.711 112.495C118.012 113.663 118.382 114.743 118.844 115.729C119.05 116.106 119.233 116.509 119.524 116.791C119.61 116.999 119.788 117.11 119.902 117.288C120.029 117.455 120.195 117.577 120.32 117.744C120.591 118.052 120.855 118.369 121.116 118.692C121.664 119.303 122.132 119.999 122.701 120.594C122.953 120.925 123.247 121.212 123.534 121.508C124.026 122.179 124.642 122.725 125.269 123.259C125.528 123.437 125.727 123.68 125.988 123.865C126.055 123.914 126.143 123.93 126.215 123.978C126.27 124.015 126.31 124.096 126.365 124.133C126.437 124.182 126.522 124.198 126.592 124.247C126.652 124.288 126.687 124.356 126.747 124.402C126.812 124.446 126.904 124.467 126.974 124.515C127.004 124.538 127.017 124.605 127.05 124.629C127.087 124.654 127.129 124.642 127.163 124.666C127.228 124.714 127.288 124.774 127.351 124.821C127.637 125.008 127.982 125.246 128.294 125.464C128.938 125.982 129.613 126.468 130.298 126.947C130.61 127.217 130.983 127.421 131.281 127.708C131.468 127.809 131.63 127.937 131.769 128.087C131.938 128.182 132.139 128.295 132.225 128.506C132.128 128.992 132.049 129.496 132.07 130.107L132.074 130.104ZM135.024 134.097C134.969 134.132 134.904 134.153 134.911 134.247C134.814 134.326 134.802 134.497 134.723 134.59C134.698 135.275 134.795 135.839 135.024 136.265C134.705 136.246 134.406 136.2 134.08 136.188C134.298 135.504 134.469 134.777 134.723 134.132C134.788 134.097 134.839 134.049 134.874 133.981H135.024C135.181 133.975 135.024 134.037 135.024 134.095V134.097ZM140.99 136.949C140.336 136.811 139.598 136.753 138.878 136.681C138.723 136.7 138.871 136.579 138.915 136.568C138.934 136.501 138.934 136.41 138.989 136.376C139.012 136.131 139.079 135.936 139.14 135.728C139.181 135.254 139.14 134.692 139.29 134.324C139.547 134.305 139.711 134.377 139.896 134.437C139.998 134.611 140.042 134.847 140.197 134.969C140.268 135.395 140.433 135.719 140.534 136.11C140.636 136.249 140.659 136.471 140.798 136.568C140.81 136.686 140.905 136.716 140.949 136.794C140.944 136.859 141.164 136.945 140.986 136.949H140.99Z" fill="#276F89"/>
</svg>
