<svg width="119" height="86" viewBox="0 0 119 86" fill="none" xmlns="http://www.w3.org/2000/svg">
<path d="M0.801135 73.9274C0.675516 73.2924 0.589974 72.6431 0.547254 71.982L1.04621 71.9497C1.02593 71.6358 1.01562 71.3192 1.01562 71V70H0.515625V68H1.01562V66H0.515625V64H1.01562V62H0.515625V60H1.01562V58H0.515625V56H1.01562V54H0.515625V52H1.01562V50H0.515625V48H1.01562V46H0.515625V44H1.01562V42H0.515625V40H1.01562V38H0.515625V36H1.01562V34H0.515625V32H1.01562V30H0.515625V28H1.01562V26H0.515625V24H1.01562V22H0.515625V20H1.01562V18H0.515625V16H1.01562V15C1.01562 14.6808 1.02593 14.3642 1.04621 14.0503L0.547255 14.018C0.589974 13.357 0.675517 12.7076 0.801136 12.0726L1.29163 12.1696C1.41552 11.5434 1.57973 10.9317 1.78144 10.3373L1.30796 10.1766C1.51959 9.55307 1.77113 8.94792 2.05952 8.36423L2.50778 8.58571C2.78909 8.01637 3.10671 7.4681 3.45763 6.94393L3.04214 6.66577C3.407 6.12079 3.80662 5.60106 4.23783 5.10974L4.61362 5.43956C5.03119 4.96379 5.47941 4.51557 5.95519 4.098L5.62537 3.7222C6.11668 3.29099 6.63641 2.89137 7.18139 2.52652L7.45955 2.942C7.98372 2.59108 8.53199 2.27346 9.10134 1.99216L8.87985 1.54389C9.46354 1.2555 10.0687 1.00397 10.6923 0.79234L10.853 1.26582C11.4473 1.0641 12.059 0.899892 12.6852 0.776005L12.5882 0.285511C13.2232 0.159891 13.8726 0.0743491 14.5336 0.0316296L14.5659 0.530589C14.8798 0.510304 15.1965 0.5 15.5156 0.5H16.5126V0H18.5066V0.5H20.5005V0H22.4945V0.5H24.4884V0H26.4824V0.5H28.4763V0H30.4703V0.5H32.4642V0H34.4582V0.5H36.4521V0H38.4461V0.5H40.44V0H42.434V0.5H44.4279V0H46.4219V0.5H48.4158V0H50.4098V0.5H52.4037V0H54.3977V0.5H56.3916V0H58.3856V0.5H60.3795V0H62.3735V0.5H64.3674V0H66.3614V0.5H68.3553V0H70.3493V0.5H72.3432V0H74.3372V0.5H76.3311V0H78.3251V0.5H80.319V0H82.313V0.5H84.3069V0H86.3009V0.5H88.2948V0H90.2888V0.5H92.2827V0H94.2767V0.5H96.2706V0H98.2646V0.5H100.259V0H102.252V0.5H103.249C103.569 0.5 103.885 0.510304 104.199 0.530589L104.231 0.0316297C104.893 0.0743494 105.542 0.159892 106.177 0.285511L106.08 0.776005C106.706 0.899893 107.318 1.0641 107.912 1.26582L108.073 0.79234C108.696 1.00397 109.302 1.2555 109.885 1.54389L109.664 1.99216C110.233 2.27346 110.781 2.59108 111.306 2.942L111.584 2.52652C112.129 2.89137 112.648 3.29099 113.14 3.7222L112.81 4.098C113.286 4.51557 113.734 4.96379 114.151 5.43956L114.527 5.10974C114.958 5.60106 115.358 6.12079 115.723 6.66577L115.307 6.94393C115.658 7.46809 115.976 8.01637 116.257 8.58571L116.706 8.36423C116.994 8.94792 117.245 9.55307 117.457 10.1766L116.984 10.3373C117.185 10.9317 117.35 11.5434 117.473 12.1696L117.964 12.0726C118.09 12.7076 118.175 13.357 118.218 14.018L117.719 14.0503C117.739 14.3642 117.749 14.6808 117.749 15V16H118.249V18H117.749V20H118.249V22H117.749V24H118.249V26H117.749V28H118.249V30H117.749V32H118.249V34H117.749V36H118.249V38H117.749V40H118.249V42H117.749V44H118.249V46H117.749V48H118.249V50H117.749V52H118.249V54H117.749V56H118.249V58H117.749V60H118.249V62H117.749V64H118.249V66H117.749V68H118.249V70H117.749V71C117.749 71.3192 117.739 71.6358 117.719 71.9497L118.218 71.982C118.175 72.6431 118.09 73.2924 117.964 73.9274L117.473 73.8304C117.35 74.4566 117.185 75.0683 116.984 75.6627L117.457 75.8234C117.245 76.4469 116.994 77.0521 116.706 77.6358L116.257 77.4143C115.976 77.9836 115.658 78.5319 115.307 79.0561L115.723 79.3342C115.358 79.8792 114.958 80.3989 114.527 80.8903L114.151 80.5604C113.734 81.0362 113.286 81.4844 112.81 81.902L113.14 82.2778C112.648 82.709 112.129 83.1086 111.584 83.4735L111.306 83.058C110.781 83.4089 110.233 83.7265 109.664 84.0078L109.885 84.4561C109.302 84.7445 108.696 84.996 108.073 85.2077L107.912 84.7342C107.318 84.9359 106.706 85.1001 106.08 85.224L106.177 85.7145C105.542 85.8401 104.892 85.9257 104.231 85.9684L104.199 85.4694C103.885 85.4897 103.569 85.5 103.249 85.5H102.252V86H100.258V85.5H98.2645V86H96.2706V85.5H94.2766V86H92.2827V85.5H90.2887V86H88.2948V85.5H86.3008V86H84.3069V85.5H82.3129V86H80.319V85.5H78.325V86H76.3311V85.5H74.3371V86H72.3432V85.5H70.3492V86H68.3553V85.5H66.3613V86H64.3674V85.5H62.3734V86H60.3795V85.5H58.3855V86H56.3916V85.5H54.3976V86H52.4037V85.5H50.4097V86H48.4158V85.5H46.4218V86H44.4279V85.5H42.4339V86H40.44V85.5H38.446V86H36.4521V85.5H34.4581V86H32.4642V85.5H30.4702V86H28.4763V85.5H26.4823V86H24.4884V85.5H22.4944V86H20.5005V85.5H18.5065V86H16.5126V85.5H15.5156C15.1965 85.5 14.8798 85.4897 14.5659 85.4694L14.5336 85.9684C13.8726 85.9257 13.2232 85.8401 12.5882 85.7145L12.6852 85.224C12.059 85.1001 11.4473 84.9359 10.8529 84.7342L10.6923 85.2077C10.0687 84.996 9.46353 84.7445 8.87984 84.4561L9.10132 84.0078C8.53198 83.7265 7.98371 83.4089 7.45954 83.058L7.18138 83.4735C6.63641 83.1086 6.11667 82.709 5.62536 82.2778L5.95518 81.902C5.4794 81.4844 5.03119 81.0362 4.61361 80.5604L4.23782 80.8903C3.80661 80.3989 3.40699 79.8792 3.04214 79.3342L3.45762 79.0561C3.1067 78.5319 2.78908 77.9836 2.50778 77.4143L2.05951 77.6358C1.77112 77.0521 1.51959 76.4469 1.30796 75.8234L1.78144 75.6627C1.57973 75.0683 1.41552 74.4566 1.29163 73.8304L0.801135 73.9274Z" stroke="#6D597A" stroke-dasharray="2 2"/>
<path d="M59.3828 22.9631V43.7405" stroke="#6D597A" stroke-width="3" stroke-linecap="round"/>
<path d="M69.7656 33.3518L48.9883 33.3518" stroke="#6D597A" stroke-width="3" stroke-linecap="round"/>
<path d="M35.6562 59.4105H32.8762L32.4162 60.7405H30.9462L33.4562 53.7505H35.0862L37.5962 60.7405H36.1162L35.6562 59.4105ZM35.2762 58.2905L34.2662 55.3705L33.2562 58.2905H35.2762ZM38.1744 57.9505C38.1744 57.3905 38.2844 56.8938 38.5044 56.4605C38.7311 56.0271 39.0378 55.6938 39.4244 55.4605C39.8111 55.2271 40.2411 55.1105 40.7144 55.1105C41.0744 55.1105 41.4178 55.1905 41.7444 55.3505C42.0711 55.5038 42.3311 55.7105 42.5244 55.9705V53.3405H43.9444V60.7405H42.5244V59.9205C42.3511 60.1938 42.1078 60.4138 41.7944 60.5805C41.4811 60.7471 41.1178 60.8305 40.7044 60.8305C40.2378 60.8305 39.8111 60.7105 39.4244 60.4705C39.0378 60.2305 38.7311 59.8938 38.5044 59.4605C38.2844 59.0205 38.1744 58.5171 38.1744 57.9505ZM42.5344 57.9705C42.5344 57.6305 42.4678 57.3405 42.3344 57.1005C42.2011 56.8538 42.0211 56.6671 41.7944 56.5405C41.5678 56.4071 41.3244 56.3405 41.0644 56.3405C40.8044 56.3405 40.5644 56.4038 40.3444 56.5305C40.1244 56.6571 39.9444 56.8438 39.8044 57.0905C39.6711 57.3305 39.6044 57.6171 39.6044 57.9505C39.6044 58.2838 39.6711 58.5771 39.8044 58.8305C39.9444 59.0771 40.1244 59.2671 40.3444 59.4005C40.5711 59.5338 40.8111 59.6005 41.0644 59.6005C41.3244 59.6005 41.5678 59.5371 41.7944 59.4105C42.0211 59.2771 42.2011 59.0905 42.3344 58.8505C42.4678 58.6038 42.5344 58.3105 42.5344 57.9705ZM44.9518 57.9505C44.9518 57.3905 45.0618 56.8938 45.2818 56.4605C45.5085 56.0271 45.8151 55.6938 46.2018 55.4605C46.5885 55.2271 47.0185 55.1105 47.4918 55.1105C47.8518 55.1105 48.1951 55.1905 48.5218 55.3505C48.8485 55.5038 49.1085 55.7105 49.3018 55.9705V53.3405H50.7218V60.7405H49.3018V59.9205C49.1285 60.1938 48.8851 60.4138 48.5718 60.5805C48.2585 60.7471 47.8951 60.8305 47.4818 60.8305C47.0151 60.8305 46.5885 60.7105 46.2018 60.4705C45.8151 60.2305 45.5085 59.8938 45.2818 59.4605C45.0618 59.0205 44.9518 58.5171 44.9518 57.9505ZM49.3118 57.9705C49.3118 57.6305 49.2451 57.3405 49.1118 57.1005C48.9785 56.8538 48.7985 56.6671 48.5718 56.5405C48.3451 56.4071 48.1018 56.3405 47.8418 56.3405C47.5818 56.3405 47.3418 56.4038 47.1218 56.5305C46.9018 56.6571 46.7218 56.8438 46.5818 57.0905C46.4485 57.3305 46.3818 57.6171 46.3818 57.9505C46.3818 58.2838 46.4485 58.5771 46.5818 58.8305C46.7218 59.0771 46.9018 59.2671 47.1218 59.4005C47.3485 59.5338 47.5885 59.6005 47.8418 59.6005C48.1018 59.6005 48.3451 59.5371 48.5718 59.4105C48.7985 59.2771 48.9785 59.0905 49.1118 58.8505C49.2451 58.6038 49.3118 58.3105 49.3118 57.9705ZM56.9119 53.7605C57.6453 53.7605 58.2886 53.9038 58.8419 54.1905C59.4019 54.4771 59.8319 54.8871 60.1319 55.4205C60.4386 55.9471 60.5919 56.5605 60.5919 57.2605C60.5919 57.9605 60.4386 58.5738 60.1319 59.1005C59.8319 59.6205 59.4019 60.0238 58.8419 60.3105C58.2886 60.5971 57.6453 60.7405 56.9119 60.7405H54.4719V53.7605H56.9119ZM56.8619 59.5505C57.5953 59.5505 58.1619 59.3505 58.5619 58.9505C58.9619 58.5505 59.1619 57.9871 59.1619 57.2605C59.1619 56.5338 58.9619 55.9671 58.5619 55.5605C58.1619 55.1471 57.5953 54.9405 56.8619 54.9405H55.8719V59.5505H56.8619ZM66.7899 57.8505C66.7899 58.0505 66.7766 58.2305 66.7499 58.3905H62.6999C62.7333 58.7905 62.8733 59.1038 63.1199 59.3305C63.3666 59.5571 63.6699 59.6705 64.0299 59.6705C64.5499 59.6705 64.9199 59.4471 65.1399 59.0005H66.6499C66.4899 59.5338 66.1833 59.9738 65.7299 60.3205C65.2766 60.6605 64.7199 60.8305 64.0599 60.8305C63.5266 60.8305 63.0466 60.7138 62.6199 60.4805C62.1999 60.2405 61.8699 59.9038 61.6299 59.4705C61.3966 59.0371 61.2799 58.5371 61.2799 57.9705C61.2799 57.3971 61.3966 56.8938 61.6299 56.4605C61.8633 56.0271 62.1899 55.6938 62.6099 55.4605C63.0299 55.2271 63.5133 55.1105 64.0599 55.1105C64.5866 55.1105 65.0566 55.2238 65.4699 55.4505C65.8899 55.6771 66.2133 56.0005 66.4399 56.4205C66.6733 56.8338 66.7899 57.3105 66.7899 57.8505ZM65.3399 57.4505C65.3333 57.0905 65.2033 56.8038 64.9499 56.5905C64.6966 56.3705 64.3866 56.2605 64.0199 56.2605C63.6733 56.2605 63.3799 56.3671 63.1399 56.5805C62.9066 56.7871 62.7633 57.0771 62.7099 57.4505H65.3399ZM70.1218 59.4505L71.5218 55.2005H73.0118L70.9618 60.7405H69.2618L67.2218 55.2005H68.7218L70.1218 59.4505ZM74.5081 54.5405C74.2615 54.5405 74.0548 54.4638 73.8881 54.3105C73.7281 54.1505 73.6481 53.9538 73.6481 53.7205C73.6481 53.4871 73.7281 53.2938 73.8881 53.1405C74.0548 52.9805 74.2615 52.9005 74.5081 52.9005C74.7548 52.9005 74.9581 52.9805 75.1181 53.1405C75.2848 53.2938 75.3681 53.4871 75.3681 53.7205C75.3681 53.9538 75.2848 54.1505 75.1181 54.3105C74.9581 54.4638 74.7548 54.5405 74.5081 54.5405ZM75.1981 55.2005V60.7405H73.7981V55.2005H75.1981ZM76.2213 57.9705C76.2213 57.3971 76.338 56.8971 76.5713 56.4705C76.8047 56.0371 77.128 55.7038 77.5413 55.4705C77.9547 55.2305 78.428 55.1105 78.9613 55.1105C79.648 55.1105 80.2147 55.2838 80.6613 55.6305C81.1147 55.9705 81.418 56.4505 81.5713 57.0705H80.0613C79.9813 56.8305 79.8447 56.6438 79.6513 56.5105C79.4647 56.3705 79.2313 56.3005 78.9513 56.3005C78.5513 56.3005 78.2347 56.4471 78.0013 56.7405C77.768 57.0271 77.6513 57.4371 77.6513 57.9705C77.6513 58.4971 77.768 58.9071 78.0013 59.2005C78.2347 59.4871 78.5513 59.6305 78.9513 59.6305C79.518 59.6305 79.888 59.3771 80.0613 58.8705H81.5713C81.418 59.4705 81.1147 59.9471 80.6613 60.3005C80.208 60.6538 79.6413 60.8305 78.9613 60.8305C78.428 60.8305 77.9547 60.7138 77.5413 60.4805C77.128 60.2405 76.8047 59.9071 76.5713 59.4805C76.338 59.0471 76.2213 58.5438 76.2213 57.9705ZM87.747 57.8505C87.747 58.0505 87.7336 58.2305 87.707 58.3905H83.657C83.6903 58.7905 83.8303 59.1038 84.077 59.3305C84.3236 59.5571 84.627 59.6705 84.987 59.6705C85.507 59.6705 85.877 59.4471 86.097 59.0005H87.607C87.447 59.5338 87.1403 59.9738 86.687 60.3205C86.2336 60.6605 85.677 60.8305 85.017 60.8305C84.4836 60.8305 84.0036 60.7138 83.577 60.4805C83.157 60.2405 82.827 59.9038 82.587 59.4705C82.3536 59.0371 82.237 58.5371 82.237 57.9705C82.237 57.3971 82.3536 56.8938 82.587 56.4605C82.8203 56.0271 83.147 55.6938 83.567 55.4605C83.987 55.2271 84.4703 55.1105 85.017 55.1105C85.5436 55.1105 86.0136 55.2238 86.427 55.4505C86.847 55.6771 87.1703 56.0005 87.397 56.4205C87.6303 56.8338 87.747 57.3105 87.747 57.8505ZM86.297 57.4505C86.2903 57.0905 86.1603 56.8038 85.907 56.5905C85.6536 56.3705 85.3436 56.2605 84.977 56.2605C84.6303 56.2605 84.337 56.3671 84.097 56.5805C83.8636 56.7871 83.7203 57.0771 83.667 57.4505H86.297Z" fill="#6D597A"/>
</svg>
