<svg width="119" height="86" viewBox="0 0 119 86" fill="none" xmlns="http://www.w3.org/2000/svg">
<path d="M0.801135 73.9274C0.675516 73.2924 0.589974 72.6431 0.547254 71.982L1.04621 71.9497C1.02593 71.6358 1.01562 71.3192 1.01562 71V70H0.515625V68H1.01562V66H0.515625V64H1.01562V62H0.515625V60H1.01562V58H0.515625V56H1.01562V54H0.515625V52H1.01562V50H0.515625V48H1.01562V46H0.515625V44H1.01562V42H0.515625V40H1.01562V38H0.515625V36H1.01562V34H0.515625V32H1.01562V30H0.515625V28H1.01562V26H0.515625V24H1.01562V22H0.515625V20H1.01562V18H0.515625V16H1.01562V15C1.01562 14.6808 1.02593 14.3642 1.04621 14.0503L0.547255 14.018C0.589974 13.357 0.675517 12.7076 0.801136 12.0726L1.29163 12.1696C1.41552 11.5434 1.57973 10.9317 1.78144 10.3373L1.30796 10.1766C1.51959 9.55307 1.77113 8.94792 2.05952 8.36423L2.50778 8.58571C2.78909 8.01637 3.10671 7.4681 3.45763 6.94393L3.04214 6.66577C3.407 6.12079 3.80662 5.60106 4.23783 5.10974L4.61362 5.43956C5.03119 4.96379 5.47941 4.51557 5.95519 4.098L5.62537 3.7222C6.11668 3.29099 6.63641 2.89137 7.18139 2.52652L7.45955 2.942C7.98372 2.59108 8.53199 2.27346 9.10134 1.99216L8.87985 1.54389C9.46354 1.2555 10.0687 1.00397 10.6923 0.79234L10.853 1.26582C11.4473 1.0641 12.059 0.899892 12.6852 0.776005L12.5882 0.285511C13.2232 0.159891 13.8726 0.0743491 14.5336 0.0316296L14.5659 0.530589C14.8798 0.510304 15.1965 0.5 15.5156 0.5H16.5126V0H18.5066V0.5H20.5005V0H22.4945V0.5H24.4884V0H26.4824V0.5H28.4763V0H30.4703V0.5H32.4642V0H34.4582V0.5H36.4521V0H38.4461V0.5H40.44V0H42.434V0.5H44.4279V0H46.4219V0.5H48.4158V0H50.4098V0.5H52.4037V0H54.3977V0.5H56.3916V0H58.3856V0.5H60.3795V0H62.3735V0.5H64.3674V0H66.3614V0.5H68.3553V0H70.3493V0.5H72.3432V0H74.3372V0.5H76.3311V0H78.3251V0.5H80.319V0H82.313V0.5H84.3069V0H86.3009V0.5H88.2948V0H90.2888V0.5H92.2827V0H94.2767V0.5H96.2706V0H98.2646V0.5H100.259V0H102.252V0.5H103.249C103.569 0.5 103.885 0.510304 104.199 0.530589L104.231 0.0316297C104.893 0.0743494 105.542 0.159892 106.177 0.285511L106.08 0.776005C106.706 0.899893 107.318 1.0641 107.912 1.26582L108.073 0.79234C108.696 1.00397 109.302 1.2555 109.885 1.54389L109.664 1.99216C110.233 2.27346 110.781 2.59108 111.306 2.942L111.584 2.52652C112.129 2.89137 112.648 3.29099 113.14 3.7222L112.81 4.098C113.286 4.51557 113.734 4.96379 114.151 5.43956L114.527 5.10974C114.958 5.60106 115.358 6.12079 115.723 6.66577L115.307 6.94393C115.658 7.46809 115.976 8.01637 116.257 8.58571L116.706 8.36423C116.994 8.94792 117.245 9.55307 117.457 10.1766L116.984 10.3373C117.185 10.9317 117.35 11.5434 117.473 12.1696L117.964 12.0726C118.09 12.7076 118.175 13.357 118.218 14.018L117.719 14.0503C117.739 14.3642 117.749 14.6808 117.749 15V16H118.249V18H117.749V20H118.249V22H117.749V24H118.249V26H117.749V28H118.249V30H117.749V32H118.249V34H117.749V36H118.249V38H117.749V40H118.249V42H117.749V44H118.249V46H117.749V48H118.249V50H117.749V52H118.249V54H117.749V56H118.249V58H117.749V60H118.249V62H117.749V64H118.249V66H117.749V68H118.249V70H117.749V71C117.749 71.3192 117.739 71.6358 117.719 71.9497L118.218 71.982C118.175 72.6431 118.09 73.2924 117.964 73.9274L117.473 73.8304C117.35 74.4566 117.185 75.0683 116.984 75.6627L117.457 75.8234C117.245 76.4469 116.994 77.0521 116.706 77.6358L116.257 77.4143C115.976 77.9836 115.658 78.5319 115.307 79.0561L115.723 79.3342C115.358 79.8792 114.958 80.3989 114.527 80.8903L114.151 80.5604C113.734 81.0362 113.286 81.4844 112.81 81.902L113.14 82.2778C112.648 82.709 112.129 83.1086 111.584 83.4735L111.306 83.058C110.781 83.4089 110.233 83.7265 109.664 84.0078L109.885 84.4561C109.302 84.7445 108.696 84.996 108.073 85.2077L107.912 84.7342C107.318 84.9359 106.706 85.1001 106.08 85.224L106.177 85.7145C105.542 85.8401 104.892 85.9257 104.231 85.9684L104.199 85.4694C103.885 85.4897 103.569 85.5 103.249 85.5H102.252V86H100.258V85.5H98.2645V86H96.2706V85.5H94.2766V86H92.2827V85.5H90.2887V86H88.2948V85.5H86.3008V86H84.3069V85.5H82.3129V86H80.319V85.5H78.325V86H76.3311V85.5H74.3371V86H72.3432V85.5H70.3492V86H68.3553V85.5H66.3613V86H64.3674V85.5H62.3734V86H60.3795V85.5H58.3855V86H56.3916V85.5H54.3976V86H52.4037V85.5H50.4097V86H48.4158V85.5H46.4218V86H44.4279V85.5H42.4339V86H40.44V85.5H38.446V86H36.4521V85.5H34.4581V86H32.4642V85.5H30.4702V86H28.4763V85.5H26.4823V86H24.4884V85.5H22.4944V86H20.5005V85.5H18.5065V86H16.5126V85.5H15.5156C15.1965 85.5 14.8798 85.4897 14.5659 85.4694L14.5336 85.9684C13.8726 85.9257 13.2232 85.8401 12.5882 85.7145L12.6852 85.224C12.059 85.1001 11.4473 84.9359 10.8529 84.7342L10.6923 85.2077C10.0687 84.996 9.46353 84.7445 8.87984 84.4561L9.10132 84.0078C8.53198 83.7265 7.98371 83.4089 7.45954 83.058L7.18138 83.4735C6.63641 83.1086 6.11667 82.709 5.62536 82.2778L5.95518 81.902C5.4794 81.4844 5.03119 81.0362 4.61361 80.5604L4.23782 80.8903C3.80661 80.3989 3.40699 79.8792 3.04214 79.3342L3.45762 79.0561C3.1067 78.5319 2.78908 77.9836 2.50778 77.4143L2.05951 77.6358C1.77112 77.0521 1.51959 76.4469 1.30796 75.8234L1.78144 75.6627C1.57973 75.0683 1.41552 74.4566 1.29163 73.8304L0.801135 73.9274Z" stroke="#6D597A" stroke-dasharray="2 2"/>
<path d="M59.3828 22.9631V43.7405" stroke="#6D597A" stroke-width="3" stroke-linecap="round"/>
<path d="M69.7656 33.3518L48.9883 33.3518" stroke="#6D597A" stroke-width="3" stroke-linecap="round"/>
<path d="M29.1084 59.4105H26.3284L25.8684 60.7405H24.3984L26.9084 53.7505H28.5384L31.0484 60.7405H29.5684L29.1084 59.4105ZM28.7284 58.2905L27.7184 55.3705L26.7084 58.2905H28.7284ZM31.6266 57.9505C31.6266 57.3905 31.7366 56.8938 31.9566 56.4605C32.1833 56.0271 32.4899 55.6938 32.8766 55.4605C33.2633 55.2271 33.6933 55.1105 34.1666 55.1105C34.5266 55.1105 34.8699 55.1905 35.1966 55.3505C35.5233 55.5038 35.7833 55.7105 35.9766 55.9705V53.3405H37.3966V60.7405H35.9766V59.9205C35.8033 60.1938 35.5599 60.4138 35.2466 60.5805C34.9333 60.7471 34.5699 60.8305 34.1566 60.8305C33.6899 60.8305 33.2633 60.7105 32.8766 60.4705C32.4899 60.2305 32.1833 59.8938 31.9566 59.4605C31.7366 59.0205 31.6266 58.5171 31.6266 57.9505ZM35.9866 57.9705C35.9866 57.6305 35.9199 57.3405 35.7866 57.1005C35.6533 56.8538 35.4733 56.6671 35.2466 56.5405C35.0199 56.4071 34.7766 56.3405 34.5166 56.3405C34.2566 56.3405 34.0166 56.4038 33.7966 56.5305C33.5766 56.6571 33.3966 56.8438 33.2566 57.0905C33.1233 57.3305 33.0566 57.6171 33.0566 57.9505C33.0566 58.2838 33.1233 58.5771 33.2566 58.8305C33.3966 59.0771 33.5766 59.2671 33.7966 59.4005C34.0233 59.5338 34.2633 59.6005 34.5166 59.6005C34.7766 59.6005 35.0199 59.5371 35.2466 59.4105C35.4733 59.2771 35.6533 59.0905 35.7866 58.8505C35.9199 58.6038 35.9866 58.3105 35.9866 57.9705ZM38.4039 57.9505C38.4039 57.3905 38.5139 56.8938 38.7339 56.4605C38.9606 56.0271 39.2673 55.6938 39.6539 55.4605C40.0406 55.2271 40.4706 55.1105 40.9439 55.1105C41.3039 55.1105 41.6473 55.1905 41.9739 55.3505C42.3006 55.5038 42.5606 55.7105 42.7539 55.9705V53.3405H44.1739V60.7405H42.7539V59.9205C42.5806 60.1938 42.3373 60.4138 42.0239 60.5805C41.7106 60.7471 41.3473 60.8305 40.9339 60.8305C40.4673 60.8305 40.0406 60.7105 39.6539 60.4705C39.2673 60.2305 38.9606 59.8938 38.7339 59.4605C38.5139 59.0205 38.4039 58.5171 38.4039 57.9505ZM42.7639 57.9705C42.7639 57.6305 42.6973 57.3405 42.5639 57.1005C42.4306 56.8538 42.2506 56.6671 42.0239 56.5405C41.7973 56.4071 41.5539 56.3405 41.2939 56.3405C41.0339 56.3405 40.7939 56.4038 40.5739 56.5305C40.3539 56.6571 40.1739 56.8438 40.0339 57.0905C39.9006 57.3305 39.8339 57.6171 39.8339 57.9505C39.8339 58.2838 39.9006 58.5771 40.0339 58.8305C40.1739 59.0771 40.3539 59.2671 40.5739 59.4005C40.8006 59.5338 41.0406 59.6005 41.2939 59.6005C41.5539 59.6005 41.7973 59.5371 42.0239 59.4105C42.2506 59.2771 42.4306 59.0905 42.5639 58.8505C42.6973 58.6038 42.7639 58.3105 42.7639 57.9705ZM55.5341 53.7605V60.7405H54.1341V56.2005L52.2641 60.7405H51.2041L49.3241 56.2005V60.7405H47.9241V53.7605H49.5141L51.7341 58.9505L53.9541 53.7605H55.5341ZM56.5582 57.9505C56.5582 57.3905 56.6682 56.8938 56.8882 56.4605C57.1149 56.0271 57.4182 55.6938 57.7982 55.4605C58.1849 55.2271 58.6149 55.1105 59.0882 55.1105C59.5016 55.1105 59.8616 55.1938 60.1682 55.3605C60.4816 55.5271 60.7316 55.7371 60.9182 55.9905V55.2005H62.3282V60.7405H60.9182V59.9305C60.7382 60.1905 60.4882 60.4071 60.1682 60.5805C59.8549 60.7471 59.4916 60.8305 59.0782 60.8305C58.6116 60.8305 58.1849 60.7105 57.7982 60.4705C57.4182 60.2305 57.1149 59.8938 56.8882 59.4605C56.6682 59.0205 56.5582 58.5171 56.5582 57.9505ZM60.9182 57.9705C60.9182 57.6305 60.8516 57.3405 60.7182 57.1005C60.5849 56.8538 60.4049 56.6671 60.1782 56.5405C59.9516 56.4071 59.7082 56.3405 59.4482 56.3405C59.1882 56.3405 58.9482 56.4038 58.7282 56.5305C58.5082 56.6571 58.3282 56.8438 58.1882 57.0905C58.0549 57.3305 57.9882 57.6171 57.9882 57.9505C57.9882 58.2838 58.0549 58.5771 58.1882 58.8305C58.3282 59.0771 58.5082 59.2671 58.7282 59.4005C58.9549 59.5338 59.1949 59.6005 59.4482 59.6005C59.7082 59.6005 59.9516 59.5371 60.1782 59.4105C60.4049 59.2771 60.5849 59.0905 60.7182 58.8505C60.8516 58.6038 60.9182 58.3105 60.9182 57.9705ZM66.7656 55.1205C67.4256 55.1205 67.9589 55.3305 68.3656 55.7505C68.7722 56.1638 68.9756 56.7438 68.9756 57.4905V60.7405H67.5756V57.6805C67.5756 57.2405 67.4656 56.9038 67.2456 56.6705C67.0256 56.4305 66.7256 56.3105 66.3456 56.3105C65.9589 56.3105 65.6522 56.4305 65.4256 56.6705C65.2056 56.9038 65.0956 57.2405 65.0956 57.6805V60.7405H63.6956V55.2005H65.0956V55.8905C65.2822 55.6505 65.5189 55.4638 65.8056 55.3305C66.0989 55.1905 66.4189 55.1205 66.7656 55.1205ZM75.5369 55.2005V60.7405H74.1269V60.0405C73.9469 60.2805 73.7102 60.4705 73.4169 60.6105C73.1302 60.7438 72.8169 60.8105 72.4769 60.8105C72.0436 60.8105 71.6602 60.7205 71.3269 60.5405C70.9936 60.3538 70.7302 60.0838 70.5369 59.7305C70.3502 59.3705 70.2569 58.9438 70.2569 58.4505V55.2005H71.6569V58.2505C71.6569 58.6905 71.7669 59.0305 71.9869 59.2705C72.2069 59.5038 72.5069 59.6205 72.8869 59.6205C73.2736 59.6205 73.5769 59.5038 73.7969 59.2705C74.0169 59.0305 74.1269 58.6905 74.1269 58.2505V55.2005H75.5369ZM76.5582 57.9505C76.5582 57.3905 76.6682 56.8938 76.8882 56.4605C77.1149 56.0271 77.4182 55.6938 77.7982 55.4605C78.1849 55.2271 78.6149 55.1105 79.0882 55.1105C79.5016 55.1105 79.8616 55.1938 80.1682 55.3605C80.4816 55.5271 80.7316 55.7371 80.9182 55.9905V55.2005H82.3282V60.7405H80.9182V59.9305C80.7382 60.1905 80.4882 60.4071 80.1682 60.5805C79.8549 60.7471 79.4916 60.8305 79.0782 60.8305C78.6116 60.8305 78.1849 60.7105 77.7982 60.4705C77.4182 60.2305 77.1149 59.8938 76.8882 59.4605C76.6682 59.0205 76.5582 58.5171 76.5582 57.9505ZM80.9182 57.9705C80.9182 57.6305 80.8516 57.3405 80.7182 57.1005C80.5849 56.8538 80.4049 56.6671 80.1782 56.5405C79.9516 56.4071 79.7082 56.3405 79.4482 56.3405C79.1882 56.3405 78.9482 56.4038 78.7282 56.5305C78.5082 56.6571 78.3282 56.8438 78.1882 57.0905C78.0549 57.3305 77.9882 57.6171 77.9882 57.9505C77.9882 58.2838 78.0549 58.5771 78.1882 58.8305C78.3282 59.0771 78.5082 59.2671 78.7282 59.4005C78.9549 59.5338 79.1949 59.6005 79.4482 59.6005C79.7082 59.6005 79.9516 59.5371 80.1782 59.4105C80.4049 59.2771 80.5849 59.0905 80.7182 58.8505C80.8516 58.6038 80.9182 58.3105 80.9182 57.9705ZM85.0956 53.3405V60.7405H83.6956V53.3405H85.0956ZM87.8788 53.3405V60.7405H86.4788V53.3405H87.8788ZM94.562 55.2005L91.132 63.3605H89.642L90.842 60.6005L88.622 55.2005H90.192L91.622 59.0705L93.072 55.2005H94.562Z" fill="#6D597A"/>
</svg>
