<svg width="29" height="22" viewBox="0 0 29 22" fill="none" xmlns="http://www.w3.org/2000/svg">
<path d="M25.2738 16.648L25.2745 16.6479L27.8895 16.637V16.487L27.8901 16.637L27.8898 16.637C28.3994 16.6368 28.8094 16.2036 28.8094 15.6886C28.8094 15.1734 28.3993 14.7401 27.8895 14.7401L27.8888 14.7401L25.2738 14.7511V14.9011L25.2732 14.7511L25.2735 14.7511C24.7638 14.7513 24.3539 15.1845 24.3539 15.6995C24.3539 16.2147 24.764 16.648 25.2738 16.648Z" fill="#FF9D48" stroke="#FF9D48" stroke-width="0.3"/>
<path d="M13.8793 1.9383L13.8793 1.93772C13.8793 1.42256 14.2894 0.989282 14.7992 0.989282C15.3089 0.989282 15.719 1.42238 15.7191 1.9374L15.7191 1.93714L13.8793 1.9383ZM13.8793 1.9383L13.8898 4.65022M13.8793 1.9383L13.8898 4.65022M15.7297 4.64819L15.7191 1.93772L15.7296 4.64661C15.7297 4.64713 15.7297 4.64766 15.7297 4.64819ZM15.7297 4.64819C15.7413 5.16745 15.3277 5.59866 14.8098 5.59866C14.3001 5.59866 13.89 5.16554 13.8898 4.65052M15.7297 4.64819L13.8898 4.65052M13.8898 4.65052L13.8898 4.6508L14.0398 4.65022H13.8898M13.8898 4.65052L13.8898 4.65022" fill="#FF9D48" stroke="#FF9D48" stroke-width="0.3"/>
<path d="M21.8869 8.79462L21.8869 8.79464L21.8887 8.7964C22.0736 8.97529 22.3003 9.06831 22.5415 9.06831C22.7819 9.06831 23.0109 8.97573 23.1874 8.79274L23.1877 8.79244L25.0324 6.86849C25.3987 6.50038 25.3802 5.90579 25.0349 5.53485C24.6805 5.15422 24.0845 5.15394 23.7298 5.53401L21.8858 7.45719C21.5226 7.82213 21.523 8.43018 21.8869 8.79462Z" fill="#FF9D48" stroke="#FF9D48" stroke-width="0.3"/>
<path d="M1.53945 16.4512L1.54008 16.4512L4.15508 16.4402V16.2902L4.15571 16.4402L4.15541 16.4402C4.66507 16.44 5.075 16.0068 5.075 15.4918C5.075 14.9766 4.66489 14.5434 4.15508 14.5434L4.15445 14.5434L1.53945 14.5543V14.7043L1.53883 14.5543L1.53913 14.5543C1.02946 14.5545 0.619531 14.9877 0.619531 15.5027C0.619531 16.0179 1.02964 16.4512 1.53945 16.4512Z" fill="#FF9D48" stroke="#FF9D48" stroke-width="0.3"/>
<path d="M10.6156 21.1533L10.6163 21.1533L13.2313 21.1424V20.9924L13.2319 21.1424L13.2316 21.1424C13.7412 21.1422 14.1512 20.709 14.1512 20.1939C14.1512 19.6788 13.7411 19.2455 13.2313 19.2455L13.2306 19.2455L10.6156 19.2564V19.4064L10.615 19.2564L10.6153 19.2564C10.1056 19.2566 9.6957 19.6898 9.6957 20.2049C9.6957 20.72 10.1058 21.1533 10.6156 21.1533Z" fill="#FF9D48" stroke="#FF9D48" stroke-width="0.3"/>
<path d="M13.2699 21.1533L13.2705 21.1533L15.8855 21.1424V20.9924L15.8862 21.1424L15.8859 21.1424C16.3955 21.1422 16.8055 20.709 16.8055 20.1939C16.8055 19.6788 16.3954 19.2455 15.8855 19.2455L15.8849 19.2455L13.2699 19.2564V19.4064L13.2693 19.2564L13.2696 19.2564C12.7599 19.2566 12.35 19.6898 12.35 20.2049C12.35 20.72 12.7601 21.1533 13.2699 21.1533Z" fill="#FF9D48" stroke="#FF9D48" stroke-width="0.3"/>
<path d="M16.1977 21.1533L16.1983 21.1533L18.8133 21.1424V20.9924L18.8139 21.1424L18.8136 21.1424C19.3233 21.1422 19.7332 20.709 19.7332 20.1939C19.7332 19.6788 19.3231 19.2455 18.8133 19.2455L18.8127 19.2455L16.1977 19.2564V19.4064L16.197 19.2564L16.1973 19.2564C15.6877 19.2566 15.2777 19.6898 15.2777 20.2049C15.2777 20.72 15.6878 21.1533 16.1977 21.1533Z" fill="#FF9D48" stroke="#FF9D48" stroke-width="0.3"/>
<path d="M6.42328 8.79298L6.42322 8.79303L6.42663 8.79633C6.61146 8.97522 6.83822 9.06824 7.07939 9.06824C7.31934 9.06824 7.54803 8.97597 7.72435 8.79362C8.08749 8.42897 8.08746 7.8214 7.72424 7.45681L5.86973 5.54455C5.51557 5.16545 4.9212 5.1652 4.56672 5.54379C4.2045 5.90854 4.20484 6.51539 4.56776 6.87967L6.42328 8.79298Z" fill="#FF9D48" stroke="#FF9D48" stroke-width="0.3"/>
<path d="M22.7832 16.5495H22.9332V16.3995V15.6011C22.9332 13.3207 22.0749 11.1832 20.5287 9.57977C18.9716 7.96501 16.9078 7.08389 14.7148 7.08389C12.5111 7.08389 10.4474 7.97614 8.90101 9.57977C7.34411 11.1943 6.49648 13.3319 6.49648 15.6011V16.3995V16.5495H6.64648H22.7832ZM21.0206 14.6526H8.40906C8.85179 11.447 11.5185 8.9917 14.7148 8.9917C17.9112 8.9917 20.5779 11.447 21.0206 14.6526Z" fill="#FF9D48" stroke="#FF9D48" stroke-width="0.3"/>
</svg>
