<svg width="37" height="37" viewBox="0 0 37 37" fill="none" xmlns="http://www.w3.org/2000/svg">
<mask id="mask0_8362_25509" style="mask-type:alpha" maskUnits="userSpaceOnUse" x="0" y="0" width="37" height="37">
<rect width="37" height="37" fill="#D9D9D9"/>
</mask>
<g mask="url(#mask0_8362_25509)">
<path d="M30.0517 25.8947C29.7445 26.5175 29.4775 27.2152 28.8363 27.8412C28.2032 28.4592 28.2811 28.5822 26.89 29.0004C25.5316 29.408 24.0473 29.1589 22.7277 29.7422C19.9333 30.9797 19.7626 34.6724 17.7972 36.6912C15.5 35.5 13.1061 36 11 34.5C9.7419 31.9413 10.317 29.9211 11.3589 27.5026C12.5213 24.8039 13.3359 22.1006 13.1061 19.1113C12.75 14.471 12.4619 7.78015 17.2377 5.10311C19.5147 3.8264 22.3407 5.02734 24.2698 6.39084C27.6312 8.76651 29.079 10.0578 30.5535 13.9315C31.8415 17.3147 31.9041 20.0269 30.8471 23.8133C30.8471 23.8133 30.3588 25.272 30.0517 25.8947Z" fill="#6D597A"/>
<path d="M14.8761 22.5012C16.3435 20.4887 15.6026 16.3991 12.7598 15.9169C11.3039 15.6706 9.90391 16.8113 9.35904 18.1016C8.30757 20.59 10.9427 22.8683 13.1982 23.2581C13.9044 23.3801 14.4701 23.0586 14.8768 22.5011L14.8761 22.5012Z" fill="#FF9D48"/>
<mask id="path-4-outside-1_8362_25509" maskUnits="userSpaceOnUse" x="2.83821" y="3.47009" width="30.6495" height="35.216" fill="black">
<rect fill="white" x="2.83821" y="3.47009" width="30.6495" height="35.216"/>
<path d="M22.2111 17.819C22.1361 17.5941 22.1089 17.3682 22.108 17.1394C22.1083 17.0253 22.1216 16.9116 22.1418 16.7989C22.1621 16.6869 22.1931 16.5763 22.2375 16.4707C22.3216 16.2591 22.4521 16.0672 22.6085 15.9028C22.7657 15.7391 22.9511 15.6042 23.1485 15.4942C23.3459 15.3842 23.5551 15.2975 23.7685 15.2241L23.9307 15.1741C23.9838 15.156 24.042 15.1435 24.0958 15.1329C24.2056 15.1108 24.3163 15.0902 24.4272 15.0725C24.649 15.0365 24.8722 15.008 25.0973 14.9938C25.3226 14.981 25.5501 14.9765 25.7786 15.0122C25.8926 15.0315 26.0075 15.0607 26.1158 15.1209C26.1423 15.1377 26.1694 15.1537 26.1933 15.1753L26.2294 15.208C26.2412 15.2214 26.2529 15.2349 26.2635 15.253C26.2741 15.2704 26.2828 15.2925 26.285 15.3189C26.2872 15.3454 26.2804 15.3733 26.2678 15.3949C26.2425 15.4373 26.21 15.4575 26.181 15.4744C26.0629 15.5337 25.9496 15.5492 25.8347 15.5657C25.7205 15.5798 25.607 15.5855 25.4933 15.5881C25.2666 15.5926 25.0408 15.581 24.8157 15.5588C24.5912 15.5357 24.3661 15.5043 24.1459 15.4512C23.9258 15.3981 23.7069 15.3327 23.4962 15.2378C23.3912 15.1895 23.2885 15.1334 23.1944 15.0607C23.1473 15.0243 23.1021 14.984 23.0625 14.9363C23.043 14.9129 23.0235 14.8879 23.0076 14.8611L23.0014 14.8509L22.9979 14.8459C22.9743 14.8083 23.0093 14.7544 23.005 14.767C23.0085 14.7629 23.0134 14.7579 23.0169 14.7546L23.0233 14.7495C23.0276 14.7461 23.0318 14.7427 23.0347 14.7409C23.0491 14.7306 23.0614 14.7235 23.0736 14.7156C23.2721 14.6002 23.4704 14.5007 23.6707 14.3988C23.875 14.2981 24.0795 14.2103 24.2906 14.128C24.5018 14.0472 24.7186 13.9782 24.9429 13.9351C25.0544 13.9152 25.1674 13.8951 25.2883 13.8971C25.407 13.8994 25.5344 13.9252 25.6395 14.0009C25.7445 14.0758 25.8123 14.188 25.8513 14.3003C25.8727 14.3563 25.8866 14.4137 25.8983 14.4713C25.9051 14.4981 25.9093 14.5404 25.9026 14.5782C25.8953 14.6183 25.872 14.6576 25.8431 14.6836C25.7829 14.7357 25.7164 14.7489 25.6564 14.7585C25.5956 14.7673 25.5364 14.7677 25.4785 14.7657C25.362 14.761 25.2489 14.7446 25.1372 14.725C24.6925 14.6382 24.2623 14.5068 23.84 14.352C23.6292 14.2745 23.4209 14.1907 23.214 14.1046C23.0077 14.0176 22.7999 13.9293 22.6002 13.8212C22.4026 13.7107 22.2043 13.5912 22.0452 13.4136C21.9679 13.325 21.8966 13.2169 21.8832 13.0841C21.8762 13.0185 21.8873 12.9507 21.9141 12.8899C21.941 12.8299 21.9822 12.7785 22.0289 12.7366C22.0754 12.6939 22.1297 12.662 22.1892 12.638C22.2505 12.6169 22.3027 12.6049 22.3585 12.5912C22.4687 12.5645 22.5785 12.5424 22.6891 12.5217C22.9106 12.4812 23.1325 12.4467 23.356 12.4219C23.8027 12.3694 24.2547 12.3522 24.7052 12.3815C25.1552 12.4123 25.6076 12.4917 26.031 12.6685L26.0332 12.6683C26.0664 12.683 26.0816 12.7205 26.0677 12.7536C26.0639 12.7623 26.0584 12.7696 26.0521 12.7762C26.0007 12.8239 25.9541 12.8574 25.9014 12.89C25.8502 12.9224 25.7971 12.9512 25.7431 12.977C25.635 13.0286 25.5239 13.0713 25.4096 13.1037C25.182 13.1706 24.948 13.2061 24.714 13.2226C24.4801 13.2414 24.2447 13.2322 24.0125 13.2173C23.7818 13.2009 23.5516 13.1813 23.3213 13.1617C22.8615 13.1218 22.4034 13.0833 21.9452 13.0805C21.4867 13.0746 21.0292 13.1068 20.5744 13.1638C20.3467 13.1919 20.1203 13.2276 19.8943 13.2677C19.7827 13.2869 19.6652 13.3082 19.5472 13.3226C19.429 13.3347 19.3089 13.3425 19.1883 13.3351C19.0673 13.3322 18.946 13.3081 18.8278 13.2747C18.71 13.2374 18.5958 13.18 18.496 13.1039C18.2912 12.9514 18.1688 12.7145 18.109 12.4799C18.0489 12.2423 18.0461 11.9992 18.068 11.7616C18.093 11.5245 18.1442 11.2913 18.2279 11.0661C18.2714 10.9506 18.3243 10.8481 18.3718 10.7438L18.5188 10.4296L18.8112 9.80207C19.004 9.38289 19.1921 8.96183 19.367 8.53655C19.5487 8.12059 19.6376 7.66674 19.8096 7.22498C19.8953 7.00563 19.9984 6.78484 20.1564 6.59445L20.2158 6.52408C20.2375 6.50174 20.2608 6.48078 20.2826 6.45919C20.3251 6.41381 20.3785 6.37969 20.4284 6.34129C20.4794 6.30586 20.5348 6.27841 20.5876 6.24663C20.6431 6.22069 20.7004 6.1969 20.7577 6.17386C20.9909 6.09202 21.2389 6.07054 21.4789 6.08852C21.7197 6.10644 21.9529 6.1615 22.177 6.23556C22.627 6.38506 23.0407 6.60984 23.4364 6.85589C23.8308 7.10434 24.2063 7.38098 24.5679 7.67248C24.9286 7.96328 25.2774 8.2741 25.6176 8.58259C25.9694 8.90304 26.2535 9.27705 26.5059 9.67045C27.0094 10.4612 27.3262 11.3534 27.5213 12.2619C27.7086 13.168 27.8705 14.0785 28.1258 14.9621C28.2538 15.4032 28.4092 15.8366 28.6056 16.2507C28.8012 16.6655 29.0362 17.0604 29.2986 17.437C29.3656 17.5302 29.4297 17.6253 29.4997 17.7168L29.7094 17.9905C29.8498 18.1621 30.0218 18.3219 30.1815 18.488C30.3435 18.654 30.5041 18.8223 30.6529 19.0031C30.7273 19.0934 30.7989 19.1871 30.8634 19.2866C30.9279 19.3862 30.9862 19.4931 31.0208 19.6157C31.0373 19.6767 31.0444 19.7445 31.0328 19.814C31.0195 19.8828 30.991 19.9407 30.9581 19.9928C30.8924 20.0979 30.811 20.1869 30.726 20.2693C30.5544 20.4334 30.3631 20.5711 30.1629 20.6928C29.9619 20.8137 29.7503 20.9173 29.5257 20.9924C29.4124 21.0277 29.2973 21.0594 29.1772 21.0755C29.0577 21.0908 28.9303 21.0931 28.8054 21.0533C28.7424 21.035 28.6832 20.9996 28.6296 20.9577C28.6063 20.933 28.5801 20.9101 28.561 20.8821C28.5435 20.8539 28.5207 20.8269 28.509 20.7959C28.4798 20.7375 28.4597 20.6692 28.4575 20.5979C28.4547 20.5274 28.4746 20.4566 28.5052 20.3954C28.6332 20.146 28.945 20.0423 29.2044 20.1378C29.3337 20.1855 29.4376 20.2841 29.5059 20.3925C29.5765 20.5014 29.6206 20.6194 29.6517 20.737C29.6843 20.8552 29.7011 20.9747 29.7088 21.0934C29.7137 21.1524 29.7164 21.2122 29.7161 21.2723C29.7189 21.3329 29.7138 21.3904 29.711 21.4477C29.6992 21.6791 29.6851 21.9099 29.6778 22.141L29.6649 22.4873C29.6633 22.6038 29.6531 22.718 29.6769 22.8209C29.6909 22.8707 29.7066 22.9226 29.7382 22.955C29.7684 22.989 29.8061 23.0041 29.8471 22.9946C29.8873 22.9859 29.9296 22.9557 29.9596 22.9144C29.9928 22.8759 30.016 22.8261 30.0362 22.7765C30.0539 22.7256 30.0685 22.6726 30.0769 22.6179C30.0875 22.5638 30.09 22.5119 30.0784 22.4634C30.0676 22.4157 30.0429 22.3751 30.0041 22.3472C29.966 22.3184 29.9161 22.3028 29.8646 22.2957C29.7595 22.2824 29.6496 22.303 29.5422 22.3363C29.4356 22.3696 29.3317 22.4163 29.2321 22.4695C29.033 22.5774 28.8431 22.7141 28.6332 22.8191C28.5282 22.872 28.4188 22.9169 28.3062 22.9506C28.1951 22.9843 28.0829 23.0142 27.9689 23.0404C27.7424 23.0928 27.4222 23.0673 27.1899 23.0867L27.2192 23.0578C27.5071 23.2946 27.8944 23.5402 28.2136 23.7341C28.3736 23.8302 28.5375 23.92 28.7072 23.9963C28.8767 24.0704 29.0531 24.1362 29.2333 24.1577C29.323 24.1677 29.4152 24.1706 29.4998 24.1468C29.5852 24.1245 29.6587 24.0773 29.7154 24.0102C29.7722 23.9439 29.8078 23.8618 29.8083 23.7766C29.8073 23.6915 29.7736 23.6068 29.7243 23.5341C29.6232 23.3874 29.4652 23.279 29.2968 23.2177C29.2115 23.1876 29.122 23.1707 29.0342 23.1735C28.9462 23.1755 28.8596 23.2018 28.7909 23.2531C28.7215 23.3038 28.6731 23.3793 28.6436 23.4624C28.6133 23.5456 28.6012 23.6371 28.6004 23.7276C28.5981 23.8183 28.608 23.9095 28.627 24C28.6444 24.0898 28.6723 24.1787 28.7031 24.2659C28.8317 24.6141 29.0287 24.9353 29.2139 25.262C29.3065 25.4254 29.4001 25.5903 29.4812 25.7614C29.5623 25.9326 29.6349 26.1106 29.675 26.2997C29.7165 26.4871 29.7183 26.6907 29.6595 26.8782C29.603 27.0654 29.5024 27.2343 29.3836 27.3841C29.1428 27.6841 28.8327 27.9176 28.4993 28.0999C28.1651 28.2814 27.8032 28.4128 27.4293 28.4835C27.0563 28.5543 26.6652 28.5641 26.2913 28.4889C25.9174 28.4227 25.5524 28.3163 25.1992 28.18C24.4921 27.9068 23.8367 27.525 23.1982 27.1281L22.2443 26.5279C21.9254 26.3294 21.6052 26.1325 21.2889 25.9285C20.6571 25.5204 20.0365 25.0825 19.4968 24.5488C19.4296 24.4814 19.3618 24.4156 19.299 24.3448C19.2346 24.2749 19.1704 24.2057 19.111 24.1316L19.0198 24.0221C18.9902 23.985 18.9633 23.9447 18.9342 23.906C18.8747 23.8296 18.8303 23.7444 18.7801 23.6618C18.6922 23.4912 18.6129 23.3138 18.5683 23.1259C18.5386 23.0341 18.5297 22.9367 18.5104 22.8425C18.5047 22.7464 18.4891 22.6503 18.4954 22.5532C18.4942 22.1662 18.6204 21.777 18.8557 21.466C18.9211 21.3937 18.9783 21.3143 19.0544 21.2532C19.0912 21.2213 19.1256 21.1872 19.1641 21.1574L19.2833 21.0744L19.3428 21.0329L19.406 20.998L19.5323 20.9281L19.6642 20.87C19.708 20.8496 19.7521 20.8314 19.798 20.8177L19.9347 20.7713L20.0745 20.7361C20.1672 20.7093 20.2629 20.7006 20.3571 20.6828C20.5476 20.6631 20.7395 20.6509 20.9297 20.6639C21.3116 20.6806 21.6864 20.7665 22.0466 20.887C22.4062 21.0105 22.7512 21.1764 23.0708 21.384C23.3897 21.5916 23.6811 21.8433 23.9328 22.1288C24.4379 22.7018 24.787 23.3898 25.0576 24.0935C25.3218 24.8015 25.5539 25.516 25.7721 26.237C25.9888 26.9581 26.1833 27.6864 26.3509 28.4208C26.358 28.4513 26.3401 28.4825 26.3097 28.4911C26.0785 28.5599 25.8475 28.6491 25.6239 28.7461C25.4005 28.8439 25.181 28.9535 24.9729 29.0804C24.7646 29.2058 24.5628 29.3451 24.3851 29.509L24.3173 29.5694C24.2947 29.5895 24.2754 29.6132 24.2544 29.6347C24.214 29.6791 24.1705 29.7216 24.1318 29.7674L24.023 29.9103C24.0036 29.9332 23.9883 29.9589 23.9738 29.9852L23.9286 30.0627L23.8834 30.1402L23.8448 30.2233C23.8198 30.2787 23.7917 30.3335 23.7691 30.3901L23.6997 30.5594L23.6366 30.7312C23.5564 30.9623 23.4926 31.1988 23.432 31.4373C23.3715 31.6759 23.3119 31.9174 23.2345 32.155C23.1579 32.3926 23.0619 32.625 22.9475 32.8467C22.8923 32.9593 22.826 33.0653 22.7644 33.1731C22.7002 33.2781 22.6368 33.383 22.5759 33.49C22.4531 33.7025 22.3375 33.9183 22.2407 34.1416C22.1439 34.3649 22.066 34.5958 22.0152 34.8335C21.9629 35.0713 21.9323 35.3142 21.9102 35.5586C21.8873 35.8024 22.4217 35.5581 22.3961 35.8058C22.3719 36.0527 23.4777 34.9658 23.432 35.2107C23.3399 35.6991 22.1014 35.7103 21.8651 36.1551C21.8493 36.1846 21.3848 33.4693 20.8385 35.7436C21.1365 33.7641 17.643 33.4854 19.259 36.074L18.4588 35.4418C18.4225 35.2524 18.4615 36.4711 18.4055 36.2826C18.3487 36.0934 19.0677 36.186 19.0005 36C18.8654 35.628 20.5513 36.5657 20.3875 36.2052C20.0542 35.4878 19.6884 34.773 19.4482 34.006C19.3311 33.6226 19.2482 33.2211 19.259 32.8141C19.2634 32.6122 19.2859 32.4088 19.3324 32.211C19.3782 32.014 19.4398 31.824 19.49 31.6335C19.541 31.4437 19.5805 31.2525 19.5849 31.0605C19.5886 30.8678 19.564 30.6736 19.5289 30.4804C19.4579 30.0946 19.3489 29.6984 19.3804 29.2851L19.4149 28.9879C19.4295 28.8908 19.4267 28.793 19.433 28.6959C19.4347 28.5984 19.4289 28.5008 19.4245 28.403L19.4085 28.2576L19.4009 28.1844L19.3881 28.1125C19.3232 27.7263 19.194 27.353 19.0318 26.9931C18.871 26.6324 18.6846 26.2822 18.5031 25.9277C18.413 25.7497 18.3216 25.5733 18.2379 25.3901C18.1551 25.2077 18.0795 25.0216 18.0121 24.8325C17.7439 24.0762 17.5914 23.2873 17.4858 22.4961C17.4367 22.0987 17.4104 21.7023 17.3602 21.3103C17.3108 20.919 17.2335 20.53 17.0893 20.1671C16.7805 19.4438 16.37 18.7571 15.8887 18.1326C15.4047 17.5114 14.8405 16.9395 14.1673 16.5356C13.8279 16.3365 13.4746 16.1539 13.1079 16.018C12.9239 15.9527 12.7354 15.8962 12.5453 15.8748C12.3557 15.8511 12.1608 15.8636 11.995 15.9421C11.8267 16.0185 11.7065 16.1707 11.6281 16.3416C11.553 16.5159 11.5128 16.7071 11.4932 16.9004C11.4752 17.0943 11.4734 17.2899 11.4911 17.4839C11.5088 17.6778 11.5498 17.8691 11.6071 18.0552C11.7196 18.4291 11.9133 18.7749 12.1476 19.0877C12.3847 19.3995 12.6696 19.673 12.9699 19.9309C13.2694 20.1895 13.5811 20.438 13.8756 20.7093C14.0229 20.8453 14.1654 20.987 14.2987 21.1371C14.4335 21.2871 14.5542 21.4504 14.6687 21.6119C14.784 21.7734 14.8977 21.935 15.0274 22.0786C15.1563 22.2214 15.3058 22.3466 15.4801 22.4058C15.6539 22.4681 15.8468 22.4406 16.0228 22.3742C16.2007 22.3038 16.3654 22.2033 16.468 22.0495C16.6805 21.7473 16.5806 21.2781 16.2864 21.0654C16.2137 21.0137 16.1291 20.9827 16.0434 20.9845C15.9592 20.9855 15.8723 21.0186 15.8133 21.0752C15.7527 21.1328 15.7149 21.2165 15.6951 21.3064C15.6745 21.3963 15.6681 21.4927 15.6685 21.5885C15.6766 21.9764 15.7647 22.3668 15.8434 22.755C15.884 22.9493 15.9253 23.1443 15.9608 23.3414C15.9952 23.5446 15.9884 23.7634 15.9129 23.9599C15.8421 24.1582 15.7203 24.3273 15.5975 24.4844C15.474 24.6422 15.3413 24.7909 15.2355 24.9519C15.1288 25.1106 15.0518 25.2897 14.9968 25.476C14.9425 25.6631 14.9071 25.8569 14.8748 26.052C14.81 26.4407 14.765 26.8476 14.5975 27.2243C14.515 27.4092 14.4027 27.5927 14.2463 27.7297C14.0932 27.8695 13.9146 27.9772 13.7275 28.0567C13.3521 28.2174 12.9509 28.2881 12.5532 28.3274C12.1539 28.3661 11.754 28.3699 11.356 28.3605L10.7598 28.3426C10.5594 28.3343 10.356 28.3178 10.1588 28.2757C9.96097 28.2352 9.76605 28.1838 9.57728 28.1151C9.38725 28.0496 9.20212 27.97 9.02165 27.8824C8.66063 27.7065 8.31795 27.4956 7.99582 27.2578C7.673 27.0209 7.36858 26.7588 7.08591 26.4752C6.80254 26.1924 6.54016 25.888 6.30493 25.5632C6.06826 25.2392 5.86162 24.8929 5.69363 24.5275C5.61218 24.3434 5.53877 24.1556 5.48152 23.9611C5.4259 23.768 5.3792 23.5727 5.34149 23.3758C5.30523 23.1781 5.27796 22.9788 5.25973 22.7788C5.24377 22.5786 5.23686 22.3776 5.24057 22.1765C5.24654 21.9753 5.26245 21.7747 5.28986 21.5754C5.31953 21.376 5.36076 21.1786 5.41363 20.9841C5.52791 20.5973 5.67317 20.227 5.8153 19.8554C6.10289 19.1157 6.38777 18.371 6.47327 17.5851C6.56863 16.7991 6.58807 16.0043 6.55609 15.2122C6.54045 14.8158 6.51274 14.4204 6.47516 14.025L6.41496 13.4315C6.39447 13.2317 6.38907 13.0306 6.38901 12.8298C6.39725 12.4283 6.44326 12.0245 6.55591 11.6363L6.59923 11.4913C6.61499 11.4436 6.63308 11.3964 6.65035 11.3486C6.68257 11.2524 6.72666 11.162 6.76674 11.0689C6.85562 10.8873 6.95236 10.7089 7.07318 10.5459C7.18759 10.3789 7.32462 10.2283 7.46682 10.0849C7.60939 9.94596 7.7536 9.80844 7.89869 9.67235C8.18886 9.40019 8.48564 9.13433 8.78336 8.87066C9.08027 8.6063 9.37899 8.3456 9.66603 8.07218C9.81042 7.93691 9.94904 7.79605 10.0868 7.65374C10.2236 7.50998 10.3504 7.36327 10.4866 7.21271C10.7596 6.91613 11.0745 6.65788 11.4227 6.45387C11.7702 6.24918 12.1481 6.09974 12.5358 5.99511C12.5677 5.98636 12.6005 6.00567 12.6092 6.03689C12.6179 6.06886 12.5986 6.10165 12.5674 6.11034C12.1877 6.20975 11.8191 6.35308 11.4793 6.54953C11.1395 6.74523 10.8307 6.99461 10.5623 7.28244C10.4301 7.42658 10.2979 7.58059 10.161 7.7236C10.0218 7.86679 9.88172 8.00853 9.73663 8.14461C9.4474 8.41898 9.14798 8.6805 8.85026 8.94417C8.55248 9.20708 8.25633 9.47137 7.96684 9.74271C7.67993 10.0176 7.37656 10.2772 7.15371 10.6008C7.03704 10.7588 6.94218 10.9325 6.85512 11.1087C6.81637 11.1993 6.77284 11.2874 6.74194 11.3812C6.7253 11.4275 6.70708 11.4731 6.69201 11.52L6.64994 11.6619C6.53956 12.0408 6.49361 12.4363 6.4848 12.8309C6.47605 13.2264 6.53469 13.6192 6.57239 14.0161C6.61154 14.4121 6.63944 14.8098 6.65678 15.2084C6.69058 16.0041 6.6731 16.8041 6.57912 17.5975C6.53643 17.9958 6.44315 18.3884 6.32692 18.77C6.21 19.1524 6.068 19.5255 5.92738 19.897C5.78827 20.2683 5.64395 20.6409 5.53796 21.0178C5.48849 21.2075 5.4514 21.3999 5.42431 21.5939C5.39954 21.7883 5.38627 21.9841 5.38287 22.1799C5.38098 22.3755 5.39053 22.5717 5.40756 22.7664C5.42691 22.9618 5.45601 23.1556 5.49328 23.3472C5.53136 23.5394 5.58214 23.7291 5.6387 23.9153C5.69664 24.0998 5.77017 24.28 5.85168 24.4557C6.19268 25.1558 6.69092 25.7743 7.2577 26.3042C7.54118 26.5703 7.84333 26.8142 8.16093 27.0341C8.47784 27.2548 8.81209 27.4467 9.15858 27.6033C9.50307 27.7631 9.86194 27.886 10.2245 27.9531L10.3602 27.9775L10.496 27.9935C10.5414 28.0004 10.5863 28.002 10.6321 28.0042C10.6786 28.0064 10.7199 28.0106 10.7716 28.0108L11.3646 28.0267C11.7558 28.0366 12.1436 28.0339 12.5234 27.9984C12.9017 27.963 13.2751 27.8953 13.6007 27.7563C13.7636 27.6879 13.9095 27.5989 14.0296 27.49C14.1536 27.3838 14.2338 27.2532 14.3086 27.0933C14.4539 26.7785 14.5042 26.3978 14.572 26.0005C14.6062 25.8014 14.6445 25.596 14.7069 25.3884C14.7694 25.1817 14.8598 24.9726 14.9899 24.7845C15.1164 24.5991 15.2509 24.454 15.3712 24.3032C15.491 24.1548 15.5945 24.0116 15.6488 23.8618C15.7086 23.7138 15.7158 23.555 15.6913 23.3882C15.6602 23.1984 15.6204 23.0033 15.5829 22.8087C15.5445 22.6134 15.506 22.4158 15.4747 22.2139C15.4441 22.0118 15.4171 21.8065 15.4172 21.589C15.418 21.4801 15.4252 21.367 15.454 21.2482C15.4666 21.1894 15.4896 21.1281 15.5187 21.0671C15.5508 21.0067 15.5898 20.9464 15.6456 20.8953C15.6999 20.8451 15.7655 20.8032 15.8327 20.7801C15.8988 20.754 15.9699 20.7412 16.0413 20.7406C16.1132 20.7384 16.1836 20.7538 16.2492 20.7749C16.3134 20.7985 16.373 20.83 16.4256 20.8682C16.6337 21.0227 16.7501 21.2442 16.7955 21.4776C16.8415 21.7103 16.7949 21.9713 16.6544 22.1716C16.5853 22.2717 16.4974 22.3551 16.401 22.4202C16.3537 22.4538 16.3029 22.4816 16.2532 22.5055L16.1023 22.5713C16.0499 22.5902 15.9941 22.604 15.94 22.6199C15.8858 22.6351 15.8252 22.6371 15.7682 22.6456C15.7101 22.6505 15.6496 22.6434 15.5909 22.6414C15.5329 22.6288 15.4736 22.6193 15.4181 22.5996C15.1927 22.5203 15.0218 22.3658 14.8827 22.2093C14.7433 22.0506 14.6291 21.8829 14.516 21.7197C14.4035 21.5557 14.2919 21.4008 14.1642 21.2548C14.038 21.1079 13.9019 20.9687 13.7592 20.8338C13.4746 20.564 13.1653 20.3153 12.8644 20.0507C12.563 19.7884 12.2704 19.5033 12.0267 19.1769C11.7852 18.8503 11.5862 18.4866 11.4706 18.094C11.4125 17.8981 11.3714 17.6969 11.3536 17.4931C11.3366 17.2892 11.34 17.0851 11.3604 16.8826C11.383 16.6807 11.426 16.4771 11.5109 16.2844C11.5561 16.1894 11.6115 16.0981 11.683 16.0176C11.7538 15.9371 11.844 15.871 11.9412 15.8256C12.1378 15.7339 12.3555 15.7218 12.5599 15.7405C12.7664 15.7582 12.9656 15.8062 13.1617 15.8629C13.3579 15.9195 13.5485 15.9918 13.735 16.0705C13.9231 16.1491 14.1027 16.2353 14.2806 16.3375C14.46 16.4397 14.6307 16.5554 14.7903 16.6836C14.8707 16.7468 14.9512 16.8101 15.0268 16.879C15.1038 16.9456 15.1809 17.0137 15.2529 17.0853C15.5468 17.3672 15.8154 17.6725 16.0617 17.9934C16.308 18.3143 16.5335 18.6507 16.7373 18.9987C16.9427 19.3481 17.1221 19.7058 17.2785 20.0866C17.4287 20.4749 17.5036 20.8816 17.5499 21.2808C17.597 21.6814 17.6188 22.0789 17.6628 22.4691C17.7585 23.2506 17.8997 24.0327 18.1548 24.7765C18.2189 24.962 18.2904 25.1454 18.3699 25.3244C18.4486 25.5033 18.5401 25.6805 18.6279 25.858C18.8063 26.2119 18.9923 26.5652 19.1537 26.9335C19.3164 27.2994 19.4481 27.6854 19.5127 28.0861L19.5258 28.1611L19.5336 28.2365L19.5492 28.3873C19.5531 28.4881 19.5585 28.5896 19.5564 28.6909C19.5496 28.7918 19.5513 28.8936 19.5361 28.9937L19.5007 29.2887C19.4692 29.6747 19.5736 30.0606 19.6458 30.4531C19.6813 30.6502 19.7073 30.8526 19.7032 31.0575C19.6976 31.2633 19.6558 31.4638 19.6029 31.6575C19.5507 31.8513 19.4898 32.0404 19.4449 32.2305C19.3992 32.4198 19.3782 32.614 19.3734 32.8106C19.3628 33.2024 19.4416 33.5905 19.5558 33.9673C19.6731 34.3439 19.823 34.7116 19.9839 35.0738C20.1441 35.4369 20.3218 35.7917 20.4866 36.1551C20.6514 36.5186 21.2754 35.4711 21.4108 35.8469C21.4782 36.0345 21.7336 35.6555 21.7906 35.8469C21.8477 36.0391 22.1124 35.5437 22.1504 35.7436L23.2345 35.4418L21.1718 35.7969C21.4016 35.3663 22.112 36.1007 22.2032 35.6193C22.2483 35.3783 21.3865 36.2446 21.4108 36C21.436 35.7561 21.7915 35.7921 21.8141 35.5446C21.836 35.2979 21.8671 35.0512 21.9196 34.8072C21.9714 34.5633 22.051 34.3255 22.1504 34.0967C22.249 33.8679 22.3666 33.6489 22.49 33.434C22.6124 33.2177 22.7487 33.0124 22.8581 32.7949C22.9698 32.5779 23.0625 32.3512 23.138 32.1182C23.2135 31.8853 23.2718 31.6462 23.3323 31.4069C23.451 30.9277 23.5954 30.4465 23.8358 30.0058L23.8836 29.9235C23.8987 29.8956 23.9154 29.8684 23.9354 29.8439L24.0496 29.6929C24.0896 29.6447 24.1346 29.6006 24.177 29.5537C24.1987 29.5314 24.2194 29.5068 24.2427 29.4859L24.3126 29.423C24.4966 29.2525 24.7034 29.1097 24.9167 28.9809C25.1291 28.8506 25.3522 28.7392 25.5801 28.6395C25.808 28.5399 26.039 28.4506 26.2798 28.3788L26.2419 28.4428C26.0737 27.7115 25.8787 26.9863 25.6615 26.2675C25.4429 25.5504 25.212 24.8327 24.9375 24.137C24.6558 23.4472 24.2923 22.7862 23.7947 22.249C23.2994 21.7109 22.6717 21.3154 21.9831 21.0733C21.6397 20.9536 21.2831 20.8671 20.9217 20.841C20.741 20.8234 20.5602 20.8316 20.3798 20.8452C20.2906 20.8595 20.2 20.8655 20.1123 20.8888L19.9804 20.9188L19.8509 20.9593C19.8071 20.9713 19.7651 20.9878 19.7234 21.0057L19.5978 21.0573L19.4777 21.1198L19.4172 21.1507L19.3611 21.1881L19.2488 21.2621C19.2131 21.2886 19.1799 21.3196 19.1459 21.3483C19.0738 21.403 19.0198 21.4759 18.9585 21.5411C18.9311 21.5769 18.9069 21.6146 18.8811 21.6518L18.8425 21.7075L18.811 21.7671C18.7908 21.8076 18.7683 21.8467 18.7497 21.8878L18.7018 22.015C18.6479 22.1876 18.6128 22.3677 18.6152 22.5508C18.6084 22.6419 18.6236 22.7327 18.6296 22.8234C18.6485 22.9131 18.6576 23.0044 18.6862 23.0917C18.7292 23.2699 18.8062 23.4368 18.8903 23.5986C18.9385 23.676 18.9811 23.7576 19.0379 23.8289C19.0652 23.8654 19.0904 23.9029 19.1199 23.9384L19.2101 24.045C19.2685 24.1169 19.3327 24.1846 19.3953 24.2523C19.4573 24.3217 19.5242 24.3861 19.5904 24.4513C20.1236 24.971 20.745 25.3906 21.3781 25.7865C21.6954 25.9843 22.0181 26.1749 22.3411 26.3684L23.3043 26.9527C23.9421 27.342 24.5898 27.7123 25.2768 27.972C25.6202 28.1008 25.9695 28.2093 26.328 28.2729C26.6804 28.3461 27.036 28.3384 27.3899 28.2747C27.7423 28.2118 28.0879 28.0939 28.4066 27.9266C28.7245 27.7594 29.0201 27.5423 29.245 27.271C29.356 27.1362 29.4482 26.9856 29.4987 26.8262C29.5516 26.6682 29.5535 26.4999 29.5194 26.3286C29.4869 26.1572 29.4211 25.9878 29.3442 25.8223C29.2673 25.6561 29.1785 25.4932 29.0874 25.3297C28.9066 25.0018 28.7099 24.6744 28.5789 24.3067C28.5158 24.1233 28.4652 23.9275 28.4709 23.7225C28.4723 23.6212 28.4857 23.5182 28.5229 23.417C28.5585 23.3167 28.6216 23.2171 28.7147 23.15C28.807 23.0822 28.9205 23.0491 29.0275 23.0478C29.1351 23.0449 29.2386 23.0659 29.3349 23.1005C29.5269 23.1711 29.7008 23.2897 29.8217 23.4644C29.8807 23.5515 29.9246 23.6589 29.9259 23.7744C29.9257 23.8907 29.8751 24.0029 29.8044 24.0841C29.7354 24.1675 29.633 24.2323 29.5281 24.2586C29.4226 24.2871 29.3175 24.283 29.2178 24.2715C29.0174 24.2465 28.8346 24.1758 28.6588 24.0984C28.4836 24.0195 28.3163 23.9263 28.1539 23.828C27.8297 23.6293 27.5234 23.4084 27.2283 23.1661C27.1965 23.1407 27.1187 23.0674 27.1449 23.0355C27.1579 23.0192 27.2261 23.0124 27.2458 23.0108L27.2802 23.0079C27.5064 22.989 27.7209 22.9813 27.9429 22.93C28.054 22.9048 28.1639 22.8751 28.2728 22.8424C28.3803 22.8106 28.4824 22.7686 28.5822 22.7184C28.7835 22.618 28.9698 22.4845 29.1782 22.3698C29.2829 22.3139 29.3919 22.2645 29.5074 22.229C29.6214 22.1936 29.7469 22.1679 29.8766 22.1844C29.9411 22.1928 30.0089 22.2129 30.0671 22.256C30.1261 22.2982 30.1683 22.3669 30.1832 22.4357C30.1995 22.5043 30.1946 22.5731 30.1829 22.6327C30.1735 22.6935 30.158 22.7534 30.1364 22.8122C30.1131 22.8704 30.0854 22.929 30.0426 22.9805C30.0029 23.0325 29.9454 23.0807 29.8679 23.0985C29.8494 23.1046 29.8289 23.1048 29.8083 23.1035C29.7984 23.1028 29.7877 23.1022 29.7777 23.1008L29.7488 23.091L29.7205 23.0797C29.7124 23.0743 29.7044 23.0688 29.6963 23.0627C29.6809 23.051 29.664 23.0395 29.6544 23.0244C29.6034 22.9685 29.5858 22.9038 29.5678 22.8422C29.5613 22.8108 29.558 22.7799 29.5531 22.7491C29.5506 22.7182 29.551 22.6877 29.55 22.6566C29.5494 22.5958 29.5524 22.5401 29.5536 22.4822L29.5612 22.1363L29.5763 21.4437C29.5775 21.3858 29.5802 21.3278 29.5756 21.2726C29.574 21.2165 29.5701 21.1605 29.5631 21.1049C29.5522 20.9924 29.5323 20.8816 29.5015 20.7754C29.4713 20.6691 29.4293 20.5662 29.3695 20.4776C29.3098 20.3898 29.2322 20.3157 29.14 20.2763C29.0479 20.2376 28.9427 20.2327 28.8484 20.2672C28.7539 20.2994 28.6723 20.3686 28.6294 20.455C28.585 20.5416 28.588 20.641 28.632 20.7324C28.6519 20.7787 28.6824 20.8172 28.7164 20.8516C28.7547 20.8819 28.7956 20.9089 28.844 20.9238C28.9402 20.9569 29.0505 20.9598 29.1589 20.9477C29.268 20.9356 29.3774 20.9089 29.4839 20.8749C29.6975 20.8039 29.9034 20.7045 30.0987 20.5878C30.2932 20.4705 30.4795 20.337 30.6428 20.1819C30.7236 20.1044 30.8002 20.0205 30.8578 19.929C30.8867 19.8832 30.9092 19.8349 30.9189 19.7877C30.9272 19.7414 30.9236 19.6892 30.9095 19.6387C30.8812 19.5361 30.8288 19.4355 30.7677 19.341C30.7067 19.2465 30.6375 19.1549 30.5656 19.0666C30.4209 18.8901 30.2626 18.7223 30.1022 18.557C29.9425 18.3901 29.7738 18.2346 29.6232 18.0502L29.4125 17.7735C29.3418 17.6813 29.2775 17.5847 29.2097 17.4908C28.944 17.1107 28.7018 16.7119 28.5019 16.292C28.45 16.1884 28.4038 16.0812 28.3584 15.9739C28.31 15.8677 28.2713 15.7584 28.2274 15.651C28.2069 15.5965 28.1827 15.5437 28.1615 15.4892C28.1402 15.4347 28.119 15.381 28.0956 15.3274C28.0479 15.2204 28.0061 15.1113 27.9636 15.0023C27.9196 14.8934 27.8815 14.7833 27.8478 14.6713C27.8135 14.56 27.7835 14.447 27.7589 14.3334C27.705 14.1067 27.6609 13.8792 27.6221 13.6505C27.5422 13.194 27.4884 12.7323 27.4072 12.2782C27.3841 12.1653 27.364 12.0522 27.3387 11.9402C27.3112 11.8284 27.2658 11.7219 27.2279 11.6133C27.1922 11.5045 27.1543 11.3959 27.115 11.2889C27.0748 11.1812 27.0399 11.0723 26.9947 10.9674C26.8285 10.5409 26.6217 10.13 26.374 9.74611C26.1264 9.36448 25.8414 8.9989 25.5074 8.69979C25.1602 8.39035 24.8168 8.08897 24.4557 7.80276C24.0962 7.51718 23.7257 7.24545 23.3378 7.0033C22.9495 6.76347 22.5447 6.54631 22.1161 6.40643C21.9022 6.33684 21.683 6.28594 21.463 6.27085C21.243 6.25501 21.0222 6.27649 20.8194 6.34819C20.7695 6.36909 20.7203 6.38992 20.6713 6.41227C20.6257 6.43965 20.5761 6.46357 20.533 6.49378C20.4917 6.52614 20.4462 6.55427 20.4099 6.59304C20.391 6.61136 20.3712 6.62898 20.3523 6.64806L20.3004 6.70942C20.1616 6.87464 20.0639 7.07825 19.9819 7.2874C19.8164 7.70657 19.7235 8.16759 19.534 8.60017C19.3564 9.02872 19.1662 9.45148 18.9711 9.87084L18.6764 10.4985L18.5287 10.812C18.4797 10.9173 18.4269 11.0206 18.389 11.1218C18.3106 11.3291 18.2616 11.5515 18.2368 11.7734C18.2151 11.995 18.218 12.2213 18.2714 12.4329C18.3239 12.6429 18.4277 12.8404 18.5963 12.967C18.6798 13.0307 18.7742 13.0791 18.8765 13.1124C18.9799 13.141 19.0866 13.1641 19.197 13.167C19.3062 13.1746 19.4181 13.1676 19.5288 13.1568C19.6394 13.1438 19.7502 13.1246 19.8655 13.1051C20.0938 13.0647 20.3233 13.0304 20.5541 13.0027C21.0151 12.9475 21.4811 12.9162 21.9458 12.9245C22.4111 12.9298 22.8739 12.9702 23.3332 13.0125C23.5628 13.0336 23.7923 13.054 24.0216 13.0713C24.25 13.0865 24.4771 13.0964 24.7036 13.0798C24.9294 13.0647 25.1545 13.0314 25.3703 12.9693C25.4786 12.939 25.5831 12.8991 25.684 12.8518C25.7344 12.8279 25.7831 12.8017 25.8293 12.7728C25.8756 12.7453 25.9221 12.7103 25.9559 12.6793L25.977 12.7863C25.5746 12.6153 25.1351 12.5357 24.695 12.504C24.2542 12.4731 23.8089 12.4883 23.368 12.538C23.1473 12.561 22.9278 12.5961 22.7093 12.6356C22.6001 12.6562 22.4918 12.6781 22.3846 12.7038C22.3325 12.7165 22.2752 12.7304 22.2309 12.7456C22.1868 12.7637 22.1434 12.7894 22.1074 12.822C22.0338 12.8867 21.9904 12.9763 22.0011 13.0682C22.0089 13.1611 22.065 13.2515 22.1338 13.3294C22.2745 13.4864 22.4644 13.6044 22.6556 13.7109C22.8489 13.8157 23.0528 13.9021 23.259 13.989C23.4645 14.0753 23.6711 14.1577 23.8802 14.2338C24.297 14.3868 24.7248 14.5161 25.1572 14.6009C25.2651 14.62 25.3743 14.636 25.481 14.64C25.5343 14.6417 25.5874 14.641 25.6369 14.6338C25.6865 14.6274 25.7338 14.6121 25.7585 14.5895C25.7818 14.5678 25.7865 14.543 25.7755 14.4922C25.7642 14.4399 25.7524 14.3884 25.7339 14.3398C25.6991 14.2416 25.644 14.1549 25.5657 14.0991C25.4873 14.0433 25.3867 14.0205 25.2832 14.0185C25.1797 14.0157 25.0712 14.0347 24.9634 14.0543C24.7489 14.0958 24.538 14.1621 24.332 14.2417C24.1268 14.3219 23.9209 14.4121 23.7256 14.5106C23.5283 14.6122 23.3272 14.715 23.1398 14.8257C23.129 14.8327 23.1174 14.8397 23.1088 14.8458C23.1059 14.8475 23.1038 14.85 23.1038 14.85L23.1017 14.8517C23.1017 14.8517 23.1052 14.8483 23.1066 14.8467C23.0995 14.8617 23.1341 14.8117 23.1099 14.7772L23.1125 14.7808L23.1177 14.7887C23.1301 14.8098 23.1454 14.829 23.1614 14.8482C23.1935 14.8866 23.232 14.9206 23.2741 14.9521C23.3576 15.0151 23.4524 15.0673 23.551 15.1115C23.7483 15.2007 23.9614 15.2605 24.1763 15.3057C24.607 15.3967 25.0496 15.4495 25.4899 15.4469C25.5999 15.4454 25.7096 15.4408 25.8172 15.4287C25.9232 15.4161 26.035 15.3991 26.1182 15.3587C26.1379 15.3487 26.1528 15.3361 26.1568 15.3296C26.1594 15.3249 26.1604 15.3278 26.1538 15.3124C26.151 15.3058 26.1435 15.298 26.1375 15.2902L26.112 15.2665C26.0955 15.2503 26.0738 15.2369 26.0537 15.2234C25.9675 15.1728 25.8632 15.1427 25.7582 15.1226C25.5453 15.0834 25.3226 15.0814 25.1025 15.0914C24.8815 15.1015 24.6602 15.1253 24.4403 15.1559C24.33 15.1719 24.2205 15.1894 24.1113 15.2092L24.0299 15.2251C24.0052 15.2295 23.9771 15.2394 23.9511 15.2462L23.7917 15.2922C23.5817 15.3614 23.3753 15.4448 23.1814 15.5508C22.9874 15.6567 22.8061 15.7859 22.6529 15.9432C22.4997 16.1005 22.3707 16.2839 22.2946 16.4911C22.1335 16.8992 22.1573 17.3756 22.3209 17.7703L22.3228 17.7747C22.3353 17.8056 22.3207 17.8403 22.2906 17.8527C22.2605 17.8651 22.2251 17.8506 22.2127 17.8204L22.2116 17.8167L22.2111 17.819Z"/>
</mask>
<path d="M22.2111 17.819C22.1361 17.5941 22.1089 17.3682 22.108 17.1394C22.1083 17.0253 22.1216 16.9116 22.1418 16.7989C22.1621 16.6869 22.1931 16.5763 22.2375 16.4707C22.3216 16.2591 22.4521 16.0672 22.6085 15.9028C22.7657 15.7391 22.9511 15.6042 23.1485 15.4942C23.3459 15.3842 23.5551 15.2975 23.7685 15.2241L23.9307 15.1741C23.9838 15.156 24.042 15.1435 24.0958 15.1329C24.2056 15.1108 24.3163 15.0902 24.4272 15.0725C24.649 15.0365 24.8722 15.008 25.0973 14.9938C25.3226 14.981 25.5501 14.9765 25.7786 15.0122C25.8926 15.0315 26.0075 15.0607 26.1158 15.1209C26.1423 15.1377 26.1694 15.1537 26.1933 15.1753L26.2294 15.208C26.2412 15.2214 26.2529 15.2349 26.2635 15.253C26.2741 15.2704 26.2828 15.2925 26.285 15.3189C26.2872 15.3454 26.2804 15.3733 26.2678 15.3949C26.2425 15.4373 26.21 15.4575 26.181 15.4744C26.0629 15.5337 25.9496 15.5492 25.8347 15.5657C25.7205 15.5798 25.607 15.5855 25.4933 15.5881C25.2666 15.5926 25.0408 15.581 24.8157 15.5588C24.5912 15.5357 24.3661 15.5043 24.1459 15.4512C23.9258 15.3981 23.7069 15.3327 23.4962 15.2378C23.3912 15.1895 23.2885 15.1334 23.1944 15.0607C23.1473 15.0243 23.1021 14.984 23.0625 14.9363C23.043 14.9129 23.0235 14.8879 23.0076 14.8611L23.0014 14.8509L22.9979 14.8459C22.9743 14.8083 23.0093 14.7544 23.005 14.767C23.0085 14.7629 23.0134 14.7579 23.0169 14.7546L23.0233 14.7495C23.0276 14.7461 23.0318 14.7427 23.0347 14.7409C23.0491 14.7306 23.0614 14.7235 23.0736 14.7156C23.2721 14.6002 23.4704 14.5007 23.6707 14.3988C23.875 14.2981 24.0795 14.2103 24.2906 14.128C24.5018 14.0472 24.7186 13.9782 24.9429 13.9351C25.0544 13.9152 25.1674 13.8951 25.2883 13.8971C25.407 13.8994 25.5344 13.9252 25.6395 14.0009C25.7445 14.0758 25.8123 14.188 25.8513 14.3003C25.8727 14.3563 25.8866 14.4137 25.8983 14.4713C25.9051 14.4981 25.9093 14.5404 25.9026 14.5782C25.8953 14.6183 25.872 14.6576 25.8431 14.6836C25.7829 14.7357 25.7164 14.7489 25.6564 14.7585C25.5956 14.7673 25.5364 14.7677 25.4785 14.7657C25.362 14.761 25.2489 14.7446 25.1372 14.725C24.6925 14.6382 24.2623 14.5068 23.84 14.352C23.6292 14.2745 23.4209 14.1907 23.214 14.1046C23.0077 14.0176 22.7999 13.9293 22.6002 13.8212C22.4026 13.7107 22.2043 13.5912 22.0452 13.4136C21.9679 13.325 21.8966 13.2169 21.8832 13.0841C21.8762 13.0185 21.8873 12.9507 21.9141 12.8899C21.941 12.8299 21.9822 12.7785 22.0289 12.7366C22.0754 12.6939 22.1297 12.662 22.1892 12.638C22.2505 12.6169 22.3027 12.6049 22.3585 12.5912C22.4687 12.5645 22.5785 12.5424 22.6891 12.5217C22.9106 12.4812 23.1325 12.4467 23.356 12.4219C23.8027 12.3694 24.2547 12.3522 24.7052 12.3815C25.1552 12.4123 25.6076 12.4917 26.031 12.6685L26.0332 12.6683C26.0664 12.683 26.0816 12.7205 26.0677 12.7536C26.0639 12.7623 26.0584 12.7696 26.0521 12.7762C26.0007 12.8239 25.9541 12.8574 25.9014 12.89C25.8502 12.9224 25.7971 12.9512 25.7431 12.977C25.635 13.0286 25.5239 13.0713 25.4096 13.1037C25.182 13.1706 24.948 13.2061 24.714 13.2226C24.4801 13.2414 24.2447 13.2322 24.0125 13.2173C23.7818 13.2009 23.5516 13.1813 23.3213 13.1617C22.8615 13.1218 22.4034 13.0833 21.9452 13.0805C21.4867 13.0746 21.0292 13.1068 20.5744 13.1638C20.3467 13.1919 20.1203 13.2276 19.8943 13.2677C19.7827 13.2869 19.6652 13.3082 19.5472 13.3226C19.429 13.3347 19.3089 13.3425 19.1883 13.3351C19.0673 13.3322 18.946 13.3081 18.8278 13.2747C18.71 13.2374 18.5958 13.18 18.496 13.1039C18.2912 12.9514 18.1688 12.7145 18.109 12.4799C18.0489 12.2423 18.0461 11.9992 18.068 11.7616C18.093 11.5245 18.1442 11.2913 18.2279 11.0661C18.2714 10.9506 18.3243 10.8481 18.3718 10.7438L18.5188 10.4296L18.8112 9.80207C19.004 9.38289 19.1921 8.96183 19.367 8.53655C19.5487 8.12059 19.6376 7.66674 19.8096 7.22498C19.8953 7.00563 19.9984 6.78484 20.1564 6.59445L20.2158 6.52408C20.2375 6.50174 20.2608 6.48078 20.2826 6.45919C20.3251 6.41381 20.3785 6.37969 20.4284 6.34129C20.4794 6.30586 20.5348 6.27841 20.5876 6.24663C20.6431 6.22069 20.7004 6.1969 20.7577 6.17386C20.9909 6.09202 21.2389 6.07054 21.4789 6.08852C21.7197 6.10644 21.9529 6.1615 22.177 6.23556C22.627 6.38506 23.0407 6.60984 23.4364 6.85589C23.8308 7.10434 24.2063 7.38098 24.5679 7.67248C24.9286 7.96328 25.2774 8.2741 25.6176 8.58259C25.9694 8.90304 26.2535 9.27705 26.5059 9.67045C27.0094 10.4612 27.3262 11.3534 27.5213 12.2619C27.7086 13.168 27.8705 14.0785 28.1258 14.9621C28.2538 15.4032 28.4092 15.8366 28.6056 16.2507C28.8012 16.6655 29.0362 17.0604 29.2986 17.437C29.3656 17.5302 29.4297 17.6253 29.4997 17.7168L29.7094 17.9905C29.8498 18.1621 30.0218 18.3219 30.1815 18.488C30.3435 18.654 30.5041 18.8223 30.6529 19.0031C30.7273 19.0934 30.7989 19.1871 30.8634 19.2866C30.9279 19.3862 30.9862 19.4931 31.0208 19.6157C31.0373 19.6767 31.0444 19.7445 31.0328 19.814C31.0195 19.8828 30.991 19.9407 30.9581 19.9928C30.8924 20.0979 30.811 20.1869 30.726 20.2693C30.5544 20.4334 30.3631 20.5711 30.1629 20.6928C29.9619 20.8137 29.7503 20.9173 29.5257 20.9924C29.4124 21.0277 29.2973 21.0594 29.1772 21.0755C29.0577 21.0908 28.9303 21.0931 28.8054 21.0533C28.7424 21.035 28.6832 20.9996 28.6296 20.9577C28.6063 20.933 28.5801 20.9101 28.561 20.8821C28.5435 20.8539 28.5207 20.8269 28.509 20.7959C28.4798 20.7375 28.4597 20.6692 28.4575 20.5979C28.4547 20.5274 28.4746 20.4566 28.5052 20.3954C28.6332 20.146 28.945 20.0423 29.2044 20.1378C29.3337 20.1855 29.4376 20.2841 29.5059 20.3925C29.5765 20.5014 29.6206 20.6194 29.6517 20.737C29.6843 20.8552 29.7011 20.9747 29.7088 21.0934C29.7137 21.1524 29.7164 21.2122 29.7161 21.2723C29.7189 21.3329 29.7138 21.3904 29.711 21.4477C29.6992 21.6791 29.6851 21.9099 29.6778 22.141L29.6649 22.4873C29.6633 22.6038 29.6531 22.718 29.6769 22.8209C29.6909 22.8707 29.7066 22.9226 29.7382 22.955C29.7684 22.989 29.8061 23.0041 29.8471 22.9946C29.8873 22.9859 29.9296 22.9557 29.9596 22.9144C29.9928 22.8759 30.016 22.8261 30.0362 22.7765C30.0539 22.7256 30.0685 22.6726 30.0769 22.6179C30.0875 22.5638 30.09 22.5119 30.0784 22.4634C30.0676 22.4157 30.0429 22.3751 30.0041 22.3472C29.966 22.3184 29.9161 22.3028 29.8646 22.2957C29.7595 22.2824 29.6496 22.303 29.5422 22.3363C29.4356 22.3696 29.3317 22.4163 29.2321 22.4695C29.033 22.5774 28.8431 22.7141 28.6332 22.8191C28.5282 22.872 28.4188 22.9169 28.3062 22.9506C28.1951 22.9843 28.0829 23.0142 27.9689 23.0404C27.7424 23.0928 27.4222 23.0673 27.1899 23.0867L27.2192 23.0578C27.5071 23.2946 27.8944 23.5402 28.2136 23.7341C28.3736 23.8302 28.5375 23.92 28.7072 23.9963C28.8767 24.0704 29.0531 24.1362 29.2333 24.1577C29.323 24.1677 29.4152 24.1706 29.4998 24.1468C29.5852 24.1245 29.6587 24.0773 29.7154 24.0102C29.7722 23.9439 29.8078 23.8618 29.8083 23.7766C29.8073 23.6915 29.7736 23.6068 29.7243 23.5341C29.6232 23.3874 29.4652 23.279 29.2968 23.2177C29.2115 23.1876 29.122 23.1707 29.0342 23.1735C28.9462 23.1755 28.8596 23.2018 28.7909 23.2531C28.7215 23.3038 28.6731 23.3793 28.6436 23.4624C28.6133 23.5456 28.6012 23.6371 28.6004 23.7276C28.5981 23.8183 28.608 23.9095 28.627 24C28.6444 24.0898 28.6723 24.1787 28.7031 24.2659C28.8317 24.6141 29.0287 24.9353 29.2139 25.262C29.3065 25.4254 29.4001 25.5903 29.4812 25.7614C29.5623 25.9326 29.6349 26.1106 29.675 26.2997C29.7165 26.4871 29.7183 26.6907 29.6595 26.8782C29.603 27.0654 29.5024 27.2343 29.3836 27.3841C29.1428 27.6841 28.8327 27.9176 28.4993 28.0999C28.1651 28.2814 27.8032 28.4128 27.4293 28.4835C27.0563 28.5543 26.6652 28.5641 26.2913 28.4889C25.9174 28.4227 25.5524 28.3163 25.1992 28.18C24.4921 27.9068 23.8367 27.525 23.1982 27.1281L22.2443 26.5279C21.9254 26.3294 21.6052 26.1325 21.2889 25.9285C20.6571 25.5204 20.0365 25.0825 19.4968 24.5488C19.4296 24.4814 19.3618 24.4156 19.299 24.3448C19.2346 24.2749 19.1704 24.2057 19.111 24.1316L19.0198 24.0221C18.9902 23.985 18.9633 23.9447 18.9342 23.906C18.8747 23.8296 18.8303 23.7444 18.7801 23.6618C18.6922 23.4912 18.6129 23.3138 18.5683 23.1259C18.5386 23.0341 18.5297 22.9367 18.5104 22.8425C18.5047 22.7464 18.4891 22.6503 18.4954 22.5532C18.4942 22.1662 18.6204 21.777 18.8557 21.466C18.9211 21.3937 18.9783 21.3143 19.0544 21.2532C19.0912 21.2213 19.1256 21.1872 19.1641 21.1574L19.2833 21.0744L19.3428 21.0329L19.406 20.998L19.5323 20.9281L19.6642 20.87C19.708 20.8496 19.7521 20.8314 19.798 20.8177L19.9347 20.7713L20.0745 20.7361C20.1672 20.7093 20.2629 20.7006 20.3571 20.6828C20.5476 20.6631 20.7395 20.6509 20.9297 20.6639C21.3116 20.6806 21.6864 20.7665 22.0466 20.887C22.4062 21.0105 22.7512 21.1764 23.0708 21.384C23.3897 21.5916 23.6811 21.8433 23.9328 22.1288C24.4379 22.7018 24.787 23.3898 25.0576 24.0935C25.3218 24.8015 25.5539 25.516 25.7721 26.237C25.9888 26.9581 26.1833 27.6864 26.3509 28.4208C26.358 28.4513 26.3401 28.4825 26.3097 28.4911C26.0785 28.5599 25.8475 28.6491 25.6239 28.7461C25.4005 28.8439 25.181 28.9535 24.9729 29.0804C24.7646 29.2058 24.5628 29.3451 24.3851 29.509L24.3173 29.5694C24.2947 29.5895 24.2754 29.6132 24.2544 29.6347C24.214 29.6791 24.1705 29.7216 24.1318 29.7674L24.023 29.9103C24.0036 29.9332 23.9883 29.9589 23.9738 29.9852L23.9286 30.0627L23.8834 30.1402L23.8448 30.2233C23.8198 30.2787 23.7917 30.3335 23.7691 30.3901L23.6997 30.5594L23.6366 30.7312C23.5564 30.9623 23.4926 31.1988 23.432 31.4373C23.3715 31.6759 23.3119 31.9174 23.2345 32.155C23.1579 32.3926 23.0619 32.625 22.9475 32.8467C22.8923 32.9593 22.826 33.0653 22.7644 33.1731C22.7002 33.2781 22.6368 33.383 22.5759 33.49C22.4531 33.7025 22.3375 33.9183 22.2407 34.1416C22.1439 34.3649 22.066 34.5958 22.0152 34.8335C21.9629 35.0713 21.9323 35.3142 21.9102 35.5586C21.8873 35.8024 22.4217 35.5581 22.3961 35.8058C22.3719 36.0527 23.4777 34.9658 23.432 35.2107C23.3399 35.6991 22.1014 35.7103 21.8651 36.1551C21.8493 36.1846 21.3848 33.4693 20.8385 35.7436C21.1365 33.7641 17.643 33.4854 19.259 36.074L18.4588 35.4418C18.4225 35.2524 18.4615 36.4711 18.4055 36.2826C18.3487 36.0934 19.0677 36.186 19.0005 36C18.8654 35.628 20.5513 36.5657 20.3875 36.2052C20.0542 35.4878 19.6884 34.773 19.4482 34.006C19.3311 33.6226 19.2482 33.2211 19.259 32.8141C19.2634 32.6122 19.2859 32.4088 19.3324 32.211C19.3782 32.014 19.4398 31.824 19.49 31.6335C19.541 31.4437 19.5805 31.2525 19.5849 31.0605C19.5886 30.8678 19.564 30.6736 19.5289 30.4804C19.4579 30.0946 19.3489 29.6984 19.3804 29.2851L19.4149 28.9879C19.4295 28.8908 19.4267 28.793 19.433 28.6959C19.4347 28.5984 19.4289 28.5008 19.4245 28.403L19.4085 28.2576L19.4009 28.1844L19.3881 28.1125C19.3232 27.7263 19.194 27.353 19.0318 26.9931C18.871 26.6324 18.6846 26.2822 18.5031 25.9277C18.413 25.7497 18.3216 25.5733 18.2379 25.3901C18.1551 25.2077 18.0795 25.0216 18.0121 24.8325C17.7439 24.0762 17.5914 23.2873 17.4858 22.4961C17.4367 22.0987 17.4104 21.7023 17.3602 21.3103C17.3108 20.919 17.2335 20.53 17.0893 20.1671C16.7805 19.4438 16.37 18.7571 15.8887 18.1326C15.4047 17.5114 14.8405 16.9395 14.1673 16.5356C13.8279 16.3365 13.4746 16.1539 13.1079 16.018C12.9239 15.9527 12.7354 15.8962 12.5453 15.8748C12.3557 15.8511 12.1608 15.8636 11.995 15.9421C11.8267 16.0185 11.7065 16.1707 11.6281 16.3416C11.553 16.5159 11.5128 16.7071 11.4932 16.9004C11.4752 17.0943 11.4734 17.2899 11.4911 17.4839C11.5088 17.6778 11.5498 17.8691 11.6071 18.0552C11.7196 18.4291 11.9133 18.7749 12.1476 19.0877C12.3847 19.3995 12.6696 19.673 12.9699 19.9309C13.2694 20.1895 13.5811 20.438 13.8756 20.7093C14.0229 20.8453 14.1654 20.987 14.2987 21.1371C14.4335 21.2871 14.5542 21.4504 14.6687 21.6119C14.784 21.7734 14.8977 21.935 15.0274 22.0786C15.1563 22.2214 15.3058 22.3466 15.4801 22.4058C15.6539 22.4681 15.8468 22.4406 16.0228 22.3742C16.2007 22.3038 16.3654 22.2033 16.468 22.0495C16.6805 21.7473 16.5806 21.2781 16.2864 21.0654C16.2137 21.0137 16.1291 20.9827 16.0434 20.9845C15.9592 20.9855 15.8723 21.0186 15.8133 21.0752C15.7527 21.1328 15.7149 21.2165 15.6951 21.3064C15.6745 21.3963 15.6681 21.4927 15.6685 21.5885C15.6766 21.9764 15.7647 22.3668 15.8434 22.755C15.884 22.9493 15.9253 23.1443 15.9608 23.3414C15.9952 23.5446 15.9884 23.7634 15.9129 23.9599C15.8421 24.1582 15.7203 24.3273 15.5975 24.4844C15.474 24.6422 15.3413 24.7909 15.2355 24.9519C15.1288 25.1106 15.0518 25.2897 14.9968 25.476C14.9425 25.6631 14.9071 25.8569 14.8748 26.052C14.81 26.4407 14.765 26.8476 14.5975 27.2243C14.515 27.4092 14.4027 27.5927 14.2463 27.7297C14.0932 27.8695 13.9146 27.9772 13.7275 28.0567C13.3521 28.2174 12.9509 28.2881 12.5532 28.3274C12.1539 28.3661 11.754 28.3699 11.356 28.3605L10.7598 28.3426C10.5594 28.3343 10.356 28.3178 10.1588 28.2757C9.96097 28.2352 9.76605 28.1838 9.57728 28.1151C9.38725 28.0496 9.20212 27.97 9.02165 27.8824C8.66063 27.7065 8.31795 27.4956 7.99582 27.2578C7.673 27.0209 7.36858 26.7588 7.08591 26.4752C6.80254 26.1924 6.54016 25.888 6.30493 25.5632C6.06826 25.2392 5.86162 24.8929 5.69363 24.5275C5.61218 24.3434 5.53877 24.1556 5.48152 23.9611C5.4259 23.768 5.3792 23.5727 5.34149 23.3758C5.30523 23.1781 5.27796 22.9788 5.25973 22.7788C5.24377 22.5786 5.23686 22.3776 5.24057 22.1765C5.24654 21.9753 5.26245 21.7747 5.28986 21.5754C5.31953 21.376 5.36076 21.1786 5.41363 20.9841C5.52791 20.5973 5.67317 20.227 5.8153 19.8554C6.10289 19.1157 6.38777 18.371 6.47327 17.5851C6.56863 16.7991 6.58807 16.0043 6.55609 15.2122C6.54045 14.8158 6.51274 14.4204 6.47516 14.025L6.41496 13.4315C6.39447 13.2317 6.38907 13.0306 6.38901 12.8298C6.39725 12.4283 6.44326 12.0245 6.55591 11.6363L6.59923 11.4913C6.61499 11.4436 6.63308 11.3964 6.65035 11.3486C6.68257 11.2524 6.72666 11.162 6.76674 11.0689C6.85562 10.8873 6.95236 10.7089 7.07318 10.5459C7.18759 10.3789 7.32462 10.2283 7.46682 10.0849C7.60939 9.94596 7.7536 9.80844 7.89869 9.67235C8.18886 9.40019 8.48564 9.13433 8.78336 8.87066C9.08027 8.6063 9.37899 8.3456 9.66603 8.07218C9.81042 7.93691 9.94904 7.79605 10.0868 7.65374C10.2236 7.50998 10.3504 7.36327 10.4866 7.21271C10.7596 6.91613 11.0745 6.65788 11.4227 6.45387C11.7702 6.24918 12.1481 6.09974 12.5358 5.99511C12.5677 5.98636 12.6005 6.00567 12.6092 6.03689C12.6179 6.06886 12.5986 6.10165 12.5674 6.11034C12.1877 6.20975 11.8191 6.35308 11.4793 6.54953C11.1395 6.74523 10.8307 6.99461 10.5623 7.28244C10.4301 7.42658 10.2979 7.58059 10.161 7.7236C10.0218 7.86679 9.88172 8.00853 9.73663 8.14461C9.4474 8.41898 9.14798 8.6805 8.85026 8.94417C8.55248 9.20708 8.25633 9.47137 7.96684 9.74271C7.67993 10.0176 7.37656 10.2772 7.15371 10.6008C7.03704 10.7588 6.94218 10.9325 6.85512 11.1087C6.81637 11.1993 6.77284 11.2874 6.74194 11.3812C6.7253 11.4275 6.70708 11.4731 6.69201 11.52L6.64994 11.6619C6.53956 12.0408 6.49361 12.4363 6.4848 12.8309C6.47605 13.2264 6.53469 13.6192 6.57239 14.0161C6.61154 14.4121 6.63944 14.8098 6.65678 15.2084C6.69058 16.0041 6.6731 16.8041 6.57912 17.5975C6.53643 17.9958 6.44315 18.3884 6.32692 18.77C6.21 19.1524 6.068 19.5255 5.92738 19.897C5.78827 20.2683 5.64395 20.6409 5.53796 21.0178C5.48849 21.2075 5.4514 21.3999 5.42431 21.5939C5.39954 21.7883 5.38627 21.9841 5.38287 22.1799C5.38098 22.3755 5.39053 22.5717 5.40756 22.7664C5.42691 22.9618 5.45601 23.1556 5.49328 23.3472C5.53136 23.5394 5.58214 23.7291 5.6387 23.9153C5.69664 24.0998 5.77017 24.28 5.85168 24.4557C6.19268 25.1558 6.69092 25.7743 7.2577 26.3042C7.54118 26.5703 7.84333 26.8142 8.16093 27.0341C8.47784 27.2548 8.81209 27.4467 9.15858 27.6033C9.50307 27.7631 9.86194 27.886 10.2245 27.9531L10.3602 27.9775L10.496 27.9935C10.5414 28.0004 10.5863 28.002 10.6321 28.0042C10.6786 28.0064 10.7199 28.0106 10.7716 28.0108L11.3646 28.0267C11.7558 28.0366 12.1436 28.0339 12.5234 27.9984C12.9017 27.963 13.2751 27.8953 13.6007 27.7563C13.7636 27.6879 13.9095 27.5989 14.0296 27.49C14.1536 27.3838 14.2338 27.2532 14.3086 27.0933C14.4539 26.7785 14.5042 26.3978 14.572 26.0005C14.6062 25.8014 14.6445 25.596 14.7069 25.3884C14.7694 25.1817 14.8598 24.9726 14.9899 24.7845C15.1164 24.5991 15.2509 24.454 15.3712 24.3032C15.491 24.1548 15.5945 24.0116 15.6488 23.8618C15.7086 23.7138 15.7158 23.555 15.6913 23.3882C15.6602 23.1984 15.6204 23.0033 15.5829 22.8087C15.5445 22.6134 15.506 22.4158 15.4747 22.2139C15.4441 22.0118 15.4171 21.8065 15.4172 21.589C15.418 21.4801 15.4252 21.367 15.454 21.2482C15.4666 21.1894 15.4896 21.1281 15.5187 21.0671C15.5508 21.0067 15.5898 20.9464 15.6456 20.8953C15.6999 20.8451 15.7655 20.8032 15.8327 20.7801C15.8988 20.754 15.9699 20.7412 16.0413 20.7406C16.1132 20.7384 16.1836 20.7538 16.2492 20.7749C16.3134 20.7985 16.373 20.83 16.4256 20.8682C16.6337 21.0227 16.7501 21.2442 16.7955 21.4776C16.8415 21.7103 16.7949 21.9713 16.6544 22.1716C16.5853 22.2717 16.4974 22.3551 16.401 22.4202C16.3537 22.4538 16.3029 22.4816 16.2532 22.5055L16.1023 22.5713C16.0499 22.5902 15.9941 22.604 15.94 22.6199C15.8858 22.6351 15.8252 22.6371 15.7682 22.6456C15.7101 22.6505 15.6496 22.6434 15.5909 22.6414C15.5329 22.6288 15.4736 22.6193 15.4181 22.5996C15.1927 22.5203 15.0218 22.3658 14.8827 22.2093C14.7433 22.0506 14.6291 21.8829 14.516 21.7197C14.4035 21.5557 14.2919 21.4008 14.1642 21.2548C14.038 21.1079 13.9019 20.9687 13.7592 20.8338C13.4746 20.564 13.1653 20.3153 12.8644 20.0507C12.563 19.7884 12.2704 19.5033 12.0267 19.1769C11.7852 18.8503 11.5862 18.4866 11.4706 18.094C11.4125 17.8981 11.3714 17.6969 11.3536 17.4931C11.3366 17.2892 11.34 17.0851 11.3604 16.8826C11.383 16.6807 11.426 16.4771 11.5109 16.2844C11.5561 16.1894 11.6115 16.0981 11.683 16.0176C11.7538 15.9371 11.844 15.871 11.9412 15.8256C12.1378 15.7339 12.3555 15.7218 12.5599 15.7405C12.7664 15.7582 12.9656 15.8062 13.1617 15.8629C13.3579 15.9195 13.5485 15.9918 13.735 16.0705C13.9231 16.1491 14.1027 16.2353 14.2806 16.3375C14.46 16.4397 14.6307 16.5554 14.7903 16.6836C14.8707 16.7468 14.9512 16.8101 15.0268 16.879C15.1038 16.9456 15.1809 17.0137 15.2529 17.0853C15.5468 17.3672 15.8154 17.6725 16.0617 17.9934C16.308 18.3143 16.5335 18.6507 16.7373 18.9987C16.9427 19.3481 17.1221 19.7058 17.2785 20.0866C17.4287 20.4749 17.5036 20.8816 17.5499 21.2808C17.597 21.6814 17.6188 22.0789 17.6628 22.4691C17.7585 23.2506 17.8997 24.0327 18.1548 24.7765C18.2189 24.962 18.2904 25.1454 18.3699 25.3244C18.4486 25.5033 18.5401 25.6805 18.6279 25.858C18.8063 26.2119 18.9923 26.5652 19.1537 26.9335C19.3164 27.2994 19.4481 27.6854 19.5127 28.0861L19.5258 28.1611L19.5336 28.2365L19.5492 28.3873C19.5531 28.4881 19.5585 28.5896 19.5564 28.6909C19.5496 28.7918 19.5513 28.8936 19.5361 28.9937L19.5007 29.2887C19.4692 29.6747 19.5736 30.0606 19.6458 30.4531C19.6813 30.6502 19.7073 30.8526 19.7032 31.0575C19.6976 31.2633 19.6558 31.4638 19.6029 31.6575C19.5507 31.8513 19.4898 32.0404 19.4449 32.2305C19.3992 32.4198 19.3782 32.614 19.3734 32.8106C19.3628 33.2024 19.4416 33.5905 19.5558 33.9673C19.6731 34.3439 19.823 34.7116 19.9839 35.0738C20.1441 35.4369 20.3218 35.7917 20.4866 36.1551C20.6514 36.5186 21.2754 35.4711 21.4108 35.8469C21.4782 36.0345 21.7336 35.6555 21.7906 35.8469C21.8477 36.0391 22.1124 35.5437 22.1504 35.7436L23.2345 35.4418L21.1718 35.7969C21.4016 35.3663 22.112 36.1007 22.2032 35.6193C22.2483 35.3783 21.3865 36.2446 21.4108 36C21.436 35.7561 21.7915 35.7921 21.8141 35.5446C21.836 35.2979 21.8671 35.0512 21.9196 34.8072C21.9714 34.5633 22.051 34.3255 22.1504 34.0967C22.249 33.8679 22.3666 33.6489 22.49 33.434C22.6124 33.2177 22.7487 33.0124 22.8581 32.7949C22.9698 32.5779 23.0625 32.3512 23.138 32.1182C23.2135 31.8853 23.2718 31.6462 23.3323 31.4069C23.451 30.9277 23.5954 30.4465 23.8358 30.0058L23.8836 29.9235C23.8987 29.8956 23.9154 29.8684 23.9354 29.8439L24.0496 29.6929C24.0896 29.6447 24.1346 29.6006 24.177 29.5537C24.1987 29.5314 24.2194 29.5068 24.2427 29.4859L24.3126 29.423C24.4966 29.2525 24.7034 29.1097 24.9167 28.9809C25.1291 28.8506 25.3522 28.7392 25.5801 28.6395C25.808 28.5399 26.039 28.4506 26.2798 28.3788L26.2419 28.4428C26.0737 27.7115 25.8787 26.9863 25.6615 26.2675C25.4429 25.5504 25.212 24.8327 24.9375 24.137C24.6558 23.4472 24.2923 22.7862 23.7947 22.249C23.2994 21.7109 22.6717 21.3154 21.9831 21.0733C21.6397 20.9536 21.2831 20.8671 20.9217 20.841C20.741 20.8234 20.5602 20.8316 20.3798 20.8452C20.2906 20.8595 20.2 20.8655 20.1123 20.8888L19.9804 20.9188L19.8509 20.9593C19.8071 20.9713 19.7651 20.9878 19.7234 21.0057L19.5978 21.0573L19.4777 21.1198L19.4172 21.1507L19.3611 21.1881L19.2488 21.2621C19.2131 21.2886 19.1799 21.3196 19.1459 21.3483C19.0738 21.403 19.0198 21.4759 18.9585 21.5411C18.9311 21.5769 18.9069 21.6146 18.8811 21.6518L18.8425 21.7075L18.811 21.7671C18.7908 21.8076 18.7683 21.8467 18.7497 21.8878L18.7018 22.015C18.6479 22.1876 18.6128 22.3677 18.6152 22.5508C18.6084 22.6419 18.6236 22.7327 18.6296 22.8234C18.6485 22.9131 18.6576 23.0044 18.6862 23.0917C18.7292 23.2699 18.8062 23.4368 18.8903 23.5986C18.9385 23.676 18.9811 23.7576 19.0379 23.8289C19.0652 23.8654 19.0904 23.9029 19.1199 23.9384L19.2101 24.045C19.2685 24.1169 19.3327 24.1846 19.3953 24.2523C19.4573 24.3217 19.5242 24.3861 19.5904 24.4513C20.1236 24.971 20.745 25.3906 21.3781 25.7865C21.6954 25.9843 22.0181 26.1749 22.3411 26.3684L23.3043 26.9527C23.9421 27.342 24.5898 27.7123 25.2768 27.972C25.6202 28.1008 25.9695 28.2093 26.328 28.2729C26.6804 28.3461 27.036 28.3384 27.3899 28.2747C27.7423 28.2118 28.0879 28.0939 28.4066 27.9266C28.7245 27.7594 29.0201 27.5423 29.245 27.271C29.356 27.1362 29.4482 26.9856 29.4987 26.8262C29.5516 26.6682 29.5535 26.4999 29.5194 26.3286C29.4869 26.1572 29.4211 25.9878 29.3442 25.8223C29.2673 25.6561 29.1785 25.4932 29.0874 25.3297C28.9066 25.0018 28.7099 24.6744 28.5789 24.3067C28.5158 24.1233 28.4652 23.9275 28.4709 23.7225C28.4723 23.6212 28.4857 23.5182 28.5229 23.417C28.5585 23.3167 28.6216 23.2171 28.7147 23.15C28.807 23.0822 28.9205 23.0491 29.0275 23.0478C29.1351 23.0449 29.2386 23.0659 29.3349 23.1005C29.5269 23.1711 29.7008 23.2897 29.8217 23.4644C29.8807 23.5515 29.9246 23.6589 29.9259 23.7744C29.9257 23.8907 29.8751 24.0029 29.8044 24.0841C29.7354 24.1675 29.633 24.2323 29.5281 24.2586C29.4226 24.2871 29.3175 24.283 29.2178 24.2715C29.0174 24.2465 28.8346 24.1758 28.6588 24.0984C28.4836 24.0195 28.3163 23.9263 28.1539 23.828C27.8297 23.6293 27.5234 23.4084 27.2283 23.1661C27.1965 23.1407 27.1187 23.0674 27.1449 23.0355C27.1579 23.0192 27.2261 23.0124 27.2458 23.0108L27.2802 23.0079C27.5064 22.989 27.7209 22.9813 27.9429 22.93C28.054 22.9048 28.1639 22.8751 28.2728 22.8424C28.3803 22.8106 28.4824 22.7686 28.5822 22.7184C28.7835 22.618 28.9698 22.4845 29.1782 22.3698C29.2829 22.3139 29.3919 22.2645 29.5074 22.229C29.6214 22.1936 29.7469 22.1679 29.8766 22.1844C29.9411 22.1928 30.0089 22.2129 30.0671 22.256C30.1261 22.2982 30.1683 22.3669 30.1832 22.4357C30.1995 22.5043 30.1946 22.5731 30.1829 22.6327C30.1735 22.6935 30.158 22.7534 30.1364 22.8122C30.1131 22.8704 30.0854 22.929 30.0426 22.9805C30.0029 23.0325 29.9454 23.0807 29.8679 23.0985C29.8494 23.1046 29.8289 23.1048 29.8083 23.1035C29.7984 23.1028 29.7877 23.1022 29.7777 23.1008L29.7488 23.091L29.7205 23.0797C29.7124 23.0743 29.7044 23.0688 29.6963 23.0627C29.6809 23.051 29.664 23.0395 29.6544 23.0244C29.6034 22.9685 29.5858 22.9038 29.5678 22.8422C29.5613 22.8108 29.558 22.7799 29.5531 22.7491C29.5506 22.7182 29.551 22.6877 29.55 22.6566C29.5494 22.5958 29.5524 22.5401 29.5536 22.4822L29.5612 22.1363L29.5763 21.4437C29.5775 21.3858 29.5802 21.3278 29.5756 21.2726C29.574 21.2165 29.5701 21.1605 29.5631 21.1049C29.5522 20.9924 29.5323 20.8816 29.5015 20.7754C29.4713 20.6691 29.4293 20.5662 29.3695 20.4776C29.3098 20.3898 29.2322 20.3157 29.14 20.2763C29.0479 20.2376 28.9427 20.2327 28.8484 20.2672C28.7539 20.2994 28.6723 20.3686 28.6294 20.455C28.585 20.5416 28.588 20.641 28.632 20.7324C28.6519 20.7787 28.6824 20.8172 28.7164 20.8516C28.7547 20.8819 28.7956 20.9089 28.844 20.9238C28.9402 20.9569 29.0505 20.9598 29.1589 20.9477C29.268 20.9356 29.3774 20.9089 29.4839 20.8749C29.6975 20.8039 29.9034 20.7045 30.0987 20.5878C30.2932 20.4705 30.4795 20.337 30.6428 20.1819C30.7236 20.1044 30.8002 20.0205 30.8578 19.929C30.8867 19.8832 30.9092 19.8349 30.9189 19.7877C30.9272 19.7414 30.9236 19.6892 30.9095 19.6387C30.8812 19.5361 30.8288 19.4355 30.7677 19.341C30.7067 19.2465 30.6375 19.1549 30.5656 19.0666C30.4209 18.8901 30.2626 18.7223 30.1022 18.557C29.9425 18.3901 29.7738 18.2346 29.6232 18.0502L29.4125 17.7735C29.3418 17.6813 29.2775 17.5847 29.2097 17.4908C28.944 17.1107 28.7018 16.7119 28.5019 16.292C28.45 16.1884 28.4038 16.0812 28.3584 15.9739C28.31 15.8677 28.2713 15.7584 28.2274 15.651C28.2069 15.5965 28.1827 15.5437 28.1615 15.4892C28.1402 15.4347 28.119 15.381 28.0956 15.3274C28.0479 15.2204 28.0061 15.1113 27.9636 15.0023C27.9196 14.8934 27.8815 14.7833 27.8478 14.6713C27.8135 14.56 27.7835 14.447 27.7589 14.3334C27.705 14.1067 27.6609 13.8792 27.6221 13.6505C27.5422 13.194 27.4884 12.7323 27.4072 12.2782C27.3841 12.1653 27.364 12.0522 27.3387 11.9402C27.3112 11.8284 27.2658 11.7219 27.2279 11.6133C27.1922 11.5045 27.1543 11.3959 27.115 11.2889C27.0748 11.1812 27.0399 11.0723 26.9947 10.9674C26.8285 10.5409 26.6217 10.13 26.374 9.74611C26.1264 9.36448 25.8414 8.9989 25.5074 8.69979C25.1602 8.39035 24.8168 8.08897 24.4557 7.80276C24.0962 7.51718 23.7257 7.24545 23.3378 7.0033C22.9495 6.76347 22.5447 6.54631 22.1161 6.40643C21.9022 6.33684 21.683 6.28594 21.463 6.27085C21.243 6.25501 21.0222 6.27649 20.8194 6.34819C20.7695 6.36909 20.7203 6.38992 20.6713 6.41227C20.6257 6.43965 20.5761 6.46357 20.533 6.49378C20.4917 6.52614 20.4462 6.55427 20.4099 6.59304C20.391 6.61136 20.3712 6.62898 20.3523 6.64806L20.3004 6.70942C20.1616 6.87464 20.0639 7.07825 19.9819 7.2874C19.8164 7.70657 19.7235 8.16759 19.534 8.60017C19.3564 9.02872 19.1662 9.45148 18.9711 9.87084L18.6764 10.4985L18.5287 10.812C18.4797 10.9173 18.4269 11.0206 18.389 11.1218C18.3106 11.3291 18.2616 11.5515 18.2368 11.7734C18.2151 11.995 18.218 12.2213 18.2714 12.4329C18.3239 12.6429 18.4277 12.8404 18.5963 12.967C18.6798 13.0307 18.7742 13.0791 18.8765 13.1124C18.9799 13.141 19.0866 13.1641 19.197 13.167C19.3062 13.1746 19.4181 13.1676 19.5288 13.1568C19.6394 13.1438 19.7502 13.1246 19.8655 13.1051C20.0938 13.0647 20.3233 13.0304 20.5541 13.0027C21.0151 12.9475 21.4811 12.9162 21.9458 12.9245C22.4111 12.9298 22.8739 12.9702 23.3332 13.0125C23.5628 13.0336 23.7923 13.054 24.0216 13.0713C24.25 13.0865 24.4771 13.0964 24.7036 13.0798C24.9294 13.0647 25.1545 13.0314 25.3703 12.9693C25.4786 12.939 25.5831 12.8991 25.684 12.8518C25.7344 12.8279 25.7831 12.8017 25.8293 12.7728C25.8756 12.7453 25.9221 12.7103 25.9559 12.6793L25.977 12.7863C25.5746 12.6153 25.1351 12.5357 24.695 12.504C24.2542 12.4731 23.8089 12.4883 23.368 12.538C23.1473 12.561 22.9278 12.5961 22.7093 12.6356C22.6001 12.6562 22.4918 12.6781 22.3846 12.7038C22.3325 12.7165 22.2752 12.7304 22.2309 12.7456C22.1868 12.7637 22.1434 12.7894 22.1074 12.822C22.0338 12.8867 21.9904 12.9763 22.0011 13.0682C22.0089 13.1611 22.065 13.2515 22.1338 13.3294C22.2745 13.4864 22.4644 13.6044 22.6556 13.7109C22.8489 13.8157 23.0528 13.9021 23.259 13.989C23.4645 14.0753 23.6711 14.1577 23.8802 14.2338C24.297 14.3868 24.7248 14.5161 25.1572 14.6009C25.2651 14.62 25.3743 14.636 25.481 14.64C25.5343 14.6417 25.5874 14.641 25.6369 14.6338C25.6865 14.6274 25.7338 14.6121 25.7585 14.5895C25.7818 14.5678 25.7865 14.543 25.7755 14.4922C25.7642 14.4399 25.7524 14.3884 25.7339 14.3398C25.6991 14.2416 25.644 14.1549 25.5657 14.0991C25.4873 14.0433 25.3867 14.0205 25.2832 14.0185C25.1797 14.0157 25.0712 14.0347 24.9634 14.0543C24.7489 14.0958 24.538 14.1621 24.332 14.2417C24.1268 14.3219 23.9209 14.4121 23.7256 14.5106C23.5283 14.6122 23.3272 14.715 23.1398 14.8257C23.129 14.8327 23.1174 14.8397 23.1088 14.8458C23.1059 14.8475 23.1038 14.85 23.1038 14.85L23.1017 14.8517C23.1017 14.8517 23.1052 14.8483 23.1066 14.8467C23.0995 14.8617 23.1341 14.8117 23.1099 14.7772L23.1125 14.7808L23.1177 14.7887C23.1301 14.8098 23.1454 14.829 23.1614 14.8482C23.1935 14.8866 23.232 14.9206 23.2741 14.9521C23.3576 15.0151 23.4524 15.0673 23.551 15.1115C23.7483 15.2007 23.9614 15.2605 24.1763 15.3057C24.607 15.3967 25.0496 15.4495 25.4899 15.4469C25.5999 15.4454 25.7096 15.4408 25.8172 15.4287C25.9232 15.4161 26.035 15.3991 26.1182 15.3587C26.1379 15.3487 26.1528 15.3361 26.1568 15.3296C26.1594 15.3249 26.1604 15.3278 26.1538 15.3124C26.151 15.3058 26.1435 15.298 26.1375 15.2902L26.112 15.2665C26.0955 15.2503 26.0738 15.2369 26.0537 15.2234C25.9675 15.1728 25.8632 15.1427 25.7582 15.1226C25.5453 15.0834 25.3226 15.0814 25.1025 15.0914C24.8815 15.1015 24.6602 15.1253 24.4403 15.1559C24.33 15.1719 24.2205 15.1894 24.1113 15.2092L24.0299 15.2251C24.0052 15.2295 23.9771 15.2394 23.9511 15.2462L23.7917 15.2922C23.5817 15.3614 23.3753 15.4448 23.1814 15.5508C22.9874 15.6567 22.8061 15.7859 22.6529 15.9432C22.4997 16.1005 22.3707 16.2839 22.2946 16.4911C22.1335 16.8992 22.1573 17.3756 22.3209 17.7703L22.3228 17.7747C22.3353 17.8056 22.3207 17.8403 22.2906 17.8527C22.2605 17.8651 22.2251 17.8506 22.2127 17.8204L22.2116 17.8167L22.2111 17.819Z" fill="#CBE2D1"/>
<path d="M22.2111 17.819C22.1361 17.5941 22.1089 17.3682 22.108 17.1394C22.1083 17.0253 22.1216 16.9116 22.1418 16.7989C22.1621 16.6869 22.1931 16.5763 22.2375 16.4707C22.3216 16.2591 22.4521 16.0672 22.6085 15.9028C22.7657 15.7391 22.9511 15.6042 23.1485 15.4942C23.3459 15.3842 23.5551 15.2975 23.7685 15.2241L23.9307 15.1741C23.9838 15.156 24.042 15.1435 24.0958 15.1329C24.2056 15.1108 24.3163 15.0902 24.4272 15.0725C24.649 15.0365 24.8722 15.008 25.0973 14.9938C25.3226 14.981 25.5501 14.9765 25.7786 15.0122C25.8926 15.0315 26.0075 15.0607 26.1158 15.1209C26.1423 15.1377 26.1694 15.1537 26.1933 15.1753L26.2294 15.208C26.2412 15.2214 26.2529 15.2349 26.2635 15.253C26.2741 15.2704 26.2828 15.2925 26.285 15.3189C26.2872 15.3454 26.2804 15.3733 26.2678 15.3949C26.2425 15.4373 26.21 15.4575 26.181 15.4744C26.0629 15.5337 25.9496 15.5492 25.8347 15.5657C25.7205 15.5798 25.607 15.5855 25.4933 15.5881C25.2666 15.5926 25.0408 15.581 24.8157 15.5588C24.5912 15.5357 24.3661 15.5043 24.1459 15.4512C23.9258 15.3981 23.7069 15.3327 23.4962 15.2378C23.3912 15.1895 23.2885 15.1334 23.1944 15.0607C23.1473 15.0243 23.1021 14.984 23.0625 14.9363C23.043 14.9129 23.0235 14.8879 23.0076 14.8611L23.0014 14.8509L22.9979 14.8459C22.9743 14.8083 23.0093 14.7544 23.005 14.767C23.0085 14.7629 23.0134 14.7579 23.0169 14.7546L23.0233 14.7495C23.0276 14.7461 23.0318 14.7427 23.0347 14.7409C23.0491 14.7306 23.0614 14.7235 23.0736 14.7156C23.2721 14.6002 23.4704 14.5007 23.6707 14.3988C23.875 14.2981 24.0795 14.2103 24.2906 14.128C24.5018 14.0472 24.7186 13.9782 24.9429 13.9351C25.0544 13.9152 25.1674 13.8951 25.2883 13.8971C25.407 13.8994 25.5344 13.9252 25.6395 14.0009C25.7445 14.0758 25.8123 14.188 25.8513 14.3003C25.8727 14.3563 25.8866 14.4137 25.8983 14.4713C25.9051 14.4981 25.9093 14.5404 25.9026 14.5782C25.8953 14.6183 25.872 14.6576 25.8431 14.6836C25.7829 14.7357 25.7164 14.7489 25.6564 14.7585C25.5956 14.7673 25.5364 14.7677 25.4785 14.7657C25.362 14.761 25.2489 14.7446 25.1372 14.725C24.6925 14.6382 24.2623 14.5068 23.84 14.352C23.6292 14.2745 23.4209 14.1907 23.214 14.1046C23.0077 14.0176 22.7999 13.9293 22.6002 13.8212C22.4026 13.7107 22.2043 13.5912 22.0452 13.4136C21.9679 13.325 21.8966 13.2169 21.8832 13.0841C21.8762 13.0185 21.8873 12.9507 21.9141 12.8899C21.941 12.8299 21.9822 12.7785 22.0289 12.7366C22.0754 12.6939 22.1297 12.662 22.1892 12.638C22.2505 12.6169 22.3027 12.6049 22.3585 12.5912C22.4687 12.5645 22.5785 12.5424 22.6891 12.5217C22.9106 12.4812 23.1325 12.4467 23.356 12.4219C23.8027 12.3694 24.2547 12.3522 24.7052 12.3815C25.1552 12.4123 25.6076 12.4917 26.031 12.6685L26.0332 12.6683C26.0664 12.683 26.0816 12.7205 26.0677 12.7536C26.0639 12.7623 26.0584 12.7696 26.0521 12.7762C26.0007 12.8239 25.9541 12.8574 25.9014 12.89C25.8502 12.9224 25.7971 12.9512 25.7431 12.977C25.635 13.0286 25.5239 13.0713 25.4096 13.1037C25.182 13.1706 24.948 13.2061 24.714 13.2226C24.4801 13.2414 24.2447 13.2322 24.0125 13.2173C23.7818 13.2009 23.5516 13.1813 23.3213 13.1617C22.8615 13.1218 22.4034 13.0833 21.9452 13.0805C21.4867 13.0746 21.0292 13.1068 20.5744 13.1638C20.3467 13.1919 20.1203 13.2276 19.8943 13.2677C19.7827 13.2869 19.6652 13.3082 19.5472 13.3226C19.429 13.3347 19.3089 13.3425 19.1883 13.3351C19.0673 13.3322 18.946 13.3081 18.8278 13.2747C18.71 13.2374 18.5958 13.18 18.496 13.1039C18.2912 12.9514 18.1688 12.7145 18.109 12.4799C18.0489 12.2423 18.0461 11.9992 18.068 11.7616C18.093 11.5245 18.1442 11.2913 18.2279 11.0661C18.2714 10.9506 18.3243 10.8481 18.3718 10.7438L18.5188 10.4296L18.8112 9.80207C19.004 9.38289 19.1921 8.96183 19.367 8.53655C19.5487 8.12059 19.6376 7.66674 19.8096 7.22498C19.8953 7.00563 19.9984 6.78484 20.1564 6.59445L20.2158 6.52408C20.2375 6.50174 20.2608 6.48078 20.2826 6.45919C20.3251 6.41381 20.3785 6.37969 20.4284 6.34129C20.4794 6.30586 20.5348 6.27841 20.5876 6.24663C20.6431 6.22069 20.7004 6.1969 20.7577 6.17386C20.9909 6.09202 21.2389 6.07054 21.4789 6.08852C21.7197 6.10644 21.9529 6.1615 22.177 6.23556C22.627 6.38506 23.0407 6.60984 23.4364 6.85589C23.8308 7.10434 24.2063 7.38098 24.5679 7.67248C24.9286 7.96328 25.2774 8.2741 25.6176 8.58259C25.9694 8.90304 26.2535 9.27705 26.5059 9.67045C27.0094 10.4612 27.3262 11.3534 27.5213 12.2619C27.7086 13.168 27.8705 14.0785 28.1258 14.9621C28.2538 15.4032 28.4092 15.8366 28.6056 16.2507C28.8012 16.6655 29.0362 17.0604 29.2986 17.437C29.3656 17.5302 29.4297 17.6253 29.4997 17.7168L29.7094 17.9905C29.8498 18.1621 30.0218 18.3219 30.1815 18.488C30.3435 18.654 30.5041 18.8223 30.6529 19.0031C30.7273 19.0934 30.7989 19.1871 30.8634 19.2866C30.9279 19.3862 30.9862 19.4931 31.0208 19.6157C31.0373 19.6767 31.0444 19.7445 31.0328 19.814C31.0195 19.8828 30.991 19.9407 30.9581 19.9928C30.8924 20.0979 30.811 20.1869 30.726 20.2693C30.5544 20.4334 30.3631 20.5711 30.1629 20.6928C29.9619 20.8137 29.7503 20.9173 29.5257 20.9924C29.4124 21.0277 29.2973 21.0594 29.1772 21.0755C29.0577 21.0908 28.9303 21.0931 28.8054 21.0533C28.7424 21.035 28.6832 20.9996 28.6296 20.9577C28.6063 20.933 28.5801 20.9101 28.561 20.8821C28.5435 20.8539 28.5207 20.8269 28.509 20.7959C28.4798 20.7375 28.4597 20.6692 28.4575 20.5979C28.4547 20.5274 28.4746 20.4566 28.5052 20.3954C28.6332 20.146 28.945 20.0423 29.2044 20.1378C29.3337 20.1855 29.4376 20.2841 29.5059 20.3925C29.5765 20.5014 29.6206 20.6194 29.6517 20.737C29.6843 20.8552 29.7011 20.9747 29.7088 21.0934C29.7137 21.1524 29.7164 21.2122 29.7161 21.2723C29.7189 21.3329 29.7138 21.3904 29.711 21.4477C29.6992 21.6791 29.6851 21.9099 29.6778 22.141L29.6649 22.4873C29.6633 22.6038 29.6531 22.718 29.6769 22.8209C29.6909 22.8707 29.7066 22.9226 29.7382 22.955C29.7684 22.989 29.8061 23.0041 29.8471 22.9946C29.8873 22.9859 29.9296 22.9557 29.9596 22.9144C29.9928 22.8759 30.016 22.8261 30.0362 22.7765C30.0539 22.7256 30.0685 22.6726 30.0769 22.6179C30.0875 22.5638 30.09 22.5119 30.0784 22.4634C30.0676 22.4157 30.0429 22.3751 30.0041 22.3472C29.966 22.3184 29.9161 22.3028 29.8646 22.2957C29.7595 22.2824 29.6496 22.303 29.5422 22.3363C29.4356 22.3696 29.3317 22.4163 29.2321 22.4695C29.033 22.5774 28.8431 22.7141 28.6332 22.8191C28.5282 22.872 28.4188 22.9169 28.3062 22.9506C28.1951 22.9843 28.0829 23.0142 27.9689 23.0404C27.7424 23.0928 27.4222 23.0673 27.1899 23.0867L27.2192 23.0578C27.5071 23.2946 27.8944 23.5402 28.2136 23.7341C28.3736 23.8302 28.5375 23.92 28.7072 23.9963C28.8767 24.0704 29.0531 24.1362 29.2333 24.1577C29.323 24.1677 29.4152 24.1706 29.4998 24.1468C29.5852 24.1245 29.6587 24.0773 29.7154 24.0102C29.7722 23.9439 29.8078 23.8618 29.8083 23.7766C29.8073 23.6915 29.7736 23.6068 29.7243 23.5341C29.6232 23.3874 29.4652 23.279 29.2968 23.2177C29.2115 23.1876 29.122 23.1707 29.0342 23.1735C28.9462 23.1755 28.8596 23.2018 28.7909 23.2531C28.7215 23.3038 28.6731 23.3793 28.6436 23.4624C28.6133 23.5456 28.6012 23.6371 28.6004 23.7276C28.5981 23.8183 28.608 23.9095 28.627 24C28.6444 24.0898 28.6723 24.1787 28.7031 24.2659C28.8317 24.6141 29.0287 24.9353 29.2139 25.262C29.3065 25.4254 29.4001 25.5903 29.4812 25.7614C29.5623 25.9326 29.6349 26.1106 29.675 26.2997C29.7165 26.4871 29.7183 26.6907 29.6595 26.8782C29.603 27.0654 29.5024 27.2343 29.3836 27.3841C29.1428 27.6841 28.8327 27.9176 28.4993 28.0999C28.1651 28.2814 27.8032 28.4128 27.4293 28.4835C27.0563 28.5543 26.6652 28.5641 26.2913 28.4889C25.9174 28.4227 25.5524 28.3163 25.1992 28.18C24.4921 27.9068 23.8367 27.525 23.1982 27.1281L22.2443 26.5279C21.9254 26.3294 21.6052 26.1325 21.2889 25.9285C20.6571 25.5204 20.0365 25.0825 19.4968 24.5488C19.4296 24.4814 19.3618 24.4156 19.299 24.3448C19.2346 24.2749 19.1704 24.2057 19.111 24.1316L19.0198 24.0221C18.9902 23.985 18.9633 23.9447 18.9342 23.906C18.8747 23.8296 18.8303 23.7444 18.7801 23.6618C18.6922 23.4912 18.6129 23.3138 18.5683 23.1259C18.5386 23.0341 18.5297 22.9367 18.5104 22.8425C18.5047 22.7464 18.4891 22.6503 18.4954 22.5532C18.4942 22.1662 18.6204 21.777 18.8557 21.466C18.9211 21.3937 18.9783 21.3143 19.0544 21.2532C19.0912 21.2213 19.1256 21.1872 19.1641 21.1574L19.2833 21.0744L19.3428 21.0329L19.406 20.998L19.5323 20.9281L19.6642 20.87C19.708 20.8496 19.7521 20.8314 19.798 20.8177L19.9347 20.7713L20.0745 20.7361C20.1672 20.7093 20.2629 20.7006 20.3571 20.6828C20.5476 20.6631 20.7395 20.6509 20.9297 20.6639C21.3116 20.6806 21.6864 20.7665 22.0466 20.887C22.4062 21.0105 22.7512 21.1764 23.0708 21.384C23.3897 21.5916 23.6811 21.8433 23.9328 22.1288C24.4379 22.7018 24.787 23.3898 25.0576 24.0935C25.3218 24.8015 25.5539 25.516 25.7721 26.237C25.9888 26.9581 26.1833 27.6864 26.3509 28.4208C26.358 28.4513 26.3401 28.4825 26.3097 28.4911C26.0785 28.5599 25.8475 28.6491 25.6239 28.7461C25.4005 28.8439 25.181 28.9535 24.9729 29.0804C24.7646 29.2058 24.5628 29.3451 24.3851 29.509L24.3173 29.5694C24.2947 29.5895 24.2754 29.6132 24.2544 29.6347C24.214 29.6791 24.1705 29.7216 24.1318 29.7674L24.023 29.9103C24.0036 29.9332 23.9883 29.9589 23.9738 29.9852L23.9286 30.0627L23.8834 30.1402L23.8448 30.2233C23.8198 30.2787 23.7917 30.3335 23.7691 30.3901L23.6997 30.5594L23.6366 30.7312C23.5564 30.9623 23.4926 31.1988 23.432 31.4373C23.3715 31.6759 23.3119 31.9174 23.2345 32.155C23.1579 32.3926 23.0619 32.625 22.9475 32.8467C22.8923 32.9593 22.826 33.0653 22.7644 33.1731C22.7002 33.2781 22.6368 33.383 22.5759 33.49C22.4531 33.7025 22.3375 33.9183 22.2407 34.1416C22.1439 34.3649 22.066 34.5958 22.0152 34.8335C21.9629 35.0713 21.9323 35.3142 21.9102 35.5586C21.8873 35.8024 22.4217 35.5581 22.3961 35.8058C22.3719 36.0527 23.4777 34.9658 23.432 35.2107C23.3399 35.6991 22.1014 35.7103 21.8651 36.1551C21.8493 36.1846 21.3848 33.4693 20.8385 35.7436C21.1365 33.7641 17.643 33.4854 19.259 36.074L18.4588 35.4418C18.4225 35.2524 18.4615 36.4711 18.4055 36.2826C18.3487 36.0934 19.0677 36.186 19.0005 36C18.8654 35.628 20.5513 36.5657 20.3875 36.2052C20.0542 35.4878 19.6884 34.773 19.4482 34.006C19.3311 33.6226 19.2482 33.2211 19.259 32.8141C19.2634 32.6122 19.2859 32.4088 19.3324 32.211C19.3782 32.014 19.4398 31.824 19.49 31.6335C19.541 31.4437 19.5805 31.2525 19.5849 31.0605C19.5886 30.8678 19.564 30.6736 19.5289 30.4804C19.4579 30.0946 19.3489 29.6984 19.3804 29.2851L19.4149 28.9879C19.4295 28.8908 19.4267 28.793 19.433 28.6959C19.4347 28.5984 19.4289 28.5008 19.4245 28.403L19.4085 28.2576L19.4009 28.1844L19.3881 28.1125C19.3232 27.7263 19.194 27.353 19.0318 26.9931C18.871 26.6324 18.6846 26.2822 18.5031 25.9277C18.413 25.7497 18.3216 25.5733 18.2379 25.3901C18.1551 25.2077 18.0795 25.0216 18.0121 24.8325C17.7439 24.0762 17.5914 23.2873 17.4858 22.4961C17.4367 22.0987 17.4104 21.7023 17.3602 21.3103C17.3108 20.919 17.2335 20.53 17.0893 20.1671C16.7805 19.4438 16.37 18.7571 15.8887 18.1326C15.4047 17.5114 14.8405 16.9395 14.1673 16.5356C13.8279 16.3365 13.4746 16.1539 13.1079 16.018C12.9239 15.9527 12.7354 15.8962 12.5453 15.8748C12.3557 15.8511 12.1608 15.8636 11.995 15.9421C11.8267 16.0185 11.7065 16.1707 11.6281 16.3416C11.553 16.5159 11.5128 16.7071 11.4932 16.9004C11.4752 17.0943 11.4734 17.2899 11.4911 17.4839C11.5088 17.6778 11.5498 17.8691 11.6071 18.0552C11.7196 18.4291 11.9133 18.7749 12.1476 19.0877C12.3847 19.3995 12.6696 19.673 12.9699 19.9309C13.2694 20.1895 13.5811 20.438 13.8756 20.7093C14.0229 20.8453 14.1654 20.987 14.2987 21.1371C14.4335 21.2871 14.5542 21.4504 14.6687 21.6119C14.784 21.7734 14.8977 21.935 15.0274 22.0786C15.1563 22.2214 15.3058 22.3466 15.4801 22.4058C15.6539 22.4681 15.8468 22.4406 16.0228 22.3742C16.2007 22.3038 16.3654 22.2033 16.468 22.0495C16.6805 21.7473 16.5806 21.2781 16.2864 21.0654C16.2137 21.0137 16.1291 20.9827 16.0434 20.9845C15.9592 20.9855 15.8723 21.0186 15.8133 21.0752C15.7527 21.1328 15.7149 21.2165 15.6951 21.3064C15.6745 21.3963 15.6681 21.4927 15.6685 21.5885C15.6766 21.9764 15.7647 22.3668 15.8434 22.755C15.884 22.9493 15.9253 23.1443 15.9608 23.3414C15.9952 23.5446 15.9884 23.7634 15.9129 23.9599C15.8421 24.1582 15.7203 24.3273 15.5975 24.4844C15.474 24.6422 15.3413 24.7909 15.2355 24.9519C15.1288 25.1106 15.0518 25.2897 14.9968 25.476C14.9425 25.6631 14.9071 25.8569 14.8748 26.052C14.81 26.4407 14.765 26.8476 14.5975 27.2243C14.515 27.4092 14.4027 27.5927 14.2463 27.7297C14.0932 27.8695 13.9146 27.9772 13.7275 28.0567C13.3521 28.2174 12.9509 28.2881 12.5532 28.3274C12.1539 28.3661 11.754 28.3699 11.356 28.3605L10.7598 28.3426C10.5594 28.3343 10.356 28.3178 10.1588 28.2757C9.96097 28.2352 9.76605 28.1838 9.57728 28.1151C9.38725 28.0496 9.20212 27.97 9.02165 27.8824C8.66063 27.7065 8.31795 27.4956 7.99582 27.2578C7.673 27.0209 7.36858 26.7588 7.08591 26.4752C6.80254 26.1924 6.54016 25.888 6.30493 25.5632C6.06826 25.2392 5.86162 24.8929 5.69363 24.5275C5.61218 24.3434 5.53877 24.1556 5.48152 23.9611C5.4259 23.768 5.3792 23.5727 5.34149 23.3758C5.30523 23.1781 5.27796 22.9788 5.25973 22.7788C5.24377 22.5786 5.23686 22.3776 5.24057 22.1765C5.24654 21.9753 5.26245 21.7747 5.28986 21.5754C5.31953 21.376 5.36076 21.1786 5.41363 20.9841C5.52791 20.5973 5.67317 20.227 5.8153 19.8554C6.10289 19.1157 6.38777 18.371 6.47327 17.5851C6.56863 16.7991 6.58807 16.0043 6.55609 15.2122C6.54045 14.8158 6.51274 14.4204 6.47516 14.025L6.41496 13.4315C6.39447 13.2317 6.38907 13.0306 6.38901 12.8298C6.39725 12.4283 6.44326 12.0245 6.55591 11.6363L6.59923 11.4913C6.61499 11.4436 6.63308 11.3964 6.65035 11.3486C6.68257 11.2524 6.72666 11.162 6.76674 11.0689C6.85562 10.8873 6.95236 10.7089 7.07318 10.5459C7.18759 10.3789 7.32462 10.2283 7.46682 10.0849C7.60939 9.94596 7.7536 9.80844 7.89869 9.67235C8.18886 9.40019 8.48564 9.13433 8.78336 8.87066C9.08027 8.6063 9.37899 8.3456 9.66603 8.07218C9.81042 7.93691 9.94904 7.79605 10.0868 7.65374C10.2236 7.50998 10.3504 7.36327 10.4866 7.21271C10.7596 6.91613 11.0745 6.65788 11.4227 6.45387C11.7702 6.24918 12.1481 6.09974 12.5358 5.99511C12.5677 5.98636 12.6005 6.00567 12.6092 6.03689C12.6179 6.06886 12.5986 6.10165 12.5674 6.11034C12.1877 6.20975 11.8191 6.35308 11.4793 6.54953C11.1395 6.74523 10.8307 6.99461 10.5623 7.28244C10.4301 7.42658 10.2979 7.58059 10.161 7.7236C10.0218 7.86679 9.88172 8.00853 9.73663 8.14461C9.4474 8.41898 9.14798 8.6805 8.85026 8.94417C8.55248 9.20708 8.25633 9.47137 7.96684 9.74271C7.67993 10.0176 7.37656 10.2772 7.15371 10.6008C7.03704 10.7588 6.94218 10.9325 6.85512 11.1087C6.81637 11.1993 6.77284 11.2874 6.74194 11.3812C6.7253 11.4275 6.70708 11.4731 6.69201 11.52L6.64994 11.6619C6.53956 12.0408 6.49361 12.4363 6.4848 12.8309C6.47605 13.2264 6.53469 13.6192 6.57239 14.0161C6.61154 14.4121 6.63944 14.8098 6.65678 15.2084C6.69058 16.0041 6.6731 16.8041 6.57912 17.5975C6.53643 17.9958 6.44315 18.3884 6.32692 18.77C6.21 19.1524 6.068 19.5255 5.92738 19.897C5.78827 20.2683 5.64395 20.6409 5.53796 21.0178C5.48849 21.2075 5.4514 21.3999 5.42431 21.5939C5.39954 21.7883 5.38627 21.9841 5.38287 22.1799C5.38098 22.3755 5.39053 22.5717 5.40756 22.7664C5.42691 22.9618 5.45601 23.1556 5.49328 23.3472C5.53136 23.5394 5.58214 23.7291 5.6387 23.9153C5.69664 24.0998 5.77017 24.28 5.85168 24.4557C6.19268 25.1558 6.69092 25.7743 7.2577 26.3042C7.54118 26.5703 7.84333 26.8142 8.16093 27.0341C8.47784 27.2548 8.81209 27.4467 9.15858 27.6033C9.50307 27.7631 9.86194 27.886 10.2245 27.9531L10.3602 27.9775L10.496 27.9935C10.5414 28.0004 10.5863 28.002 10.6321 28.0042C10.6786 28.0064 10.7199 28.0106 10.7716 28.0108L11.3646 28.0267C11.7558 28.0366 12.1436 28.0339 12.5234 27.9984C12.9017 27.963 13.2751 27.8953 13.6007 27.7563C13.7636 27.6879 13.9095 27.5989 14.0296 27.49C14.1536 27.3838 14.2338 27.2532 14.3086 27.0933C14.4539 26.7785 14.5042 26.3978 14.572 26.0005C14.6062 25.8014 14.6445 25.596 14.7069 25.3884C14.7694 25.1817 14.8598 24.9726 14.9899 24.7845C15.1164 24.5991 15.2509 24.454 15.3712 24.3032C15.491 24.1548 15.5945 24.0116 15.6488 23.8618C15.7086 23.7138 15.7158 23.555 15.6913 23.3882C15.6602 23.1984 15.6204 23.0033 15.5829 22.8087C15.5445 22.6134 15.506 22.4158 15.4747 22.2139C15.4441 22.0118 15.4171 21.8065 15.4172 21.589C15.418 21.4801 15.4252 21.367 15.454 21.2482C15.4666 21.1894 15.4896 21.1281 15.5187 21.0671C15.5508 21.0067 15.5898 20.9464 15.6456 20.8953C15.6999 20.8451 15.7655 20.8032 15.8327 20.7801C15.8988 20.754 15.9699 20.7412 16.0413 20.7406C16.1132 20.7384 16.1836 20.7538 16.2492 20.7749C16.3134 20.7985 16.373 20.83 16.4256 20.8682C16.6337 21.0227 16.7501 21.2442 16.7955 21.4776C16.8415 21.7103 16.7949 21.9713 16.6544 22.1716C16.5853 22.2717 16.4974 22.3551 16.401 22.4202C16.3537 22.4538 16.3029 22.4816 16.2532 22.5055L16.1023 22.5713C16.0499 22.5902 15.9941 22.604 15.94 22.6199C15.8858 22.6351 15.8252 22.6371 15.7682 22.6456C15.7101 22.6505 15.6496 22.6434 15.5909 22.6414C15.5329 22.6288 15.4736 22.6193 15.4181 22.5996C15.1927 22.5203 15.0218 22.3658 14.8827 22.2093C14.7433 22.0506 14.6291 21.8829 14.516 21.7197C14.4035 21.5557 14.2919 21.4008 14.1642 21.2548C14.038 21.1079 13.9019 20.9687 13.7592 20.8338C13.4746 20.564 13.1653 20.3153 12.8644 20.0507C12.563 19.7884 12.2704 19.5033 12.0267 19.1769C11.7852 18.8503 11.5862 18.4866 11.4706 18.094C11.4125 17.8981 11.3714 17.6969 11.3536 17.4931C11.3366 17.2892 11.34 17.0851 11.3604 16.8826C11.383 16.6807 11.426 16.4771 11.5109 16.2844C11.5561 16.1894 11.6115 16.0981 11.683 16.0176C11.7538 15.9371 11.844 15.871 11.9412 15.8256C12.1378 15.7339 12.3555 15.7218 12.5599 15.7405C12.7664 15.7582 12.9656 15.8062 13.1617 15.8629C13.3579 15.9195 13.5485 15.9918 13.735 16.0705C13.9231 16.1491 14.1027 16.2353 14.2806 16.3375C14.46 16.4397 14.6307 16.5554 14.7903 16.6836C14.8707 16.7468 14.9512 16.8101 15.0268 16.879C15.1038 16.9456 15.1809 17.0137 15.2529 17.0853C15.5468 17.3672 15.8154 17.6725 16.0617 17.9934C16.308 18.3143 16.5335 18.6507 16.7373 18.9987C16.9427 19.3481 17.1221 19.7058 17.2785 20.0866C17.4287 20.4749 17.5036 20.8816 17.5499 21.2808C17.597 21.6814 17.6188 22.0789 17.6628 22.4691C17.7585 23.2506 17.8997 24.0327 18.1548 24.7765C18.2189 24.962 18.2904 25.1454 18.3699 25.3244C18.4486 25.5033 18.5401 25.6805 18.6279 25.858C18.8063 26.2119 18.9923 26.5652 19.1537 26.9335C19.3164 27.2994 19.4481 27.6854 19.5127 28.0861L19.5258 28.1611L19.5336 28.2365L19.5492 28.3873C19.5531 28.4881 19.5585 28.5896 19.5564 28.6909C19.5496 28.7918 19.5513 28.8936 19.5361 28.9937L19.5007 29.2887C19.4692 29.6747 19.5736 30.0606 19.6458 30.4531C19.6813 30.6502 19.7073 30.8526 19.7032 31.0575C19.6976 31.2633 19.6558 31.4638 19.6029 31.6575C19.5507 31.8513 19.4898 32.0404 19.4449 32.2305C19.3992 32.4198 19.3782 32.614 19.3734 32.8106C19.3628 33.2024 19.4416 33.5905 19.5558 33.9673C19.6731 34.3439 19.823 34.7116 19.9839 35.0738C20.1441 35.4369 20.3218 35.7917 20.4866 36.1551C20.6514 36.5186 21.2754 35.4711 21.4108 35.8469C21.4782 36.0345 21.7336 35.6555 21.7906 35.8469C21.8477 36.0391 22.1124 35.5437 22.1504 35.7436L23.2345 35.4418L21.1718 35.7969C21.4016 35.3663 22.112 36.1007 22.2032 35.6193C22.2483 35.3783 21.3865 36.2446 21.4108 36C21.436 35.7561 21.7915 35.7921 21.8141 35.5446C21.836 35.2979 21.8671 35.0512 21.9196 34.8072C21.9714 34.5633 22.051 34.3255 22.1504 34.0967C22.249 33.8679 22.3666 33.6489 22.49 33.434C22.6124 33.2177 22.7487 33.0124 22.8581 32.7949C22.9698 32.5779 23.0625 32.3512 23.138 32.1182C23.2135 31.8853 23.2718 31.6462 23.3323 31.4069C23.451 30.9277 23.5954 30.4465 23.8358 30.0058L23.8836 29.9235C23.8987 29.8956 23.9154 29.8684 23.9354 29.8439L24.0496 29.6929C24.0896 29.6447 24.1346 29.6006 24.177 29.5537C24.1987 29.5314 24.2194 29.5068 24.2427 29.4859L24.3126 29.423C24.4966 29.2525 24.7034 29.1097 24.9167 28.9809C25.1291 28.8506 25.3522 28.7392 25.5801 28.6395C25.808 28.5399 26.039 28.4506 26.2798 28.3788L26.2419 28.4428C26.0737 27.7115 25.8787 26.9863 25.6615 26.2675C25.4429 25.5504 25.212 24.8327 24.9375 24.137C24.6558 23.4472 24.2923 22.7862 23.7947 22.249C23.2994 21.7109 22.6717 21.3154 21.9831 21.0733C21.6397 20.9536 21.2831 20.8671 20.9217 20.841C20.741 20.8234 20.5602 20.8316 20.3798 20.8452C20.2906 20.8595 20.2 20.8655 20.1123 20.8888L19.9804 20.9188L19.8509 20.9593C19.8071 20.9713 19.7651 20.9878 19.7234 21.0057L19.5978 21.0573L19.4777 21.1198L19.4172 21.1507L19.3611 21.1881L19.2488 21.2621C19.2131 21.2886 19.1799 21.3196 19.1459 21.3483C19.0738 21.403 19.0198 21.4759 18.9585 21.5411C18.9311 21.5769 18.9069 21.6146 18.8811 21.6518L18.8425 21.7075L18.811 21.7671C18.7908 21.8076 18.7683 21.8467 18.7497 21.8878L18.7018 22.015C18.6479 22.1876 18.6128 22.3677 18.6152 22.5508C18.6084 22.6419 18.6236 22.7327 18.6296 22.8234C18.6485 22.9131 18.6576 23.0044 18.6862 23.0917C18.7292 23.2699 18.8062 23.4368 18.8903 23.5986C18.9385 23.676 18.9811 23.7576 19.0379 23.8289C19.0652 23.8654 19.0904 23.9029 19.1199 23.9384L19.2101 24.045C19.2685 24.1169 19.3327 24.1846 19.3953 24.2523C19.4573 24.3217 19.5242 24.3861 19.5904 24.4513C20.1236 24.971 20.745 25.3906 21.3781 25.7865C21.6954 25.9843 22.0181 26.1749 22.3411 26.3684L23.3043 26.9527C23.9421 27.342 24.5898 27.7123 25.2768 27.972C25.6202 28.1008 25.9695 28.2093 26.328 28.2729C26.6804 28.3461 27.036 28.3384 27.3899 28.2747C27.7423 28.2118 28.0879 28.0939 28.4066 27.9266C28.7245 27.7594 29.0201 27.5423 29.245 27.271C29.356 27.1362 29.4482 26.9856 29.4987 26.8262C29.5516 26.6682 29.5535 26.4999 29.5194 26.3286C29.4869 26.1572 29.4211 25.9878 29.3442 25.8223C29.2673 25.6561 29.1785 25.4932 29.0874 25.3297C28.9066 25.0018 28.7099 24.6744 28.5789 24.3067C28.5158 24.1233 28.4652 23.9275 28.4709 23.7225C28.4723 23.6212 28.4857 23.5182 28.5229 23.417C28.5585 23.3167 28.6216 23.2171 28.7147 23.15C28.807 23.0822 28.9205 23.0491 29.0275 23.0478C29.1351 23.0449 29.2386 23.0659 29.3349 23.1005C29.5269 23.1711 29.7008 23.2897 29.8217 23.4644C29.8807 23.5515 29.9246 23.6589 29.9259 23.7744C29.9257 23.8907 29.8751 24.0029 29.8044 24.0841C29.7354 24.1675 29.633 24.2323 29.5281 24.2586C29.4226 24.2871 29.3175 24.283 29.2178 24.2715C29.0174 24.2465 28.8346 24.1758 28.6588 24.0984C28.4836 24.0195 28.3163 23.9263 28.1539 23.828C27.8297 23.6293 27.5234 23.4084 27.2283 23.1661C27.1965 23.1407 27.1187 23.0674 27.1449 23.0355C27.1579 23.0192 27.2261 23.0124 27.2458 23.0108L27.2802 23.0079C27.5064 22.989 27.7209 22.9813 27.9429 22.93C28.054 22.9048 28.1639 22.8751 28.2728 22.8424C28.3803 22.8106 28.4824 22.7686 28.5822 22.7184C28.7835 22.618 28.9698 22.4845 29.1782 22.3698C29.2829 22.3139 29.3919 22.2645 29.5074 22.229C29.6214 22.1936 29.7469 22.1679 29.8766 22.1844C29.9411 22.1928 30.0089 22.2129 30.0671 22.256C30.1261 22.2982 30.1683 22.3669 30.1832 22.4357C30.1995 22.5043 30.1946 22.5731 30.1829 22.6327C30.1735 22.6935 30.158 22.7534 30.1364 22.8122C30.1131 22.8704 30.0854 22.929 30.0426 22.9805C30.0029 23.0325 29.9454 23.0807 29.8679 23.0985C29.8494 23.1046 29.8289 23.1048 29.8083 23.1035C29.7984 23.1028 29.7877 23.1022 29.7777 23.1008L29.7488 23.091L29.7205 23.0797C29.7124 23.0743 29.7044 23.0688 29.6963 23.0627C29.6809 23.051 29.664 23.0395 29.6544 23.0244C29.6034 22.9685 29.5858 22.9038 29.5678 22.8422C29.5613 22.8108 29.558 22.7799 29.5531 22.7491C29.5506 22.7182 29.551 22.6877 29.55 22.6566C29.5494 22.5958 29.5524 22.5401 29.5536 22.4822L29.5612 22.1363L29.5763 21.4437C29.5775 21.3858 29.5802 21.3278 29.5756 21.2726C29.574 21.2165 29.5701 21.1605 29.5631 21.1049C29.5522 20.9924 29.5323 20.8816 29.5015 20.7754C29.4713 20.6691 29.4293 20.5662 29.3695 20.4776C29.3098 20.3898 29.2322 20.3157 29.14 20.2763C29.0479 20.2376 28.9427 20.2327 28.8484 20.2672C28.7539 20.2994 28.6723 20.3686 28.6294 20.455C28.585 20.5416 28.588 20.641 28.632 20.7324C28.6519 20.7787 28.6824 20.8172 28.7164 20.8516C28.7547 20.8819 28.7956 20.9089 28.844 20.9238C28.9402 20.9569 29.0505 20.9598 29.1589 20.9477C29.268 20.9356 29.3774 20.9089 29.4839 20.8749C29.6975 20.8039 29.9034 20.7045 30.0987 20.5878C30.2932 20.4705 30.4795 20.337 30.6428 20.1819C30.7236 20.1044 30.8002 20.0205 30.8578 19.929C30.8867 19.8832 30.9092 19.8349 30.9189 19.7877C30.9272 19.7414 30.9236 19.6892 30.9095 19.6387C30.8812 19.5361 30.8288 19.4355 30.7677 19.341C30.7067 19.2465 30.6375 19.1549 30.5656 19.0666C30.4209 18.8901 30.2626 18.7223 30.1022 18.557C29.9425 18.3901 29.7738 18.2346 29.6232 18.0502L29.4125 17.7735C29.3418 17.6813 29.2775 17.5847 29.2097 17.4908C28.944 17.1107 28.7018 16.7119 28.5019 16.292C28.45 16.1884 28.4038 16.0812 28.3584 15.9739C28.31 15.8677 28.2713 15.7584 28.2274 15.651C28.2069 15.5965 28.1827 15.5437 28.1615 15.4892C28.1402 15.4347 28.119 15.381 28.0956 15.3274C28.0479 15.2204 28.0061 15.1113 27.9636 15.0023C27.9196 14.8934 27.8815 14.7833 27.8478 14.6713C27.8135 14.56 27.7835 14.447 27.7589 14.3334C27.705 14.1067 27.6609 13.8792 27.6221 13.6505C27.5422 13.194 27.4884 12.7323 27.4072 12.2782C27.3841 12.1653 27.364 12.0522 27.3387 11.9402C27.3112 11.8284 27.2658 11.7219 27.2279 11.6133C27.1922 11.5045 27.1543 11.3959 27.115 11.2889C27.0748 11.1812 27.0399 11.0723 26.9947 10.9674C26.8285 10.5409 26.6217 10.13 26.374 9.74611C26.1264 9.36448 25.8414 8.9989 25.5074 8.69979C25.1602 8.39035 24.8168 8.08897 24.4557 7.80276C24.0962 7.51718 23.7257 7.24545 23.3378 7.0033C22.9495 6.76347 22.5447 6.54631 22.1161 6.40643C21.9022 6.33684 21.683 6.28594 21.463 6.27085C21.243 6.25501 21.0222 6.27649 20.8194 6.34819C20.7695 6.36909 20.7203 6.38992 20.6713 6.41227C20.6257 6.43965 20.5761 6.46357 20.533 6.49378C20.4917 6.52614 20.4462 6.55427 20.4099 6.59304C20.391 6.61136 20.3712 6.62898 20.3523 6.64806L20.3004 6.70942C20.1616 6.87464 20.0639 7.07825 19.9819 7.2874C19.8164 7.70657 19.7235 8.16759 19.534 8.60017C19.3564 9.02872 19.1662 9.45148 18.9711 9.87084L18.6764 10.4985L18.5287 10.812C18.4797 10.9173 18.4269 11.0206 18.389 11.1218C18.3106 11.3291 18.2616 11.5515 18.2368 11.7734C18.2151 11.995 18.218 12.2213 18.2714 12.4329C18.3239 12.6429 18.4277 12.8404 18.5963 12.967C18.6798 13.0307 18.7742 13.0791 18.8765 13.1124C18.9799 13.141 19.0866 13.1641 19.197 13.167C19.3062 13.1746 19.4181 13.1676 19.5288 13.1568C19.6394 13.1438 19.7502 13.1246 19.8655 13.1051C20.0938 13.0647 20.3233 13.0304 20.5541 13.0027C21.0151 12.9475 21.4811 12.9162 21.9458 12.9245C22.4111 12.9298 22.8739 12.9702 23.3332 13.0125C23.5628 13.0336 23.7923 13.054 24.0216 13.0713C24.25 13.0865 24.4771 13.0964 24.7036 13.0798C24.9294 13.0647 25.1545 13.0314 25.3703 12.9693C25.4786 12.939 25.5831 12.8991 25.684 12.8518C25.7344 12.8279 25.7831 12.8017 25.8293 12.7728C25.8756 12.7453 25.9221 12.7103 25.9559 12.6793L25.977 12.7863C25.5746 12.6153 25.1351 12.5357 24.695 12.504C24.2542 12.4731 23.8089 12.4883 23.368 12.538C23.1473 12.561 22.9278 12.5961 22.7093 12.6356C22.6001 12.6562 22.4918 12.6781 22.3846 12.7038C22.3325 12.7165 22.2752 12.7304 22.2309 12.7456C22.1868 12.7637 22.1434 12.7894 22.1074 12.822C22.0338 12.8867 21.9904 12.9763 22.0011 13.0682C22.0089 13.1611 22.065 13.2515 22.1338 13.3294C22.2745 13.4864 22.4644 13.6044 22.6556 13.7109C22.8489 13.8157 23.0528 13.9021 23.259 13.989C23.4645 14.0753 23.6711 14.1577 23.8802 14.2338C24.297 14.3868 24.7248 14.5161 25.1572 14.6009C25.2651 14.62 25.3743 14.636 25.481 14.64C25.5343 14.6417 25.5874 14.641 25.6369 14.6338C25.6865 14.6274 25.7338 14.6121 25.7585 14.5895C25.7818 14.5678 25.7865 14.543 25.7755 14.4922C25.7642 14.4399 25.7524 14.3884 25.7339 14.3398C25.6991 14.2416 25.644 14.1549 25.5657 14.0991C25.4873 14.0433 25.3867 14.0205 25.2832 14.0185C25.1797 14.0157 25.0712 14.0347 24.9634 14.0543C24.7489 14.0958 24.538 14.1621 24.332 14.2417C24.1268 14.3219 23.9209 14.4121 23.7256 14.5106C23.5283 14.6122 23.3272 14.715 23.1398 14.8257C23.129 14.8327 23.1174 14.8397 23.1088 14.8458C23.1059 14.8475 23.1038 14.85 23.1038 14.85L23.1017 14.8517C23.1017 14.8517 23.1052 14.8483 23.1066 14.8467C23.0995 14.8617 23.1341 14.8117 23.1099 14.7772L23.1125 14.7808L23.1177 14.7887C23.1301 14.8098 23.1454 14.829 23.1614 14.8482C23.1935 14.8866 23.232 14.9206 23.2741 14.9521C23.3576 15.0151 23.4524 15.0673 23.551 15.1115C23.7483 15.2007 23.9614 15.2605 24.1763 15.3057C24.607 15.3967 25.0496 15.4495 25.4899 15.4469C25.5999 15.4454 25.7096 15.4408 25.8172 15.4287C25.9232 15.4161 26.035 15.3991 26.1182 15.3587C26.1379 15.3487 26.1528 15.3361 26.1568 15.3296C26.1594 15.3249 26.1604 15.3278 26.1538 15.3124C26.151 15.3058 26.1435 15.298 26.1375 15.2902L26.112 15.2665C26.0955 15.2503 26.0738 15.2369 26.0537 15.2234C25.9675 15.1728 25.8632 15.1427 25.7582 15.1226C25.5453 15.0834 25.3226 15.0814 25.1025 15.0914C24.8815 15.1015 24.6602 15.1253 24.4403 15.1559C24.33 15.1719 24.2205 15.1894 24.1113 15.2092L24.0299 15.2251C24.0052 15.2295 23.9771 15.2394 23.9511 15.2462L23.7917 15.2922C23.5817 15.3614 23.3753 15.4448 23.1814 15.5508C22.9874 15.6567 22.8061 15.7859 22.6529 15.9432C22.4997 16.1005 22.3707 16.2839 22.2946 16.4911C22.1335 16.8992 22.1573 17.3756 22.3209 17.7703L22.3228 17.7747C22.3353 17.8056 22.3207 17.8403 22.2906 17.8527C22.2605 17.8651 22.2251 17.8506 22.2127 17.8204L22.2116 17.8167L22.2111 17.819Z" stroke="#CBE2D1" stroke-width="0.4" mask="url(#path-4-outside-1_8362_25509)"/>
<path d="M11.6105 10.3941C11.7462 7.00843 14.999 2.53709 18.8337 5.07651C20.1925 5.97631 17.3056 8.13303 16.0436 10.6703C14.7816 13.2076 15.2272 14.2307 13.9476 14.2739C12.668 14.3171 11.5201 12.6495 11.6105 10.3941Z" fill="#4EA692"/>
<circle cx="19" cy="18.8184" r="17" stroke="#CBE2D1" stroke-width="2"/>
</g>
</svg>
