<svg width="67" height="61" viewBox="0 0 67 61" fill="none" xmlns="http://www.w3.org/2000/svg">
<path d="M6.32298 27.2683L1.51728 30.2209C0.852298 30.6295 0.890792 31.6084 1.58581 31.9635L6.39151 34.4188C7.05688 34.7587 7.84647 34.2754 7.84647 33.5282L7.84647 28.1203C7.84647 27.3383 6.98927 26.8589 6.32298 27.2683Z" fill="#6D597A"/>
<path fill-rule="evenodd" clip-rule="evenodd" d="M6.33203 30.0117C6.33203 13.4367 19.7687 0 36.3437 0C52.9188 0 66.3555 13.4367 66.3555 30.0117C66.3555 46.5867 52.9188 60.0234 36.3437 60.0234C19.7687 60.0234 6.33203 46.5867 6.33203 30.0117Z" fill="#6D597A"/>
<rect x="6.33203" width="60.0234" height="59" rx="29.5" fill="#6D597A"/>
<path d="M36.2915 40.8589C42.2887 40.8589 47.1504 35.9972 47.1504 30C47.1504 24.0028 42.2887 19.1411 36.2915 19.1411C30.2943 19.1411 25.4326 24.0028 25.4326 30C25.4326 35.9972 30.2943 40.8589 36.2915 40.8589Z" stroke="#FF9D48" stroke-width="2" stroke-linecap="round" stroke-linejoin="round"/>
<path d="M31.9478 32.1716C31.9478 32.1716 33.5766 34.3434 36.2913 34.3434C39.006 34.3434 40.6349 32.1716 40.6349 32.1716" stroke="#FF9D48" stroke-width="2" stroke-linecap="round" stroke-linejoin="round"/>
<path d="M33.0337 26.7422H33.045" stroke="#FF9D48" stroke-width="2" stroke-linecap="round" stroke-linejoin="round"/>
<path d="M39.5493 26.7422H39.5606" stroke="#FF9D48" stroke-width="2" stroke-linecap="round" stroke-linejoin="round"/>
<circle cx="36.3576" cy="30.0124" r="25.3615" fill="#043A4E"/>
<path fill-rule="evenodd" clip-rule="evenodd" d="M47.8113 20.4673C48.8656 20.4673 49.7202 21.3219 49.7202 22.3762L49.7202 28.103C49.7202 29.1573 48.8656 30.012 47.8113 30.012C46.757 30.012 45.9023 29.1573 45.9023 28.103L45.9023 22.3762C45.9023 21.3219 46.757 20.4673 47.8113 20.4673Z" fill="#CBE2D1"/>
<path fill-rule="evenodd" clip-rule="evenodd" d="M24.905 20.4673C25.9593 20.4673 26.814 21.3219 26.814 22.3762L26.814 28.103C26.814 29.1573 25.9593 30.012 24.905 30.012C23.8508 30.012 22.9961 29.1573 22.9961 28.103L22.9961 22.3762C22.9961 21.3219 23.8508 20.4673 24.905 20.4673Z" fill="#CBE2D1"/>
<path fill-rule="evenodd" clip-rule="evenodd" d="M22.9941 42.5647C22.9941 41.5104 23.8488 40.6558 24.9031 40.6558L47.8103 40.6558C48.8646 40.6558 49.7192 41.5104 49.7192 42.5647C49.7192 43.619 48.8646 44.4736 47.8103 44.4736L24.9031 44.4736C23.8488 44.4736 22.9941 43.619 22.9941 42.5647Z" fill="#CBE2D1"/>
</svg>
