<svg width="52" height="52" viewBox="0 0 52 52" fill="none" xmlns="http://www.w3.org/2000/svg">
<path d="M25.9517 36.8584C31.9489 36.8584 36.8106 31.9967 36.8106 25.9995C36.8106 20.0023 31.9489 15.1406 25.9517 15.1406C19.9545 15.1406 15.0928 20.0023 15.0928 25.9995C15.0928 31.9967 19.9545 36.8584 25.9517 36.8584Z" stroke="#FF9D48" stroke-width="2" stroke-linecap="round" stroke-linejoin="round"/>
<path d="M21.6084 28.1719C21.6084 28.1719 23.2372 30.3437 25.952 30.3437C28.6667 30.3437 30.2955 28.1719 30.2955 28.1719" stroke="#FF9D48" stroke-width="2" stroke-linecap="round" stroke-linejoin="round"/>
<path d="M22.6943 22.7422H22.7056" stroke="#FF9D48" stroke-width="2" stroke-linecap="round" stroke-linejoin="round"/>
<path d="M29.209 22.7422H29.2203" stroke="#FF9D48" stroke-width="2" stroke-linecap="round" stroke-linejoin="round"/>
<circle cx="26.0178" cy="26.0119" r="25.3615" fill="#043A4E"/>
<path fill-rule="evenodd" clip-rule="evenodd" d="M37.4714 16.4668C38.5257 16.4668 39.3804 17.3215 39.3804 18.3757L39.3804 24.1025C39.3804 25.1568 38.5257 26.0115 37.4714 26.0115C36.4172 26.0115 35.5625 25.1568 35.5625 24.1025L35.5625 18.3757C35.5625 17.3215 36.4172 16.4668 37.4714 16.4668Z" fill="#CBE2D1"/>
<path fill-rule="evenodd" clip-rule="evenodd" d="M14.5652 16.4668C15.6195 16.4668 16.4741 17.3215 16.4741 18.3757L16.4741 24.1025C16.4741 25.1568 15.6195 26.0115 14.5652 26.0115C13.5109 26.0115 12.6563 25.1568 12.6563 24.1025L12.6563 18.3757C12.6563 17.3215 13.5109 16.4668 14.5652 16.4668Z" fill="#CBE2D1"/>
<path fill-rule="evenodd" clip-rule="evenodd" d="M12.6543 38.5652C12.6543 37.5109 13.509 36.6562 14.5632 36.6563L37.4705 36.6563C38.5247 36.6563 39.3794 37.5109 39.3794 38.5652C39.3794 39.6195 38.5247 40.4741 37.4705 40.4741L14.5632 40.4741C13.509 40.4741 12.6543 39.6195 12.6543 38.5652Z" fill="#CBE2D1"/>
</svg>
