<svg width="18" height="19" viewBox="0 0 18 19" fill="none" xmlns="http://www.w3.org/2000/svg">
<path d="M14.0263 14.4872C14.9919 13.3205 15.5193 11.853 15.5171 10.3385C15.5171 6.73915 12.5993 3.82129 8.99991 3.82129C5.40053 3.82129 2.48267 6.73915 2.48267 10.3385C2.48267 11.9145 3.04253 13.36 3.97356 14.4872L2.66453 15.7963C2.6069 15.8539 2.56119 15.9223 2.53 15.9976C2.49881 16.0729 2.48276 16.1536 2.48276 16.2351C2.48276 16.3166 2.49881 16.3973 2.53 16.4726C2.56119 16.5479 2.6069 16.6163 2.66453 16.6739C2.72216 16.7315 2.79057 16.7773 2.86586 16.8084C2.94116 16.8396 3.02186 16.8557 3.10336 16.8557C3.18485 16.8557 3.26555 16.8396 3.34085 16.8084C3.41614 16.7773 3.48456 16.7315 3.54218 16.6739L4.85122 15.3649C5.97839 16.2959 7.42336 16.8558 8.99991 16.8558C10.5765 16.8558 12.0214 16.2959 13.1486 15.3649L14.4576 16.6739C14.5151 16.7317 14.5835 16.7776 14.6588 16.809C14.7341 16.8403 14.8149 16.8564 14.8965 16.8564C14.978 16.8564 15.0588 16.8403 15.1341 16.809C15.2094 16.7776 15.2778 16.7317 15.3353 16.6739C15.393 16.6163 15.4387 16.5479 15.47 16.4726C15.5012 16.3973 15.5173 16.3166 15.5173 16.2351C15.5173 16.1536 15.5012 16.0728 15.47 15.9976C15.4387 15.9223 15.393 15.8538 15.3353 15.7963L14.0263 14.4872ZM8.99991 16.2351C5.74315 16.2351 3.10336 13.5953 3.10336 10.3385C3.10336 7.08177 5.74315 4.44198 8.99991 4.44198C12.2567 4.44198 14.8965 7.08177 14.8965 10.3385C14.8965 13.5953 12.2567 16.2351 8.99991 16.2351Z" fill="#043A4E"/>
<path d="M8.99991 16.8558C5.40611 16.8558 2.48267 13.9323 2.48267 10.3385C2.48267 6.74474 5.40611 3.82129 8.99991 3.82129C12.5937 3.82129 15.5171 6.74474 15.5171 10.3385C15.5171 13.9323 12.5937 16.8558 8.99991 16.8558ZM8.99991 5.06267C6.09074 5.06267 3.72405 7.42936 3.72405 10.3385C3.72405 13.2477 6.09074 15.6144 8.99991 15.6144C11.9091 15.6144 14.2758 13.2477 14.2758 10.3385C14.2758 7.42936 11.9091 5.06267 8.99991 5.06267Z" fill="#043A4E"/>
<path d="M1.66647 7.82685C1.81429 7.39186 2.00083 6.971 2.22385 6.56933C1.98781 6.2151 1.8619 5.79893 1.86198 5.37327C1.86198 4.17533 2.83647 3.20085 4.0344 3.20085C4.47633 3.20085 4.88723 3.33492 5.23047 3.56271C5.63213 3.3397 6.05299 3.15316 6.48798 3.00533C6.17058 2.67469 5.78961 2.4116 5.36798 2.23188C4.94635 2.05215 4.49274 1.9595 4.0344 1.95947C3.12936 1.96062 2.26171 2.32066 1.62175 2.96062C0.981791 3.60058 0.621755 4.46822 0.620605 5.37327C0.620628 5.83161 0.713285 6.28521 0.89301 6.70685C1.07273 7.12848 1.33582 7.50944 1.66647 7.82685Z" fill="#043A4E"/>
<path d="M9.62058 10.9594H6.20679V9.71799H8.3792V6.3042H9.62058V10.9594Z" fill="#043A4E"/>
<path d="M12.7695 3.56271C13.1237 3.32668 13.5399 3.20077 13.9655 3.20085C15.1635 3.20085 16.138 4.17533 16.138 5.37327C16.138 5.8152 16.0039 6.22609 15.7761 6.56933C15.9989 6.96782 16.1833 7.38927 16.3335 7.82685C16.6641 7.50944 16.9272 7.12848 17.1069 6.70685C17.2867 6.28521 17.3793 5.83161 17.3793 5.37327C17.3793 3.49133 15.8475 1.95947 13.9655 1.95947C13.5072 1.9595 13.0536 2.05215 12.632 2.23188C12.2103 2.4116 11.8294 2.67469 11.512 3.00533C11.9495 3.15616 12.371 3.34051 12.7695 3.56271Z" fill="#043A4E"/>
</svg>
