<svg width="27" height="26" viewBox="0 0 27 26" fill="none" xmlns="http://www.w3.org/2000/svg">
<g clip-path="url(#clip0_2611_18757)">
<path d="M7.70906 25.5133C7.19644 25.1723 6.74212 24.7509 6.36356 24.2653C5.94714 23.7641 5.56132 23.2383 5.20818 22.6907C4.3795 21.4767 3.72962 20.1498 3.2785 18.7509C2.73656 17.1259 2.47412 15.5683 2.47412 14.0449C2.47412 12.3435 2.84218 10.8583 3.56206 9.61025C4.09569 8.6348 4.88027 7.81965 5.83462 7.24913C6.7595 6.67467 7.82219 6.36029 8.91075 6.33913C9.29181 6.33913 9.70212 6.39438 10.1376 6.5C10.4504 6.58857 10.8315 6.72832 11.2971 6.90219C11.8894 7.1305 12.2152 7.27025 12.3257 7.30438C12.6726 7.43113 12.9643 7.48638 13.1934 7.48638C13.3673 7.48638 13.6127 7.43113 13.8914 7.34663C14.0482 7.29138 14.3439 7.19388 14.7672 7.01269C15.1865 6.85994 15.5164 6.72913 15.7788 6.63163C16.181 6.513 16.5702 6.40332 16.9171 6.34807C17.3284 6.28322 17.7458 6.26605 18.1611 6.29688C18.8806 6.34391 19.5894 6.49639 20.2646 6.74944C21.3688 7.19388 22.2617 7.88775 22.9264 8.87413C22.6455 9.04727 22.3818 9.24698 22.1391 9.4705C21.6106 9.93897 21.1605 10.4889 20.8057 11.0996C20.3421 11.9341 20.1017 12.8741 20.1078 13.8288C20.1249 15.0012 20.4255 16.0339 21.0178 16.9268C21.4533 17.5886 22.0192 18.1545 22.681 18.59C23.0198 18.8183 23.3115 18.9751 23.591 19.0808C23.4602 19.487 23.3204 19.8803 23.1555 20.2703C22.7814 21.1448 22.328 21.9833 21.8011 22.7752C21.3314 23.4569 20.9634 23.9647 20.6839 24.3027C20.2484 24.8186 19.8291 25.2127 19.4058 25.4873C18.9402 25.7961 18.3902 25.961 17.8312 25.961C17.4526 25.9755 17.0741 25.9297 16.7099 25.8253C16.3971 25.7197 16.0876 25.6051 15.7829 25.4743C15.4661 25.3288 15.1395 25.2058 14.8054 25.1063C13.9797 24.8942 13.1139 24.8928 12.2875 25.1022C11.9487 25.1997 11.6229 25.3134 11.3011 25.4532C10.8486 25.6433 10.5479 25.7709 10.3741 25.8253C10.0271 25.9269 9.66718 25.9903 9.30318 26.0114C8.74012 26.0114 8.21524 25.8505 7.69525 25.5247L7.70906 25.5133ZM15.1353 5.51363C14.3992 5.88169 13.6964 6.0385 12.9984 5.98732C12.8887 5.2845 12.9984 4.56544 13.2901 3.77813C13.5384 3.11112 13.9054 2.49453 14.3732 1.95813C14.8672 1.39346 15.4666 0.930622 16.1379 0.595566C16.8529 0.227504 17.5346 0.0284413 18.1862 -0.000808716C18.2707 0.735316 18.1862 1.45925 17.9157 2.24169C17.6653 2.93336 17.299 3.57738 16.8326 4.14619C16.3565 4.71163 15.7723 5.17627 15.1142 5.51282L15.1353 5.51363Z" fill="black"/>
</g>
<defs>
<clipPath id="clip0_2611_18757">
<rect width="26" height="26" fill="white" transform="translate(0.0405273)"/>
</clipPath>
</defs>
</svg>
