<svg width="18" height="18" viewBox="0 0 18 18" fill="none" xmlns="http://www.w3.org/2000/svg">
<path d="M9 1.5C4.8675 1.5 1.5 4.8675 1.5 9C1.5 13.1325 4.8675 16.5 9 16.5C13.1325 16.5 16.5 13.1325 16.5 9C16.5 4.8675 13.1325 1.5 9 1.5ZM11.0925 9.3975L8.445 12.045C8.3325 12.1575 8.19 12.21 8.0475 12.21C7.905 12.21 7.7625 12.1575 7.65 12.045C7.4325 11.8275 7.4325 11.4675 7.65 11.25L9.9 9L7.65 6.75C7.4325 6.5325 7.4325 6.1725 7.65 5.955C7.8675 5.7375 8.2275 5.7375 8.445 5.955L11.0925 8.6025C11.3175 8.82 11.3175 9.18 11.0925 9.3975Z" fill="#CBE2D1"/>
</svg>
