<svg width="20" height="21" viewBox="0 0 20 21" fill="none" xmlns="http://www.w3.org/2000/svg">
<path fill-rule="evenodd" clip-rule="evenodd" d="M10.0007 1.93554C5.31774 1.93555 1.52149 5.7318 1.52149 10.4147C1.52149 15.0976 5.31774 18.8939 10.0007 18.8939C14.6836 18.8939 18.4798 15.0976 18.4798 10.4147C18.4798 5.73179 14.6836 1.93554 10.0007 1.93554ZM0.146486 10.4147C0.146485 4.97241 4.55834 0.560546 10.0007 0.560545C15.443 0.560544 19.8548 4.9724 19.8548 10.4147C19.8548 15.857 15.443 20.2689 10.0007 20.2689C4.55835 20.2689 0.146487 15.857 0.146486 10.4147Z" fill="#CBE2D1"/>
<path fill-rule="evenodd" clip-rule="evenodd" d="M6.2788 8.77432C6.5469 8.50545 6.98221 8.50484 7.25107 8.77294L10.0015 11.5155L12.7518 8.77294C13.0207 8.50484 13.456 8.50545 13.7241 8.77432C13.9922 9.04318 13.9916 9.47848 13.7227 9.74659L10.4869 12.9733C10.2186 13.2408 9.78434 13.2408 9.51601 12.9733L6.28018 9.74659C6.01131 9.47849 6.0107 9.04319 6.2788 8.77432Z" fill="#CBE2D1"/>
</svg>
