<svg width="11" height="19" viewBox="0 0 11 19" fill="none" xmlns="http://www.w3.org/2000/svg">
<path d="M9.90017 1.01697C9.79373 0.905414 9.66728 0.816905 9.52808 0.756515C9.38887 0.696124 9.23963 0.665039 9.08891 0.665039C8.9382 0.665039 8.78896 0.696124 8.64975 0.756515C8.51055 0.816905 8.3841 0.905414 8.27767 1.01697L0.660164 8.98072C0.575185 9.06938 0.507767 9.17469 0.461767 9.29062C0.415768 9.40656 0.39209 9.53083 0.39209 9.65635C0.39209 9.78186 0.415768 9.90614 0.461767 10.0221C0.507767 10.138 0.575185 10.2433 0.660164 10.332L8.27767 18.2957C8.72683 18.7653 9.451 18.7653 9.90017 18.2957C10.3493 17.8261 10.3493 17.0691 9.90017 16.5995L3.2635 9.65155L9.90933 2.70364C10.3493 2.24364 10.3493 1.47697 9.90017 1.01697Z" fill="#A0A0A0" stroke="#A0A0A0" stroke-width="0.2"/>
</svg>
