<svg width="213" height="225" viewBox="0 0 213 225" fill="none" xmlns="http://www.w3.org/2000/svg">
<path d="M52.099 41.8211C41.8738 38.5242 30.982 44.6599 23.1677 52.0336C16.6596 58.1754 10.7969 66.5258 12.2235 75.3603C13.0951 80.7592 16.6209 85.564 16.8712 91.027C17.4776 104.253 -0.705036 113.2 1.03546 126.325C1.81147 132.176 6.52888 136.729 11.5354 139.854C20.3395 145.348 32.151 147.757 40.9679 142.283C48.8827 137.368 52.2957 127.614 59.0057 121.15C63.6695 116.658 69.9472 113.877 76.4084 113.441C82.1699 113.053 88.3177 114.397 93.4994 111.849C98.1179 109.578 100.841 104.71 102.73 99.9223C106.252 90.9971 107.363 79.5891 100.483 72.9013C95.1415 67.7091 85.9272 66.3926 83.0509 59.5207C81.899 56.7693 82.0627 53.6199 81.0092 50.8293C79.5334 46.9199 75.8065 44.2067 71.833 42.9139C67.8596 41.6211 63.6081 41.542 52.099 41.8211Z" fill="#4EA692"/>
<path d="M149.86 76.79C149.787 76.738 149.82 76.7544 149.86 76.79V76.79Z" fill="#043A4E"/>
<path d="M73.2165 39.5998C73.2023 39.5812 73.1875 39.5631 73.1738 39.5439C73.2006 39.585 73.2143 39.5998 73.2165 39.5998Z" fill="#043A4E"/>
<path d="M212.176 78.1681C211.861 77.8741 211.419 77.8122 211.016 77.7132C210.173 77.5231 209.308 77.4943 208.449 77.464C207.686 77.4789 206.925 77.5413 206.167 77.6392C206.062 77.4711 205.961 77.3026 205.866 77.139C204.826 75.4593 204.385 73.8791 203.814 71.8799C203.038 69.3545 202.744 67.1713 202.539 64.7073C202.282 61.7354 202.229 58.7474 201.91 55.781C201.794 54.7165 201.566 53.668 201.302 52.6311C201.079 51.7197 200.81 50.8188 200.42 49.9637C199.746 48.4338 198.905 46.889 197.534 45.8769C197 45.4248 196.398 45.06 195.709 44.902C193.698 44.5543 191.633 44.8323 189.615 45.0025C187.351 45.2043 185.08 45.327 182.815 45.5193C182.117 45.6067 181.42 45.6945 180.734 45.7819C180.738 45.7708 180.741 45.7592 180.746 45.7482C177.542 46.0593 174.361 46.5794 171.171 47.005C169.053 47.3179 167.466 47.5931 165.446 47.7589C165.01 47.7927 164.573 47.8291 164.135 47.8385C163.575 47.8468 163.015 47.8004 162.459 47.7274C162.3 47.7037 162.142 47.6683 161.988 47.6202C161.874 47.592 161.764 47.5522 161.656 47.5069C161.593 47.4654 161.53 47.4245 161.467 47.3831C160.781 46.4794 161.467 45.4469 162.245 44.5222C162.986 43.7545 163.524 43.4445 164.348 42.8166C165.704 41.8228 167.194 41.0402 168.69 40.2796C170.174 39.5147 171.555 38.8575 172.933 38.3357C175.598 37.2651 178.363 36.4753 181.134 35.7336C182.799 35.2516 184.521 34.9747 186.182 34.4855C186.711 34.3252 187.138 33.8621 187.18 33.2983C187.228 32.7472 187.073 32.1956 186.904 31.6755C186.643 30.9122 186.355 30.1572 186.007 29.4293C185.131 27.686 184.117 25.9986 182.87 24.4941C181.771 23.1997 180.471 22.0826 179.144 21.027C178.161 20.2902 177.082 19.696 175.962 19.1947C174.47 18.5154 172.734 18.0252 171.123 18.5663C169.226 19.2036 167.725 20.6467 166.578 22.2446C163.917 25.9505 165.964 25.6128 166.252 25.5885C166.727 25.5482 167.179 25.3851 167.632 25.248C168.987 24.786 170.119 24.3217 170.94 23.9729C171.082 23.9132 172.248 23.4926 171.754 23.0808C171.099 22.5337 165.012 26.1572 166.235 24.2449C167.718 21.9262 169.37 19.8281 171.867 19.2356C171.829 19.2406 171.792 19.2456 171.755 19.2505C172.099 19.1831 172.449 19.1765 172.797 19.182C172.926 19.1814 173.054 19.1892 173.183 19.2025C173.438 19.2417 173.691 19.2909 173.942 19.3528C175.378 19.7491 176.415 20.2758 177.808 21.1187C179.205 21.9981 180.596 23.2837 181.927 24.6583C182.876 25.7007 183.673 26.9239 184.496 28.3371C185.459 29.9024 186.628 32.7843 186.337 33.4243C186.163 33.7515 185.465 33.8582 184.715 34.0389C183.665 34.2744 182.617 34.5198 181.574 34.7862C178.202 35.6783 174.846 36.6593 171.631 38.0229C169.657 38.8641 167.76 39.875 165.878 40.9025C165.065 41.3812 164.284 41.914 163.528 42.4789C162.799 43.0211 162.04 43.5506 161.463 44.2614C161.036 44.7903 160.682 45.3856 160.482 46.0378C160.33 46.7104 160.48 47.4881 160.987 47.9767C161.469 48.3625 162.114 48.4493 162.709 48.5239C163.374 48.6018 164.045 48.6261 164.713 48.577C166.814 48.4531 168.891 48.1116 170.97 47.802C172.379 47.6003 173.888 47.3886 175.327 47.1907C175.367 47.1985 175.41 47.2024 175.459 47.199C177.899 47.0913 180.32 46.7187 182.746 46.454C185.016 46.2859 187.288 46.1533 189.555 45.9565C191.034 45.8211 192.515 45.6608 194.003 45.7001C194.76 45.7487 195.078 45.6741 195.609 45.8476C196.18 45.9648 196.5 46.255 197.122 46.7193C197.494 46.9575 198.162 47.7341 198.598 48.4006C198.99 48.9937 199.289 49.6404 199.598 50.2788C200.268 51.7274 200.792 53.8725 201.059 55.7899C201.32 58.1278 201.458 61.7713 201.687 64.5492C201.826 65.9957 201.965 67.4466 202.222 68.8776C202.449 70.109 202.794 71.3145 203.145 72.5161C203.637 74.3522 204.293 76.1507 205.307 77.763C204.279 77.9321 203.26 78.162 202.257 78.4284C200.833 78.8231 199.481 79.4277 198.119 79.9932C195.916 80.9764 193.419 81.9337 190.738 82.4279C189.845 82.5771 189.225 82.718 188.521 82.744C187.696 82.8009 186.868 82.728 186.043 82.6987C185.862 82.6976 185.746 82.8015 185.697 82.9331C179.607 82.927 173.517 82.5721 167.466 81.9022C163.486 81.4767 158.704 80.9643 155.214 79.3692C148.84 76.4541 151.123 74.2892 147.522 77.339C146.919 77.8193 145.985 78.5556 145.264 78.738C144.571 78.9695 143.6 79.0364 142.551 78.98C142.362 78.6346 142.169 78.2914 141.97 77.952C142.149 78.0537 142.344 78.1095 142.558 78.0454C143.256 77.7431 143.581 76.9621 144.055 76.4072C144.834 75.3493 145.625 74.2997 146.364 73.2136C147.232 71.9385 147.922 70.5523 148.452 69.1053C149.062 67.5997 149.41 65.9343 149.049 64.3232C148.771 62.806 148.147 61.349 147.243 60.0994C146.752 59.4665 146.196 58.8873 145.625 58.3263C144.296 57.1346 142.746 56.2265 141.224 55.3062C138.741 53.7802 135.82 52.2862 134.253 50.2578C133.495 49.3795 133.303 48.2724 133.338 47.5262C133.509 46.7143 133.709 46.4335 134 46.0273C134.14 45.8604 134.302 45.7172 134.486 45.5989C134.465 45.615 134.444 45.6315 134.423 45.6476C134.652 45.4978 134.894 45.3773 135.152 45.2861C135.127 45.2966 135.102 45.3071 135.077 45.3176C138.179 43.9513 143.09 47.9408 145.46 50.4164C146.814 51.8031 148.091 53.3938 149.105 54.7519C149.469 55.2244 149.831 55.6987 150.211 56.158C150.521 56.5172 150.802 56.9439 151.26 57.1241C151.429 57.2158 151.618 57.2324 151.804 57.259C151.942 57.296 152.077 57.2275 152.212 57.2026C152.268 57.1866 152.317 57.1584 152.359 57.1169C152.85 56.5863 153.088 55.8761 153.372 55.2228C153.938 53.7094 154.459 52.1596 154.685 50.5557C155.041 47.7628 154.449 46.1837 152.453 44.1646C150.589 42.192 148.364 40.6162 146.169 39.0382C143.841 37.2878 141.397 35.8966 140.098 33.4569C140.026 33.2917 139.964 33.1236 139.916 32.9506C139.87 32.7815 139.837 32.6096 139.814 32.4366C139.796 32.2703 139.802 32.105 139.832 31.9408C139.828 31.9723 139.824 32.0033 139.82 32.0348C139.828 32 139.853 31.9243 139.868 31.8767C139.908 31.8226 139.947 31.7684 139.987 31.7137C140.046 31.6656 140.105 31.618 140.163 31.57C140.251 31.5175 140.338 31.465 140.425 31.4124L140.685 31.3141L140.591 31.3268C140.776 31.2881 140.962 31.2748 141.149 31.2875C141.508 31.3301 141.508 31.2638 141.831 31.3715C142.449 31.5235 143.295 32.0365 144.061 32.4792C144.698 32.8589 145.825 33.7454 146.138 33.9743C148.409 35.8148 150.431 37.9549 152.225 40.2597C152.541 40.6604 153.396 41.8996 153.886 42.6021C154.394 43.3129 154.895 44.0773 155.652 44.5466C155.956 44.7251 156.278 44.9075 156.631 44.9545C157.142 45.007 157.678 44.8251 158.044 44.462C158.312 44.2398 158.451 43.9082 158.632 43.6191C158.965 43.031 159.243 42.4142 159.518 41.7979C160.263 40.163 160.902 38.4949 161.684 36.656C162.402 34.9205 163.096 33.1734 163.693 31.3925C164.143 30.1086 164.54 28.8009 164.743 27.4523C165.011 25.2585 165.27 23.02 164.987 20.8164C164.593 18.4939 164.187 16.1222 163.168 13.9793C162.1 11.7701 161.001 9.53937 159.318 7.72371C158.029 6.2463 156.522 4.97783 154.872 3.92104C152.891 2.57353 150.7 1.49573 148.373 0.901015C146.292 0.413522 144.122 0.361015 141.996 0.504168C140.244 0.714751 138.517 1.16411 136.867 1.78425C135.808 2.21205 134.861 2.8648 133.923 3.50761C132.298 4.63293 130.844 5.98653 129.502 7.43353C128.475 8.52182 127.594 9.7389 126.566 10.825C126.188 11.1616 126.146 11.218 125.772 11.4252C125.692 11.4578 125.612 11.491 125.533 11.5236C125.478 11.522 125.423 11.5203 125.368 11.5186C125.317 11.4976 125.266 11.4761 125.214 11.4551C124.69 11.0544 124.427 10.6094 123.897 9.87708C122.875 8.43007 121.848 6.98418 120.7 5.63335C119.755 4.51355 118.728 3.42968 117.431 2.71723C116.32 2.08935 115.122 1.57698 113.855 1.3758C112.174 1.18622 110.45 1.30671 108.805 1.70632C107.035 2.20818 105.462 3.19975 103.95 4.22172C101.978 5.6958 100.239 7.46448 98.6492 9.33873C97.2757 11.0173 96.1387 12.8689 95.0853 14.7603C94.0246 16.6644 93.1569 18.6685 92.4417 20.7263C91.5827 23.135 90.867 25.5946 90.4513 28.121C90.1374 30.0014 89.8748 31.8911 89.777 33.7957C89.6847 35.7402 89.7322 37.6868 89.8345 39.6302C90.0224 42.9968 90.2977 46.3865 91.0825 49.6735C91.9072 53.0418 93.4758 56.1922 95.5009 58.9978C96.7893 60.7908 98.2711 62.3644 99.4158 64.0032C99.8082 64.5553 100.215 65.1058 100.492 65.7276C100.411 65.5187 100.565 65.9178 100.591 65.9697C100.737 66.3583 100.847 66.7612 100.916 67.1708C100.94 67.3311 100.956 67.4924 100.961 67.6544C100.962 67.7998 100.953 67.944 100.937 68.0883C100.61 70.1245 99.6418 71.766 98.1877 73.1799C97.017 74.3505 95.6684 75.3183 94.4043 76.3817C94.2811 76.4823 94.1528 76.5912 94.0224 76.7045C93.7427 75.3443 93.3133 74.0145 92.7031 72.7653C90.6193 68.405 86.2833 65.679 84.1388 61.6868C83.6823 60.8638 83.5496 60.316 83.3479 59.2758C83.0649 57.9266 83.0295 56.5808 82.9963 54.9812C82.967 52.1906 83.1423 49.4021 83.124 46.6115C83.1434 44.8373 83.0665 43.062 82.7703 41.3104C82.5835 40.1204 82.3524 38.9321 81.9252 37.8018C81.3111 36.1525 80.5605 34.5524 79.5645 33.0971C78.0401 30.7055 76.1162 28.5582 73.8185 26.8874C72.8579 26.2142 71.8962 25.5316 70.8587 24.9805C69.3217 24.2554 67.6618 23.6756 65.9462 23.6573C64.8248 23.6623 63.6995 23.8458 62.6399 24.2161C61.0719 24.7937 58.9516 25.9163 57.8026 26.4905C57.4527 26.6574 57.272 26.689 57.0437 26.6619C56.9901 26.632 56.937 26.6022 56.8834 26.5723C56.8392 26.5121 56.7811 26.4286 56.7425 26.3568C56.5667 25.9544 56.4556 25.5294 56.3323 25.1087C55.7868 23.0405 55.3153 20.9197 54.2961 19.0223C50.3929 11.7182 42.9329 7.47333 34.6599 7.67452C32.4507 7.70436 30.2421 8.03986 28.1401 8.72964C26.4565 9.24201 24.7918 9.84115 23.2497 10.6979C22.0111 11.3843 20.8548 12.204 19.7129 13.038C18.0802 14.2115 16.4994 15.4678 15.0723 16.8871C13.795 18.1733 12.7415 19.6551 11.6853 21.122C9.8967 23.6728 8.43035 26.4242 7.10771 29.2403C5.77623 32.0619 4.68351 34.9946 4.04513 38.0544C3.61567 40.1619 3.46478 42.3125 3.50071 44.4609C3.48357 46.2312 3.6212 48.0032 3.99704 49.7354C4.42042 51.6777 4.91565 53.6066 5.59604 55.4759C6.75674 58.9154 8.51436 61.5944 9.23013 65.1279C9.4186 66.0233 9.49709 66.9403 9.41971 68.0634C9.36775 68.5868 9.38434 68.5973 9.28319 69.0428C9.24947 69.2269 9.16049 69.4093 9.20194 69.5988C9.24395 69.7613 9.40036 69.8746 9.56673 69.8763C9.70104 69.8719 9.82596 69.8067 9.89339 69.6889C10.1399 69.1147 10.3461 68.5238 10.5765 67.9429C11.2365 66.292 11.7251 65.1191 12.4591 63.5511C13.9801 60.2574 15.6488 57.0252 17.7397 54.0527C18.6108 52.7936 19.3265 51.875 20.3861 50.6679C21.1919 49.7631 22.1172 48.9793 23.0413 48.1994C24.3303 47.1907 25.4854 46.2987 27.1303 45.9377C28.1174 45.7393 28.7813 45.5978 29.8038 45.9803C29.9165 46.0273 30.0282 46.0781 30.136 46.1356C30.257 46.1931 30.3714 46.2611 30.4803 46.339C30.5986 46.4286 30.7064 46.5291 30.8031 46.6419C31.5277 47.7805 31.4768 49.3038 31.2016 50.6015C30.1149 55.1719 25.7828 59.3261 22.1885 62.607C19.3299 65.1887 16.4093 67.703 13.4114 70.1223C10.5876 72.4879 7.47029 74.5639 5.09086 77.407C4.57297 78.0498 4.21315 78.8021 3.88539 79.5554C3.56869 80.2706 3.31334 81.0179 3.20832 81.7956C3.05301 82.838 3.21329 83.8926 3.34926 84.9289C3.56371 86.6235 4.42208 88.1357 5.2528 89.5977C6.23 91.2613 7.26578 92.8924 8.14847 94.6097C10.4986 99.0142 12.049 103.354 12.542 108.194C12.6028 108.673 12.6608 109.152 12.7166 109.631C12.7653 109.937 12.7509 110.263 12.888 110.546C12.9278 110.702 13.0814 110.799 13.2213 110.857C13.6673 110.938 13.8702 110.395 14.0282 110.07C14.8816 108.255 15.7124 106.427 16.6702 104.663C18.367 101.524 20.2181 98.4715 21.9917 95.3757C24.1175 91.6797 26.3399 88.0374 28.359 84.2806C29.838 81.538 31.1706 78.7169 32.3916 75.85C33.481 73.2595 34.4267 70.612 35.4077 67.9794C36.6696 64.4868 38.3327 60.3337 39.5791 57.2352C40.6165 54.7253 41.8358 52.2973 43.0849 49.8874C44.2058 47.7114 45.3765 45.5597 46.6925 43.4948C47.9726 41.4342 49.1205 39.8419 50.7057 38.1163C50.8091 38.0085 50.9191 37.9085 51.0346 37.814C51.0749 37.7874 51.1208 37.7609 51.1374 37.7487C51.1424 37.7471 51.1468 37.7454 51.1518 37.7443C51.196 38.5463 50.6178 40.1901 50.1353 41.1662C49.5517 42.4446 48.9315 43.7059 48.2981 44.9605C46.4918 48.5128 44.6767 52.0612 42.8351 55.5958C40.59 60.0181 38.1564 64.3503 36.1058 68.8693C34.9998 71.3487 34 73.8752 32.8647 76.3414C30.5085 81.3987 27.8991 86.3317 25.2737 91.253C23.7836 94.0387 22.4577 96.9095 20.9371 99.6786C19.6079 102.11 18.063 104.413 16.6475 106.794C16.5237 107.013 16.3949 107.235 16.3292 107.478C16.28 107.634 16.2938 107.821 16.395 107.952C16.4718 108.066 16.6304 108.113 16.7608 108.077C17.2196 107.984 17.5816 107.639 17.9525 107.373C18.4919 106.951 19.0242 106.521 19.5642 106.099C20.7514 105.154 22.0475 104.202 23.4708 103.236C26.5676 101.035 29.638 99.2215 33.1007 98.1094C37.1604 96.7177 41.4025 95.8339 45.3035 94.0033C46.4636 93.4418 47.5171 92.6879 48.5629 91.9406C49.5489 91.2226 50.3851 90.3355 51.1949 89.4296C52.5894 87.8671 53.7539 86.125 54.8256 84.3303C57.0232 80.7476 58.5963 76.8223 60.0245 72.882C60.6115 71.2774 61.1188 69.6453 61.4985 67.9788C61.7434 66.937 61.9391 65.8752 62.0314 64.8074C62.0386 64.7775 62.0435 64.746 62.043 64.7123C62.0446 64.6747 62.0457 64.6377 62.0474 64.6001C62.0645 64.3696 62.0778 64.1391 62.0844 63.9081C62.0811 63.9053 62.0778 63.902 62.0745 63.8993C62.0811 63.7169 62.0877 63.5339 62.0938 63.351C62.8582 64.908 63.4065 66.4633 63.899 68.3641C64.1997 69.4706 64.0344 70.6943 65.6251 69.9703C67.0434 69.3081 68.3306 68.3889 69.6162 67.5024C70.5625 66.7938 71.4861 66.0466 72.3091 65.1959C73.0353 64.379 73.7102 63.5013 74.2519 62.5501C75.0174 60.9699 75.5977 59.2957 76.0034 57.5878C76.3748 55.9065 76.6164 54.1936 76.7125 52.4741C76.938 53.0926 77.1597 53.7194 77.373 54.3644C77.7538 55.4743 78.1728 56.5742 78.4414 57.7183C80.1106 64.8284 78.1297 62.9071 83.6214 67.3764C84.7213 68.2712 85.3979 69.04 85.9263 70.3351C86.1617 70.9336 86.3463 71.8031 86.5337 72.7012C85.0568 71.9357 83.4728 71.4018 81.8627 70.9895C80.005 70.4788 78.0882 70.1748 76.1593 70.1692C73.6638 70.1317 71.2561 71.0768 69.105 72.2751C67.6619 73.1235 66.3923 74.2461 65.2039 75.4173C64.1914 76.4541 63.3601 77.6469 62.5039 78.8109C60.8005 81.1649 59.4436 83.7383 58.2176 86.3671C56.533 89.9188 55.2324 93.6656 54.5736 97.5473C53.9822 100.856 53.9314 104.253 54.3503 107.586C54.4045 107.916 54.4636 108.245 54.5261 108.572C52.2517 108.211 49.9485 108.033 47.6476 108.145C44.669 108.3 41.6877 108.703 38.8158 109.524C33.2626 111.113 28.1407 114.125 24.0108 118.158C22.2388 119.914 20.6945 121.878 19.2563 123.912C17.6253 126.182 16.1075 128.534 14.8053 131.009C14.3112 131.923 13.8547 132.857 13.4252 133.804C13.2257 134.256 13.0289 134.711 12.8725 135.181C12.762 135.522 12.6652 135.912 12.8012 136.259C13.3633 137.484 16.2523 135.532 17.0748 135.142C18.0459 134.596 19.8063 133.763 20.4762 133.471C22.0276 132.867 23.6045 132.326 25.2113 131.888C27.0164 131.429 29.7557 130.919 31.1684 130.727C33.4439 130.413 35.7438 130.211 38.0425 130.28C39.0899 130.333 39.6703 130.492 40.8127 130.679C42.7533 131.025 44.0859 131.435 45.6069 132.574C46.1912 133.043 46.7527 133.401 47.3624 134.128C47.395 134.172 47.4652 134.268 47.4945 134.319C47.61 134.49 47.7133 134.668 47.8128 134.848C47.9466 135.099 48.0875 135.346 48.2014 135.607C48.3335 135.921 48.4368 136.248 48.4805 136.587C48.5065 136.864 48.5115 137.144 48.4855 137.421C48.3025 138.423 47.9565 138.691 47.0269 139.511C46.577 139.825 45.3328 140.336 44.302 140.646C41.2704 141.419 37.7335 141.212 34.3106 141.511C32.228 141.641 30.1597 141.93 28.1119 142.325C26.2913 142.663 24.469 143.03 22.7114 143.62C20.4065 144.399 18.1515 145.329 16.0009 146.47C13.5347 147.711 11.2398 149.305 9.32962 151.307C8.29052 152.423 7.40949 153.706 6.7479 155.079C6.18634 156.485 5.91661 158.012 5.8735 159.522C5.92546 161.264 6.19131 162.997 6.49586 164.711C6.84407 166.202 7.25142 167.678 7.65932 169.154C7.97602 170.273 8.31539 171.385 8.68018 172.49C8.80399 172.819 8.86976 173.217 9.12898 173.469C9.30806 173.634 9.59381 173.68 9.774 173.493C9.92323 173.351 9.98458 173.175 10.0509 172.987C10.3814 171.576 10.7849 170.069 11.3349 169.062C11.7433 168.273 12.2634 167.55 12.7592 166.814C13.3291 166.041 13.5579 165.671 14.2477 164.969C17.245 162.172 20.1689 160.121 23.6228 157.904C25.3384 156.76 28.0141 155.52 29.4959 154.82C31.1839 154.071 32.9493 153.524 34.7246 153.023C37.4185 152.292 39.6349 151.934 42.4018 152.186C42.8484 152.191 43.9377 152.635 44.7171 153.186C44.9044 153.32 45.1874 153.66 45.2654 154.257C45.2615 154.272 45.2626 154.368 45.2654 154.436C45.2278 154.676 45.1482 154.908 45.0603 155.136C44.8928 155.515 44.7243 155.897 44.5081 156.252C44.2589 156.624 44.2036 156.716 43.7869 157.139C42.268 158.694 40.7978 159.786 39.2242 160.966C35.6233 163.673 31.9555 166.292 28.3877 169.043C26.9545 170.129 25.554 171.256 24.2534 172.5C23.6012 173.13 22.9125 173.73 22.3537 174.448C21.8143 175.121 21.3567 175.852 20.8802 176.57C20.4176 177.318 19.9025 178.042 19.5858 178.867C19.1618 179.974 18.8247 181.125 18.655 182.3C18.5638 183.339 18.6368 184.397 18.8208 185.423C19.116 186.435 19.5742 187.41 20.1468 188.295C20.6398 189.008 21.2588 189.621 21.8541 190.247C23.2386 191.703 24.8144 192.957 26.346 194.252C28.0113 195.656 29.654 197.095 31.1452 198.685C32.5828 200.183 33.7385 201.602 34.8152 203.083C36.1406 204.814 38.1575 208.78 38.1641 208.795C36.1263 211.338 36.491 214.748 38.2735 215.146C38.7411 215.268 39.2098 214.958 39.5365 214.65C39.8974 214.264 39.9577 213.692 40.0323 213.19C40.1754 211.701 39.7294 210.275 39.1783 208.9C39.3679 208.7 39.5768 208.491 39.8123 208.25C40.5358 207.531 41.2897 206.843 42.0552 206.169C43.7902 204.669 45.1979 203.417 46.9523 202.242C49.5644 200.513 52.3158 198.983 54.7306 196.972C56.9293 195.245 58.8207 193.183 60.617 191.051C62.8787 188.476 64.9386 185.738 66.9267 182.949C69.1177 179.966 71.3076 176.974 73.1205 173.741C73.5378 172.978 73.9202 172.198 74.2806 171.408C75.0257 171.436 75.7707 171.456 76.5158 171.471C75.4264 173.266 74.2082 174.985 72.9137 176.635C72.2941 177.39 71.1721 178.88 70.2596 179.835C69.2421 180.941 68.1405 181.965 67.0693 183.018C66.379 183.735 65.891 184.643 65.5654 185.579C65.2741 186.461 65.1597 187.394 65.0116 188.308C64.7529 190.079 64.4821 191.848 64.3738 193.636C64.0565 197.383 64.4871 201.153 65.1072 204.849C65.404 206.766 65.7942 208.672 66.3757 210.524C66.7742 211.603 67.2755 212.656 67.9051 213.622C67.3369 213.828 66.7344 213.972 66.2596 214.363C65.7821 214.782 65.2808 215.336 65.4416 216.011C65.6831 216.808 66.3326 217.412 66.9776 217.905C69.0901 219.519 72.9364 220.478 75.6961 221.084C106.238 227.792 144.294 223.198 150.124 220.088C152.041 219.065 153.058 216.982 153.681 214.987C154.57 212.166 155.408 209.315 155.931 206.4C156.804 201.137 156.933 195.783 156.99 190.458C157.009 188.067 157.019 185.677 157.018 183.287C157.015 180.717 156.996 178.137 156.696 175.582C156.531 174.428 156.403 173.251 156.017 172.145C155.636 171.148 155.156 170.173 154.498 169.327C153.992 168.72 153.388 168.209 152.773 167.718C151.76 166.855 150.524 166.365 149.273 165.959C148.946 165.853 148.617 165.753 148.286 165.658C148.974 165.525 149.66 165.383 150.341 165.217C150.882 165.076 151.455 164.963 151.928 164.654C152.878 164.011 151.974 163.124 151.228 162.828C150.438 162.496 149.572 162.435 148.737 162.288C147.761 162.161 146.783 162.032 145.8 161.987C140.867 161.689 135.983 162.558 131.126 163.299C130.583 163.387 130.039 163.475 129.495 163.564C125.358 163.323 121.219 163.109 117.076 162.994C115.683 162.949 114.289 162.908 112.895 162.874C113.649 162.15 114.399 161.42 115.123 160.666C117.722 157.976 119.984 154.981 122.128 151.923C124.816 148.132 127.339 144.228 129.822 140.301C132.42 136.226 134.938 132.101 137.336 127.905C139.584 124.094 141.678 120.188 143.439 116.125C144.38 113.928 145.212 111.684 145.865 109.384C146.423 107.364 146.816 105.306 147.144 103.238C147.774 99.085 148.027 94.802 147.234 90.6539C146.511 87.5858 145.43 84.6011 144.012 81.7862C143.674 81.1235 143.338 80.4591 142.991 79.8003C143.701 79.8207 144.411 79.7776 145.106 79.6273C146.756 79.2818 148.433 77.5756 149.404 76.8604C149.462 76.8123 149.524 76.7709 149.589 76.7355C149.624 76.7139 149.661 76.6984 149.697 76.6813C149.767 76.7194 149.834 76.7642 149.895 76.8173C149.881 76.8073 149.87 76.7996 149.86 76.7924C149.869 76.8007 149.879 76.8101 149.888 76.82C150.137 77.0411 150.384 77.2644 150.638 77.4805C151.748 78.4207 152.981 79.2243 154.295 79.8478C156.91 81.1594 159.798 81.7359 162.67 82.1653C166.171 82.6705 169.696 83.0044 173.218 83.3205C177.555 83.6245 181.901 83.8058 186.249 83.7582C186.852 83.7433 187.456 83.7234 188.062 83.6963C188.028 83.6477 187.997 83.5969 187.968 83.5443C188.342 83.5477 188.716 83.5388 189.09 83.5068C190.664 83.3465 192.747 82.927 194.57 82.3571C196.447 81.7701 198.234 80.9383 200.07 80.2397C201.762 79.556 203.533 79.0801 205.337 78.8054C205.5 78.7844 205.707 78.7534 205.943 78.7197C206.339 79.2956 206.765 79.8555 207.341 80.2551C208.057 80.7283 208.889 81.0831 209.747 81.1693C210.63 81.134 211.584 80.8283 212.095 80.0617C212.613 79.4476 212.831 78.7816 212.176 78.1681ZM96.3184 75.6295C98.0644 74.2322 99.8651 72.7344 100.791 70.6446C101.307 69.5463 101.737 68.3154 101.543 67.0884C101.285 65.1285 99.9165 63.5975 98.7652 62.0781C97.6537 60.7046 96.7296 59.6334 95.7745 58.2577C94.5116 56.4194 93.415 54.4766 92.7064 52.588C91.213 48.7638 90.9034 45.0611 90.5906 41.0661C90.432 38.2285 90.3087 35.3804 90.5558 32.5444C90.773 30.2037 91.0936 28.1973 91.6391 25.798C92.1023 23.853 92.7401 21.9517 93.4238 20.0746C94.2463 17.7698 95.3627 15.6032 96.7147 13.3376C98.0821 11.0289 99.5318 9.23095 101.483 7.28872C102.811 5.99592 104.046 4.89768 105.508 4.02937C106.868 3.23015 107.905 2.60005 109.386 2.27948C110.678 1.9987 112.214 1.90032 113.761 2.05619C114.843 2.21702 116.375 2.82722 117.601 3.63197C118.44 4.18247 119.192 4.93914 119.968 5.84061C120.865 6.86424 121.466 7.67175 122.301 8.81974C122.884 9.63001 123.449 10.4525 124.05 11.2495C124.999 12.5367 125.758 12.4345 126.868 11.4794C128.041 10.3154 128.984 8.94078 130.132 7.75245C132.099 5.66817 133.985 4.07746 136.5 2.69236C137.979 1.97549 140.018 1.48357 141.895 1.19395C143.253 1.10386 145.954 1.06959 147.402 1.39846C150.327 1.96278 152.646 3.22241 155.121 4.92366C157.026 6.1529 158.975 8.20015 160.243 10.018C161.104 11.3633 161.812 12.8004 162.512 14.2341C163.209 15.5247 163.567 17.2823 163.939 18.9405C164.05 19.4501 164.31 20.9479 164.323 21.127C164.48 22.4579 164.37 23.7977 164.285 25.1297C164.157 26.4767 164.101 27.3003 163.805 28.5555C163.266 30.6978 162.461 32.7627 161.664 34.8194C161.017 36.4239 160.342 38.0163 159.681 39.6147C159.28 40.5007 158.622 42.197 157.965 43.3295C157.429 44.3631 156.78 44.525 155.751 43.7435C155.355 43.4251 154.689 42.5408 154.186 41.7813C153.348 40.551 152.459 39.3566 151.489 38.2279C149.508 35.9182 147.284 33.7968 144.758 32.0901C144.032 31.5943 143.245 31.1897 142.443 30.8326C141.612 30.501 140.544 30.4104 139.791 30.9681C139.042 31.4252 139.004 32.2205 139.2 32.9926C139.595 34.585 140.973 35.9154 142.194 36.9468C144.66 38.9177 147.607 40.8251 149.815 42.6474C151.183 43.8142 152.608 45.1772 153.444 46.4811C154.175 47.6495 154.202 49.5199 153.954 50.8574C153.813 51.7434 153.54 52.6007 153.279 53.4568C152.892 54.591 152.671 55.3455 152.144 56.2884C152.099 56.3713 152.048 56.4509 151.993 56.5283C151.977 56.546 151.961 56.5642 151.945 56.5819C151.914 56.5896 151.883 56.5968 151.853 56.6046C151.532 56.5681 151.524 56.5051 151.266 56.363C149.696 54.6419 147.998 52.0021 146.003 50.0466C145.076 49.0506 144.047 48.1591 142.971 47.3295C141.823 46.4053 140.559 45.6338 139.206 45.0495C138.16 44.5886 136.981 44.2962 135.836 44.4482C134.983 44.6201 134.074 44.9583 133.514 45.6536C133.11 46.1688 132.823 46.7956 132.731 47.4455C132.689 48.1132 132.791 48.798 133.025 49.4243C133.337 50.2196 133.911 50.8807 134.488 51.498C136.862 53.7835 139.9 55.1946 142.627 56.9953C144.695 58.2975 146.491 59.8379 147.539 62.0858C148.361 63.7583 148.728 65.8067 148.18 67.6041C147.603 69.3921 147.072 70.691 146.077 72.2906C145.306 73.4955 144.439 74.6346 143.594 75.787C143.083 76.4398 142.876 76.8731 142.367 77.3197C142.024 77.0947 141.63 76.7311 141.198 76.2928C140.728 75.8373 140.271 75.3697 139.814 74.9005C139.122 74.0836 138.386 73.3015 137.66 72.5177C136.361 71.1393 134.935 69.8945 133.447 68.725C132.896 68.1071 132.401 67.4709 131.954 66.7695C131.499 66.0134 131.089 65.1965 130.742 64.4133C130.724 64.2193 130.706 64.0253 130.689 63.8318C130.409 60.6681 130.07 57.5011 129.391 54.3948C128.27 49.8736 127.326 45.6022 126.992 41.1159C126.594 36.4454 126.807 31.7524 126.644 27.072C126.572 25.3116 126.513 23.5479 126.279 21.8002C126.123 20.7058 125.986 19.5855 125.484 18.5862C125.389 18.3761 125.266 18.181 125.119 18.0042C124.965 17.7654 124.575 17.6924 124.417 17.9693C124.335 18.1208 124.37 18.2916 124.381 18.4552C124.422 18.9841 124.459 19.5131 124.495 20.0426C124.753 23.581 124.796 27.1289 124.941 30.6724C125.156 37.2414 126.216 43.9756 127.039 50.1804C127.446 53.0876 127.821 56.0021 128.374 58.8862C128.716 60.499 129.015 62.1356 129.631 63.6721C129.75 63.9584 129.871 64.2447 129.996 64.5294C130.054 65.1324 130.118 65.7348 130.193 66.3351C128.946 65.5187 127.606 64.8521 126.247 64.2392C124.692 63.5444 123.08 62.9624 121.382 62.748C119.862 62.528 118.332 62.303 116.792 62.3113C115.747 62.3351 114.712 62.4981 113.683 62.67C111.6 63.0188 109.705 64.007 107.886 65.0373C105.294 66.6783 102.914 68.7184 101.106 71.2094C100.216 72.3652 99.5971 73.679 99.0654 75.0298C98.0495 77.4877 97.5476 80.1103 96.8949 82.6783C96.7699 83.1177 96.6301 83.7682 96.4952 84.2833C96.3604 83.923 96.2393 83.5327 96.0326 83.0607C95.6424 82.1029 95.1765 81.1754 94.642 80.2889C94.4856 79.4305 94.3446 78.5694 94.2026 77.7094C94.1882 77.6137 94.1705 77.5181 94.1545 77.4225C94.8559 76.804 95.5799 76.2076 96.3184 75.6295ZM131.745 68.4077C132.219 68.7714 132.692 69.1373 133.161 69.5082C134.464 70.906 135.946 72.1198 137.315 73.4501C137.881 73.9852 138.426 74.5418 138.97 75.1C139.339 75.5272 139.701 75.9611 140.052 76.4044C140.531 77.0212 141.09 77.9321 141.639 78.9032C139.931 78.707 138.167 78.2311 137.133 77.6358C133.455 75.6511 131.946 71.9937 131.221 68.0347C131.429 68.1855 131.611 68.3154 131.745 68.4077ZM131.036 66.9215C131.019 66.8065 131.003 66.691 130.987 66.5755C131.087 66.7557 131.19 66.9337 131.296 67.11C131.21 67.047 131.123 66.9834 131.036 66.9215ZM129.717 61.5425C129.476 60.6211 129.294 59.6832 129.094 58.7524C128.638 56.3663 128.293 53.9952 127.975 51.6661C128.053 51.9938 128.132 52.321 128.214 52.6471C128.931 55.4776 129.352 58.0996 129.642 60.7996C129.668 61.0473 129.693 61.2949 129.717 61.5425ZM126.051 36.6063C126.021 36.2785 125.99 35.9486 125.963 35.6142C125.54 30.3916 125.568 25.1458 125.212 19.9199C125.477 20.8766 125.562 21.9246 125.68 22.8642C126.094 27.4335 125.944 32.0248 126.051 36.6063ZM93.5592 78.6799C93.4542 78.5395 93.3475 78.4003 93.2387 78.2626C93.3094 78.1952 93.3818 78.13 93.4531 78.0637C93.489 78.2693 93.5244 78.4743 93.5592 78.6799ZM78.2319 54.1582C77.7947 52.7875 77.2907 51.4422 76.7501 50.1113C76.7136 48.5764 76.5545 47.0448 76.2588 45.5337C75.8437 43.4461 75.2379 41.3447 74.0402 39.5616C73.8075 39.2588 73.5952 38.9238 73.2741 38.7071C72.6009 38.3048 72.1046 38.711 71.9537 39.4108C71.8254 40.3719 72.1814 41.3154 72.5086 42.2031C72.9878 43.45 73.3703 44.2846 73.829 45.3839C74.5155 46.9956 75.2418 48.6792 75.9465 50.4628C75.9608 52.1873 75.8254 53.899 75.5541 55.5284C75.2512 57.6276 74.4807 60.0955 73.7555 61.6967C73.5013 62.287 73.1354 62.817 72.7667 63.3399C72.2527 64.0192 71.9763 64.41 71.2777 65.0738C69.9208 66.3423 68.7513 67.1442 67.1174 68.175C66.4083 68.6128 65.5101 69.1622 65.0005 69.3031C64.8773 68.0839 64.5921 66.9668 64.0969 65.5895C63.7094 64.505 63.2811 63.4317 62.7212 62.423C62.5426 62.0941 62.3403 61.7476 62.1209 61.3877C62.117 60.9207 62.1043 60.4536 62.0767 59.9866C61.9253 57.8432 61.5057 55.7252 60.8779 53.6713C60.4362 52.3039 60.0118 50.8597 59.0572 49.7515C58.0551 48.5443 56.4423 48.7356 56.0864 50.3622C55.6072 53.7034 59.3993 58.6518 61.3394 61.9548C61.3372 62.5584 61.33 63.1619 61.3145 63.7655C61.3289 64.1032 61.2338 64.5498 61.3139 64.8599C61.3195 64.8742 61.3267 64.8864 61.3333 64.8991C61.2371 65.9172 61.0492 66.937 60.8077 67.9191C60.3334 69.988 59.6287 71.9899 58.8908 73.9769C57.8551 76.7018 56.8491 79.158 55.4458 81.8459C54.4498 83.6494 53.388 85.4258 52.1853 87.0994C51.2474 88.3093 50.2016 89.6165 48.8917 90.7838C48.0505 91.4879 47.0059 92.2203 45.8717 92.9068C41.5567 95.2586 36.3164 96.1048 31.5216 97.932C27.9632 99.2502 24.8144 101.414 21.7391 103.596C20.2269 104.627 18.6627 105.976 17.3528 106.951C17.6783 106.384 18.1283 105.727 18.4422 105.187C19.5443 103.42 20.6536 101.655 21.6474 99.824C22.8468 97.6374 23.9102 95.3807 25.0565 93.1665C26.9435 89.5313 28.9178 85.942 30.7484 82.2775C31.7725 80.2126 32.8 78.1493 33.7557 76.0518C34.7837 73.7276 35.736 71.3714 36.7657 69.0483C38.1862 65.9183 39.8029 62.8817 41.3886 59.8335C43.6321 55.5013 45.917 51.1907 48.1467 46.8514C49.0133 45.1662 49.8844 43.4826 50.6809 41.7625C51.2485 40.5134 51.8747 39.2273 51.9046 37.83C51.8963 37.5791 51.8968 37.2812 51.6879 37.1082C51.5387 37.002 51.3424 36.8992 51.154 36.944C51.028 36.9877 50.8981 37.0192 50.7776 37.0761C50.2829 37.3795 49.9258 37.8471 49.5483 38.2782C49.1183 38.7945 48.6795 39.3041 48.2688 39.8358C45.6036 43.3765 43.537 47.3228 41.5307 51.262C38.8008 56.5703 36.7989 62.2107 34.6826 67.7815C33.1825 71.9119 31.7587 75.7036 29.9248 79.5311C27.7936 84.0744 25.208 88.3811 22.6826 92.7111C20.2286 97.0029 17.6352 101.218 15.3442 105.601C14.7716 106.746 14.225 107.904 13.6916 109.068C13.6165 109.218 13.5341 109.402 13.4518 109.579C13.4462 109.541 13.4396 109.5 13.4302 109.454C13.0953 106.419 12.6183 103.382 11.5703 100.502C10.45 97.4108 8.97864 94.451 7.30337 91.6245C6.18744 89.6861 4.81506 87.7339 4.2629 85.8132C4.0092 84.9582 4.01528 84.4663 3.89589 83.5023C3.69305 81.5231 4.32314 80.07 5.28155 78.3638C6.86396 76.1048 9.63748 74.0753 11.9893 72.1695C15.504 69.3717 18.9402 66.476 22.2758 63.4665C25.5186 60.5332 28.7807 57.4508 30.8606 53.5514C31.8626 51.5345 32.5502 49.1136 31.7455 46.9149C31.3652 45.7371 30.0779 45.1678 28.9294 45.0379C27.7836 44.9959 26.6279 45.2419 25.575 45.689C24.0633 46.3694 22.7854 47.4665 21.5324 48.5322C19.8013 50.0096 18.4157 51.8346 17.1035 53.6813C14.3267 57.6475 12.238 62.0433 10.3505 66.4887C10.3007 66.6103 10.2526 66.733 10.2035 66.8552C10.1504 65.9432 10.005 65.0373 9.7939 64.1496C8.89574 60.7201 7.12982 57.8703 6.13107 54.6679C5.68116 53.3469 5.31195 51.9993 4.99966 50.6397C4.61332 48.9257 4.36349 47.707 4.30711 45.9731C4.2745 44.2967 4.2629 42.6154 4.40107 40.9434C4.64316 38.1014 5.80331 34.1688 6.90376 31.6501C8.43477 28.1724 10.1405 24.7556 12.3253 21.6372C13.4252 20.0735 14.2819 18.8946 15.6571 17.4725C17.7121 15.4866 19.6112 14.0777 21.8729 12.5318C24.2446 10.9189 26.4024 10.0921 29.119 9.32326C33.5539 8.08794 38.4758 8.22502 42.9147 9.90913C47.2358 11.5407 51.1567 14.8985 53.4638 19.1616C54.3011 20.5737 54.6853 22.018 55.175 23.7452C55.385 24.5273 55.5646 25.3182 55.8167 26.0882C55.9814 26.6221 56.2715 27.329 56.9049 27.4108C57.624 27.5595 58.242 27.0941 58.8616 26.8067C59.7056 26.38 60.5507 25.9549 61.4074 25.5537C63.2495 24.5903 65.6284 24.1177 67.5756 24.6058C69.4377 25.0601 70.7725 25.6908 72.3688 26.8133C74.5116 28.1945 76.4378 30.0738 77.8738 32.0077C79.5712 34.3501 80.7866 36.5516 81.5399 39.1864C82.0191 41.1756 82.2176 42.6939 82.2999 44.6173C82.374 47.6119 82.243 50.6065 82.1772 53.6C82.1855 56.1635 82.1606 58.8237 83.0411 61.2645C84.2283 64.0026 86.4513 66.093 88.4328 68.2613C90.6409 70.5965 92.2333 72.8798 93.0452 76.0109C93.1469 76.4497 93.2353 76.8908 93.3188 77.3335C93.1602 77.4805 93.001 77.6298 92.8435 77.779C92.4776 77.3451 92.0934 76.9256 91.69 76.5266C90.3784 75.1757 88.8927 74.01 87.25 73.0914C86.6774 67.8069 84.2764 67.0243 81.4498 64.7819C80.083 63.6975 79.978 62.5191 79.7303 60.7151C79.5999 59.8567 79.5314 58.9011 79.286 57.569C79.0295 56.4056 78.6116 55.2863 78.2319 54.1582ZM72.6882 39.3019C72.7015 39.2775 72.7159 39.2538 72.7308 39.2311C72.7347 39.2278 72.7402 39.2217 72.7479 39.2123C72.7518 39.2123 72.7557 39.2129 72.7595 39.2129C72.7756 39.2168 72.7966 39.2223 72.8231 39.2295C72.8303 39.2317 72.8358 39.2333 72.8424 39.2355C72.88 39.2532 72.9165 39.2737 72.9502 39.298C73.0165 39.3665 73.1426 39.4964 73.1586 39.5263C73.2006 39.5666 73.2216 39.6003 73.2183 39.6003C73.2277 39.6125 73.2371 39.6252 73.2465 39.6374C74.2679 40.9876 74.9416 42.9984 75.3606 44.9688C75.5651 45.9239 75.7121 46.8989 75.8094 47.8805C74.9925 46.0052 74.1314 44.1475 73.3067 42.2777C72.9657 41.5348 72.3185 39.7584 72.6882 39.3019ZM61.2896 60.0734C59.2485 56.9229 56.5805 53.1313 56.8646 50.5225C57.0951 49.5326 57.9573 49.4104 58.8439 50.8552C59.71 52.3514 60.151 54.04 60.6369 55.9181C60.9845 57.4159 61.1968 58.6557 61.2896 60.0734ZM92.2554 78.3422C91.8326 78.7457 91.444 79.116 91.1367 79.3846C91.0107 79.4742 90.9554 79.5156 90.9012 79.5399C90.4585 79.1542 89.4913 77.9923 89.1911 77.5795C88.2349 76.3757 87.8055 75.3172 87.5087 74.1963C88.2515 74.6501 88.9441 75.1381 89.5145 75.6256C90.4828 76.4735 91.4191 77.3634 92.2554 78.3422ZM55.0031 100.405C55.2148 98.2996 55.6453 96.0207 56.2887 93.7248C57.068 91.0811 57.9435 88.8294 59.0561 86.5202C59.7592 85.0245 60.5175 83.556 61.3239 82.1134C62.3879 80.3734 63.6287 78.5882 64.7082 77.2307C67.3286 74.0614 70.3259 72.0114 74.2519 71.1531C77.1669 70.6473 80.5743 71.3753 83.7768 72.4105C84.7114 72.7272 85.7571 73.2036 86.7575 73.7591C86.851 74.1731 86.9493 74.5722 87.0593 74.932C87.6955 76.9251 89.09 78.5804 90.5348 80.0512C91.0333 80.4431 91.5606 79.8064 91.9249 79.5007C92.1647 79.2785 92.4024 79.0536 92.6395 78.828C93.0546 79.3719 93.478 79.981 93.8942 80.6443C93.9903 81.1793 94.0931 81.7127 94.2125 82.2427C94.5353 83.8135 95.0803 85.3246 95.6866 86.8059C96.9396 90.1139 98.0959 93.4678 99.0339 96.8797C99.685 99.463 100.088 102.292 100.39 104.619C100.877 108.15 101.246 111.701 101.87 115.212C102.625 119.119 103.741 122.942 105.086 126.685C106.241 130.102 107.698 133.411 109.461 136.558C110.78 138.927 111.864 141.051 112.697 143.474C113.061 144.535 113.452 145.598 113.614 146.712C113.635 146.907 113.656 147.102 113.676 147.298C113.707 147.601 113.701 147.907 113.715 148.211C113.716 148.518 113.71 148.825 113.708 149.132C113.708 149.366 113.688 149.599 113.676 149.832C113.663 150.024 113.643 150.214 113.619 150.405C113.193 153.384 112.127 156.352 111.02 158.833C110.483 160.043 109.734 161.557 109.041 162.802C108.174 162.791 107.305 162.785 106.437 162.783C105.857 161.602 105.135 160.492 104.305 159.469C103.077 158.086 101.607 156.938 100.112 155.859C96.7594 153.409 93.1364 151.368 89.6842 149.067C87.4374 147.587 85.1044 146.24 82.8703 144.742C82.6404 141.953 82.3624 139.168 81.9893 136.394C81.4532 132.335 80.7341 128.244 79.0583 124.481C78.6371 123.466 78.1546 122.477 77.5554 121.554C77.0945 120.785 76.5174 120.088 75.8083 119.535C75.2152 119.125 74.5791 118.767 73.907 118.506C73.1647 118.249 72.3815 118.15 71.616 117.988C70.7935 117.827 70.2546 116.635 69.4139 115.629C68.4893 114.515 67.4292 113.495 66.2259 112.686C63.6492 110.91 60.6463 109.894 57.6224 109.174C56.8751 109.005 56.1223 108.851 55.3662 108.716C55.2783 108.272 55.196 107.824 55.1208 107.373C54.882 105.588 54.8162 102.605 55.0031 100.405ZM108.577 163.609C108.327 164.028 108.093 164.389 107.892 164.659C107.785 164.756 107.666 164.832 107.536 164.889C107.515 164.892 107.494 164.894 107.474 164.897C107.47 164.895 107.467 164.894 107.464 164.892L107.393 164.822L107.37 164.787C107.16 164.448 107.027 164.067 106.859 163.707C106.844 163.67 106.827 163.634 106.811 163.597C107.399 163.598 107.988 163.602 108.577 163.609ZM77.4852 131.502C76.5992 129.321 75.6259 127.135 74.1894 125.253C73.5505 124.488 72.8087 123.726 71.7912 123.529C70.8162 123.282 69.8523 123.701 68.9878 124.121C68.3058 124.487 67.7768 125.067 67.2136 125.586C66.6493 126.146 66.101 126.723 65.5765 127.321C65.3675 127.558 65.1603 127.796 64.9536 128.034C62.6709 125.214 60.6413 122.291 58.9008 118.918C57.3698 115.988 56.2599 112.856 55.5326 109.516C55.8913 109.584 56.2511 109.656 56.6131 109.733C59.2562 110.319 61.7467 111.052 63.9482 112.213C64.5733 112.533 65.8777 113.38 66.1507 113.558C67.1042 114.259 68.5241 115.674 68.9911 116.337C69.6455 117.121 70.1192 118.182 71.0843 118.633C71.5176 118.806 71.9957 118.831 72.4483 118.933C73.2791 119.108 73.8019 119.235 74.3928 119.584C74.9649 119.898 75.3075 120.082 75.6348 120.407C76.2416 120.997 76.455 121.24 76.8596 121.907C77.2188 122.48 77.5665 123.063 77.8528 123.677C78.9212 125.908 79.7972 128.482 80.3284 131.159C81.0867 134.745 81.3857 137.853 81.7743 141.461C81.8699 142.359 81.9495 143.258 82.0208 144.158C81.9406 144.102 81.8594 144.048 81.7798 143.992C81.1973 143.588 80.6318 143.173 80.0736 142.751C79.8868 138.884 78.9477 135.081 77.4852 131.502ZM79.1975 142.077C77.3487 140.625 75.585 139.069 73.7483 137.384C71.0467 134.844 68.3815 132.252 66.0513 129.362C65.8584 129.133 65.6677 128.904 65.4781 128.675C65.5007 128.649 65.5229 128.623 65.5461 128.597C66.4177 127.58 67.3087 126.578 68.2842 125.659C69.0829 124.861 69.6251 124.584 70.7233 124.264C71.2302 124.162 71.218 124.188 71.7061 124.282C72.0941 124.356 72.1582 124.425 72.5882 124.687C73.0818 125.112 73.871 125.963 74.306 126.759C75.5347 128.764 76.2803 130.522 77.0602 132.599C78.2717 135.817 78.9753 138.819 79.1975 142.077ZM80.1029 143.68C80.7556 144.166 81.4189 144.638 82.0915 145.097C82.1357 145.695 82.1789 146.294 82.2209 146.892C82.3182 148.25 82.4508 149.609 82.4022 150.971C82.3342 153.877 81.9252 156.21 81.3211 159.061C80.9839 160.586 80.6335 162.11 80.1559 163.599C80.0039 164.045 79.853 164.468 79.701 164.877C79.5242 164.906 79.3473 164.934 79.1704 164.964C78.2994 165.115 77.43 165.276 76.5622 165.449C77.8318 161.459 78.6819 157.337 79.3191 153.202C79.7469 150.046 80.1581 146.868 80.1029 143.68ZM81.9191 160.177C82.8161 156.317 83.4645 152.336 83.1456 148.364C83.0826 147.466 83.0157 146.567 82.9449 145.669C84.167 146.477 85.4106 147.253 86.6592 148.019C88.6633 149.266 90.6238 150.58 92.6163 151.845C94.0865 152.776 95.5744 153.679 97.0297 154.633C99.4047 156.233 101.43 157.618 103.385 159.586C103.904 160.157 104.04 160.326 104.508 161.018C104.905 161.583 105.273 162.168 105.588 162.782C102.657 162.787 99.7275 162.851 96.7998 163.006C91.376 163.254 85.9749 163.871 80.6147 164.727C81.1481 163.242 81.5875 161.722 81.9191 160.177ZM38.3891 214.343C38.053 214.322 36.9796 213.714 37.9817 210.651C38.1005 210.288 38.3415 209.946 38.5162 209.694C38.7599 210.348 38.9755 211.013 39.1247 211.695C39.6155 214.264 38.808 214.37 38.3891 214.343ZM73.0867 171.775C71.8205 174.327 70.2513 176.725 68.6009 179.044C66.919 181.401 64.6816 184.473 63.2219 186.427C61.3764 188.772 59.4441 191.052 57.4328 193.257C55.6525 195.125 53.8391 196.606 51.9344 197.975C49.9203 199.371 47.7808 200.576 45.7816 201.995C44.2589 203.098 42.8572 204.356 41.4367 205.584C40.5806 206.346 39.736 207.121 38.9385 207.945C38.9014 207.981 38.865 208.018 38.8285 208.054C38.7384 207.841 37.3522 205.022 35.5531 202.535C33.7794 200.083 31.7543 197.812 29.5186 195.773C27.3105 193.695 24.8244 191.925 22.6898 189.769C22.0321 189.06 21.3019 188.38 20.9427 187.827C20.3767 186.9 20.0351 186.25 19.7665 185.418C19.5808 184.769 19.5863 184.395 19.5288 183.56C19.4614 182.483 19.5907 181.965 19.8781 180.875C20.0473 180.233 20.249 179.598 20.5055 178.985C20.8255 178.278 21.2776 177.642 21.6828 176.983C22.2045 176.195 22.8031 175.266 23.2099 174.811C24.3767 173.527 25.6921 172.382 27.0048 171.25C29.5528 169.224 32.2158 167.258 35.0374 165.177C36.8238 163.86 38.609 162.543 40.3766 161.201C42.0287 159.941 43.7051 158.655 45.0321 157.043C45.3079 156.673 45.5113 156.258 45.6987 155.839C45.8822 155.431 46.0745 155.013 46.1243 154.564C46.1884 153.985 45.9933 153.374 45.6501 152.909C45.3919 152.548 45.0006 152.313 44.6203 152.098C44.0732 151.814 43.5177 151.513 42.908 151.393C42.0712 151.235 41.2151 151.257 40.3672 151.24C37.7728 151.295 35.2325 151.937 32.7691 152.712C29.9806 153.539 27.3586 154.832 24.8045 156.207C23.0203 157.207 21.3384 158.383 19.646 159.529C18.2587 160.493 16.9355 161.547 15.63 162.619C14.5461 163.532 13.4258 164.43 12.6022 165.598C11.8638 166.605 11.1281 167.623 10.5495 168.732C10.0465 169.775 9.67064 170.879 9.41584 172.008C9.39373 171.94 9.37052 171.871 9.34786 171.803C8.41709 168.824 7.26689 164.989 6.95848 162.308C6.84572 161.297 6.68875 160.286 6.71694 159.267C6.76945 157.968 7.10771 156.222 7.63887 155.138C8.79017 152.929 10.235 151.383 12.2502 149.781C13.5916 148.66 16.123 147.284 18.0536 146.368C20.0887 145.422 22.5273 144.46 24.9935 143.841C28.8697 142.935 32.2434 142.417 36.1439 142.268C37.9375 142.182 39.736 142.181 41.5235 142.003C42.8638 141.892 44.2086 141.727 45.4677 141.228C46.1464 140.985 46.829 140.726 47.4475 140.352C48.045 139.918 48.5933 139.395 48.9956 138.773C49.9784 137.085 49.1824 135.064 48.1317 133.608C47.3784 132.665 46.3586 131.963 45.3671 131.292C43.7537 130.223 41.8131 129.901 39.9372 129.602C38.6433 129.354 37.3251 129.338 36.0129 129.394C34.3742 129.464 32.7409 129.634 31.1181 129.872C27.0402 130.479 22.9662 131.414 19.2276 133.194C18.3134 133.638 17.4037 134.093 16.5226 134.6C15.4658 135.147 14.1719 135.955 13.491 135.891C13.4871 135.842 13.4866 135.781 13.5009 135.751C14.021 134.043 15.5604 131.156 16.8017 129.06C17.7662 127.439 18.8324 125.881 19.9213 124.341C21.067 122.773 21.9077 121.573 23.1602 120.202C27.2287 115.667 32.2689 112.484 37.8828 110.611C40.9752 109.623 43.8366 109.165 46.9064 108.946C49.6473 108.772 52.1522 108.942 54.683 109.365C55.4403 112.948 56.6988 116.422 58.4166 119.658C60.1046 122.846 62.1905 125.805 64.4672 128.6C62.8892 130.444 61.3764 132.343 59.9913 134.338C58.7212 136.099 57.5505 137.927 56.4108 139.775C55.1296 141.807 53.8916 143.867 52.8093 146.014C50.3022 150.841 48.3014 155.903 46.4885 161.026C43.762 168.931 41.4163 176.98 39.8167 185.193C39.3773 187.383 39.0247 189.588 38.6903 191.795C38.5665 192.605 38.4432 193.414 38.3211 194.225C38.2846 194.464 38.2481 194.705 38.2166 194.945C38.2022 195.089 38.1503 195.241 38.2249 195.375C38.4172 195.832 39.1297 195.725 39.1374 195.191C39.5028 192.699 40.024 189.007 40.5844 186.079C41.2615 182.5 42.0834 178.949 42.9838 175.42C44.528 169.656 46.3172 163.954 48.3816 158.355C49.6926 154.877 50.861 151.892 52.4562 148.668C53.5815 146.366 54.7416 144.077 56.1068 141.906C56.6805 140.966 57.2626 140.031 57.8479 139.097C60.0913 135.502 62.3514 132.334 64.9911 129.238C65.1702 129.453 65.3499 129.668 65.5306 129.881C67.5966 132.432 69.9335 134.741 72.3008 137.01C74.5249 139.117 76.817 141.162 79.2467 143.031C79.2512 143.138 79.2561 143.245 79.2594 143.353C79.3081 145.314 79.1671 147.273 78.9505 149.222C78.7034 151.452 78.4851 153.16 78.0639 155.428C77.4277 158.91 76.6136 162.366 75.5319 165.659C73.0884 166.175 70.6697 166.801 68.3074 167.618C67.3468 167.98 66.311 168.206 65.4372 168.756C65.3465 168.883 65.2183 168.985 65.1686 169.136C65.0741 169.383 65.1172 169.645 65.2426 169.874C65.5599 170.283 66.0982 170.448 66.5747 170.605C68.7595 171.164 71.0373 171.226 73.278 171.365C73.215 171.501 73.1525 171.639 73.0867 171.775ZM73.6229 170.621C72.0603 170.553 70.4995 170.45 68.9458 170.271C68.3445 170.202 66.3796 169.91 65.9048 169.472C65.8998 169.46 65.8948 169.446 65.8904 169.434C65.8926 169.423 65.8948 169.413 65.897 169.403C66.0844 169.196 66.2718 169.174 66.5559 169.049C68.0515 168.493 69.5709 168.002 71.0992 167.544C72.4694 167.157 73.8545 166.817 75.2451 166.513C74.7576 167.919 74.2198 169.292 73.6229 170.621ZM76.2952 170.709C75.7342 170.695 75.1732 170.678 74.6128 170.659C75.2318 169.229 75.7779 167.767 76.2847 166.294C77.3167 166.083 78.3502 165.891 79.3816 165.715C79.1152 166.392 78.8416 167.037 78.5509 167.683C78.0672 168.719 77.5339 169.731 76.9602 170.72C76.7391 170.716 76.5169 170.713 76.2952 170.709ZM150.999 167.521C151.914 168.011 152.347 168.42 153.096 169.064C153.838 169.744 154.131 170.119 154.622 171.043C155.539 172.614 155.701 174.322 155.914 175.81C156.361 180.218 156.187 184.659 156.207 189.083C156.168 194.83 156.085 200.816 155.223 206.204C154.851 208.441 154.237 210.629 153.625 212.81C152.861 215.302 152.335 217.693 150.31 219.194C150.333 219.176 150.355 219.159 150.378 219.141C150.228 219.253 150.072 219.354 149.908 219.444C149.768 219.522 149.624 219.59 149.477 219.651C149.398 219.681 149.319 219.712 149.24 219.742C149.018 219.82 148.804 219.923 148.576 219.977C118.486 227.036 78.3259 222.72 69.1166 218.355C68.272 217.955 67.0296 217.335 66.3116 216.322C66.3 216.289 66.1867 216.084 66.1546 216.037C66.0562 215.735 66.0407 215.803 66.1751 215.446C66.1861 215.438 66.2419 215.348 66.2745 215.295C66.3287 215.225 66.3856 215.158 66.4475 215.096C66.7073 214.807 66.741 214.824 67.1141 214.611C67.1721 214.587 67.2302 214.564 67.2877 214.54C67.5684 214.443 67.8481 214.342 68.1278 214.243C68.1875 214.221 68.2483 214.202 68.3085 214.181C70.4392 216.328 73.4421 216.442 76.1758 216.668C128.573 221.004 144.333 214.633 142.78 213.341C141.971 212.667 137.538 212.231 134.87 211.982C132.21 211.741 129.552 211.486 126.891 211.275C118.119 210.62 109.32 210.285 100.525 210.253C93.4266 210.173 86.312 210.363 79.2683 211.301C76.6539 211.627 74.0473 212.028 71.4761 212.609C70.5675 212.816 69.6632 213.044 68.7745 213.325C68.7302 213.262 68.6871 213.198 68.6451 213.132C67.9786 212.041 67.5353 211.169 67.1981 210.186C66.5907 208.257 66.2027 206.268 65.8888 204.273C65.4101 201.534 65.121 198.764 65.1045 195.745C65.1454 193.808 65.3709 191.608 65.6069 190.037C65.8357 188.629 65.9507 187.187 66.3514 185.815C66.5376 185.195 66.8809 184.552 67.3883 183.834C68.1952 182.956 69.9119 181.373 70.9599 180.191C72.1924 178.792 73.1337 177.565 74.0269 176.408C75.2534 174.84 76.3837 173.193 77.4067 171.483C79.0831 171.509 80.7601 171.515 82.4364 171.525C89.9544 171.519 97.4741 171.272 104.974 170.743C116.324 169.71 127.705 168.868 138.983 167.183C141.437 166.813 143.893 166.46 146.336 166.021C147.98 166.378 149.572 166.854 150.999 167.521ZM69.236 213.88C70.531 213.488 71.8547 213.195 73.1807 212.925C82.2529 211.172 91.8248 210.775 101.289 210.91C106.27 210.924 111.249 211.055 116.224 211.296C120.44 211.472 124.655 211.711 128.86 212.078C131.971 212.373 135.09 212.599 138.192 212.972C139.175 213.098 140.171 213.277 141.206 213.544C143.272 213.917 127.064 219.883 75.7657 215.8C73.1951 215.596 70.6797 215.318 69.236 213.88ZM146.199 162.689C147.773 162.819 148.912 162.959 150.415 163.274C150.596 163.317 150.772 163.374 150.945 163.443C151.103 163.512 151.253 163.598 151.392 163.702C151.46 163.77 151.528 163.839 151.596 163.907C151.612 163.939 151.629 163.97 151.646 164.002C151.637 164.014 151.627 164.027 151.617 164.039C151.518 164.111 151.412 164.171 151.298 164.219C150.571 164.495 149.801 164.637 149.043 164.806C148.293 164.964 147.52 165.114 146.734 165.258C146.251 165.145 145.766 165.039 145.278 164.948C141.105 164.263 136.878 164.041 132.664 163.754C137.151 163.048 141.498 162.377 146.199 162.689ZM140.541 165.178C141.803 165.301 143.107 165.453 144.405 165.661C141.114 166.204 137.739 166.655 134.873 167.07C127.979 167.958 121.057 168.609 114.133 169.204C111.037 169.472 107.945 169.781 104.847 170.025C100.869 170.298 96.8849 170.499 92.8982 170.616C87.8823 170.77 82.8637 170.813 77.8461 170.735C78.1584 170.191 78.4619 169.642 78.7515 169.085C79.3241 167.935 79.8437 166.759 80.3052 165.561C82.82 165.151 85.3166 164.826 87.7397 164.531C93.7969 163.826 99.8828 163.593 105.974 163.594C106.131 163.941 106.283 164.29 106.439 164.637C106.587 164.97 106.738 165.32 107.045 165.537C107.926 166.01 108.68 164.972 109.072 164.288C109.201 164.066 109.329 163.843 109.455 163.619C110.002 163.626 110.55 163.635 111.098 163.646C110.772 163.959 110.447 164.271 110.123 164.586C109.653 165.05 109.188 165.518 108.728 165.991C108.335 166.406 107.916 166.815 107.651 167.327C107.493 167.59 107.389 167.904 107.47 168.209C107.561 168.464 107.877 168.563 108.128 168.551C109.176 168.492 110.207 168.266 111.24 168.091C115.336 167.384 119.358 166.331 123.402 165.383C125.217 164.977 127.05 164.66 128.884 164.355C132.773 164.576 136.66 164.834 140.541 165.178ZM120.828 163.939C122.502 164.02 124.177 164.103 125.851 164.19C125.042 164.34 124.234 164.498 123.43 164.672C119.704 165.529 116.008 166.52 112.244 167.205C111.087 167.418 109.932 167.646 108.767 167.806C108.963 167.775 108.693 167.818 108.614 167.823C108.464 167.839 108.312 167.857 108.161 167.86C108.168 167.836 108.175 167.812 108.182 167.788C108.244 167.659 108.313 167.535 108.396 167.419C108.58 167.114 108.519 167.269 108.638 167.101C109.732 165.907 110.898 164.784 112.068 163.665C114.991 163.73 117.911 163.829 120.828 163.939ZM143.152 81.7386C144.615 84.5398 145.684 87.4145 146.491 90.65C146.911 92.4336 146.968 94.0951 147.006 96.0788C147.04 97.9276 146.903 99.7792 146.66 101.612C146.239 104.953 145.483 108.736 144.235 112.175C142.365 117.444 139.735 122.406 136.824 127.389C135.298 130.035 133.762 132.675 132.149 135.268C129.163 140.079 126.144 144.873 122.944 149.544C120.742 152.721 118.76 155.53 116.265 158.41C114.896 159.966 113.415 161.415 111.923 162.851C111.249 162.837 110.575 162.824 109.9 162.813C110.526 161.666 111.114 160.497 111.645 159.304C112.944 156.389 114.037 153.338 114.419 150.155C114.521 148.897 114.53 147.621 114.338 146.372C114.215 145.526 113.925 144.719 113.667 143.908C113.096 142.221 112.428 140.567 111.627 138.975C110.507 136.761 109.227 134.629 108.183 132.377C107.206 130.283 106.309 127.904 105.493 125.473C104.654 123.078 103.903 120.654 103.33 118.18C101.706 111.672 101.554 105.226 100.22 98.5267C99.4921 94.9645 98.2175 91.5421 97.0308 88.1131C96.5041 86.6484 95.8674 85.2224 95.4158 83.7317C95.4462 83.8085 95.476 83.8859 95.5048 83.9611C95.7529 84.4757 96.0498 86.1576 96.8926 85.5148C97.1193 85.2406 97.174 84.8714 97.2718 84.5392C97.3779 84.1313 97.4791 83.7218 97.5819 83.3128C98.0942 81.3036 98.5215 79.2713 99.1239 77.286C99.6197 75.7461 100.135 74.4671 100.774 73.2141C102.17 70.8049 103.899 69.0434 106.155 67.2365C107.516 66.1151 110.362 64.4752 112.118 63.9103C113.731 63.4167 115.13 63.215 116.61 63.1376C118.19 63.1194 119.422 63.288 120.801 63.4864C121.982 63.645 123.159 63.8849 124.275 64.311C125.841 64.914 127.097 65.4861 128.693 66.3599C129.178 66.6175 129.781 67.0188 130.339 67.4084C130.506 68.5061 130.723 69.595 131.03 70.6667C131.41 71.813 131.841 72.9466 132.403 74.0167C133.481 75.9219 135.123 77.5109 137.077 78.5019C138.182 79.053 139.389 79.3465 140.602 79.5477C141.097 79.6267 141.599 79.6969 142.103 79.7439C142.482 80.4398 142.842 81.1318 143.152 81.7386ZM211.653 79.0536C211.648 79.0701 211.642 79.0917 211.634 79.1155C211.612 79.1503 211.463 79.4438 211.4 79.5084C211.128 80.0772 210.428 80.3193 209.778 80.3878C209.16 80.3287 208.377 80.0523 207.621 79.499C207.4 79.3277 207.116 78.9977 206.821 78.6009C207.315 78.5429 207.842 78.4986 208.322 78.5047C209.576 78.5346 210.171 78.5605 211.295 78.7999C211.355 78.817 211.415 78.8308 211.474 78.8496C211.494 78.8607 211.514 78.8723 211.533 78.8855C211.551 78.9027 211.58 78.9303 211.607 78.959C211.619 78.9773 211.634 79.0016 211.65 79.0281C211.651 79.0331 211.652 79.0381 211.654 79.0436C211.654 79.0469 211.653 79.0502 211.653 79.0536Z" fill="#043A4E"/>
</svg>
