<svg width="204" height="205" viewBox="0 0 204 205" fill="none" xmlns="http://www.w3.org/2000/svg">
<g clip-path="url(#clip0_19496_34287)">
<path d="M204 126.12C204 159.55 174.07 184.89 141.04 179.19C137.17 178.52 134.79 179.3 131.99 182.04C109.14 204.46 75.6099 210.39 46.4499 197.45C17.2299 184.48 -1.27006 155.1 0.0699424 123.3C0.619942 110.09 5.23994 97.9098 11.0599 86.2298C26.7599 54.7298 48.8599 27.9298 73.0199 2.69978C76.6899 -1.14022 79.6199 -0.860223 83.6599 3.36978C103.18 23.7498 121.03 45.4598 135.72 69.6298C137.27 72.1798 138.65 73.4298 141.96 72.9198C174.65 67.8798 203.99 93.1298 204 126.12ZM77.4499 14.1998C76.6599 15.5898 76.2599 16.5398 75.6399 17.3198C63.0399 33.0198 50.0199 48.3998 37.9099 64.4798C28.4899 76.9898 20.9799 90.7698 15.8899 105.71C7.72994 129.63 12.5599 151.13 28.8199 169.94C53.1399 198.08 98.9099 199.7 123.26 173.69C85.3299 151.24 87.5699 97.7898 126.29 77.2998C112.77 54.7598 96.2399 34.6398 77.4499 14.2098V14.1998ZM149.99 84.1698C126.87 84.1698 108.01 103.02 108.01 126.14C108.01 149.25 126.87 168.13 149.98 168.13C173.09 168.13 191.96 149.26 191.97 126.15C191.97 103.03 173.11 84.1698 149.99 84.1698Z" fill="#CBE2D1"/>
<path d="M75.4699 180.13C48.3899 179.41 24.6499 155.64 24.0099 128.59C23.8799 123.27 25.8099 120.4 29.6699 120.19C33.5099 119.97 35.7499 122.7 36.0299 127.96C37.2199 149.96 54.1999 166.9 76.2699 168.12C81.4599 168.41 84.2199 170.72 83.9499 174.56C83.6899 178.37 80.7799 180.28 75.4599 180.14L75.4699 180.13Z" fill="#FF9D48"/>
<path d="M150.18 146.15C139.61 146.25 131.19 137.21 132.03 126.66C132.84 116.4 142.49 108.56 152.63 110.46C155.77 111.05 157.56 110.36 159.5 108.19C161.83 105.59 164.33 103.13 166.93 100.79C169.67 98.33 172.76 98.15 175.39 100.85C178.02 103.55 177.68 106.56 175.26 109.33C174.39 110.33 173.46 111.31 172.46 112.17C168.24 115.81 165.64 119.06 167.53 125.86C170.35 136 160.9 146.03 150.19 146.14L150.18 146.15ZM149.97 134.15C153.57 133.66 155.9 131.77 155.85 128.04C155.81 124.59 153.67 122.41 150.24 122.29C146.55 122.16 144.23 124.33 144.12 128.01C144.01 131.74 146.36 133.64 149.97 134.15Z" fill="#FF9D48"/>
</g>
<defs>
<clipPath id="clip0_19496_34287">
<rect width="204" height="204.21" fill="white"/>
</clipPath>
</defs>
</svg>
