<svg width="22" height="23" viewBox="0 0 22 23" fill="none" xmlns="http://www.w3.org/2000/svg">
<path d="M17.5 4.087H15.75V3.17033C15.75 2.92721 15.6578 2.69406 15.4937 2.52215C15.3296 2.35024 15.1071 2.25366 14.875 2.25366C14.6429 2.25366 14.4204 2.35024 14.2563 2.52215C14.0922 2.69406 14 2.92721 14 3.17033V4.087H8.75V3.17033C8.75 2.92721 8.65781 2.69406 8.49372 2.52215C8.32962 2.35024 8.10706 2.25366 7.875 2.25366C7.64294 2.25366 7.42038 2.35024 7.25628 2.52215C7.09219 2.69406 7 2.92721 7 3.17033V4.087H5.25C4.55381 4.087 3.88613 4.37673 3.39384 4.89245C2.90156 5.40818 2.625 6.10765 2.625 6.837V17.837C2.625 18.5663 2.90156 19.2658 3.39384 19.7815C3.88613 20.2973 4.55381 20.587 5.25 20.587H17.5C18.1962 20.587 18.8639 20.2973 19.3562 19.7815C19.8484 19.2658 20.125 18.5663 20.125 17.837V6.837C20.125 6.10765 19.8484 5.40818 19.3562 4.89245C18.8639 4.37673 18.1962 4.087 17.5 4.087ZM18.375 17.837C18.375 18.0801 18.2828 18.3133 18.1187 18.4852C17.9546 18.6571 17.7321 18.7537 17.5 18.7537H5.25C5.01794 18.7537 4.79538 18.6571 4.63128 18.4852C4.46719 18.3133 4.375 18.0801 4.375 17.837V11.4203H18.375V17.837ZM18.375 9.587H4.375V6.837C4.375 6.59388 4.46719 6.36072 4.63128 6.18881C4.79538 6.01691 5.01794 5.92033 5.25 5.92033H7V6.837C7 7.08011 7.09219 7.31327 7.25628 7.48518C7.42038 7.65708 7.64294 7.75366 7.875 7.75366C8.10706 7.75366 8.32962 7.65708 8.49372 7.48518C8.65781 7.31327 8.75 7.08011 8.75 6.837V5.92033H14V6.837C14 7.08011 14.0922 7.31327 14.2563 7.48518C14.4204 7.65708 14.6429 7.75366 14.875 7.75366C15.1071 7.75366 15.3296 7.65708 15.4937 7.48518C15.6578 7.31327 15.75 7.08011 15.75 6.837V5.92033H17.5C17.7321 5.92033 17.9546 6.01691 18.1187 6.18881C18.2828 6.36072 18.375 6.59388 18.375 6.837V9.587Z" fill="#043A4E"/>
</svg>
