<svg width="28" height="29" viewBox="0 0 28 29" fill="none" xmlns="http://www.w3.org/2000/svg">
<circle cx="14" cy="14.5" r="13.5" fill="#CBE2D1" stroke="#6D597A"/>
<path d="M19.4609 17.9702C19.4609 18.228 19.3652 18.4753 19.1947 18.6576C19.0242 18.84 18.793 18.9424 18.5518 18.9424H10.37C10.1289 18.9424 9.89769 18.84 9.7272 18.6576C9.55672 18.4753 9.46094 18.228 9.46094 17.9702V12.6229C9.46094 12.3651 9.55672 12.1178 9.7272 11.9355C9.89769 11.7531 10.1289 11.6507 10.37 11.6507H12.1882L13.0973 10.1924H15.8246L16.7337 11.6507H18.5518C18.793 11.6507 19.0242 11.7531 19.1947 11.9355C19.3652 12.1178 19.4609 12.3651 19.4609 12.6229V17.9702Z" stroke="#6D597A" stroke-width="1.2" stroke-linecap="round" stroke-linejoin="round"/>
<path d="M14.6797 16.3174C15.3528 16.3174 15.8984 15.7298 15.8984 15.0049C15.8984 14.28 15.3528 13.6924 14.6797 13.6924C14.0066 13.6924 13.4609 14.28 13.4609 15.0049C13.4609 15.7298 14.0066 16.3174 14.6797 16.3174Z" stroke="#6D597A" stroke-width="1.2" stroke-linecap="round" stroke-linejoin="round"/>
</svg>
