<svg width="19" height="18" viewBox="0 0 19 18" fill="none" xmlns="http://www.w3.org/2000/svg">
<g clip-path="url(#clip0_18880_33460)">
<path d="M17.6035 14.25C17.6035 14.6478 17.4455 15.0294 17.1642 15.3107C16.8829 15.592 16.5013 15.75 16.1035 15.75H2.60352C2.20569 15.75 1.82416 15.592 1.54286 15.3107C1.26155 15.0294 1.10352 14.6478 1.10352 14.25V6C1.10352 5.60218 1.26155 5.22064 1.54286 4.93934C1.82416 4.65804 2.20569 4.5 2.60352 4.5H5.60352L7.10352 2.25H11.6035L13.1035 4.5H16.1035C16.5013 4.5 16.8829 4.65804 17.1642 4.93934C17.4455 5.22064 17.6035 5.60218 17.6035 6V14.25Z" stroke="#CBE2D1" stroke-linecap="round" stroke-linejoin="round"/>
<path d="M9.35352 12.75C11.0104 12.75 12.3535 11.4069 12.3535 9.75C12.3535 8.09315 11.0104 6.75 9.35352 6.75C7.69666 6.75 6.35352 8.09315 6.35352 9.75C6.35352 11.4069 7.69666 12.75 9.35352 12.75Z" stroke="#CBE2D1" stroke-linecap="round" stroke-linejoin="round"/>
</g>
<defs>
<clipPath id="clip0_18880_33460">
<rect width="18" height="18" fill="white" transform="translate(0.353516)"/>
</clipPath>
</defs>
</svg>
