<svg width="62" height="60" viewBox="0 0 62 60" fill="none" xmlns="http://www.w3.org/2000/svg">
<path d="M6.5766 45.6015L4.00063 50.6192C3.64419 51.3135 4.18504 52.1303 4.96341 52.0732L10.3455 51.6784C11.0907 51.6237 11.5149 50.8009 11.1272 50.1622L8.32105 45.5393C7.91527 44.8708 6.93374 44.9058 6.5766 45.6015Z" fill="#6D597A"/>
<rect x="1.67969" y="0.768555" width="60.0234" height="59" rx="29.5" fill="#6D597A"/>
<circle cx="31.6916" cy="30.2687" r="25.3615" fill="#043A4E"/>
<path d="M45.9119 36.122C45.5497 36.8566 45.2347 37.6796 44.4783 38.418C43.7316 39.1469 43.8235 39.292 42.1826 39.7853C40.5803 40.2661 38.8296 39.9722 37.2731 40.6603C33.977 42.12 33.7756 46.4756 31.4573 48.8569C29.0368 51.3439 24.2785 51.1968 22.6459 47.8766C21.1619 44.8585 22.6342 40.8713 23.8631 38.0186C25.2343 34.8354 26.1951 31.6467 25.924 28.1207C25.504 22.6473 25.1642 14.7552 30.7975 11.5976C33.4832 10.0916 36.8166 11.5082 39.092 13.1165C43.0569 15.9187 44.7647 17.4419 46.5039 22.011C48.0231 26.0015 48.097 29.2007 46.8501 33.6669C46.8501 33.6669 46.2742 35.3875 45.9119 36.122Z" fill="#6D597A"/>
<path d="M28.0105 32.1193C29.7413 29.7454 28.8674 24.9216 25.5142 24.3529C23.7969 24.0623 22.1456 25.4078 21.5029 26.9298C20.2626 29.8649 23.3709 32.5523 26.0313 33.012C26.8643 33.156 27.5315 32.7767 28.0113 32.1192L28.0105 32.1193Z" fill="#FF9D48"/>
<mask id="path-6-outside-1_8956_26500" maskUnits="userSpaceOnUse" x="14.0042" y="9.92134" width="35.3015" height="43.5211" fill="black">
<rect fill="white" x="14.0042" y="9.92134" width="35.3015" height="43.5211"/>
<path d="M36.6614 26.597C36.5729 26.3317 36.5408 26.0652 36.5398 25.7953C36.5402 25.6607 36.5558 25.5267 36.5797 25.3937C36.6036 25.2616 36.6402 25.1312 36.6925 25.0066C36.7917 24.757 36.9457 24.5307 37.1301 24.3367C37.3156 24.1436 37.5343 23.9845 37.7671 23.8548C38 23.725 38.2467 23.6227 38.4984 23.5362L38.6897 23.4772C38.7524 23.4558 38.821 23.4411 38.8845 23.4286C39.014 23.4026 39.1445 23.3782 39.2754 23.3574C39.537 23.3149 39.8003 23.2813 40.0658 23.2645C40.3315 23.2495 40.5998 23.2441 40.8694 23.2862C41.0039 23.309 41.1394 23.3435 41.2671 23.4144C41.2983 23.4342 41.3304 23.4531 41.3585 23.4786L41.4011 23.5172C41.415 23.533 41.4289 23.5489 41.4414 23.5703C41.4539 23.5908 41.4641 23.6169 41.4667 23.648C41.4693 23.6792 41.4613 23.7122 41.4464 23.7376C41.4165 23.7877 41.3782 23.8115 41.3441 23.8314C41.2048 23.9013 41.071 23.9197 40.9356 23.9391C40.8008 23.9557 40.667 23.9624 40.5329 23.9655C40.2655 23.9708 39.9992 23.9572 39.7336 23.9309C39.4688 23.9037 39.2033 23.8667 38.9436 23.804C38.684 23.7414 38.4258 23.6643 38.1772 23.5523C38.0533 23.4954 37.9323 23.4292 37.8212 23.3434C37.7656 23.3005 37.7124 23.2529 37.6656 23.1967C37.6427 23.169 37.6196 23.1396 37.6008 23.108L37.5936 23.096L37.5895 23.0901C37.5616 23.0457 37.6029 22.9822 37.5978 22.997C37.6019 22.9921 37.6077 22.9863 37.6118 22.9823L37.6194 22.9763C37.6244 22.9723 37.6295 22.9683 37.6329 22.9662C37.6498 22.9541 37.6643 22.9457 37.6788 22.9364C37.9129 22.8002 38.1467 22.6829 38.3831 22.5627C38.624 22.4439 38.8653 22.3403 39.1143 22.2433C39.3634 22.148 39.6191 22.0666 39.8836 22.0158C40.0151 21.9922 40.1484 21.9685 40.291 21.971C40.431 21.9736 40.5814 22.0041 40.7053 22.0934C40.8291 22.1817 40.9092 22.314 40.9552 22.4466C40.9804 22.5126 40.9968 22.5803 41.0105 22.6482C41.0185 22.6799 41.0236 22.7297 41.0157 22.7743C41.0071 22.8217 40.9796 22.8679 40.9454 22.8986C40.8744 22.9601 40.796 22.9756 40.7253 22.9869C40.6536 22.9974 40.5837 22.9979 40.5155 22.9955C40.3779 22.9899 40.2446 22.9706 40.1128 22.9475C39.5882 22.8451 39.0808 22.6901 38.5827 22.5075C38.3341 22.4161 38.0884 22.3173 37.8443 22.2157C37.6011 22.1131 37.3559 22.0089 37.1204 21.8815C36.8873 21.7511 36.6534 21.6101 36.4656 21.4006C36.3745 21.2961 36.2904 21.1686 36.2746 21.012C36.2664 20.9346 36.2794 20.8546 36.311 20.7829C36.3427 20.7121 36.3914 20.6515 36.4464 20.602C36.5014 20.5517 36.5654 20.5141 36.6356 20.4858C36.7079 20.4609 36.7694 20.4468 36.8352 20.4305C36.9652 20.399 37.0947 20.373 37.2252 20.3486C37.4864 20.3008 37.7482 20.2601 38.0118 20.2309C38.5388 20.1689 39.0719 20.1486 39.6033 20.1832C40.134 20.2196 40.6677 20.3132 41.1671 20.5217L41.1697 20.5215C41.2088 20.5389 41.2268 20.5831 41.2104 20.6222C41.2059 20.6324 41.1994 20.641 41.192 20.6488C41.1313 20.705 41.0764 20.7446 41.0142 20.783C40.9538 20.8212 40.8912 20.8552 40.8275 20.8856C40.7 20.9465 40.5689 20.9969 40.4341 21.0351C40.1657 21.114 39.8897 21.1559 39.6136 21.1754C39.3378 21.1975 39.06 21.1866 38.7862 21.1691C38.5141 21.1497 38.2425 21.1266 37.9709 21.1035C37.4286 21.0564 36.8882 21.011 36.3477 21.0077C35.807 21.0008 35.2673 21.0387 34.7309 21.1059C34.4622 21.1391 34.1952 21.1812 33.9286 21.2286C33.797 21.2512 33.6585 21.2762 33.5192 21.2933C33.3798 21.3076 33.2381 21.3167 33.0958 21.308C32.9531 21.3047 32.8101 21.2762 32.6706 21.2368C32.5317 21.1927 32.397 21.125 32.2793 21.0353C32.0377 20.8554 31.8934 20.576 31.8228 20.2993C31.7519 20.019 31.7486 19.7323 31.7744 19.452C31.8039 19.1724 31.8643 18.8973 31.963 18.6316C32.0144 18.4955 32.0768 18.3745 32.1328 18.2515L32.3061 17.8809L32.651 17.1407C32.8785 16.6463 33.1004 16.1496 33.3066 15.648C33.521 15.1573 33.6259 14.622 33.8287 14.1009C33.9298 13.8422 34.0514 13.5818 34.2378 13.3572L34.3079 13.2742C34.3335 13.2478 34.361 13.2231 34.3866 13.1976C34.4368 13.1441 34.4997 13.1039 34.5586 13.0586C34.6188 13.0168 34.6841 12.9844 34.7464 12.9469C34.8119 12.9163 34.8795 12.8883 34.9471 12.8611C35.2221 12.7646 35.5147 12.7392 35.7978 12.7604C36.0817 12.7816 36.3568 12.8465 36.6212 12.9339C37.1519 13.1102 37.6399 13.3753 38.1067 13.6656C38.5719 13.9586 39.0148 14.2849 39.4413 14.6288C39.8668 14.9718 40.2782 15.3384 40.6794 15.7023C41.0944 16.0803 41.4296 16.5214 41.7272 16.9854C42.3211 17.9181 42.6948 18.9705 42.925 20.0421C43.1459 21.1109 43.3368 22.1848 43.638 23.2272C43.7889 23.7474 43.9723 24.2587 44.2039 24.747C44.4347 25.2364 44.7119 25.7021 45.0213 26.1463C45.1004 26.2563 45.176 26.3684 45.2585 26.4764L45.5059 26.7993C45.6715 27.0016 45.8744 27.1901 46.0628 27.3861C46.2538 27.5818 46.4433 27.7804 46.6188 27.9936C46.7065 28.1002 46.791 28.2106 46.8671 28.3281C46.9432 28.4455 47.012 28.5716 47.0527 28.7162C47.0722 28.7882 47.0806 28.8682 47.0669 28.9501C47.0513 29.0312 47.0175 29.0995 46.9788 29.1611C46.9013 29.2851 46.8053 29.39 46.705 29.4871C46.5026 29.6808 46.277 29.8431 46.0408 29.9867C45.8037 30.1294 45.5541 30.2516 45.2892 30.3401C45.1556 30.3817 45.0198 30.4191 44.8781 30.4381C44.7372 30.4561 44.5869 30.4588 44.4396 30.4119C44.3653 30.3903 44.2955 30.3486 44.2322 30.2992C44.2047 30.2701 44.1738 30.2431 44.1513 30.2099C44.1306 30.1767 44.1038 30.1448 44.09 30.1083C44.0556 30.0394 44.0318 29.9589 44.0293 29.8748C44.0259 29.7916 44.0494 29.708 44.0855 29.636C44.2365 29.3417 44.6043 29.2195 44.9102 29.332C45.0628 29.3884 45.1853 29.5046 45.2659 29.6325C45.3492 29.761 45.4011 29.9001 45.4378 30.0388C45.4763 30.1782 45.4962 30.3192 45.5052 30.4593C45.511 30.5288 45.5142 30.5994 45.5138 30.6703C45.5171 30.7418 45.5111 30.8095 45.5078 30.8771C45.4939 31.1501 45.4772 31.4224 45.4686 31.6949L45.4535 32.1034C45.4515 32.2408 45.4395 32.3755 45.4675 32.4969C45.4841 32.5556 45.5026 32.6169 45.5398 32.655C45.5754 32.6951 45.6199 32.7129 45.6683 32.7017C45.7158 32.6915 45.7657 32.6559 45.801 32.6072C45.8402 32.5618 45.8676 32.503 45.8913 32.4445C45.9123 32.3844 45.9295 32.322 45.9393 32.2575C45.9519 32.1936 45.9549 32.1324 45.9411 32.0752C45.9284 32.0189 45.8993 31.9711 45.8535 31.9381C45.8086 31.9042 45.7497 31.8858 45.689 31.8774C45.565 31.8618 45.4353 31.886 45.3087 31.9253C45.183 31.9645 45.0604 32.0196 44.9429 32.0824C44.708 32.2096 44.4841 32.3709 44.2365 32.4948C44.1127 32.5572 43.9836 32.6101 43.8508 32.6499C43.7197 32.6896 43.5874 32.7248 43.4529 32.7558C43.1857 32.8176 42.8081 32.7875 42.5341 32.8104L42.5686 32.7763C42.9082 33.0556 43.3651 33.3453 43.7416 33.574C43.9302 33.6874 44.1236 33.7933 44.3238 33.8833C44.5237 33.9707 44.7317 34.0484 44.9443 34.0737C45.0501 34.0855 45.1588 34.0889 45.2586 34.0609C45.3594 34.0345 45.4462 33.9788 45.513 33.8997C45.5799 33.8214 45.622 33.7246 45.6226 33.6241C45.6214 33.5238 45.5817 33.4239 45.5234 33.3382C45.4042 33.1651 45.2179 33.0372 45.0193 32.9649C44.9187 32.9294 44.8131 32.9095 44.7094 32.9128C44.6057 32.9152 44.5035 32.9461 44.4225 33.0067C44.3406 33.0665 44.2836 33.1556 44.2488 33.2536C44.2131 33.3516 44.1988 33.4596 44.1978 33.5664C44.1951 33.6734 44.2068 33.7809 44.2292 33.8876C44.2497 33.9935 44.2826 34.0984 44.319 34.2013C44.4706 34.612 44.7029 34.9909 44.9215 35.3763C45.0307 35.569 45.141 35.7634 45.2367 35.9653C45.3324 36.1673 45.418 36.3772 45.4653 36.6002C45.5142 36.8213 45.5164 37.0615 45.4471 37.2826C45.3804 37.5034 45.2618 37.7026 45.1216 37.8794C44.8376 38.2332 44.4718 38.5087 44.0785 38.7236C43.6843 38.9377 43.2574 39.0927 42.8165 39.1762C42.3764 39.2596 41.9151 39.2712 41.4741 39.1824C41.0331 39.1044 40.6025 38.9789 40.186 38.8182C39.3519 38.4958 38.5788 38.0455 37.8257 37.5773L36.7005 36.8694C36.3244 36.6352 35.9467 36.4031 35.5736 36.1624C34.8284 35.6811 34.0964 35.1645 33.4597 34.535C33.3805 34.4555 33.3006 34.3779 33.2264 34.2944C33.1505 34.2119 33.0747 34.1303 33.0047 34.0429L32.8972 33.9137C32.8622 33.87 32.8304 33.8224 32.7962 33.7768C32.7259 33.6867 32.6736 33.5861 32.6145 33.4888C32.5107 33.2876 32.4171 33.0783 32.3646 32.8566C32.3295 32.7483 32.3191 32.6335 32.2963 32.5223C32.2896 32.409 32.2711 32.2957 32.2786 32.1811C32.2772 31.7247 32.4261 31.2655 32.7036 30.8988C32.7807 30.8134 32.8481 30.7198 32.938 30.6477C32.9814 30.61 33.0219 30.5699 33.0674 30.5347L33.2079 30.4368L33.2782 30.3879L33.3527 30.3467L33.5017 30.2643L33.6572 30.1957C33.7089 30.1716 33.7609 30.1502 33.8151 30.134L33.9762 30.0793L34.1412 30.0377C34.2505 30.0062 34.3634 29.9958 34.4746 29.9749C34.6993 29.9516 34.9256 29.9372 35.15 29.9526C35.6004 29.9724 36.0425 30.0736 36.4673 30.2157C36.8916 30.3615 37.2985 30.5571 37.6755 30.802C38.0516 31.0468 38.3953 31.3437 38.6922 31.6805C39.2879 32.3564 39.6997 33.1679 40.019 33.9979C40.3306 34.8331 40.6043 35.6759 40.8617 36.5263C41.1173 37.3769 41.3467 38.2359 41.5445 39.1021C41.5529 39.1382 41.5317 39.1749 41.4959 39.1851L41.495 39.1852C41.2222 39.2663 40.9506 39.3715 40.687 39.4859C40.4234 39.6012 40.1645 39.7305 39.919 39.8801C39.6734 40.028 39.4354 40.1923 39.2258 40.3857L39.1457 40.4569C39.119 40.4807 39.0963 40.5086 39.0715 40.534C39.0239 40.5864 38.9726 40.6365 38.9269 40.6905L38.7986 40.8591C38.7757 40.8861 38.7577 40.9163 38.7405 40.9474L38.6873 41.0388L38.634 41.1303L38.5884 41.2283C38.5589 41.2936 38.5258 41.3582 38.4991 41.425L38.4173 41.6247L38.3428 41.8274C38.2482 42.0999 38.173 42.3789 38.1015 42.6603C38.0301 42.9416 37.9598 43.2265 37.8685 43.5068C37.7782 43.7871 37.6649 44.0612 37.53 44.3227C37.4649 44.4555 37.3867 44.5805 37.314 44.7076C37.2383 44.8315 37.1636 44.9552 37.0917 45.0814C36.9469 45.3321 36.8105 45.5866 36.6963 45.85C36.5821 46.1134 36.4902 46.3857 36.4303 46.6661C36.3687 46.9467 36.3326 47.2332 36.3065 47.5215C36.2794 47.809 36.2679 48.1006 36.2377 48.3929C36.2092 48.6841 36.1699 48.9753 36.1161 49.2642C36.0074 49.8402 35.8457 50.4135 35.567 50.9382C35.5484 50.9729 35.5064 50.9854 35.4717 50.9668C35.4521 50.9568 35.4398 50.9381 35.4355 50.9187L35.4353 50.916C35.3924 50.6926 35.3295 50.4656 35.2635 50.2432C35.1965 50.0201 35.1216 49.7994 35.0424 49.5799C34.883 49.1411 34.7036 48.7094 34.5104 48.2842C34.1172 47.4379 33.6858 46.5948 33.4024 45.6901C33.2643 45.2378 33.1665 44.7643 33.1793 44.2842C33.1845 44.0461 33.211 43.8061 33.2659 43.5728C33.3199 43.3404 33.3926 43.1164 33.4518 42.8917C33.5119 42.6678 33.5584 42.4423 33.5637 42.2158C33.568 41.9885 33.539 41.7595 33.4976 41.5315C33.4139 41.0765 33.2853 40.6091 33.3225 40.1216L33.3631 39.7711C33.3804 39.6566 33.3771 39.5412 33.3845 39.4266C33.3866 39.3116 33.3796 39.1965 33.3745 39.0812L33.3557 38.9096L33.3467 38.8234L33.3315 38.7385C33.255 38.2829 33.1026 37.8426 32.9113 37.4182C32.7217 36.9927 32.5017 36.5796 32.2876 36.1615C32.1814 35.9515 32.0735 35.7434 31.9749 35.5274C31.8772 35.3122 31.7881 35.0927 31.7085 34.8697C31.3921 33.9775 31.2123 33.047 31.0878 32.1138C31.0298 31.645 30.9988 31.1775 30.9396 30.7151C30.8813 30.2535 30.7902 29.7946 30.62 29.3666C30.2558 28.5134 29.7716 27.7035 29.2039 26.9669C28.633 26.2341 27.9675 25.5595 27.1734 25.0831C26.7731 24.8483 26.3564 24.6329 25.9238 24.4726C25.7068 24.3956 25.4845 24.3289 25.2602 24.3037C25.0366 24.2757 24.8067 24.2905 24.6111 24.383C24.4126 24.4732 24.2708 24.6528 24.1783 24.8543C24.0898 25.0599 24.0423 25.2854 24.0193 25.5134C23.9981 25.7421 23.9958 25.9729 24.0167 26.2017C24.0376 26.4305 24.086 26.6561 24.1536 26.8756C24.2863 27.3166 24.5148 27.7245 24.7911 28.0934C25.0708 28.4612 25.4069 28.7839 25.761 29.088C26.1144 29.3931 26.482 29.6862 26.8294 30.0061C27.0032 30.1665 27.1712 30.3337 27.3284 30.5108C27.4874 30.6877 27.6298 30.8803 27.7649 31.0708C27.9008 31.2613 28.035 31.4519 28.188 31.6213C28.34 31.7898 28.5163 31.9374 28.7219 32.0073C28.9269 32.0807 29.1545 32.0483 29.362 31.9699C29.5719 31.8869 29.7662 31.7684 29.8872 31.587C30.1379 31.2306 30.02 30.6771 29.6729 30.4262C29.5872 30.3652 29.4874 30.3286 29.3864 30.3308C29.287 30.3319 29.1846 30.371 29.1149 30.4378C29.0435 30.5057 28.9989 30.6045 28.9755 30.7105C28.9512 30.8166 28.9437 30.9302 28.9442 31.0432C28.9537 31.5008 29.0576 31.9613 29.1505 32.4191C29.1983 32.6483 29.2471 32.8784 29.2889 33.1108C29.3295 33.3505 29.3215 33.6086 29.2325 33.8403C29.149 34.0743 29.0053 34.2737 28.8604 34.459C28.7147 34.6452 28.5582 34.8206 28.4335 35.0104C28.3076 35.1977 28.2168 35.4089 28.1518 35.6287C28.0879 35.8493 28.046 36.078 28.0079 36.3081C27.9315 36.7666 27.8785 37.2465 27.6809 37.6909C27.5835 37.9089 27.4511 38.1254 27.2666 38.287C27.086 38.4519 26.8753 38.5789 26.6547 38.6727C26.2119 38.8622 25.7387 38.9457 25.2695 38.992C24.7986 39.0377 24.3268 39.0421 23.8574 39.031L23.1542 39.0099C22.9177 39.0001 22.6778 38.9807 22.4452 38.931C22.2119 38.8832 21.982 38.8226 21.7593 38.7416C21.5352 38.6643 21.3168 38.5705 21.104 38.4671C20.6781 38.2596 20.2739 38.0108 19.894 37.7304C19.5132 37.4509 19.1541 37.1418 18.8207 36.8072C18.4864 36.4736 18.177 36.1147 17.8995 35.7315C17.6203 35.3493 17.3766 34.9409 17.1784 34.5098C17.0824 34.2927 16.9958 34.0712 16.9282 33.8418C16.8626 33.614 16.8076 33.3836 16.7631 33.1514C16.7203 32.9181 16.6881 32.6831 16.6666 32.4472C16.6478 32.2111 16.6397 31.974 16.644 31.7368C16.6511 31.4994 16.6698 31.2628 16.7022 31.0278C16.7372 30.7925 16.7858 30.5597 16.8482 30.3303C16.983 29.8741 17.1543 29.4372 17.322 28.9989C17.6612 28.1265 17.9972 27.248 18.098 26.321C18.2105 25.394 18.2335 24.4564 18.1957 23.5222C18.1773 23.0546 18.1446 22.5881 18.1003 22.1218L18.0293 21.4217C18.0051 21.186 17.9987 20.9489 17.9987 20.712C18.0084 20.2385 18.0627 19.7621 18.1955 19.3043L18.2466 19.1332C18.2652 19.0769 18.2866 19.0213 18.3069 18.9649C18.3449 18.8514 18.3969 18.7447 18.4442 18.6349C18.549 18.4208 18.6632 18.2103 18.8057 18.0181C18.9406 17.8211 19.1023 17.6435 19.27 17.4743C19.4381 17.3104 19.6082 17.1482 19.7794 16.9877C20.1217 16.6667 20.4717 16.3531 20.8229 16.0421C21.1731 15.7302 21.5255 15.4227 21.864 15.1002C22.0343 14.9407 22.1978 14.7745 22.3603 14.6067C22.5217 14.4371 22.6712 14.264 22.832 14.0865C23.1539 13.7366 23.5253 13.432 23.9361 13.1914C24.346 12.9499 24.7917 12.7737 25.249 12.6502C25.2867 12.6399 25.3253 12.6627 25.3356 12.6995C25.3459 12.7372 25.3231 12.7759 25.2864 12.7862C24.8384 12.9034 24.4037 13.0725 24.0029 13.3042C23.602 13.535 23.2378 13.8292 22.9212 14.1687C22.7652 14.3387 22.6093 14.5204 22.4478 14.6891C22.2836 14.858 22.1184 15.0252 21.9473 15.1857C21.6061 15.5093 21.253 15.8178 20.9018 16.1288C20.5506 16.4389 20.2012 16.7506 19.8598 17.0707C19.5214 17.395 19.1635 17.7011 18.9007 18.0828C18.763 18.2692 18.6512 18.4741 18.5485 18.6819C18.5027 18.7888 18.4514 18.8927 18.415 19.0034C18.3953 19.0579 18.3738 19.1118 18.3561 19.1671L18.3064 19.3345C18.1762 19.7813 18.122 20.2478 18.1117 20.7134C18.1013 21.1798 18.1705 21.6432 18.215 22.1113C18.2611 22.5784 18.2941 23.0475 18.3145 23.5176C18.3544 24.4562 18.3338 25.3998 18.2229 26.3357C18.1726 26.8055 18.0625 27.2686 17.9254 27.7187C17.7875 28.1698 17.62 28.6098 17.4542 29.048C17.2901 29.486 17.1198 29.9254 16.9948 30.37C16.9365 30.5938 16.8927 30.8208 16.8608 31.0495C16.8315 31.2789 16.8159 31.5099 16.8119 31.7408C16.8097 31.9715 16.8209 32.2029 16.841 32.4326C16.8638 32.6631 16.8982 32.8916 16.9421 33.1176C16.987 33.3444 17.0469 33.5681 17.1136 33.7877C17.182 34.0054 17.2687 34.2179 17.3649 34.4252C17.7671 35.2509 18.3548 35.9805 19.0233 36.6055C19.3577 36.9194 19.7141 37.2072 20.0887 37.4665C20.4625 37.7268 20.8568 37.9531 21.2655 38.1379C21.6718 38.3264 22.0951 38.4714 22.5228 38.5505L22.6828 38.5793L22.843 38.5982C22.8965 38.6063 22.9495 38.6081 23.0035 38.6108C23.0583 38.6134 23.1071 38.6183 23.1681 38.6186L23.8675 38.6373C24.3289 38.649 24.7864 38.6458 25.2344 38.6039C25.6807 38.5621 26.121 38.4823 26.5051 38.3183C26.6972 38.2377 26.8694 38.1327 27.011 38.0043C27.1573 37.879 27.2519 37.7249 27.3401 37.5363C27.5115 37.165 27.5708 36.716 27.6508 36.2473C27.6912 36.0125 27.7363 35.7701 27.81 35.5254C27.8837 35.2815 27.9903 35.0349 28.1437 34.8131C28.293 34.5943 28.4516 34.4232 28.5935 34.2453C28.7348 34.0703 28.8568 33.9013 28.9209 33.7246C28.9914 33.5501 29 33.3628 28.971 33.1661C28.9344 32.9422 28.8874 32.712 28.8431 32.4824C28.7979 32.2521 28.7525 32.0191 28.7156 31.7808C28.6795 31.5425 28.6476 31.3003 28.6477 31.0438C28.6486 30.9154 28.6572 30.7819 28.6912 30.6418C28.706 30.5724 28.7331 30.5002 28.7674 30.4282C28.8054 30.3569 28.8514 30.2858 28.9171 30.2256C28.9812 30.1664 29.0585 30.1169 29.1378 30.0896C29.2158 30.0589 29.2997 30.0438 29.3838 30.0431C29.4687 30.0405 29.5518 30.0586 29.6291 30.0836C29.7049 30.1113 29.7752 30.1485 29.8372 30.1936C30.0826 30.3758 30.22 30.637 30.2735 30.9125C30.3277 31.1869 30.2728 31.4947 30.1071 31.731C30.0256 31.849 29.9218 31.9474 29.8082 32.0242C29.7524 32.0638 29.6924 32.0966 29.6339 32.1249L29.4558 32.2025C29.394 32.2247 29.3282 32.241 29.2644 32.2598C29.2005 32.2777 29.129 32.28 29.0618 32.2901C28.9933 32.2959 28.9218 32.2875 28.8526 32.2852C28.7842 32.2703 28.7143 32.2591 28.6487 32.2358C28.3829 32.1423 28.1814 31.96 28.0172 31.7755C27.8529 31.5883 27.7181 31.3905 27.5847 31.198C27.4521 31.0046 27.3204 30.8218 27.1698 30.6496C27.021 30.4763 26.8603 30.3121 26.6921 30.1531C26.3564 29.8348 25.9915 29.5415 25.6367 29.2293C25.2812 28.92 24.9359 28.5837 24.6485 28.1986C24.3637 27.8134 24.129 27.3845 23.9926 26.9213C23.9241 26.6902 23.8756 26.453 23.8546 26.2125C23.8345 25.972 23.8386 25.7312 23.8625 25.4924C23.8892 25.2543 23.9399 25.0141 24.0401 24.7869C24.0935 24.6748 24.1588 24.567 24.2432 24.4721C24.3266 24.3772 24.433 24.2992 24.5476 24.2457C24.7796 24.1375 25.0364 24.1233 25.2774 24.1453C25.5211 24.1662 25.756 24.2228 25.9873 24.2896C26.2187 24.3564 26.4435 24.4417 26.6636 24.5346C26.8854 24.6273 27.0972 24.7289 27.3071 24.8495C27.5187 24.97 27.72 25.1065 27.9082 25.2577C28.0032 25.3323 28.0981 25.4069 28.1873 25.4882C28.2781 25.5668 28.369 25.6471 28.454 25.7315C28.8007 26.064 29.1174 26.4242 29.4079 26.8027C29.6984 27.1812 29.9645 27.5779 30.2048 27.9884C30.4471 28.4006 30.6588 28.8224 30.8432 29.2717C31.0203 29.7297 31.1088 30.2094 31.1633 30.6802C31.2189 31.1528 31.2446 31.6216 31.2965 32.082C31.4093 33.0037 31.576 33.9263 31.8768 34.8036C31.9524 35.0224 32.0368 35.2387 32.1305 35.4498C32.2234 35.6609 32.3314 35.8699 32.4348 36.0792C32.6453 36.4967 32.8647 36.9134 33.055 37.3479C33.2469 37.7795 33.4023 38.2347 33.4785 38.7074L33.494 38.7958L33.5032 38.8847L33.5216 39.0626C33.5262 39.1815 33.5326 39.3012 33.53 39.4207C33.5221 39.5398 33.524 39.6599 33.5061 39.778L33.4644 40.1259C33.4272 40.5811 33.5503 41.0364 33.6356 41.4993C33.6774 41.7318 33.7081 41.9705 33.7032 42.2122C33.6966 42.455 33.6473 42.6914 33.5849 42.92C33.5234 43.1485 33.4515 43.3716 33.3986 43.5958C33.3447 43.8192 33.3199 44.0482 33.3142 44.2801C33.3017 44.7422 33.3946 45.2 33.5294 45.6445C33.6677 46.0886 33.8446 46.5224 34.0343 46.9497C34.2233 47.3779 34.4329 47.7964 34.6273 48.2251C34.8217 48.6538 35.0013 49.0882 35.161 49.5315C35.2404 49.7527 35.3164 49.976 35.3837 50.2018C35.451 50.4285 35.5128 50.6539 35.5576 50.8897L35.4631 50.8742C35.7342 50.3663 35.8951 49.8038 36.0026 49.236C36.0559 48.9517 36.0955 48.664 36.1243 48.3754C36.154 48.0877 36.1664 47.7969 36.1931 47.5049C36.219 47.2139 36.2556 46.9229 36.3176 46.6352C36.3786 46.3475 36.4726 46.067 36.5898 45.797C36.7061 45.5272 36.8449 45.2689 36.9903 45.0154C37.1347 44.7603 37.2955 44.5181 37.4245 44.2615C37.5564 44.0056 37.6657 43.7382 37.7547 43.4634C37.8438 43.1886 37.9125 42.9066 37.9839 42.6244C38.1239 42.0592 38.2942 41.4915 38.5777 40.9717L38.6341 40.8746C38.652 40.8418 38.6717 40.8096 38.6953 40.7807L38.83 40.6026C38.8772 40.5458 38.9302 40.4938 38.9802 40.4385C39.0058 40.4121 39.0302 40.3832 39.0577 40.3584L39.1402 40.2843C39.3573 40.0831 39.6012 39.9148 39.8528 39.7628C40.1033 39.6091 40.3665 39.4777 40.6353 39.3601C40.904 39.2426 41.1765 39.1373 41.4606 39.0526L41.4159 39.1281C41.2175 38.2656 40.9875 37.4101 40.7312 36.5623C40.4734 35.7164 40.2011 34.8699 39.8772 34.0493C39.545 33.2356 39.1162 32.456 38.5293 31.8223C37.9451 31.1876 37.2047 30.7211 36.3925 30.4355C35.9874 30.2944 35.5668 30.1923 35.1405 30.1615C34.9274 30.1407 34.7141 30.1505 34.5013 30.1664C34.3961 30.1833 34.2892 30.1904 34.1858 30.2179L34.0302 30.2533L33.8774 30.3011C33.8257 30.3153 33.7763 30.3346 33.727 30.3558L33.5789 30.4166L33.4372 30.4903L33.3659 30.5268L33.2997 30.5709L33.1673 30.6582C33.1251 30.6895 33.086 30.726 33.0459 30.7598C32.9608 30.8244 32.8972 30.9104 32.8248 30.9873C32.7925 31.0295 32.7639 31.074 32.7336 31.1178L32.688 31.1835L32.6509 31.2539C32.6271 31.3016 32.6005 31.3478 32.5785 31.3963L32.5221 31.5463C32.4585 31.7499 32.4171 31.9624 32.4199 32.1783C32.4118 32.2857 32.4297 32.3928 32.4369 32.4998C32.4592 32.6056 32.4699 32.7133 32.5036 32.8163C32.5543 33.0265 32.6451 33.2234 32.7444 33.4143C32.8013 33.5055 32.8514 33.6018 32.9185 33.6859C32.9507 33.7289 32.9804 33.7731 33.0153 33.815L33.1216 33.9407C33.1905 34.0256 33.2662 34.1054 33.34 34.1853C33.4131 34.2671 33.4921 34.343 33.5701 34.4199C34.1992 35.033 34.9321 35.528 35.6788 35.9949C36.053 36.2282 36.4337 36.453 36.8147 36.6813L37.9509 37.3704C38.7032 37.8297 39.4671 38.2664 40.2775 38.5728C40.6825 38.7247 41.0945 38.8526 41.5174 38.9276C41.9331 39.014 42.3525 39.005 42.7699 38.9298C43.1857 38.8556 43.5933 38.7166 43.9692 38.5192C44.3442 38.322 44.6928 38.0659 44.9581 37.7459C45.0891 37.587 45.1979 37.4092 45.2574 37.2213C45.3198 37.0349 45.322 36.8364 45.2818 36.6344C45.2435 36.4321 45.1658 36.2323 45.0752 36.0371C44.9845 35.8411 44.8797 35.6489 44.7722 35.456C44.559 35.0693 44.327 34.6832 44.1725 34.2494C44.098 34.0331 44.0384 33.8022 44.0451 33.5603C44.0467 33.4409 44.0625 33.3193 44.1063 33.2C44.1484 33.0816 44.2228 32.9642 44.3327 32.885C44.4415 32.8051 44.5753 32.7661 44.7015 32.7645C44.8284 32.7611 44.9506 32.7859 45.0642 32.8266C45.2906 32.91 45.4958 33.0498 45.6384 33.2559C45.7079 33.3586 45.7597 33.4853 45.7612 33.6215C45.761 33.7588 45.7013 33.8911 45.6179 33.9869C45.5366 34.0852 45.4157 34.1617 45.292 34.1926C45.1676 34.2264 45.0436 34.2215 44.926 34.208C44.6897 34.1784 44.474 34.095 44.2666 34.0038C44.06 33.9107 43.8627 33.8007 43.6711 33.6848C43.2887 33.4504 42.9275 33.1899 42.5793 32.9041C42.5418 32.874 42.45 32.7876 42.4809 32.75C42.4964 32.7308 42.5768 32.7228 42.5999 32.7209L42.6405 32.7175C42.9074 32.6952 43.1604 32.686 43.4223 32.6256C43.5533 32.5958 43.683 32.5608 43.8114 32.5222C43.9382 32.4847 44.0586 32.4352 44.1764 32.376C44.4137 32.2575 44.6335 32.1001 44.8793 31.9648C45.0028 31.8988 45.1314 31.8406 45.2677 31.7987C45.4021 31.7569 45.5501 31.7266 45.7031 31.7462C45.7792 31.7559 45.8591 31.7798 45.9279 31.8305C45.9974 31.8804 46.0472 31.9614 46.0647 32.0425C46.084 32.1234 46.0782 32.2046 46.0644 32.2748C46.0534 32.3466 46.0351 32.4172 46.0095 32.4866C45.9821 32.5553 45.9494 32.6244 45.8989 32.6852C45.8521 32.7465 45.7842 32.8033 45.6928 32.8244C45.671 32.8316 45.6469 32.8318 45.6226 32.8302C45.6108 32.8294 45.5982 32.8287 45.5865 32.827L45.5524 32.8155L45.519 32.8021C45.5095 32.7957 45.5 32.7893 45.4904 32.7821C45.4723 32.7683 45.4523 32.7547 45.441 32.7369C45.3808 32.671 45.3601 32.5947 45.3388 32.522C45.3312 32.485 45.3273 32.4485 45.3216 32.4122C45.3185 32.3757 45.3191 32.3398 45.3178 32.3031C45.3172 32.2314 45.3207 32.1656 45.3222 32.0973L45.3311 31.6893L45.3489 30.8724C45.3503 30.8041 45.3536 30.7357 45.3481 30.6706C45.3462 30.6044 45.3416 30.5384 45.3334 30.4727C45.3205 30.3401 45.2971 30.2093 45.2606 30.0841C45.2251 29.9588 45.1755 29.8374 45.105 29.7329C45.0345 29.6294 44.943 29.5419 44.8343 29.4954C44.7257 29.4497 44.6016 29.4439 44.4903 29.4846C44.3788 29.5227 44.2826 29.6042 44.232 29.7063C44.1796 29.8084 44.1831 29.9256 44.2351 30.0334C44.2585 30.088 44.2945 30.1334 44.3347 30.174C44.3797 30.2097 44.4281 30.2416 44.4851 30.2592C44.5986 30.2982 44.7287 30.3017 44.8566 30.2874C44.9853 30.2731 45.1143 30.2417 45.24 30.2016C45.4919 30.1177 45.7347 30.0006 45.9651 29.8629C46.1945 29.7244 46.4143 29.567 46.6068 29.3841C46.7022 29.2927 46.7925 29.1937 46.8605 29.0857C46.8945 29.0318 46.9211 28.9748 46.9326 28.9191C46.9424 28.8645 46.9381 28.803 46.9215 28.7434C46.8881 28.6223 46.8262 28.5037 46.7542 28.3922C46.6822 28.2807 46.6006 28.1727 46.5158 28.0686C46.3452 27.8604 46.1584 27.6625 45.9693 27.4674C45.7808 27.2706 45.5819 27.0872 45.4042 26.8697L45.1557 26.5433C45.0723 26.4345 44.9965 26.3206 44.9164 26.2098C44.6031 25.7615 44.3174 25.291 44.0817 24.7958C44.0204 24.6736 43.9659 24.5471 43.9124 24.4206C43.8553 24.2953 43.8096 24.1664 43.7578 24.0398C43.7336 23.9754 43.7051 23.9132 43.6801 23.8489C43.655 23.7846 43.63 23.7212 43.6023 23.658C43.5461 23.5318 43.4968 23.4031 43.4467 23.2745C43.3947 23.1461 43.3498 23.0162 43.3101 22.8841C43.2696 22.7529 43.2343 22.6195 43.2052 22.4856C43.1416 22.2182 43.0897 21.9498 43.0438 21.6801C42.9496 21.1416 42.8862 20.597 42.7904 20.0614C42.7631 19.9282 42.7395 19.7948 42.7096 19.6627C42.6771 19.5309 42.6236 19.4053 42.5789 19.2771C42.5368 19.1488 42.4921 19.0207 42.4457 18.8945C42.3983 18.7674 42.3572 18.639 42.3038 18.5152C42.1077 18.0122 41.8639 17.5275 41.5716 17.0747C41.2796 16.6245 40.9435 16.1933 40.5494 15.8405C40.14 15.4755 39.735 15.12 39.309 14.7824C38.8849 14.4456 38.4479 14.1251 37.9904 13.8394C37.5323 13.5566 37.0549 13.3004 36.5493 13.1354C36.297 13.0533 36.0385 12.9933 35.779 12.9755C35.5194 12.9568 35.2591 12.9821 35.0198 13.0667C34.9609 13.0914 34.903 13.1159 34.8451 13.1423C34.7914 13.1746 34.7328 13.2028 34.6821 13.2385C34.6333 13.2766 34.5796 13.3098 34.5369 13.3555C34.5145 13.3771 34.4911 13.3979 34.4688 13.4204L34.4077 13.4928C34.2439 13.6877 34.1287 13.9279 34.0319 14.1745C33.8367 14.669 33.7272 15.2128 33.5037 15.723C33.2942 16.2285 33.0698 16.7272 32.8397 17.2218L32.4921 17.9622L32.3178 18.332C32.2601 18.4561 32.1977 18.5779 32.1531 18.6974C32.0606 18.9419 32.0028 19.2042 31.9736 19.4659C31.9479 19.7273 31.9514 19.9943 32.0144 20.2438C32.0763 20.4916 32.1987 20.7245 32.3975 20.8738C32.4961 20.949 32.6075 21.0061 32.7281 21.0454C32.8501 21.0791 32.976 21.1063 33.1062 21.1098C33.235 21.1187 33.3669 21.1104 33.4975 21.0977C33.6279 21.0823 33.7586 21.0598 33.8947 21.0367C34.1639 20.9891 34.4347 20.9486 34.707 20.916C35.2507 20.8508 35.8003 20.8139 36.3485 20.8237C36.8973 20.8299 37.4432 20.8776 37.9849 20.9275C38.2557 20.9524 38.5265 20.9764 38.7969 20.9969C39.0663 21.0148 39.3342 21.0265 39.6013 21.0068C39.8677 20.9891 40.1332 20.9499 40.3878 20.8766C40.5156 20.8408 40.6388 20.7937 40.7578 20.738C40.8173 20.7097 40.8747 20.6789 40.9292 20.6448C40.9838 20.6124 41.0386 20.571 41.0785 20.5345L41.1034 20.6607C40.6288 20.459 40.1103 20.3651 39.5912 20.3277C39.0713 20.2913 38.546 20.3092 38.0259 20.3679C37.7657 20.395 37.5067 20.4363 37.249 20.483C37.1202 20.5072 36.9925 20.5331 36.866 20.5634C36.8046 20.5784 36.737 20.5948 36.6847 20.6126C36.6328 20.634 36.5815 20.6643 36.5391 20.7029C36.4523 20.7792 36.4011 20.8848 36.4137 20.9932C36.4229 21.1028 36.4891 21.2094 36.5702 21.3013C36.7362 21.4865 36.9601 21.6257 37.1856 21.7513C37.4136 21.8749 37.6542 21.9768 37.8975 22.0794C38.1398 22.1811 38.3835 22.2783 38.6302 22.368C39.1218 22.5485 39.6264 22.7011 40.1364 22.8011C40.2637 22.8237 40.3925 22.8425 40.5183 22.8472C40.5812 22.8492 40.6438 22.8484 40.7022 22.84C40.7607 22.8324 40.8166 22.8143 40.8457 22.7876C40.8731 22.762 40.8787 22.7328 40.8657 22.6729C40.8525 22.6112 40.8384 22.5505 40.8166 22.4931C40.7756 22.3772 40.7106 22.275 40.6182 22.2092C40.5258 22.1433 40.4071 22.1165 40.2851 22.1141C40.163 22.1108 40.0349 22.1332 39.9079 22.1564C39.6549 22.2053 39.4061 22.2835 39.1631 22.3774C38.921 22.472 38.6782 22.5784 38.4478 22.6945C38.2151 22.8145 37.9779 22.9356 37.7568 23.0662C37.7441 23.0745 37.7304 23.0828 37.7203 23.0899C37.7169 23.092 37.7152 23.0939 37.7144 23.0949L37.7119 23.0969C37.7119 23.0969 37.716 23.0929 37.7177 23.091C37.7093 23.1088 37.7501 23.0497 37.7216 23.0091L37.7246 23.0133L37.7308 23.0226C37.7454 23.0474 37.7634 23.0702 37.7823 23.0928C37.8201 23.1381 37.8656 23.1782 37.9153 23.2154C38.0138 23.2897 38.1255 23.3512 38.2419 23.4034C38.4746 23.5086 38.7259 23.5791 38.9794 23.6324C39.4874 23.7398 40.0095 23.802 40.5288 23.799C40.6586 23.7972 40.788 23.7917 40.9149 23.7775C41.04 23.7626 41.1718 23.7426 41.27 23.695C41.2932 23.6832 41.3107 23.6682 41.3155 23.6607C41.3186 23.655 41.3198 23.6585 41.312 23.6403C41.3086 23.6325 41.2998 23.6234 41.2928 23.6141L41.2627 23.5861C41.2431 23.5671 41.2176 23.5513 41.1939 23.5354C41.0922 23.4757 40.9692 23.4402 40.8454 23.4165C40.5942 23.3702 40.3316 23.3679 40.0719 23.3797C39.8113 23.3916 39.5502 23.4197 39.2908 23.4557C39.1607 23.4746 39.0316 23.4953 38.9027 23.5186L38.8067 23.5374C38.7775 23.5425 38.7445 23.5543 38.7138 23.5622L38.5257 23.6165C38.2781 23.6982 38.0346 23.7965 37.8058 23.9215C37.5771 24.0465 37.3632 24.1989 37.1825 24.3844C37.0018 24.5699 36.8497 24.7863 36.7599 25.0306C36.5699 25.512 36.598 26.0739 36.7909 26.5395L36.7932 26.5447C36.8079 26.5812 36.7907 26.6221 36.7552 26.6367C36.7197 26.6513 36.6779 26.6342 36.6633 26.5986C36.6631 26.5968 36.6621 26.5951 36.662 26.5942L36.6614 26.597Z"/>
</mask>
<path d="M36.6614 26.597C36.5729 26.3317 36.5408 26.0652 36.5398 25.7953C36.5402 25.6607 36.5558 25.5267 36.5797 25.3937C36.6036 25.2616 36.6402 25.1312 36.6925 25.0066C36.7917 24.757 36.9457 24.5307 37.1301 24.3367C37.3156 24.1436 37.5343 23.9845 37.7671 23.8548C38 23.725 38.2467 23.6227 38.4984 23.5362L38.6897 23.4772C38.7524 23.4558 38.821 23.4411 38.8845 23.4286C39.014 23.4026 39.1445 23.3782 39.2754 23.3574C39.537 23.3149 39.8003 23.2813 40.0658 23.2645C40.3315 23.2495 40.5998 23.2441 40.8694 23.2862C41.0039 23.309 41.1394 23.3435 41.2671 23.4144C41.2983 23.4342 41.3304 23.4531 41.3585 23.4786L41.4011 23.5172C41.415 23.533 41.4289 23.5489 41.4414 23.5703C41.4539 23.5908 41.4641 23.6169 41.4667 23.648C41.4693 23.6792 41.4613 23.7122 41.4464 23.7376C41.4165 23.7877 41.3782 23.8115 41.3441 23.8314C41.2048 23.9013 41.071 23.9197 40.9356 23.9391C40.8008 23.9557 40.667 23.9624 40.5329 23.9655C40.2655 23.9708 39.9992 23.9572 39.7336 23.9309C39.4688 23.9037 39.2033 23.8667 38.9436 23.804C38.684 23.7414 38.4258 23.6643 38.1772 23.5523C38.0533 23.4954 37.9323 23.4292 37.8212 23.3434C37.7656 23.3005 37.7124 23.2529 37.6656 23.1967C37.6427 23.169 37.6196 23.1396 37.6008 23.108L37.5936 23.096L37.5895 23.0901C37.5616 23.0457 37.6029 22.9822 37.5978 22.997C37.6019 22.9921 37.6077 22.9863 37.6118 22.9823L37.6194 22.9763C37.6244 22.9723 37.6295 22.9683 37.6329 22.9662C37.6498 22.9541 37.6643 22.9457 37.6788 22.9364C37.9129 22.8002 38.1467 22.6829 38.3831 22.5627C38.624 22.4439 38.8653 22.3403 39.1143 22.2433C39.3634 22.148 39.6191 22.0666 39.8836 22.0158C40.0151 21.9922 40.1484 21.9685 40.291 21.971C40.431 21.9736 40.5814 22.0041 40.7053 22.0934C40.8291 22.1817 40.9092 22.314 40.9552 22.4466C40.9804 22.5126 40.9968 22.5803 41.0105 22.6482C41.0185 22.6799 41.0236 22.7297 41.0157 22.7743C41.0071 22.8217 40.9796 22.8679 40.9454 22.8986C40.8744 22.9601 40.796 22.9756 40.7253 22.9869C40.6536 22.9974 40.5837 22.9979 40.5155 22.9955C40.3779 22.9899 40.2446 22.9706 40.1128 22.9475C39.5882 22.8451 39.0808 22.6901 38.5827 22.5075C38.3341 22.4161 38.0884 22.3173 37.8443 22.2157C37.6011 22.1131 37.3559 22.0089 37.1204 21.8815C36.8873 21.7511 36.6534 21.6101 36.4656 21.4006C36.3745 21.2961 36.2904 21.1686 36.2746 21.012C36.2664 20.9346 36.2794 20.8546 36.311 20.7829C36.3427 20.7121 36.3914 20.6515 36.4464 20.602C36.5014 20.5517 36.5654 20.5141 36.6356 20.4858C36.7079 20.4609 36.7694 20.4468 36.8352 20.4305C36.9652 20.399 37.0947 20.373 37.2252 20.3486C37.4864 20.3008 37.7482 20.2601 38.0118 20.2309C38.5388 20.1689 39.0719 20.1486 39.6033 20.1832C40.134 20.2196 40.6677 20.3132 41.1671 20.5217L41.1697 20.5215C41.2088 20.5389 41.2268 20.5831 41.2104 20.6222C41.2059 20.6324 41.1994 20.641 41.192 20.6488C41.1313 20.705 41.0764 20.7446 41.0142 20.783C40.9538 20.8212 40.8912 20.8552 40.8275 20.8856C40.7 20.9465 40.5689 20.9969 40.4341 21.0351C40.1657 21.114 39.8897 21.1559 39.6136 21.1754C39.3378 21.1975 39.06 21.1866 38.7862 21.1691C38.5141 21.1497 38.2425 21.1266 37.9709 21.1035C37.4286 21.0564 36.8882 21.011 36.3477 21.0077C35.807 21.0008 35.2673 21.0387 34.7309 21.1059C34.4622 21.1391 34.1952 21.1812 33.9286 21.2286C33.797 21.2512 33.6585 21.2762 33.5192 21.2933C33.3798 21.3076 33.2381 21.3167 33.0958 21.308C32.9531 21.3047 32.8101 21.2762 32.6706 21.2368C32.5317 21.1927 32.397 21.125 32.2793 21.0353C32.0377 20.8554 31.8934 20.576 31.8228 20.2993C31.7519 20.019 31.7486 19.7323 31.7744 19.452C31.8039 19.1724 31.8643 18.8973 31.963 18.6316C32.0144 18.4955 32.0768 18.3745 32.1328 18.2515L32.3061 17.8809L32.651 17.1407C32.8785 16.6463 33.1004 16.1496 33.3066 15.648C33.521 15.1573 33.6259 14.622 33.8287 14.1009C33.9298 13.8422 34.0514 13.5818 34.2378 13.3572L34.3079 13.2742C34.3335 13.2478 34.361 13.2231 34.3866 13.1976C34.4368 13.1441 34.4997 13.1039 34.5586 13.0586C34.6188 13.0168 34.6841 12.9844 34.7464 12.9469C34.8119 12.9163 34.8795 12.8883 34.9471 12.8611C35.2221 12.7646 35.5147 12.7392 35.7978 12.7604C36.0817 12.7816 36.3568 12.8465 36.6212 12.9339C37.1519 13.1102 37.6399 13.3753 38.1067 13.6656C38.5719 13.9586 39.0148 14.2849 39.4413 14.6288C39.8668 14.9718 40.2782 15.3384 40.6794 15.7023C41.0944 16.0803 41.4296 16.5214 41.7272 16.9854C42.3211 17.9181 42.6948 18.9705 42.925 20.0421C43.1459 21.1109 43.3368 22.1848 43.638 23.2272C43.7889 23.7474 43.9723 24.2587 44.2039 24.747C44.4347 25.2364 44.7119 25.7021 45.0213 26.1463C45.1004 26.2563 45.176 26.3684 45.2585 26.4764L45.5059 26.7993C45.6715 27.0016 45.8744 27.1901 46.0628 27.3861C46.2538 27.5818 46.4433 27.7804 46.6188 27.9936C46.7065 28.1002 46.791 28.2106 46.8671 28.3281C46.9432 28.4455 47.012 28.5716 47.0527 28.7162C47.0722 28.7882 47.0806 28.8682 47.0669 28.9501C47.0513 29.0312 47.0175 29.0995 46.9788 29.1611C46.9013 29.2851 46.8053 29.39 46.705 29.4871C46.5026 29.6808 46.277 29.8431 46.0408 29.9867C45.8037 30.1294 45.5541 30.2516 45.2892 30.3401C45.1556 30.3817 45.0198 30.4191 44.8781 30.4381C44.7372 30.4561 44.5869 30.4588 44.4396 30.4119C44.3653 30.3903 44.2955 30.3486 44.2322 30.2992C44.2047 30.2701 44.1738 30.2431 44.1513 30.2099C44.1306 30.1767 44.1038 30.1448 44.09 30.1083C44.0556 30.0394 44.0318 29.9589 44.0293 29.8748C44.0259 29.7916 44.0494 29.708 44.0855 29.636C44.2365 29.3417 44.6043 29.2195 44.9102 29.332C45.0628 29.3884 45.1853 29.5046 45.2659 29.6325C45.3492 29.761 45.4011 29.9001 45.4378 30.0388C45.4763 30.1782 45.4962 30.3192 45.5052 30.4593C45.511 30.5288 45.5142 30.5994 45.5138 30.6703C45.5171 30.7418 45.5111 30.8095 45.5078 30.8771C45.4939 31.1501 45.4772 31.4224 45.4686 31.6949L45.4535 32.1034C45.4515 32.2408 45.4395 32.3755 45.4675 32.4969C45.4841 32.5556 45.5026 32.6169 45.5398 32.655C45.5754 32.6951 45.6199 32.7129 45.6683 32.7017C45.7158 32.6915 45.7657 32.6559 45.801 32.6072C45.8402 32.5618 45.8676 32.503 45.8913 32.4445C45.9123 32.3844 45.9295 32.322 45.9393 32.2575C45.9519 32.1936 45.9549 32.1324 45.9411 32.0752C45.9284 32.0189 45.8993 31.9711 45.8535 31.9381C45.8086 31.9042 45.7497 31.8858 45.689 31.8774C45.565 31.8618 45.4353 31.886 45.3087 31.9253C45.183 31.9645 45.0604 32.0196 44.9429 32.0824C44.708 32.2096 44.4841 32.3709 44.2365 32.4948C44.1127 32.5572 43.9836 32.6101 43.8508 32.6499C43.7197 32.6896 43.5874 32.7248 43.4529 32.7558C43.1857 32.8176 42.8081 32.7875 42.5341 32.8104L42.5686 32.7763C42.9082 33.0556 43.3651 33.3453 43.7416 33.574C43.9302 33.6874 44.1236 33.7933 44.3238 33.8833C44.5237 33.9707 44.7317 34.0484 44.9443 34.0737C45.0501 34.0855 45.1588 34.0889 45.2586 34.0609C45.3594 34.0345 45.4462 33.9788 45.513 33.8997C45.5799 33.8214 45.622 33.7246 45.6226 33.6241C45.6214 33.5238 45.5817 33.4239 45.5234 33.3382C45.4042 33.1651 45.2179 33.0372 45.0193 32.9649C44.9187 32.9294 44.8131 32.9095 44.7094 32.9128C44.6057 32.9152 44.5035 32.9461 44.4225 33.0067C44.3406 33.0665 44.2836 33.1556 44.2488 33.2536C44.2131 33.3516 44.1988 33.4596 44.1978 33.5664C44.1951 33.6734 44.2068 33.7809 44.2292 33.8876C44.2497 33.9935 44.2826 34.0984 44.319 34.2013C44.4706 34.612 44.7029 34.9909 44.9215 35.3763C45.0307 35.569 45.141 35.7634 45.2367 35.9653C45.3324 36.1673 45.418 36.3772 45.4653 36.6002C45.5142 36.8213 45.5164 37.0615 45.4471 37.2826C45.3804 37.5034 45.2618 37.7026 45.1216 37.8794C44.8376 38.2332 44.4718 38.5087 44.0785 38.7236C43.6843 38.9377 43.2574 39.0927 42.8165 39.1762C42.3764 39.2596 41.9151 39.2712 41.4741 39.1824C41.0331 39.1044 40.6025 38.9789 40.186 38.8182C39.3519 38.4958 38.5788 38.0455 37.8257 37.5773L36.7005 36.8694C36.3244 36.6352 35.9467 36.4031 35.5736 36.1624C34.8284 35.6811 34.0964 35.1645 33.4597 34.535C33.3805 34.4555 33.3006 34.3779 33.2264 34.2944C33.1505 34.2119 33.0747 34.1303 33.0047 34.0429L32.8972 33.9137C32.8622 33.87 32.8304 33.8224 32.7962 33.7768C32.7259 33.6867 32.6736 33.5861 32.6145 33.4888C32.5107 33.2876 32.4171 33.0783 32.3646 32.8566C32.3295 32.7483 32.3191 32.6335 32.2963 32.5223C32.2896 32.409 32.2711 32.2957 32.2786 32.1811C32.2772 31.7247 32.4261 31.2655 32.7036 30.8988C32.7807 30.8134 32.8481 30.7198 32.938 30.6477C32.9814 30.61 33.0219 30.5699 33.0674 30.5347L33.2079 30.4368L33.2782 30.3879L33.3527 30.3467L33.5017 30.2643L33.6572 30.1957C33.7089 30.1716 33.7609 30.1502 33.8151 30.134L33.9762 30.0793L34.1412 30.0377C34.2505 30.0062 34.3634 29.9958 34.4746 29.9749C34.6993 29.9516 34.9256 29.9372 35.15 29.9526C35.6004 29.9724 36.0425 30.0736 36.4673 30.2157C36.8916 30.3615 37.2985 30.5571 37.6755 30.802C38.0516 31.0468 38.3953 31.3437 38.6922 31.6805C39.2879 32.3564 39.6997 33.1679 40.019 33.9979C40.3306 34.8331 40.6043 35.6759 40.8617 36.5263C41.1173 37.3769 41.3467 38.2359 41.5445 39.1021C41.5529 39.1382 41.5317 39.1749 41.4959 39.1851L41.495 39.1852C41.2222 39.2663 40.9506 39.3715 40.687 39.4859C40.4234 39.6012 40.1645 39.7305 39.919 39.8801C39.6734 40.028 39.4354 40.1923 39.2258 40.3857L39.1457 40.4569C39.119 40.4807 39.0963 40.5086 39.0715 40.534C39.0239 40.5864 38.9726 40.6365 38.9269 40.6905L38.7986 40.8591C38.7757 40.8861 38.7577 40.9163 38.7405 40.9474L38.6873 41.0388L38.634 41.1303L38.5884 41.2283C38.5589 41.2936 38.5258 41.3582 38.4991 41.425L38.4173 41.6247L38.3428 41.8274C38.2482 42.0999 38.173 42.3789 38.1015 42.6603C38.0301 42.9416 37.9598 43.2265 37.8685 43.5068C37.7782 43.7871 37.6649 44.0612 37.53 44.3227C37.4649 44.4555 37.3867 44.5805 37.314 44.7076C37.2383 44.8315 37.1636 44.9552 37.0917 45.0814C36.9469 45.3321 36.8105 45.5866 36.6963 45.85C36.5821 46.1134 36.4902 46.3857 36.4303 46.6661C36.3687 46.9467 36.3326 47.2332 36.3065 47.5215C36.2794 47.809 36.2679 48.1006 36.2377 48.3929C36.2092 48.6841 36.1699 48.9753 36.1161 49.2642C36.0074 49.8402 35.8457 50.4135 35.567 50.9382C35.5484 50.9729 35.5064 50.9854 35.4717 50.9668C35.4521 50.9568 35.4398 50.9381 35.4355 50.9187L35.4353 50.916C35.3924 50.6926 35.3295 50.4656 35.2635 50.2432C35.1965 50.0201 35.1216 49.7994 35.0424 49.5799C34.883 49.1411 34.7036 48.7094 34.5104 48.2842C34.1172 47.4379 33.6858 46.5948 33.4024 45.6901C33.2643 45.2378 33.1665 44.7643 33.1793 44.2842C33.1845 44.0461 33.211 43.8061 33.2659 43.5728C33.3199 43.3404 33.3926 43.1164 33.4518 42.8917C33.5119 42.6678 33.5584 42.4423 33.5637 42.2158C33.568 41.9885 33.539 41.7595 33.4976 41.5315C33.4139 41.0765 33.2853 40.6091 33.3225 40.1216L33.3631 39.7711C33.3804 39.6566 33.3771 39.5412 33.3845 39.4266C33.3866 39.3116 33.3796 39.1965 33.3745 39.0812L33.3557 38.9096L33.3467 38.8234L33.3315 38.7385C33.255 38.2829 33.1026 37.8426 32.9113 37.4182C32.7217 36.9927 32.5017 36.5796 32.2876 36.1615C32.1814 35.9515 32.0735 35.7434 31.9749 35.5274C31.8772 35.3122 31.7881 35.0927 31.7085 34.8697C31.3921 33.9775 31.2123 33.047 31.0878 32.1138C31.0298 31.645 30.9988 31.1775 30.9396 30.7151C30.8813 30.2535 30.7902 29.7946 30.62 29.3666C30.2558 28.5134 29.7716 27.7035 29.2039 26.9669C28.633 26.2341 27.9675 25.5595 27.1734 25.0831C26.7731 24.8483 26.3564 24.6329 25.9238 24.4726C25.7068 24.3956 25.4845 24.3289 25.2602 24.3037C25.0366 24.2757 24.8067 24.2905 24.6111 24.383C24.4126 24.4732 24.2708 24.6528 24.1783 24.8543C24.0898 25.0599 24.0423 25.2854 24.0193 25.5134C23.9981 25.7421 23.9958 25.9729 24.0167 26.2017C24.0376 26.4305 24.086 26.6561 24.1536 26.8756C24.2863 27.3166 24.5148 27.7245 24.7911 28.0934C25.0708 28.4612 25.4069 28.7839 25.761 29.088C26.1144 29.3931 26.482 29.6862 26.8294 30.0061C27.0032 30.1665 27.1712 30.3337 27.3284 30.5108C27.4874 30.6877 27.6298 30.8803 27.7649 31.0708C27.9008 31.2613 28.035 31.4519 28.188 31.6213C28.34 31.7898 28.5163 31.9374 28.7219 32.0073C28.9269 32.0807 29.1545 32.0483 29.362 31.9699C29.5719 31.8869 29.7662 31.7684 29.8872 31.587C30.1379 31.2306 30.02 30.6771 29.6729 30.4262C29.5872 30.3652 29.4874 30.3286 29.3864 30.3308C29.287 30.3319 29.1846 30.371 29.1149 30.4378C29.0435 30.5057 28.9989 30.6045 28.9755 30.7105C28.9512 30.8166 28.9437 30.9302 28.9442 31.0432C28.9537 31.5008 29.0576 31.9613 29.1505 32.4191C29.1983 32.6483 29.2471 32.8784 29.2889 33.1108C29.3295 33.3505 29.3215 33.6086 29.2325 33.8403C29.149 34.0743 29.0053 34.2737 28.8604 34.459C28.7147 34.6452 28.5582 34.8206 28.4335 35.0104C28.3076 35.1977 28.2168 35.4089 28.1518 35.6287C28.0879 35.8493 28.046 36.078 28.0079 36.3081C27.9315 36.7666 27.8785 37.2465 27.6809 37.6909C27.5835 37.9089 27.4511 38.1254 27.2666 38.287C27.086 38.4519 26.8753 38.5789 26.6547 38.6727C26.2119 38.8622 25.7387 38.9457 25.2695 38.992C24.7986 39.0377 24.3268 39.0421 23.8574 39.031L23.1542 39.0099C22.9177 39.0001 22.6778 38.9807 22.4452 38.931C22.2119 38.8832 21.982 38.8226 21.7593 38.7416C21.5352 38.6643 21.3168 38.5705 21.104 38.4671C20.6781 38.2596 20.2739 38.0108 19.894 37.7304C19.5132 37.4509 19.1541 37.1418 18.8207 36.8072C18.4864 36.4736 18.177 36.1147 17.8995 35.7315C17.6203 35.3493 17.3766 34.9409 17.1784 34.5098C17.0824 34.2927 16.9958 34.0712 16.9282 33.8418C16.8626 33.614 16.8076 33.3836 16.7631 33.1514C16.7203 32.9181 16.6881 32.6831 16.6666 32.4472C16.6478 32.2111 16.6397 31.974 16.644 31.7368C16.6511 31.4994 16.6698 31.2628 16.7022 31.0278C16.7372 30.7925 16.7858 30.5597 16.8482 30.3303C16.983 29.8741 17.1543 29.4372 17.322 28.9989C17.6612 28.1265 17.9972 27.248 18.098 26.321C18.2105 25.394 18.2335 24.4564 18.1957 23.5222C18.1773 23.0546 18.1446 22.5881 18.1003 22.1218L18.0293 21.4217C18.0051 21.186 17.9987 20.9489 17.9987 20.712C18.0084 20.2385 18.0627 19.7621 18.1955 19.3043L18.2466 19.1332C18.2652 19.0769 18.2866 19.0213 18.3069 18.9649C18.3449 18.8514 18.3969 18.7447 18.4442 18.6349C18.549 18.4208 18.6632 18.2103 18.8057 18.0181C18.9406 17.8211 19.1023 17.6435 19.27 17.4743C19.4381 17.3104 19.6082 17.1482 19.7794 16.9877C20.1217 16.6667 20.4717 16.3531 20.8229 16.0421C21.1731 15.7302 21.5255 15.4227 21.864 15.1002C22.0343 14.9407 22.1978 14.7745 22.3603 14.6067C22.5217 14.4371 22.6712 14.264 22.832 14.0865C23.1539 13.7366 23.5253 13.432 23.9361 13.1914C24.346 12.9499 24.7917 12.7737 25.249 12.6502C25.2867 12.6399 25.3253 12.6627 25.3356 12.6995C25.3459 12.7372 25.3231 12.7759 25.2864 12.7862C24.8384 12.9034 24.4037 13.0725 24.0029 13.3042C23.602 13.535 23.2378 13.8292 22.9212 14.1687C22.7652 14.3387 22.6093 14.5204 22.4478 14.6891C22.2836 14.858 22.1184 15.0252 21.9473 15.1857C21.6061 15.5093 21.253 15.8178 20.9018 16.1288C20.5506 16.4389 20.2012 16.7506 19.8598 17.0707C19.5214 17.395 19.1635 17.7011 18.9007 18.0828C18.763 18.2692 18.6512 18.4741 18.5485 18.6819C18.5027 18.7888 18.4514 18.8927 18.415 19.0034C18.3953 19.0579 18.3738 19.1118 18.3561 19.1671L18.3064 19.3345C18.1762 19.7813 18.122 20.2478 18.1117 20.7134C18.1013 21.1798 18.1705 21.6432 18.215 22.1113C18.2611 22.5784 18.2941 23.0475 18.3145 23.5176C18.3544 24.4562 18.3338 25.3998 18.2229 26.3357C18.1726 26.8055 18.0625 27.2686 17.9254 27.7187C17.7875 28.1698 17.62 28.6098 17.4542 29.048C17.2901 29.486 17.1198 29.9254 16.9948 30.37C16.9365 30.5938 16.8927 30.8208 16.8608 31.0495C16.8315 31.2789 16.8159 31.5099 16.8119 31.7408C16.8097 31.9715 16.8209 32.2029 16.841 32.4326C16.8638 32.6631 16.8982 32.8916 16.9421 33.1176C16.987 33.3444 17.0469 33.5681 17.1136 33.7877C17.182 34.0054 17.2687 34.2179 17.3649 34.4252C17.7671 35.2509 18.3548 35.9805 19.0233 36.6055C19.3577 36.9194 19.7141 37.2072 20.0887 37.4665C20.4625 37.7268 20.8568 37.9531 21.2655 38.1379C21.6718 38.3264 22.0951 38.4714 22.5228 38.5505L22.6828 38.5793L22.843 38.5982C22.8965 38.6063 22.9495 38.6081 23.0035 38.6108C23.0583 38.6134 23.1071 38.6183 23.1681 38.6186L23.8675 38.6373C24.3289 38.649 24.7864 38.6458 25.2344 38.6039C25.6807 38.5621 26.121 38.4823 26.5051 38.3183C26.6972 38.2377 26.8694 38.1327 27.011 38.0043C27.1573 37.879 27.2519 37.7249 27.3401 37.5363C27.5115 37.165 27.5708 36.716 27.6508 36.2473C27.6912 36.0125 27.7363 35.7701 27.81 35.5254C27.8837 35.2815 27.9903 35.0349 28.1437 34.8131C28.293 34.5943 28.4516 34.4232 28.5935 34.2453C28.7348 34.0703 28.8568 33.9013 28.9209 33.7246C28.9914 33.5501 29 33.3628 28.971 33.1661C28.9344 32.9422 28.8874 32.712 28.8431 32.4824C28.7979 32.2521 28.7525 32.0191 28.7156 31.7808C28.6795 31.5425 28.6476 31.3003 28.6477 31.0438C28.6486 30.9154 28.6572 30.7819 28.6912 30.6418C28.706 30.5724 28.7331 30.5002 28.7674 30.4282C28.8054 30.3569 28.8514 30.2858 28.9171 30.2256C28.9812 30.1664 29.0585 30.1169 29.1378 30.0896C29.2158 30.0589 29.2997 30.0438 29.3838 30.0431C29.4687 30.0405 29.5518 30.0586 29.6291 30.0836C29.7049 30.1113 29.7752 30.1485 29.8372 30.1936C30.0826 30.3758 30.22 30.637 30.2735 30.9125C30.3277 31.1869 30.2728 31.4947 30.1071 31.731C30.0256 31.849 29.9218 31.9474 29.8082 32.0242C29.7524 32.0638 29.6924 32.0966 29.6339 32.1249L29.4558 32.2025C29.394 32.2247 29.3282 32.241 29.2644 32.2598C29.2005 32.2777 29.129 32.28 29.0618 32.2901C28.9933 32.2959 28.9218 32.2875 28.8526 32.2852C28.7842 32.2703 28.7143 32.2591 28.6487 32.2358C28.3829 32.1423 28.1814 31.96 28.0172 31.7755C27.8529 31.5883 27.7181 31.3905 27.5847 31.198C27.4521 31.0046 27.3204 30.8218 27.1698 30.6496C27.021 30.4763 26.8603 30.3121 26.6921 30.1531C26.3564 29.8348 25.9915 29.5415 25.6367 29.2293C25.2812 28.92 24.9359 28.5837 24.6485 28.1986C24.3637 27.8134 24.129 27.3845 23.9926 26.9213C23.9241 26.6902 23.8756 26.453 23.8546 26.2125C23.8345 25.972 23.8386 25.7312 23.8625 25.4924C23.8892 25.2543 23.9399 25.0141 24.0401 24.7869C24.0935 24.6748 24.1588 24.567 24.2432 24.4721C24.3266 24.3772 24.433 24.2992 24.5476 24.2457C24.7796 24.1375 25.0364 24.1233 25.2774 24.1453C25.5211 24.1662 25.756 24.2228 25.9873 24.2896C26.2187 24.3564 26.4435 24.4417 26.6636 24.5346C26.8854 24.6273 27.0972 24.7289 27.3071 24.8495C27.5187 24.97 27.72 25.1065 27.9082 25.2577C28.0032 25.3323 28.0981 25.4069 28.1873 25.4882C28.2781 25.5668 28.369 25.6471 28.454 25.7315C28.8007 26.064 29.1174 26.4242 29.4079 26.8027C29.6984 27.1812 29.9645 27.5779 30.2048 27.9884C30.4471 28.4006 30.6588 28.8224 30.8432 29.2717C31.0203 29.7297 31.1088 30.2094 31.1633 30.6802C31.2189 31.1528 31.2446 31.6216 31.2965 32.082C31.4093 33.0037 31.576 33.9263 31.8768 34.8036C31.9524 35.0224 32.0368 35.2387 32.1305 35.4498C32.2234 35.6609 32.3314 35.8699 32.4348 36.0792C32.6453 36.4967 32.8647 36.9134 33.055 37.3479C33.2469 37.7795 33.4023 38.2347 33.4785 38.7074L33.494 38.7958L33.5032 38.8847L33.5216 39.0626C33.5262 39.1815 33.5326 39.3012 33.53 39.4207C33.5221 39.5398 33.524 39.6599 33.5061 39.778L33.4644 40.1259C33.4272 40.5811 33.5503 41.0364 33.6356 41.4993C33.6774 41.7318 33.7081 41.9705 33.7032 42.2122C33.6966 42.455 33.6473 42.6914 33.5849 42.92C33.5234 43.1485 33.4515 43.3716 33.3986 43.5958C33.3447 43.8192 33.3199 44.0482 33.3142 44.2801C33.3017 44.7422 33.3946 45.2 33.5294 45.6445C33.6677 46.0886 33.8446 46.5224 34.0343 46.9497C34.2233 47.3779 34.4329 47.7964 34.6273 48.2251C34.8217 48.6538 35.0013 49.0882 35.161 49.5315C35.2404 49.7527 35.3164 49.976 35.3837 50.2018C35.451 50.4285 35.5128 50.6539 35.5576 50.8897L35.4631 50.8742C35.7342 50.3663 35.8951 49.8038 36.0026 49.236C36.0559 48.9517 36.0955 48.664 36.1243 48.3754C36.154 48.0877 36.1664 47.7969 36.1931 47.5049C36.219 47.2139 36.2556 46.9229 36.3176 46.6352C36.3786 46.3475 36.4726 46.067 36.5898 45.797C36.7061 45.5272 36.8449 45.2689 36.9903 45.0154C37.1347 44.7603 37.2955 44.5181 37.4245 44.2615C37.5564 44.0056 37.6657 43.7382 37.7547 43.4634C37.8438 43.1886 37.9125 42.9066 37.9839 42.6244C38.1239 42.0592 38.2942 41.4915 38.5777 40.9717L38.6341 40.8746C38.652 40.8418 38.6717 40.8096 38.6953 40.7807L38.83 40.6026C38.8772 40.5458 38.9302 40.4938 38.9802 40.4385C39.0058 40.4121 39.0302 40.3832 39.0577 40.3584L39.1402 40.2843C39.3573 40.0831 39.6012 39.9148 39.8528 39.7628C40.1033 39.6091 40.3665 39.4777 40.6353 39.3601C40.904 39.2426 41.1765 39.1373 41.4606 39.0526L41.4159 39.1281C41.2175 38.2656 40.9875 37.4101 40.7312 36.5623C40.4734 35.7164 40.2011 34.8699 39.8772 34.0493C39.545 33.2356 39.1162 32.456 38.5293 31.8223C37.9451 31.1876 37.2047 30.7211 36.3925 30.4355C35.9874 30.2944 35.5668 30.1923 35.1405 30.1615C34.9274 30.1407 34.7141 30.1505 34.5013 30.1664C34.3961 30.1833 34.2892 30.1904 34.1858 30.2179L34.0302 30.2533L33.8774 30.3011C33.8257 30.3153 33.7763 30.3346 33.727 30.3558L33.5789 30.4166L33.4372 30.4903L33.3659 30.5268L33.2997 30.5709L33.1673 30.6582C33.1251 30.6895 33.086 30.726 33.0459 30.7598C32.9608 30.8244 32.8972 30.9104 32.8248 30.9873C32.7925 31.0295 32.7639 31.074 32.7336 31.1178L32.688 31.1835L32.6509 31.2539C32.6271 31.3016 32.6005 31.3478 32.5785 31.3963L32.5221 31.5463C32.4585 31.7499 32.4171 31.9624 32.4199 32.1783C32.4118 32.2857 32.4297 32.3928 32.4369 32.4998C32.4592 32.6056 32.4699 32.7133 32.5036 32.8163C32.5543 33.0265 32.6451 33.2234 32.7444 33.4143C32.8013 33.5055 32.8514 33.6018 32.9185 33.6859C32.9507 33.7289 32.9804 33.7731 33.0153 33.815L33.1216 33.9407C33.1905 34.0256 33.2662 34.1054 33.34 34.1853C33.4131 34.2671 33.4921 34.343 33.5701 34.4199C34.1992 35.033 34.9321 35.528 35.6788 35.9949C36.053 36.2282 36.4337 36.453 36.8147 36.6813L37.9509 37.3704C38.7032 37.8297 39.4671 38.2664 40.2775 38.5728C40.6825 38.7247 41.0945 38.8526 41.5174 38.9276C41.9331 39.014 42.3525 39.005 42.7699 38.9298C43.1857 38.8556 43.5933 38.7166 43.9692 38.5192C44.3442 38.322 44.6928 38.0659 44.9581 37.7459C45.0891 37.587 45.1979 37.4092 45.2574 37.2213C45.3198 37.0349 45.322 36.8364 45.2818 36.6344C45.2435 36.4321 45.1658 36.2323 45.0752 36.0371C44.9845 35.8411 44.8797 35.6489 44.7722 35.456C44.559 35.0693 44.327 34.6832 44.1725 34.2494C44.098 34.0331 44.0384 33.8022 44.0451 33.5603C44.0467 33.4409 44.0625 33.3193 44.1063 33.2C44.1484 33.0816 44.2228 32.9642 44.3327 32.885C44.4415 32.8051 44.5753 32.7661 44.7015 32.7645C44.8284 32.7611 44.9506 32.7859 45.0642 32.8266C45.2906 32.91 45.4958 33.0498 45.6384 33.2559C45.7079 33.3586 45.7597 33.4853 45.7612 33.6215C45.761 33.7588 45.7013 33.8911 45.6179 33.9869C45.5366 34.0852 45.4157 34.1617 45.292 34.1926C45.1676 34.2264 45.0436 34.2215 44.926 34.208C44.6897 34.1784 44.474 34.095 44.2666 34.0038C44.06 33.9107 43.8627 33.8007 43.6711 33.6848C43.2887 33.4504 42.9275 33.1899 42.5793 32.9041C42.5418 32.874 42.45 32.7876 42.4809 32.75C42.4964 32.7308 42.5768 32.7228 42.5999 32.7209L42.6405 32.7175C42.9074 32.6952 43.1604 32.686 43.4223 32.6256C43.5533 32.5958 43.683 32.5608 43.8114 32.5222C43.9382 32.4847 44.0586 32.4352 44.1764 32.376C44.4137 32.2575 44.6335 32.1001 44.8793 31.9648C45.0028 31.8988 45.1314 31.8406 45.2677 31.7987C45.4021 31.7569 45.5501 31.7266 45.7031 31.7462C45.7792 31.7559 45.8591 31.7798 45.9279 31.8305C45.9974 31.8804 46.0472 31.9614 46.0647 32.0425C46.084 32.1234 46.0782 32.2046 46.0644 32.2748C46.0534 32.3466 46.0351 32.4172 46.0095 32.4866C45.9821 32.5553 45.9494 32.6244 45.8989 32.6852C45.8521 32.7465 45.7842 32.8033 45.6928 32.8244C45.671 32.8316 45.6469 32.8318 45.6226 32.8302C45.6108 32.8294 45.5982 32.8287 45.5865 32.827L45.5524 32.8155L45.519 32.8021C45.5095 32.7957 45.5 32.7893 45.4904 32.7821C45.4723 32.7683 45.4523 32.7547 45.441 32.7369C45.3808 32.671 45.3601 32.5947 45.3388 32.522C45.3312 32.485 45.3273 32.4485 45.3216 32.4122C45.3185 32.3757 45.3191 32.3398 45.3178 32.3031C45.3172 32.2314 45.3207 32.1656 45.3222 32.0973L45.3311 31.6893L45.3489 30.8724C45.3503 30.8041 45.3536 30.7357 45.3481 30.6706C45.3462 30.6044 45.3416 30.5384 45.3334 30.4727C45.3205 30.3401 45.2971 30.2093 45.2606 30.0841C45.2251 29.9588 45.1755 29.8374 45.105 29.7329C45.0345 29.6294 44.943 29.5419 44.8343 29.4954C44.7257 29.4497 44.6016 29.4439 44.4903 29.4846C44.3788 29.5227 44.2826 29.6042 44.232 29.7063C44.1796 29.8084 44.1831 29.9256 44.2351 30.0334C44.2585 30.088 44.2945 30.1334 44.3347 30.174C44.3797 30.2097 44.4281 30.2416 44.4851 30.2592C44.5986 30.2982 44.7287 30.3017 44.8566 30.2874C44.9853 30.2731 45.1143 30.2417 45.24 30.2016C45.4919 30.1177 45.7347 30.0006 45.9651 29.8629C46.1945 29.7244 46.4143 29.567 46.6068 29.3841C46.7022 29.2927 46.7925 29.1937 46.8605 29.0857C46.8945 29.0318 46.9211 28.9748 46.9326 28.9191C46.9424 28.8645 46.9381 28.803 46.9215 28.7434C46.8881 28.6223 46.8262 28.5037 46.7542 28.3922C46.6822 28.2807 46.6006 28.1727 46.5158 28.0686C46.3452 27.8604 46.1584 27.6625 45.9693 27.4674C45.7808 27.2706 45.5819 27.0872 45.4042 26.8697L45.1557 26.5433C45.0723 26.4345 44.9965 26.3206 44.9164 26.2098C44.6031 25.7615 44.3174 25.291 44.0817 24.7958C44.0204 24.6736 43.9659 24.5471 43.9124 24.4206C43.8553 24.2953 43.8096 24.1664 43.7578 24.0398C43.7336 23.9754 43.7051 23.9132 43.6801 23.8489C43.655 23.7846 43.63 23.7212 43.6023 23.658C43.5461 23.5318 43.4968 23.4031 43.4467 23.2745C43.3947 23.1461 43.3498 23.0162 43.3101 22.8841C43.2696 22.7529 43.2343 22.6195 43.2052 22.4856C43.1416 22.2182 43.0897 21.9498 43.0438 21.6801C42.9496 21.1416 42.8862 20.597 42.7904 20.0614C42.7631 19.9282 42.7395 19.7948 42.7096 19.6627C42.6771 19.5309 42.6236 19.4053 42.5789 19.2771C42.5368 19.1488 42.4921 19.0207 42.4457 18.8945C42.3983 18.7674 42.3572 18.639 42.3038 18.5152C42.1077 18.0122 41.8639 17.5275 41.5716 17.0747C41.2796 16.6245 40.9435 16.1933 40.5494 15.8405C40.14 15.4755 39.735 15.12 39.309 14.7824C38.8849 14.4456 38.4479 14.1251 37.9904 13.8394C37.5323 13.5566 37.0549 13.3004 36.5493 13.1354C36.297 13.0533 36.0385 12.9933 35.779 12.9755C35.5194 12.9568 35.2591 12.9821 35.0198 13.0667C34.9609 13.0914 34.903 13.1159 34.8451 13.1423C34.7914 13.1746 34.7328 13.2028 34.6821 13.2385C34.6333 13.2766 34.5796 13.3098 34.5369 13.3555C34.5145 13.3771 34.4911 13.3979 34.4688 13.4204L34.4077 13.4928C34.2439 13.6877 34.1287 13.9279 34.0319 14.1745C33.8367 14.669 33.7272 15.2128 33.5037 15.723C33.2942 16.2285 33.0698 16.7272 32.8397 17.2218L32.4921 17.9622L32.3178 18.332C32.2601 18.4561 32.1977 18.5779 32.1531 18.6974C32.0606 18.9419 32.0028 19.2042 31.9736 19.4659C31.9479 19.7273 31.9514 19.9943 32.0144 20.2438C32.0763 20.4916 32.1987 20.7245 32.3975 20.8738C32.4961 20.949 32.6075 21.0061 32.7281 21.0454C32.8501 21.0791 32.976 21.1063 33.1062 21.1098C33.235 21.1187 33.3669 21.1104 33.4975 21.0977C33.6279 21.0823 33.7586 21.0598 33.8947 21.0367C34.1639 20.9891 34.4347 20.9486 34.707 20.916C35.2507 20.8508 35.8003 20.8139 36.3485 20.8237C36.8973 20.8299 37.4432 20.8776 37.9849 20.9275C38.2557 20.9524 38.5265 20.9764 38.7969 20.9969C39.0663 21.0148 39.3342 21.0265 39.6013 21.0068C39.8677 20.9891 40.1332 20.9499 40.3878 20.8766C40.5156 20.8408 40.6388 20.7937 40.7578 20.738C40.8173 20.7097 40.8747 20.6789 40.9292 20.6448C40.9838 20.6124 41.0386 20.571 41.0785 20.5345L41.1034 20.6607C40.6288 20.459 40.1103 20.3651 39.5912 20.3277C39.0713 20.2913 38.546 20.3092 38.0259 20.3679C37.7657 20.395 37.5067 20.4363 37.249 20.483C37.1202 20.5072 36.9925 20.5331 36.866 20.5634C36.8046 20.5784 36.737 20.5948 36.6847 20.6126C36.6328 20.634 36.5815 20.6643 36.5391 20.7029C36.4523 20.7792 36.4011 20.8848 36.4137 20.9932C36.4229 21.1028 36.4891 21.2094 36.5702 21.3013C36.7362 21.4865 36.9601 21.6257 37.1856 21.7513C37.4136 21.8749 37.6542 21.9768 37.8975 22.0794C38.1398 22.1811 38.3835 22.2783 38.6302 22.368C39.1218 22.5485 39.6264 22.7011 40.1364 22.8011C40.2637 22.8237 40.3925 22.8425 40.5183 22.8472C40.5812 22.8492 40.6438 22.8484 40.7022 22.84C40.7607 22.8324 40.8166 22.8143 40.8457 22.7876C40.8731 22.762 40.8787 22.7328 40.8657 22.6729C40.8525 22.6112 40.8384 22.5505 40.8166 22.4931C40.7756 22.3772 40.7106 22.275 40.6182 22.2092C40.5258 22.1433 40.4071 22.1165 40.2851 22.1141C40.163 22.1108 40.0349 22.1332 39.9079 22.1564C39.6549 22.2053 39.4061 22.2835 39.1631 22.3774C38.921 22.472 38.6782 22.5784 38.4478 22.6945C38.2151 22.8145 37.9779 22.9356 37.7568 23.0662C37.7441 23.0745 37.7304 23.0828 37.7203 23.0899C37.7169 23.092 37.7152 23.0939 37.7144 23.0949L37.7119 23.0969C37.7119 23.0969 37.716 23.0929 37.7177 23.091C37.7093 23.1088 37.7501 23.0497 37.7216 23.0091L37.7246 23.0133L37.7308 23.0226C37.7454 23.0474 37.7634 23.0702 37.7823 23.0928C37.8201 23.1381 37.8656 23.1782 37.9153 23.2154C38.0138 23.2897 38.1255 23.3512 38.2419 23.4034C38.4746 23.5086 38.7259 23.5791 38.9794 23.6324C39.4874 23.7398 40.0095 23.802 40.5288 23.799C40.6586 23.7972 40.788 23.7917 40.9149 23.7775C41.04 23.7626 41.1718 23.7426 41.27 23.695C41.2932 23.6832 41.3107 23.6682 41.3155 23.6607C41.3186 23.655 41.3198 23.6585 41.312 23.6403C41.3086 23.6325 41.2998 23.6234 41.2928 23.6141L41.2627 23.5861C41.2431 23.5671 41.2176 23.5513 41.1939 23.5354C41.0922 23.4757 40.9692 23.4402 40.8454 23.4165C40.5942 23.3702 40.3316 23.3679 40.0719 23.3797C39.8113 23.3916 39.5502 23.4197 39.2908 23.4557C39.1607 23.4746 39.0316 23.4953 38.9027 23.5186L38.8067 23.5374C38.7775 23.5425 38.7445 23.5543 38.7138 23.5622L38.5257 23.6165C38.2781 23.6982 38.0346 23.7965 37.8058 23.9215C37.5771 24.0465 37.3632 24.1989 37.1825 24.3844C37.0018 24.5699 36.8497 24.7863 36.7599 25.0306C36.5699 25.512 36.598 26.0739 36.7909 26.5395L36.7932 26.5447C36.8079 26.5812 36.7907 26.6221 36.7552 26.6367C36.7197 26.6513 36.6779 26.6342 36.6633 26.5986C36.6631 26.5968 36.6621 26.5951 36.662 26.5942L36.6614 26.597Z" fill="#CBE2D1"/>
<path d="M36.6614 26.597C36.5729 26.3317 36.5408 26.0652 36.5398 25.7953C36.5402 25.6607 36.5558 25.5267 36.5797 25.3937C36.6036 25.2616 36.6402 25.1312 36.6925 25.0066C36.7917 24.757 36.9457 24.5307 37.1301 24.3367C37.3156 24.1436 37.5343 23.9845 37.7671 23.8548C38 23.725 38.2467 23.6227 38.4984 23.5362L38.6897 23.4772C38.7524 23.4558 38.821 23.4411 38.8845 23.4286C39.014 23.4026 39.1445 23.3782 39.2754 23.3574C39.537 23.3149 39.8003 23.2813 40.0658 23.2645C40.3315 23.2495 40.5998 23.2441 40.8694 23.2862C41.0039 23.309 41.1394 23.3435 41.2671 23.4144C41.2983 23.4342 41.3304 23.4531 41.3585 23.4786L41.4011 23.5172C41.415 23.533 41.4289 23.5489 41.4414 23.5703C41.4539 23.5908 41.4641 23.6169 41.4667 23.648C41.4693 23.6792 41.4613 23.7122 41.4464 23.7376C41.4165 23.7877 41.3782 23.8115 41.3441 23.8314C41.2048 23.9013 41.071 23.9197 40.9356 23.9391C40.8008 23.9557 40.667 23.9624 40.5329 23.9655C40.2655 23.9708 39.9992 23.9572 39.7336 23.9309C39.4688 23.9037 39.2033 23.8667 38.9436 23.804C38.684 23.7414 38.4258 23.6643 38.1772 23.5523C38.0533 23.4954 37.9323 23.4292 37.8212 23.3434C37.7656 23.3005 37.7124 23.2529 37.6656 23.1967C37.6427 23.169 37.6196 23.1396 37.6008 23.108L37.5936 23.096L37.5895 23.0901C37.5616 23.0457 37.6029 22.9822 37.5978 22.997C37.6019 22.9921 37.6077 22.9863 37.6118 22.9823L37.6194 22.9763C37.6244 22.9723 37.6295 22.9683 37.6329 22.9662C37.6498 22.9541 37.6643 22.9457 37.6788 22.9364C37.9129 22.8002 38.1467 22.6829 38.3831 22.5627C38.624 22.4439 38.8653 22.3403 39.1143 22.2433C39.3634 22.148 39.6191 22.0666 39.8836 22.0158C40.0151 21.9922 40.1484 21.9685 40.291 21.971C40.431 21.9736 40.5814 22.0041 40.7053 22.0934C40.8291 22.1817 40.9092 22.314 40.9552 22.4466C40.9804 22.5126 40.9968 22.5803 41.0105 22.6482C41.0185 22.6799 41.0236 22.7297 41.0157 22.7743C41.0071 22.8217 40.9796 22.8679 40.9454 22.8986C40.8744 22.9601 40.796 22.9756 40.7253 22.9869C40.6536 22.9974 40.5837 22.9979 40.5155 22.9955C40.3779 22.9899 40.2446 22.9706 40.1128 22.9475C39.5882 22.8451 39.0808 22.6901 38.5827 22.5075C38.3341 22.4161 38.0884 22.3173 37.8443 22.2157C37.6011 22.1131 37.3559 22.0089 37.1204 21.8815C36.8873 21.7511 36.6534 21.6101 36.4656 21.4006C36.3745 21.2961 36.2904 21.1686 36.2746 21.012C36.2664 20.9346 36.2794 20.8546 36.311 20.7829C36.3427 20.7121 36.3914 20.6515 36.4464 20.602C36.5014 20.5517 36.5654 20.5141 36.6356 20.4858C36.7079 20.4609 36.7694 20.4468 36.8352 20.4305C36.9652 20.399 37.0947 20.373 37.2252 20.3486C37.4864 20.3008 37.7482 20.2601 38.0118 20.2309C38.5388 20.1689 39.0719 20.1486 39.6033 20.1832C40.134 20.2196 40.6677 20.3132 41.1671 20.5217L41.1697 20.5215C41.2088 20.5389 41.2268 20.5831 41.2104 20.6222C41.2059 20.6324 41.1994 20.641 41.192 20.6488C41.1313 20.705 41.0764 20.7446 41.0142 20.783C40.9538 20.8212 40.8912 20.8552 40.8275 20.8856C40.7 20.9465 40.5689 20.9969 40.4341 21.0351C40.1657 21.114 39.8897 21.1559 39.6136 21.1754C39.3378 21.1975 39.06 21.1866 38.7862 21.1691C38.5141 21.1497 38.2425 21.1266 37.9709 21.1035C37.4286 21.0564 36.8882 21.011 36.3477 21.0077C35.807 21.0008 35.2673 21.0387 34.7309 21.1059C34.4622 21.1391 34.1952 21.1812 33.9286 21.2286C33.797 21.2512 33.6585 21.2762 33.5192 21.2933C33.3798 21.3076 33.2381 21.3167 33.0958 21.308C32.9531 21.3047 32.8101 21.2762 32.6706 21.2368C32.5317 21.1927 32.397 21.125 32.2793 21.0353C32.0377 20.8554 31.8934 20.576 31.8228 20.2993C31.7519 20.019 31.7486 19.7323 31.7744 19.452C31.8039 19.1724 31.8643 18.8973 31.963 18.6316C32.0144 18.4955 32.0768 18.3745 32.1328 18.2515L32.3061 17.8809L32.651 17.1407C32.8785 16.6463 33.1004 16.1496 33.3066 15.648C33.521 15.1573 33.6259 14.622 33.8287 14.1009C33.9298 13.8422 34.0514 13.5818 34.2378 13.3572L34.3079 13.2742C34.3335 13.2478 34.361 13.2231 34.3866 13.1976C34.4368 13.1441 34.4997 13.1039 34.5586 13.0586C34.6188 13.0168 34.6841 12.9844 34.7464 12.9469C34.8119 12.9163 34.8795 12.8883 34.9471 12.8611C35.2221 12.7646 35.5147 12.7392 35.7978 12.7604C36.0817 12.7816 36.3568 12.8465 36.6212 12.9339C37.1519 13.1102 37.6399 13.3753 38.1067 13.6656C38.5719 13.9586 39.0148 14.2849 39.4413 14.6288C39.8668 14.9718 40.2782 15.3384 40.6794 15.7023C41.0944 16.0803 41.4296 16.5214 41.7272 16.9854C42.3211 17.9181 42.6948 18.9705 42.925 20.0421C43.1459 21.1109 43.3368 22.1848 43.638 23.2272C43.7889 23.7474 43.9723 24.2587 44.2039 24.747C44.4347 25.2364 44.7119 25.7021 45.0213 26.1463C45.1004 26.2563 45.176 26.3684 45.2585 26.4764L45.5059 26.7993C45.6715 27.0016 45.8744 27.1901 46.0628 27.3861C46.2538 27.5818 46.4433 27.7804 46.6188 27.9936C46.7065 28.1002 46.791 28.2106 46.8671 28.3281C46.9432 28.4455 47.012 28.5716 47.0527 28.7162C47.0722 28.7882 47.0806 28.8682 47.0669 28.9501C47.0513 29.0312 47.0175 29.0995 46.9788 29.1611C46.9013 29.2851 46.8053 29.39 46.705 29.4871C46.5026 29.6808 46.277 29.8431 46.0408 29.9867C45.8037 30.1294 45.5541 30.2516 45.2892 30.3401C45.1556 30.3817 45.0198 30.4191 44.8781 30.4381C44.7372 30.4561 44.5869 30.4588 44.4396 30.4119C44.3653 30.3903 44.2955 30.3486 44.2322 30.2992C44.2047 30.2701 44.1738 30.2431 44.1513 30.2099C44.1306 30.1767 44.1038 30.1448 44.09 30.1083C44.0556 30.0394 44.0318 29.9589 44.0293 29.8748C44.0259 29.7916 44.0494 29.708 44.0855 29.636C44.2365 29.3417 44.6043 29.2195 44.9102 29.332C45.0628 29.3884 45.1853 29.5046 45.2659 29.6325C45.3492 29.761 45.4011 29.9001 45.4378 30.0388C45.4763 30.1782 45.4962 30.3192 45.5052 30.4593C45.511 30.5288 45.5142 30.5994 45.5138 30.6703C45.5171 30.7418 45.5111 30.8095 45.5078 30.8771C45.4939 31.1501 45.4772 31.4224 45.4686 31.6949L45.4535 32.1034C45.4515 32.2408 45.4395 32.3755 45.4675 32.4969C45.4841 32.5556 45.5026 32.6169 45.5398 32.655C45.5754 32.6951 45.6199 32.7129 45.6683 32.7017C45.7158 32.6915 45.7657 32.6559 45.801 32.6072C45.8402 32.5618 45.8676 32.503 45.8913 32.4445C45.9123 32.3844 45.9295 32.322 45.9393 32.2575C45.9519 32.1936 45.9549 32.1324 45.9411 32.0752C45.9284 32.0189 45.8993 31.9711 45.8535 31.9381C45.8086 31.9042 45.7497 31.8858 45.689 31.8774C45.565 31.8618 45.4353 31.886 45.3087 31.9253C45.183 31.9645 45.0604 32.0196 44.9429 32.0824C44.708 32.2096 44.4841 32.3709 44.2365 32.4948C44.1127 32.5572 43.9836 32.6101 43.8508 32.6499C43.7197 32.6896 43.5874 32.7248 43.4529 32.7558C43.1857 32.8176 42.8081 32.7875 42.5341 32.8104L42.5686 32.7763C42.9082 33.0556 43.3651 33.3453 43.7416 33.574C43.9302 33.6874 44.1236 33.7933 44.3238 33.8833C44.5237 33.9707 44.7317 34.0484 44.9443 34.0737C45.0501 34.0855 45.1588 34.0889 45.2586 34.0609C45.3594 34.0345 45.4462 33.9788 45.513 33.8997C45.5799 33.8214 45.622 33.7246 45.6226 33.6241C45.6214 33.5238 45.5817 33.4239 45.5234 33.3382C45.4042 33.1651 45.2179 33.0372 45.0193 32.9649C44.9187 32.9294 44.8131 32.9095 44.7094 32.9128C44.6057 32.9152 44.5035 32.9461 44.4225 33.0067C44.3406 33.0665 44.2836 33.1556 44.2488 33.2536C44.2131 33.3516 44.1988 33.4596 44.1978 33.5664C44.1951 33.6734 44.2068 33.7809 44.2292 33.8876C44.2497 33.9935 44.2826 34.0984 44.319 34.2013C44.4706 34.612 44.7029 34.9909 44.9215 35.3763C45.0307 35.569 45.141 35.7634 45.2367 35.9653C45.3324 36.1673 45.418 36.3772 45.4653 36.6002C45.5142 36.8213 45.5164 37.0615 45.4471 37.2826C45.3804 37.5034 45.2618 37.7026 45.1216 37.8794C44.8376 38.2332 44.4718 38.5087 44.0785 38.7236C43.6843 38.9377 43.2574 39.0927 42.8165 39.1762C42.3764 39.2596 41.9151 39.2712 41.4741 39.1824C41.0331 39.1044 40.6025 38.9789 40.186 38.8182C39.3519 38.4958 38.5788 38.0455 37.8257 37.5773L36.7005 36.8694C36.3244 36.6352 35.9467 36.4031 35.5736 36.1624C34.8284 35.6811 34.0964 35.1645 33.4597 34.535C33.3805 34.4555 33.3006 34.3779 33.2264 34.2944C33.1505 34.2119 33.0747 34.1303 33.0047 34.0429L32.8972 33.9137C32.8622 33.87 32.8304 33.8224 32.7962 33.7768C32.7259 33.6867 32.6736 33.5861 32.6145 33.4888C32.5107 33.2876 32.4171 33.0783 32.3646 32.8566C32.3295 32.7483 32.3191 32.6335 32.2963 32.5223C32.2896 32.409 32.2711 32.2957 32.2786 32.1811C32.2772 31.7247 32.4261 31.2655 32.7036 30.8988C32.7807 30.8134 32.8481 30.7198 32.938 30.6477C32.9814 30.61 33.0219 30.5699 33.0674 30.5347L33.2079 30.4368L33.2782 30.3879L33.3527 30.3467L33.5017 30.2643L33.6572 30.1957C33.7089 30.1716 33.7609 30.1502 33.8151 30.134L33.9762 30.0793L34.1412 30.0377C34.2505 30.0062 34.3634 29.9958 34.4746 29.9749C34.6993 29.9516 34.9256 29.9372 35.15 29.9526C35.6004 29.9724 36.0425 30.0736 36.4673 30.2157C36.8916 30.3615 37.2985 30.5571 37.6755 30.802C38.0516 31.0468 38.3953 31.3437 38.6922 31.6805C39.2879 32.3564 39.6997 33.1679 40.019 33.9979C40.3306 34.8331 40.6043 35.6759 40.8617 36.5263C41.1173 37.3769 41.3467 38.2359 41.5445 39.1021C41.5529 39.1382 41.5317 39.1749 41.4959 39.1851L41.495 39.1852C41.2222 39.2663 40.9506 39.3715 40.687 39.4859C40.4234 39.6012 40.1645 39.7305 39.919 39.8801C39.6734 40.028 39.4354 40.1923 39.2258 40.3857L39.1457 40.4569C39.119 40.4807 39.0963 40.5086 39.0715 40.534C39.0239 40.5864 38.9726 40.6365 38.9269 40.6905L38.7986 40.8591C38.7757 40.8861 38.7577 40.9163 38.7405 40.9474L38.6873 41.0388L38.634 41.1303L38.5884 41.2283C38.5589 41.2936 38.5258 41.3582 38.4991 41.425L38.4173 41.6247L38.3428 41.8274C38.2482 42.0999 38.173 42.3789 38.1015 42.6603C38.0301 42.9416 37.9598 43.2265 37.8685 43.5068C37.7782 43.7871 37.6649 44.0612 37.53 44.3227C37.4649 44.4555 37.3867 44.5805 37.314 44.7076C37.2383 44.8315 37.1636 44.9552 37.0917 45.0814C36.9469 45.3321 36.8105 45.5866 36.6963 45.85C36.5821 46.1134 36.4902 46.3857 36.4303 46.6661C36.3687 46.9467 36.3326 47.2332 36.3065 47.5215C36.2794 47.809 36.2679 48.1006 36.2377 48.3929C36.2092 48.6841 36.1699 48.9753 36.1161 49.2642C36.0074 49.8402 35.8457 50.4135 35.567 50.9382C35.5484 50.9729 35.5064 50.9854 35.4717 50.9668C35.4521 50.9568 35.4398 50.9381 35.4355 50.9187L35.4353 50.916C35.3924 50.6926 35.3295 50.4656 35.2635 50.2432C35.1965 50.0201 35.1216 49.7994 35.0424 49.5799C34.883 49.1411 34.7036 48.7094 34.5104 48.2842C34.1172 47.4379 33.6858 46.5948 33.4024 45.6901C33.2643 45.2378 33.1665 44.7643 33.1793 44.2842C33.1845 44.0461 33.211 43.8061 33.2659 43.5728C33.3199 43.3404 33.3926 43.1164 33.4518 42.8917C33.5119 42.6678 33.5584 42.4423 33.5637 42.2158C33.568 41.9885 33.539 41.7595 33.4976 41.5315C33.4139 41.0765 33.2853 40.6091 33.3225 40.1216L33.3631 39.7711C33.3804 39.6566 33.3771 39.5412 33.3845 39.4266C33.3866 39.3116 33.3796 39.1965 33.3745 39.0812L33.3557 38.9096L33.3467 38.8234L33.3315 38.7385C33.255 38.2829 33.1026 37.8426 32.9113 37.4182C32.7217 36.9927 32.5017 36.5796 32.2876 36.1615C32.1814 35.9515 32.0735 35.7434 31.9749 35.5274C31.8772 35.3122 31.7881 35.0927 31.7085 34.8697C31.3921 33.9775 31.2123 33.047 31.0878 32.1138C31.0298 31.645 30.9988 31.1775 30.9396 30.7151C30.8813 30.2535 30.7902 29.7946 30.62 29.3666C30.2558 28.5134 29.7716 27.7035 29.2039 26.9669C28.633 26.2341 27.9675 25.5595 27.1734 25.0831C26.7731 24.8483 26.3564 24.6329 25.9238 24.4726C25.7068 24.3956 25.4845 24.3289 25.2602 24.3037C25.0366 24.2757 24.8067 24.2905 24.6111 24.383C24.4126 24.4732 24.2708 24.6528 24.1783 24.8543C24.0898 25.0599 24.0423 25.2854 24.0193 25.5134C23.9981 25.7421 23.9958 25.9729 24.0167 26.2017C24.0376 26.4305 24.086 26.6561 24.1536 26.8756C24.2863 27.3166 24.5148 27.7245 24.7911 28.0934C25.0708 28.4612 25.4069 28.7839 25.761 29.088C26.1144 29.3931 26.482 29.6862 26.8294 30.0061C27.0032 30.1665 27.1712 30.3337 27.3284 30.5108C27.4874 30.6877 27.6298 30.8803 27.7649 31.0708C27.9008 31.2613 28.035 31.4519 28.188 31.6213C28.34 31.7898 28.5163 31.9374 28.7219 32.0073C28.9269 32.0807 29.1545 32.0483 29.362 31.9699C29.5719 31.8869 29.7662 31.7684 29.8872 31.587C30.1379 31.2306 30.02 30.6771 29.6729 30.4262C29.5872 30.3652 29.4874 30.3286 29.3864 30.3308C29.287 30.3319 29.1846 30.371 29.1149 30.4378C29.0435 30.5057 28.9989 30.6045 28.9755 30.7105C28.9512 30.8166 28.9437 30.9302 28.9442 31.0432C28.9537 31.5008 29.0576 31.9613 29.1505 32.4191C29.1983 32.6483 29.2471 32.8784 29.2889 33.1108C29.3295 33.3505 29.3215 33.6086 29.2325 33.8403C29.149 34.0743 29.0053 34.2737 28.8604 34.459C28.7147 34.6452 28.5582 34.8206 28.4335 35.0104C28.3076 35.1977 28.2168 35.4089 28.1518 35.6287C28.0879 35.8493 28.046 36.078 28.0079 36.3081C27.9315 36.7666 27.8785 37.2465 27.6809 37.6909C27.5835 37.9089 27.4511 38.1254 27.2666 38.287C27.086 38.4519 26.8753 38.5789 26.6547 38.6727C26.2119 38.8622 25.7387 38.9457 25.2695 38.992C24.7986 39.0377 24.3268 39.0421 23.8574 39.031L23.1542 39.0099C22.9177 39.0001 22.6778 38.9807 22.4452 38.931C22.2119 38.8832 21.982 38.8226 21.7593 38.7416C21.5352 38.6643 21.3168 38.5705 21.104 38.4671C20.6781 38.2596 20.2739 38.0108 19.894 37.7304C19.5132 37.4509 19.1541 37.1418 18.8207 36.8072C18.4864 36.4736 18.177 36.1147 17.8995 35.7315C17.6203 35.3493 17.3766 34.9409 17.1784 34.5098C17.0824 34.2927 16.9958 34.0712 16.9282 33.8418C16.8626 33.614 16.8076 33.3836 16.7631 33.1514C16.7203 32.9181 16.6881 32.6831 16.6666 32.4472C16.6478 32.2111 16.6397 31.974 16.644 31.7368C16.6511 31.4994 16.6698 31.2628 16.7022 31.0278C16.7372 30.7925 16.7858 30.5597 16.8482 30.3303C16.983 29.8741 17.1543 29.4372 17.322 28.9989C17.6612 28.1265 17.9972 27.248 18.098 26.321C18.2105 25.394 18.2335 24.4564 18.1957 23.5222C18.1773 23.0546 18.1446 22.5881 18.1003 22.1218L18.0293 21.4217C18.0051 21.186 17.9987 20.9489 17.9987 20.712C18.0084 20.2385 18.0627 19.7621 18.1955 19.3043L18.2466 19.1332C18.2652 19.0769 18.2866 19.0213 18.3069 18.9649C18.3449 18.8514 18.3969 18.7447 18.4442 18.6349C18.549 18.4208 18.6632 18.2103 18.8057 18.0181C18.9406 17.8211 19.1023 17.6435 19.27 17.4743C19.4381 17.3104 19.6082 17.1482 19.7794 16.9877C20.1217 16.6667 20.4717 16.3531 20.8229 16.0421C21.1731 15.7302 21.5255 15.4227 21.864 15.1002C22.0343 14.9407 22.1978 14.7745 22.3603 14.6067C22.5217 14.4371 22.6712 14.264 22.832 14.0865C23.1539 13.7366 23.5253 13.432 23.9361 13.1914C24.346 12.9499 24.7917 12.7737 25.249 12.6502C25.2867 12.6399 25.3253 12.6627 25.3356 12.6995C25.3459 12.7372 25.3231 12.7759 25.2864 12.7862C24.8384 12.9034 24.4037 13.0725 24.0029 13.3042C23.602 13.535 23.2378 13.8292 22.9212 14.1687C22.7652 14.3387 22.6093 14.5204 22.4478 14.6891C22.2836 14.858 22.1184 15.0252 21.9473 15.1857C21.6061 15.5093 21.253 15.8178 20.9018 16.1288C20.5506 16.4389 20.2012 16.7506 19.8598 17.0707C19.5214 17.395 19.1635 17.7011 18.9007 18.0828C18.763 18.2692 18.6512 18.4741 18.5485 18.6819C18.5027 18.7888 18.4514 18.8927 18.415 19.0034C18.3953 19.0579 18.3738 19.1118 18.3561 19.1671L18.3064 19.3345C18.1762 19.7813 18.122 20.2478 18.1117 20.7134C18.1013 21.1798 18.1705 21.6432 18.215 22.1113C18.2611 22.5784 18.2941 23.0475 18.3145 23.5176C18.3544 24.4562 18.3338 25.3998 18.2229 26.3357C18.1726 26.8055 18.0625 27.2686 17.9254 27.7187C17.7875 28.1698 17.62 28.6098 17.4542 29.048C17.2901 29.486 17.1198 29.9254 16.9948 30.37C16.9365 30.5938 16.8927 30.8208 16.8608 31.0495C16.8315 31.2789 16.8159 31.5099 16.8119 31.7408C16.8097 31.9715 16.8209 32.2029 16.841 32.4326C16.8638 32.6631 16.8982 32.8916 16.9421 33.1176C16.987 33.3444 17.0469 33.5681 17.1136 33.7877C17.182 34.0054 17.2687 34.2179 17.3649 34.4252C17.7671 35.2509 18.3548 35.9805 19.0233 36.6055C19.3577 36.9194 19.7141 37.2072 20.0887 37.4665C20.4625 37.7268 20.8568 37.9531 21.2655 38.1379C21.6718 38.3264 22.0951 38.4714 22.5228 38.5505L22.6828 38.5793L22.843 38.5982C22.8965 38.6063 22.9495 38.6081 23.0035 38.6108C23.0583 38.6134 23.1071 38.6183 23.1681 38.6186L23.8675 38.6373C24.3289 38.649 24.7864 38.6458 25.2344 38.6039C25.6807 38.5621 26.121 38.4823 26.5051 38.3183C26.6972 38.2377 26.8694 38.1327 27.011 38.0043C27.1573 37.879 27.2519 37.7249 27.3401 37.5363C27.5115 37.165 27.5708 36.716 27.6508 36.2473C27.6912 36.0125 27.7363 35.7701 27.81 35.5254C27.8837 35.2815 27.9903 35.0349 28.1437 34.8131C28.293 34.5943 28.4516 34.4232 28.5935 34.2453C28.7348 34.0703 28.8568 33.9013 28.9209 33.7246C28.9914 33.5501 29 33.3628 28.971 33.1661C28.9344 32.9422 28.8874 32.712 28.8431 32.4824C28.7979 32.2521 28.7525 32.0191 28.7156 31.7808C28.6795 31.5425 28.6476 31.3003 28.6477 31.0438C28.6486 30.9154 28.6572 30.7819 28.6912 30.6418C28.706 30.5724 28.7331 30.5002 28.7674 30.4282C28.8054 30.3569 28.8514 30.2858 28.9171 30.2256C28.9812 30.1664 29.0585 30.1169 29.1378 30.0896C29.2158 30.0589 29.2997 30.0438 29.3838 30.0431C29.4687 30.0405 29.5518 30.0586 29.6291 30.0836C29.7049 30.1113 29.7752 30.1485 29.8372 30.1936C30.0826 30.3758 30.22 30.637 30.2735 30.9125C30.3277 31.1869 30.2728 31.4947 30.1071 31.731C30.0256 31.849 29.9218 31.9474 29.8082 32.0242C29.7524 32.0638 29.6924 32.0966 29.6339 32.1249L29.4558 32.2025C29.394 32.2247 29.3282 32.241 29.2644 32.2598C29.2005 32.2777 29.129 32.28 29.0618 32.2901C28.9933 32.2959 28.9218 32.2875 28.8526 32.2852C28.7842 32.2703 28.7143 32.2591 28.6487 32.2358C28.3829 32.1423 28.1814 31.96 28.0172 31.7755C27.8529 31.5883 27.7181 31.3905 27.5847 31.198C27.4521 31.0046 27.3204 30.8218 27.1698 30.6496C27.021 30.4763 26.8603 30.3121 26.6921 30.1531C26.3564 29.8348 25.9915 29.5415 25.6367 29.2293C25.2812 28.92 24.9359 28.5837 24.6485 28.1986C24.3637 27.8134 24.129 27.3845 23.9926 26.9213C23.9241 26.6902 23.8756 26.453 23.8546 26.2125C23.8345 25.972 23.8386 25.7312 23.8625 25.4924C23.8892 25.2543 23.9399 25.0141 24.0401 24.7869C24.0935 24.6748 24.1588 24.567 24.2432 24.4721C24.3266 24.3772 24.433 24.2992 24.5476 24.2457C24.7796 24.1375 25.0364 24.1233 25.2774 24.1453C25.5211 24.1662 25.756 24.2228 25.9873 24.2896C26.2187 24.3564 26.4435 24.4417 26.6636 24.5346C26.8854 24.6273 27.0972 24.7289 27.3071 24.8495C27.5187 24.97 27.72 25.1065 27.9082 25.2577C28.0032 25.3323 28.0981 25.4069 28.1873 25.4882C28.2781 25.5668 28.369 25.6471 28.454 25.7315C28.8007 26.064 29.1174 26.4242 29.4079 26.8027C29.6984 27.1812 29.9645 27.5779 30.2048 27.9884C30.4471 28.4006 30.6588 28.8224 30.8432 29.2717C31.0203 29.7297 31.1088 30.2094 31.1633 30.6802C31.2189 31.1528 31.2446 31.6216 31.2965 32.082C31.4093 33.0037 31.576 33.9263 31.8768 34.8036C31.9524 35.0224 32.0368 35.2387 32.1305 35.4498C32.2234 35.6609 32.3314 35.8699 32.4348 36.0792C32.6453 36.4967 32.8647 36.9134 33.055 37.3479C33.2469 37.7795 33.4023 38.2347 33.4785 38.7074L33.494 38.7958L33.5032 38.8847L33.5216 39.0626C33.5262 39.1815 33.5326 39.3012 33.53 39.4207C33.5221 39.5398 33.524 39.6599 33.5061 39.778L33.4644 40.1259C33.4272 40.5811 33.5503 41.0364 33.6356 41.4993C33.6774 41.7318 33.7081 41.9705 33.7032 42.2122C33.6966 42.455 33.6473 42.6914 33.5849 42.92C33.5234 43.1485 33.4515 43.3716 33.3986 43.5958C33.3447 43.8192 33.3199 44.0482 33.3142 44.2801C33.3017 44.7422 33.3946 45.2 33.5294 45.6445C33.6677 46.0886 33.8446 46.5224 34.0343 46.9497C34.2233 47.3779 34.4329 47.7964 34.6273 48.2251C34.8217 48.6538 35.0013 49.0882 35.161 49.5315C35.2404 49.7527 35.3164 49.976 35.3837 50.2018C35.451 50.4285 35.5128 50.6539 35.5576 50.8897L35.4631 50.8742C35.7342 50.3663 35.8951 49.8038 36.0026 49.236C36.0559 48.9517 36.0955 48.664 36.1243 48.3754C36.154 48.0877 36.1664 47.7969 36.1931 47.5049C36.219 47.2139 36.2556 46.9229 36.3176 46.6352C36.3786 46.3475 36.4726 46.067 36.5898 45.797C36.7061 45.5272 36.8449 45.2689 36.9903 45.0154C37.1347 44.7603 37.2955 44.5181 37.4245 44.2615C37.5564 44.0056 37.6657 43.7382 37.7547 43.4634C37.8438 43.1886 37.9125 42.9066 37.9839 42.6244C38.1239 42.0592 38.2942 41.4915 38.5777 40.9717L38.6341 40.8746C38.652 40.8418 38.6717 40.8096 38.6953 40.7807L38.83 40.6026C38.8772 40.5458 38.9302 40.4938 38.9802 40.4385C39.0058 40.4121 39.0302 40.3832 39.0577 40.3584L39.1402 40.2843C39.3573 40.0831 39.6012 39.9148 39.8528 39.7628C40.1033 39.6091 40.3665 39.4777 40.6353 39.3601C40.904 39.2426 41.1765 39.1373 41.4606 39.0526L41.4159 39.1281C41.2175 38.2656 40.9875 37.4101 40.7312 36.5623C40.4734 35.7164 40.2011 34.8699 39.8772 34.0493C39.545 33.2356 39.1162 32.456 38.5293 31.8223C37.9451 31.1876 37.2047 30.7211 36.3925 30.4355C35.9874 30.2944 35.5668 30.1923 35.1405 30.1615C34.9274 30.1407 34.7141 30.1505 34.5013 30.1664C34.3961 30.1833 34.2892 30.1904 34.1858 30.2179L34.0302 30.2533L33.8774 30.3011C33.8257 30.3153 33.7763 30.3346 33.727 30.3558L33.5789 30.4166L33.4372 30.4903L33.3659 30.5268L33.2997 30.5709L33.1673 30.6582C33.1251 30.6895 33.086 30.726 33.0459 30.7598C32.9608 30.8244 32.8972 30.9104 32.8248 30.9873C32.7925 31.0295 32.7639 31.074 32.7336 31.1178L32.688 31.1835L32.6509 31.2539C32.6271 31.3016 32.6005 31.3478 32.5785 31.3963L32.5221 31.5463C32.4585 31.7499 32.4171 31.9624 32.4199 32.1783C32.4118 32.2857 32.4297 32.3928 32.4369 32.4998C32.4592 32.6056 32.4699 32.7133 32.5036 32.8163C32.5543 33.0265 32.6451 33.2234 32.7444 33.4143C32.8013 33.5055 32.8514 33.6018 32.9185 33.6859C32.9507 33.7289 32.9804 33.7731 33.0153 33.815L33.1216 33.9407C33.1905 34.0256 33.2662 34.1054 33.34 34.1853C33.4131 34.2671 33.4921 34.343 33.5701 34.4199C34.1992 35.033 34.9321 35.528 35.6788 35.9949C36.053 36.2282 36.4337 36.453 36.8147 36.6813L37.9509 37.3704C38.7032 37.8297 39.4671 38.2664 40.2775 38.5728C40.6825 38.7247 41.0945 38.8526 41.5174 38.9276C41.9331 39.014 42.3525 39.005 42.7699 38.9298C43.1857 38.8556 43.5933 38.7166 43.9692 38.5192C44.3442 38.322 44.6928 38.0659 44.9581 37.7459C45.0891 37.587 45.1979 37.4092 45.2574 37.2213C45.3198 37.0349 45.322 36.8364 45.2818 36.6344C45.2435 36.4321 45.1658 36.2323 45.0752 36.0371C44.9845 35.8411 44.8797 35.6489 44.7722 35.456C44.559 35.0693 44.327 34.6832 44.1725 34.2494C44.098 34.0331 44.0384 33.8022 44.0451 33.5603C44.0467 33.4409 44.0625 33.3193 44.1063 33.2C44.1484 33.0816 44.2228 32.9642 44.3327 32.885C44.4415 32.8051 44.5753 32.7661 44.7015 32.7645C44.8284 32.7611 44.9506 32.7859 45.0642 32.8266C45.2906 32.91 45.4958 33.0498 45.6384 33.2559C45.7079 33.3586 45.7597 33.4853 45.7612 33.6215C45.761 33.7588 45.7013 33.8911 45.6179 33.9869C45.5366 34.0852 45.4157 34.1617 45.292 34.1926C45.1676 34.2264 45.0436 34.2215 44.926 34.208C44.6897 34.1784 44.474 34.095 44.2666 34.0038C44.06 33.9107 43.8627 33.8007 43.6711 33.6848C43.2887 33.4504 42.9275 33.1899 42.5793 32.9041C42.5418 32.874 42.45 32.7876 42.4809 32.75C42.4964 32.7308 42.5768 32.7228 42.5999 32.7209L42.6405 32.7175C42.9074 32.6952 43.1604 32.686 43.4223 32.6256C43.5533 32.5958 43.683 32.5608 43.8114 32.5222C43.9382 32.4847 44.0586 32.4352 44.1764 32.376C44.4137 32.2575 44.6335 32.1001 44.8793 31.9648C45.0028 31.8988 45.1314 31.8406 45.2677 31.7987C45.4021 31.7569 45.5501 31.7266 45.7031 31.7462C45.7792 31.7559 45.8591 31.7798 45.9279 31.8305C45.9974 31.8804 46.0472 31.9614 46.0647 32.0425C46.084 32.1234 46.0782 32.2046 46.0644 32.2748C46.0534 32.3466 46.0351 32.4172 46.0095 32.4866C45.9821 32.5553 45.9494 32.6244 45.8989 32.6852C45.8521 32.7465 45.7842 32.8033 45.6928 32.8244C45.671 32.8316 45.6469 32.8318 45.6226 32.8302C45.6108 32.8294 45.5982 32.8287 45.5865 32.827L45.5524 32.8155L45.519 32.8021C45.5095 32.7957 45.5 32.7893 45.4904 32.7821C45.4723 32.7683 45.4523 32.7547 45.441 32.7369C45.3808 32.671 45.3601 32.5947 45.3388 32.522C45.3312 32.485 45.3273 32.4485 45.3216 32.4122C45.3185 32.3757 45.3191 32.3398 45.3178 32.3031C45.3172 32.2314 45.3207 32.1656 45.3222 32.0973L45.3311 31.6893L45.3489 30.8724C45.3503 30.8041 45.3536 30.7357 45.3481 30.6706C45.3462 30.6044 45.3416 30.5384 45.3334 30.4727C45.3205 30.3401 45.2971 30.2093 45.2606 30.0841C45.2251 29.9588 45.1755 29.8374 45.105 29.7329C45.0345 29.6294 44.943 29.5419 44.8343 29.4954C44.7257 29.4497 44.6016 29.4439 44.4903 29.4846C44.3788 29.5227 44.2826 29.6042 44.232 29.7063C44.1796 29.8084 44.1831 29.9256 44.2351 30.0334C44.2585 30.088 44.2945 30.1334 44.3347 30.174C44.3797 30.2097 44.4281 30.2416 44.4851 30.2592C44.5986 30.2982 44.7287 30.3017 44.8566 30.2874C44.9853 30.2731 45.1143 30.2417 45.24 30.2016C45.4919 30.1177 45.7347 30.0006 45.9651 29.8629C46.1945 29.7244 46.4143 29.567 46.6068 29.3841C46.7022 29.2927 46.7925 29.1937 46.8605 29.0857C46.8945 29.0318 46.9211 28.9748 46.9326 28.9191C46.9424 28.8645 46.9381 28.803 46.9215 28.7434C46.8881 28.6223 46.8262 28.5037 46.7542 28.3922C46.6822 28.2807 46.6006 28.1727 46.5158 28.0686C46.3452 27.8604 46.1584 27.6625 45.9693 27.4674C45.7808 27.2706 45.5819 27.0872 45.4042 26.8697L45.1557 26.5433C45.0723 26.4345 44.9965 26.3206 44.9164 26.2098C44.6031 25.7615 44.3174 25.291 44.0817 24.7958C44.0204 24.6736 43.9659 24.5471 43.9124 24.4206C43.8553 24.2953 43.8096 24.1664 43.7578 24.0398C43.7336 23.9754 43.7051 23.9132 43.6801 23.8489C43.655 23.7846 43.63 23.7212 43.6023 23.658C43.5461 23.5318 43.4968 23.4031 43.4467 23.2745C43.3947 23.1461 43.3498 23.0162 43.3101 22.8841C43.2696 22.7529 43.2343 22.6195 43.2052 22.4856C43.1416 22.2182 43.0897 21.9498 43.0438 21.6801C42.9496 21.1416 42.8862 20.597 42.7904 20.0614C42.7631 19.9282 42.7395 19.7948 42.7096 19.6627C42.6771 19.5309 42.6236 19.4053 42.5789 19.2771C42.5368 19.1488 42.4921 19.0207 42.4457 18.8945C42.3983 18.7674 42.3572 18.639 42.3038 18.5152C42.1077 18.0122 41.8639 17.5275 41.5716 17.0747C41.2796 16.6245 40.9435 16.1933 40.5494 15.8405C40.14 15.4755 39.735 15.12 39.309 14.7824C38.8849 14.4456 38.4479 14.1251 37.9904 13.8394C37.5323 13.5566 37.0549 13.3004 36.5493 13.1354C36.297 13.0533 36.0385 12.9933 35.779 12.9755C35.5194 12.9568 35.2591 12.9821 35.0198 13.0667C34.9609 13.0914 34.903 13.1159 34.8451 13.1423C34.7914 13.1746 34.7328 13.2028 34.6821 13.2385C34.6333 13.2766 34.5796 13.3098 34.5369 13.3555C34.5145 13.3771 34.4911 13.3979 34.4688 13.4204L34.4077 13.4928C34.2439 13.6877 34.1287 13.9279 34.0319 14.1745C33.8367 14.669 33.7272 15.2128 33.5037 15.723C33.2942 16.2285 33.0698 16.7272 32.8397 17.2218L32.4921 17.9622L32.3178 18.332C32.2601 18.4561 32.1977 18.5779 32.1531 18.6974C32.0606 18.9419 32.0028 19.2042 31.9736 19.4659C31.9479 19.7273 31.9514 19.9943 32.0144 20.2438C32.0763 20.4916 32.1987 20.7245 32.3975 20.8738C32.4961 20.949 32.6075 21.0061 32.7281 21.0454C32.8501 21.0791 32.976 21.1063 33.1062 21.1098C33.235 21.1187 33.3669 21.1104 33.4975 21.0977C33.6279 21.0823 33.7586 21.0598 33.8947 21.0367C34.1639 20.9891 34.4347 20.9486 34.707 20.916C35.2507 20.8508 35.8003 20.8139 36.3485 20.8237C36.8973 20.8299 37.4432 20.8776 37.9849 20.9275C38.2557 20.9524 38.5265 20.9764 38.7969 20.9969C39.0663 21.0148 39.3342 21.0265 39.6013 21.0068C39.8677 20.9891 40.1332 20.9499 40.3878 20.8766C40.5156 20.8408 40.6388 20.7937 40.7578 20.738C40.8173 20.7097 40.8747 20.6789 40.9292 20.6448C40.9838 20.6124 41.0386 20.571 41.0785 20.5345L41.1034 20.6607C40.6288 20.459 40.1103 20.3651 39.5912 20.3277C39.0713 20.2913 38.546 20.3092 38.0259 20.3679C37.7657 20.395 37.5067 20.4363 37.249 20.483C37.1202 20.5072 36.9925 20.5331 36.866 20.5634C36.8046 20.5784 36.737 20.5948 36.6847 20.6126C36.6328 20.634 36.5815 20.6643 36.5391 20.7029C36.4523 20.7792 36.4011 20.8848 36.4137 20.9932C36.4229 21.1028 36.4891 21.2094 36.5702 21.3013C36.7362 21.4865 36.9601 21.6257 37.1856 21.7513C37.4136 21.8749 37.6542 21.9768 37.8975 22.0794C38.1398 22.1811 38.3835 22.2783 38.6302 22.368C39.1218 22.5485 39.6264 22.7011 40.1364 22.8011C40.2637 22.8237 40.3925 22.8425 40.5183 22.8472C40.5812 22.8492 40.6438 22.8484 40.7022 22.84C40.7607 22.8324 40.8166 22.8143 40.8457 22.7876C40.8731 22.762 40.8787 22.7328 40.8657 22.6729C40.8525 22.6112 40.8384 22.5505 40.8166 22.4931C40.7756 22.3772 40.7106 22.275 40.6182 22.2092C40.5258 22.1433 40.4071 22.1165 40.2851 22.1141C40.163 22.1108 40.0349 22.1332 39.9079 22.1564C39.6549 22.2053 39.4061 22.2835 39.1631 22.3774C38.921 22.472 38.6782 22.5784 38.4478 22.6945C38.2151 22.8145 37.9779 22.9356 37.7568 23.0662C37.7441 23.0745 37.7304 23.0828 37.7203 23.0899C37.7169 23.092 37.7152 23.0939 37.7144 23.0949L37.7119 23.0969C37.7119 23.0969 37.716 23.0929 37.7177 23.091C37.7093 23.1088 37.7501 23.0497 37.7216 23.0091L37.7246 23.0133L37.7308 23.0226C37.7454 23.0474 37.7634 23.0702 37.7823 23.0928C37.8201 23.1381 37.8656 23.1782 37.9153 23.2154C38.0138 23.2897 38.1255 23.3512 38.2419 23.4034C38.4746 23.5086 38.7259 23.5791 38.9794 23.6324C39.4874 23.7398 40.0095 23.802 40.5288 23.799C40.6586 23.7972 40.788 23.7917 40.9149 23.7775C41.04 23.7626 41.1718 23.7426 41.27 23.695C41.2932 23.6832 41.3107 23.6682 41.3155 23.6607C41.3186 23.655 41.3198 23.6585 41.312 23.6403C41.3086 23.6325 41.2998 23.6234 41.2928 23.6141L41.2627 23.5861C41.2431 23.5671 41.2176 23.5513 41.1939 23.5354C41.0922 23.4757 40.9692 23.4402 40.8454 23.4165C40.5942 23.3702 40.3316 23.3679 40.0719 23.3797C39.8113 23.3916 39.5502 23.4197 39.2908 23.4557C39.1607 23.4746 39.0316 23.4953 38.9027 23.5186L38.8067 23.5374C38.7775 23.5425 38.7445 23.5543 38.7138 23.5622L38.5257 23.6165C38.2781 23.6982 38.0346 23.7965 37.8058 23.9215C37.5771 24.0465 37.3632 24.1989 37.1825 24.3844C37.0018 24.5699 36.8497 24.7863 36.7599 25.0306C36.5699 25.512 36.598 26.0739 36.7909 26.5395L36.7932 26.5447C36.8079 26.5812 36.7907 26.6221 36.7552 26.6367C36.7197 26.6513 36.6779 26.6342 36.6633 26.5986C36.6631 26.5968 36.6621 26.5951 36.662 26.5942L36.6614 26.597Z" stroke="#CBE2D1" stroke-width="0.4" mask="url(#path-6-outside-1_8956_26500)"/>
<path d="M24.1581 17.839C24.3182 13.8455 28.1551 8.57142 32.6782 11.5668C34.2809 12.6281 30.8757 15.172 29.3872 18.1649C27.8986 21.1577 28.4242 22.3644 26.9149 22.4154C25.4056 22.4664 24.0515 20.4993 24.1581 17.839Z" fill="#4EA692"/>
</svg>
