<svg width="19" height="19" viewBox="0 0 19 19" fill="none" xmlns="http://www.w3.org/2000/svg">
<path d="M16.479 9.04543C16.4816 10.0353 16.2503 11.0118 15.804 11.8954C15.2748 12.9542 14.4613 13.8448 13.4546 14.4674C12.4479 15.09 11.2877 15.42 10.104 15.4204C9.1141 15.423 8.13759 15.1917 7.254 14.7454L2.979 16.1704L4.404 11.8954C3.9577 11.0118 3.72642 10.0353 3.729 9.04543C3.72946 7.86175 4.05946 6.70157 4.68204 5.69484C5.30462 4.68812 6.19519 3.87461 7.254 3.34543C8.13759 2.89913 9.1141 2.66785 10.104 2.67043H10.479C12.0423 2.75668 13.5188 3.4165 14.6259 4.52358C15.7329 5.63065 16.3928 7.10717 16.479 8.67043V9.04543Z" stroke="#043A4E" stroke-linecap="round" stroke-linejoin="round"/>
</svg>
