<svg width="101" height="90" viewBox="0 0 101 90" fill="none" xmlns="http://www.w3.org/2000/svg">
<path d="M10.3458 40.7186L1.51723 46.1429C0.852244 46.5515 0.890738 47.5304 1.58575 47.8855L10.4143 52.396C11.0797 52.736 11.8693 52.2527 11.8693 51.5055L11.8693 41.5707C11.8693 40.7887 11.0121 40.3093 10.3458 40.7186Z" fill="#FF9D48"/>
<rect x="9.36963" width="90.797" height="89.2489" rx="44.6244" fill="#FF9D48"/>
<path d="M54.902 60.1031C63.9739 60.1031 71.3282 52.7488 71.3282 43.6769C71.3282 34.605 63.9739 27.2507 54.902 27.2507C45.8301 27.2507 38.4758 34.605 38.4758 43.6769C38.4758 52.7488 45.8301 60.1031 54.902 60.1031Z" stroke="#CBE2D1" stroke-width="2" stroke-linecap="round" stroke-linejoin="round"/>
<path d="M48.3315 46.9622C48.3315 46.9622 50.7955 50.2474 54.902 50.2474C59.0086 50.2474 61.4725 46.9622 61.4725 46.9622" stroke="#CBE2D1" stroke-width="2" stroke-linecap="round" stroke-linejoin="round"/>
<path d="M49.9741 38.749H49.9907" stroke="#CBE2D1" stroke-width="2" stroke-linecap="round" stroke-linejoin="round"/>
<path d="M59.8298 38.749H59.8464" stroke="#CBE2D1" stroke-width="2" stroke-linecap="round" stroke-linejoin="round"/>
<path fill-rule="evenodd" clip-rule="evenodd" d="M72.3278 29.2603C73.9226 29.2603 75.2154 30.5531 75.2154 32.1479L75.2155 40.8108C75.2155 42.4056 73.9226 43.6984 72.3278 43.6984C70.733 43.6984 69.4402 42.4056 69.4402 40.8108L69.4402 32.1479C69.4402 30.5531 70.733 29.2603 72.3278 29.2603Z" fill="#6D597A"/>
<path fill-rule="evenodd" clip-rule="evenodd" d="M36.6978 29.2603C37.752 29.2603 38.6067 30.1149 38.6067 31.1692L38.6067 36.896C38.6067 37.9503 37.752 38.8049 36.6978 38.8049C35.6435 38.8049 34.7888 37.9503 34.7888 36.896L34.7888 31.1692C34.7888 30.1149 35.6435 29.2603 36.6978 29.2603Z" fill="#6D597A"/>
<path fill-rule="evenodd" clip-rule="evenodd" d="M34.7888 62.6855C34.7888 61.0907 36.0817 59.7979 37.6765 59.7979L72.3281 59.7979C73.9229 59.7979 75.2157 61.0907 75.2157 62.6855C75.2157 64.2803 73.9229 65.5731 72.3281 65.5731L37.6765 65.5731C36.0817 65.5731 34.7888 64.2803 34.7888 62.6855Z" fill="#6D597A"/>
<circle cx="54.7338" cy="44.3642" r="38.3642" fill="#043A4E"/>
<rect x="22.3696" y="12" width="65" height="64" rx="32" fill="#CBE2D1"/>
<path d="M66.342 42.9969C66.3467 44.8048 65.9243 46.5884 65.1091 48.2022C64.1426 50.1361 62.6568 51.7626 60.8181 52.8997C58.9793 54.0368 56.8604 54.6396 54.6984 54.6404C52.8904 54.6451 51.1069 54.2227 49.4931 53.4076L41.6851 56.0102L44.2877 48.2022C43.4726 46.5884 43.0502 44.8048 43.0549 42.9969C43.0557 40.8349 43.6584 38.7159 44.7956 36.8772C45.9327 35.0385 47.5592 33.5527 49.4931 32.5862C51.1069 31.771 52.8904 31.3486 54.6984 31.3533H55.3833C58.2385 31.5108 60.9353 32.716 62.9573 34.738C64.9793 36.76 66.1845 39.4567 66.342 42.3119V42.9969Z" stroke="#043A4E" stroke-width="2" stroke-linecap="round" stroke-linejoin="round"/>
</svg>
