<svg width="33" height="33" viewBox="0 0 33 33" fill="none" xmlns="http://www.w3.org/2000/svg">
<circle cx="16.5" cy="16.8662" r="16.1387" fill="#6D597A"/>
<circle cx="16.5" cy="16.8662" r="16.1387" fill="black" fill-opacity="0.2"/>
<path d="M16.5 15.6562C17.4359 15.6562 18.1945 16.4149 18.1945 17.3508C18.1945 18.2866 17.4359 19.0453 16.5 19.0453C15.5641 19.0453 14.8055 18.2866 14.8055 17.3508C14.8055 16.4149 15.5641 15.6563 16.5 15.6562Z" fill="#A0A0A0"/>
<path d="M9.72187 15.6562C10.6577 15.6562 11.4164 16.4149 11.4164 17.3508C11.4164 18.2866 10.6577 19.0453 9.72187 19.0453C8.78601 19.0453 8.02734 18.2866 8.02734 17.3508C8.02734 16.4149 8.78601 15.6563 9.72187 15.6562Z" fill="#A0A0A0"/>
<path d="M23.2781 15.6562C24.214 15.6562 24.9727 16.4149 24.9727 17.3508C24.9727 18.2866 24.214 19.0453 23.2781 19.0453C22.3423 19.0453 21.5836 18.2866 21.5836 17.3508C21.5836 16.4149 22.3423 15.6563 23.2781 15.6562Z" fill="#A0A0A0"/>
</svg>
