<svg width="12" height="12" viewBox="0 0 12 12" fill="none" xmlns="http://www.w3.org/2000/svg">
<path d="M5.9998 11C5.3748 11 4.78939 10.8813 4.24356 10.6438C3.69772 10.4063 3.22272 10.0855 2.81855 9.6813C2.41439 9.27713 2.09355 8.80213 1.85605 8.2563C1.61855 7.71047 1.4998 7.12505 1.4998 6.50005C1.4998 5.87505 1.61855 5.28963 1.85605 4.7438C2.09355 4.19797 2.41439 3.72297 2.81855 3.3188C3.22272 2.91463 3.69772 2.5938 4.24356 2.3563C4.78939 2.1188 5.3748 2.00005 5.9998 2.00005C6.62481 2.00005 7.21022 2.1188 7.75606 2.3563C8.30189 2.5938 8.77689 2.91463 9.18106 3.3188C9.58522 3.72297 9.90606 4.19797 10.1436 4.7438C10.3811 5.28963 10.4998 5.87505 10.4998 6.50005C10.4998 7.12505 10.3811 7.71047 10.1436 8.2563C9.90606 8.80213 9.58522 9.27713 9.18106 9.6813C8.77689 10.0855 8.30189 10.4063 7.75606 10.6438C7.21022 10.8813 6.62481 11 5.9998 11ZM7.39981 8.60005L8.09981 7.90005L6.4998 6.30005V4.00005H5.4998V6.70005L7.39981 8.60005ZM2.7998 1.17505L3.4998 1.87505L1.3748 4.00005L0.674805 3.30005L2.7998 1.17505ZM9.19981 1.17505L11.3248 3.30005L10.6248 4.00005L8.49981 1.87505L9.19981 1.17505ZM5.9998 10C6.97481 10 7.80189 9.66047 8.48106 8.9813C9.16022 8.30213 9.49981 7.47505 9.49981 6.50005C9.49981 5.52505 9.16022 4.69797 8.48106 4.0188C7.80189 3.33963 6.97481 3.00005 5.9998 3.00005C5.02481 3.00005 4.19772 3.33963 3.51855 4.0188C2.83939 4.69797 2.4998 5.52505 2.4998 6.50005C2.4998 7.47505 2.83939 8.30213 3.51855 8.9813C4.19772 9.66047 5.02481 10 5.9998 10Z" fill="#6D597A"/>
</svg>
