<svg width="27" height="18" viewBox="0 0 27 18" fill="none" xmlns="http://www.w3.org/2000/svg">
<path d="M15.272 10.9921C15.272 9.10323 15.5626 7.48073 16.1438 6.12461C16.725 4.72006 17.4757 3.58189 18.3959 2.7101C19.3162 1.78988 20.3575 1.13603 21.5199 0.74857C22.7307 0.312674 23.9173 0.0947266 25.0797 0.0947266V2.63745C23.8204 2.63745 22.6338 3.07335 21.5199 3.94514C20.4543 4.76849 19.8247 5.90666 19.631 7.35965C19.7763 7.31122 19.9458 7.26278 20.1395 7.21435C20.2848 7.16592 20.4543 7.11748 20.6481 7.06905C20.8902 7.02062 21.1566 6.9964 21.4472 6.9964C22.9002 6.9964 24.111 7.55338 25.0797 8.66734C26.0483 9.73286 26.5327 10.9921 26.5327 12.4451C26.5327 13.8981 26.0241 15.1815 25.007 16.2955C24.0384 17.361 22.7307 17.8938 21.084 17.8938C19.2435 17.8938 17.8148 17.2157 16.7977 15.8596C15.7806 14.4551 15.272 12.8326 15.272 10.9921ZM0.742188 10.9921C0.742188 9.10323 1.03278 7.48073 1.61398 6.12461C2.19517 4.72006 2.94588 3.58189 3.8661 2.7101C4.78633 1.78988 5.82763 1.13603 6.99002 0.74857C8.20084 0.312674 9.38745 0.0947266 10.5498 0.0947266V2.63745C9.29058 2.63745 8.10398 3.07335 6.99002 3.94514C5.9245 4.76849 5.29487 5.90666 5.10114 7.35965C5.24644 7.31122 5.41595 7.26278 5.60969 7.21435C5.75498 7.16592 5.9245 7.11748 6.11823 7.06905C6.36039 7.02062 6.62677 6.9964 6.91737 6.9964C8.37036 6.9964 9.58118 7.55338 10.5498 8.66734C11.5185 9.73286 12.0028 10.9921 12.0028 12.4451C12.0028 13.8981 11.4943 15.1815 10.4772 16.2955C9.50853 17.361 8.20084 17.8938 6.55413 17.8938C4.71368 17.8938 3.28491 17.2157 2.26782 15.8596C1.25073 14.4551 0.742188 12.8326 0.742188 10.9921Z" />
</svg>
