<svg width="25" height="25" viewBox="0 0 25 25" fill="none" xmlns="http://www.w3.org/2000/svg">
<path d="M16.9803 10.9795H20.8238C21.2479 10.9795 21.5918 11.3234 21.5918 11.7475V12.1045C21.5918 12.2662 21.5906 13.2402 21.0333 14.1671C20.6624 14.7848 20.0248 15.4144 18.9061 15.7442C19.0121 15.8805 19.1076 16.0256 19.1913 16.1781C20.3227 15.8094 21.0297 15.1445 21.4622 14.425L16.9803 10.9795ZM16.9803 10.9795C16.9416 10.8089 16.8931 10.642 16.8357 10.4795H20.8238C21.5247 10.4795 22.0918 11.0476 22.0918 11.7465V12.1065C22.0918 12.2942 22.0904 13.3791 21.4623 14.4249L16.9803 10.9795ZM4.15014 14.1679L4.15028 14.1681C4.52109 14.7849 5.15851 15.4143 6.27717 15.7441C6.17108 15.8808 6.07579 16.0259 5.99233 16.1781C4.86101 15.8094 4.15387 15.1446 3.72038 14.425C3.0932 13.3791 3.0918 12.2933 3.0918 12.1075V11.7475C3.0918 11.0464 3.65812 10.4795 4.3598 10.4795H8.34747C8.28956 10.6431 8.2412 10.8101 8.20264 10.9795H4.3598C3.93565 10.9795 3.5918 11.3233 3.5918 11.7475V12.1045C3.5918 12.2663 3.59301 13.2401 4.15014 14.1679ZM8.0918 3.97949C7.56136 3.97949 7.05266 4.19021 6.67758 4.56528C6.30251 4.94035 6.0918 5.44906 6.0918 5.97949C6.0918 6.50993 6.30251 7.01863 6.67758 7.39371C7.05266 7.76878 7.56136 7.97949 8.0918 7.97949C8.62223 7.97949 9.13094 7.76878 9.50601 7.39371C9.88108 7.01863 10.0918 6.50993 10.0918 5.97949C10.0918 5.44906 9.88108 4.94035 9.50601 4.56528C9.13094 4.19021 8.62223 3.97949 8.0918 3.97949ZM5.5918 5.97949C5.5918 5.31645 5.85519 4.68057 6.32403 4.21173C6.79287 3.74288 7.42876 3.47949 8.0918 3.47949C8.75484 3.47949 9.39072 3.74288 9.85956 4.21173C10.3284 4.68057 10.5918 5.31645 10.5918 5.97949C10.5918 6.64253 10.3284 7.27842 9.85956 7.74726C9.39072 8.2161 8.75484 8.47949 8.0918 8.47949C7.42876 8.47949 6.79287 8.2161 6.32403 7.74726C5.85519 7.27842 5.5918 6.64253 5.5918 5.97949ZM15.6776 4.56528C15.3025 4.94035 15.0918 5.44906 15.0918 5.97949C15.0918 6.50993 15.3025 7.01863 15.6776 7.39371C16.0527 7.76878 16.5614 7.97949 17.0918 7.97949C17.6222 7.97949 18.1309 7.76878 18.506 7.39371C18.8811 7.01863 19.0918 6.50993 19.0918 5.97949C19.0918 5.44906 18.8811 4.94035 18.506 4.56528C18.1309 4.19021 17.6222 3.97949 17.0918 3.97949C16.5614 3.97949 16.0527 4.19021 15.6776 4.56528ZM15.324 4.21173C15.7929 3.74288 16.4288 3.47949 17.0918 3.47949C17.7548 3.47949 18.3907 3.74288 18.8596 4.21173C19.3284 4.68057 19.5918 5.31645 19.5918 5.97949C19.5918 6.64253 19.3284 7.27842 18.8596 7.74726C18.3907 8.2161 17.7548 8.47949 17.0918 8.47949C16.4288 8.47949 15.7929 8.2161 15.324 7.74726C14.8552 7.27842 14.5918 6.64253 14.5918 5.97949C14.5918 5.31645 14.8552 4.68057 15.324 4.21173ZM12.5918 9.97949C12.3292 9.97949 12.0691 10.0312 11.8264 10.1317C11.5838 10.2322 11.3633 10.3796 11.1776 10.5653C10.9919 10.751 10.8445 10.9715 10.744 11.2141C10.6435 11.4568 10.5918 11.7168 10.5918 11.9795C10.5918 12.2421 10.6435 12.5022 10.744 12.7449C10.8445 12.9875 10.9919 13.208 11.1776 13.3937C11.3633 13.5794 11.5838 13.7267 11.8264 13.8273C12.0691 13.9278 12.3292 13.9795 12.5918 13.9795C13.1222 13.9795 13.6309 13.7688 14.006 13.3937C14.3811 13.0186 14.5918 12.5099 14.5918 11.9795C14.5918 11.4491 14.3811 10.9404 14.006 10.5653C13.6309 10.1902 13.1222 9.97949 12.5918 9.97949ZM10.0918 11.9795C10.0918 11.3165 10.3552 10.6806 10.824 10.2117C11.2929 9.74288 11.9288 9.47949 12.5918 9.47949C13.2548 9.47949 13.8907 9.74288 14.3596 10.2117C14.8284 10.6806 15.0918 11.3165 15.0918 11.9795C15.0918 12.6425 14.8284 13.2784 14.3596 13.7473C13.8907 14.2161 13.2548 14.4795 12.5918 14.4795C11.9288 14.4795 11.2929 14.2161 10.824 13.7473C10.3552 13.2784 10.0918 12.6425 10.0918 11.9795ZM7.5918 17.7475C7.5918 17.0458 8.15875 16.4795 8.8598 16.4795H16.3238C17.0247 16.4795 17.5918 17.0466 17.5918 17.7475V18.1075C17.5918 18.2933 17.5904 19.3791 16.9632 20.425C16.3186 21.4952 15.0453 22.4795 12.5918 22.4795C10.1381 22.4795 8.86407 21.4952 8.22058 20.4253C7.5932 19.3794 7.5918 18.2943 7.5918 18.1065V17.7475ZM8.8598 16.9795C8.75893 16.9795 8.65907 16.9994 8.5659 17.038C8.47272 17.0765 8.38806 17.1331 8.31674 17.2044C8.24542 17.2758 8.18885 17.3604 8.15026 17.4536C8.11166 17.5468 8.0918 17.6466 8.0918 17.7475V18.1045C8.0918 18.2662 8.09298 19.2402 8.65029 20.1671C8.91241 20.6037 9.3185 21.0649 9.96418 21.4132C10.6071 21.76 11.4591 21.9795 12.5918 21.9795C13.7245 21.9795 14.5765 21.76 15.2194 21.4132C15.8651 21.0649 16.2712 20.6037 16.5333 20.1671C17.0906 19.2402 17.0918 18.2662 17.0918 18.1045V17.7475C17.0918 17.5438 17.0109 17.3485 16.8669 17.2044C16.7228 17.0604 16.5275 16.9795 16.3238 16.9795H8.8598Z" fill="#4EA692" stroke="#4EA692"/>
</svg>
