<svg width="14" height="14" viewBox="0 0 14 14" fill="none" xmlns="http://www.w3.org/2000/svg">
<path d="M5.34349 6.34067C5.28516 6.33484 5.21516 6.33484 5.15099 6.34067C3.76266 6.294 2.66016 5.1565 2.66016 3.7565C2.66016 2.32734 3.81516 1.1665 5.25016 1.1665C6.67932 1.1665 7.84016 2.32734 7.84016 3.7565C7.83432 5.1565 6.73182 6.294 5.34349 6.34067Z" fill="#CBE2D1" stroke="#CBE2D1" stroke-width="0.875" stroke-linecap="round" stroke-linejoin="round"/>
<path d="M9.57193 2.3335C10.7036 2.3335 11.6136 3.24933 11.6136 4.37516C11.6136 5.47766 10.7386 6.376 9.64776 6.41683C9.60109 6.411 9.54859 6.411 9.49609 6.41683" stroke="#CBE2D1" stroke-width="0.875" stroke-linecap="round" stroke-linejoin="round"/>
<path d="M2.42789 8.4935C1.01622 9.4385 1.01622 10.9785 2.42789 11.9177C4.03206 12.991 6.66289 12.991 8.26706 11.9177C9.67872 10.9727 9.67872 9.43266 8.26706 8.4935C6.66872 7.426 4.03789 7.426 2.42789 8.4935Z" fill="#CBE2D1" stroke="#CBE2D1" stroke-width="0.875" stroke-linecap="round" stroke-linejoin="round"/>
<path d="M10.6992 11.6665C11.1192 11.579 11.5159 11.4098 11.8426 11.159C12.7526 10.4765 12.7526 9.35067 11.8426 8.66817C11.5217 8.42317 11.1309 8.25984 10.7167 8.1665" stroke="#CBE2D1" stroke-width="0.875" stroke-linecap="round" stroke-linejoin="round"/>
</svg>
