<svg width="13" height="13" viewBox="0 0 13 13" fill="none" xmlns="http://www.w3.org/2000/svg">
<path fill-rule="evenodd" clip-rule="evenodd" d="M0.819436 0.751051C1.15417 0.416316 1.69688 0.416316 2.03162 0.751051L6.56837 5.2878L11.1051 0.751077C11.4398 0.416342 11.9825 0.416342 12.3173 0.751077C12.652 1.08581 12.652 1.62852 12.3173 1.96326L7.78056 6.49999L12.3173 11.0367C12.652 11.3715 12.652 11.9142 12.3173 12.2489C11.9826 12.5837 11.4399 12.5837 11.1051 12.2489L6.56837 7.71217L2.03159 12.2489C1.69686 12.5837 1.15415 12.5837 0.819411 12.2489C0.484676 11.9142 0.484676 11.3715 0.819411 11.0368L5.35619 6.49999L0.819436 1.96323C0.484701 1.6285 0.484701 1.08579 0.819436 0.751051Z" fill="#CBE2D1"/>
</svg>
