<svg width="14" height="13" viewBox="0 0 14 13" fill="none" xmlns="http://www.w3.org/2000/svg">
<path d="M8.17696 9.79662C7.78301 9.39908 7.39124 9.0032 7.02133 8.63002C6.64924 9.00984 6.25528 9.41237 5.86515 9.81046C5.90668 9.92507 6.02907 10.0978 6.00776 10.2506C5.98591 10.4101 5.84494 10.5684 5.72364 10.6952C5.05758 11.3901 4.38223 12.0756 3.70907 12.7627C3.39598 13.0821 3.21294 13.0794 2.91132 12.7516C2.02998 11.7932 1.14974 10.8348 0.270036 9.87524C-0.106433 9.46441 -0.0938656 9.29997 0.336696 8.96334C1.04264 8.41076 1.74914 7.85986 2.45508 7.30784C2.93154 6.93577 2.98618 6.93687 3.4457 7.35435C3.76207 7.11737 4.07133 6.93189 4.12378 6.4286C4.30519 4.67842 4.54178 2.93323 4.77017 1.18804C4.90677 0.146569 6.10393 -0.382193 6.94429 0.318763C7.24699 0.213011 7.5191 0.0607492 7.80377 0.0291896C8.5212 -0.0510937 9.13644 0.453307 9.23097 1.17641C9.45936 2.9216 9.69814 4.66624 9.87736 6.41697C9.92762 6.90808 10.2254 7.10298 10.5281 7.34217C10.5587 7.33442 10.5806 7.33608 10.5926 7.32556C11.0226 6.9402 11.0772 6.93854 11.54 7.30009C12.275 7.87425 13.0104 8.44786 13.7448 9.02313C14.06 9.27007 14.0835 9.48933 13.8136 9.78499C12.8924 10.7938 11.969 11.7998 11.0428 12.8042C10.803 13.0639 10.5926 13.065 10.3412 12.8092C9.64678 12.1038 8.95668 11.3945 8.26494 10.6869C7.88464 10.2977 7.87645 10.198 8.17806 9.79662H8.17696ZM5.24827 9.15602C5.61381 8.78284 6.00995 8.40246 6.37385 7.99329C6.48914 7.86373 6.5782 7.65666 6.5793 7.48391C6.5935 5.47461 6.58968 3.46476 6.58695 1.45491C6.58695 1.07896 6.42193 0.87078 6.12852 0.848633C5.81926 0.825378 5.62037 1.02027 5.57392 1.3929C5.33679 3.2754 5.10457 5.15791 4.85486 7.03875C4.8341 7.19433 4.72646 7.35933 4.615 7.47726C4.44288 7.65832 4.23306 7.80227 4.02762 7.9717C4.44561 8.37699 4.83793 8.75681 5.24882 9.15491L5.24827 9.15602ZM9.96915 7.96561C9.76917 7.80172 9.56154 7.66275 9.39543 7.48391C9.2796 7.35878 9.16595 7.18658 9.14464 7.02325C8.89439 5.1424 8.66271 3.2599 8.42558 1.3774C8.38132 1.0247 8.18352 0.832022 7.88355 0.848633C7.58631 0.864689 7.41474 1.07232 7.41419 1.44384C7.41146 3.46255 7.41146 5.48181 7.41692 7.50052C7.41692 7.62344 7.43386 7.784 7.50872 7.86318C7.92835 8.30557 8.3682 8.72802 8.76598 9.12224C9.16485 8.73965 9.55935 8.36038 9.9697 7.96672L9.96915 7.96561ZM10.7123 11.9449C11.4526 11.1376 12.2061 10.316 12.9771 9.47493C12.3443 8.9805 11.7296 8.50046 11.1696 8.06306C10.4188 8.79169 9.69322 9.49542 8.96706 10.1997C9.55717 10.7899 10.1303 11.363 10.7117 11.9443L10.7123 11.9449ZM2.85505 8.04478C2.26111 8.50877 1.65242 8.98493 1.02461 9.47549C1.79503 10.3154 2.54852 11.1365 3.25501 11.9072C3.84293 11.327 4.4243 10.7534 5.02753 10.1576C4.3183 9.46774 3.59815 8.76789 2.8545 8.04423L2.85505 8.04478Z" fill="#CBE2D1"/>
</svg>
