<svg width="27" height="27" viewBox="0 0 27 27" fill="none" xmlns="http://www.w3.org/2000/svg">
<path d="M13.6689 18.5625V20.925" stroke="#053B4E" stroke-width="1.6875" stroke-linecap="round" stroke-linejoin="round"/>
<path d="M8.04395 24.75H19.2939V23.625C19.2939 22.3875 18.2814 21.375 17.0439 21.375H10.2939C9.05644 21.375 8.04395 22.3875 8.04395 23.625V24.75V24.75Z" stroke="#053B4E" stroke-width="1.6875" stroke-miterlimit="10"/>
<path d="M6.91895 24.75H20.4189" stroke="#053B4E" stroke-width="1.6875" stroke-linecap="round" stroke-linejoin="round"/>
<path d="M13.5 18C9.14625 18 5.625 14.4787 5.625 10.125V6.75C5.625 4.26375 7.63875 2.25 10.125 2.25H16.875C19.3613 2.25 21.375 4.26375 21.375 6.75V10.125C21.375 14.4787 17.8537 18 13.5 18Z" stroke="#053B4E" stroke-width="1.6875" stroke-linecap="round" stroke-linejoin="round"/>
<path d="M6.15367 13.1063C5.30992 12.8363 4.56742 12.3413 3.98242 11.7563C2.96992 10.6313 2.29492 9.2813 2.29492 7.7063C2.29492 6.1313 3.53242 4.8938 5.10742 4.8938H5.83867C5.61367 5.4113 5.50117 5.98505 5.50117 6.5813V9.9563C5.50117 11.0813 5.73742 12.1388 6.15367 13.1063Z" stroke="#053B4E" stroke-width="1.6875" stroke-linecap="round" stroke-linejoin="round"/>
<path d="M20.8467 13.1063C21.6904 12.8363 22.4329 12.3413 23.0179 11.7563C24.0304 10.6313 24.7054 9.2813 24.7054 7.7063C24.7054 6.1313 23.4679 4.8938 21.8929 4.8938H21.1617C21.3867 5.4113 21.4992 5.98505 21.4992 6.5813V9.9563C21.4992 11.0813 21.2629 12.1388 20.8467 13.1063Z" stroke="#053B4E" stroke-width="1.6875" stroke-linecap="round" stroke-linejoin="round"/>
</svg>
