<svg width="21" height="21" viewBox="0 0 21 21" fill="none" xmlns="http://www.w3.org/2000/svg">
<g clip-path="url(#clip0_4794_22872)">
<path d="M10.2511 18.4593C14.985 18.4593 18.8225 14.6217 18.8225 9.88783C18.8225 5.15397 14.985 1.31641 10.2511 1.31641C5.51725 1.31641 1.67969 5.15397 1.67969 9.88783C1.67969 14.6217 5.51725 18.4593 10.2511 18.4593Z" stroke="#CBE2D1" stroke-width="1.71429" stroke-linecap="round" stroke-linejoin="round"/>
<path d="M14.6406 17.2578C15.9881 17.8584 17.1949 18.7343 18.1835 19.8292" stroke="#CBE2D1" stroke-width="1.71429" stroke-linecap="round" stroke-linejoin="round"/>
<path d="M2.32031 19.8292C3.30891 18.7343 4.51574 17.8584 5.86317 17.2578" stroke="#CBE2D1" stroke-width="1.71429" stroke-linecap="round" stroke-linejoin="round"/>
<path d="M10.2545 14.173C12.6214 14.173 14.5402 12.2542 14.5402 9.88728C14.5402 7.52034 12.6214 5.60156 10.2545 5.60156C7.88753 5.60156 5.96875 7.52034 5.96875 9.88728C5.96875 12.2542 7.88753 14.173 10.2545 14.173Z" stroke="#CBE2D1" stroke-width="1.71429" stroke-linecap="round" stroke-linejoin="round"/>
</g>
<defs>
<clipPath id="clip0_4794_22872">
<rect width="20" height="20" fill="white" transform="translate(0.25 0.574219)"/>
</clipPath>
</defs>
</svg>
