<svg width="91" height="92" viewBox="0 0 91 92" fill="none" xmlns="http://www.w3.org/2000/svg">
<circle opacity="0.21" cx="45.5" cy="46.2037" r="45.3359" fill="#043A4E"/>
<path opacity="0.4" d="M63.9054 36.5811V56.6013C63.9054 62.6073 60.9024 66.6114 53.8953 66.6114H37.8792C30.8722 66.6114 27.8691 62.6073 27.8691 56.6013V36.5811C27.8691 30.5751 30.8722 26.5711 37.8792 26.5711H53.8953C60.9024 26.5711 63.9054 30.5751 63.9054 36.5811Z" fill="#043A4E"/>
<path d="M58.9007 41.0857H54.8967C51.8536 41.0857 49.3911 38.6232 49.3911 35.5802V31.5761C49.3911 30.7553 50.0718 30.0746 50.8926 30.0746C51.7134 30.0746 52.3941 30.7553 52.3941 31.5761V35.5802C52.3941 36.9615 53.5153 38.0827 54.8967 38.0827H58.9007C59.7215 38.0827 60.4022 38.7634 60.4022 39.5842C60.4022 40.405 59.7215 41.0857 58.9007 41.0857Z" fill="#043A4E"/>
<path d="M45.8875 50.0948H37.8794C37.0586 50.0948 36.3779 49.4141 36.3779 48.5932C36.3779 47.7724 37.0586 47.0917 37.8794 47.0917H45.8875C46.7083 47.0917 47.389 47.7724 47.389 48.5932C47.389 49.4141 46.7083 50.0948 45.8875 50.0948Z" fill="#043A4E"/>
<path d="M53.8956 58.1028H37.8794C37.0586 58.1028 36.3779 57.4221 36.3779 56.6013C36.3779 55.7805 37.0586 55.0998 37.8794 55.0998H53.8956C54.7164 55.0998 55.3971 55.7805 55.3971 56.6013C55.3971 57.4221 54.7164 58.1028 53.8956 58.1028Z" fill="#043A4E"/>
</svg>
