<svg width="21" height="21" viewBox="0 0 21 21" fill="none" xmlns="http://www.w3.org/2000/svg">
<path d="M18.265 10.0108L10.6067 17.6692C9.66848 18.6074 8.39601 19.1345 7.06919 19.1345C5.74237 19.1345 4.46989 18.6074 3.53169 17.6692C2.59348 16.731 2.06641 15.4585 2.06641 14.1317C2.06641 12.8049 2.59348 11.5324 3.53169 10.5942L11.19 2.93584C11.8155 2.31037 12.6638 1.95898 13.5484 1.95898C14.4329 1.95898 15.2812 2.31037 15.9067 2.93584C16.5322 3.56131 16.8835 4.40962 16.8835 5.29417C16.8835 6.17872 16.5322 7.02704 15.9067 7.65251L8.24002 15.3108C7.92729 15.6236 7.50313 15.7993 7.06085 15.7993C6.61858 15.7993 6.19442 15.6236 5.88169 15.3108C5.56895 14.9981 5.39326 14.5739 5.39326 14.1317C5.39326 13.6894 5.56895 13.2652 5.88169 12.9525L12.9567 5.88584" stroke="#4EA692" stroke-width="1.5" stroke-linecap="round" stroke-linejoin="round"/>
</svg>
