<svg width="27" height="18" viewBox="0 0 27 18" fill="none" xmlns="http://www.w3.org/2000/svg">
<path d="M15.0845 11.0834C15.0845 9.19454 15.3751 7.57204 15.9563 6.21592C16.5375 4.81137 17.2882 3.6732 18.2084 2.80141C19.1287 1.88118 20.17 1.22734 21.3324 0.839878C22.5432 0.403983 23.7298 0.186035 24.8922 0.186035V2.72876C23.6329 2.72876 22.4463 3.16466 21.3324 4.03645C20.2668 4.8598 19.6372 5.99797 19.4435 7.45096C19.5888 7.40253 19.7583 7.35409 19.952 7.30566C20.0973 7.25723 20.2668 7.20879 20.4606 7.16036C20.7027 7.11193 20.9691 7.08771 21.2597 7.08771C22.7127 7.08771 23.9235 7.64469 24.8922 8.75865C25.8608 9.82416 26.3452 11.0834 26.3452 12.5364C26.3452 13.9894 25.8366 15.2729 24.8195 16.3868C23.8509 17.4523 22.5432 17.9851 20.8965 17.9851C19.056 17.9851 17.6273 17.307 16.6102 15.9509C15.5931 14.5464 15.0845 12.9239 15.0845 11.0834ZM0.554688 11.0834C0.554688 9.19454 0.845284 7.57204 1.42648 6.21592C2.00767 4.81137 2.75838 3.6732 3.6786 2.80141C4.59883 1.88118 5.64013 1.22734 6.80252 0.839878C8.01334 0.403983 9.19995 0.186035 10.3623 0.186035V2.72876C9.10308 2.72876 7.91648 3.16466 6.80252 4.03645C5.737 4.8598 5.10737 5.99797 4.91364 7.45096C5.05894 7.40253 5.22845 7.35409 5.42219 7.30566C5.56748 7.25723 5.737 7.20879 5.93073 7.16036C6.17289 7.11193 6.43927 7.08771 6.72987 7.08771C8.18286 7.08771 9.39368 7.64469 10.3623 8.75865C11.331 9.82416 11.8153 11.0834 11.8153 12.5364C11.8153 13.9894 11.3068 15.2729 10.2897 16.3868C9.32103 17.4523 8.01334 17.9851 6.36663 17.9851C4.52618 17.9851 3.09741 17.307 2.08032 15.9509C1.06323 14.5464 0.554688 12.9239 0.554688 11.0834Z" fill="#CBE2D1"/>
</svg>
