<svg width="24" height="17" viewBox="0 0 24 17" fill="none" xmlns="http://www.w3.org/2000/svg">
<path d="M10.7872 6.54746C10.7872 8.20698 10.5319 9.63246 10.0213 10.8239C9.51069 12.0579 8.85115 13.0579 8.04266 13.8238C7.23418 14.6323 6.31932 15.2067 5.29808 15.5471C4.23429 15.9301 3.19178 16.1216 2.17054 16.1216L2.17054 13.8876C3.27688 13.8876 4.3194 13.5047 5.29808 12.7387C6.23422 12.0153 6.78739 11.0154 6.9576 9.73883C6.82994 9.78139 6.68101 9.82394 6.51081 9.86649C6.38315 9.90904 6.23422 9.95159 6.06401 9.99415C5.85126 10.0367 5.61722 10.058 5.36191 10.058C4.08536 10.058 3.02157 9.56863 2.17054 8.58994C1.31951 7.65381 0.89399 6.54746 0.893991 5.27091C0.893991 3.99437 1.34078 2.86675 2.23437 1.88806C3.0854 0.951923 4.23429 0.483856 5.68105 0.483857C7.29801 0.483857 8.55329 1.07958 9.44687 2.27103C10.3405 3.50502 10.7872 4.9305 10.7872 6.54746ZM23.5527 6.54746C23.5527 8.20698 23.2974 9.63246 22.7868 10.8239C22.2762 12.0579 21.6166 13.0579 20.8082 13.8238C19.9997 14.6323 19.0848 15.2067 18.0636 15.5471C16.9998 15.9301 15.9573 16.1216 14.936 16.1216L14.936 13.8876C16.0424 13.8876 17.0849 13.5047 18.0636 12.7387C18.9997 12.0153 19.5529 11.0154 19.7231 9.73884C19.5954 9.78139 19.4465 9.82394 19.2763 9.86649C19.1486 9.90904 18.9997 9.9516 18.8295 9.99415C18.6167 10.0367 18.3827 10.058 18.1274 10.058C16.8509 10.058 15.7871 9.56863 14.936 8.58994C14.085 7.65381 13.6595 6.54746 13.6595 5.27091C13.6595 3.99437 14.1063 2.86675 14.9999 1.88806C15.8509 0.951925 16.9998 0.483858 18.4465 0.483858C20.0635 0.483858 21.3188 1.07958 22.2124 2.27103C23.1059 3.50502 23.5527 4.9305 23.5527 6.54746Z" fill="#CBE2D1"/>
</svg>
