<svg width="265" height="69" viewBox="0 0 265 69" fill="none" xmlns="http://www.w3.org/2000/svg">
<path opacity="0.54" d="M34.1323 0.5H230.868C249.442 0.5 264.5 15.5577 264.5 34.1323C264.5 52.7069 249.442 67.7646 230.868 67.7646H34.1323C15.5577 67.7646 0.5 52.7069 0.5 34.1323C0.5 15.5577 15.5577 0.5 34.1323 0.5Z" fill="#CBE2D1" fill-opacity="0.2" stroke="#CBE2D1"/>
<path d="M43.12 25.4528V42.1328H40.384V34.8368H32.536V42.1328H29.8V25.4528H32.536V32.6048H40.384V25.4528H43.12ZM48.1139 27.1568C47.6179 27.1568 47.2019 26.9888 46.8659 26.6528C46.5299 26.3168 46.3619 25.9008 46.3619 25.4048C46.3619 24.9088 46.5299 24.4928 46.8659 24.1568C47.2019 23.8208 47.6179 23.6528 48.1139 23.6528C48.5939 23.6528 49.0019 23.8208 49.3379 24.1568C49.6739 24.4928 49.8419 24.9088 49.8419 25.4048C49.8419 25.9008 49.6739 26.3168 49.3379 26.6528C49.0019 26.9888 48.5939 27.1568 48.1139 27.1568ZM49.4579 28.9088V42.1328H46.7219V28.9088H49.4579ZM56.05 38.8448L53.146 45.4688H51.37L53.074 38.8448H56.05ZM67.411 25.4528V42.1328H64.675V25.4528H67.411ZM74.1951 31.1408V38.4608C74.1951 38.9568 74.3071 39.3168 74.5311 39.5408C74.7711 39.7488 75.1711 39.8528 75.7311 39.8528H77.4111V42.1328H75.2511C74.0191 42.1328 73.0751 41.8448 72.4191 41.2688C71.7631 40.6928 71.4351 39.7568 71.4351 38.4608V31.1408H69.8751V28.9088H71.4351V25.6208H74.1951V28.9088H77.4111V31.1408H74.1951ZM80.3648 25.4528H83.3408L80.8208 31.1648H78.9008L80.3648 25.4528ZM90.5453 42.3488C89.5053 42.3488 88.5693 42.1648 87.7373 41.7968C86.9213 41.4128 86.2733 40.9008 85.7933 40.2608C85.3133 39.6048 85.0573 38.8768 85.0253 38.0768H87.8573C87.9053 38.6368 88.1693 39.1088 88.6493 39.4928C89.1453 39.8608 89.7613 40.0448 90.4973 40.0448C91.2653 40.0448 91.8573 39.9008 92.2733 39.6128C92.7053 39.3088 92.9213 38.9248 92.9213 38.4608C92.9213 37.9648 92.6813 37.5968 92.2013 37.3568C91.7373 37.1168 90.9933 36.8528 89.9693 36.5648C88.9773 36.2928 88.1693 36.0288 87.5453 35.7728C86.9213 35.5168 86.3773 35.1248 85.9133 34.5968C85.4653 34.0688 85.2413 33.3728 85.2413 32.5088C85.2413 31.8048 85.4493 31.1648 85.8653 30.5888C86.2813 29.9968 86.8733 29.5328 87.6413 29.1968C88.4253 28.8608 89.3213 28.6928 90.3293 28.6928C91.8333 28.6928 93.0413 29.0768 93.9533 29.8448C94.8813 30.5968 95.3773 31.6288 95.4413 32.9408H92.7053C92.6573 32.3488 92.4173 31.8768 91.9853 31.5248C91.5533 31.1728 90.9693 30.9968 90.2333 30.9968C89.5133 30.9968 88.9613 31.1328 88.5773 31.4048C88.1933 31.6768 88.0013 32.0368 88.0013 32.4848C88.0013 32.8368 88.1293 33.1328 88.3853 33.3728C88.6413 33.6128 88.9533 33.8048 89.3213 33.9488C89.6893 34.0768 90.2333 34.2448 90.9533 34.4528C91.9133 34.7088 92.6973 34.9728 93.3053 35.2448C93.9293 35.5008 94.4653 35.8848 94.9133 36.3968C95.3613 36.9088 95.5933 37.5888 95.6093 38.4368C95.6093 39.1888 95.4013 39.8608 94.9853 40.4528C94.5693 41.0448 93.9773 41.5088 93.2093 41.8448C92.4573 42.1808 91.5693 42.3488 90.5453 42.3488ZM122.368 25.4528V42.1328H119.632V30.7088L114.544 42.1328H112.648L107.536 30.7088V42.1328H104.8V25.4528H107.752L113.608 38.5328L119.44 25.4528H122.368ZM138.084 35.1968C138.084 35.6928 138.052 36.1408 137.988 36.5408H127.884C127.964 37.5968 128.356 38.4448 129.06 39.0848C129.764 39.7248 130.628 40.0448 131.652 40.0448C133.124 40.0448 134.164 39.4288 134.772 38.1968H137.724C137.324 39.4128 136.596 40.4128 135.54 41.1968C134.5 41.9648 133.204 42.3488 131.652 42.3488C130.388 42.3488 129.252 42.0688 128.244 41.5088C127.252 40.9328 126.468 40.1328 125.892 39.1088C125.332 38.0688 125.052 36.8688 125.052 35.5088C125.052 34.1488 125.324 32.9568 125.868 31.9328C126.428 30.8928 127.204 30.0928 128.196 29.5328C129.204 28.9728 130.356 28.6928 131.652 28.6928C132.9 28.6928 134.012 28.9648 134.988 29.5088C135.964 30.0528 136.724 30.8208 137.268 31.8128C137.812 32.7888 138.084 33.9168 138.084 35.1968ZM135.228 34.3328C135.212 33.3248 134.852 32.5168 134.148 31.9088C133.444 31.3008 132.572 30.9968 131.532 30.9968C130.588 30.9968 129.78 31.3008 129.108 31.9088C128.436 32.5008 128.036 33.3088 127.908 34.3328H135.228Z" fill="#CBE2D1"/>
<path d="M149.651 39.7568H157.403V42.1328H146.411V39.9968L154.139 27.8288H146.411V25.4528H157.403V27.5888L149.651 39.7568ZM172.37 28.9088V42.1328H169.634V40.5728C169.202 41.1168 168.634 41.5488 167.93 41.8688C167.242 42.1728 166.506 42.3248 165.722 42.3248C164.682 42.3248 163.746 42.1088 162.914 41.6768C162.098 41.2448 161.45 40.6048 160.97 39.7568C160.506 38.9088 160.274 37.8848 160.274 36.6848V28.9088H162.986V36.2768C162.986 37.4608 163.282 38.3728 163.874 39.0128C164.466 39.6368 165.274 39.9488 166.298 39.9488C167.322 39.9488 168.13 39.6368 168.722 39.0128C169.33 38.3728 169.634 37.4608 169.634 36.2768V28.9088H172.37ZM191.988 28.6928C193.028 28.6928 193.956 28.9088 194.772 29.3408C195.604 29.7728 196.252 30.4128 196.716 31.2608C197.196 32.1088 197.436 33.1328 197.436 34.3328V42.1328H194.724V34.7408C194.724 33.5568 194.428 32.6528 193.836 32.0288C193.244 31.3888 192.436 31.0688 191.412 31.0688C190.388 31.0688 189.572 31.3888 188.964 32.0288C188.372 32.6528 188.076 33.5568 188.076 34.7408V42.1328H185.364V34.7408C185.364 33.5568 185.068 32.6528 184.476 32.0288C183.884 31.3888 183.076 31.0688 182.052 31.0688C181.028 31.0688 180.212 31.3888 179.604 32.0288C179.012 32.6528 178.716 33.5568 178.716 34.7408V42.1328H175.98V28.9088H178.716V30.4208C179.164 29.8768 179.732 29.4528 180.42 29.1488C181.108 28.8448 181.844 28.6928 182.628 28.6928C183.684 28.6928 184.628 28.9168 185.46 29.3648C186.292 29.8128 186.932 30.4608 187.38 31.3088C187.78 30.5088 188.404 29.8768 189.252 29.4128C190.1 28.9328 191.012 28.6928 191.988 28.6928ZM203.653 24.3728V42.1328H200.917V24.3728H203.653ZM212.981 42.3488C211.733 42.3488 210.605 42.0688 209.597 41.5088C208.589 40.9328 207.797 40.1328 207.221 39.1088C206.645 38.0688 206.357 36.8688 206.357 35.5088C206.357 34.1648 206.653 32.9728 207.245 31.9328C207.837 30.8928 208.645 30.0928 209.669 29.5328C210.693 28.9728 211.837 28.6928 213.101 28.6928C214.365 28.6928 215.509 28.9728 216.533 29.5328C217.557 30.0928 218.365 30.8928 218.957 31.9328C219.549 32.9728 219.845 34.1648 219.845 35.5088C219.845 36.8528 219.541 38.0448 218.933 39.0848C218.325 40.1248 217.493 40.9328 216.437 41.5088C215.397 42.0688 214.245 42.3488 212.981 42.3488ZM212.981 39.9728C213.685 39.9728 214.341 39.8048 214.949 39.4688C215.573 39.1328 216.077 38.6288 216.461 37.9568C216.845 37.2848 217.037 36.4688 217.037 35.5088C217.037 34.5488 216.853 33.7408 216.485 33.0848C216.117 32.4128 215.629 31.9088 215.021 31.5728C214.413 31.2368 213.757 31.0688 213.053 31.0688C212.349 31.0688 211.693 31.2368 211.085 31.5728C210.493 31.9088 210.021 32.4128 209.669 33.0848C209.317 33.7408 209.141 34.5488 209.141 35.5088C209.141 36.9328 209.501 38.0368 210.221 38.8208C210.957 39.5888 211.877 39.9728 212.981 39.9728Z" fill="#FF9D48"/>
</svg>
