<svg width="273" height="273" viewBox="0 0 273 273" fill="none" xmlns="http://www.w3.org/2000/svg">
<g opacity="0.5">
<circle cx="136.5" cy="136.5" r="136.5" fill="#CBE2D1" fill-opacity="0.12"/>
<circle cx="136.5" cy="136.5" r="136.5" fill="#CBE2D1" fill-opacity="0.12"/>
</g>
<circle cx="136.5" cy="136.5" r="111.5" fill="#CBE2D1" fill-opacity="0.12"/>
<circle cx="136.5" cy="136.5" r="111.5" fill="#CBE2D1" fill-opacity="0.12"/>
<circle cx="135" cy="136" r="77" fill="#1B596F"/>
<g clip-path="url(#clip0_18377_31796)">
<path d="M96.1176 96.7885C87.3414 104.732 83.3833 118.751 92.4159 128.134C102.095 138.193 105.594 126.267 114.418 117.817C123.59 109.035 139.208 102.306 128.172 93.2704C118.616 85.4484 104.99 88.7608 96.123 96.7885H96.1176Z" fill="#4EA692" fill-opacity="0.42"/>
<path d="M148.484 173.308C141.438 179.48 137.777 189.641 135.727 198.564C133.932 206.383 136.898 211.207 145.123 211.789C162.49 213.023 179.482 200.36 182.448 183.047C183.385 177.583 182.468 171.075 177.823 168.05C175.98 166.852 173.771 166.356 171.585 166.122C164.34 165.337 156.833 167.266 150.865 171.442C150.022 172.032 149.229 172.652 148.488 173.304L148.484 173.308Z" fill="#FF9D48" fill-opacity="0.53"/>
<path d="M119.095 219.784C112.337 217.913 91.9648 210.897 112.337 200.139C116.432 192.793 81.8061 190.181 87.7551 184.236C93.7041 178.291 106.776 185.509 110.667 178.053C114.715 170.293 116.218 160.717 112.338 152.801C111.979 152.071 111.425 151.435 110.699 151.068C108.665 150.03 107.271 151.716 107.174 153.328C107.107 154.429 107.521 155.498 107.982 156.502C110.863 162.798 115.894 168.087 121.859 171.472C128.749 175.785 136.907 178.205 145.022 177.745C153.138 177.288 161.152 173.833 166.648 167.845C171.184 162.903 173.885 156.326 174.107 149.596C174.15 148.347 174.182 147.094 174.295 145.849C175.033 137.808 174.978 129.692 174.131 121.659C174.068 121.05 174.002 120.414 174.334 119.863C174.513 119.563 174.826 119.344 175.173 119.332C176.008 119.305 176.34 120.304 176.457 121.097C177.375 127.19 178.292 133.42 177.172 139.478C177.086 139.951 176.871 140.528 176.391 140.56C175.962 140.587 175.669 140.146 175.485 139.756C173.893 136.367 173.37 132.577 173.19 128.833C173.01 125.094 173.155 121.339 172.804 117.611C172.55 114.945 171.964 112.138 170.098 110.214C168.201 108.254 165.274 107.583 162.557 107.813C160.383 108 158.298 108.691 156.315 109.48C155.601 109.765 154.883 110.046 154.153 110.296C152.529 110.854 151.045 111.81 149.874 113.067C149.566 113.399 149.398 113.864 149.523 114.301C149.761 115.136 150.702 115.136 151.44 115.011C156.456 114.164 161.163 111.537 166.246 111.56C166.488 111.56 166.741 111.572 166.952 111.689C167.163 111.806 167.315 112.068 167.229 112.294C167.14 112.54 166.843 112.622 166.585 112.677C163.978 113.196 161.335 113.575 158.774 114.293C156.214 115.015 153.708 116.108 151.725 117.884C150.546 118.938 149.527 120.363 149.585 121.944C149.601 122.401 149.73 122.885 150.073 123.181C150.475 123.529 151.084 123.536 151.584 123.353C152.084 123.169 152.501 122.826 152.931 122.51C156.28 120.027 160.691 119.036 164.782 119.844C165.543 119.992 166.445 120.164 166.995 119.621C167.374 119.246 167.432 118.626 167.237 118.13C167.046 117.63 166.644 117.24 166.211 116.932C164.415 115.655 162.022 115.581 159.844 115.917C158.357 116.147 156.881 116.549 155.573 117.287C154.055 118.142 152.771 119.481 152.263 121.171C152.092 121.741 152.041 122.354 152.193 122.931C152.65 124.688 154.274 124.973 155.718 125.016C159.657 125.133 163.623 124.067 166.976 121.998C167.085 121.932 167.206 121.866 167.331 121.803C167.854 121.553 168.338 122.248 167.924 122.658C164.579 125.968 159.391 127.338 154.863 126.011C154.235 125.828 153.61 125.594 152.958 125.531C152.306 125.469 151.596 125.601 151.127 126.058C150.655 126.515 150.526 127.342 150.827 127.873C151.44 130.126 152.943 132.007 154.309 133.904C155.675 135.797 156.975 137.897 157.072 140.228C157.1 140.903 157.022 141.598 156.709 142.199C156.397 142.8 155.823 143.288 155.152 143.374C154.481 143.46 153.747 143.07 153.548 142.422C153.407 141.969 153.532 141.473 153.442 141.009C153.348 140.544 152.825 140.091 152.435 140.357C152.115 140.571 152.174 141.044 152.154 141.426C152.115 142.219 151.549 142.96 150.796 143.21C150.042 143.46 149.148 143.198 148.645 142.586C148.126 141.953 148.028 141.048 147.325 140.525C147.06 140.325 146.705 140.243 146.392 140.361C145.819 140.579 145.78 141.219 145.897 141.739C146.029 142.347 146.322 142.956 145.881 143.585C145.643 143.924 145.253 144.147 144.839 144.19C143.836 144.291 143.031 143.511 142.735 142.617C142.489 141.875 142.544 141.067 142.68 140.302C142.786 139.709 142.942 139.092 142.637 138.522C142.485 138.237 142.188 138.03 141.864 138.038C141.345 138.054 141.095 138.545 140.951 138.994C140.404 140.696 140.561 142.703 141.693 144.088C142.825 145.474 145.026 145.989 146.49 144.959C147.036 144.576 147.458 144.014 148.133 143.839C148.555 143.729 149.031 143.854 149.246 144.237C149.589 144.85 148.984 145.552 148.754 146.224C148.414 147.211 149.066 148.417 150.077 148.675C150.799 148.859 151.592 148.531 152.072 147.984C152.525 147.469 153.126 147.09 153.809 147.055C155.835 146.954 157.904 147.652 159.422 149.003C160.191 149.686 160.82 150.521 161.593 151.201C162.049 151.603 162.576 151.954 163.142 152.161C163.478 152.282 163.568 152.715 163.291 152.938C162.393 153.656 161.757 154.772 161.077 155.744C159.321 158.258 156.745 160.187 153.692 160.998C149.816 161.947 145.627 161.58 141.974 159.968C140.077 159.133 138.164 157.938 136.107 158.141C135.861 158.165 135.65 157.954 135.705 157.716C135.751 157.513 135.915 157.364 136.075 157.232C138.238 155.377 140.404 153.519 142.567 151.665C144.253 150.217 146.115 148.698 148.332 148.577C148.859 148.55 149.457 148.64 149.773 149.062C150.132 149.542 149.707 150.244 149.109 150.194C147.068 150.03 145.108 151.142 143.535 152.469C142.329 153.488 141.244 154.659 140.022 155.651C139.815 155.819 139.987 156.146 140.244 156.08C145.307 154.753 151.104 156.365 155.819 153.625C157.33 152.75 159.087 152.754 160.824 152.891C161.035 152.906 161.062 152.618 160.867 152.586C156.592 151.903 152.189 151.482 148.188 153.016C146.189 153.781 144.402 154.999 142.52 156.021C140.639 157.044 138.57 157.887 136.431 157.794C135.958 157.774 135.482 157.708 135.018 157.794C134.553 157.876 134.085 158.149 133.925 158.59C133.753 159.062 133.983 159.609 134.358 159.945C134.729 160.284 135.221 160.456 135.701 160.612C140.775 162.248 146.217 162.583 151.213 164.449C152.978 165.109 154.804 166.065 155.078 168.263C155.261 169.735 154.637 171.179 153.579 172.217C151.709 174.052 149.035 174.485 146.49 174.684C140.127 175.18 133.523 174.532 127.636 171.612C122.874 168.989 118.26 165.495 116.109 160.507C114.715 157.282 114.454 153.648 112.99 150.455C112.483 149.35 111.792 148.261 110.73 147.672C109.746 147.125 108.548 147.071 107.443 147.293C106.838 147.418 106.253 147.617 105.624 147.867C104.422 148.347 103.059 148.257 101.924 147.633C96.7475 144.795 93.1367 139.158 92.9142 133.237C92.8206 130.762 93.652 127.78 96.2557 127.327C97.1027 127.178 97.9732 127.37 98.7305 127.78C100.307 128.634 101.225 130.196 101.896 131.792C103.22 134.943 103.719 138.428 103.352 141.824C103.266 142.625 104.355 142.968 104.711 142.246C105 141.653 105.175 140.993 105.238 140.341C105.378 138.838 105.023 137.335 104.73 135.856C103.707 130.692 103.43 125.336 104.422 120.168C105.413 114.999 107.724 110.019 111.401 106.256C113.743 103.859 116.612 101.966 118.611 99.2761C120.789 96.3445 121.769 92.683 123.803 89.6539C126.684 85.3678 131.707 82.6042 136.872 82.4753C137.176 82.4675 137.504 82.4753 137.754 82.6471C138.234 82.9789 138.176 83.6854 138.105 84.2632C137.734 87.222 138.339 90.2941 139.803 92.8899C140.904 94.8456 142.547 96.7934 141.63 99.1355C141.287 100.014 140.627 100.728 139.831 101.232C137.976 102.407 135.794 102.434 133.683 102.426C132.597 102.422 131.458 102.399 130.568 101.677C130.095 101.294 129.791 100.716 129.853 100.115C130.005 98.6203 131.891 98.3314 133.253 98.6749C136.946 99.6118 139.725 102.941 140.705 106.622C141.876 111.018 140.779 115.804 138.913 119.867C138.265 121.28 137.133 122.447 135.677 122.994C131.317 124.629 128.366 119.348 124.166 118.63C123.709 118.552 123.217 118.645 122.862 118.946C121.789 119.852 122.944 121.491 124.166 122.057C126.075 122.939 128.288 123.037 130.044 124.333C130.575 124.727 131.028 125.231 131.305 125.832C132.184 127.721 130.985 129.236 129.869 130.539C128.585 132.038 127.3 133.537 126.02 135.036C125.06 136.156 124.033 137.324 122.64 137.804C120.106 138.678 117.467 137.011 115.305 135.43C112.853 133.635 110.371 131.816 108.454 129.454C106.538 127.096 105.222 124.099 105.491 121.073C105.581 120.07 105.772 118.876 104.863 118.29C104.496 118.056 104.035 118.013 103.614 118.118C102.689 118.345 102.08 119.055 101.44 119.691C99.8196 121.304 97.8132 122.588 95.5803 123.072C93.3475 123.56 90.8766 123.185 89.0537 121.803C85.5951 119.184 85.5405 113.543 88.2534 110.159C91.0874 106.622 96.0683 105.346 100.553 105.822C100.944 105.865 101.319 106.056 101.541 106.38C102.24 107.395 100.874 108.395 99.7571 108.445C96.404 108.602 93.6286 105.17 93.7067 101.813C93.7808 98.4563 96.0761 95.4701 98.9374 93.495C102.743 91.9648 107.061 91.7345 111.007 92.8548C111.639 93.0344 112.295 93.249 112.951 93.0383C113.384 92.8977 113.736 92.5191 113.747 92.0624C113.779 91.1294 112.502 90.7976 111.694 90.2824C110.207 89.3377 110.133 87.019 111.179 85.606C112.229 84.1929 114.036 83.5488 115.781 83.3107C117.526 83.0765 119.31 83.1663 121.039 82.8501C123.194 82.4558 125.173 81.4487 127.23 80.6914C129.283 79.9342 131.555 79.4228 133.647 80.063C134.135 80.2113 134.678 80.4924 134.627 81.0974C134.588 81.5814 134.19 81.964 133.714 82.0694C130.79 82.7056 127.765 83.5098 125.391 85.36C123.221 87.0542 121.773 89.4978 120.582 91.9804C119.392 94.463 118.4 97.055 116.909 99.3659C115.414 101.677 113.318 103.738 110.679 104.511C108.036 105.284 104.824 104.468 103.368 102.133C102.728 101.103 102.47 99.7874 102.907 98.6554C103.45 97.2462 105.218 96.286 106.627 97.2462C107.166 97.6132 107.521 98.2299 107.509 98.8818C107.494 99.9904 106.592 100.627 105.671 100.935C103.009 101.829 99.7727 100.229 98.8671 97.5702" stroke="#CBE2D1" stroke-width="0.56129" stroke-linecap="round" stroke-linejoin="round"/>
<path style="mix-blend-mode:color-dodge" d="M130.093 118.345C146.174 115.082 156.565 99.4012 153.302 83.3204C150.039 67.2396 134.358 56.8486 118.277 60.1115C102.196 63.3744 91.8053 79.0556 95.0682 95.1364C98.3311 111.217 114.012 121.608 130.093 118.345Z" fill="url(#paint0_radial_18377_31796)"/>
</g>
<circle cx="135" cy="134.655" r="86.7194" stroke="#CBE2D1" stroke-width="0.56129"/>
<defs>
<radialGradient id="paint0_radial_18377_31796" cx="0" cy="0" r="1" gradientUnits="userSpaceOnUse" gradientTransform="translate(124.181 89.2348) scale(29.7102)">
<stop stop-color="white"/>
<stop offset="0.28" stop-color="#A8A8A8" stop-opacity="0.4356"/>
<stop offset="0.54" stop-color="#606060" stop-opacity="0.1444"/>
<stop offset="0.75" stop-color="#2C2C2C" stop-opacity="0.0289"/>
<stop offset="0.91" stop-color="#0C0C0C" stop-opacity="0.01"/>
<stop offset="1" stop-opacity="0"/>
</radialGradient>
<clipPath id="clip0_18377_31796">
<rect width="107.721" height="160.493" fill="white" transform="translate(75.0586 68.6465)"/>
</clipPath>
</defs>
</svg>
