<svg width="165" height="165" viewBox="0 0 165 165" fill="none" xmlns="http://www.w3.org/2000/svg">
<g opacity="0.5">
<circle cx="82.4995" cy="82.062" r="82.0112" fill="#CBE2D1" fill-opacity="0.12"/>
<circle cx="82.4995" cy="82.062" r="82.0112" fill="#CBE2D1" fill-opacity="0.12"/>
</g>
<circle cx="82.4986" cy="82.0621" r="66.9908" fill="#CBE2D1" fill-opacity="0.12"/>
<circle cx="82.4986" cy="82.0621" r="66.9908" fill="#CBE2D1" fill-opacity="0.12"/>
<circle cx="81.5987" cy="81.7617" r="46.2627" fill="#7A6687"/>
<g clip-path="url(#clip0_18391_31931)">
<path d="M58.2379 58.2012C52.965 62.9737 50.587 71.3968 56.0139 77.0344C61.8291 83.0776 63.9314 75.9124 69.2331 70.8357C74.7435 65.5594 84.1273 61.516 77.4969 56.0876C71.7555 51.388 63.5686 53.3781 58.2411 58.2012H58.2379Z" fill="#4EA692" fill-opacity="0.42"/>
<path d="M89.7019 104.176C85.4686 107.884 83.2688 113.988 82.0375 119.35C80.9587 124.047 82.7411 126.946 87.6826 127.296C98.1168 128.037 108.326 120.429 110.108 110.027C110.671 106.744 110.12 102.834 107.329 101.017C106.222 100.297 104.895 99.9987 103.581 99.858C99.2285 99.3866 94.7185 100.545 91.1325 103.055C90.6259 103.409 90.1498 103.782 89.7042 104.173L89.7019 104.176Z" fill="#FF9D48" fill-opacity="0.53"/>
<path d="M72.0421 132.1C67.9821 130.976 55.7421 126.76 67.9821 120.297C70.4424 115.883 49.6386 114.314 53.2128 110.742C56.787 107.17 64.6406 111.506 66.9789 107.027C69.4109 102.364 70.3139 96.6114 67.9827 91.8552C67.7669 91.4166 67.4339 91.0343 66.9976 90.8139C65.7757 90.19 64.9385 91.2032 64.8798 92.1718C64.84 92.8332 65.0886 93.4758 65.3653 94.0785C67.0961 97.8615 70.1192 101.039 73.7028 103.073C77.8423 105.664 82.7439 107.118 87.6198 106.842C92.4956 106.567 97.3105 104.492 100.613 100.894C103.338 97.9248 104.961 93.973 105.095 89.9297C105.12 89.1792 105.139 88.4264 105.207 87.6782C105.65 82.8469 105.618 77.9711 105.109 73.1445C105.071 72.7786 105.031 72.3963 105.231 72.0656C105.338 71.885 105.526 71.7537 105.735 71.7467C106.237 71.7303 106.436 72.3306 106.506 72.8067C107.058 76.4677 107.609 80.2108 106.936 83.8507C106.884 84.1345 106.755 84.4816 106.467 84.5004C106.209 84.5168 106.033 84.2518 105.922 84.0172C104.966 81.9815 104.651 79.7042 104.543 77.4551C104.436 75.2083 104.522 72.9521 104.311 70.7124C104.159 69.1106 103.807 67.4243 102.686 66.2681C101.546 65.0907 99.7871 64.6873 98.1548 64.8257C96.8485 64.9383 95.5961 65.3534 94.4047 65.8272C93.9755 65.9984 93.544 66.1672 93.1054 66.3173C92.1298 66.6527 91.2386 67.2273 90.535 67.9825C90.3497 68.1818 90.2488 68.4609 90.3239 68.7236C90.467 69.2255 91.0322 69.2255 91.4754 69.1504C94.4891 68.6415 97.3175 67.0631 100.371 67.0772C100.517 67.0772 100.669 67.0842 100.796 67.1546C100.922 67.2249 101.014 67.3821 100.962 67.5181C100.908 67.6659 100.73 67.7151 100.575 67.748C99.0085 68.0599 97.4207 68.2874 95.8822 68.7189C94.3437 69.1528 92.838 69.8095 91.6466 70.8766C90.9384 71.5098 90.3262 72.3658 90.3614 73.3157C90.3708 73.5901 90.4482 73.8809 90.6546 74.0591C90.8961 74.2679 91.262 74.2725 91.5622 74.1623C91.8624 74.0521 92.1133 73.8457 92.3713 73.6557C94.3836 72.1641 97.0338 71.5684 99.4916 72.0539C99.949 72.143 100.491 72.2462 100.821 71.9202C101.049 71.6951 101.084 71.3222 100.967 71.0243C100.852 70.7241 100.61 70.4896 100.35 70.3043C99.2712 69.5374 97.8335 69.4928 96.5248 69.6945C95.6313 69.8329 94.7448 70.0745 93.9591 70.5177C93.0468 71.0314 92.2752 71.8358 91.9703 72.8513C91.8671 73.1937 91.8366 73.5619 91.9281 73.909C92.2025 74.9644 93.1781 75.1356 94.0459 75.1614C96.4123 75.2318 98.7951 74.5915 100.81 73.3485C100.875 73.3086 100.948 73.2688 101.023 73.2312C101.337 73.0811 101.628 73.4986 101.38 73.7449C99.3697 75.7337 96.2528 76.5569 93.5322 75.7595C93.1547 75.6492 92.7794 75.5085 92.3878 75.471C91.9961 75.4335 91.5692 75.5132 91.2878 75.7876C91.004 76.062 90.9266 76.5592 91.1072 76.8782C91.4754 78.2314 92.3784 79.3618 93.1992 80.5016C94.0201 81.6391 94.8011 82.9009 94.8597 84.301C94.8761 84.7067 94.8292 85.1242 94.6416 85.4854C94.454 85.8465 94.1092 86.1397 93.7058 86.1913C93.3024 86.2429 92.8615 86.0084 92.7419 85.6191C92.6575 85.347 92.7325 85.0491 92.6786 84.7701C92.6223 84.491 92.308 84.2189 92.0735 84.3784C91.8812 84.5074 91.9163 84.7912 91.9046 85.021C91.8812 85.4971 91.5411 85.9427 91.0885 86.0928C90.6358 86.2429 90.0987 86.0858 89.7962 85.7176C89.4843 85.3376 89.4257 84.7935 89.0035 84.4792C88.844 84.3596 88.6306 84.3104 88.443 84.3807C88.0982 84.5121 88.0748 84.8967 88.1451 85.2086C88.2249 85.5745 88.4008 85.9404 88.1357 86.318C87.9927 86.522 87.7581 86.6557 87.5095 86.6815C86.9068 86.7424 86.4237 86.2734 86.2454 85.7363C86.0977 85.2907 86.1305 84.8052 86.2126 84.3456C86.2759 83.9891 86.3697 83.6185 86.1868 83.2761C86.0953 83.1049 85.9171 82.9806 85.7224 82.9853C85.4105 82.9947 85.2604 83.2902 85.1736 83.5599C84.8453 84.5824 84.9391 85.7879 85.6192 86.6205C86.2994 87.4531 87.6221 87.7626 88.5016 87.1435C88.8299 86.9137 89.0832 86.5759 89.489 86.4704C89.7423 86.4047 90.0284 86.4798 90.1574 86.7096C90.3638 87.0778 90.0002 87.5 89.8619 87.9034C89.6578 88.4967 90.0495 89.2214 90.6569 89.3762C91.0908 89.4864 91.5669 89.2894 91.8554 88.9611C92.1274 88.6515 92.4886 88.424 92.899 88.4029C94.1162 88.3419 95.3592 88.7617 96.2716 89.5732C96.7336 89.9836 97.1112 90.4855 97.5755 90.8936C97.8499 91.1352 98.1665 91.3463 98.5066 91.4706C98.7083 91.5433 98.7622 91.8036 98.5957 91.9373C98.0563 92.3688 97.674 93.0396 97.2659 93.6235C96.2106 95.1339 94.6627 96.2925 92.8287 96.7803C90.4998 97.3502 87.9833 97.1297 85.7881 96.1611C84.6483 95.6592 83.4991 94.9416 82.2631 95.0635C82.1154 95.0776 81.9887 94.951 82.0216 94.8079C82.0497 94.6859 82.1482 94.5968 82.2444 94.5171C83.5437 93.4031 84.8453 92.2867 86.1446 91.1727C87.1578 90.3026 88.2765 89.3903 89.6086 89.3176C89.9252 89.3012 90.284 89.3551 90.474 89.6084C90.6898 89.8969 90.4341 90.319 90.0753 90.2885C88.8487 90.19 87.6714 90.8584 86.7262 91.6558C86.0015 92.268 85.3495 92.9715 84.6155 93.5672C84.4912 93.6681 84.5944 93.8651 84.7491 93.8252C87.791 93.0278 91.2737 93.9964 94.1068 92.35C95.0145 91.8247 96.0699 91.827 97.1135 91.9091C97.2402 91.9185 97.2566 91.7449 97.1393 91.7262C94.5712 91.3158 91.9257 91.0625 89.5218 91.9842C88.321 92.4438 87.2469 93.1756 86.1164 93.79C84.986 94.4045 83.743 94.9111 82.4578 94.8548C82.174 94.8431 81.8879 94.8032 81.6088 94.8548C81.3297 94.9041 81.0483 95.0682 80.9521 95.3332C80.8489 95.617 80.9873 95.9454 81.2124 96.1471C81.4352 96.3511 81.7307 96.4543 82.0192 96.5481C85.0681 97.5308 88.3374 97.7325 91.3394 98.8535C92.3995 99.2499 93.4971 99.8245 93.6612 101.145C93.7715 102.029 93.3962 102.897 92.7607 103.521C91.6373 104.623 90.0307 104.883 88.5016 105.003C84.6788 105.301 80.7105 104.911 77.1739 103.157C74.3126 101.581 71.5405 99.4821 70.2482 96.4848C69.4109 94.5476 69.2538 92.3641 68.3743 90.4457C68.0694 89.7819 67.6543 89.1276 67.0164 88.7735C66.4254 88.4451 65.7054 88.4123 65.0417 88.546C64.6781 88.621 64.3264 88.7406 63.9488 88.8907C63.2264 89.1792 62.4079 89.1253 61.7254 88.75C58.6156 87.045 56.4462 83.6584 56.3125 80.1006C56.2562 78.6137 56.7558 76.8219 58.3201 76.5498C58.829 76.4607 59.352 76.5756 59.807 76.8219C60.7545 77.3355 61.3056 78.2736 61.709 79.2328C62.5041 81.1255 62.8043 83.2198 62.5838 85.2602C62.5322 85.741 63.1865 85.9474 63.4 85.5135C63.5735 85.157 63.6791 84.7607 63.7166 84.369C63.801 83.4661 63.5876 82.5631 63.4117 81.6743C62.7972 78.5715 62.6307 75.3537 63.2264 72.2486C63.8221 69.1434 65.2105 66.1508 67.4198 63.8899C68.827 62.4499 70.5508 61.3125 71.7515 59.6966C73.0602 57.9353 73.6489 55.7354 74.8708 53.9154C76.6016 51.3403 79.62 49.6798 82.7228 49.6024C82.9057 49.5978 83.1027 49.6024 83.2528 49.7056C83.5413 49.905 83.5061 50.3295 83.4639 50.6766C83.2411 52.4543 83.6046 54.3001 84.4841 55.8597C85.1455 57.0347 86.1329 58.205 85.5817 59.6121C85.3753 60.1398 84.979 60.569 84.5005 60.8716C83.3865 61.5775 82.0755 61.5939 80.8067 61.5892C80.1547 61.5869 79.4699 61.5728 78.9352 61.1389C78.6514 60.9091 78.4685 60.562 78.506 60.2008C78.5974 59.3026 79.7302 59.129 80.5487 59.3354C82.7674 59.8983 84.4372 61.8988 85.0259 64.1104C85.7295 66.7512 85.0704 69.6265 83.9494 72.068C83.5601 72.917 82.8799 73.6182 82.0051 73.9465C79.3855 74.9292 77.6124 71.756 75.0889 71.3245C74.8145 71.2776 74.519 71.3339 74.3056 71.5145C73.6606 72.0586 74.3548 73.0436 75.0889 73.3837C76.2357 73.9137 77.5655 73.9723 78.6209 74.751C78.9399 74.9879 79.2119 75.2904 79.3784 75.6516C79.9061 76.7867 79.1861 77.6967 78.5154 78.48C77.7438 79.3806 76.9722 80.2812 76.2029 81.1818C75.626 81.8549 75.0092 82.5561 74.1719 82.8446C72.6498 83.3699 71.0644 82.3685 69.7651 81.4186C68.2922 80.3398 66.8006 79.2469 65.6491 77.828C64.4976 76.4114 63.7072 74.6103 63.869 72.7927C63.923 72.1899 64.0379 71.4723 63.4914 71.1205C63.271 70.9798 62.9942 70.954 62.7409 71.0173C62.1851 71.1533 61.8192 71.5802 61.4346 71.9624C60.4613 72.931 59.2558 73.7026 57.9143 73.9935C56.5728 74.2866 55.0883 74.0615 53.993 73.2312C51.9151 71.6575 51.8822 68.2686 53.5122 66.2352C55.2149 64.1104 58.2075 63.3435 60.9022 63.6296C61.1368 63.6554 61.3619 63.7703 61.4956 63.965C61.9154 64.5748 61.0945 65.1752 60.4238 65.2057C58.4092 65.2995 56.7417 63.238 56.7886 61.221C56.8332 59.2041 58.2122 57.4099 59.9313 56.2232C62.2179 55.3038 64.8118 55.1655 67.1829 55.8386C67.5629 55.9465 67.9569 56.0754 68.3509 55.9488C68.6112 55.8644 68.8223 55.6369 68.8293 55.3625C68.8481 54.802 68.0812 54.6026 67.5957 54.293C66.7021 53.7255 66.6576 52.3324 67.2861 51.4834C67.917 50.6344 69.0029 50.2474 70.0512 50.1043C71.0996 49.9636 72.1713 50.0176 73.2103 49.8276C74.5049 49.5907 75.694 48.9856 76.9299 48.5306C78.1636 48.0757 79.5285 47.7684 80.7856 48.1531C81.0788 48.2422 81.4048 48.411 81.3743 48.7746C81.3508 49.0654 81.1116 49.2952 80.8255 49.3585C79.0688 49.7408 77.2512 50.2239 75.8253 51.3356C74.5213 52.3535 73.6512 53.8216 72.9359 55.3132C72.2206 56.8048 71.6249 58.3621 70.729 59.7505C69.8308 61.1389 68.5713 62.3772 66.9859 62.8416C65.3982 63.306 63.468 62.8158 62.5932 61.4133C62.2086 60.7942 62.0538 60.0038 62.3164 59.3237C62.6424 58.477 63.7049 57.9001 64.5515 58.477C64.8752 58.6975 65.0886 59.068 65.0815 59.4597C65.0722 60.1258 64.5304 60.508 63.9769 60.6933C62.3774 61.2304 60.4332 60.2688 59.8891 58.6717" stroke="#CBE2D1" stroke-width="0.337231" stroke-linecap="round" stroke-linejoin="round"/>
<path style="mix-blend-mode:color-dodge" d="M78.6517 71.1539C88.3133 69.1935 94.5563 59.772 92.5959 50.1104C90.6355 40.4488 81.214 34.2058 71.5525 36.1662C61.8909 38.1266 55.6478 47.5481 57.6082 57.2097C59.5686 66.8713 68.9901 73.1143 78.6517 71.1539Z" fill="url(#paint0_radial_18391_31931)"/>
</g>
<circle cx="81.599" cy="80.9535" r="52.1022" stroke="#CBE2D1" stroke-width="0.337231"/>
<defs>
<radialGradient id="paint0_radial_18391_31931" cx="0" cy="0" r="1" gradientUnits="userSpaceOnUse" gradientTransform="translate(75.0997 53.6639) scale(17.8503)">
<stop stop-color="white"/>
<stop offset="0.28" stop-color="#A8A8A8" stop-opacity="0.4356"/>
<stop offset="0.54" stop-color="#606060" stop-opacity="0.1444"/>
<stop offset="0.75" stop-color="#2C2C2C" stop-opacity="0.0289"/>
<stop offset="0.91" stop-color="#0C0C0C" stop-opacity="0.01"/>
<stop offset="1" stop-opacity="0"/>
</radialGradient>
<clipPath id="clip0_18391_31931">
<rect width="64.7206" height="96.4266" fill="white" transform="translate(45.5859 41.2939)"/>
</clipPath>
</defs>
</svg>
