<svg width="210" height="235" viewBox="0 0 210 235" fill="none" xmlns="http://www.w3.org/2000/svg">
<path d="M203.997 69.8478C202.919 42.3127 177.057 5.94754 146.571 26.6005C135.768 33.9186 158.72 51.4591 168.753 72.0948C178.786 92.7306 175.244 101.051 185.417 101.402C195.59 101.754 204.716 88.1909 203.997 69.8478Z" fill="#4EA692"/>
<path d="M24.6507 136.273C26.0651 140.545 27.1644 145.267 30.6798 149.845C34.1501 154.365 33.5573 155.091 41.9666 158.971C50.1789 162.754 59.7312 162.416 67.5522 167.298C84.1134 177.651 82.11 201.578 92.8006 216.256C103.962 231.585 129.463 234.222 140.524 217.274C150.577 201.868 145.537 179.033 140.994 162.569C135.925 144.197 133.05 126.092 136.989 107.036C143.1 77.4548 150.491 34.6093 122.655 13.2955C109.385 3.13135 90.5921 8.4558 77.3105 15.5921C54.1676 28.0256 43.9763 35.1075 31.4644 58.7977C20.5351 79.488 17.8798 96.9021 21.3783 122.189C21.3783 122.189 23.2364 132 24.6507 136.273Z" fill="#7A6687"/>
<path d="M123.047 127.36C115.487 113.148 123.56 87.4409 141.86 86.76C151.231 86.4151 159.094 94.9556 161.449 103.73C165.994 120.653 147.505 133.079 132.98 133.666C128.432 133.849 125.139 131.296 123.043 127.359L123.047 127.36Z" fill="#FF9D48"/>
<mask id="path-4-outside-1_18396_32004" maskUnits="userSpaceOnUse" x="0.59736" y="-0.993015" width="204.591" height="235.693" fill="black">
<rect fill="white" x="0.59736" y="-0.993015" width="204.591" height="235.693"/>
<path d="M79.579 91.8749C80.2386 90.4902 80.5983 89.0587 80.7946 87.5856C80.8876 86.8504 80.8987 86.1071 80.8654 85.3639C80.8312 84.6255 80.7281 83.8868 80.5369 83.1689C80.1839 81.7344 79.522 80.3871 78.6744 79.1949C77.8211 78.0065 76.7661 76.9797 75.6152 76.1027C74.4642 75.2258 73.2193 74.4891 71.9372 73.8348L70.958 73.3742C70.6384 73.2121 70.2824 73.0822 69.9525 72.9682C69.2797 72.7322 68.6001 72.5049 67.9164 72.2967C66.5501 71.8756 65.1688 71.5015 63.7633 71.2178C62.3557 70.9438 60.9274 70.7205 59.4589 70.7553C58.7249 70.7828 57.9775 70.8729 57.2455 71.168C57.0648 71.2536 56.8805 71.3334 56.7125 71.4521L56.4577 71.6321C56.3724 71.7088 56.2871 71.7855 56.2051 71.8931C56.1241 71.996 56.0511 72.1309 56.0152 72.2992C55.9792 72.4676 55.9986 72.6533 56.0601 72.8031C56.1841 73.0979 56.3718 73.2558 56.5402 73.3891C57.2341 73.8717 57.935 74.0686 58.6442 74.2723C59.3518 74.4606 60.0613 74.5939 60.7749 74.708C62.1985 74.9302 63.6295 75.0482 65.0655 75.0969C66.4979 75.1396 67.9415 75.1295 69.3716 74.9752C70.8018 74.8209 72.2342 74.5866 73.64 74.1547C74.3415 73.9334 75.0345 73.6599 75.6881 73.2717C76.0149 73.0776 76.3327 72.8563 76.6222 72.5833C76.7641 72.4487 76.908 72.3044 77.0305 72.1453L77.0778 72.0853L77.1037 72.0559C77.2839 71.8341 77.1085 71.4572 77.1249 71.5415C77.1066 71.5122 77.0799 71.476 77.0605 71.4515L77.0244 71.4132C77.0004 71.3877 76.9763 71.3622 76.9596 71.3484C76.878 71.2697 76.8063 71.2133 76.7357 71.1522C75.5826 70.2395 74.4172 69.4299 73.2409 68.6027C72.039 67.7799 70.8243 67.0399 69.5639 66.33C68.3014 65.6297 66.9943 65.0001 65.6184 64.5315C64.9331 64.3079 64.2384 64.0822 63.4754 63.9924C62.7264 63.9057 61.9023 63.9635 61.1779 64.3611C60.4545 64.7539 59.9338 65.4187 59.5946 66.1089C59.4132 66.4514 59.2778 66.8092 59.1565 67.1702C59.0914 67.3371 59.0292 67.6054 59.0399 67.8547C59.0523 68.1195 59.1663 68.3919 59.327 68.584C59.6625 68.9714 60.0702 69.1129 60.4397 69.2257C60.8149 69.3347 61.1873 69.3876 61.5535 69.424C62.2914 69.4931 63.0166 69.4838 63.7365 69.4531C66.6087 69.2732 69.4267 68.7939 72.2144 68.1567C73.6059 67.8376 74.9868 67.4758 76.3614 67.0975C77.7324 66.7133 79.1148 66.3216 80.4618 65.796C81.7979 65.2528 83.1462 64.6519 84.2961 63.6438C84.8565 63.1391 85.3955 62.5035 85.5903 61.6601C85.689 61.2437 85.6761 60.7973 85.5579 60.3829C85.4387 59.9733 85.2217 59.6073 84.9631 59.2976C84.7055 58.983 84.3903 58.7312 84.0356 58.526C83.6674 58.3379 83.349 58.2164 83.0091 58.08C82.3377 57.8141 81.6649 57.5782 80.9853 57.3508C79.6251 56.9008 78.2567 56.4893 76.8703 56.1393C74.1015 55.4201 71.2704 54.9238 68.4095 54.7282C65.5513 54.5433 62.6367 54.6684 59.8239 55.4461L59.8098 55.443C59.589 55.5096 59.4615 55.7381 59.5217 55.9632C59.5386 56.0224 59.5669 56.0741 59.6009 56.122C59.8852 56.4728 60.1504 56.7285 60.4552 56.9831C60.7506 57.2355 61.0605 57.466 61.3793 57.6783C62.0168 58.1029 62.6807 58.473 63.373 58.7788C64.7499 59.4039 66.1935 59.8321 67.6533 60.1381C69.11 60.4584 70.6001 60.5997 72.0738 60.7021C73.5402 60.7928 75.006 60.8632 76.4718 60.9336C79.3997 61.0685 82.3162 61.211 85.2032 61.5837C88.0944 61.9372 90.9482 62.5343 93.7635 63.2892C95.174 63.6647 96.5696 64.0873 97.959 64.5388C98.6453 64.7576 99.3672 64.9944 100.098 65.1879C100.832 65.367 101.582 65.5194 102.348 65.5745C103.112 65.6595 103.895 65.6077 104.667 65.4929C105.44 65.3531 106.207 65.0808 106.898 64.6759C108.315 63.8686 109.283 62.4469 109.855 60.9873C110.432 59.5084 110.652 57.945 110.712 56.3962C110.752 54.848 110.625 53.3026 110.285 51.7804C110.108 50.9999 109.86 50.2944 109.648 49.5819L108.985 47.4331L107.667 43.1424C106.802 40.2783 105.969 37.4061 105.223 34.5181C104.426 31.6842 104.244 28.6854 103.53 25.6937C103.173 24.2079 102.708 22.6981 101.872 21.3371L101.556 20.8332C101.438 20.6708 101.309 20.516 101.19 20.3584C100.96 20.0298 100.653 19.7646 100.37 19.4747C100.079 19.2031 99.7529 18.979 99.4471 18.7293C99.119 18.5149 98.7784 18.3128 98.4367 18.1156C97.037 17.3897 95.4931 17.0398 93.9673 16.9509C92.4368 16.8611 90.9227 17.0167 89.4498 17.3026C86.4924 17.8817 83.7005 18.9765 81.004 20.2237C78.3137 21.4875 75.7191 22.9489 73.1998 24.5179C70.6863 26.0831 68.2316 27.7875 65.8327 29.4842C63.3506 31.2479 61.2499 33.4144 59.3333 35.7328C55.5043 40.3958 52.766 45.8719 50.7803 51.5564C48.8457 57.2322 47.0676 62.9581 44.7235 68.4315C43.5501 71.1629 42.2102 73.8218 40.6289 76.3209C39.0512 78.8259 37.2425 81.1685 35.277 83.3702C34.7773 83.9137 34.2943 84.471 33.7778 85.0007L32.2294 86.585C31.2025 87.5701 29.9859 88.4524 28.842 89.3863C27.684 90.3169 26.5324 91.2641 25.4451 92.3013C24.9015 92.8199 24.3725 93.3619 23.8833 93.9481C23.3942 94.5343 22.938 95.1732 22.6183 95.9333C22.4637 96.312 22.3619 96.7428 22.3775 97.1999C22.4035 97.6542 22.5352 98.0515 22.6986 98.4156C23.0242 99.1485 23.4628 99.7907 23.9293 100.394C24.8729 101.597 25.9623 102.647 27.1214 103.601C28.2862 104.552 29.5319 105.4 30.8835 106.075C31.5671 106.399 32.2652 106.701 33.0083 106.907C33.7477 107.107 34.5479 107.231 35.367 107.081C35.7792 107.017 36.1811 106.84 36.5536 106.615C36.7211 106.476 36.9052 106.351 37.0485 106.187C37.1825 106.02 37.3483 105.866 37.4478 105.676C37.6802 105.325 37.8639 104.902 37.9369 104.445C38.0136 103.993 37.9474 103.52 37.8057 103.1C37.2077 101.384 35.3308 100.451 33.6184 100.845C32.7645 101.042 32.0281 101.588 31.5078 102.228C30.9724 102.869 30.5968 103.592 30.3031 104.322C29.999 105.056 29.7935 105.811 29.6464 106.569C29.5663 106.944 29.4993 107.328 29.451 107.715C29.383 108.103 29.367 108.477 29.337 108.849C29.2184 110.349 29.1149 111.848 28.9682 113.342L28.7604 115.584C28.6737 116.335 28.6428 117.079 28.4072 117.722C28.2774 118.031 28.1351 118.352 27.9094 118.533C27.6911 118.726 27.4411 118.791 27.191 118.695C26.9446 118.605 26.7035 118.375 26.5492 118.083C26.3721 117.807 26.2677 117.466 26.1821 117.129C26.1127 116.786 26.0651 116.433 26.0582 116.074C26.0361 115.716 26.0637 115.379 26.1774 115.077C26.2854 114.779 26.4743 114.539 26.7418 114.392C27.0057 114.239 27.3329 114.181 27.6629 114.179C28.336 114.184 29.0109 114.41 29.6589 114.716C30.3023 115.021 30.9178 115.41 31.5005 115.838C32.664 116.702 33.7451 117.745 34.9794 118.6C35.5961 119.031 36.2475 119.413 36.9284 119.726C37.5999 120.037 38.2813 120.326 38.9772 120.592C40.3595 121.123 42.3963 121.231 43.8426 121.555L43.6824 121.343C41.6726 122.623 39.0293 123.874 36.8579 124.851C35.7709 125.334 34.6639 125.772 33.5321 126.119C32.4034 126.451 31.238 126.725 30.0852 126.709C29.5122 126.697 28.9296 126.638 28.4169 126.412C27.8974 126.196 27.4739 125.829 27.173 125.348C26.8711 124.873 26.7149 124.314 26.783 123.765C26.8604 123.217 27.1428 122.701 27.5142 122.275C28.2731 121.416 29.3577 120.852 30.4689 120.602C31.0311 120.48 31.6087 120.448 32.1596 120.541C32.7115 120.629 33.2352 120.872 33.6244 121.261C34.0193 121.647 34.2609 122.174 34.3775 122.735C34.4987 123.296 34.4987 123.895 34.4281 124.479C34.367 125.065 34.2287 125.644 34.034 126.211C33.8497 126.774 33.5997 127.323 33.333 127.858C32.2333 129.991 30.7255 131.892 29.2868 133.838C28.5674 134.812 27.8413 135.793 27.1878 136.827C26.5343 137.86 25.929 138.944 25.519 140.128C25.1016 141.299 24.9204 142.61 25.1341 143.867C25.3338 145.121 25.8263 146.294 26.4497 147.361C27.7154 149.498 29.4731 151.266 31.4201 152.724C33.3727 154.178 35.5419 155.333 37.8364 156.108C40.1262 156.881 42.58 157.278 44.9965 157.112C47.4054 157.005 49.7926 156.632 52.1295 156.055C56.8091 154.898 61.2537 152.998 65.6041 150.986L72.11 147.934C74.2828 146.928 76.463 145.933 78.6243 144.889C82.9421 142.8 87.2144 140.508 91.0574 137.532C91.5363 137.155 92.0178 136.789 92.4727 136.386C92.9359 135.991 93.3981 135.6 93.8336 135.173L94.4989 134.546C94.7166 134.333 94.9197 134.096 95.1348 133.872C95.5734 133.43 95.9236 132.919 96.3083 132.43C97.004 131.407 97.6516 130.332 98.0888 129.159C98.3523 128.593 98.4894 127.974 98.6892 127.383C98.8055 126.769 98.9839 126.164 99.0251 125.533C99.3552 123.042 98.885 120.427 97.6629 118.224C97.3119 117.702 97.018 117.143 96.5895 116.684C96.3843 116.447 96.1963 116.198 95.9787 115.973L95.2977 115.337L94.9573 115.019L94.5888 114.741L93.8518 114.183L93.0702 113.696C92.811 113.527 92.5488 113.373 92.271 113.245L91.4495 112.83L90.5985 112.484C90.0372 112.232 89.4419 112.094 88.8635 111.899C87.6806 111.61 86.4828 111.368 85.2745 111.289C82.8562 111.072 80.4253 111.305 78.0572 111.774C75.6897 112.263 73.3795 113.037 71.1944 114.101C69.0139 115.166 66.9695 116.539 65.147 118.163C61.4895 121.423 58.7181 125.556 56.4275 129.857C54.174 134.192 52.1172 138.595 50.1425 143.053C48.1772 147.512 46.3456 152.037 44.6779 156.623C44.6077 156.814 44.6944 157.03 44.8787 157.111C46.2771 157.751 47.6571 158.523 48.9836 159.338C50.309 160.159 51.5993 161.052 52.8038 162.046C54.0104 163.031 55.1646 164.101 56.1468 165.308L56.5236 165.755C56.6492 165.904 56.751 166.073 56.8652 166.229C57.0821 166.55 57.3208 166.86 57.5263 167.188L58.0922 168.202C58.195 168.366 58.2701 168.544 58.3396 168.726L58.5593 169.263L58.779 169.801L58.9529 170.369C59.0642 170.747 59.1953 171.124 59.2904 171.508L59.5862 172.658L59.8403 173.818C60.1526 175.374 60.357 176.952 60.5396 178.54C60.7221 180.128 60.8959 181.734 61.1848 183.331C61.4691 184.926 61.88 186.505 62.4153 188.03C62.6686 188.802 62.998 189.541 63.2961 190.288C63.6124 191.019 63.924 191.749 64.2184 192.49C64.8141 193.963 65.3623 195.451 65.7855 196.972C66.2087 198.493 66.5069 200.046 66.6284 201.62C66.7593 203.197 66.7495 204.787 66.6849 206.38C66.6261 207.97 66.6751 206.587 66.6299 208.205C66.6099 208.92 66.6862 209.824 66.6862 209.824C66.6862 209.824 67.8065 210.973 69.6879 211.498C72.1601 212.189 72.7357 211.434 73.8512 214.398C76.738 210.792 71.9648 215.727 82.9465 211.96L87.9884 209.53L89.6163 208.672C89.6722 207.687 88.3035 208.599 87.1061 209.212C84.5697 210.51 85.1737 210.285 82.0931 211.605C80.9737 211.987 74.4006 214.025 75.7322 211.843C78.4289 207.507 81.3274 203.215 83.4795 198.48C84.5363 196.111 85.3928 193.596 85.6641 190.965C85.8046 189.661 85.8325 188.332 85.7046 187.019C85.5803 185.711 85.3508 184.435 85.1938 183.165C85.0311 181.899 84.9419 180.634 85.0739 179.394C85.2116 178.15 85.5281 176.92 85.9104 175.705C86.6786 173.282 87.6955 170.823 87.8413 168.134L87.8724 166.191C87.8609 165.553 87.9605 164.925 88.0016 164.294C88.072 163.665 88.1904 163.041 88.2993 162.416L88.521 161.492L88.6299 161.028L88.7708 160.576C89.5014 158.144 90.6257 155.85 91.9469 153.67C93.2597 151.484 94.7256 149.388 96.1637 147.26C96.8791 146.19 97.6019 145.132 98.2812 144.023C98.9548 142.919 99.5855 141.785 100.168 140.625C102.487 135.982 104.104 131.032 105.429 126.026C106.069 123.509 106.565 120.979 107.208 118.497C107.845 116.018 108.656 113.579 109.867 111.365C112.414 106.97 115.57 102.898 119.121 99.2861C122.686 95.698 126.715 92.4957 131.29 90.4688C133.593 89.4763 135.969 88.601 138.391 88.0385C139.604 87.7751 140.838 87.5719 142.052 87.5963C143.266 87.6053 144.482 87.8519 145.461 88.4988C146.457 89.1345 147.087 90.2176 147.438 91.3845C147.765 92.5713 147.859 93.8371 147.821 95.0985C147.772 96.3627 147.621 97.6241 147.348 98.8582C147.075 100.092 146.657 101.289 146.141 102.439C145.121 104.751 143.613 106.813 141.878 108.628C140.125 110.433 138.103 111.952 135.998 113.357C133.896 114.767 131.727 116.102 129.647 117.597C128.606 118.348 127.591 119.139 126.627 119.992C125.653 120.843 124.757 121.792 123.901 122.734C123.041 123.676 122.19 124.62 121.254 125.434C120.323 126.244 119.278 126.923 118.131 127.155C116.985 127.408 115.794 127.067 114.741 126.489C113.68 125.884 112.726 125.096 112.209 124.018C111.123 121.891 112.143 118.954 114.173 117.835C114.673 117.564 115.232 117.437 115.77 117.521C116.299 117.599 116.818 117.887 117.143 118.302C117.476 118.724 117.644 119.296 117.694 119.891C117.749 120.488 117.709 121.114 117.626 121.731C117.252 124.222 116.372 126.662 115.553 129.094C115.136 130.311 114.713 131.532 114.325 132.771C113.939 134.05 113.799 135.465 114.111 136.795C114.391 138.133 115.017 139.326 115.66 140.442C116.306 141.564 117.017 142.635 117.549 143.761C118.088 144.875 118.423 146.094 118.615 147.341C118.8 148.592 118.862 149.87 118.903 151.154C118.986 153.713 118.93 156.372 119.671 158.941C120.037 160.202 120.59 161.479 121.461 162.495C122.308 163.526 123.343 164.372 124.454 165.044C126.684 166.398 129.15 167.196 131.622 167.789C134.103 168.378 136.618 168.743 139.131 169.023L142.9 169.416C144.168 169.533 145.463 169.6 146.739 169.497C148.018 169.405 149.288 169.24 150.534 168.959C151.785 168.699 153.017 168.344 154.226 167.934C156.646 167.109 158.979 166.043 161.205 164.786C163.435 163.536 165.57 162.108 167.586 160.522C169.606 158.942 171.511 157.206 173.263 155.314C175.023 153.429 176.613 151.376 177.975 149.165C178.641 148.049 179.26 146.902 179.783 145.699C180.294 144.502 180.75 143.284 181.152 142.048C181.545 140.806 181.883 139.546 182.164 138.273C182.432 136.997 182.643 135.709 182.787 134.411C182.917 133.11 182.984 131.804 182.978 130.497C182.957 129.188 182.862 127.881 182.692 126.583C182.295 123.995 181.689 121.486 181.104 118.972C179.91 113.963 178.737 108.923 178.854 103.789C178.909 98.6459 179.449 93.5104 180.311 88.4365C180.74 85.8967 181.244 83.3736 181.81 80.8594L182.684 77.0884C182.979 75.819 183.181 74.5286 183.349 73.2356C183.631 70.6429 183.678 68.0026 183.293 65.4068L183.141 64.4356C183.082 64.1149 183.007 63.7958 182.938 63.4731C182.816 62.8258 182.613 62.2061 182.439 61.5724C182.03 60.3272 181.57 59.0955 180.945 57.943C180.364 56.7701 179.627 55.6832 178.851 54.6381C178.07 53.6219 177.276 52.6132 176.476 51.613C174.876 49.6128 173.23 47.6474 171.575 45.6954C169.926 43.7397 168.263 41.8059 166.684 39.8002C165.887 38.8059 165.132 37.7805 164.384 36.7465C163.642 35.704 162.966 34.651 162.234 33.5652C160.763 31.4223 158.996 29.4906 156.973 27.8797C154.956 26.2651 152.702 24.9804 150.348 23.9759C150.154 23.8923 149.932 23.9888 149.851 24.1824C149.77 24.3809 149.864 24.6085 150.053 24.691C152.361 25.6551 154.562 26.8925 156.537 28.4475C158.514 29.9977 160.25 31.8671 161.699 33.9497C162.412 34.9907 163.116 36.0954 163.858 37.1331C164.615 38.174 165.379 39.2064 166.179 40.2065C167.771 42.2201 169.438 44.1598 171.093 46.1118C172.748 48.0589 174.392 50.0136 175.989 52.008C177.566 54.0233 179.259 55.9538 180.392 58.2278C180.995 59.3451 181.448 60.5448 181.849 61.7532C182.017 62.3704 182.218 62.9746 182.334 63.6053C182.4 63.9174 182.477 64.2268 182.533 64.5416L182.679 65.4916C183.059 68.0255 183.018 70.6118 182.745 73.1612C182.47 75.7153 181.773 78.1954 181.205 80.7193C180.629 83.2362 180.121 85.7737 179.68 88.3259C178.804 93.4217 178.247 98.5888 178.177 103.779C178.114 106.38 178.374 108.989 178.788 111.545C179.205 114.108 179.788 116.632 180.363 119.144C180.93 121.654 181.528 124.177 181.881 126.695C182.034 127.958 182.107 129.23 182.116 130.502C182.11 131.775 182.03 133.047 181.888 134.311C181.737 135.572 181.514 136.828 181.244 138.068C180.959 139.309 180.615 140.532 180.22 141.734C179.82 142.94 179.342 144.119 178.831 145.269C178.313 146.408 177.699 147.506 177.04 148.568C174.309 152.786 170.657 156.345 166.647 159.274C164.64 160.746 162.535 162.06 160.352 163.205C158.173 164.356 155.909 165.307 153.597 166.02C151.295 166.755 148.933 167.241 146.594 167.363L145.72 167.405L144.852 167.392C144.56 167.398 144.276 167.37 143.986 167.345C143.691 167.32 143.428 167.311 143.102 167.269L139.356 166.865C136.885 166.596 134.445 166.247 132.083 165.695C129.731 165.144 127.437 164.39 125.503 163.217C124.535 162.638 123.69 161.94 123.025 161.136C122.333 160.347 121.936 159.437 121.599 158.343C120.947 156.192 120.948 153.698 120.852 151.081C120.802 149.77 120.732 148.413 120.512 147.024C120.291 145.639 119.897 144.215 119.234 142.893C118.592 141.591 117.867 140.542 117.235 139.468C116.605 138.41 116.073 137.399 115.856 136.388C115.603 135.384 115.689 134.356 115.983 133.302C116.337 132.106 116.75 130.883 117.149 129.662C117.553 128.437 117.96 127.198 118.325 125.924C118.686 124.649 119.027 123.349 119.208 121.948C119.294 121.247 119.343 120.512 119.26 119.722C119.23 119.333 119.137 118.919 119.005 118.501C118.852 118.084 118.657 117.662 118.349 117.286C118.049 116.917 117.671 116.59 117.267 116.384C116.872 116.16 116.435 116.017 115.987 115.952C115.535 115.877 115.079 115.916 114.649 115.996C114.225 116.093 113.823 116.245 113.461 116.446C112.022 117.264 111.104 118.591 110.624 120.056C110.14 121.515 110.216 123.235 110.933 124.645C111.285 125.349 111.769 125.961 112.322 126.462C112.591 126.719 112.888 126.942 113.181 127.138L114.076 127.691C114.39 127.857 114.73 127.993 115.058 128.142C115.386 128.286 115.766 128.35 116.117 128.454C116.479 128.535 116.866 128.541 117.237 128.578C117.613 128.546 117.994 128.536 118.36 128.456C119.845 128.138 121.05 127.288 122.056 126.399C123.066 125.496 123.925 124.514 124.773 123.559C125.618 122.599 126.45 121.696 127.375 120.865C128.292 120.026 129.265 119.246 130.276 118.499C132.292 117.004 134.447 115.666 136.562 114.218C138.678 112.786 140.758 111.2 142.565 109.305C144.357 107.407 145.913 105.235 146.968 102.805C147.497 101.593 147.924 100.332 148.206 99.0347C148.483 97.7359 148.631 96.4185 148.672 95.0972C148.698 93.7776 148.597 92.4297 148.223 91.1165C148.018 90.4658 147.745 89.8304 147.362 89.251C146.983 88.6726 146.471 88.17 145.897 87.7948C144.735 87.0365 143.374 86.7729 142.072 86.7189C140.757 86.657 139.463 86.7963 138.181 86.9937C136.899 87.1912 135.639 87.4943 134.399 87.8422C133.149 88.1879 131.947 88.5896 130.742 89.0965C129.527 89.6012 128.356 90.2014 127.245 90.8905C126.685 91.2292 126.126 91.5679 125.592 91.9476C125.052 92.3108 124.51 92.6836 123.997 93.083C121.911 94.6481 119.966 96.3856 118.148 98.2423C116.33 100.099 114.63 102.073 113.057 104.14C111.473 106.215 110.044 108.366 108.742 110.685C107.474 113.058 106.662 115.613 106.038 118.145C105.408 120.685 104.939 123.226 104.337 125.702C103.083 130.653 101.542 135.57 99.3162 140.142C98.758 141.283 98.1548 142.403 97.5052 143.487C96.8602 144.573 96.1364 145.636 95.4361 146.704C94.0178 148.831 92.5525 150.948 91.2294 153.183C89.9 155.4 88.7489 157.774 88.0081 160.299L87.8632 160.771L87.7511 161.25L87.527 162.208C87.4186 162.854 87.2999 163.503 87.229 164.157C87.1874 164.813 87.0921 165.467 87.1042 166.125L87.0809 168.055C86.9579 170.567 85.9789 172.964 85.1967 175.43C84.8093 176.669 84.4768 177.95 84.3321 179.274C84.1958 180.604 84.2914 181.93 84.4631 183.224C84.6301 184.516 84.8559 185.786 84.98 187.048C85.1098 188.307 85.0802 189.575 84.9468 190.846C84.6867 193.378 83.8674 195.81 82.834 198.14C81.7818 200.465 80.5312 202.705 79.2163 204.901C77.9051 207.102 76.4904 209.236 75.15 211.436C73.8096 213.636 74.1683 213.516 73.6347 212.425C73.0081 211.145 71.9089 211.182 71.3498 211.04C69.7912 210.779 69.4706 210.803 68.6758 210.338L67.2532 209.466C67.2532 209.466 67.1277 209.395 67.1338 209.278C67.1373 209.212 67.1563 209.116 67.1636 209.05C67.1857 208.851 67.1901 208.814 67.2101 208.624C67.2348 208.39 67.2409 208.232 67.2483 207.969C67.2544 207.749 67.2377 207.985 67.3017 206.372C67.3693 204.764 67.3796 203.149 67.2522 201.533C67.1295 199.918 66.8265 198.318 66.3917 196.76C65.9615 195.202 65.4034 193.692 64.8061 192.203C64.2156 190.705 63.5289 189.267 63.0213 187.772C62.4986 186.28 62.104 184.74 61.823 183.176C61.542 181.611 61.3745 180.022 61.193 178.429C60.8451 175.242 60.3375 172.019 59.1913 168.976L58.9589 168.405C58.8868 168.213 58.8044 168.023 58.699 167.848L58.1057 166.778C57.894 166.434 57.6479 166.112 57.4199 165.774C57.3021 165.611 57.192 165.435 57.0627 165.281L56.6748 164.816C55.6587 163.561 54.4757 162.465 53.2403 161.453C52.0117 160.433 50.7 159.525 49.3485 158.689C47.9969 157.853 46.6169 157.081 45.1605 156.413L45.3461 156.858C47.0143 152.292 48.8466 147.788 50.8135 143.344C52.7877 138.911 54.8392 134.486 57.1477 130.24C59.496 126.037 62.3358 122.09 65.9159 119.055C69.4828 116.012 73.7644 114 78.3012 113.028C80.5629 112.55 82.8801 112.297 85.1772 112.437C86.3295 112.477 87.4611 112.685 88.5854 112.926C89.135 113.094 89.7005 113.21 90.2331 113.435L91.0386 113.741L91.8203 114.112C92.0861 114.227 92.3363 114.368 92.5844 114.52L93.332 114.959L94.0359 115.464L94.3908 115.714L94.7129 116.003L95.3582 116.575C95.5611 116.777 95.7438 117.004 95.9343 117.218C96.3429 117.632 96.6215 118.148 96.9536 118.62C97.0963 118.874 97.2171 119.138 97.3483 119.399L97.5451 119.79L97.6935 120.201C97.7867 120.479 97.896 120.751 97.9788 121.031L98.1741 121.891C98.3698 123.049 98.4405 124.239 98.2729 125.416C98.2399 126.008 98.0687 126.58 97.9549 127.159C97.7613 127.72 97.6277 128.3 97.375 128.839C96.9559 129.949 96.332 130.959 95.6674 131.929C95.2993 132.386 94.9636 132.876 94.5463 133.287C94.3437 133.498 94.1541 133.718 93.9384 133.922L93.2819 134.531C92.8542 134.945 92.3941 135.326 91.9433 135.709C91.4952 136.103 91.0204 136.46 90.5493 136.824C86.7587 139.716 82.4969 141.889 78.1815 143.898C76.019 144.902 73.8283 145.854 71.6334 146.825L65.0823 149.766C60.7422 151.73 56.3563 153.562 51.8146 154.649C49.5453 155.185 47.2558 155.586 44.9459 155.69C42.666 155.861 40.4339 155.509 38.259 154.796C36.0925 154.09 34.0149 153.037 32.1481 151.688C30.286 150.339 28.6063 148.689 27.4164 146.75C26.8298 145.788 26.3748 144.739 26.1898 143.669C25.9886 142.606 26.1169 141.521 26.4741 140.447C26.8219 139.371 27.3774 138.336 27.9992 137.335C28.622 136.331 29.3169 135.357 30.0269 134.382C31.4385 132.424 32.9497 130.484 34.0809 128.227C34.6313 127.1 35.1127 125.882 35.248 124.557C35.3235 123.903 35.3249 123.228 35.1756 122.545C35.0346 121.868 34.7205 121.173 34.1902 120.662C33.6655 120.146 32.9789 119.837 32.3065 119.737C31.6315 119.627 30.9622 119.674 30.3271 119.814C29.0596 120.105 27.8656 120.721 26.9587 121.743C26.5152 122.253 26.1493 122.907 26.0448 123.65C25.9488 124.4 26.174 125.166 26.5513 125.749C26.9162 126.344 27.507 126.849 28.1455 127.108C28.7856 127.382 29.4511 127.445 30.0883 127.456C31.3703 127.465 32.5804 127.166 33.7519 126.818C34.9206 126.459 36.0515 126.001 37.1557 125.507C39.3624 124.503 41.4748 123.342 43.5351 122.033C43.7562 121.896 44.3073 121.491 44.1689 121.263C44.1003 121.147 43.6764 121.045 43.5543 121.018L43.34 120.97C41.9313 120.656 40.5876 120.423 39.2324 119.903C38.5543 119.646 37.887 119.361 37.2286 119.058C36.5785 118.761 35.9709 118.404 35.3841 117.995C34.201 117.177 33.1392 116.159 31.9229 115.242C31.3104 114.793 30.6651 114.381 29.9675 114.054C29.2792 113.729 28.5108 113.457 27.6803 113.453C27.2674 113.451 26.8239 113.523 26.4211 113.751C26.0147 113.972 25.6918 114.379 25.5409 114.809C25.3807 115.237 25.3541 115.684 25.3783 116.078C25.3864 116.478 25.4342 116.877 25.5215 117.274C25.6193 117.669 25.7452 118.07 25.9717 118.438C26.1784 118.807 26.5002 119.166 26.9731 119.347C27.0844 119.402 27.2132 119.421 27.3441 119.43C27.4072 119.434 27.475 119.439 27.5391 119.438L27.7293 119.4L27.9168 119.351C27.972 119.323 28.0272 119.295 28.0834 119.262C28.19 119.201 28.3061 119.141 28.3793 119.051C28.7469 118.735 28.9113 118.334 29.0764 117.952C29.143 117.755 29.1898 117.559 29.246 117.365C29.2881 117.168 29.3103 116.971 29.3431 116.772C29.397 116.381 29.425 116.019 29.4655 115.645L29.7062 113.411L30.1887 108.938C30.2291 108.564 30.2602 108.188 30.3351 107.837C30.3923 107.477 30.4636 107.12 30.5537 106.767C30.7161 106.052 30.9338 105.355 31.2168 104.698C31.4951 104.039 31.8454 103.412 32.2957 102.893C32.745 102.378 33.2952 101.967 33.9083 101.791C34.5204 101.621 35.1869 101.679 35.752 101.981C36.3202 102.27 36.776 102.785 36.974 103.378C37.1814 103.974 37.0798 104.611 36.7261 105.162C36.5628 105.443 36.3383 105.665 36.0955 105.858C35.8296 106.02 35.549 106.159 35.2322 106.214C34.5992 106.345 33.9019 106.27 33.2298 106.1C32.553 105.928 31.8863 105.664 31.244 105.354C29.9588 104.714 28.7454 103.899 27.6131 102.981C26.4864 102.059 25.4247 101.04 24.5262 99.9023C24.0817 99.3343 23.6699 98.7283 23.3831 98.0897C23.2397 97.7704 23.1379 97.4403 23.116 97.128C23.1025 96.8226 23.1687 96.4897 23.2995 96.1762C23.5633 95.5397 23.9773 94.9367 24.4405 94.38C24.9038 93.8233 25.4156 93.2925 25.942 92.7852C26.9996 91.7716 28.1362 90.8261 29.2837 89.8981C30.4287 88.9595 31.6203 88.1019 32.7221 87.0427L34.2792 85.4403C34.8015 84.9068 35.2865 84.3399 35.792 83.7926C37.7814 81.5711 39.6385 79.2091 41.2468 76.6757C41.6603 76.0524 42.0403 75.4015 42.4156 74.7496C42.8086 74.1066 43.1437 73.4356 43.5096 72.7816C43.6842 72.4477 43.8802 72.1286 44.0595 71.7957C44.2388 71.4629 44.4171 71.1348 44.6094 70.8099C44.9988 70.1611 45.3527 69.4943 45.7112 68.8285C46.0792 68.1648 46.4106 67.488 46.7159 66.7952C47.0249 66.1083 47.3078 65.4055 47.5577 64.6953C48.0858 63.2812 48.5529 61.8536 48.9881 60.4137C49.8717 57.542 50.595 54.6143 51.4848 51.7592C51.7244 51.0517 51.9452 50.34 52.1978 49.6405C52.4645 48.9442 52.8388 48.2971 53.1681 47.6298C53.4834 46.9594 53.8128 46.2922 54.1495 45.6367C54.4919 44.9774 54.8025 44.306 55.1747 43.6684C56.5768 41.0638 58.2209 38.5937 60.1007 36.3326C61.9774 34.0859 64.0762 31.9744 66.4289 30.333C68.8721 28.6361 71.2852 26.988 73.7973 25.4526C76.2989 23.92 78.8582 22.486 81.5017 21.2571C84.1467 20.0438 86.8757 18.9903 89.6908 18.455C91.0956 18.1892 92.5179 18.0483 93.9155 18.1388C95.3141 18.2244 96.6859 18.551 97.9033 19.1857C98.2 19.3629 98.492 19.539 98.782 19.7247C99.046 19.9399 99.3386 20.1363 99.5845 20.3676C99.8178 20.6112 100.081 20.8312 100.277 21.1118C100.381 21.246 100.491 21.3764 100.594 21.5153L100.869 21.9547C101.606 23.1372 102.051 24.5318 102.393 25.9487C103.085 28.7895 103.286 31.8378 104.118 34.7853C104.879 37.6968 105.724 40.5818 106.603 43.449L107.935 47.7428L108.603 49.8878C108.824 50.6073 109.071 51.3176 109.225 52.0021C109.545 53.4041 109.669 54.878 109.639 56.3279C109.592 57.7737 109.384 59.2291 108.872 60.5459C108.366 61.8542 107.548 63.0371 106.382 63.7088C105.802 64.0481 105.168 64.2793 104.496 64.4064C103.821 64.5026 103.13 64.5599 102.433 64.4848C101.739 64.4406 101.041 64.2998 100.352 64.136C99.6671 63.9578 98.9855 63.74 98.2757 63.5159C96.8722 63.0613 95.4558 62.6442 94.0255 62.2692C91.1696 61.5204 88.262 60.9214 85.3292 60.5787C82.3958 60.2158 79.448 60.0815 76.5217 59.962C75.0586 59.9023 73.5964 59.8378 72.1384 59.754C70.6881 59.6568 69.2498 59.5271 67.838 59.2268C66.4288 58.9373 65.0395 58.5312 63.7326 57.947C63.0758 57.6591 62.4511 57.313 61.8554 56.9229C61.5581 56.7255 61.2732 56.5157 61.0066 56.2899C60.7379 56.0736 60.4747 55.8082 60.2873 55.5799L60.0654 56.251C62.7411 55.493 65.5748 55.3549 68.372 55.5262C71.1729 55.7033 73.9638 56.1805 76.6981 56.8769C78.0678 57.2131 79.4211 57.6263 80.7635 58.0672C81.4337 58.2925 82.0972 58.5264 82.7508 58.7832C83.0682 58.9096 83.4174 59.0481 83.6838 59.1831C83.946 59.3375 84.198 59.5399 84.3974 59.781C84.8067 60.2605 85.0054 60.8743 84.8613 61.457C84.735 62.0486 84.3061 62.5827 83.8082 63.0259C82.7913 63.9175 81.4977 64.5155 80.2054 65.0382C78.9011 65.5482 77.5452 65.9307 76.1743 66.3149C74.809 66.6953 73.4395 67.0496 72.0595 67.3612C69.3077 67.9913 66.5069 68.4592 63.714 68.6367C63.0186 68.6678 62.3179 68.6776 61.643 68.6125C61.3061 68.5776 60.9723 68.5282 60.6665 68.4398C60.3596 68.3561 60.0745 68.2168 59.9379 68.0502C59.8096 67.8906 59.8002 67.7272 59.9122 67.4095C60.0264 67.0823 60.1442 66.7608 60.3012 66.4633C60.6021 65.8602 61.0211 65.3491 61.5608 65.0564C62.1005 64.7637 62.753 64.7029 63.4061 64.7782C64.0601 64.8487 64.7276 65.0633 65.3894 65.2817C66.7053 65.7318 67.9779 66.3386 69.2085 67.0267C70.4335 67.7186 71.6544 68.4751 72.802 69.2757C73.9596 70.0987 75.1396 70.9318 76.2275 71.8047C76.2897 71.8589 76.3567 71.9142 76.4058 71.9605C76.4225 71.9743 76.4335 71.9918 76.4335 71.9918L76.4456 72.0046C76.4456 72.0046 76.4262 71.9801 76.4189 71.9684C76.451 72.0713 76.2752 71.7196 76.4559 71.5181L76.4367 71.539L76.3973 71.5856C76.3017 71.7104 76.1895 71.8214 76.0726 71.9314C75.8387 72.1513 75.5677 72.3377 75.2763 72.5044C74.6981 72.8389 74.0582 73.0941 73.4004 73.2949C72.0837 73.7013 70.6923 73.9045 69.3017 74.0122C66.5147 74.2312 63.684 74.1936 60.9143 73.8017C60.2231 73.6977 59.536 73.5745 58.8686 73.4053C58.2117 73.2333 57.5222 73.0289 57.0321 72.6977C56.9166 72.6165 56.8334 72.5223 56.8134 72.4775C56.8008 72.4445 56.792 72.4627 56.8465 72.369C56.8698 72.3288 56.9233 72.2854 56.9675 72.2398L57.148 72.1088C57.2655 72.0191 57.4128 71.9512 57.5508 71.8812C58.1359 71.629 58.8175 71.5242 59.4952 71.4841C60.8682 71.4128 62.2718 71.5902 63.6496 71.8426C65.0321 72.0959 66.4055 72.438 67.7649 72.8223C68.446 73.0197 69.1203 73.2258 69.7915 73.4463L70.291 73.6183C70.4428 73.6673 70.611 73.7553 70.7692 73.8209L71.7347 74.2532C72.9985 74.8782 74.2287 75.5914 75.3613 76.4391C76.4939 77.2867 77.528 78.2736 78.3613 79.4173C79.1946 80.5609 79.8537 81.8521 80.1603 83.251C80.8342 86.0171 80.2871 89.0647 78.928 91.4674L78.9125 91.4941C78.8083 91.6825 78.8711 91.9183 79.0503 92.0239C79.2295 92.1294 79.4644 92.066 79.5675 91.8824L79.5774 91.8594L79.579 91.8749Z"/>
</mask>
<path d="M79.579 91.8749C80.2386 90.4902 80.5983 89.0587 80.7946 87.5856C80.8876 86.8504 80.8987 86.1071 80.8654 85.3639C80.8312 84.6255 80.7281 83.8868 80.5369 83.1689C80.1839 81.7344 79.522 80.3871 78.6744 79.1949C77.8211 78.0065 76.7661 76.9797 75.6152 76.1027C74.4642 75.2258 73.2193 74.4891 71.9372 73.8348L70.958 73.3742C70.6384 73.2121 70.2824 73.0822 69.9525 72.9682C69.2797 72.7322 68.6001 72.5049 67.9164 72.2967C66.5501 71.8756 65.1688 71.5015 63.7633 71.2178C62.3557 70.9438 60.9274 70.7205 59.4589 70.7553C58.7249 70.7828 57.9775 70.8729 57.2455 71.168C57.0648 71.2536 56.8805 71.3334 56.7125 71.4521L56.4577 71.6321C56.3724 71.7088 56.2871 71.7855 56.2051 71.8931C56.1241 71.996 56.0511 72.1309 56.0152 72.2992C55.9792 72.4676 55.9986 72.6533 56.0601 72.8031C56.1841 73.0979 56.3718 73.2558 56.5402 73.3891C57.2341 73.8717 57.935 74.0686 58.6442 74.2723C59.3518 74.4606 60.0613 74.5939 60.7749 74.708C62.1985 74.9302 63.6295 75.0482 65.0655 75.0969C66.4979 75.1396 67.9415 75.1295 69.3716 74.9752C70.8018 74.8209 72.2342 74.5866 73.64 74.1547C74.3415 73.9334 75.0345 73.6599 75.6881 73.2717C76.0149 73.0776 76.3327 72.8563 76.6222 72.5833C76.7641 72.4487 76.908 72.3044 77.0305 72.1453L77.0778 72.0853L77.1037 72.0559C77.2839 71.8341 77.1085 71.4572 77.1249 71.5415C77.1066 71.5122 77.0799 71.476 77.0605 71.4515L77.0244 71.4132C77.0004 71.3877 76.9763 71.3622 76.9596 71.3484C76.878 71.2697 76.8063 71.2133 76.7357 71.1522C75.5826 70.2395 74.4172 69.4299 73.2409 68.6027C72.039 67.7799 70.8243 67.0399 69.5639 66.33C68.3014 65.6297 66.9943 65.0001 65.6184 64.5315C64.9331 64.3079 64.2384 64.0822 63.4754 63.9924C62.7264 63.9057 61.9023 63.9635 61.1779 64.3611C60.4545 64.7539 59.9338 65.4187 59.5946 66.1089C59.4132 66.4514 59.2778 66.8092 59.1565 67.1702C59.0914 67.3371 59.0292 67.6054 59.0399 67.8547C59.0523 68.1195 59.1663 68.3919 59.327 68.584C59.6625 68.9714 60.0702 69.1129 60.4397 69.2257C60.8149 69.3347 61.1873 69.3876 61.5535 69.424C62.2914 69.4931 63.0166 69.4838 63.7365 69.4531C66.6087 69.2732 69.4267 68.7939 72.2144 68.1567C73.6059 67.8376 74.9868 67.4758 76.3614 67.0975C77.7324 66.7133 79.1148 66.3216 80.4618 65.796C81.7979 65.2528 83.1462 64.6519 84.2961 63.6438C84.8565 63.1391 85.3955 62.5035 85.5903 61.6601C85.689 61.2437 85.6761 60.7973 85.5579 60.3829C85.4387 59.9733 85.2217 59.6073 84.9631 59.2976C84.7055 58.983 84.3903 58.7312 84.0356 58.526C83.6674 58.3379 83.349 58.2164 83.0091 58.08C82.3377 57.8141 81.6649 57.5782 80.9853 57.3508C79.6251 56.9008 78.2567 56.4893 76.8703 56.1393C74.1015 55.4201 71.2704 54.9238 68.4095 54.7282C65.5513 54.5433 62.6367 54.6684 59.8239 55.4461L59.8098 55.443C59.589 55.5096 59.4615 55.7381 59.5217 55.9632C59.5386 56.0224 59.5669 56.0741 59.6009 56.122C59.8852 56.4728 60.1504 56.7285 60.4552 56.9831C60.7506 57.2355 61.0605 57.466 61.3793 57.6783C62.0168 58.1029 62.6807 58.473 63.373 58.7788C64.7499 59.4039 66.1935 59.8321 67.6533 60.1381C69.11 60.4584 70.6001 60.5997 72.0738 60.7021C73.5402 60.7928 75.006 60.8632 76.4718 60.9336C79.3997 61.0685 82.3162 61.211 85.2032 61.5837C88.0944 61.9372 90.9482 62.5343 93.7635 63.2892C95.174 63.6647 96.5696 64.0873 97.959 64.5388C98.6453 64.7576 99.3672 64.9944 100.098 65.1879C100.832 65.367 101.582 65.5194 102.348 65.5745C103.112 65.6595 103.895 65.6077 104.667 65.4929C105.44 65.3531 106.207 65.0808 106.898 64.6759C108.315 63.8686 109.283 62.4469 109.855 60.9873C110.432 59.5084 110.652 57.945 110.712 56.3962C110.752 54.848 110.625 53.3026 110.285 51.7804C110.108 50.9999 109.86 50.2944 109.648 49.5819L108.985 47.4331L107.667 43.1424C106.802 40.2783 105.969 37.4061 105.223 34.5181C104.426 31.6842 104.244 28.6854 103.53 25.6937C103.173 24.2079 102.708 22.6981 101.872 21.3371L101.556 20.8332C101.438 20.6708 101.309 20.516 101.19 20.3584C100.96 20.0298 100.653 19.7646 100.37 19.4747C100.079 19.2031 99.7529 18.979 99.4471 18.7293C99.119 18.5149 98.7784 18.3128 98.4367 18.1156C97.037 17.3897 95.4931 17.0398 93.9673 16.9509C92.4368 16.8611 90.9227 17.0167 89.4498 17.3026C86.4924 17.8817 83.7005 18.9765 81.004 20.2237C78.3137 21.4875 75.7191 22.9489 73.1998 24.5179C70.6863 26.0831 68.2316 27.7875 65.8327 29.4842C63.3506 31.2479 61.2499 33.4144 59.3333 35.7328C55.5043 40.3958 52.766 45.8719 50.7803 51.5564C48.8457 57.2322 47.0676 62.9581 44.7235 68.4315C43.5501 71.1629 42.2102 73.8218 40.6289 76.3209C39.0512 78.8259 37.2425 81.1685 35.277 83.3702C34.7773 83.9137 34.2943 84.471 33.7778 85.0007L32.2294 86.585C31.2025 87.5701 29.9859 88.4524 28.842 89.3863C27.684 90.3169 26.5324 91.2641 25.4451 92.3013C24.9015 92.8199 24.3725 93.3619 23.8833 93.9481C23.3942 94.5343 22.938 95.1732 22.6183 95.9333C22.4637 96.312 22.3619 96.7428 22.3775 97.1999C22.4035 97.6542 22.5352 98.0515 22.6986 98.4156C23.0242 99.1485 23.4628 99.7907 23.9293 100.394C24.8729 101.597 25.9623 102.647 27.1214 103.601C28.2862 104.552 29.5319 105.4 30.8835 106.075C31.5671 106.399 32.2652 106.701 33.0083 106.907C33.7477 107.107 34.5479 107.231 35.367 107.081C35.7792 107.017 36.1811 106.84 36.5536 106.615C36.7211 106.476 36.9052 106.351 37.0485 106.187C37.1825 106.02 37.3483 105.866 37.4478 105.676C37.6802 105.325 37.8639 104.902 37.9369 104.445C38.0136 103.993 37.9474 103.52 37.8057 103.1C37.2077 101.384 35.3308 100.451 33.6184 100.845C32.7645 101.042 32.0281 101.588 31.5078 102.228C30.9724 102.869 30.5968 103.592 30.3031 104.322C29.999 105.056 29.7935 105.811 29.6464 106.569C29.5663 106.944 29.4993 107.328 29.451 107.715C29.383 108.103 29.367 108.477 29.337 108.849C29.2184 110.349 29.1149 111.848 28.9682 113.342L28.7604 115.584C28.6737 116.335 28.6428 117.079 28.4072 117.722C28.2774 118.031 28.1351 118.352 27.9094 118.533C27.6911 118.726 27.4411 118.791 27.191 118.695C26.9446 118.605 26.7035 118.375 26.5492 118.083C26.3721 117.807 26.2677 117.466 26.1821 117.129C26.1127 116.786 26.0651 116.433 26.0582 116.074C26.0361 115.716 26.0637 115.379 26.1774 115.077C26.2854 114.779 26.4743 114.539 26.7418 114.392C27.0057 114.239 27.3329 114.181 27.6629 114.179C28.336 114.184 29.0109 114.41 29.6589 114.716C30.3023 115.021 30.9178 115.41 31.5005 115.838C32.664 116.702 33.7451 117.745 34.9794 118.6C35.5961 119.031 36.2475 119.413 36.9284 119.726C37.5999 120.037 38.2813 120.326 38.9772 120.592C40.3595 121.123 42.3963 121.231 43.8426 121.555L43.6824 121.343C41.6726 122.623 39.0293 123.874 36.8579 124.851C35.7709 125.334 34.6639 125.772 33.5321 126.119C32.4034 126.451 31.238 126.725 30.0852 126.709C29.5122 126.697 28.9296 126.638 28.4169 126.412C27.8974 126.196 27.4739 125.829 27.173 125.348C26.8711 124.873 26.7149 124.314 26.783 123.765C26.8604 123.217 27.1428 122.701 27.5142 122.275C28.2731 121.416 29.3577 120.852 30.4689 120.602C31.0311 120.48 31.6087 120.448 32.1596 120.541C32.7115 120.629 33.2352 120.872 33.6244 121.261C34.0193 121.647 34.2609 122.174 34.3775 122.735C34.4987 123.296 34.4987 123.895 34.4281 124.479C34.367 125.065 34.2287 125.644 34.034 126.211C33.8497 126.774 33.5997 127.323 33.333 127.858C32.2333 129.991 30.7255 131.892 29.2868 133.838C28.5674 134.812 27.8413 135.793 27.1878 136.827C26.5343 137.86 25.929 138.944 25.519 140.128C25.1016 141.299 24.9204 142.61 25.1341 143.867C25.3338 145.121 25.8263 146.294 26.4497 147.361C27.7154 149.498 29.4731 151.266 31.4201 152.724C33.3727 154.178 35.5419 155.333 37.8364 156.108C40.1262 156.881 42.58 157.278 44.9965 157.112C47.4054 157.005 49.7926 156.632 52.1295 156.055C56.8091 154.898 61.2537 152.998 65.6041 150.986L72.11 147.934C74.2828 146.928 76.463 145.933 78.6243 144.889C82.9421 142.8 87.2144 140.508 91.0574 137.532C91.5363 137.155 92.0178 136.789 92.4727 136.386C92.9359 135.991 93.3981 135.6 93.8336 135.173L94.4989 134.546C94.7166 134.333 94.9197 134.096 95.1348 133.872C95.5734 133.43 95.9236 132.919 96.3083 132.43C97.004 131.407 97.6516 130.332 98.0888 129.159C98.3523 128.593 98.4894 127.974 98.6892 127.383C98.8055 126.769 98.9839 126.164 99.0251 125.533C99.3552 123.042 98.885 120.427 97.6629 118.224C97.3119 117.702 97.018 117.143 96.5895 116.684C96.3843 116.447 96.1963 116.198 95.9787 115.973L95.2977 115.337L94.9573 115.019L94.5888 114.741L93.8518 114.183L93.0702 113.696C92.811 113.527 92.5488 113.373 92.271 113.245L91.4495 112.83L90.5985 112.484C90.0372 112.232 89.4419 112.094 88.8635 111.899C87.6806 111.61 86.4828 111.368 85.2745 111.289C82.8562 111.072 80.4253 111.305 78.0572 111.774C75.6897 112.263 73.3795 113.037 71.1944 114.101C69.0139 115.166 66.9695 116.539 65.147 118.163C61.4895 121.423 58.7181 125.556 56.4275 129.857C54.174 134.192 52.1172 138.595 50.1425 143.053C48.1772 147.512 46.3456 152.037 44.6779 156.623C44.6077 156.814 44.6944 157.03 44.8787 157.111C46.2771 157.751 47.6571 158.523 48.9836 159.338C50.309 160.159 51.5993 161.052 52.8038 162.046C54.0104 163.031 55.1646 164.101 56.1468 165.308L56.5236 165.755C56.6492 165.904 56.751 166.073 56.8652 166.229C57.0821 166.55 57.3208 166.86 57.5263 167.188L58.0922 168.202C58.195 168.366 58.2701 168.544 58.3396 168.726L58.5593 169.263L58.779 169.801L58.9529 170.369C59.0642 170.747 59.1953 171.124 59.2904 171.508L59.5862 172.658L59.8403 173.818C60.1526 175.374 60.357 176.952 60.5396 178.54C60.7221 180.128 60.8959 181.734 61.1848 183.331C61.4691 184.926 61.88 186.505 62.4153 188.03C62.6686 188.802 62.998 189.541 63.2961 190.288C63.6124 191.019 63.924 191.749 64.2184 192.49C64.8141 193.963 65.3623 195.451 65.7855 196.972C66.2087 198.493 66.5069 200.046 66.6284 201.62C66.7593 203.197 66.7495 204.787 66.6849 206.38C66.6261 207.97 66.6751 206.587 66.6299 208.205C66.6099 208.92 66.6862 209.824 66.6862 209.824C66.6862 209.824 67.8065 210.973 69.6879 211.498C72.1601 212.189 72.7357 211.434 73.8512 214.398C76.738 210.792 71.9648 215.727 82.9465 211.96L87.9884 209.53L89.6163 208.672C89.6722 207.687 88.3035 208.599 87.1061 209.212C84.5697 210.51 85.1737 210.285 82.0931 211.605C80.9737 211.987 74.4006 214.025 75.7322 211.843C78.4289 207.507 81.3274 203.215 83.4795 198.48C84.5363 196.111 85.3928 193.596 85.6641 190.965C85.8046 189.661 85.8325 188.332 85.7046 187.019C85.5803 185.711 85.3508 184.435 85.1938 183.165C85.0311 181.899 84.9419 180.634 85.0739 179.394C85.2116 178.15 85.5281 176.92 85.9104 175.705C86.6786 173.282 87.6955 170.823 87.8413 168.134L87.8724 166.191C87.8609 165.553 87.9605 164.925 88.0016 164.294C88.072 163.665 88.1904 163.041 88.2993 162.416L88.521 161.492L88.6299 161.028L88.7708 160.576C89.5014 158.144 90.6257 155.85 91.9469 153.67C93.2597 151.484 94.7256 149.388 96.1637 147.26C96.8791 146.19 97.6019 145.132 98.2812 144.023C98.9548 142.919 99.5855 141.785 100.168 140.625C102.487 135.982 104.104 131.032 105.429 126.026C106.069 123.509 106.565 120.979 107.208 118.497C107.845 116.018 108.656 113.579 109.867 111.365C112.414 106.97 115.57 102.898 119.121 99.2861C122.686 95.698 126.715 92.4957 131.29 90.4688C133.593 89.4763 135.969 88.601 138.391 88.0385C139.604 87.7751 140.838 87.5719 142.052 87.5963C143.266 87.6053 144.482 87.8519 145.461 88.4988C146.457 89.1345 147.087 90.2176 147.438 91.3845C147.765 92.5713 147.859 93.8371 147.821 95.0985C147.772 96.3627 147.621 97.6241 147.348 98.8582C147.075 100.092 146.657 101.289 146.141 102.439C145.121 104.751 143.613 106.813 141.878 108.628C140.125 110.433 138.103 111.952 135.998 113.357C133.896 114.767 131.727 116.102 129.647 117.597C128.606 118.348 127.591 119.139 126.627 119.992C125.653 120.843 124.757 121.792 123.901 122.734C123.041 123.676 122.19 124.62 121.254 125.434C120.323 126.244 119.278 126.923 118.131 127.155C116.985 127.408 115.794 127.067 114.741 126.489C113.68 125.884 112.726 125.096 112.209 124.018C111.123 121.891 112.143 118.954 114.173 117.835C114.673 117.564 115.232 117.437 115.77 117.521C116.299 117.599 116.818 117.887 117.143 118.302C117.476 118.724 117.644 119.296 117.694 119.891C117.749 120.488 117.709 121.114 117.626 121.731C117.252 124.222 116.372 126.662 115.553 129.094C115.136 130.311 114.713 131.532 114.325 132.771C113.939 134.05 113.799 135.465 114.111 136.795C114.391 138.133 115.017 139.326 115.66 140.442C116.306 141.564 117.017 142.635 117.549 143.761C118.088 144.875 118.423 146.094 118.615 147.341C118.8 148.592 118.862 149.87 118.903 151.154C118.986 153.713 118.93 156.372 119.671 158.941C120.037 160.202 120.59 161.479 121.461 162.495C122.308 163.526 123.343 164.372 124.454 165.044C126.684 166.398 129.15 167.196 131.622 167.789C134.103 168.378 136.618 168.743 139.131 169.023L142.9 169.416C144.168 169.533 145.463 169.6 146.739 169.497C148.018 169.405 149.288 169.24 150.534 168.959C151.785 168.699 153.017 168.344 154.226 167.934C156.646 167.109 158.979 166.043 161.205 164.786C163.435 163.536 165.57 162.108 167.586 160.522C169.606 158.942 171.511 157.206 173.263 155.314C175.023 153.429 176.613 151.376 177.975 149.165C178.641 148.049 179.26 146.902 179.783 145.699C180.294 144.502 180.75 143.284 181.152 142.048C181.545 140.806 181.883 139.546 182.164 138.273C182.432 136.997 182.643 135.709 182.787 134.411C182.917 133.11 182.984 131.804 182.978 130.497C182.957 129.188 182.862 127.881 182.692 126.583C182.295 123.995 181.689 121.486 181.104 118.972C179.91 113.963 178.737 108.923 178.854 103.789C178.909 98.6459 179.449 93.5104 180.311 88.4365C180.74 85.8967 181.244 83.3736 181.81 80.8594L182.684 77.0884C182.979 75.819 183.181 74.5286 183.349 73.2356C183.631 70.6429 183.678 68.0026 183.293 65.4068L183.141 64.4356C183.082 64.1149 183.007 63.7958 182.938 63.4731C182.816 62.8258 182.613 62.2061 182.439 61.5724C182.03 60.3272 181.57 59.0955 180.945 57.943C180.364 56.7701 179.627 55.6832 178.851 54.6381C178.07 53.6219 177.276 52.6132 176.476 51.613C174.876 49.6128 173.23 47.6474 171.575 45.6954C169.926 43.7397 168.263 41.8059 166.684 39.8002C165.887 38.8059 165.132 37.7805 164.384 36.7465C163.642 35.704 162.966 34.651 162.234 33.5652C160.763 31.4223 158.996 29.4906 156.973 27.8797C154.956 26.2651 152.702 24.9804 150.348 23.9759C150.154 23.8923 149.932 23.9888 149.851 24.1824C149.77 24.3809 149.864 24.6085 150.053 24.691C152.361 25.6551 154.562 26.8925 156.537 28.4475C158.514 29.9977 160.25 31.8671 161.699 33.9497C162.412 34.9907 163.116 36.0954 163.858 37.1331C164.615 38.174 165.379 39.2064 166.179 40.2065C167.771 42.2201 169.438 44.1598 171.093 46.1118C172.748 48.0589 174.392 50.0136 175.989 52.008C177.566 54.0233 179.259 55.9538 180.392 58.2278C180.995 59.3451 181.448 60.5448 181.849 61.7532C182.017 62.3704 182.218 62.9746 182.334 63.6053C182.4 63.9174 182.477 64.2268 182.533 64.5416L182.679 65.4916C183.059 68.0255 183.018 70.6118 182.745 73.1612C182.47 75.7153 181.773 78.1954 181.205 80.7193C180.629 83.2362 180.121 85.7737 179.68 88.3259C178.804 93.4217 178.247 98.5888 178.177 103.779C178.114 106.38 178.374 108.989 178.788 111.545C179.205 114.108 179.788 116.632 180.363 119.144C180.93 121.654 181.528 124.177 181.881 126.695C182.034 127.958 182.107 129.23 182.116 130.502C182.11 131.775 182.03 133.047 181.888 134.311C181.737 135.572 181.514 136.828 181.244 138.068C180.959 139.309 180.615 140.532 180.22 141.734C179.82 142.94 179.342 144.119 178.831 145.269C178.313 146.408 177.699 147.506 177.04 148.568C174.309 152.786 170.657 156.345 166.647 159.274C164.64 160.746 162.535 162.06 160.352 163.205C158.173 164.356 155.909 165.307 153.597 166.02C151.295 166.755 148.933 167.241 146.594 167.363L145.72 167.405L144.852 167.392C144.56 167.398 144.276 167.37 143.986 167.345C143.691 167.32 143.428 167.311 143.102 167.269L139.356 166.865C136.885 166.596 134.445 166.247 132.083 165.695C129.731 165.144 127.437 164.39 125.503 163.217C124.535 162.638 123.69 161.94 123.025 161.136C122.333 160.347 121.936 159.437 121.599 158.343C120.947 156.192 120.948 153.698 120.852 151.081C120.802 149.77 120.732 148.413 120.512 147.024C120.291 145.639 119.897 144.215 119.234 142.893C118.592 141.591 117.867 140.542 117.235 139.468C116.605 138.41 116.073 137.399 115.856 136.388C115.603 135.384 115.689 134.356 115.983 133.302C116.337 132.106 116.75 130.883 117.149 129.662C117.553 128.437 117.96 127.198 118.325 125.924C118.686 124.649 119.027 123.349 119.208 121.948C119.294 121.247 119.343 120.512 119.26 119.722C119.23 119.333 119.137 118.919 119.005 118.501C118.852 118.084 118.657 117.662 118.349 117.286C118.049 116.917 117.671 116.59 117.267 116.384C116.872 116.16 116.435 116.017 115.987 115.952C115.535 115.877 115.079 115.916 114.649 115.996C114.225 116.093 113.823 116.245 113.461 116.446C112.022 117.264 111.104 118.591 110.624 120.056C110.14 121.515 110.216 123.235 110.933 124.645C111.285 125.349 111.769 125.961 112.322 126.462C112.591 126.719 112.888 126.942 113.181 127.138L114.076 127.691C114.39 127.857 114.73 127.993 115.058 128.142C115.386 128.286 115.766 128.35 116.117 128.454C116.479 128.535 116.866 128.541 117.237 128.578C117.613 128.546 117.994 128.536 118.36 128.456C119.845 128.138 121.05 127.288 122.056 126.399C123.066 125.496 123.925 124.514 124.773 123.559C125.618 122.599 126.45 121.696 127.375 120.865C128.292 120.026 129.265 119.246 130.276 118.499C132.292 117.004 134.447 115.666 136.562 114.218C138.678 112.786 140.758 111.2 142.565 109.305C144.357 107.407 145.913 105.235 146.968 102.805C147.497 101.593 147.924 100.332 148.206 99.0347C148.483 97.7359 148.631 96.4185 148.672 95.0972C148.698 93.7776 148.597 92.4297 148.223 91.1165C148.018 90.4658 147.745 89.8304 147.362 89.251C146.983 88.6726 146.471 88.17 145.897 87.7948C144.735 87.0365 143.374 86.7729 142.072 86.7189C140.757 86.657 139.463 86.7963 138.181 86.9937C136.899 87.1912 135.639 87.4943 134.399 87.8422C133.149 88.1879 131.947 88.5896 130.742 89.0965C129.527 89.6012 128.356 90.2014 127.245 90.8905C126.685 91.2292 126.126 91.5679 125.592 91.9476C125.052 92.3108 124.51 92.6836 123.997 93.083C121.911 94.6481 119.966 96.3856 118.148 98.2423C116.33 100.099 114.63 102.073 113.057 104.14C111.473 106.215 110.044 108.366 108.742 110.685C107.474 113.058 106.662 115.613 106.038 118.145C105.408 120.685 104.939 123.226 104.337 125.702C103.083 130.653 101.542 135.57 99.3162 140.142C98.758 141.283 98.1548 142.403 97.5052 143.487C96.8602 144.573 96.1364 145.636 95.4361 146.704C94.0178 148.831 92.5525 150.948 91.2294 153.183C89.9 155.4 88.7489 157.774 88.0081 160.299L87.8632 160.771L87.7511 161.25L87.527 162.208C87.4186 162.854 87.2999 163.503 87.229 164.157C87.1874 164.813 87.0921 165.467 87.1042 166.125L87.0809 168.055C86.9579 170.567 85.9789 172.964 85.1967 175.43C84.8093 176.669 84.4768 177.95 84.3321 179.274C84.1958 180.604 84.2914 181.93 84.4631 183.224C84.6301 184.516 84.8559 185.786 84.98 187.048C85.1098 188.307 85.0802 189.575 84.9468 190.846C84.6867 193.378 83.8674 195.81 82.834 198.14C81.7818 200.465 80.5312 202.705 79.2163 204.901C77.9051 207.102 76.4904 209.236 75.15 211.436C73.8096 213.636 74.1683 213.516 73.6347 212.425C73.0081 211.145 71.9089 211.182 71.3498 211.04C69.7912 210.779 69.4706 210.803 68.6758 210.338L67.2532 209.466C67.2532 209.466 67.1277 209.395 67.1338 209.278C67.1373 209.212 67.1563 209.116 67.1636 209.05C67.1857 208.851 67.1901 208.814 67.2101 208.624C67.2348 208.39 67.2409 208.232 67.2483 207.969C67.2544 207.749 67.2377 207.985 67.3017 206.372C67.3693 204.764 67.3796 203.149 67.2522 201.533C67.1295 199.918 66.8265 198.318 66.3917 196.76C65.9615 195.202 65.4034 193.692 64.8061 192.203C64.2156 190.705 63.5289 189.267 63.0213 187.772C62.4986 186.28 62.104 184.74 61.823 183.176C61.542 181.611 61.3745 180.022 61.193 178.429C60.8451 175.242 60.3375 172.019 59.1913 168.976L58.9589 168.405C58.8868 168.213 58.8044 168.023 58.699 167.848L58.1057 166.778C57.894 166.434 57.6479 166.112 57.4199 165.774C57.3021 165.611 57.192 165.435 57.0627 165.281L56.6748 164.816C55.6587 163.561 54.4757 162.465 53.2403 161.453C52.0117 160.433 50.7 159.525 49.3485 158.689C47.9969 157.853 46.6169 157.081 45.1605 156.413L45.3461 156.858C47.0143 152.292 48.8466 147.788 50.8135 143.344C52.7877 138.911 54.8392 134.486 57.1477 130.24C59.496 126.037 62.3358 122.09 65.9159 119.055C69.4828 116.012 73.7644 114 78.3012 113.028C80.5629 112.55 82.8801 112.297 85.1772 112.437C86.3295 112.477 87.4611 112.685 88.5854 112.926C89.135 113.094 89.7005 113.21 90.2331 113.435L91.0386 113.741L91.8203 114.112C92.0861 114.227 92.3363 114.368 92.5844 114.52L93.332 114.959L94.0359 115.464L94.3908 115.714L94.7129 116.003L95.3582 116.575C95.5611 116.777 95.7438 117.004 95.9343 117.218C96.3429 117.632 96.6215 118.148 96.9536 118.62C97.0963 118.874 97.2171 119.138 97.3483 119.399L97.5451 119.79L97.6935 120.201C97.7867 120.479 97.896 120.751 97.9788 121.031L98.1741 121.891C98.3698 123.049 98.4405 124.239 98.2729 125.416C98.2399 126.008 98.0687 126.58 97.9549 127.159C97.7613 127.72 97.6277 128.3 97.375 128.839C96.9559 129.949 96.332 130.959 95.6674 131.929C95.2993 132.386 94.9636 132.876 94.5463 133.287C94.3437 133.498 94.1541 133.718 93.9384 133.922L93.2819 134.531C92.8542 134.945 92.3941 135.326 91.9433 135.709C91.4952 136.103 91.0204 136.46 90.5493 136.824C86.7587 139.716 82.4969 141.889 78.1815 143.898C76.019 144.902 73.8283 145.854 71.6334 146.825L65.0823 149.766C60.7422 151.73 56.3563 153.562 51.8146 154.649C49.5453 155.185 47.2558 155.586 44.9459 155.69C42.666 155.861 40.4339 155.509 38.259 154.796C36.0925 154.09 34.0149 153.037 32.1481 151.688C30.286 150.339 28.6063 148.689 27.4164 146.75C26.8298 145.788 26.3748 144.739 26.1898 143.669C25.9886 142.606 26.1169 141.521 26.4741 140.447C26.8219 139.371 27.3774 138.336 27.9992 137.335C28.622 136.331 29.3169 135.357 30.0269 134.382C31.4385 132.424 32.9497 130.484 34.0809 128.227C34.6313 127.1 35.1127 125.882 35.248 124.557C35.3235 123.903 35.3249 123.228 35.1756 122.545C35.0346 121.868 34.7205 121.173 34.1902 120.662C33.6655 120.146 32.9789 119.837 32.3065 119.737C31.6315 119.627 30.9622 119.674 30.3271 119.814C29.0596 120.105 27.8656 120.721 26.9587 121.743C26.5152 122.253 26.1493 122.907 26.0448 123.65C25.9488 124.4 26.174 125.166 26.5513 125.749C26.9162 126.344 27.507 126.849 28.1455 127.108C28.7856 127.382 29.4511 127.445 30.0883 127.456C31.3703 127.465 32.5804 127.166 33.7519 126.818C34.9206 126.459 36.0515 126.001 37.1557 125.507C39.3624 124.503 41.4748 123.342 43.5351 122.033C43.7562 121.896 44.3073 121.491 44.1689 121.263C44.1003 121.147 43.6764 121.045 43.5543 121.018L43.34 120.97C41.9313 120.656 40.5876 120.423 39.2324 119.903C38.5543 119.646 37.887 119.361 37.2286 119.058C36.5785 118.761 35.9709 118.404 35.3841 117.995C34.201 117.177 33.1392 116.159 31.9229 115.242C31.3104 114.793 30.6651 114.381 29.9675 114.054C29.2792 113.729 28.5108 113.457 27.6803 113.453C27.2674 113.451 26.8239 113.523 26.4211 113.751C26.0147 113.972 25.6918 114.379 25.5409 114.809C25.3807 115.237 25.3541 115.684 25.3783 116.078C25.3864 116.478 25.4342 116.877 25.5215 117.274C25.6193 117.669 25.7452 118.07 25.9717 118.438C26.1784 118.807 26.5002 119.166 26.9731 119.347C27.0844 119.402 27.2132 119.421 27.3441 119.43C27.4072 119.434 27.475 119.439 27.5391 119.438L27.7293 119.4L27.9168 119.351C27.972 119.323 28.0272 119.295 28.0834 119.262C28.19 119.201 28.3061 119.141 28.3793 119.051C28.7469 118.735 28.9113 118.334 29.0764 117.952C29.143 117.755 29.1898 117.559 29.246 117.365C29.2881 117.168 29.3103 116.971 29.3431 116.772C29.397 116.381 29.425 116.019 29.4655 115.645L29.7062 113.411L30.1887 108.938C30.2291 108.564 30.2602 108.188 30.3351 107.837C30.3923 107.477 30.4636 107.12 30.5537 106.767C30.7161 106.052 30.9338 105.355 31.2168 104.698C31.4951 104.039 31.8454 103.412 32.2957 102.893C32.745 102.378 33.2952 101.967 33.9083 101.791C34.5204 101.621 35.1869 101.679 35.752 101.981C36.3202 102.27 36.776 102.785 36.974 103.378C37.1814 103.974 37.0798 104.611 36.7261 105.162C36.5628 105.443 36.3383 105.665 36.0955 105.858C35.8296 106.02 35.549 106.159 35.2322 106.214C34.5992 106.345 33.9019 106.27 33.2298 106.1C32.553 105.928 31.8863 105.664 31.244 105.354C29.9588 104.714 28.7454 103.899 27.6131 102.981C26.4864 102.059 25.4247 101.04 24.5262 99.9023C24.0817 99.3343 23.6699 98.7283 23.3831 98.0897C23.2397 97.7704 23.1379 97.4403 23.116 97.128C23.1025 96.8226 23.1687 96.4897 23.2995 96.1762C23.5633 95.5397 23.9773 94.9367 24.4405 94.38C24.9038 93.8233 25.4156 93.2925 25.942 92.7852C26.9996 91.7716 28.1362 90.8261 29.2837 89.8981C30.4287 88.9595 31.6203 88.1019 32.7221 87.0427L34.2792 85.4403C34.8015 84.9068 35.2865 84.3399 35.792 83.7926C37.7814 81.5711 39.6385 79.2091 41.2468 76.6757C41.6603 76.0524 42.0403 75.4015 42.4156 74.7496C42.8086 74.1066 43.1437 73.4356 43.5096 72.7816C43.6842 72.4477 43.8802 72.1286 44.0595 71.7957C44.2388 71.4629 44.4171 71.1348 44.6094 70.8099C44.9988 70.1611 45.3527 69.4943 45.7112 68.8285C46.0792 68.1648 46.4106 67.488 46.7159 66.7952C47.0249 66.1083 47.3078 65.4055 47.5577 64.6953C48.0858 63.2812 48.5529 61.8536 48.9881 60.4137C49.8717 57.542 50.595 54.6143 51.4848 51.7592C51.7244 51.0517 51.9452 50.34 52.1978 49.6405C52.4645 48.9442 52.8388 48.2971 53.1681 47.6298C53.4834 46.9594 53.8128 46.2922 54.1495 45.6367C54.4919 44.9774 54.8025 44.306 55.1747 43.6684C56.5768 41.0638 58.2209 38.5937 60.1007 36.3326C61.9774 34.0859 64.0762 31.9744 66.4289 30.333C68.8721 28.6361 71.2852 26.988 73.7973 25.4526C76.2989 23.92 78.8582 22.486 81.5017 21.2571C84.1467 20.0438 86.8757 18.9903 89.6908 18.455C91.0956 18.1892 92.5179 18.0483 93.9155 18.1388C95.3141 18.2244 96.6859 18.551 97.9033 19.1857C98.2 19.3629 98.492 19.539 98.782 19.7247C99.046 19.9399 99.3386 20.1363 99.5845 20.3676C99.8178 20.6112 100.081 20.8312 100.277 21.1118C100.381 21.246 100.491 21.3764 100.594 21.5153L100.869 21.9547C101.606 23.1372 102.051 24.5318 102.393 25.9487C103.085 28.7895 103.286 31.8378 104.118 34.7853C104.879 37.6968 105.724 40.5818 106.603 43.449L107.935 47.7428L108.603 49.8878C108.824 50.6073 109.071 51.3176 109.225 52.0021C109.545 53.4041 109.669 54.878 109.639 56.3279C109.592 57.7737 109.384 59.2291 108.872 60.5459C108.366 61.8542 107.548 63.0371 106.382 63.7088C105.802 64.0481 105.168 64.2793 104.496 64.4064C103.821 64.5026 103.13 64.5599 102.433 64.4848C101.739 64.4406 101.041 64.2998 100.352 64.136C99.6671 63.9578 98.9855 63.74 98.2757 63.5159C96.8722 63.0613 95.4558 62.6442 94.0255 62.2692C91.1696 61.5204 88.262 60.9214 85.3292 60.5787C82.3958 60.2158 79.448 60.0815 76.5217 59.962C75.0586 59.9023 73.5964 59.8378 72.1384 59.754C70.6881 59.6568 69.2498 59.5271 67.838 59.2268C66.4288 58.9373 65.0395 58.5312 63.7326 57.947C63.0758 57.6591 62.4511 57.313 61.8554 56.9229C61.5581 56.7255 61.2732 56.5157 61.0066 56.2899C60.7379 56.0736 60.4747 55.8082 60.2873 55.5799L60.0654 56.251C62.7411 55.493 65.5748 55.3549 68.372 55.5262C71.1729 55.7033 73.9638 56.1805 76.6981 56.8769C78.0678 57.2131 79.4211 57.6263 80.7635 58.0672C81.4337 58.2925 82.0972 58.5264 82.7508 58.7832C83.0682 58.9096 83.4174 59.0481 83.6838 59.1831C83.946 59.3375 84.198 59.5399 84.3974 59.781C84.8067 60.2605 85.0054 60.8743 84.8613 61.457C84.735 62.0486 84.3061 62.5827 83.8082 63.0259C82.7913 63.9175 81.4977 64.5155 80.2054 65.0382C78.9011 65.5482 77.5452 65.9307 76.1743 66.3149C74.809 66.6953 73.4395 67.0496 72.0595 67.3612C69.3077 67.9913 66.5069 68.4592 63.714 68.6367C63.0186 68.6678 62.3179 68.6776 61.643 68.6125C61.3061 68.5776 60.9723 68.5282 60.6665 68.4398C60.3596 68.3561 60.0745 68.2168 59.9379 68.0502C59.8096 67.8906 59.8002 67.7272 59.9122 67.4095C60.0264 67.0823 60.1442 66.7608 60.3012 66.4633C60.6021 65.8602 61.0211 65.3491 61.5608 65.0564C62.1005 64.7637 62.753 64.7029 63.4061 64.7782C64.0601 64.8487 64.7276 65.0633 65.3894 65.2817C66.7053 65.7318 67.9779 66.3386 69.2085 67.0267C70.4335 67.7186 71.6544 68.4751 72.802 69.2757C73.9596 70.0987 75.1396 70.9318 76.2275 71.8047C76.2897 71.8589 76.3567 71.9142 76.4058 71.9605C76.4225 71.9743 76.4335 71.9918 76.4335 71.9918L76.4456 72.0046C76.4456 72.0046 76.4262 71.9801 76.4189 71.9684C76.451 72.0713 76.2752 71.7196 76.4559 71.5181L76.4367 71.539L76.3973 71.5856C76.3017 71.7104 76.1895 71.8214 76.0726 71.9314C75.8387 72.1513 75.5677 72.3377 75.2763 72.5044C74.6981 72.8389 74.0582 73.0941 73.4004 73.2949C72.0837 73.7013 70.6923 73.9045 69.3017 74.0122C66.5147 74.2312 63.684 74.1936 60.9143 73.8017C60.2231 73.6977 59.536 73.5745 58.8686 73.4053C58.2117 73.2333 57.5222 73.0289 57.0321 72.6977C56.9166 72.6165 56.8334 72.5223 56.8134 72.4775C56.8008 72.4445 56.792 72.4627 56.8465 72.369C56.8698 72.3288 56.9233 72.2854 56.9675 72.2398L57.148 72.1088C57.2655 72.0191 57.4128 71.9512 57.5508 71.8812C58.1359 71.629 58.8175 71.5242 59.4952 71.4841C60.8682 71.4128 62.2718 71.5902 63.6496 71.8426C65.0321 72.0959 66.4055 72.438 67.7649 72.8223C68.446 73.0197 69.1203 73.2258 69.7915 73.4463L70.291 73.6183C70.4428 73.6673 70.611 73.7553 70.7692 73.8209L71.7347 74.2532C72.9985 74.8782 74.2287 75.5914 75.3613 76.4391C76.4939 77.2867 77.528 78.2736 78.3613 79.4173C79.1946 80.5609 79.8537 81.8521 80.1603 83.251C80.8342 86.0171 80.2871 89.0647 78.928 91.4674L78.9125 91.4941C78.8083 91.6825 78.8711 91.9183 79.0503 92.0239C79.2295 92.1294 79.4644 92.066 79.5675 91.8824L79.5774 91.8594L79.579 91.8749Z" fill="#CBE2D1"/>
<path d="M79.579 91.8749C80.2386 90.4902 80.5983 89.0587 80.7946 87.5856C80.8876 86.8504 80.8987 86.1071 80.8654 85.3639C80.8312 84.6255 80.7281 83.8868 80.5369 83.1689C80.1839 81.7344 79.522 80.3871 78.6744 79.1949C77.8211 78.0065 76.7661 76.9797 75.6152 76.1027C74.4642 75.2258 73.2193 74.4891 71.9372 73.8348L70.958 73.3742C70.6384 73.2121 70.2824 73.0822 69.9525 72.9682C69.2797 72.7322 68.6001 72.5049 67.9164 72.2967C66.5501 71.8756 65.1688 71.5015 63.7633 71.2178C62.3557 70.9438 60.9274 70.7205 59.4589 70.7553C58.7249 70.7828 57.9775 70.8729 57.2455 71.168C57.0648 71.2536 56.8805 71.3334 56.7125 71.4521L56.4577 71.6321C56.3724 71.7088 56.2871 71.7855 56.2051 71.8931C56.1241 71.996 56.0511 72.1309 56.0152 72.2992C55.9792 72.4676 55.9986 72.6533 56.0601 72.8031C56.1841 73.0979 56.3718 73.2558 56.5402 73.3891C57.2341 73.8717 57.935 74.0686 58.6442 74.2723C59.3518 74.4606 60.0613 74.5939 60.7749 74.708C62.1985 74.9302 63.6295 75.0482 65.0655 75.0969C66.4979 75.1396 67.9415 75.1295 69.3716 74.9752C70.8018 74.8209 72.2342 74.5866 73.64 74.1547C74.3415 73.9334 75.0345 73.6599 75.6881 73.2717C76.0149 73.0776 76.3327 72.8563 76.6222 72.5833C76.7641 72.4487 76.908 72.3044 77.0305 72.1453L77.0778 72.0853L77.1037 72.0559C77.2839 71.8341 77.1085 71.4572 77.1249 71.5415C77.1066 71.5122 77.0799 71.476 77.0605 71.4515L77.0244 71.4132C77.0004 71.3877 76.9763 71.3622 76.9596 71.3484C76.878 71.2697 76.8063 71.2133 76.7357 71.1522C75.5826 70.2395 74.4172 69.4299 73.2409 68.6027C72.039 67.7799 70.8243 67.0399 69.5639 66.33C68.3014 65.6297 66.9943 65.0001 65.6184 64.5315C64.9331 64.3079 64.2384 64.0822 63.4754 63.9924C62.7264 63.9057 61.9023 63.9635 61.1779 64.3611C60.4545 64.7539 59.9338 65.4187 59.5946 66.1089C59.4132 66.4514 59.2778 66.8092 59.1565 67.1702C59.0914 67.3371 59.0292 67.6054 59.0399 67.8547C59.0523 68.1195 59.1663 68.3919 59.327 68.584C59.6625 68.9714 60.0702 69.1129 60.4397 69.2257C60.8149 69.3347 61.1873 69.3876 61.5535 69.424C62.2914 69.4931 63.0166 69.4838 63.7365 69.4531C66.6087 69.2732 69.4267 68.7939 72.2144 68.1567C73.6059 67.8376 74.9868 67.4758 76.3614 67.0975C77.7324 66.7133 79.1148 66.3216 80.4618 65.796C81.7979 65.2528 83.1462 64.6519 84.2961 63.6438C84.8565 63.1391 85.3955 62.5035 85.5903 61.6601C85.689 61.2437 85.6761 60.7973 85.5579 60.3829C85.4387 59.9733 85.2217 59.6073 84.9631 59.2976C84.7055 58.983 84.3903 58.7312 84.0356 58.526C83.6674 58.3379 83.349 58.2164 83.0091 58.08C82.3377 57.8141 81.6649 57.5782 80.9853 57.3508C79.6251 56.9008 78.2567 56.4893 76.8703 56.1393C74.1015 55.4201 71.2704 54.9238 68.4095 54.7282C65.5513 54.5433 62.6367 54.6684 59.8239 55.4461L59.8098 55.443C59.589 55.5096 59.4615 55.7381 59.5217 55.9632C59.5386 56.0224 59.5669 56.0741 59.6009 56.122C59.8852 56.4728 60.1504 56.7285 60.4552 56.9831C60.7506 57.2355 61.0605 57.466 61.3793 57.6783C62.0168 58.1029 62.6807 58.473 63.373 58.7788C64.7499 59.4039 66.1935 59.8321 67.6533 60.1381C69.11 60.4584 70.6001 60.5997 72.0738 60.7021C73.5402 60.7928 75.006 60.8632 76.4718 60.9336C79.3997 61.0685 82.3162 61.211 85.2032 61.5837C88.0944 61.9372 90.9482 62.5343 93.7635 63.2892C95.174 63.6647 96.5696 64.0873 97.959 64.5388C98.6453 64.7576 99.3672 64.9944 100.098 65.1879C100.832 65.367 101.582 65.5194 102.348 65.5745C103.112 65.6595 103.895 65.6077 104.667 65.4929C105.44 65.3531 106.207 65.0808 106.898 64.6759C108.315 63.8686 109.283 62.4469 109.855 60.9873C110.432 59.5084 110.652 57.945 110.712 56.3962C110.752 54.848 110.625 53.3026 110.285 51.7804C110.108 50.9999 109.86 50.2944 109.648 49.5819L108.985 47.4331L107.667 43.1424C106.802 40.2783 105.969 37.4061 105.223 34.5181C104.426 31.6842 104.244 28.6854 103.53 25.6937C103.173 24.2079 102.708 22.6981 101.872 21.3371L101.556 20.8332C101.438 20.6708 101.309 20.516 101.19 20.3584C100.96 20.0298 100.653 19.7646 100.37 19.4747C100.079 19.2031 99.7529 18.979 99.4471 18.7293C99.119 18.5149 98.7784 18.3128 98.4367 18.1156C97.037 17.3897 95.4931 17.0398 93.9673 16.9509C92.4368 16.8611 90.9227 17.0167 89.4498 17.3026C86.4924 17.8817 83.7005 18.9765 81.004 20.2237C78.3137 21.4875 75.7191 22.9489 73.1998 24.5179C70.6863 26.0831 68.2316 27.7875 65.8327 29.4842C63.3506 31.2479 61.2499 33.4144 59.3333 35.7328C55.5043 40.3958 52.766 45.8719 50.7803 51.5564C48.8457 57.2322 47.0676 62.9581 44.7235 68.4315C43.5501 71.1629 42.2102 73.8218 40.6289 76.3209C39.0512 78.8259 37.2425 81.1685 35.277 83.3702C34.7773 83.9137 34.2943 84.471 33.7778 85.0007L32.2294 86.585C31.2025 87.5701 29.9859 88.4524 28.842 89.3863C27.684 90.3169 26.5324 91.2641 25.4451 92.3013C24.9015 92.8199 24.3725 93.3619 23.8833 93.9481C23.3942 94.5343 22.938 95.1732 22.6183 95.9333C22.4637 96.312 22.3619 96.7428 22.3775 97.1999C22.4035 97.6542 22.5352 98.0515 22.6986 98.4156C23.0242 99.1485 23.4628 99.7907 23.9293 100.394C24.8729 101.597 25.9623 102.647 27.1214 103.601C28.2862 104.552 29.5319 105.4 30.8835 106.075C31.5671 106.399 32.2652 106.701 33.0083 106.907C33.7477 107.107 34.5479 107.231 35.367 107.081C35.7792 107.017 36.1811 106.84 36.5536 106.615C36.7211 106.476 36.9052 106.351 37.0485 106.187C37.1825 106.02 37.3483 105.866 37.4478 105.676C37.6802 105.325 37.8639 104.902 37.9369 104.445C38.0136 103.993 37.9474 103.52 37.8057 103.1C37.2077 101.384 35.3308 100.451 33.6184 100.845C32.7645 101.042 32.0281 101.588 31.5078 102.228C30.9724 102.869 30.5968 103.592 30.3031 104.322C29.999 105.056 29.7935 105.811 29.6464 106.569C29.5663 106.944 29.4993 107.328 29.451 107.715C29.383 108.103 29.367 108.477 29.337 108.849C29.2184 110.349 29.1149 111.848 28.9682 113.342L28.7604 115.584C28.6737 116.335 28.6428 117.079 28.4072 117.722C28.2774 118.031 28.1351 118.352 27.9094 118.533C27.6911 118.726 27.4411 118.791 27.191 118.695C26.9446 118.605 26.7035 118.375 26.5492 118.083C26.3721 117.807 26.2677 117.466 26.1821 117.129C26.1127 116.786 26.0651 116.433 26.0582 116.074C26.0361 115.716 26.0637 115.379 26.1774 115.077C26.2854 114.779 26.4743 114.539 26.7418 114.392C27.0057 114.239 27.3329 114.181 27.6629 114.179C28.336 114.184 29.0109 114.41 29.6589 114.716C30.3023 115.021 30.9178 115.41 31.5005 115.838C32.664 116.702 33.7451 117.745 34.9794 118.6C35.5961 119.031 36.2475 119.413 36.9284 119.726C37.5999 120.037 38.2813 120.326 38.9772 120.592C40.3595 121.123 42.3963 121.231 43.8426 121.555L43.6824 121.343C41.6726 122.623 39.0293 123.874 36.8579 124.851C35.7709 125.334 34.6639 125.772 33.5321 126.119C32.4034 126.451 31.238 126.725 30.0852 126.709C29.5122 126.697 28.9296 126.638 28.4169 126.412C27.8974 126.196 27.4739 125.829 27.173 125.348C26.8711 124.873 26.7149 124.314 26.783 123.765C26.8604 123.217 27.1428 122.701 27.5142 122.275C28.2731 121.416 29.3577 120.852 30.4689 120.602C31.0311 120.48 31.6087 120.448 32.1596 120.541C32.7115 120.629 33.2352 120.872 33.6244 121.261C34.0193 121.647 34.2609 122.174 34.3775 122.735C34.4987 123.296 34.4987 123.895 34.4281 124.479C34.367 125.065 34.2287 125.644 34.034 126.211C33.8497 126.774 33.5997 127.323 33.333 127.858C32.2333 129.991 30.7255 131.892 29.2868 133.838C28.5674 134.812 27.8413 135.793 27.1878 136.827C26.5343 137.86 25.929 138.944 25.519 140.128C25.1016 141.299 24.9204 142.61 25.1341 143.867C25.3338 145.121 25.8263 146.294 26.4497 147.361C27.7154 149.498 29.4731 151.266 31.4201 152.724C33.3727 154.178 35.5419 155.333 37.8364 156.108C40.1262 156.881 42.58 157.278 44.9965 157.112C47.4054 157.005 49.7926 156.632 52.1295 156.055C56.8091 154.898 61.2537 152.998 65.6041 150.986L72.11 147.934C74.2828 146.928 76.463 145.933 78.6243 144.889C82.9421 142.8 87.2144 140.508 91.0574 137.532C91.5363 137.155 92.0178 136.789 92.4727 136.386C92.9359 135.991 93.3981 135.6 93.8336 135.173L94.4989 134.546C94.7166 134.333 94.9197 134.096 95.1348 133.872C95.5734 133.43 95.9236 132.919 96.3083 132.43C97.004 131.407 97.6516 130.332 98.0888 129.159C98.3523 128.593 98.4894 127.974 98.6892 127.383C98.8055 126.769 98.9839 126.164 99.0251 125.533C99.3552 123.042 98.885 120.427 97.6629 118.224C97.3119 117.702 97.018 117.143 96.5895 116.684C96.3843 116.447 96.1963 116.198 95.9787 115.973L95.2977 115.337L94.9573 115.019L94.5888 114.741L93.8518 114.183L93.0702 113.696C92.811 113.527 92.5488 113.373 92.271 113.245L91.4495 112.83L90.5985 112.484C90.0372 112.232 89.4419 112.094 88.8635 111.899C87.6806 111.61 86.4828 111.368 85.2745 111.289C82.8562 111.072 80.4253 111.305 78.0572 111.774C75.6897 112.263 73.3795 113.037 71.1944 114.101C69.0139 115.166 66.9695 116.539 65.147 118.163C61.4895 121.423 58.7181 125.556 56.4275 129.857C54.174 134.192 52.1172 138.595 50.1425 143.053C48.1772 147.512 46.3456 152.037 44.6779 156.623C44.6077 156.814 44.6944 157.03 44.8787 157.111C46.2771 157.751 47.6571 158.523 48.9836 159.338C50.309 160.159 51.5993 161.052 52.8038 162.046C54.0104 163.031 55.1646 164.101 56.1468 165.308L56.5236 165.755C56.6492 165.904 56.751 166.073 56.8652 166.229C57.0821 166.55 57.3208 166.86 57.5263 167.188L58.0922 168.202C58.195 168.366 58.2701 168.544 58.3396 168.726L58.5593 169.263L58.779 169.801L58.9529 170.369C59.0642 170.747 59.1953 171.124 59.2904 171.508L59.5862 172.658L59.8403 173.818C60.1526 175.374 60.357 176.952 60.5396 178.54C60.7221 180.128 60.8959 181.734 61.1848 183.331C61.4691 184.926 61.88 186.505 62.4153 188.03C62.6686 188.802 62.998 189.541 63.2961 190.288C63.6124 191.019 63.924 191.749 64.2184 192.49C64.8141 193.963 65.3623 195.451 65.7855 196.972C66.2087 198.493 66.5069 200.046 66.6284 201.62C66.7593 203.197 66.7495 204.787 66.6849 206.38C66.6261 207.97 66.6751 206.587 66.6299 208.205C66.6099 208.92 66.6862 209.824 66.6862 209.824C66.6862 209.824 67.8065 210.973 69.6879 211.498C72.1601 212.189 72.7357 211.434 73.8512 214.398C76.738 210.792 71.9648 215.727 82.9465 211.96L87.9884 209.53L89.6163 208.672C89.6722 207.687 88.3035 208.599 87.1061 209.212C84.5697 210.51 85.1737 210.285 82.0931 211.605C80.9737 211.987 74.4006 214.025 75.7322 211.843C78.4289 207.507 81.3274 203.215 83.4795 198.48C84.5363 196.111 85.3928 193.596 85.6641 190.965C85.8046 189.661 85.8325 188.332 85.7046 187.019C85.5803 185.711 85.3508 184.435 85.1938 183.165C85.0311 181.899 84.9419 180.634 85.0739 179.394C85.2116 178.15 85.5281 176.92 85.9104 175.705C86.6786 173.282 87.6955 170.823 87.8413 168.134L87.8724 166.191C87.8609 165.553 87.9605 164.925 88.0016 164.294C88.072 163.665 88.1904 163.041 88.2993 162.416L88.521 161.492L88.6299 161.028L88.7708 160.576C89.5014 158.144 90.6257 155.85 91.9469 153.67C93.2597 151.484 94.7256 149.388 96.1637 147.26C96.8791 146.19 97.6019 145.132 98.2812 144.023C98.9548 142.919 99.5855 141.785 100.168 140.625C102.487 135.982 104.104 131.032 105.429 126.026C106.069 123.509 106.565 120.979 107.208 118.497C107.845 116.018 108.656 113.579 109.867 111.365C112.414 106.97 115.57 102.898 119.121 99.2861C122.686 95.698 126.715 92.4957 131.29 90.4688C133.593 89.4763 135.969 88.601 138.391 88.0385C139.604 87.7751 140.838 87.5719 142.052 87.5963C143.266 87.6053 144.482 87.8519 145.461 88.4988C146.457 89.1345 147.087 90.2176 147.438 91.3845C147.765 92.5713 147.859 93.8371 147.821 95.0985C147.772 96.3627 147.621 97.6241 147.348 98.8582C147.075 100.092 146.657 101.289 146.141 102.439C145.121 104.751 143.613 106.813 141.878 108.628C140.125 110.433 138.103 111.952 135.998 113.357C133.896 114.767 131.727 116.102 129.647 117.597C128.606 118.348 127.591 119.139 126.627 119.992C125.653 120.843 124.757 121.792 123.901 122.734C123.041 123.676 122.19 124.62 121.254 125.434C120.323 126.244 119.278 126.923 118.131 127.155C116.985 127.408 115.794 127.067 114.741 126.489C113.68 125.884 112.726 125.096 112.209 124.018C111.123 121.891 112.143 118.954 114.173 117.835C114.673 117.564 115.232 117.437 115.77 117.521C116.299 117.599 116.818 117.887 117.143 118.302C117.476 118.724 117.644 119.296 117.694 119.891C117.749 120.488 117.709 121.114 117.626 121.731C117.252 124.222 116.372 126.662 115.553 129.094C115.136 130.311 114.713 131.532 114.325 132.771C113.939 134.05 113.799 135.465 114.111 136.795C114.391 138.133 115.017 139.326 115.66 140.442C116.306 141.564 117.017 142.635 117.549 143.761C118.088 144.875 118.423 146.094 118.615 147.341C118.8 148.592 118.862 149.87 118.903 151.154C118.986 153.713 118.93 156.372 119.671 158.941C120.037 160.202 120.59 161.479 121.461 162.495C122.308 163.526 123.343 164.372 124.454 165.044C126.684 166.398 129.15 167.196 131.622 167.789C134.103 168.378 136.618 168.743 139.131 169.023L142.9 169.416C144.168 169.533 145.463 169.6 146.739 169.497C148.018 169.405 149.288 169.24 150.534 168.959C151.785 168.699 153.017 168.344 154.226 167.934C156.646 167.109 158.979 166.043 161.205 164.786C163.435 163.536 165.57 162.108 167.586 160.522C169.606 158.942 171.511 157.206 173.263 155.314C175.023 153.429 176.613 151.376 177.975 149.165C178.641 148.049 179.26 146.902 179.783 145.699C180.294 144.502 180.75 143.284 181.152 142.048C181.545 140.806 181.883 139.546 182.164 138.273C182.432 136.997 182.643 135.709 182.787 134.411C182.917 133.11 182.984 131.804 182.978 130.497C182.957 129.188 182.862 127.881 182.692 126.583C182.295 123.995 181.689 121.486 181.104 118.972C179.91 113.963 178.737 108.923 178.854 103.789C178.909 98.6459 179.449 93.5104 180.311 88.4365C180.74 85.8967 181.244 83.3736 181.81 80.8594L182.684 77.0884C182.979 75.819 183.181 74.5286 183.349 73.2356C183.631 70.6429 183.678 68.0026 183.293 65.4068L183.141 64.4356C183.082 64.1149 183.007 63.7958 182.938 63.4731C182.816 62.8258 182.613 62.2061 182.439 61.5724C182.03 60.3272 181.57 59.0955 180.945 57.943C180.364 56.7701 179.627 55.6832 178.851 54.6381C178.07 53.6219 177.276 52.6132 176.476 51.613C174.876 49.6128 173.23 47.6474 171.575 45.6954C169.926 43.7397 168.263 41.8059 166.684 39.8002C165.887 38.8059 165.132 37.7805 164.384 36.7465C163.642 35.704 162.966 34.651 162.234 33.5652C160.763 31.4223 158.996 29.4906 156.973 27.8797C154.956 26.2651 152.702 24.9804 150.348 23.9759C150.154 23.8923 149.932 23.9888 149.851 24.1824C149.77 24.3809 149.864 24.6085 150.053 24.691C152.361 25.6551 154.562 26.8925 156.537 28.4475C158.514 29.9977 160.25 31.8671 161.699 33.9497C162.412 34.9907 163.116 36.0954 163.858 37.1331C164.615 38.174 165.379 39.2064 166.179 40.2065C167.771 42.2201 169.438 44.1598 171.093 46.1118C172.748 48.0589 174.392 50.0136 175.989 52.008C177.566 54.0233 179.259 55.9538 180.392 58.2278C180.995 59.3451 181.448 60.5448 181.849 61.7532C182.017 62.3704 182.218 62.9746 182.334 63.6053C182.4 63.9174 182.477 64.2268 182.533 64.5416L182.679 65.4916C183.059 68.0255 183.018 70.6118 182.745 73.1612C182.47 75.7153 181.773 78.1954 181.205 80.7193C180.629 83.2362 180.121 85.7737 179.68 88.3259C178.804 93.4217 178.247 98.5888 178.177 103.779C178.114 106.38 178.374 108.989 178.788 111.545C179.205 114.108 179.788 116.632 180.363 119.144C180.93 121.654 181.528 124.177 181.881 126.695C182.034 127.958 182.107 129.23 182.116 130.502C182.11 131.775 182.03 133.047 181.888 134.311C181.737 135.572 181.514 136.828 181.244 138.068C180.959 139.309 180.615 140.532 180.22 141.734C179.82 142.94 179.342 144.119 178.831 145.269C178.313 146.408 177.699 147.506 177.04 148.568C174.309 152.786 170.657 156.345 166.647 159.274C164.64 160.746 162.535 162.06 160.352 163.205C158.173 164.356 155.909 165.307 153.597 166.02C151.295 166.755 148.933 167.241 146.594 167.363L145.72 167.405L144.852 167.392C144.56 167.398 144.276 167.37 143.986 167.345C143.691 167.32 143.428 167.311 143.102 167.269L139.356 166.865C136.885 166.596 134.445 166.247 132.083 165.695C129.731 165.144 127.437 164.39 125.503 163.217C124.535 162.638 123.69 161.94 123.025 161.136C122.333 160.347 121.936 159.437 121.599 158.343C120.947 156.192 120.948 153.698 120.852 151.081C120.802 149.77 120.732 148.413 120.512 147.024C120.291 145.639 119.897 144.215 119.234 142.893C118.592 141.591 117.867 140.542 117.235 139.468C116.605 138.41 116.073 137.399 115.856 136.388C115.603 135.384 115.689 134.356 115.983 133.302C116.337 132.106 116.75 130.883 117.149 129.662C117.553 128.437 117.96 127.198 118.325 125.924C118.686 124.649 119.027 123.349 119.208 121.948C119.294 121.247 119.343 120.512 119.26 119.722C119.23 119.333 119.137 118.919 119.005 118.501C118.852 118.084 118.657 117.662 118.349 117.286C118.049 116.917 117.671 116.59 117.267 116.384C116.872 116.16 116.435 116.017 115.987 115.952C115.535 115.877 115.079 115.916 114.649 115.996C114.225 116.093 113.823 116.245 113.461 116.446C112.022 117.264 111.104 118.591 110.624 120.056C110.14 121.515 110.216 123.235 110.933 124.645C111.285 125.349 111.769 125.961 112.322 126.462C112.591 126.719 112.888 126.942 113.181 127.138L114.076 127.691C114.39 127.857 114.73 127.993 115.058 128.142C115.386 128.286 115.766 128.35 116.117 128.454C116.479 128.535 116.866 128.541 117.237 128.578C117.613 128.546 117.994 128.536 118.36 128.456C119.845 128.138 121.05 127.288 122.056 126.399C123.066 125.496 123.925 124.514 124.773 123.559C125.618 122.599 126.45 121.696 127.375 120.865C128.292 120.026 129.265 119.246 130.276 118.499C132.292 117.004 134.447 115.666 136.562 114.218C138.678 112.786 140.758 111.2 142.565 109.305C144.357 107.407 145.913 105.235 146.968 102.805C147.497 101.593 147.924 100.332 148.206 99.0347C148.483 97.7359 148.631 96.4185 148.672 95.0972C148.698 93.7776 148.597 92.4297 148.223 91.1165C148.018 90.4658 147.745 89.8304 147.362 89.251C146.983 88.6726 146.471 88.17 145.897 87.7948C144.735 87.0365 143.374 86.7729 142.072 86.7189C140.757 86.657 139.463 86.7963 138.181 86.9937C136.899 87.1912 135.639 87.4943 134.399 87.8422C133.149 88.1879 131.947 88.5896 130.742 89.0965C129.527 89.6012 128.356 90.2014 127.245 90.8905C126.685 91.2292 126.126 91.5679 125.592 91.9476C125.052 92.3108 124.51 92.6836 123.997 93.083C121.911 94.6481 119.966 96.3856 118.148 98.2423C116.33 100.099 114.63 102.073 113.057 104.14C111.473 106.215 110.044 108.366 108.742 110.685C107.474 113.058 106.662 115.613 106.038 118.145C105.408 120.685 104.939 123.226 104.337 125.702C103.083 130.653 101.542 135.57 99.3162 140.142C98.758 141.283 98.1548 142.403 97.5052 143.487C96.8602 144.573 96.1364 145.636 95.4361 146.704C94.0178 148.831 92.5525 150.948 91.2294 153.183C89.9 155.4 88.7489 157.774 88.0081 160.299L87.8632 160.771L87.7511 161.25L87.527 162.208C87.4186 162.854 87.2999 163.503 87.229 164.157C87.1874 164.813 87.0921 165.467 87.1042 166.125L87.0809 168.055C86.9579 170.567 85.9789 172.964 85.1967 175.43C84.8093 176.669 84.4768 177.95 84.3321 179.274C84.1958 180.604 84.2914 181.93 84.4631 183.224C84.6301 184.516 84.8559 185.786 84.98 187.048C85.1098 188.307 85.0802 189.575 84.9468 190.846C84.6867 193.378 83.8674 195.81 82.834 198.14C81.7818 200.465 80.5312 202.705 79.2163 204.901C77.9051 207.102 76.4904 209.236 75.15 211.436C73.8096 213.636 74.1683 213.516 73.6347 212.425C73.0081 211.145 71.9089 211.182 71.3498 211.04C69.7912 210.779 69.4706 210.803 68.6758 210.338L67.2532 209.466C67.2532 209.466 67.1277 209.395 67.1338 209.278C67.1373 209.212 67.1563 209.116 67.1636 209.05C67.1857 208.851 67.1901 208.814 67.2101 208.624C67.2348 208.39 67.2409 208.232 67.2483 207.969C67.2544 207.749 67.2377 207.985 67.3017 206.372C67.3693 204.764 67.3796 203.149 67.2522 201.533C67.1295 199.918 66.8265 198.318 66.3917 196.76C65.9615 195.202 65.4034 193.692 64.8061 192.203C64.2156 190.705 63.5289 189.267 63.0213 187.772C62.4986 186.28 62.104 184.74 61.823 183.176C61.542 181.611 61.3745 180.022 61.193 178.429C60.8451 175.242 60.3375 172.019 59.1913 168.976L58.9589 168.405C58.8868 168.213 58.8044 168.023 58.699 167.848L58.1057 166.778C57.894 166.434 57.6479 166.112 57.4199 165.774C57.3021 165.611 57.192 165.435 57.0627 165.281L56.6748 164.816C55.6587 163.561 54.4757 162.465 53.2403 161.453C52.0117 160.433 50.7 159.525 49.3485 158.689C47.9969 157.853 46.6169 157.081 45.1605 156.413L45.3461 156.858C47.0143 152.292 48.8466 147.788 50.8135 143.344C52.7877 138.911 54.8392 134.486 57.1477 130.24C59.496 126.037 62.3358 122.09 65.9159 119.055C69.4828 116.012 73.7644 114 78.3012 113.028C80.5629 112.55 82.8801 112.297 85.1772 112.437C86.3295 112.477 87.4611 112.685 88.5854 112.926C89.135 113.094 89.7005 113.21 90.2331 113.435L91.0386 113.741L91.8203 114.112C92.0861 114.227 92.3363 114.368 92.5844 114.52L93.332 114.959L94.0359 115.464L94.3908 115.714L94.7129 116.003L95.3582 116.575C95.5611 116.777 95.7438 117.004 95.9343 117.218C96.3429 117.632 96.6215 118.148 96.9536 118.62C97.0963 118.874 97.2171 119.138 97.3483 119.399L97.5451 119.79L97.6935 120.201C97.7867 120.479 97.896 120.751 97.9788 121.031L98.1741 121.891C98.3698 123.049 98.4405 124.239 98.2729 125.416C98.2399 126.008 98.0687 126.58 97.9549 127.159C97.7613 127.72 97.6277 128.3 97.375 128.839C96.9559 129.949 96.332 130.959 95.6674 131.929C95.2993 132.386 94.9636 132.876 94.5463 133.287C94.3437 133.498 94.1541 133.718 93.9384 133.922L93.2819 134.531C92.8542 134.945 92.3941 135.326 91.9433 135.709C91.4952 136.103 91.0204 136.46 90.5493 136.824C86.7587 139.716 82.4969 141.889 78.1815 143.898C76.019 144.902 73.8283 145.854 71.6334 146.825L65.0823 149.766C60.7422 151.73 56.3563 153.562 51.8146 154.649C49.5453 155.185 47.2558 155.586 44.9459 155.69C42.666 155.861 40.4339 155.509 38.259 154.796C36.0925 154.09 34.0149 153.037 32.1481 151.688C30.286 150.339 28.6063 148.689 27.4164 146.75C26.8298 145.788 26.3748 144.739 26.1898 143.669C25.9886 142.606 26.1169 141.521 26.4741 140.447C26.8219 139.371 27.3774 138.336 27.9992 137.335C28.622 136.331 29.3169 135.357 30.0269 134.382C31.4385 132.424 32.9497 130.484 34.0809 128.227C34.6313 127.1 35.1127 125.882 35.248 124.557C35.3235 123.903 35.3249 123.228 35.1756 122.545C35.0346 121.868 34.7205 121.173 34.1902 120.662C33.6655 120.146 32.9789 119.837 32.3065 119.737C31.6315 119.627 30.9622 119.674 30.3271 119.814C29.0596 120.105 27.8656 120.721 26.9587 121.743C26.5152 122.253 26.1493 122.907 26.0448 123.65C25.9488 124.4 26.174 125.166 26.5513 125.749C26.9162 126.344 27.507 126.849 28.1455 127.108C28.7856 127.382 29.4511 127.445 30.0883 127.456C31.3703 127.465 32.5804 127.166 33.7519 126.818C34.9206 126.459 36.0515 126.001 37.1557 125.507C39.3624 124.503 41.4748 123.342 43.5351 122.033C43.7562 121.896 44.3073 121.491 44.1689 121.263C44.1003 121.147 43.6764 121.045 43.5543 121.018L43.34 120.97C41.9313 120.656 40.5876 120.423 39.2324 119.903C38.5543 119.646 37.887 119.361 37.2286 119.058C36.5785 118.761 35.9709 118.404 35.3841 117.995C34.201 117.177 33.1392 116.159 31.9229 115.242C31.3104 114.793 30.6651 114.381 29.9675 114.054C29.2792 113.729 28.5108 113.457 27.6803 113.453C27.2674 113.451 26.8239 113.523 26.4211 113.751C26.0147 113.972 25.6918 114.379 25.5409 114.809C25.3807 115.237 25.3541 115.684 25.3783 116.078C25.3864 116.478 25.4342 116.877 25.5215 117.274C25.6193 117.669 25.7452 118.07 25.9717 118.438C26.1784 118.807 26.5002 119.166 26.9731 119.347C27.0844 119.402 27.2132 119.421 27.3441 119.43C27.4072 119.434 27.475 119.439 27.5391 119.438L27.7293 119.4L27.9168 119.351C27.972 119.323 28.0272 119.295 28.0834 119.262C28.19 119.201 28.3061 119.141 28.3793 119.051C28.7469 118.735 28.9113 118.334 29.0764 117.952C29.143 117.755 29.1898 117.559 29.246 117.365C29.2881 117.168 29.3103 116.971 29.3431 116.772C29.397 116.381 29.425 116.019 29.4655 115.645L29.7062 113.411L30.1887 108.938C30.2291 108.564 30.2602 108.188 30.3351 107.837C30.3923 107.477 30.4636 107.12 30.5537 106.767C30.7161 106.052 30.9338 105.355 31.2168 104.698C31.4951 104.039 31.8454 103.412 32.2957 102.893C32.745 102.378 33.2952 101.967 33.9083 101.791C34.5204 101.621 35.1869 101.679 35.752 101.981C36.3202 102.27 36.776 102.785 36.974 103.378C37.1814 103.974 37.0798 104.611 36.7261 105.162C36.5628 105.443 36.3383 105.665 36.0955 105.858C35.8296 106.02 35.549 106.159 35.2322 106.214C34.5992 106.345 33.9019 106.27 33.2298 106.1C32.553 105.928 31.8863 105.664 31.244 105.354C29.9588 104.714 28.7454 103.899 27.6131 102.981C26.4864 102.059 25.4247 101.04 24.5262 99.9023C24.0817 99.3343 23.6699 98.7283 23.3831 98.0897C23.2397 97.7704 23.1379 97.4403 23.116 97.128C23.1025 96.8226 23.1687 96.4897 23.2995 96.1762C23.5633 95.5397 23.9773 94.9367 24.4405 94.38C24.9038 93.8233 25.4156 93.2925 25.942 92.7852C26.9996 91.7716 28.1362 90.8261 29.2837 89.8981C30.4287 88.9595 31.6203 88.1019 32.7221 87.0427L34.2792 85.4403C34.8015 84.9068 35.2865 84.3399 35.792 83.7926C37.7814 81.5711 39.6385 79.2091 41.2468 76.6757C41.6603 76.0524 42.0403 75.4015 42.4156 74.7496C42.8086 74.1066 43.1437 73.4356 43.5096 72.7816C43.6842 72.4477 43.8802 72.1286 44.0595 71.7957C44.2388 71.4629 44.4171 71.1348 44.6094 70.8099C44.9988 70.1611 45.3527 69.4943 45.7112 68.8285C46.0792 68.1648 46.4106 67.488 46.7159 66.7952C47.0249 66.1083 47.3078 65.4055 47.5577 64.6953C48.0858 63.2812 48.5529 61.8536 48.9881 60.4137C49.8717 57.542 50.595 54.6143 51.4848 51.7592C51.7244 51.0517 51.9452 50.34 52.1978 49.6405C52.4645 48.9442 52.8388 48.2971 53.1681 47.6298C53.4834 46.9594 53.8128 46.2922 54.1495 45.6367C54.4919 44.9774 54.8025 44.306 55.1747 43.6684C56.5768 41.0638 58.2209 38.5937 60.1007 36.3326C61.9774 34.0859 64.0762 31.9744 66.4289 30.333C68.8721 28.6361 71.2852 26.988 73.7973 25.4526C76.2989 23.92 78.8582 22.486 81.5017 21.2571C84.1467 20.0438 86.8757 18.9903 89.6908 18.455C91.0956 18.1892 92.5179 18.0483 93.9155 18.1388C95.3141 18.2244 96.6859 18.551 97.9033 19.1857C98.2 19.3629 98.492 19.539 98.782 19.7247C99.046 19.9399 99.3386 20.1363 99.5845 20.3676C99.8178 20.6112 100.081 20.8312 100.277 21.1118C100.381 21.246 100.491 21.3764 100.594 21.5153L100.869 21.9547C101.606 23.1372 102.051 24.5318 102.393 25.9487C103.085 28.7895 103.286 31.8378 104.118 34.7853C104.879 37.6968 105.724 40.5818 106.603 43.449L107.935 47.7428L108.603 49.8878C108.824 50.6073 109.071 51.3176 109.225 52.0021C109.545 53.4041 109.669 54.878 109.639 56.3279C109.592 57.7737 109.384 59.2291 108.872 60.5459C108.366 61.8542 107.548 63.0371 106.382 63.7088C105.802 64.0481 105.168 64.2793 104.496 64.4064C103.821 64.5026 103.13 64.5599 102.433 64.4848C101.739 64.4406 101.041 64.2998 100.352 64.136C99.6671 63.9578 98.9855 63.74 98.2757 63.5159C96.8722 63.0613 95.4558 62.6442 94.0255 62.2692C91.1696 61.5204 88.262 60.9214 85.3292 60.5787C82.3958 60.2158 79.448 60.0815 76.5217 59.962C75.0586 59.9023 73.5964 59.8378 72.1384 59.754C70.6881 59.6568 69.2498 59.5271 67.838 59.2268C66.4288 58.9373 65.0395 58.5312 63.7326 57.947C63.0758 57.6591 62.4511 57.313 61.8554 56.9229C61.5581 56.7255 61.2732 56.5157 61.0066 56.2899C60.7379 56.0736 60.4747 55.8082 60.2873 55.5799L60.0654 56.251C62.7411 55.493 65.5748 55.3549 68.372 55.5262C71.1729 55.7033 73.9638 56.1805 76.6981 56.8769C78.0678 57.2131 79.4211 57.6263 80.7635 58.0672C81.4337 58.2925 82.0972 58.5264 82.7508 58.7832C83.0682 58.9096 83.4174 59.0481 83.6838 59.1831C83.946 59.3375 84.198 59.5399 84.3974 59.781C84.8067 60.2605 85.0054 60.8743 84.8613 61.457C84.735 62.0486 84.3061 62.5827 83.8082 63.0259C82.7913 63.9175 81.4977 64.5155 80.2054 65.0382C78.9011 65.5482 77.5452 65.9307 76.1743 66.3149C74.809 66.6953 73.4395 67.0496 72.0595 67.3612C69.3077 67.9913 66.5069 68.4592 63.714 68.6367C63.0186 68.6678 62.3179 68.6776 61.643 68.6125C61.3061 68.5776 60.9723 68.5282 60.6665 68.4398C60.3596 68.3561 60.0745 68.2168 59.9379 68.0502C59.8096 67.8906 59.8002 67.7272 59.9122 67.4095C60.0264 67.0823 60.1442 66.7608 60.3012 66.4633C60.6021 65.8602 61.0211 65.3491 61.5608 65.0564C62.1005 64.7637 62.753 64.7029 63.4061 64.7782C64.0601 64.8487 64.7276 65.0633 65.3894 65.2817C66.7053 65.7318 67.9779 66.3386 69.2085 67.0267C70.4335 67.7186 71.6544 68.4751 72.802 69.2757C73.9596 70.0987 75.1396 70.9318 76.2275 71.8047C76.2897 71.8589 76.3567 71.9142 76.4058 71.9605C76.4225 71.9743 76.4335 71.9918 76.4335 71.9918L76.4456 72.0046C76.4456 72.0046 76.4262 71.9801 76.4189 71.9684C76.451 72.0713 76.2752 71.7196 76.4559 71.5181L76.4367 71.539L76.3973 71.5856C76.3017 71.7104 76.1895 71.8214 76.0726 71.9314C75.8387 72.1513 75.5677 72.3377 75.2763 72.5044C74.6981 72.8389 74.0582 73.0941 73.4004 73.2949C72.0837 73.7013 70.6923 73.9045 69.3017 74.0122C66.5147 74.2312 63.684 74.1936 60.9143 73.8017C60.2231 73.6977 59.536 73.5745 58.8686 73.4053C58.2117 73.2333 57.5222 73.0289 57.0321 72.6977C56.9166 72.6165 56.8334 72.5223 56.8134 72.4775C56.8008 72.4445 56.792 72.4627 56.8465 72.369C56.8698 72.3288 56.9233 72.2854 56.9675 72.2398L57.148 72.1088C57.2655 72.0191 57.4128 71.9512 57.5508 71.8812C58.1359 71.629 58.8175 71.5242 59.4952 71.4841C60.8682 71.4128 62.2718 71.5902 63.6496 71.8426C65.0321 72.0959 66.4055 72.438 67.7649 72.8223C68.446 73.0197 69.1203 73.2258 69.7915 73.4463L70.291 73.6183C70.4428 73.6673 70.611 73.7553 70.7692 73.8209L71.7347 74.2532C72.9985 74.8782 74.2287 75.5914 75.3613 76.4391C76.4939 77.2867 77.528 78.2736 78.3613 79.4173C79.1946 80.5609 79.8537 81.8521 80.1603 83.251C80.8342 86.0171 80.2871 89.0647 78.928 91.4674L78.9125 91.4941C78.8083 91.6825 78.8711 91.9183 79.0503 92.0239C79.2295 92.1294 79.4644 92.066 79.5675 91.8824L79.5774 91.8594L79.579 91.8749Z" stroke="#CBE2D1" stroke-width="0.0955018" mask="url(#path-4-outside-1_18396_32004)"/>
</svg>
