<svg width="36" height="36" viewBox="0 0 36 36" fill="none" xmlns="http://www.w3.org/2000/svg">
<path opacity="0.3" d="M18 33C26.2843 33 33 26.2843 33 18C33 9.71573 26.2843 3 18 3C9.71573 3 3 9.71573 3 18C3 26.2843 9.71573 33 18 33Z" fill="#CBE2D1"/>
<path d="M18.945 12.7004L12.7875 19.2179C12.555 19.4654 12.33 19.9529 12.285 20.2904L12.0075 22.7204C11.91 23.5979 12.54 24.1979 13.41 24.0479L15.825 23.6354C16.1625 23.5754 16.635 23.3279 16.8675 23.0729L23.025 16.5554C24.09 15.4304 24.57 14.1479 22.9125 12.5804C21.2625 11.0279 20.01 11.5754 18.945 12.7004Z" stroke="#CBE2D1" stroke-width="1.125" stroke-miterlimit="10" stroke-linecap="round" stroke-linejoin="round"/>
<path d="M17.9175 13.7871C18.24 15.8571 19.92 17.4396 22.005 17.6496" stroke="#CBE2D1" stroke-width="1.125" stroke-miterlimit="10" stroke-linecap="round" stroke-linejoin="round"/>
</svg>
