<svg width="76" height="84" viewBox="0 0 76 84" fill="none" xmlns="http://www.w3.org/2000/svg">
<path fill-rule="evenodd" clip-rule="evenodd" d="M32.1628 46.4562C35.8451 43.3215 38.1656 38.7465 38.1656 33.6515C38.1656 24.2 30.1802 16.5381 20.3296 16.5381C10.4791 16.5381 2.49365 24.2 2.49365 33.6515C2.49365 36.1166 3.03688 38.4601 4.01472 40.5775C3.37629 41.8872 3.02607 43.3116 3.02607 44.8009C3.02607 51.2453 9.5813 56.4694 17.6676 56.4694C25.0487 56.4694 31.1542 52.1169 32.1628 46.4562Z" fill="#D9DEE5"/>
<path d="M33.7666 45.6619C37.1192 42.9449 39.2319 38.9799 39.2319 34.5643C39.2319 26.373 31.9615 19.7327 22.9931 19.7327C14.0247 19.7327 6.75439 26.373 6.75439 34.5643C6.75439 36.7008 7.24896 38.7317 8.13927 40.5669C7.55803 41.7019 7.23911 42.9364 7.23911 44.2273C7.23911 49.8121 13.2073 54.3398 20.5695 54.3398C27.2896 54.3398 32.8483 50.5676 33.7666 45.6619Z" fill="#FFDED0"/>
<path fill-rule="evenodd" clip-rule="evenodd" d="M44.1678 46.4562C40.4855 43.3215 38.165 38.7465 38.165 33.6515C38.165 24.2 46.1505 16.5381 56.001 16.5381C65.8518 16.5381 73.837 24.2 73.837 33.6515C73.837 36.1166 73.2939 38.4601 72.3159 40.5775C72.9543 41.8872 73.3046 43.3116 73.3046 44.8009C73.3046 51.2453 66.7495 56.4694 58.6631 56.4694C51.2822 56.4694 45.1765 52.1169 44.1678 46.4562Z" fill="#D9DEE5"/>
<path d="M43.0975 45.6619C39.745 42.9449 37.6323 38.9799 37.6323 34.5643C37.6323 26.373 44.9026 19.7327 53.8711 19.7327C62.8396 19.7327 70.1098 26.373 70.1098 34.5643C70.1098 36.7008 69.6152 38.7317 68.725 40.5669C69.3064 41.7019 69.6253 42.9364 69.6253 44.2273C69.6253 49.8121 63.6569 54.3398 56.2946 54.3398C49.5744 54.3398 44.0159 50.5676 43.0975 45.6619Z" fill="#FFDED0"/>
<path d="M59.7191 60.1345C46.438 60.8996 42.0081 61.8303 28.9897 66.868" stroke="#56392B" stroke-width="3.94968" stroke-linecap="round"/>
<path d="M25.3556 63.9388C27.9908 64.7343 29.7844 66.0328 29.3775 66.9582C28.9706 67.883 26.4448 68.146 23.8096 67.3506C21.1744 66.5557 18.8763 64.4367 18.9418 64.2881C19.0073 64.139 22.7204 63.1434 25.3556 63.9388Z" fill="#34876F"/>
<g style="mix-blend-mode:multiply">
<path fill-rule="evenodd" clip-rule="evenodd" d="M29.4358 66.6855C25.8633 65.6089 22.8953 64.9892 19.2769 64.3567C22.7859 65.0989 25.5774 65.9838 29.0671 67.0901C29.13 67.1104 29.1932 67.1301 29.2566 67.1503C29.3079 67.0901 29.3486 67.0262 29.3783 66.9591C29.417 66.8708 29.4358 66.7797 29.4358 66.6855Z" fill="#34876F" fill-opacity="0.5"/>
</g>
<path d="M27.8409 71.6824C29.622 69.6389 30.4144 67.6088 29.5583 67.0408C28.7022 66.4732 26.4265 67.5673 24.6454 69.6107C22.8643 71.6547 22.1011 74.6389 22.2389 74.7299C22.3767 74.8215 26.0598 73.7263 27.8409 71.6824Z" fill="#34876F"/>
<g style="mix-blend-mode:multiply">
<path fill-rule="evenodd" clip-rule="evenodd" d="M29.7571 67.2416C27.3414 70.0107 25.1823 72.0796 22.4819 74.4984C25.0295 72.0445 26.8926 69.8435 29.2218 67.0919C29.2638 67.0424 29.306 66.9929 29.3483 66.9429C29.4248 66.9668 29.4946 66.9993 29.5568 67.0408C29.6384 67.0946 29.7049 67.1622 29.7571 67.2416Z" fill="#34876F" fill-opacity="0.5"/>
</g>
<path d="M33.3897 61.2306C35.7516 62.1464 37.3015 63.4673 36.8567 64.2904C36.412 65.1141 34.0699 65.1806 31.708 64.2649C29.3461 63.3491 27.3951 61.2386 27.4668 61.106C27.5383 60.9735 31.0279 60.3149 33.3897 61.2306Z" fill="#34876F"/>
<g style="mix-blend-mode:multiply">
<path fill-rule="evenodd" clip-rule="evenodd" d="M36.9322 64.0418C33.73 62.8023 31.0488 62.025 27.7705 61.1907C30.9398 62.1181 33.4385 63.1276 36.5623 64.3889C36.6186 64.4118 36.6752 64.4347 36.732 64.4576C36.7836 64.4059 36.826 64.35 36.8583 64.2899C36.9007 64.2116 36.925 64.1286 36.9322 64.0418Z" fill="#34876F" fill-opacity="0.5"/>
</g>
<path d="M35.7914 68.5784C37.3176 66.6041 37.9331 64.6944 37.1118 64.2157C36.2904 63.7365 34.2545 64.8615 32.7283 66.8352C31.202 68.8094 30.6674 71.5966 30.7996 71.6733C30.9318 71.7505 34.2651 70.552 35.7914 68.5784Z" fill="#34876F"/>
<g style="mix-blend-mode:multiply">
<path fill-rule="evenodd" clip-rule="evenodd" d="M37.3066 64.3904C35.2364 67.0648 33.3632 69.0816 31.0107 71.4487C33.2203 69.0571 34.8132 66.9343 36.8047 64.2808C36.8406 64.2328 36.8766 64.1849 36.9129 64.1365C36.9847 64.1546 37.0509 64.1812 37.1106 64.2158C37.1888 64.2616 37.254 64.3202 37.3066 64.3904Z" fill="#34876F" fill-opacity="0.5"/>
</g>
<path d="M41.6296 58.2738C43.9331 59.6192 45.3158 61.2558 44.7037 62.0465C44.0917 62.8366 41.633 62.5241 39.3295 61.1792C37.0259 59.8337 35.3656 57.3032 35.4641 57.1759C35.5626 57.0487 39.326 56.9283 41.6296 58.2738Z" fill="#34876F"/>
<g style="mix-blend-mode:multiply">
<path fill-rule="evenodd" clip-rule="evenodd" d="M44.8249 61.7989C41.7016 59.977 39.0395 58.7247 35.7642 57.3154C38.9091 58.8046 41.3388 60.2703 44.3763 62.1024C44.4312 62.1354 44.4862 62.1684 44.5413 62.202C44.6046 62.1562 44.6589 62.1045 44.7033 62.047C44.7616 61.9714 44.8018 61.8884 44.8249 61.7989Z" fill="#34876F" fill-opacity="0.5"/>
</g>
<path d="M50.3022 56.8971C52.6054 58.2425 53.9881 59.8791 53.3764 60.6698C52.7641 61.4599 50.3054 61.1474 48.0016 59.8025C45.6983 58.4571 44.038 55.9265 44.1365 55.7992C44.235 55.6725 47.9984 55.5516 50.3022 56.8971Z" fill="#34876F"/>
<g style="mix-blend-mode:multiply">
<path fill-rule="evenodd" clip-rule="evenodd" d="M53.4982 60.4222C50.3751 58.6003 47.713 57.3486 44.4375 55.9387C47.5825 57.4279 50.012 58.8936 53.0494 60.7257C53.1042 60.7587 53.1596 60.7917 53.2145 60.8252C53.2778 60.7795 53.3321 60.7278 53.3768 60.6703C53.4349 60.5947 53.4753 60.5122 53.4982 60.4222Z" fill="#34876F" fill-opacity="0.5"/>
</g>
<path d="M43.0278 66.4033C44.6459 64.3109 45.2986 62.2856 44.4277 61.7782C43.5569 61.2703 41.3983 62.4629 39.7802 64.5558C38.162 66.6488 37.5952 69.6037 37.7354 69.6852C37.8755 69.7671 41.4096 68.4963 43.0278 66.4033Z" fill="#34876F"/>
<g style="mix-blend-mode:multiply">
<path fill-rule="evenodd" clip-rule="evenodd" d="M44.6364 61.9642C42.4416 64.7999 40.4555 66.9381 37.9614 69.4474C40.304 66.912 41.9929 64.6615 44.1043 61.8476C44.1424 61.797 44.1806 61.7459 44.2189 61.6948C44.2952 61.7145 44.3653 61.7422 44.4286 61.7789C44.5116 61.8274 44.5806 61.8897 44.6364 61.9642Z" fill="#34876F" fill-opacity="0.5"/>
</g>
<path d="M51.701 65.0269C53.319 62.9345 53.9717 60.9091 53.1012 60.4018C52.2302 59.8938 50.0718 61.0864 48.4532 63.1794C46.8352 65.2723 46.2686 68.2272 46.4087 68.3087C46.5489 68.3907 50.083 67.1198 51.701 65.0269Z" fill="#34876F"/>
<g style="mix-blend-mode:multiply">
<path fill-rule="evenodd" clip-rule="evenodd" d="M53.3095 60.5865C51.1144 63.4221 49.1284 65.5603 46.6343 68.0696C48.9767 65.5343 50.6655 63.2837 52.7771 60.4699C52.8154 60.4193 52.8532 60.3687 52.8916 60.3176C52.9682 60.3368 53.038 60.3645 53.1013 60.4012C53.1844 60.4497 53.2536 60.512 53.3095 60.5865Z" fill="#34876F" fill-opacity="0.5"/>
</g>
<path fill-rule="evenodd" clip-rule="evenodd" d="M48.6607 60.5601C47.6113 60.0069 48.0516 58.6673 49.1862 58.3223C59.3804 55.2236 59.9927 47.1011 59.9927 37.5692C59.9927 25.3663 50.2197 15.4739 38.1636 15.4739C26.1077 15.4739 16.3345 25.3663 16.3345 37.5692C16.3345 48.3033 17.1111 57.2495 31.4725 59.2476C32.1377 59.3403 32.6895 59.8237 32.8841 60.4663C36.0016 70.7596 45.2442 70.4987 54.9092 70.2261C55.2185 70.2176 55.5284 70.2085 55.8388 70.2C56.3377 70.1867 56.7093 69.723 56.5639 69.2454C56.4165 68.7593 56.2727 68.4473 56.1481 68.1773C55.9165 67.6747 55.7525 67.3186 55.7557 66.2553C55.7589 65.2357 55.9197 64.8891 56.1444 64.4057C56.1918 64.304 56.2418 64.1965 56.2935 64.0756C56.6678 63.2024 55.9703 62.3 55.0268 62.1845C52.1576 61.8331 50.1148 61.3273 48.6607 60.5601Z" fill="#4EA692"/>
<path fill-rule="evenodd" clip-rule="evenodd" d="M53.1338 61.9777C53.6433 62.065 54.1848 62.1443 54.7609 62.2178C53.1631 63.9045 52.069 65.3644 51.4977 67.2188C51.3886 67.5723 51.0244 67.7518 50.6836 67.6197C50.3429 67.4877 50.1544 67.0948 50.2636 66.7412C50.8279 64.9081 51.8294 63.4461 53.1338 61.9777ZM48.7281 60.6765C49.1327 60.883 49.5826 61.0705 50.0815 61.2403C48.5912 62.6634 47.9939 63.8449 47.2565 65.6892C47.1196 66.0326 46.7416 66.1817 46.4125 66.023C46.0834 65.8638 45.9279 65.4565 46.0651 65.1136C46.772 63.3444 47.3986 62.0703 48.7281 60.6765ZM45.883 57.6348C46.0614 58.0804 46.2786 58.4872 46.5431 58.8588C44.6761 60.4992 43.9115 61.4857 43.1305 63.4397C42.9933 63.7831 42.6154 63.9327 42.2864 63.7735C41.9574 63.6149 41.8018 63.2076 41.939 62.8642C42.8361 60.62 43.7648 59.4748 45.8176 57.6843C45.8386 57.6662 45.8605 57.6497 45.883 57.6348Z" fill="#B7BFCD"/>
<path d="M31.7919 49.0168C30.5375 71.8128 43.0046 70.5638 55.8358 70.2023C56.3358 70.1884 56.7095 69.722 56.5551 69.2466C56.1351 67.9512 55.7496 68.1583 55.7544 66.5483C55.7592 64.9377 56.1654 64.8275 56.5897 63.3064C56.7181 62.848 56.3784 62.3997 55.905 62.3507C45.0656 61.2289 45.0964 58.6115 45.3504 49.0168" stroke="#B4BCCB" stroke-width="1.5" stroke-linecap="round"/>
<path d="M45.0992 71.5852C46.1713 70.4219 46.1021 67.9866 46.1021 67.9866C46.1021 67.9866 43.6526 68.133 42.5805 69.2958C41.5083 70.4591 41.5776 72.8949 41.5776 72.8949C41.5776 72.8949 44.0271 72.748 45.0992 71.5852Z" fill="#34876F"/>
<path d="M51.6564 72.6161C50.6571 71.2201 48.0056 70.7563 48.0056 70.7563C48.0056 70.7563 47.5733 73.3918 48.5726 74.7884C49.572 76.1844 52.2234 76.6481 52.2234 76.6481C52.2234 76.6481 52.6558 74.0121 51.6564 72.6161Z" fill="#34876F"/>
<path d="M27.2755 47.136C28.6143 47.136 29.6995 45.8883 29.6995 44.3492C29.6995 42.8102 28.6143 41.5625 27.2755 41.5625C25.9368 41.5625 24.8516 42.8102 24.8516 44.3492C24.8516 45.8883 25.9368 47.136 27.2755 47.136Z" fill="#323232"/>
<path d="M28.0014 43.8953C28.3558 43.8953 28.643 43.6412 28.643 43.3279C28.643 43.0145 28.3558 42.7605 28.0014 42.7605C27.6471 42.7605 27.3599 43.0145 27.3599 43.3279C27.3599 43.6412 27.6471 43.8953 28.0014 43.8953Z" fill="white"/>
<path d="M50.224 47.136C48.8852 47.136 47.8 45.8883 47.8 44.3492C47.8 42.8102 48.8852 41.5625 50.224 41.5625C51.5627 41.5625 52.6479 42.8102 52.6479 44.3492C52.6479 45.8883 51.5627 47.136 50.224 47.136Z" fill="#323232"/>
<path d="M51.2534 43.8953C50.8991 43.8953 50.6119 43.6412 50.6119 43.3279C50.6119 43.0145 50.8991 42.7605 51.2534 42.7605C51.6078 42.7605 51.895 43.0145 51.895 43.3279C51.895 43.6412 51.6078 43.8953 51.2534 43.8953Z" fill="white"/>
<path d="M24.9047 50.5773C26.1096 50.5773 27.0863 49.9471 27.0863 49.1699C27.0863 48.3926 26.1096 47.7625 24.9047 47.7625C23.6999 47.7625 22.7231 48.3926 22.7231 49.1699C22.7231 49.9471 23.6999 50.5773 24.9047 50.5773Z" fill="#FFC4AA"/>
<path d="M52.08 50.5773C53.2849 50.5773 54.2616 49.9471 54.2616 49.1699C54.2616 48.3926 53.2849 47.7625 52.08 47.7625C50.8752 47.7625 49.8984 48.3926 49.8984 49.1699C49.8984 49.9471 50.8752 50.5773 52.08 50.5773Z" fill="#FFC4AA"/>
<path d="M45.336 11.6242C44.7711 11.6869 44.2632 11.3155 44.2015 10.7947C44.1398 10.2739 44.5477 9.80089 45.1125 9.73822C45.6774 9.67556 46.1853 10.0469 46.247 10.5677C46.3087 11.0885 45.9008 11.5615 45.336 11.6242Z" fill="#FFC547"/>
<path d="M39.1997 8.52091C38.6349 8.58358 38.127 8.21219 38.0653 7.6914C38.0036 7.1706 38.4115 6.69762 38.9763 6.63495C39.5411 6.57228 40.049 6.94367 40.1107 7.46447C40.1724 7.98526 39.7646 8.45825 39.1997 8.52091Z" fill="#FFC547"/>
<path d="M32.4092 10.061C31.8444 10.1236 31.3365 9.75223 31.2748 9.23144C31.2131 8.71064 31.6209 8.23765 32.1858 8.17499C32.7506 8.11232 33.2585 8.48371 33.3202 9.00451C33.3819 9.5253 32.9741 9.99829 32.4092 10.061Z" fill="#FFC547"/>
<path d="M45.1463 13.0555L43.9178 19.2883C43.8658 19.5518 43.5908 19.7058 43.3359 19.6171C39.4867 18.2773 36.6665 17.8345 32.5125 18.3306C32.2412 18.363 32.0001 18.1476 32.0075 17.8747L32.1905 11.1183C32.201 10.731 32.6708 10.5479 32.9449 10.8242L35.4392 13.3388C35.6445 13.5458 35.9894 13.5032 36.1347 13.2527L38.3592 9.41868C38.5508 9.08842 39.0457 9.14491 39.1626 9.51036L40.6152 14.049C40.6996 14.3125 41.0023 14.4365 41.2457 14.3072L44.5032 12.5776C44.8318 12.4031 45.2183 12.6904 45.1463 13.0555Z" fill="#FFC547"/>
</svg>
