<svg width="212" height="97" viewBox="0 0 212 97" fill="none" xmlns="http://www.w3.org/2000/svg">
<path d="M7.26615 86.684L8.54837 86.9101L7.89198 90.6327L10.7046 91.1286L11.2881 87.8197L12.5703 88.0458L11.9868 91.3547L14.9235 91.8726L15.5799 88.15L16.8621 88.3761L15.9286 93.6704L6.33262 91.9784L7.26615 86.684Z" fill="#FF9D48"/>
<path d="M28.256 59.5494L24.1016 59.6889L26.128 63.2352L25.239 64.775L22.5438 59.7271L16.8056 59.9221L17.7016 58.3702L21.8871 58.2325L19.8436 54.6601L20.7326 53.1203L23.4328 58.1873L29.152 57.9974L28.256 59.5494Z" fill="#FF9D48"/>
<path d="M40.999 36.2644C39.1272 34.0336 39.5095 31.0263 41.6115 29.2625C43.1666 27.9576 45.1641 27.6156 46.9564 28.5972L45.4871 29.8301C44.4244 29.3694 43.4016 29.588 42.5114 30.3349C41.0314 31.5768 40.8409 33.5277 42.2537 35.2115C43.6666 36.8952 45.6299 37.0571 47.1099 35.8152C48.0001 35.0683 48.3929 34.099 48.1238 32.9724L49.5931 31.7395C50.2486 33.675 49.5559 35.5721 48.0008 36.8769C45.8988 38.6408 42.8797 38.5058 40.999 36.2644Z" fill="#FF9D48"/>
<path d="M74.1337 11.2807L74.579 12.5042L71.0269 13.7971L72.0037 16.4808L75.1611 15.3316L75.6064 16.5551L72.4491 17.7043L73.469 20.5065L77.021 19.2136L77.4663 20.4371L72.4145 22.2758L69.0819 13.1194L74.1337 11.2807Z" fill="#FF9D48"/>
<path d="M104.441 6.1616L106.037 6.1616V14.6036L109.327 14.6036V15.8916L104.441 15.8916V6.1616Z" fill="#FF9D48"/>
<path d="M138.987 11.7024L140.487 12.2482L137.599 20.1811L140.691 21.3064L140.25 22.5167L135.659 20.8456L138.987 11.7024Z" fill="#FF9D48"/>
<path d="M172.868 31.4881L172.032 32.4854L169.136 30.0557L167.3 32.2435L169.874 34.4033L169.037 35.4007L166.463 33.2409L164.546 35.5253L167.442 37.955L166.605 38.9524L162.487 35.4968L168.75 28.0324L172.868 31.4881Z" fill="#FF9D48"/>
<path d="M194.7 59.0335L195.498 60.4157L187.059 65.2877L186.261 63.9055L190.153 56.1139L183.86 59.7469L183.062 58.3647L191.501 53.4927L192.299 54.8749L188.419 62.6595L194.7 59.0335Z" fill="#FF9D48"/>
<path d="M203.327 86.2724L204.61 86.0463L205.789 92.7332L204.506 92.9593L204.057 90.4086L195.757 91.8721L195.48 90.3004L203.78 88.8369L203.327 86.2724Z" fill="#FF9D48"/>
</svg>
