<svg width="159" height="190" viewBox="0 0 159 190" fill="none" xmlns="http://www.w3.org/2000/svg">
<rect x="0.320801" y="0.794922" width="157.92" height="188.876" rx="8.66782" fill="#FF9D48"/>
<mask id="mask0_5631_19699" style="mask-type:alpha" maskUnits="userSpaceOnUse" x="0" y="0" width="159" height="190">
<rect x="0.320801" y="0.794922" width="157.92" height="188.876" rx="8.66782" fill="#FF9D48"/>
</mask>
<g mask="url(#mask0_5631_19699)">
<circle opacity="0.1" cx="148.928" cy="13.7838" r="54.8398" fill="#F5F7F8"/>
<circle opacity="0.1" cx="148.928" cy="13.784" r="37.3151" fill="white"/>
<circle opacity="0.1" cx="149.547" cy="12.8866" r="26.5866" fill="white"/>
<path d="M19.8117 19.3529V29.1249H17.8517V19.3529H19.8117ZM22.1402 19.3529H24.1982L22.6862 22.8809H21.3422L22.1402 19.3529ZM35.2357 21.2569C36.1877 21.2569 36.953 21.5509 37.5317 22.1389C38.1197 22.7175 38.4137 23.5295 38.4137 24.5749V29.1249H36.4537V24.8409C36.4537 24.2342 36.2997 23.7722 35.9917 23.4549C35.6837 23.1282 35.2637 22.9649 34.7317 22.9649C34.1997 22.9649 33.775 23.1282 33.4577 23.4549C33.1497 23.7722 32.9957 24.2342 32.9957 24.8409V29.1249H31.0357V24.8409C31.0357 24.2342 30.8817 23.7722 30.5737 23.4549C30.2657 23.1282 29.8457 22.9649 29.3137 22.9649C28.7724 22.9649 28.343 23.1282 28.0257 23.4549C27.7177 23.7722 27.5637 24.2342 27.5637 24.8409V29.1249H25.6037V21.3689H27.5637V22.3069C27.8157 21.9802 28.1377 21.7235 28.5297 21.5369C28.931 21.3502 29.3697 21.2569 29.8457 21.2569C30.4524 21.2569 30.9937 21.3875 31.4697 21.6489C31.9457 21.9009 32.3144 22.2649 32.5757 22.7409C32.8277 22.2929 33.1917 21.9335 33.6677 21.6629C34.153 21.3922 34.6757 21.2569 35.2357 21.2569ZM45.8916 22.9789V26.7309C45.8916 26.9922 45.9522 27.1835 46.0736 27.3049C46.2042 27.4169 46.4189 27.4729 46.7176 27.4729H47.6276V29.1249H46.3956C44.7436 29.1249 43.9176 28.3222 43.9176 26.7169V22.9789H42.9936V21.3689H43.9176V19.4509H45.8916V21.3689H47.6276V22.9789H45.8916ZM53.4053 21.2569C53.9933 21.2569 54.516 21.3875 54.9733 21.6489C55.4306 21.9009 55.7853 22.2789 56.0373 22.7829C56.2986 23.2775 56.4293 23.8749 56.4293 24.5749V29.1249H54.4693V24.8409C54.4693 24.2249 54.3153 23.7535 54.0073 23.4269C53.6993 23.0909 53.2793 22.9229 52.7473 22.9229C52.206 22.9229 51.7766 23.0909 51.4593 23.4269C51.1513 23.7535 50.9973 24.2249 50.9973 24.8409V29.1249H49.0373V18.7649H50.9973V22.3349C51.2493 21.9989 51.5853 21.7375 52.0053 21.5509C52.4253 21.3549 52.892 21.2569 53.4053 21.2569ZM65.5031 25.0789C65.5031 25.3589 65.4845 25.6109 65.4471 25.8349H59.7771C59.8238 26.3949 60.0198 26.8335 60.3651 27.1509C60.7105 27.4682 61.1351 27.6269 61.6391 27.6269C62.3671 27.6269 62.8851 27.3142 63.1931 26.6889H65.3071C65.0831 27.4355 64.6538 28.0515 64.0191 28.5369C63.3845 29.0129 62.6051 29.2509 61.6811 29.2509C60.9345 29.2509 60.2625 29.0875 59.6651 28.7609C59.0771 28.4249 58.6151 27.9535 58.2791 27.3469C57.9525 26.7402 57.7891 26.0402 57.7891 25.2469C57.7891 24.4442 57.9525 23.7395 58.2791 23.1329C58.6058 22.5262 59.0631 22.0595 59.6511 21.7329C60.2391 21.4062 60.9158 21.2429 61.6811 21.2429C62.4185 21.2429 63.0765 21.4015 63.6551 21.7189C64.2431 22.0362 64.6958 22.4889 65.0131 23.0769C65.3398 23.6555 65.5031 24.3229 65.5031 25.0789ZM63.4731 24.5189C63.4638 24.0149 63.2818 23.6135 62.9271 23.3149C62.5725 23.0069 62.1385 22.8529 61.6251 22.8529C61.1398 22.8529 60.7291 23.0022 60.3931 23.3009C60.0665 23.5902 59.8658 23.9962 59.7911 24.5189H63.4731ZM19.8117 37.9349V40.3849H23.1017V41.9389H19.8117V44.5289H23.5217V46.1249H17.8517V36.3389H23.5217V37.9349H19.8117ZM29.5869 46.1249L27.9909 43.7169L26.5769 46.1249H24.4769L27.0109 42.2329L24.4489 38.3689H26.6609L28.2429 40.7629L29.6709 38.3689H31.7709L29.2229 42.2329L31.7989 46.1249H29.5869ZM34.8235 39.4889C35.0755 39.1342 35.4208 38.8402 35.8595 38.6069C36.3075 38.3642 36.8161 38.2429 37.3855 38.2429C38.0481 38.2429 38.6455 38.4062 39.1775 38.7329C39.7188 39.0595 40.1435 39.5262 40.4515 40.1329C40.7688 40.7302 40.9275 41.4255 40.9275 42.2189C40.9275 43.0122 40.7688 43.7169 40.4515 44.3329C40.1435 44.9395 39.7188 45.4109 39.1775 45.7469C38.6455 46.0829 38.0481 46.2509 37.3855 46.2509C36.8161 46.2509 36.3121 46.1342 35.8735 45.9009C35.4441 45.6675 35.0941 45.3735 34.8235 45.0189V49.8209H32.8635V38.3689H34.8235V39.4889ZM38.9255 42.2189C38.9255 41.7522 38.8275 41.3509 38.6315 41.0149C38.4448 40.6695 38.1928 40.4082 37.8755 40.2309C37.5675 40.0535 37.2315 39.9649 36.8675 39.9649C36.5128 39.9649 36.1768 40.0582 35.8595 40.2449C35.5515 40.4222 35.2995 40.6835 35.1035 41.0289C34.9168 41.3742 34.8235 41.7802 34.8235 42.2469C34.8235 42.7135 34.9168 43.1195 35.1035 43.4649C35.2995 43.8102 35.5515 44.0762 35.8595 44.2629C36.1768 44.4402 36.5128 44.5289 36.8675 44.5289C37.2315 44.5289 37.5675 44.4355 37.8755 44.2489C38.1928 44.0622 38.4448 43.7962 38.6315 43.4509C38.8275 43.1055 38.9255 42.6949 38.9255 42.2189ZM44.3117 35.7649V46.1249H42.3517V35.7649H44.3117ZM49.6922 46.2509C48.9456 46.2509 48.2736 46.0875 47.6762 45.7609C47.0789 45.4249 46.6076 44.9535 46.2622 44.3469C45.9262 43.7402 45.7582 43.0402 45.7582 42.2469C45.7582 41.4535 45.9309 40.7535 46.2762 40.1469C46.6309 39.5402 47.1116 39.0735 47.7182 38.7469C48.3249 38.4109 49.0016 38.2429 49.7482 38.2429C50.4949 38.2429 51.1716 38.4109 51.7782 38.7469C52.3849 39.0735 52.8609 39.5402 53.2062 40.1469C53.5609 40.7535 53.7382 41.4535 53.7382 42.2469C53.7382 43.0402 53.5562 43.7402 53.1922 44.3469C52.8376 44.9535 52.3522 45.4249 51.7362 45.7609C51.1296 46.0875 50.4482 46.2509 49.6922 46.2509ZM49.6922 44.5429C50.0469 44.5429 50.3782 44.4589 50.6862 44.2909C51.0036 44.1135 51.2556 43.8522 51.4422 43.5069C51.6289 43.1615 51.7222 42.7415 51.7222 42.2469C51.7222 41.5095 51.5262 40.9449 51.1342 40.5529C50.7516 40.1515 50.2802 39.9509 49.7202 39.9509C49.1602 39.9509 48.6889 40.1515 48.3062 40.5529C47.9329 40.9449 47.7462 41.5095 47.7462 42.2469C47.7462 42.9842 47.9282 43.5535 48.2922 43.9549C48.6656 44.3469 49.1322 44.5429 49.6922 44.5429ZM57.136 39.5729C57.388 39.1622 57.7146 38.8402 58.116 38.6069C58.5266 38.3735 58.9933 38.2569 59.516 38.2569V40.3149H58.998C58.382 40.3149 57.9153 40.4595 57.598 40.7489C57.29 41.0382 57.136 41.5422 57.136 42.2609V46.1249H55.176V38.3689H57.136V39.5729ZM68.0461 42.0789C68.0461 42.3589 68.0275 42.6109 67.9901 42.8349H62.3201C62.3668 43.3949 62.5628 43.8335 62.9081 44.1509C63.2535 44.4682 63.6781 44.6269 64.1821 44.6269C64.9101 44.6269 65.4281 44.3142 65.7361 43.6889H67.8501C67.6261 44.4355 67.1968 45.0515 66.5621 45.5369C65.9275 46.0129 65.1481 46.2509 64.2241 46.2509C63.4775 46.2509 62.8055 46.0875 62.2081 45.7609C61.6201 45.4249 61.1581 44.9535 60.8221 44.3469C60.4955 43.7402 60.3321 43.0402 60.3321 42.2469C60.3321 41.4442 60.4955 40.7395 60.8221 40.1329C61.1488 39.5262 61.6061 39.0595 62.1941 38.7329C62.7821 38.4062 63.4588 38.2429 64.2241 38.2429C64.9615 38.2429 65.6195 38.4015 66.1981 38.7189C66.7861 39.0362 67.2388 39.4889 67.5561 40.0769C67.8828 40.6555 68.0461 41.3229 68.0461 42.0789ZM66.0161 41.5189C66.0068 41.0149 65.8248 40.6135 65.4701 40.3149C65.1155 40.0069 64.6815 39.8529 64.1681 39.8529C63.6828 39.8529 63.2721 40.0022 62.9361 40.3009C62.6095 40.5902 62.4088 40.9962 62.3341 41.5189H66.0161ZM71.4367 39.5729C71.6887 39.1622 72.0154 38.8402 72.4167 38.6069C72.8274 38.3735 73.2941 38.2569 73.8167 38.2569V40.3149H73.2987C72.6827 40.3149 72.2161 40.4595 71.8987 40.7489C71.5907 41.0382 71.4367 41.5422 71.4367 42.2609V46.1249H69.4767V38.3689H71.4367V39.5729Z" fill="#043A4E"/>
</g>
<g clip-path="url(#clip0_5631_19699)">
<path d="M124.051 134.708C123.938 134.708 123.847 134.617 123.84 134.505C123.833 134.386 123.924 134.288 124.044 134.281C124.465 134.26 124.892 134.225 125.32 134.19C125.44 134.176 125.545 134.267 125.552 134.386C125.559 134.505 125.475 134.61 125.355 134.617C124.927 134.652 124.493 134.68 124.072 134.708C124.058 134.708 124.058 134.708 124.051 134.708Z" fill="white"/>
<path d="M102.383 143.29C102.263 143.29 102.165 143.192 102.165 143.073C102.165 142.954 102.263 142.863 102.383 142.863C103.267 142.863 104.157 142.821 105.027 142.744C105.146 142.73 105.252 142.821 105.259 142.94C105.266 143.059 105.181 143.164 105.062 143.171C104.178 143.248 103.274 143.29 102.383 143.29ZM99.7172 143.178C99.7102 143.178 99.7031 143.178 99.6961 143.178C98.7983 143.101 97.9004 142.982 97.0376 142.828C96.9184 142.807 96.8412 142.695 96.8623 142.583C96.8833 142.465 96.9955 142.388 97.1078 142.409C97.9565 142.563 98.8404 142.674 99.7312 142.758C99.8505 142.765 99.9346 142.87 99.9276 142.989C99.9206 143.094 99.8294 143.178 99.7172 143.178ZM94.4773 142.227C94.4563 142.227 94.4352 142.227 94.4212 142.22C93.4953 141.954 92.6465 141.646 91.889 141.303C91.7838 141.255 91.7347 141.129 91.7838 141.024C91.8329 140.919 91.9591 140.87 92.0643 140.919C92.8009 141.255 93.6356 141.555 94.5405 141.814C94.6527 141.849 94.7158 141.968 94.6878 142.08C94.6527 142.171 94.5685 142.227 94.4773 142.227ZM89.7075 139.94C89.6584 139.94 89.6022 139.919 89.5672 139.884C89.1603 139.52 88.8797 139.142 88.7395 138.778C88.5781 138.345 88.4799 137.876 88.4589 137.373C88.4519 137.254 88.5431 137.156 88.6623 137.149C88.7815 137.142 88.8798 137.233 88.8868 137.352C88.9078 137.806 88.992 138.233 89.1393 138.625C89.2515 138.925 89.49 139.24 89.8478 139.562C89.9389 139.639 89.946 139.779 89.8618 139.863C89.8267 139.912 89.7636 139.94 89.7075 139.94ZM89.1673 134.987C89.1393 134.987 89.1112 134.98 89.0902 134.973C88.9779 134.931 88.9289 134.806 88.9709 134.694C89.3076 133.861 89.7986 133.057 90.3879 132.371C90.465 132.281 90.5983 132.274 90.6895 132.35C90.7807 132.427 90.7877 132.56 90.7105 132.651C90.1494 133.302 89.6864 134.064 89.3637 134.855C89.3357 134.938 89.2515 134.987 89.1673 134.987ZM120.726 134.806C120.193 134.806 119.659 134.799 119.14 134.785C119 134.778 118.86 134.778 118.719 134.771C118.6 134.764 118.509 134.666 118.516 134.547C118.523 134.428 118.621 134.337 118.741 134.344C118.881 134.351 119.021 134.351 119.161 134.358C119.884 134.379 120.634 134.386 121.399 134.379C121.518 134.379 121.616 134.47 121.616 134.589C121.616 134.708 121.525 134.806 121.406 134.806C121.168 134.806 120.943 134.806 120.726 134.806ZM116.061 134.589C116.054 134.589 116.047 134.589 116.04 134.589C115.163 134.505 114.272 134.4 113.381 134.267C113.262 134.253 113.185 134.141 113.199 134.022C113.213 133.903 113.325 133.826 113.445 133.84C114.328 133.973 115.212 134.078 116.082 134.162C116.201 134.176 116.285 134.274 116.271 134.393C116.264 134.505 116.173 134.589 116.061 134.589ZM110.793 133.812C110.779 133.812 110.765 133.812 110.751 133.805C109.902 133.637 109.053 133.449 108.142 133.232C108.029 133.204 107.959 133.092 107.98 132.973C108.008 132.861 108.121 132.791 108.24 132.812C109.145 133.029 109.993 133.211 110.835 133.379C110.947 133.4 111.025 133.512 111.004 133.63C110.982 133.742 110.891 133.812 110.793 133.812ZM105.602 132.581C105.581 132.581 105.567 132.581 105.546 132.574C104.817 132.378 104.108 132.183 103.428 131.994L102.979 131.868C102.867 131.84 102.797 131.721 102.832 131.602C102.867 131.49 102.979 131.42 103.098 131.455L103.547 131.581C104.228 131.77 104.936 131.966 105.665 132.162C105.778 132.19 105.848 132.309 105.82 132.42C105.785 132.518 105.701 132.581 105.602 132.581ZM100.461 131.189C100.447 131.189 100.426 131.189 100.412 131.182C99.3945 130.931 98.5668 130.756 97.8233 130.637C97.704 130.616 97.6268 130.511 97.6479 130.392C97.6689 130.273 97.7741 130.196 97.8934 130.217C98.651 130.336 99.4857 130.511 100.517 130.77C100.629 130.798 100.699 130.917 100.671 131.029C100.643 131.126 100.552 131.189 100.461 131.189ZM92.6255 131.091C92.5483 131.091 92.4712 131.049 92.4361 130.973C92.387 130.868 92.4291 130.742 92.5343 130.686C93.3199 130.301 94.1897 130.091 95.1858 130.035C95.298 130.028 95.4033 130.119 95.4103 130.238C95.4173 130.357 95.3261 130.455 95.2068 130.462C94.2669 130.511 93.4532 130.707 92.7167 131.07C92.6886 131.084 92.6606 131.091 92.6255 131.091Z" fill="white"/>
<path d="M107.693 142.814C107.595 142.814 107.504 142.744 107.482 142.639C107.461 142.521 107.539 142.416 107.651 142.388C108.072 142.311 108.493 142.227 108.899 142.129C109.012 142.101 109.131 142.171 109.159 142.29C109.187 142.402 109.117 142.521 108.998 142.548C108.584 142.646 108.156 142.73 107.728 142.814C107.721 142.814 107.707 142.814 107.693 142.814Z" fill="white"/>
<path d="M37.4357 125.111C37.3866 125.111 37.3375 125.097 37.2954 125.062C36.9587 124.775 36.6361 124.475 36.3415 124.174C36.2573 124.09 36.2643 123.957 36.3485 123.873C36.4327 123.789 36.5659 123.796 36.6501 123.88C36.9307 124.167 37.2463 124.461 37.576 124.74C37.6672 124.817 37.6742 124.95 37.5971 125.041C37.555 125.09 37.4919 125.111 37.4357 125.111Z" fill="white"/>
<path d="M131.451 133.791C131.353 133.791 131.262 133.721 131.241 133.617C131.22 133.498 131.297 133.386 131.409 133.365C132.265 133.197 133.1 133.008 133.892 132.805C134.005 132.777 134.124 132.847 134.152 132.959C134.18 133.071 134.11 133.19 133.998 133.218C133.198 133.421 132.349 133.61 131.486 133.777C131.479 133.791 131.465 133.791 131.451 133.791ZM136.403 132.511C136.312 132.511 136.228 132.455 136.2 132.365C136.165 132.253 136.221 132.134 136.333 132.092C137.175 131.812 137.975 131.504 138.697 131.175C138.802 131.126 138.929 131.175 138.978 131.28C139.027 131.385 138.978 131.511 138.873 131.56C138.129 131.889 137.322 132.204 136.467 132.49C136.446 132.511 136.425 132.511 136.403 132.511ZM56.4381 131.532C55.5542 131.518 54.6914 131.483 53.8637 131.427C53.7445 131.42 53.6603 131.315 53.6673 131.196C53.6743 131.078 53.7796 130.994 53.8988 131.001C54.7195 131.057 55.5753 131.092 56.4451 131.105C56.5643 131.105 56.6555 131.203 56.6555 131.322C56.6485 131.441 56.5503 131.532 56.4381 131.532ZM58.9913 131.504C58.8791 131.504 58.7809 131.413 58.7809 131.301C58.7739 131.182 58.8721 131.085 58.9843 131.078C59.805 131.05 60.6608 130.994 61.5306 130.931C61.6498 130.924 61.748 131.008 61.7621 131.126C61.7691 131.245 61.6849 131.343 61.5657 131.357C60.6959 131.427 59.8331 131.476 59.0054 131.511C58.9983 131.504 58.9983 131.504 58.9913 131.504ZM51.3315 131.161C51.3245 131.161 51.3104 131.161 51.3034 131.161C50.4336 131.036 49.5849 130.882 48.7712 130.693C48.659 130.665 48.5818 130.553 48.6099 130.434C48.6379 130.322 48.7501 130.245 48.8694 130.273C49.669 130.455 50.5108 130.609 51.3666 130.735C51.4858 130.749 51.563 130.861 51.5489 130.98C51.5279 131.085 51.4367 131.161 51.3315 131.161ZM64.0979 131.099C63.9927 131.099 63.9015 131.022 63.8875 130.91C63.8734 130.791 63.9576 130.686 64.0769 130.672C64.8976 130.574 65.7463 130.462 66.6091 130.336C66.7283 130.322 66.8336 130.399 66.8546 130.518C66.8686 130.637 66.7915 130.742 66.6722 130.763C65.8094 130.889 64.9537 131.001 64.126 131.099C64.1119 131.099 64.1049 131.099 64.0979 131.099ZM141.054 130.399C140.984 130.399 140.914 130.364 140.872 130.301C140.809 130.203 140.837 130.07 140.942 130.007C141.706 129.532 142.373 129.014 142.927 128.476C143.011 128.392 143.144 128.392 143.229 128.476C143.313 128.559 143.313 128.692 143.229 128.776C142.653 129.336 141.966 129.874 141.173 130.364C141.131 130.392 141.089 130.399 141.054 130.399ZM69.1554 130.357C69.0501 130.357 68.966 130.287 68.9449 130.182C68.9239 130.063 69.001 129.958 69.1203 129.937C69.941 129.798 70.7827 129.637 71.6315 129.469C71.7507 129.448 71.863 129.518 71.884 129.637C71.9051 129.756 71.8349 129.867 71.7157 129.888C70.8669 130.056 70.0181 130.217 69.1974 130.357C69.1834 130.357 69.1694 130.357 69.1554 130.357ZM46.3512 130.014C46.3301 130.014 46.3091 130.007 46.281 130C45.4603 129.728 44.6537 129.413 43.8751 129.063C43.7698 129.014 43.7207 128.888 43.7698 128.783C43.8189 128.678 43.9452 128.629 44.0504 128.678C44.808 129.021 45.6076 129.329 46.4143 129.595C46.5265 129.63 46.5897 129.756 46.5476 129.867C46.5265 129.958 46.4424 130.014 46.3512 130.014ZM74.1778 129.364C74.0796 129.364 73.9884 129.294 73.9673 129.196C73.9393 129.084 74.0164 128.965 74.1287 128.944C74.9423 128.762 75.7771 128.573 76.6188 128.371C76.731 128.343 76.8503 128.413 76.8783 128.532C76.9064 128.643 76.8363 128.762 76.717 128.79C75.8753 128.993 75.0335 129.182 74.2198 129.364C74.2128 129.364 74.1918 129.364 74.1778 129.364ZM79.1581 128.175C79.0599 128.175 78.9757 128.112 78.9476 128.014C78.9196 127.902 78.9897 127.783 79.1019 127.755C79.9086 127.545 80.7433 127.328 81.571 127.105C81.6833 127.077 81.8025 127.14 81.8306 127.252C81.8586 127.363 81.7955 127.482 81.6833 127.51C80.8486 127.734 80.0138 127.958 79.2072 128.168C79.1931 128.175 79.1721 128.175 79.1581 128.175ZM41.6935 127.93C41.6585 127.93 41.6234 127.923 41.5883 127.902C40.7466 127.44 40.0171 127.007 39.3717 126.594C39.2735 126.531 39.2455 126.398 39.3086 126.3C39.3717 126.202 39.505 126.174 39.6032 126.237C40.2415 126.65 40.957 127.07 41.7918 127.531C41.897 127.587 41.932 127.72 41.8759 127.818C41.8408 127.888 41.7707 127.93 41.6935 127.93ZM84.0963 126.832C84.0051 126.832 83.9209 126.769 83.8929 126.678C83.8578 126.566 83.9279 126.447 84.0402 126.412C84.8468 126.181 85.6675 125.937 86.4952 125.692C86.6075 125.657 86.7267 125.72 86.7618 125.832C86.7969 125.944 86.7337 126.062 86.6215 126.097C85.7938 126.342 84.9661 126.587 84.1664 126.818C84.1313 126.832 84.1103 126.832 84.0963 126.832ZM144.582 126.797C144.547 126.797 144.519 126.79 144.491 126.776C144.386 126.727 144.344 126.594 144.393 126.489C144.547 126.181 144.667 125.86 144.765 125.538C144.898 125.076 144.989 124.601 145.031 124.111C145.038 123.992 145.151 123.908 145.263 123.915C145.382 123.922 145.466 124.027 145.459 124.146C145.417 124.657 145.319 125.167 145.179 125.657C145.08 125.999 144.947 126.342 144.779 126.678C144.737 126.755 144.66 126.797 144.582 126.797ZM88.9994 125.363C88.9082 125.363 88.8241 125.307 88.796 125.216C88.7609 125.104 88.8241 124.985 88.9363 124.95C89.7359 124.699 90.5496 124.447 91.3703 124.174C91.4826 124.139 91.6018 124.202 91.6369 124.314C91.6719 124.426 91.6088 124.545 91.4966 124.58C90.6689 124.845 89.8552 125.104 89.0555 125.356C89.0415 125.363 89.0205 125.363 88.9994 125.363ZM93.8675 123.796C93.7763 123.796 93.6921 123.74 93.6641 123.649C93.629 123.537 93.6851 123.419 93.7973 123.377C94.583 123.111 95.3967 122.831 96.2103 122.537C96.3226 122.495 96.4418 122.558 96.4839 122.663C96.526 122.775 96.4629 122.894 96.3576 122.936C95.5369 123.23 94.7233 123.509 93.9376 123.775C93.9096 123.789 93.8885 123.796 93.8675 123.796ZM98.6865 122.076C98.6023 122.076 98.5181 122.02 98.483 121.936C98.441 121.824 98.4971 121.705 98.6093 121.663C99.3809 121.376 100.188 121.068 100.994 120.754C101.106 120.712 101.226 120.768 101.275 120.872C101.317 120.984 101.261 121.103 101.156 121.152C100.342 121.467 99.5352 121.775 98.7636 122.069C98.7356 122.069 98.7145 122.076 98.6865 122.076ZM145.052 121.81C144.954 121.81 144.863 121.74 144.842 121.642C144.674 120.865 144.393 120.075 144.014 119.285C143.965 119.18 144.007 119.054 144.112 118.998C144.218 118.949 144.344 118.991 144.4 119.096C144.793 119.914 145.08 120.74 145.256 121.544C145.284 121.656 145.207 121.775 145.094 121.796C145.087 121.81 145.073 121.81 145.052 121.81ZM103.456 120.222C103.372 120.222 103.295 120.173 103.26 120.089C103.218 119.977 103.267 119.858 103.379 119.809C104.172 119.495 104.957 119.173 105.75 118.851C105.862 118.809 105.982 118.858 106.031 118.97C106.073 119.082 106.024 119.201 105.911 119.25C105.119 119.572 104.333 119.893 103.541 120.215C103.512 120.215 103.484 120.222 103.456 120.222ZM108.191 118.285C108.107 118.285 108.03 118.236 107.995 118.152C107.953 118.04 108.002 117.921 108.107 117.872C108.893 117.543 109.678 117.214 110.471 116.886C110.583 116.844 110.702 116.893 110.751 116.998C110.794 117.109 110.744 117.228 110.639 117.277C109.854 117.606 109.068 117.935 108.275 118.264C108.247 118.278 108.219 118.285 108.191 118.285ZM142.913 117.214C142.843 117.214 142.78 117.186 142.738 117.123C142.261 116.452 141.721 115.801 141.124 115.179C141.04 115.095 141.047 114.955 141.131 114.878C141.215 114.794 141.356 114.801 141.433 114.885C142.036 115.522 142.59 116.186 143.081 116.879C143.151 116.977 143.13 117.109 143.032 117.179C142.997 117.2 142.955 117.214 142.913 117.214ZM112.919 116.312C112.835 116.312 112.758 116.263 112.723 116.179C112.68 116.067 112.73 115.948 112.835 115.899C113.62 115.571 114.413 115.242 115.199 114.92C115.311 114.878 115.43 114.927 115.479 115.039C115.521 115.151 115.472 115.27 115.36 115.319C114.574 115.641 113.782 115.969 112.996 116.298C112.968 116.312 112.94 116.312 112.919 116.312ZM117.647 114.368C117.563 114.368 117.485 114.319 117.45 114.235C117.408 114.123 117.457 114.004 117.57 113.955C118.362 113.633 119.155 113.318 119.947 113.004C120.06 112.962 120.179 113.011 120.228 113.123C120.27 113.234 120.221 113.353 120.109 113.402C119.316 113.717 118.524 114.032 117.738 114.354C117.703 114.361 117.675 114.368 117.647 114.368ZM139.399 113.521C139.35 113.521 139.308 113.507 139.265 113.472C138.69 113.018 138.101 112.612 137.526 112.269C137.407 112.199 137.294 112.136 137.175 112.073C137.07 112.017 137.035 111.885 137.091 111.787C137.147 111.682 137.28 111.647 137.379 111.703C137.498 111.766 137.617 111.836 137.743 111.905C138.34 112.262 138.943 112.675 139.532 113.144C139.623 113.213 139.637 113.353 139.567 113.444C139.518 113.493 139.455 113.521 139.399 113.521ZM122.41 112.5C122.325 112.5 122.241 112.444 122.206 112.36C122.164 112.248 122.22 112.129 122.332 112.087C123.209 111.766 124.002 111.5 124.766 111.269C124.879 111.234 124.998 111.297 125.033 111.409C125.068 111.521 125.005 111.64 124.893 111.675C124.135 111.905 123.349 112.171 122.48 112.486C122.459 112.493 122.438 112.5 122.41 112.5ZM134.916 111.122C134.895 111.122 134.874 111.122 134.853 111.115C134.068 110.884 133.24 110.73 132.384 110.66C132.265 110.653 132.181 110.549 132.188 110.43C132.195 110.311 132.3 110.227 132.419 110.234C133.303 110.311 134.166 110.465 134.973 110.702C135.085 110.737 135.148 110.856 135.12 110.968C135.092 111.066 135.008 111.122 134.916 111.122ZM127.313 111.045C127.214 111.045 127.123 110.975 127.102 110.877C127.081 110.765 127.151 110.646 127.271 110.625C128.154 110.444 129.017 110.318 129.831 110.248C129.95 110.234 130.055 110.325 130.062 110.444C130.069 110.563 129.985 110.667 129.866 110.674C129.073 110.737 128.232 110.863 127.362 111.045C127.341 111.045 127.327 111.045 127.313 111.045Z" fill="white"/>
<path d="M127.628 134.386C127.523 134.386 127.432 134.309 127.418 134.197C127.404 134.078 127.488 133.973 127.607 133.959C128.028 133.91 128.456 133.854 128.877 133.791C128.996 133.777 129.102 133.854 129.123 133.973C129.137 134.092 129.059 134.197 128.94 134.211C128.519 134.274 128.091 134.33 127.664 134.379C127.65 134.386 127.635 134.386 127.628 134.386Z" fill="white"/>
<path d="M110.113 103.981C110.099 103.981 110.085 103.981 110.071 103.974C109.65 103.897 109.229 103.82 108.808 103.743C108.689 103.722 108.612 103.61 108.633 103.498C108.654 103.379 108.766 103.302 108.878 103.323C109.299 103.4 109.72 103.477 110.141 103.554C110.26 103.575 110.337 103.687 110.309 103.806C110.302 103.911 110.211 103.981 110.113 103.981Z" fill="white"/>
<path d="M33.4723 118.788C33.3741 118.788 33.29 118.725 33.2619 118.627C33.0655 117.83 32.9673 117.012 32.9673 116.207V116.067C32.9673 115.948 33.0585 115.857 33.1847 115.857C33.304 115.857 33.3952 115.955 33.3952 116.074V116.207C33.3952 116.977 33.4864 117.76 33.6758 118.529C33.7038 118.641 33.6337 118.76 33.5214 118.788C33.5074 118.781 33.4864 118.788 33.4723 118.788ZM33.5425 113.78C33.5214 113.78 33.5074 113.78 33.4864 113.773C33.3741 113.745 33.304 113.626 33.332 113.514C33.5495 112.71 33.8651 111.906 34.272 111.122C34.3281 111.017 34.4544 110.975 34.5596 111.031C34.6648 111.087 34.7069 111.213 34.6508 111.318C34.258 112.073 33.9563 112.85 33.7459 113.626C33.7178 113.717 33.6337 113.78 33.5425 113.78ZM35.8222 109.297C35.7801 109.297 35.731 109.283 35.6959 109.255C35.6047 109.185 35.5837 109.052 35.6538 108.954C36.1519 108.296 36.7271 107.653 37.3514 107.037C37.4355 106.953 37.5688 106.953 37.653 107.037C37.7372 107.121 37.7372 107.254 37.653 107.338C37.0427 107.94 36.4816 108.569 35.9976 109.213C35.9485 109.269 35.8853 109.297 35.8222 109.297ZM39.4066 105.736C39.3435 105.736 39.2803 105.708 39.2383 105.652C39.1681 105.561 39.1821 105.429 39.2733 105.352C39.9327 104.841 40.6412 104.351 41.3777 103.897C41.4759 103.834 41.6092 103.869 41.6723 103.967C41.7354 104.065 41.7004 104.198 41.6022 104.26C40.8797 104.708 40.1852 105.191 39.5329 105.687C39.4978 105.722 39.4557 105.736 39.4066 105.736ZM106.353 103.302C106.339 103.302 106.325 103.302 106.318 103.302C105.483 103.155 104.656 103.008 103.821 102.869C103.702 102.848 103.624 102.736 103.646 102.624C103.667 102.505 103.779 102.428 103.891 102.449C104.726 102.589 105.56 102.736 106.388 102.883C106.507 102.904 106.585 103.015 106.564 103.127C106.543 103.232 106.451 103.302 106.353 103.302ZM43.7135 103.071C43.6364 103.071 43.5592 103.029 43.5241 102.953C43.475 102.848 43.5171 102.722 43.6223 102.666C44.3939 102.288 45.1866 101.952 45.9722 101.659C46.0844 101.617 46.2037 101.673 46.2458 101.784C46.2879 101.896 46.2317 102.015 46.1195 102.057C45.3479 102.344 44.5693 102.673 43.8047 103.043C43.7767 103.064 43.7416 103.071 43.7135 103.071ZM101.352 102.449C101.338 102.449 101.331 102.449 101.317 102.449C100.482 102.309 99.6473 102.176 98.8125 102.043C98.6933 102.022 98.6161 101.917 98.6372 101.798C98.6582 101.68 98.7634 101.603 98.8827 101.624C99.7174 101.756 100.552 101.889 101.387 102.029C101.506 102.05 101.583 102.155 101.562 102.274C101.541 102.372 101.45 102.449 101.352 102.449ZM96.3364 101.659C96.3224 101.659 96.3154 101.659 96.3013 101.659C95.4666 101.533 94.6319 101.414 93.7901 101.295C93.6709 101.281 93.5937 101.169 93.6078 101.05C93.6218 100.931 93.734 100.854 93.8463 100.868C94.681 100.987 95.5227 101.113 96.3575 101.239C96.4767 101.26 96.5539 101.365 96.5398 101.484C96.5328 101.582 96.4416 101.659 96.3364 101.659ZM48.4553 101.295C48.3641 101.295 48.28 101.232 48.2519 101.141C48.2168 101.029 48.287 100.91 48.3992 100.875C49.1989 100.644 50.0266 100.427 50.8683 100.232C50.9806 100.204 51.0998 100.274 51.1279 100.393C51.1559 100.504 51.0858 100.623 50.9665 100.651C50.1388 100.84 49.3181 101.057 48.5255 101.288C48.4974 101.288 48.4764 101.295 48.4553 101.295ZM91.314 100.945C91.307 100.945 91.293 100.945 91.286 100.945C90.4512 100.833 89.6095 100.728 88.7748 100.623C88.6555 100.609 88.5713 100.504 88.5854 100.386C88.5994 100.267 88.7046 100.19 88.8239 100.197C89.6656 100.302 90.5003 100.406 91.3421 100.518C91.4613 100.532 91.5385 100.644 91.5244 100.756C91.5104 100.868 91.4192 100.945 91.314 100.945ZM86.2776 100.33C86.2706 100.33 86.2636 100.33 86.2565 100.33C85.4148 100.232 84.5661 100.148 83.7383 100.064C83.6191 100.05 83.5349 99.9449 83.5489 99.8329C83.563 99.714 83.6682 99.6301 83.7804 99.6441C84.6081 99.728 85.4569 99.819 86.3056 99.9099C86.4249 99.9239 86.5091 100.029 86.495 100.148C86.474 100.246 86.3828 100.33 86.2776 100.33ZM53.3936 100.141C53.2953 100.141 53.2042 100.071 53.1831 99.9658C53.1621 99.8469 53.2392 99.742 53.3585 99.721C54.1722 99.5741 55.0209 99.4412 55.8767 99.3293C55.9959 99.3153 56.1012 99.3923 56.1152 99.5112C56.1292 99.6301 56.0521 99.735 55.9328 99.749C55.084 99.8609 54.2423 99.9938 53.4356 100.141C53.4216 100.141 53.4076 100.141 53.3936 100.141ZM81.2271 99.819C81.2201 99.819 81.2131 99.819 81.2061 99.819C80.3573 99.742 79.5086 99.6721 78.6809 99.6091C78.5616 99.6021 78.4775 99.4972 78.4845 99.3783C78.4915 99.2594 78.5897 99.1685 78.716 99.1825C79.5437 99.2454 80.3924 99.3153 81.2482 99.3923C81.3674 99.3993 81.4516 99.5042 81.4446 99.6231C81.4306 99.735 81.3394 99.819 81.2271 99.819ZM58.423 99.4692C58.3107 99.4692 58.2195 99.3853 58.2125 99.2734C58.1985 99.1545 58.2897 99.0496 58.4089 99.0426C59.2296 98.9656 60.0854 98.9027 60.9482 98.8537C61.0674 98.8397 61.1656 98.9376 61.1726 99.0566C61.1797 99.1755 61.0885 99.2734 60.9692 99.2804C60.1135 99.3293 59.2647 99.3923 58.444 99.4692C58.437 99.4692 58.43 99.4692 58.423 99.4692ZM76.1697 99.4413C76.1627 99.4413 76.1627 99.4413 76.1557 99.4413C75.3069 99.3923 74.4581 99.3433 73.6234 99.3014C73.5042 99.2944 73.413 99.1964 73.42 99.0775C73.427 98.9586 73.5252 98.8747 73.6445 98.8747C74.4792 98.9167 75.3349 98.9586 76.1837 99.0146C76.3029 99.0216 76.3941 99.1265 76.3871 99.2384C76.3731 99.3573 76.2819 99.4413 76.1697 99.4413ZM71.0982 99.2034C70.2144 99.1755 69.3656 99.1545 68.5589 99.1405C68.4397 99.1405 68.3485 99.0426 68.3485 98.9237C68.3485 98.8047 68.4537 98.7138 68.5659 98.7138C69.3726 98.7278 70.2284 98.7488 71.1052 98.7768C71.2244 98.7838 71.3156 98.8817 71.3086 98.9936C71.3086 99.1125 71.2104 99.2034 71.0982 99.2034ZM63.4874 99.1685C63.3752 99.1685 63.277 99.0775 63.277 98.9586C63.277 98.8397 63.3682 98.7418 63.4874 98.7418C64.3011 98.7208 65.1569 98.7068 66.0267 98.6998C66.1459 98.6998 66.2441 98.7978 66.2441 98.9097C66.2441 99.0286 66.1459 99.1265 66.0337 99.1265C65.1569 99.1265 64.3081 99.1405 63.4874 99.1685Z" fill="white"/>
<path d="M34.9596 122.285C34.8894 122.285 34.8193 122.25 34.7772 122.181C34.5457 121.803 34.3353 121.418 34.1459 121.04C34.0968 120.935 34.1389 120.81 34.2441 120.754C34.3493 120.705 34.4756 120.747 34.5317 120.852C34.7141 121.215 34.9175 121.593 35.142 121.957C35.2051 122.055 35.17 122.188 35.0718 122.25C35.0367 122.271 35.0017 122.285 34.9596 122.285Z" fill="white"/>
<path d="M35.6469 124.412C34.9385 124.412 34.3633 123.838 34.3633 123.132C34.3633 122.425 34.9385 121.852 35.6469 121.852C36.3554 121.852 36.9306 122.425 36.9306 123.132C36.9306 123.838 36.3554 124.412 35.6469 124.412ZM35.6469 122.285C35.177 122.285 34.7912 122.67 34.7912 123.139C34.7912 123.607 35.177 123.992 35.6469 123.992C36.1169 123.992 36.5027 123.607 36.5027 123.139C36.5027 122.663 36.1169 122.285 35.6469 122.285Z" fill="white"/>
<path d="M126.407 135.757C125.699 135.757 125.131 135.183 125.131 134.477C125.131 133.77 125.706 133.197 126.407 133.197C127.116 133.197 127.691 133.77 127.691 134.477C127.684 135.183 127.109 135.757 126.407 135.757ZM126.407 133.63C125.938 133.63 125.559 134.015 125.559 134.484C125.559 134.952 125.945 135.337 126.407 135.337C126.877 135.337 127.263 134.952 127.263 134.484C127.256 134.015 126.877 133.63 126.407 133.63Z" fill="white"/>
<path d="M108.78 144.325C108.724 144.325 108.668 144.304 108.626 144.262C108.542 144.178 108.542 144.045 108.626 143.961L113.01 139.59C113.094 139.506 113.228 139.506 113.312 139.59C113.396 139.674 113.396 139.807 113.312 139.891L108.928 144.262C108.886 144.304 108.837 144.325 108.78 144.325Z" fill="white"/>
<path d="M113.157 144.325C113.101 144.325 113.045 144.304 113.003 144.262L108.619 139.891C108.535 139.807 108.535 139.674 108.619 139.59C108.703 139.506 108.836 139.506 108.92 139.59L113.304 143.961C113.389 144.045 113.389 144.178 113.304 144.262C113.269 144.304 113.213 144.325 113.157 144.325Z" fill="white"/>
<path d="M110.113 103.092C109.93 103.092 109.769 102.987 109.699 102.82C109.692 102.792 109.271 101.624 107.398 99.0215L107.363 98.9796C106.507 97.7905 105.448 96.3147 105.574 94.6849C105.75 92.4607 107.573 90.6771 109.804 90.5372C111.081 90.4602 112.287 90.8869 113.206 91.7542C114.118 92.6075 114.644 93.8106 114.644 95.0556C114.644 96.4965 113.774 97.7066 112.94 98.8816L112.813 99.0565C110.723 101.973 110.534 102.757 110.527 102.792C110.527 102.806 110.52 102.82 110.512 102.834C110.449 102.98 110.288 103.092 110.113 103.092ZM110.113 90.9428C110.021 90.9428 109.93 90.9428 109.839 90.9498C107.812 91.0757 106.171 92.6915 106.009 94.7059C105.89 96.1818 106.9 97.5877 107.714 98.7208L107.749 98.7627C109.664 101.428 110.085 102.61 110.099 102.659L110.12 102.666C110.162 102.498 110.456 101.61 112.47 98.7907L112.596 98.6159C113.395 97.5037 114.223 96.3496 114.223 95.0416C114.223 93.8945 113.76 92.8314 112.925 92.048C112.154 91.3345 111.165 90.9428 110.113 90.9428Z" fill="white"/>
<path d="M110.113 97.5526C108.724 97.5526 107.602 96.4265 107.602 95.0486C107.602 93.6637 108.731 92.5446 110.113 92.5446C111.502 92.5446 112.624 93.6707 112.624 95.0486C112.624 96.4265 111.495 97.5526 110.113 97.5526ZM110.113 92.9712C108.962 92.9712 108.029 93.9015 108.029 95.0486C108.029 96.1957 108.962 97.126 110.113 97.126C111.263 97.126 112.196 96.1957 112.196 95.0486C112.196 93.9015 111.263 92.9712 110.113 92.9712Z" fill="white"/>
<path d="M58.4682 121.649C59.303 121.229 59.9132 120.299 60.3621 119.299C54.4489 118.753 48.9776 119.257 47.0767 120.103C46.8802 120.187 45.33 121.292 45.1687 121.39C43.4712 122.369 43.6115 125.181 42.5593 129.042C42.3278 129.902 38.8276 142.912 37.5369 158.573C37.2353 162.217 37.7964 173.569 46.74 174.29C49.4125 174.506 55.6835 176.885 55.1924 172.59C54.2315 164.224 54.5752 148.941 55.48 138.583L50.3454 137.351L44.9863 135.099L45.9613 153.565C45.323 153.551 44.6356 153.887 44.0043 153.894C42.4541 153.908 40.9039 153.46 39.5922 152.635C39.3186 152.46 39.038 152.25 38.9398 151.949C38.8627 151.704 38.9118 151.438 38.9609 151.187C39.7675 147.186 40.5742 143.185 41.3739 139.184C41.8508 136.806 42.3348 134.414 43.2608 132.176C43.6957 131.112 44.2428 130.077 45.0284 129.238C45.9333 128.266 47.1117 127.594 48.2972 127C49.8404 126.223 50.9557 125.727 51.7203 125.23C52.7514 124.558 52.6532 124.419 53.7264 124.041C54.7856 123.67 55.5712 123.859 56.2095 122.936C56.42 122.635 56.9882 122.334 57.3459 122.264C57.4371 122.25 57.5143 122.25 57.5914 122.271C57.6125 122.208 57.6475 122.159 57.7107 122.11C57.9772 121.957 58.2227 121.775 58.4682 121.649Z" fill="#6D597A"/>
<path d="M76.7623 121.544C76.2222 121.355 73.9635 120.656 72.2099 120.362L71.8872 121.929C71.8872 121.929 72.2029 122.173 73.4655 122.992C73.4655 123.453 73.4164 123.887 73.3182 124.3C73.4795 123.95 73.6058 123.586 73.6829 123.209C75.9626 124.454 78.1933 125.832 80.5852 126.832C80.2275 125.846 79.8136 124.831 79.6382 124.342C79.3086 123.39 77.7022 121.873 76.7623 121.544Z" fill="#6D597A"/>
<path d="M52.2185 175.472C52.2044 175.472 52.1904 175.472 52.1764 175.465C51.4749 175.332 50.7524 175.22 50.058 175.108C45.9545 174.458 42.0825 173.835 39.6625 170.114C37.7195 167.12 36.99 162.399 37.4319 155.684C37.9439 147.969 39.9781 137.603 43.6467 124.006C44.3973 121.229 45.5687 120.25 48.115 120.25C48.2342 120.25 48.3254 120.348 48.3254 120.46C48.3254 120.579 48.2272 120.67 48.115 120.67C45.7792 120.67 44.755 121.537 44.0606 124.111C37.2916 149.165 36.0079 163.707 40.0132 169.876C42.328 173.443 46.1158 174.045 50.1211 174.681C50.8156 174.793 51.5381 174.905 52.2465 175.038C52.3658 175.059 52.4429 175.171 52.4149 175.29C52.4079 175.402 52.3167 175.472 52.2185 175.472Z" fill="black"/>
<path d="M47.0766 120.32C46.9854 120.32 46.9082 120.264 46.8732 120.173C46.8381 120.061 46.8942 119.942 47.0065 119.9C49.8754 118.914 53.9228 118.851 60.3972 119.089C60.5164 119.096 60.6076 119.194 60.6006 119.313C60.5936 119.432 60.5024 119.529 60.3761 119.515C53.9578 119.285 49.9455 119.341 47.1397 120.306C47.1257 120.313 47.0976 120.32 47.0766 120.32Z" fill="black"/>
<path d="M50.6611 123.349C50.5629 123.349 50.4717 123.279 50.4506 123.181C50.2262 122.187 49.5457 121.411 48.1709 120.579C47.3993 120.11 46.7049 120.264 46.0385 121.047C45.9613 121.138 45.8281 121.145 45.7369 121.075C45.6457 120.998 45.6387 120.865 45.7088 120.775C46.7189 119.585 47.722 119.809 48.3884 120.215C49.8684 121.11 50.6049 121.971 50.8575 123.09C50.8855 123.202 50.8084 123.321 50.6961 123.342C50.6961 123.349 50.6751 123.349 50.6611 123.349Z" fill="black"/>
<path d="M80.4517 126.811C80.3535 126.811 80.2693 126.748 80.2413 126.65C79.9046 125.335 79.624 124.733 79.3504 124.153C79.2593 123.957 79.1681 123.768 79.0839 123.558C79.0348 123.446 79.0909 123.328 79.1961 123.279C79.3084 123.23 79.4276 123.286 79.4767 123.39C79.5609 123.6 79.6521 123.782 79.7362 123.971C80.0168 124.573 80.3044 125.188 80.6551 126.538C80.6832 126.65 80.6131 126.769 80.5008 126.797C80.4868 126.804 80.4658 126.811 80.4517 126.811Z" fill="black"/>
<path d="M79.2803 123.684C79.2172 123.684 79.1541 123.656 79.112 123.6C79.105 123.586 79.091 123.565 79.0699 123.537C78.4105 122.481 77.0076 121.635 75.1278 121.152L71.6415 120.67C71.5223 120.656 71.4451 120.544 71.4592 120.432C71.4732 120.313 71.5854 120.236 71.6977 120.25L75.1979 120.74C75.2049 120.74 75.2119 120.74 75.2189 120.747C77.2181 121.25 78.7122 122.166 79.4276 123.321L79.4487 123.356C79.5118 123.453 79.4908 123.586 79.3996 123.649C79.3645 123.677 79.3224 123.684 79.2803 123.684Z" fill="black"/>
<path d="M94.2213 141.674C92.7273 139.905 92.2012 139.205 90.672 137.429C85.8881 131.861 84.6956 128.469 80.9779 126.993C80.8447 126.937 80.7184 126.881 80.5851 126.825C78.1932 125.818 75.9626 124.44 73.6828 123.202C73.4303 124.447 72.6938 125.531 71.7048 126.342C71.1366 126.811 70.4842 127.182 69.7968 127.44C67.9169 128.14 65.8196 128.042 63.8766 127.545C62.6771 127.237 61.4776 126.727 60.4745 125.999C59.5556 125.328 58.8121 124.475 58.4123 123.411C58.2088 122.88 57.9002 122.173 57.332 122.271C56.9743 122.334 56.4061 122.642 56.1957 122.943C55.5574 123.859 54.7717 123.677 53.7125 124.048C52.6393 124.426 52.7375 124.566 51.7064 125.237C50.9488 125.734 49.8335 126.23 48.2833 127.007C47.0978 127.601 45.9194 128.273 45.0145 129.245C44.2289 130.084 43.6888 131.119 43.2469 132.183C42.321 134.421 41.837 136.813 41.36 139.191C40.5533 143.192 39.7466 147.193 38.947 151.194C38.8979 151.446 38.8488 151.711 38.9259 151.956C39.0241 152.264 39.3047 152.474 39.5783 152.642C40.89 153.467 42.4402 153.908 43.9904 153.901C44.6217 153.894 45.3091 153.558 45.9475 153.572L44.9725 135.106L50.3456 137.352L55.4802 138.59L81.5111 144.85L94.9298 142.423C94.6983 142.157 94.4248 141.912 94.2213 141.674Z" fill="white"/>
<path d="M46.4947 155.677C45.7862 155.174 45.1619 154.544 44.6499 153.838C43.8993 154.089 43.0506 154.047 42.3281 153.719L42.279 153.852C42.279 153.852 40.7779 162.098 42.279 164.651C42.7349 165.428 43.3382 166.302 44.1729 166.722C44.4605 166.868 44.692 166.924 44.8603 166.799L44.8814 166.91C44.9445 166.91 44.9796 166.896 44.9796 166.896L44.9445 166.715C44.9936 166.659 45.0357 166.582 45.0707 166.484C45.3163 165.833 45.2882 165.064 45.4565 164.392C45.6039 163.812 45.8423 163.259 45.9756 162.679C46.1019 162.14 46.4526 160.867 46.4877 160.315C46.5999 158.531 46.3895 157.461 46.4947 155.677Z" fill="#FFDDC0"/>
<path d="M88.0627 143.605C87.8242 142.737 87.5927 141.863 87.3542 140.996C86.6247 138.296 85.6848 135.575 84.5133 133.029C84.3099 132.581 83.9452 132.029 83.7277 131.588C83.0263 130.175 82.3178 128.951 81.6164 127.545C81.4971 127.314 81.3428 127.063 81.1394 126.902C80.9149 126.72 80.5572 126.615 80.2836 126.545C78.551 126.09 77.3655 125.279 75.9276 124.216C75.5558 123.943 75.17 123.635 74.7071 123.6C74.6299 123.873 75.2261 124.419 75.3664 124.664C77.5129 128.462 80.2205 131.238 81.911 135.26C82.7317 137.219 83.3139 138.387 83.9171 141.143C84.0434 141.702 84.2889 142.611 84.4292 143.171C84.5063 143.472 84.331 144.15 84.6326 144.304C84.9833 144.465 88.0767 143.64 88.0627 143.605Z" fill="#6D597A"/>
<path d="M71.8871 121.929L72.2098 120.362L72.3851 119.522C72.3851 119.522 73.2619 119.795 74.0406 119.592C74.1107 119.571 74.1808 119.55 74.251 119.522C75.8924 118.76 78.1931 116.739 79.1822 114.116C79.6732 112.808 80.0029 110.458 80.1712 108.926C80.2274 108.107 81.1603 105.652 81.1603 105.652C81.1603 105.652 80.9989 103.414 80.4518 102.106C80.0169 101.015 80.066 100.029 80.0169 99.8119C79.6311 98.5528 74.8122 97.7904 73.6618 99.0984C73.3882 99.4272 72.2378 101.609 71.1997 103.414C70.5403 104.561 70.4912 104.722 69.2847 105.869C67.5311 107.506 66.5982 108.051 64.8515 108.87C63.5398 109.471 62.2772 110.234 62.2772 110.234L61.4004 115.696C61.4004 115.696 61.2671 116.662 60.9234 117.83C60.7831 118.305 60.6078 118.809 60.3903 119.299C59.9484 120.299 59.3311 121.229 58.4964 121.649C58.2439 121.775 57.9984 121.957 57.7318 122.117C57.6687 122.166 57.6336 122.222 57.6126 122.278C57.5564 122.453 57.6617 122.67 57.7318 122.922C57.8511 123.362 58.4052 123.894 58.6928 124.244C58.9243 124.531 59.1978 124.782 59.4504 125.041C59.4925 125.083 59.5416 125.132 59.5836 125.174C59.6678 125.258 59.766 125.363 59.8783 125.475C60.1869 125.783 60.5727 126.139 60.8392 126.314C62.0247 127.077 63.7503 128.133 66.6823 128.133C67.3698 128.133 68.0431 127.916 68.7165 127.741C70.0914 127.384 71.5925 126.937 72.5675 125.846C72.9393 125.426 73.1988 124.887 73.3391 124.279C73.4373 123.873 73.4864 123.432 73.4864 122.971C72.2098 122.173 71.8871 121.929 71.8871 121.929Z" fill="#FFDDC0"/>
<path d="M52.6816 124.447C52.5133 124.545 52.345 124.643 52.2327 124.796C52.0433 125.062 52.0574 125.433 52.1766 125.741C52.2958 126.048 52.4923 126.314 52.6536 126.601C53.0604 127.321 53.348 127.804 53.7058 128.552C53.9513 129.063 54.1477 129.874 54.3581 130.399C54.5896 130.973 54.6527 131.602 54.7229 132.218C54.8491 133.372 54.9684 134.519 55.0455 135.68C55.0946 136.393 55.1227 137.114 55.1297 137.827C55.1297 137.946 55.1367 138.079 55.2139 138.17C55.27 138.233 55.3612 138.268 55.4454 138.296C56.3993 138.618 57.3463 138.946 58.3003 139.268C58.2652 137.149 58.2371 135.029 58.2021 132.917C58.181 131.483 58.16 130.042 57.9075 128.636C57.8093 128.063 57.669 127.503 57.5287 126.937C57.3533 126.216 57.178 125.503 57.0026 124.782C56.9114 124.412 56.7781 122.971 56.4484 122.81C56.1328 122.656 54.9052 123.356 54.5826 123.495C53.9302 123.768 53.2989 124.09 52.6816 124.447Z" fill="#6D597A"/>
<path d="M83.6084 109.856C83.6084 109.856 83.9381 104.337 83.882 103.792C83.4962 100.735 82.9491 97.5667 81.2516 94.8878C79.5541 92.2089 78.0179 92.104 76.5939 91.6143C75.5558 91.2296 74.6229 90.3553 73.0867 89.9217C71.775 89.488 69.1445 89.2642 67.0612 89.5929C64.7605 89.9217 62.9507 91.0128 61.0358 93.0342C60.3203 93.7966 58.6789 96.3077 57.1988 98.5529C55.5574 101.064 54.1335 103.302 53.4741 104.778C52.5973 106.583 53.0883 107.562 53.4741 108.604C54.1335 110.353 55.2277 111.605 55.1155 112.647C55.0033 113.633 54.4561 113.738 54.4561 113.738C54.4561 113.738 54.5123 114.123 55.0033 114.172C55.4382 114.284 56.315 114.228 56.315 114.228C56.315 114.228 56.806 115.864 57.9564 116.795C59.1068 117.669 60.8604 117.83 60.8604 117.83H60.8744C61.2181 116.662 61.3514 115.697 61.3514 115.697L62.2282 110.234C62.2282 110.234 63.4908 109.471 64.8025 108.87C66.5562 108.051 67.4891 107.506 69.2357 105.869C70.4422 104.722 70.4983 104.561 71.1507 103.414C72.1888 101.61 73.3392 99.4272 73.6128 99.0985C74.7631 97.7905 79.5821 98.5529 79.9679 99.8119C80.024 100.029 79.9679 101.015 80.4028 102.106C80.95 103.414 81.1113 105.652 81.1113 105.652C81.1113 105.652 80.1784 108.107 80.1222 108.926C79.9609 110.458 79.6312 112.801 79.1332 114.116C78.1441 116.739 75.8504 118.76 74.202 119.523C74.1318 119.551 74.0617 119.571 73.9916 119.592L74.3072 119.634C74.3072 119.634 75.7312 120.292 76.9938 119.907C78.2564 119.523 79.3506 118.159 79.3506 118.159C79.3506 118.159 80.9359 119.467 81.3217 118.592C81.3217 118.592 81.1043 117.501 81.6514 116.627C82.416 115.368 84.0083 114.004 84.1696 112.857C84.4291 111.332 83.6084 109.856 83.6084 109.856Z" fill="#2E2E2E"/>
<path d="M51.9311 125.398C51.8119 125.398 51.7207 125.3 51.7207 125.188C51.7207 124.671 52.6045 124.3 54.0636 123.677C54.9754 123.293 56.1048 122.81 57.1429 122.222C57.185 122.194 57.2622 122.09 57.3113 122.013C57.3884 121.894 57.4726 121.775 57.5848 121.705C57.8233 121.544 58.125 121.516 58.3494 121.635C58.4546 121.691 58.4967 121.817 58.4406 121.922C58.3845 122.027 58.2582 122.069 58.153 122.013C58.0688 121.964 57.9356 121.985 57.8233 122.062C57.7812 122.09 57.7181 122.18 57.662 122.257C57.5708 122.383 57.4796 122.523 57.3534 122.593C56.2942 123.195 55.1508 123.684 54.2319 124.069C53.3551 124.44 52.1556 124.95 52.1556 125.188C52.1486 125.3 52.0504 125.398 51.9311 125.398Z" fill="black"/>
<path d="M43.0085 154.118C42.6998 154.118 42.4052 154.104 42.2298 154.062C39.403 153.376 38.6735 152.369 38.6454 152.327C38.6104 152.278 38.6033 152.222 38.6104 152.166L39.3609 148.116L41.339 138.813C41.4162 138.443 41.4863 138.058 41.5635 137.659C42.2439 134.036 43.0996 129.525 47.0909 127.307C48.7814 126.363 50.4158 125.629 51.8538 124.985C51.959 124.936 52.0852 124.985 52.1343 125.09C52.1834 125.195 52.1343 125.321 52.0291 125.37C50.5982 126.013 48.9778 126.734 47.3013 127.671C43.4854 129.791 42.6577 134.19 41.9914 137.729C41.9142 138.128 41.844 138.513 41.7669 138.89L39.7818 148.193L39.0523 152.138C39.2557 152.355 40.0904 153.096 42.3351 153.642C42.6998 153.726 43.8221 153.67 44.222 153.635C44.3412 153.628 44.4394 153.712 44.4534 153.831C44.4605 153.95 44.3763 154.048 44.257 154.062C44.1518 154.069 43.5556 154.118 43.0085 154.118Z" fill="black"/>
<path d="M57.8231 122.418C57.753 122.418 57.6898 122.39 57.6477 122.327C57.5776 122.229 57.5987 122.097 57.6969 122.027C58.8893 121.18 59.703 120.257 60.194 119.208C60.5868 118.319 61.2392 115.564 61.653 112.5C61.6671 112.381 61.7793 112.304 61.8915 112.318C62.0108 112.332 62.0879 112.444 62.0739 112.556C61.639 115.773 60.9796 118.48 60.5798 119.383C60.0537 120.502 59.1909 121.481 57.9424 122.369C57.9073 122.404 57.8652 122.418 57.8231 122.418Z" fill="black"/>
<path d="M71.6696 123.614C71.6626 123.614 71.6486 123.614 71.6415 123.614C71.5223 123.6 71.4451 123.488 71.4592 123.37C71.4732 123.279 71.7959 121.096 72.2869 119.62C72.3219 119.509 72.4482 119.446 72.5604 119.488C72.6727 119.523 72.7358 119.648 72.6937 119.76C72.2097 121.201 71.887 123.411 71.88 123.439C71.866 123.537 71.7748 123.614 71.6696 123.614Z" fill="black"/>
<path d="M94.6985 142.444C94.6354 142.444 94.5793 142.416 94.5372 142.367C94.2355 142.017 87.0878 133.7 85.3411 130.714C84.5064 129.28 82.6967 128.126 81.3359 127.405C81.2306 127.349 81.1885 127.224 81.2447 127.119C81.3008 127.014 81.427 126.972 81.5323 127.028C82.9492 127.769 84.8221 128.972 85.7129 130.497C87.4385 133.449 94.7897 141.996 94.8598 142.087C94.937 142.178 94.93 142.311 94.8388 142.388C94.7967 142.423 94.7476 142.444 94.6985 142.444Z" fill="black"/>
<path d="M81.2937 127.182C81.2586 127.182 81.2235 127.175 81.1955 127.154C80.5291 126.804 79.9819 126.65 79.54 126.531C79.3506 126.482 79.1893 126.433 79.049 126.384C78.1441 126.048 76.9447 125.251 75.9837 124.608C75.4646 124.265 74.8894 123.88 74.6439 123.768C74.6158 123.796 74.5808 123.81 74.5387 123.824C74.4265 123.845 74.3142 123.775 74.2862 123.663C74.2441 123.474 74.3563 123.384 74.3914 123.363C74.6158 123.216 74.8894 123.37 76.2222 124.251C77.1691 124.88 78.3476 125.657 79.1963 125.978C79.3226 126.027 79.4769 126.069 79.6523 126.118C80.0872 126.237 80.6834 126.405 81.3919 126.776C81.4971 126.832 81.5392 126.958 81.4831 127.063C81.441 127.14 81.3708 127.182 81.2937 127.182Z" fill="black"/>
<path d="M74.3634 123.831C74.3213 123.831 74.2792 123.817 74.2441 123.796C72.8272 122.817 71.8732 122.041 71.8662 122.034C71.775 121.957 71.761 121.824 71.8382 121.733C71.9153 121.642 72.0486 121.628 72.1398 121.705C72.1468 121.712 73.0938 122.481 74.4967 123.446C74.5949 123.516 74.6159 123.649 74.5528 123.74C74.5037 123.803 74.4335 123.831 74.3634 123.831Z" fill="black"/>
<path fill-rule="evenodd" clip-rule="evenodd" d="M72.4905 119.683C72.4905 119.683 70.0775 118.648 68.2748 117.445C66.5773 116.298 65.1533 114.878 65.1533 114.878C65.1533 114.878 65.7566 116.9 67.6715 118.921C69.5865 120.942 71.9995 121.39 71.9995 121.39L72.4905 119.683Z" fill="black"/>
<path d="M73.4656 119.942C71.5716 119.942 68.5835 118.277 66.8228 116.907C65.3077 115.676 64.8588 114.892 64.1363 113.507C64.0801 113.402 64.1222 113.276 64.2275 113.22C64.3327 113.164 64.4589 113.206 64.5151 113.311C65.2095 114.647 65.6444 115.403 67.0894 116.578C69.32 118.319 72.6238 119.914 74.0618 119.439C74.7492 119.208 75.633 118.557 76.4888 117.641C78.0531 115.976 79.0702 114.34 79.3367 113.046C79.5472 112.108 79.6383 111.402 79.7295 110.716C79.7997 110.171 79.8698 109.653 79.9891 109.066C80.1364 108.366 80.3328 107.709 80.5292 107.072C80.6274 106.75 80.7256 106.429 80.8168 106.107L80.9851 105.603C81.0202 105.491 81.1394 105.429 81.2587 105.47C81.3709 105.505 81.4341 105.631 81.392 105.743L81.2306 106.233C81.1395 106.555 81.0412 106.876 80.943 107.198C80.7536 107.828 80.5572 108.471 80.4099 109.157C80.2907 109.73 80.2205 110.241 80.1504 110.779C80.0592 111.472 79.968 112.192 79.7506 113.143C79.463 114.535 78.4389 116.193 76.7975 117.942C76.2644 118.508 75.2192 119.516 74.1881 119.858C73.9846 119.907 73.7391 119.942 73.4656 119.942Z" fill="black"/>
<path d="M75.7239 113.13C75.6608 113.13 75.5977 113.102 75.5556 113.046C75.4855 112.955 75.4995 112.822 75.5907 112.745C76.0115 112.423 76.236 112.157 76.2571 111.947C76.2781 111.773 76.1588 111.619 75.9695 111.374C75.752 111.094 75.4784 110.751 75.4504 110.248C75.3873 109.003 76.0677 107.863 76.5797 107.114C76.6499 107.016 76.7831 106.995 76.8743 107.058C76.9725 107.128 76.9936 107.261 76.9304 107.352C76.4464 108.051 75.8151 109.108 75.8713 110.227C75.8853 110.597 76.0957 110.856 76.2991 111.108C76.5096 111.367 76.72 111.64 76.6779 111.996C76.6358 112.332 76.3833 112.668 75.8502 113.081C75.8151 113.116 75.766 113.13 75.7239 113.13Z" fill="black"/>
<path d="M74.8614 115.55C73.6689 115.55 72.4414 115.102 71.7469 114.493C71.6558 114.416 71.6487 114.284 71.7259 114.193C71.8031 114.102 71.9363 114.095 72.0275 114.172C72.9184 114.962 74.7772 115.438 76.131 114.899C76.2432 114.857 76.3625 114.906 76.4116 115.018C76.4537 115.13 76.4046 115.249 76.2923 115.298C75.8504 115.473 75.3594 115.55 74.8614 115.55Z" fill="black"/>
<path d="M73.9142 104.61C73.8721 104.61 73.823 104.596 73.788 104.568C72.7989 103.827 71.1575 104.428 71.1435 104.435C71.0313 104.477 70.912 104.421 70.8699 104.309C70.8278 104.198 70.884 104.079 70.9962 104.037C71.0734 104.009 72.8691 103.351 74.0475 104.233C74.1387 104.302 74.1597 104.435 74.0896 104.533C74.0475 104.582 73.9774 104.61 73.9142 104.61Z" fill="black"/>
<path d="M80.9778 105.261C80.9357 105.261 80.8936 105.247 80.8586 105.226C80.564 105.03 79.8204 104.792 78.9156 105.135C78.8033 105.177 78.6841 105.121 78.642 105.016C78.5999 104.904 78.656 104.785 78.7612 104.743C79.8274 104.33 80.7253 104.631 81.0901 104.876C81.1883 104.939 81.2163 105.072 81.1462 105.17C81.1181 105.233 81.048 105.261 80.9778 105.261Z" fill="black"/>
<path d="M81.5814 118.914C81.5112 118.914 81.4411 118.879 81.399 118.816C80.5993 117.585 81.5743 116.354 82.5143 115.165C83.1316 114.382 83.7769 113.57 83.9452 112.759C84.2469 111.297 83.4963 110.227 82.7668 109.192C82.4932 108.8 82.2056 108.394 81.9952 107.982C80.6414 105.387 80.3398 103.33 80.1223 101.826C79.8979 100.288 79.7646 99.3573 78.7054 98.9027C78.6002 98.8537 78.5441 98.7278 78.5932 98.6229C78.6423 98.518 78.7685 98.462 78.8737 98.511C80.1574 99.0565 80.3258 100.197 80.5502 101.763C80.7607 103.232 81.0553 105.247 82.374 107.786C82.5774 108.177 82.8369 108.548 83.1175 108.947C83.8611 110.003 84.7028 111.199 84.3661 112.843C84.1767 113.759 83.5033 114.605 82.858 115.431C81.9321 116.599 81.1324 117.606 81.7637 118.585C81.8269 118.683 81.7988 118.816 81.7006 118.879C81.6655 118.907 81.6234 118.914 81.5814 118.914Z" fill="black"/>
<path d="M60.0608 113.563C60.0538 113.563 60.0398 113.563 60.0328 113.563C59.9135 113.549 59.8294 113.444 59.8504 113.325C60.1731 110.765 62.0179 109.905 64.1573 108.905C65.3778 108.331 66.7597 107.688 68.0363 106.639C70.1968 104.855 70.7019 103.904 72.0486 101.372L72.1468 101.19C73.4586 98.7767 74.4055 97.0281 76.1241 97.5387C76.6852 97.7276 77.1482 98.0353 77.541 98.476C77.6182 98.5669 77.6111 98.6998 77.52 98.7767C77.4288 98.8537 77.2955 98.8467 77.2183 98.7558C76.8816 98.3711 76.4818 98.1053 75.9978 97.9444C74.7492 97.5737 74.0197 98.6508 72.5326 101.393L72.4344 101.575C71.0947 104.093 70.5405 105.128 68.3169 106.974C66.9982 108.058 65.5883 108.723 64.3467 109.304C62.2423 110.29 60.5799 111.066 60.2853 113.395C60.2572 113.486 60.1661 113.563 60.0608 113.563Z" fill="black"/>
<path d="M54.1966 114.06C54.1334 114.06 54.0633 114.032 54.0212 113.976C53.9511 113.878 53.9721 113.745 54.0633 113.675C55.1856 112.85 54.8559 112.094 54.0703 110.59C53.6494 109.786 53.1654 108.877 52.941 107.772C52.4079 105.268 54.3228 102.393 56.0063 99.8539C56.3079 99.3992 56.5885 98.9726 56.8621 98.5529C59.4504 94.4611 60.7481 92.4117 63.7153 90.5162C68.1695 87.6554 73.262 89.446 75.3383 90.789C75.4365 90.8519 75.4646 90.9848 75.4014 91.0827C75.3383 91.1807 75.205 91.2086 75.1068 91.1457C73.1147 89.8517 68.2186 88.131 63.9467 90.8729C61.0568 92.7195 59.7801 94.7479 57.2198 98.7837C56.9463 99.2104 56.6657 99.6371 56.3641 100.092C54.7227 102.561 52.8708 105.359 53.3618 107.688C53.5723 108.737 54.0423 109.618 54.4491 110.395C55.1716 111.759 55.7889 112.941 54.3228 114.018C54.2878 114.046 54.2457 114.06 54.1966 114.06Z" fill="black"/>
<path d="M83.7698 108.485C83.7557 108.485 83.7417 108.485 83.7277 108.478C83.6084 108.457 83.5313 108.345 83.5593 108.226C84.3169 104.12 82.3107 97.3218 81.2305 95.4263C79.8907 93.0761 78.7754 91.992 76.0678 92.2018C75.9486 92.2088 75.8504 92.1249 75.8363 92.006C75.8293 91.8871 75.9135 91.7891 76.0327 91.7751C78.9508 91.5443 80.1994 92.7544 81.6023 95.2165C82.7106 97.1469 84.7588 104.1 83.9802 108.303C83.9662 108.415 83.875 108.485 83.7698 108.485Z" fill="black"/>
<path d="M75.7803 120.229C75.661 120.229 75.5698 120.131 75.5698 120.019C75.5698 119.9 75.668 119.802 75.7803 119.802C77.3235 119.802 79.2384 119.229 79.5681 116.494C79.5821 116.375 79.6873 116.291 79.8066 116.305C79.9258 116.319 80.01 116.424 79.996 116.543C79.6032 119.746 77.1832 120.229 75.7803 120.229Z" fill="black"/>
<path d="M78.0811 96.3636C77.9549 96.3636 77.8637 96.2657 77.8707 96.1468C77.8707 96.0699 77.8917 94.2863 76.1662 93.7897C76.0539 93.7547 75.9838 93.6358 76.0189 93.5239C76.0539 93.412 76.1662 93.342 76.2854 93.377C78.3407 93.9645 78.3056 96.1328 78.3056 96.1538C78.2916 96.2727 78.1934 96.3636 78.0811 96.3636Z" fill="black"/>
<path d="M60.7203 117.991C59.4366 117.963 58.2792 117.466 57.4585 116.592C56.6519 115.731 56.238 114.563 56.2871 113.29C56.2941 113.171 56.3853 113.081 56.5116 113.088C56.6308 113.095 56.722 113.192 56.715 113.311C56.6659 114.486 57.0307 115.515 57.7672 116.305C58.5107 117.095 59.5559 117.543 60.7203 117.571C60.8395 117.571 60.9307 117.669 60.9307 117.788C60.9307 117.893 60.8325 117.991 60.7203 117.991Z" fill="black"/>
<path d="M72.2588 107.898C71.5924 107.898 71.0172 107.716 70.5472 107.345C70.4561 107.275 70.435 107.135 70.5122 107.044C70.5823 106.953 70.7226 106.932 70.8138 107.009C71.3539 107.429 72.0694 107.562 72.9462 107.401C73.0655 107.38 73.1707 107.457 73.1917 107.576C73.2128 107.695 73.1356 107.8 73.0164 107.821C72.7568 107.877 72.5043 107.898 72.2588 107.898Z" fill="black"/>
<path d="M78.4878 108.569C78.1371 108.569 77.7232 108.492 77.3094 108.24C77.2112 108.177 77.1761 108.044 77.2392 107.947C77.3024 107.849 77.4356 107.814 77.5338 107.877C78.4036 108.408 79.2594 107.996 79.3015 107.975C79.4067 107.926 79.533 107.968 79.5891 108.072C79.6382 108.177 79.5961 108.303 79.4909 108.359C79.4628 108.366 79.049 108.569 78.4878 108.569Z" fill="black"/>
<path fill-rule="evenodd" clip-rule="evenodd" d="M70.9614 107.506C71.0736 106.96 71.3472 107.394 71.7821 107.45C72.217 107.506 72.6589 107.177 72.5467 107.723C72.4344 108.268 72.0556 108.653 71.6137 108.597C71.1788 108.597 70.9053 108.107 70.9614 107.506Z" fill="black"/>
<path fill-rule="evenodd" clip-rule="evenodd" d="M77.5831 108.163C77.6954 107.618 77.6954 108.163 78.0741 108.275C78.4599 108.387 79.1684 108.002 79.0071 108.548C78.8948 109.094 78.4599 109.478 78.0741 109.366C77.6954 109.199 77.4779 108.709 77.5831 108.163Z" fill="black"/>
<path d="M44.8672 167.12C44.4534 167.12 43.3521 166.897 42.0965 164.756C40.5673 162.168 42.0053 154.153 42.0685 153.81C42.0895 153.691 42.2017 153.614 42.314 153.635C42.4332 153.656 42.5104 153.768 42.4893 153.88C42.4753 153.964 41.0163 162.077 42.4613 164.532C43.8431 166.876 44.9234 166.687 44.9374 166.68C45.0496 166.659 45.1689 166.729 45.1899 166.841C45.218 166.953 45.1478 167.064 45.0356 167.092C45.0286 167.106 44.9725 167.12 44.8672 167.12Z" fill="black"/>
<path d="M49.6864 189.545C49.6934 189.566 49.6934 189.608 49.6934 189.671H88.9957C88.9185 185.614 88.5117 181.669 87.7541 177.661C87.4595 177.92 87.0527 178.13 86.7791 178.312C84.7309 179.676 82.2758 181.263 79.8628 181.732C78.8878 181.921 77.9969 182.117 77.0149 182.263C76.4958 182.34 75.4226 182.41 74.8965 182.431C67.6014 182.711 63.4699 181.291 60.4536 180.396C57.6338 179.564 54.5614 178.556 52.1344 176.899C51.6154 177.899 51.2225 179.004 51.0963 180.018C50.3387 182.431 49.5811 184.299 49.7144 187.551C49.6302 188.265 49.5461 188.824 49.6864 189.545Z" fill="#2E2E2E"/>
<path d="M72.9816 177.395L67.9943 176.045L53.6215 172.891C53.4883 173.171 53.341 173.45 53.1936 173.716C53.0674 173.947 52.9341 174.171 52.8008 174.388C52.6325 174.674 52.2397 175.339 52.2116 175.668C52.1625 176.29 51.6224 176.528 52.1345 176.878C54.5615 178.535 57.6338 179.543 60.4537 180.382C63.4699 181.277 67.6015 182.697 74.8966 182.417C75.4226 182.396 76.4959 182.326 77.0149 182.25C77.997 182.11 78.8878 181.907 79.8628 181.718C82.2828 181.249 84.7379 179.662 86.7791 178.298C87.0527 178.116 87.4596 177.906 87.7542 177.647C87.9225 177.507 88.0488 177.346 88.1049 177.171C88.2171 176.794 87.8383 176.668 87.7542 176.283C87.4876 175.024 87.2491 173.765 87.0387 172.499C81.378 174.514 72.9816 177.395 72.9816 177.395Z" fill="white"/>
<path d="M116.675 130.952C115.019 132.434 113.616 134.183 112.529 136.121L110.565 139.604L94.9297 142.43L81.511 144.857L50.3455 137.352L44.9864 135.099L45.9614 153.565L46.0105 154.46C46.0947 155.726 45.8071 159.622 45.5265 160.86L44.0815 170.792L53.1864 172.793L53.6213 172.891L67.994 176.045L72.9813 177.395C72.9813 177.395 81.3777 174.507 87.0454 172.513C88.6868 171.933 90.0967 171.429 91.0086 171.093C95.07 169.596 101.839 168.246 101.839 168.246L111.919 155.048C111.919 155.048 114.325 142.423 115.377 138.688C116.429 134.952 119.74 128.203 119.74 128.203L116.675 130.952Z" fill="#4EA692"/>
<path d="M72.9813 177.612C72.9603 177.612 72.9463 177.612 72.9252 177.605L67.9379 176.255L44.0324 171.009C43.9202 170.988 43.8501 170.883 43.8641 170.771C43.8851 170.653 45.6458 158.664 45.751 155.838C46.0596 147.62 44.776 135.253 44.7619 135.127C44.7549 135.05 44.783 134.98 44.8461 134.931C44.9092 134.89 44.9864 134.876 45.0566 134.904L50.3946 137.149L81.4969 144.633L110.411 139.408L112.326 136.009C113.399 134.099 114.514 132.917 116.352 130.966L116.506 130.805L119.586 128.049C119.663 127.979 119.775 127.979 119.859 128.035C119.943 128.098 119.965 128.21 119.922 128.301C119.887 128.371 116.612 135.078 115.573 138.75C114.535 142.437 112.143 154.964 112.115 155.09C112.108 155.125 112.094 155.153 112.073 155.181L101.993 168.379C101.958 168.421 101.916 168.449 101.867 168.456C101.797 168.47 95.07 169.82 91.0718 171.296C87.0524 172.779 73.1777 177.549 73.0374 177.598C73.0304 177.605 73.0094 177.612 72.9813 177.612ZM44.327 170.632L68.0501 175.836L72.9813 177.171C74.0054 176.822 87.0665 172.324 90.9455 170.897C94.7403 169.498 100.955 168.211 101.727 168.058L111.722 154.964C111.891 154.097 114.164 142.22 115.174 138.639C115.98 135.771 118.134 131.098 119.081 129.084L116.815 131.112L116.675 131.259C114.795 133.26 113.757 134.358 112.712 136.225L110.747 139.709C110.719 139.765 110.663 139.8 110.6 139.814L81.5461 145.06C81.518 145.067 81.4899 145.067 81.4549 145.06L50.2964 137.561C50.2824 137.561 50.2753 137.554 50.2613 137.547L45.2389 135.435C45.4494 137.533 46.4735 148.382 46.1929 155.845C46.0877 158.538 44.5655 169.009 44.327 170.632Z" fill="black"/>
<path d="M72.9815 177.612C72.9605 177.612 72.9465 177.612 72.9254 177.605C72.8132 177.577 72.7431 177.458 72.7781 177.346C72.8202 177.192 76.9798 162.063 78.2424 156.363C79.505 150.648 81.2867 144.857 81.3008 144.801C81.3358 144.689 81.4551 144.626 81.5673 144.661C81.6795 144.696 81.7427 144.815 81.7076 144.927C81.6866 144.983 79.9189 150.76 78.6563 156.461C77.3937 162.175 73.2271 177.318 73.185 177.465C73.1639 177.549 73.0797 177.612 72.9815 177.612Z" fill="black"/>
<path d="M101.839 168.463C101.818 168.463 101.797 168.463 101.776 168.456C101.664 168.421 101.601 168.302 101.636 168.19C101.678 168.065 105.564 155.23 107.198 149.298C108.84 143.353 110.348 139.562 110.362 139.527C110.404 139.415 110.53 139.366 110.642 139.408C110.755 139.45 110.804 139.576 110.762 139.688C110.748 139.723 109.239 143.5 107.612 149.417C105.978 155.349 102.085 168.19 102.043 168.316C102.021 168.4 101.93 168.463 101.839 168.463Z" fill="black"/>
<path d="M114.872 135.596C114.577 135.876 114.276 136.163 114.086 136.519C113.89 136.876 113.82 137.324 114.002 137.694C113.841 137.932 113.7 138.191 113.651 138.471C113.602 138.75 113.644 139.058 113.82 139.289C113.588 139.506 113.357 139.723 113.139 139.947C112.971 140.114 112.796 140.296 112.725 140.527C112.655 140.758 112.711 141.045 112.922 141.157C113.097 141.255 113.308 141.206 113.49 141.129C113.672 141.052 113.848 140.947 114.037 140.919C113.792 141.164 113.581 141.45 113.427 141.758C113.308 142.003 113.23 142.318 113.406 142.528C113.553 142.702 113.827 142.723 114.037 142.632C114.248 142.542 114.409 142.367 114.563 142.199C114.823 141.919 115.082 141.632 115.335 141.352C115.545 141.129 115.756 140.898 115.896 140.625C116.036 140.352 116.113 140.03 116.022 139.737C116.008 139.688 115.987 139.639 116.001 139.59C116.015 139.527 116.064 139.478 116.113 139.436C116.485 139.1 116.696 138.583 116.654 138.079C117.551 137.617 118.028 136.484 117.734 135.519C117.72 135.484 117.713 135.442 117.72 135.407C117.727 135.379 117.755 135.351 117.776 135.33C118.014 135.085 118.239 134.82 118.379 134.505C118.59 134.015 118.477 132.791 117.664 133.022C117.334 133.113 117.067 133.456 116.829 133.686C116.52 133.987 116.219 134.288 115.91 134.582C115.566 134.924 115.216 135.26 114.872 135.596Z" fill="#FFDDC0"/>
<path d="M114.353 137.869C114.17 137.869 114.016 137.813 113.897 137.701C113.581 137.408 113.553 136.925 113.82 136.554C114.535 135.568 115.51 134.61 116.443 133.714C116.499 133.658 116.569 133.589 116.633 133.519C116.962 133.169 117.411 132.686 117.944 132.854C118.498 133.029 118.863 133.693 118.702 134.253C118.618 134.554 118.414 134.792 118.232 134.994C117.587 135.701 116.836 136.316 116.113 136.911C115.714 137.24 115.3 137.575 114.795 137.778C114.64 137.841 114.493 137.869 114.353 137.869ZM117.734 133.246C117.474 133.246 117.187 133.554 116.948 133.812C116.878 133.889 116.808 133.966 116.745 134.029C115.826 134.911 114.872 135.855 114.17 136.813C114.023 137.009 114.037 137.254 114.191 137.401C114.283 137.484 114.486 137.45 114.64 137.387C115.082 137.212 115.468 136.89 115.847 136.582C116.555 135.995 117.292 135.393 117.923 134.708C118.071 134.547 118.239 134.351 118.295 134.141C118.386 133.812 118.148 133.372 117.818 133.267C117.79 133.246 117.762 133.246 117.734 133.246Z" fill="black"/>
<path d="M114.002 139.534C113.764 139.534 113.56 139.422 113.42 139.219C113.245 138.953 113.231 138.59 113.385 138.345C113.567 138.051 113.918 137.778 114.199 137.554L114.276 137.491C114.367 137.422 114.5 137.436 114.578 137.526C114.648 137.617 114.634 137.75 114.542 137.827L114.465 137.89C114.227 138.079 113.89 138.338 113.75 138.569C113.687 138.674 113.694 138.862 113.778 138.988C113.841 139.086 113.932 139.128 114.051 139.107C114.241 139.079 114.416 139.023 114.578 138.939C115.139 138.653 115.693 138.338 116.219 137.995C116.633 137.729 117.096 137.415 117.362 136.981C117.587 136.624 117.699 136.065 117.418 135.673C117.348 135.575 117.369 135.442 117.468 135.372C117.566 135.302 117.699 135.323 117.769 135.421C118.162 135.974 118.036 136.715 117.727 137.205C117.404 137.715 116.899 138.065 116.45 138.352C115.91 138.695 115.342 139.023 114.774 139.317C114.571 139.422 114.346 139.492 114.115 139.527C114.08 139.527 114.037 139.534 114.002 139.534Z" fill="black"/>
<path d="M113.294 141.464C113.132 141.464 112.992 141.422 112.873 141.331C112.613 141.143 112.543 140.807 112.578 140.681C112.768 140.002 113.378 139.499 113.89 139.142C113.988 139.072 114.121 139.1 114.192 139.191C114.262 139.289 114.234 139.422 114.142 139.492C113.701 139.807 113.174 140.226 113.006 140.765C113.013 140.814 113.055 140.947 113.16 141.003C113.329 141.087 113.651 140.989 114.044 140.723C114.774 140.233 115.405 139.723 115.966 139.17C116.128 139.016 116.303 138.834 116.415 138.632C116.52 138.436 116.541 138.233 116.478 138.079C116.436 137.967 116.485 137.848 116.598 137.799C116.71 137.757 116.829 137.806 116.878 137.918C116.99 138.191 116.962 138.527 116.794 138.834C116.654 139.093 116.45 139.296 116.268 139.471C115.686 140.044 115.04 140.569 114.29 141.073C113.897 141.331 113.567 141.464 113.294 141.464Z" fill="black"/>
<path d="M113.876 143.241C113.728 143.241 113.581 143.199 113.469 143.129C113.216 142.982 113.111 142.723 113.202 142.465C113.42 141.835 113.735 141.262 114.226 140.611C114.297 140.52 114.43 140.499 114.528 140.569C114.619 140.639 114.64 140.772 114.57 140.87C114.107 141.485 113.806 142.017 113.609 142.605C113.602 142.626 113.574 142.695 113.693 142.765C113.806 142.835 113.988 142.842 114.079 142.737C114.465 142.318 114.816 141.793 115.152 141.29C115.279 141.108 115.398 140.926 115.517 140.751C115.819 140.317 115.91 140.01 115.805 139.772C115.756 139.667 115.805 139.541 115.91 139.492C116.015 139.443 116.141 139.492 116.19 139.597C116.415 140.101 116.113 140.632 115.861 140.989C115.742 141.157 115.622 141.339 115.496 141.52C115.145 142.038 114.788 142.577 114.381 143.017C114.247 143.178 114.058 143.241 113.876 143.241Z" fill="black"/>
<path d="M66.3948 128.322C65.2865 128.322 64.1782 128.14 63.14 127.776C60.6218 126.895 58.4684 124.915 57.3741 122.488C57.325 122.383 57.3741 122.257 57.4793 122.208C57.5845 122.159 57.7108 122.208 57.7599 122.313C58.8051 124.636 60.8673 126.531 63.2733 127.37C65.6863 128.217 68.4781 128.021 70.7508 126.86C71.6276 126.412 72.2589 125.909 72.6798 125.314C73.1848 124.608 73.3672 123.754 73.1638 123.041C73.1287 122.929 73.1989 122.81 73.3111 122.775C73.4233 122.74 73.5426 122.81 73.5776 122.922C73.8161 123.761 73.6127 124.747 73.0305 125.559C72.5676 126.209 71.8871 126.755 70.9472 127.237C69.5583 127.958 67.9801 128.322 66.3948 128.322Z" fill="black"/>
<path d="M55.2065 138.548C55.1013 138.548 55.0031 138.464 54.9961 138.359C54.926 137.715 54.933 137.498 54.947 137.135C54.954 136.967 54.961 136.764 54.968 136.47C55.0171 131.679 53.3968 127.412 51.7694 125.314C51.6993 125.223 51.7133 125.09 51.8115 125.013C51.9027 124.943 52.036 124.957 52.1131 125.055C53.7826 127.216 55.445 131.588 55.4029 136.477C55.4029 136.778 55.3889 136.981 55.3819 137.156C55.3679 137.505 55.3609 137.701 55.424 138.317C55.438 138.436 55.3538 138.541 55.2346 138.555C55.2206 138.548 55.2136 138.548 55.2065 138.548Z" fill="black"/>
<path d="M58.363 139.527C58.2367 139.527 58.1455 139.429 58.1455 139.31C58.2648 133.575 57.7247 128.755 56.3358 123.188C56.3077 123.076 56.3779 122.957 56.4901 122.929C56.6023 122.901 56.7216 122.971 56.7496 123.083C58.1455 128.685 58.6927 133.54 58.5734 139.317C58.5734 139.436 58.4752 139.527 58.363 139.527Z" fill="black"/>
<path d="M84.5134 144.199C84.4152 144.199 84.324 144.129 84.303 144.024C82.879 136.379 79.9049 131.399 74.1951 123.754C74.1249 123.656 74.146 123.523 74.2372 123.453C74.3354 123.384 74.4686 123.405 74.5388 123.495C80.2907 131.196 83.2859 136.219 84.7239 143.947C84.7449 144.066 84.6677 144.171 84.5555 144.199C84.5415 144.192 84.5274 144.199 84.5134 144.199Z" fill="black"/>
<path d="M87.9786 143.738C87.8804 143.738 87.7963 143.675 87.7682 143.577C86.4144 137.918 84.1768 132.364 81.1044 127.077C81.0483 126.972 81.0834 126.846 81.1816 126.783C81.2868 126.727 81.4131 126.762 81.4762 126.86C84.5696 132.183 86.8212 137.778 88.1891 143.472C88.2171 143.584 88.147 143.703 88.0277 143.731C88.0137 143.738 87.9927 143.738 87.9786 143.738Z" fill="black"/>
<path d="M49.2023 148.375C48.2062 146.822 44.5586 144.101 44.1658 144.017C43.773 143.933 43.3101 144.066 43.1277 144.416C43.0365 144.598 43.0225 144.808 43.0225 145.011C43.0365 146.032 43.2189 146.822 43.8151 147.648L44.8322 149.354C45.1619 149.732 45.4705 148.655 45.9686 149.053C45.8844 149.005 45.0917 147.676 45.0076 147.641C44.1869 147.347 43.3521 147.445 43.5977 148.375C43.7099 148.788 44.0746 149.326 44.3692 149.634C44.8532 150.145 45.232 150.746 45.7862 151.187L44.6498 149.949C44.3482 150.124 43.5135 150.928 43.6047 151.264C43.6538 151.453 43.773 151.62 43.8993 151.774C44.1448 152.068 44.4324 152.32 44.713 152.565C44.8182 152.656 44.9234 152.747 45.0286 152.845L44.1378 152.229C43.7029 152.264 43.4293 152.963 43.5485 153.271C43.6678 153.579 44.0606 153.971 44.2851 154.215C44.6148 154.572 45.0426 154.971 45.3723 155.321C45.723 155.705 46.3894 156.09 46.9015 156.195C47.0839 156.23 47.4556 156.076 47.5679 155.929C47.8555 155.558 47.3294 154.726 47.2031 154.341L46.7893 154.055C47.1189 154.208 47.4626 154.32 47.8274 154.369C47.9466 154.383 48.0729 154.39 48.1711 154.327C48.2833 154.25 48.3254 154.104 48.3465 153.971C48.3886 153.698 48.3465 153.054 47.7011 152.509L47.6801 152.495C47.7292 152.516 47.7853 152.537 47.8344 152.551C48.0308 152.614 48.2413 152.663 48.4307 152.579C48.606 152.502 48.7182 152.32 48.7603 152.138C48.8796 151.669 48.6551 151.194 48.4236 150.774C48.2272 150.424 48.0168 150.075 47.7432 149.774C47.4907 149.487 47.1891 149.249 46.8945 149.019C46.8173 148.956 46.7331 148.893 46.656 148.83C47.1119 149.165 47.5328 149.48 47.8484 149.739C48.3745 150.173 49.1602 150.361 49.4548 149.746C49.5039 149.641 49.5389 149.522 49.553 149.403C49.581 149.025 49.3987 148.683 49.2023 148.375Z" fill="#FFDDC0"/>
<path d="M47.8276 154.677C47.7855 154.677 47.7434 154.677 47.7013 154.67C46.579 154.523 45.7303 153.761 44.9096 153.026C44.7973 152.928 44.6851 152.83 44.5799 152.733C44.2923 152.481 43.9977 152.222 43.7452 151.914C43.6119 151.76 43.4015 151.404 43.4015 151.131C43.3944 150.515 43.8293 150.033 44.5448 149.865C44.657 149.837 44.7763 149.907 44.8044 150.026C44.8324 150.138 44.7623 150.256 44.643 150.284C44.3975 150.34 43.8223 150.543 43.8293 151.131C43.8293 151.257 43.9626 151.515 44.0748 151.648C44.3063 151.928 44.5939 152.18 44.8675 152.418C44.9797 152.516 45.0919 152.614 45.2042 152.719C45.9758 153.411 46.7754 154.124 47.7645 154.257C47.8557 154.271 47.9679 154.257 48.003 154.208C48.2765 153.824 48.1924 153.348 46.9017 152.285C46.8105 152.208 46.7965 152.075 46.8736 151.984C46.9508 151.893 47.0841 151.879 47.1753 151.956C48.1362 152.754 48.9499 153.607 48.3537 154.453C48.2415 154.593 48.0521 154.677 47.8276 154.677Z" fill="black"/>
<path d="M48.8164 150.34C48.4096 150.34 47.9887 150.124 47.7081 149.893C47.4135 149.655 47.0137 149.354 46.5928 149.046C45.5968 148.312 44.4745 147.473 43.8081 146.717C43.7309 146.626 43.7379 146.493 43.8291 146.417C43.9203 146.34 44.0536 146.347 44.1307 146.437C44.7691 147.158 45.9194 148.018 46.8454 148.704C47.2732 149.018 47.6731 149.319 47.9747 149.564C48.2903 149.823 48.6761 149.956 48.9427 149.9C49.083 149.872 49.1882 149.781 49.2584 149.641C49.3004 149.557 49.3285 149.466 49.3355 149.375C49.3636 149.06 49.2513 148.739 49.0479 148.522C48.7323 148.193 48.4587 147.906 48.2132 147.648C46.8033 146.172 46.3333 145.675 45.0847 144.752C44.7971 144.542 44.4745 144.304 44.1237 144.227C43.8361 144.164 43.4573 144.248 43.3171 144.514C43.2469 144.654 43.2329 144.829 43.2399 145.004C43.2539 146.081 43.4644 146.787 43.9975 147.522C44.0676 147.62 44.0466 147.752 43.9484 147.822C43.8502 147.892 43.7169 147.871 43.6467 147.773C43.0716 146.969 42.826 146.172 42.812 145.011C42.812 144.794 42.819 144.542 42.9383 144.318C43.1768 143.863 43.759 143.717 44.2079 143.815C44.6498 143.905 45.0146 144.178 45.3372 144.416C46.6139 145.36 47.0979 145.864 48.5218 147.361C48.7673 147.62 49.0409 147.906 49.3566 148.235C49.6442 148.536 49.7985 148.977 49.7634 149.417C49.7494 149.564 49.7143 149.704 49.6441 149.837C49.5179 150.096 49.3075 150.263 49.0339 150.326C48.9637 150.333 48.8936 150.34 48.8164 150.34Z" fill="black"/>
<path d="M48.059 152.872C47.9468 152.872 47.8416 152.851 47.7504 152.809C47.0629 152.523 45.5198 151.173 44.5097 150.089C44.2852 149.844 43.5276 149.018 43.3944 148.522C43.2541 147.99 43.4294 147.696 43.5978 147.536C43.9134 147.249 44.4816 147.207 45.0849 147.424C45.3935 147.536 45.653 147.738 45.8845 147.92C46.2703 148.221 48.3326 150.473 48.543 150.851C48.5921 150.942 48.6412 151.019 48.6903 151.096C48.8867 151.397 49.0831 151.711 48.9639 152.166C48.8937 152.439 48.7254 152.656 48.5079 152.747C48.3606 152.837 48.2063 152.872 48.059 152.872ZM43.8082 148.424C43.8854 148.718 44.3764 149.333 44.8183 149.809C45.9056 150.963 47.3505 152.187 47.9187 152.425C48.0239 152.474 48.1853 152.453 48.3466 152.383C48.4448 152.341 48.522 152.229 48.557 152.082C48.6272 151.816 48.529 151.648 48.3326 151.348C48.2765 151.264 48.2203 151.173 48.1712 151.082C48.0029 150.781 45.9967 148.571 45.618 148.27C45.4075 148.102 45.1831 147.927 44.9376 147.836C44.4956 147.675 44.0748 147.682 43.8854 147.857C43.7661 147.976 43.7381 148.165 43.8082 148.424Z" fill="black"/>
<path d="M47.0559 156.531C47.0279 156.531 46.9998 156.531 46.9647 156.524C46.2984 156.454 45.7582 155.964 45.3654 155.6L44.166 154.502C43.8994 154.257 43.5908 153.978 43.4084 153.6C43.3312 153.446 43.1699 153.04 43.3172 152.614C43.4224 152.313 43.6469 152.082 43.9906 151.921C44.0958 151.872 44.2221 151.914 44.2782 152.019C44.3273 152.124 44.2852 152.25 44.18 152.306C43.9415 152.418 43.7942 152.572 43.724 152.754C43.6258 153.04 43.7521 153.334 43.7942 153.418C43.9415 153.719 44.208 153.964 44.4606 154.194L45.66 155.293C46.116 155.712 46.5298 156.055 47.0068 156.104C47.1121 156.118 47.2523 156.09 47.3155 155.978C47.5329 155.614 47.1612 154.908 46.3825 154.18C46.2984 154.104 46.2914 153.964 46.3755 153.88C46.4527 153.796 46.593 153.789 46.6772 153.873C47.6522 154.789 48.0239 155.635 47.6872 156.202C47.561 156.405 47.3225 156.531 47.0559 156.531Z" fill="black"/>
<path d="M72.8341 182.69C71.5785 182.69 70.2177 182.634 68.7306 182.508C64.3255 182.145 55.6625 179.102 52.1693 177.018C52.0501 176.948 51.8747 176.843 51.7905 176.654C51.6573 176.374 51.7975 176.073 51.8747 175.905L53.2285 172.954C53.2776 172.849 53.4039 172.8 53.5091 172.849C53.6143 172.898 53.6634 173.024 53.6143 173.129L52.2605 176.08C52.1904 176.227 52.1342 176.381 52.1763 176.472C52.2044 176.535 52.2886 176.591 52.3868 176.647C56.1606 178.899 64.7323 181.739 68.7656 182.075C80.1432 183.019 84.2186 179.955 86.1827 178.479C86.4773 178.256 86.7298 178.067 86.9543 177.934C87.4032 177.661 87.9153 177.29 87.8942 176.815C87.8872 176.682 87.8101 176.556 87.7259 176.409C87.6557 176.29 87.5786 176.164 87.5365 176.017C87.0735 174.535 86.8912 172.681 86.8841 172.604C86.8701 172.485 86.9613 172.38 87.0735 172.373C87.1858 172.359 87.298 172.45 87.305 172.562C87.305 172.583 87.4944 174.451 87.9433 175.892C87.9714 175.989 88.0345 176.087 88.0906 176.192C88.1888 176.36 88.3011 176.556 88.3151 176.787C88.3572 177.486 87.7259 177.962 87.1717 178.298C86.9683 178.424 86.7158 178.605 86.4352 178.822C84.6956 180.144 81.3076 182.69 72.8341 182.69Z" fill="black"/>
<path d="M49.9106 189.671C49.8404 184.278 50.6541 181.9 51.8536 178.41C52.0149 177.948 52.1763 177.465 52.3446 176.955C52.3797 176.843 52.3236 176.724 52.2113 176.682C52.0991 176.647 51.9799 176.703 51.9378 176.815C51.7694 177.325 51.6011 177.808 51.4468 178.263C50.2332 181.795 49.4125 184.201 49.4827 189.664H49.9106V189.671Z" fill="black"/>
<path d="M89.2132 189.671C89.136 185.586 88.7292 181.613 87.9646 177.57C87.9436 177.451 87.8313 177.381 87.7121 177.402C87.5928 177.423 87.5227 177.535 87.5437 177.654C88.3083 181.669 88.7152 185.614 88.7853 189.671H89.2132Z" fill="black"/>
</g>
<defs>
<clipPath id="clip0_5631_19699">
<rect width="127" height="128" fill="white" transform="translate(15.7808 61.6709)"/>
</clipPath>
</defs>
</svg>
