<svg width="177" height="177" viewBox="0 0 177 177" fill="none" xmlns="http://www.w3.org/2000/svg">
<mask id="mask0_3424_20802" style="mask-type:alpha" maskUnits="userSpaceOnUse" x="0" y="0" width="177" height="177">
<circle cx="88.5" cy="88.3281" r="87.7095" fill="#D9D9D9"/>
</mask>
<g mask="url(#mask0_3424_20802)">
<mask id="mask1_3424_20802" style="mask-type:alpha" maskUnits="userSpaceOnUse" x="-20" y="-14" width="197" height="191">
<rect x="-19.5" y="-13.1946" width="196.071" height="189.682" rx="8.66782" fill="#FF9D48"/>
</mask>
<g mask="url(#mask1_3424_20802)">
<rect x="-19.5" y="-14.8536" width="196.071" height="191.341" rx="8.66782" fill="#4EA692"/>
<ellipse opacity="0.1" cx="165.008" cy="-24.0716" rx="68.0884" ry="62.5322" fill="#F5F7F8"/>
<ellipse opacity="0.1" cx="165.009" cy="-24.0713" rx="46.3299" ry="42.5493" fill="white"/>
<ellipse opacity="0.1" cx="165.777" cy="-25.0947" rx="33.0096" ry="30.3159" fill="white"/>
</g>
<path d="M137.586 113.814C137.458 113.814 137.354 113.71 137.346 113.583C137.338 113.447 137.442 113.335 137.578 113.327C138.058 113.304 138.545 113.264 139.033 113.224C139.169 113.208 139.289 113.312 139.297 113.447C139.305 113.583 139.209 113.702 139.073 113.71C138.585 113.75 138.09 113.782 137.61 113.814C137.594 113.814 137.594 113.814 137.586 113.814Z" fill="white"/>
<path d="M112.878 123.6C112.742 123.6 112.63 123.488 112.63 123.353C112.63 123.217 112.742 123.114 112.878 123.114C113.886 123.114 114.902 123.066 115.894 122.978C116.03 122.962 116.15 123.066 116.158 123.201C116.166 123.337 116.07 123.457 115.934 123.465C114.926 123.552 113.894 123.6 112.878 123.6ZM109.839 123.473C109.831 123.473 109.823 123.473 109.815 123.473C108.791 123.385 107.767 123.249 106.783 123.074C106.648 123.05 106.56 122.922 106.584 122.795C106.608 122.659 106.736 122.571 106.863 122.595C107.831 122.771 108.839 122.898 109.855 122.994C109.991 123.002 110.087 123.122 110.079 123.257C110.071 123.377 109.967 123.473 109.839 123.473ZM103.864 122.388C103.84 122.388 103.816 122.388 103.8 122.38C102.744 122.077 101.776 121.726 100.913 121.335C100.793 121.279 100.737 121.136 100.793 121.016C100.849 120.896 100.993 120.841 101.113 120.896C101.952 121.279 102.904 121.622 103.936 121.917C104.064 121.957 104.136 122.093 104.104 122.22C104.064 122.324 103.968 122.388 103.864 122.388ZM98.4251 119.78C98.3691 119.78 98.3052 119.756 98.2652 119.716C97.8013 119.301 97.4813 118.871 97.3213 118.456C97.1374 117.961 97.0254 117.427 97.0014 116.853C96.9934 116.717 97.0974 116.605 97.2334 116.598C97.3693 116.59 97.4813 116.693 97.4893 116.829C97.5133 117.347 97.6093 117.834 97.7773 118.28C97.9052 118.623 98.1772 118.982 98.5851 119.349C98.6891 119.437 98.6971 119.596 98.6011 119.692C98.5611 119.748 98.4891 119.78 98.4251 119.78ZM97.8093 114.133C97.7773 114.133 97.7453 114.125 97.7213 114.117C97.5933 114.069 97.5373 113.926 97.5853 113.798C97.9692 112.849 98.5291 111.932 99.201 111.15C99.289 111.046 99.4409 111.038 99.5449 111.126C99.6489 111.214 99.6569 111.365 99.5689 111.469C98.929 112.211 98.4011 113.08 98.0332 113.981C98.0012 114.077 97.9052 114.133 97.8093 114.133ZM133.794 113.926C133.186 113.926 132.578 113.918 131.987 113.902C131.827 113.894 131.667 113.894 131.507 113.886C131.371 113.878 131.267 113.766 131.275 113.631C131.283 113.495 131.395 113.391 131.531 113.399C131.691 113.407 131.851 113.407 132.011 113.415C132.834 113.439 133.69 113.447 134.562 113.439C134.698 113.439 134.81 113.543 134.81 113.678C134.81 113.814 134.706 113.926 134.57 113.926C134.298 113.926 134.042 113.926 133.794 113.926ZM128.475 113.678C128.467 113.678 128.459 113.678 128.451 113.678C127.451 113.583 126.436 113.463 125.42 113.312C125.284 113.296 125.196 113.168 125.212 113.032C125.228 112.897 125.356 112.809 125.492 112.825C126.5 112.977 127.507 113.096 128.499 113.192C128.635 113.208 128.731 113.32 128.715 113.455C128.707 113.583 128.603 113.678 128.475 113.678ZM122.468 112.793C122.452 112.793 122.436 112.793 122.42 112.785C121.453 112.594 120.485 112.378 119.445 112.131C119.317 112.099 119.237 111.972 119.261 111.836C119.293 111.708 119.421 111.629 119.557 111.653C120.589 111.9 121.557 112.107 122.516 112.299C122.644 112.323 122.732 112.45 122.708 112.586C122.684 112.713 122.58 112.793 122.468 112.793ZM116.55 111.389C116.526 111.389 116.51 111.389 116.486 111.381C115.654 111.158 114.846 110.935 114.07 110.719L113.558 110.576C113.43 110.544 113.35 110.408 113.39 110.273C113.43 110.145 113.558 110.065 113.694 110.105L114.206 110.249C114.982 110.464 115.79 110.688 116.622 110.911C116.75 110.943 116.83 111.078 116.798 111.206C116.758 111.318 116.662 111.389 116.55 111.389ZM110.687 109.802C110.671 109.802 110.647 109.802 110.631 109.794C109.471 109.507 108.527 109.308 107.679 109.172C107.543 109.148 107.455 109.029 107.479 108.893C107.503 108.757 107.623 108.67 107.759 108.694C108.623 108.829 109.575 109.029 110.751 109.324C110.879 109.356 110.959 109.491 110.927 109.619C110.895 109.73 110.791 109.802 110.687 109.802ZM101.752 109.691C101.664 109.691 101.577 109.643 101.537 109.555C101.481 109.435 101.529 109.292 101.649 109.228C102.544 108.789 103.536 108.55 104.672 108.486C104.8 108.478 104.92 108.582 104.928 108.718C104.936 108.853 104.832 108.965 104.696 108.973C103.624 109.029 102.696 109.252 101.856 109.667C101.824 109.683 101.792 109.691 101.752 109.691Z" fill="white"/>
<path d="M118.933 123.058C118.821 123.058 118.717 122.978 118.693 122.858C118.669 122.723 118.757 122.603 118.885 122.571C119.365 122.484 119.845 122.388 120.309 122.276C120.437 122.244 120.573 122.324 120.605 122.46C120.637 122.587 120.557 122.723 120.421 122.755C119.949 122.866 119.461 122.962 118.973 123.058C118.965 123.058 118.949 123.058 118.933 123.058Z" fill="white"/>
<path d="M38.8207 102.871C38.7648 102.871 38.7088 102.856 38.6608 102.816C38.2769 102.489 37.9089 102.146 37.573 101.803C37.477 101.707 37.485 101.555 37.581 101.46C37.677 101.364 37.8289 101.372 37.9249 101.468C38.2449 101.795 38.6048 102.13 38.9807 102.449C39.0847 102.536 39.0927 102.688 39.0047 102.792C38.9567 102.848 38.8847 102.871 38.8207 102.871Z" fill="white"/>
<path d="M146.024 112.769C145.912 112.769 145.808 112.689 145.784 112.57C145.76 112.434 145.848 112.307 145.976 112.283C146.952 112.091 147.903 111.876 148.807 111.645C148.935 111.613 149.071 111.692 149.103 111.82C149.135 111.948 149.055 112.083 148.927 112.115C148.015 112.346 147.048 112.562 146.064 112.753C146.056 112.769 146.04 112.769 146.024 112.769ZM151.671 111.31C151.567 111.31 151.471 111.246 151.439 111.142C151.399 111.015 151.463 110.879 151.591 110.831C152.551 110.512 153.462 110.161 154.286 109.786C154.406 109.73 154.55 109.786 154.606 109.906C154.662 110.026 154.606 110.169 154.486 110.225C153.638 110.6 152.718 110.959 151.743 111.286C151.719 111.31 151.695 111.31 151.671 111.31ZM60.4886 110.193C59.4808 110.177 58.497 110.137 57.5532 110.073C57.4172 110.065 57.3212 109.946 57.3292 109.81C57.3372 109.675 57.4572 109.579 57.5931 109.587C58.529 109.651 59.5048 109.691 60.4966 109.707C60.6325 109.707 60.7365 109.818 60.7365 109.954C60.7285 110.089 60.6166 110.193 60.4886 110.193ZM63.4 110.161C63.272 110.161 63.1601 110.057 63.1601 109.93C63.1521 109.794 63.264 109.683 63.392 109.675C64.3278 109.643 65.3036 109.579 66.2954 109.507C66.4314 109.499 66.5434 109.595 66.5594 109.73C66.5674 109.866 66.4714 109.978 66.3354 109.994C65.3436 110.073 64.3598 110.129 63.416 110.169C63.408 110.161 63.408 110.161 63.4 110.161ZM54.6657 109.77C54.6577 109.77 54.6417 109.77 54.6337 109.77C53.6419 109.627 52.6741 109.451 51.7463 109.236C51.6183 109.204 51.5303 109.076 51.5623 108.941C51.5943 108.813 51.7223 108.726 51.8583 108.757C52.7701 108.965 53.7299 109.14 54.7057 109.284C54.8417 109.3 54.9297 109.427 54.9137 109.563C54.8897 109.683 54.7857 109.77 54.6657 109.77ZM69.2229 109.699C69.1029 109.699 68.9989 109.611 68.9829 109.483C68.9669 109.348 69.0629 109.228 69.1989 109.212C70.1347 109.1 71.1025 108.973 72.0863 108.829C72.2223 108.813 72.3423 108.901 72.3662 109.037C72.3822 109.172 72.2943 109.292 72.1583 109.316C71.1745 109.459 70.1987 109.587 69.2549 109.699C69.2389 109.699 69.2309 109.699 69.2229 109.699ZM156.974 108.901C156.894 108.901 156.814 108.861 156.766 108.789C156.694 108.678 156.726 108.526 156.846 108.454C157.718 107.912 158.477 107.322 159.109 106.708C159.205 106.612 159.357 106.612 159.453 106.708C159.549 106.803 159.549 106.955 159.453 107.051C158.797 107.689 158.013 108.303 157.11 108.861C157.062 108.893 157.014 108.901 156.974 108.901ZM74.9897 108.853C74.8698 108.853 74.7738 108.773 74.7498 108.654C74.7258 108.518 74.8138 108.399 74.9497 108.375C75.8856 108.215 76.8454 108.032 77.8132 107.84C77.9492 107.816 78.0771 107.896 78.1011 108.032C78.1251 108.167 78.0451 108.295 77.9092 108.319C76.9414 108.51 75.9735 108.694 75.0377 108.853C75.0217 108.853 75.0057 108.853 74.9897 108.853ZM48.9868 108.462C48.9628 108.462 48.9388 108.454 48.9068 108.446C47.971 108.135 47.0512 107.776 46.1634 107.378C46.0434 107.322 45.9874 107.178 46.0434 107.059C46.0994 106.939 46.2434 106.883 46.3633 106.939C47.2272 107.33 48.139 107.681 49.0588 107.984C49.1868 108.024 49.2588 108.167 49.2108 108.295C49.1868 108.399 49.0908 108.462 48.9868 108.462ZM80.7166 107.721C80.6046 107.721 80.5007 107.641 80.4767 107.529C80.4447 107.402 80.5326 107.266 80.6606 107.242C81.5884 107.035 82.5403 106.819 83.5001 106.588C83.628 106.556 83.764 106.636 83.796 106.772C83.828 106.899 83.748 107.035 83.612 107.067C82.6522 107.298 81.6924 107.513 80.7646 107.721C80.7566 107.721 80.7326 107.721 80.7166 107.721ZM86.3955 106.365C86.2835 106.365 86.1875 106.293 86.1555 106.181C86.1235 106.054 86.2035 105.918 86.3315 105.886C87.2513 105.647 88.2031 105.4 89.147 105.144C89.2749 105.113 89.4109 105.184 89.4429 105.312C89.4749 105.44 89.4029 105.575 89.2749 105.607C88.3231 105.862 87.3713 106.118 86.4515 106.357C86.4355 106.365 86.4115 106.365 86.3955 106.365ZM43.6759 106.086C43.6359 106.086 43.5959 106.078 43.5559 106.054C42.5961 105.527 41.7642 105.033 41.0284 104.562C40.9164 104.49 40.8844 104.339 40.9564 104.227C41.0284 104.116 41.1804 104.084 41.2923 104.155C42.0202 104.626 42.836 105.105 43.7879 105.631C43.9078 105.695 43.9478 105.846 43.8838 105.958C43.8438 106.038 43.7639 106.086 43.6759 106.086ZM92.0264 104.833C91.9224 104.833 91.8264 104.762 91.7944 104.658C91.7544 104.53 91.8344 104.395 91.9624 104.355C92.8822 104.092 93.818 103.813 94.7619 103.533C94.8898 103.494 95.0258 103.565 95.0658 103.693C95.1058 103.821 95.0338 103.956 94.9058 103.996C93.962 104.275 93.0182 104.554 92.1064 104.817C92.0664 104.833 92.0424 104.833 92.0264 104.833ZM160.997 104.794C160.957 104.794 160.925 104.786 160.893 104.77C160.773 104.714 160.725 104.562 160.781 104.443C160.957 104.092 161.093 103.725 161.205 103.358C161.357 102.832 161.461 102.289 161.509 101.731C161.517 101.595 161.645 101.5 161.773 101.508C161.909 101.516 162.005 101.635 161.997 101.771C161.949 102.353 161.837 102.935 161.677 103.494C161.565 103.884 161.413 104.275 161.221 104.658C161.173 104.746 161.085 104.794 160.997 104.794ZM97.6173 103.159C97.5133 103.159 97.4173 103.095 97.3853 102.991C97.3454 102.863 97.4173 102.728 97.5453 102.688C98.4571 102.401 99.3849 102.114 100.321 101.803C100.449 101.763 100.585 101.835 100.625 101.962C100.665 102.09 100.593 102.225 100.465 102.265C99.5209 102.568 98.5931 102.863 97.6813 103.151C97.6653 103.159 97.6413 103.159 97.6173 103.159ZM103.168 101.372C103.064 101.372 102.968 101.308 102.936 101.205C102.896 101.077 102.96 100.941 103.088 100.893C103.984 100.59 104.912 100.271 105.84 99.9364C105.968 99.8885 106.104 99.9603 106.152 100.08C106.2 100.208 106.128 100.343 106.008 100.391C105.072 100.726 104.144 101.045 103.248 101.348C103.216 101.364 103.192 101.372 103.168 101.372ZM108.663 99.41C108.567 99.41 108.471 99.3462 108.431 99.2505C108.383 99.1229 108.447 98.9873 108.575 98.9394C109.455 98.6124 110.375 98.2615 111.295 97.9026C111.423 97.8547 111.559 97.9185 111.615 98.0382C111.663 98.1658 111.599 98.3014 111.479 98.3572C110.551 98.7161 109.631 99.067 108.751 99.402C108.719 99.402 108.695 99.41 108.663 99.41ZM161.533 99.1069C161.421 99.1069 161.317 99.0271 161.293 98.9155C161.101 98.0302 160.781 97.1289 160.349 96.2277C160.293 96.1081 160.341 95.9645 160.461 95.9007C160.581 95.8449 160.725 95.8927 160.789 96.0123C161.237 96.9455 161.565 97.8866 161.765 98.8038C161.797 98.9314 161.709 99.067 161.581 99.091C161.573 99.1069 161.557 99.1069 161.533 99.1069ZM114.102 97.2964C114.006 97.2964 113.918 97.2406 113.878 97.1449C113.83 97.0173 113.886 96.8817 114.014 96.8259C114.918 96.467 115.814 96.1001 116.718 95.7332C116.846 95.6853 116.981 95.7412 117.037 95.8688C117.085 95.9964 117.029 96.132 116.902 96.1878C115.998 96.5547 115.102 96.9216 114.198 97.2885C114.166 97.2885 114.134 97.2964 114.102 97.2964ZM119.501 95.0872C119.405 95.0872 119.317 95.0313 119.277 94.9356C119.229 94.808 119.285 94.6724 119.405 94.6166C120.301 94.2418 121.197 93.8669 122.101 93.492C122.228 93.4442 122.364 93.5 122.42 93.6197C122.468 93.7473 122.412 93.8829 122.292 93.9387C121.397 94.3135 120.501 94.6884 119.597 95.0632C119.565 95.0792 119.533 95.0872 119.501 95.0872ZM159.093 93.8669C159.013 93.8669 158.941 93.835 158.893 93.7632C158.349 92.9976 157.734 92.2558 157.054 91.546C156.958 91.4503 156.966 91.2908 157.062 91.203C157.158 91.1073 157.318 91.1153 157.406 91.211C158.093 91.9368 158.725 92.6945 159.285 93.4841C159.365 93.5957 159.341 93.7473 159.229 93.827C159.189 93.851 159.141 93.8669 159.093 93.8669ZM124.892 92.838C124.796 92.838 124.708 92.7822 124.668 92.6865C124.62 92.5589 124.676 92.4233 124.796 92.3675C125.692 91.9926 126.596 91.6178 127.491 91.2509C127.619 91.203 127.755 91.2589 127.811 91.3865C127.859 91.5141 127.803 91.6497 127.675 91.7055C126.78 92.0724 125.876 92.4472 124.98 92.8221C124.948 92.838 124.916 92.838 124.892 92.838ZM130.283 90.6208C130.187 90.6208 130.099 90.565 130.059 90.4693C130.011 90.3417 130.067 90.2061 130.195 90.1502C131.099 89.7834 132.003 89.4245 132.906 89.0656C133.034 89.0177 133.17 89.0735 133.226 89.2011C133.274 89.3288 133.218 89.4643 133.09 89.5202C132.187 89.8791 131.283 90.238 130.387 90.6049C130.347 90.6128 130.315 90.6208 130.283 90.6208ZM155.086 89.6558C155.03 89.6558 154.982 89.6398 154.934 89.5999C154.278 89.0815 153.606 88.6189 152.95 88.2281C152.814 88.1484 152.687 88.0766 152.551 88.0048C152.431 87.941 152.391 87.7895 152.455 87.6778C152.519 87.5582 152.671 87.5183 152.782 87.5821C152.918 87.6539 153.054 87.7336 153.198 87.8134C153.878 88.2201 154.566 88.6907 155.238 89.2251C155.342 89.3048 155.358 89.4643 155.278 89.568C155.222 89.6239 155.15 89.6558 155.086 89.6558ZM135.714 88.4913C135.618 88.4913 135.522 88.4275 135.482 88.3318C135.434 88.2042 135.498 88.0686 135.626 88.0207C136.626 87.6539 137.529 87.3508 138.401 87.0876C138.529 87.0477 138.665 87.1195 138.705 87.2471C138.745 87.3747 138.673 87.5103 138.545 87.5502C137.681 87.8134 136.786 88.1165 135.794 88.4754C135.77 88.4833 135.746 88.4913 135.714 88.4913ZM149.975 86.9201C149.951 86.9201 149.927 86.9201 149.903 86.9121C149.007 86.6489 148.063 86.4735 147.088 86.3937C146.952 86.3857 146.856 86.2661 146.864 86.1305C146.872 85.9949 146.992 85.8992 147.128 85.9072C148.135 85.9949 149.119 86.1704 150.039 86.4416C150.167 86.4814 150.239 86.617 150.207 86.7446C150.175 86.8563 150.079 86.9201 149.975 86.9201ZM141.305 86.8324C141.193 86.8324 141.089 86.7526 141.065 86.641C141.041 86.5133 141.121 86.3778 141.257 86.3538C142.265 86.1465 143.248 86.0029 144.176 85.9231C144.312 85.9072 144.432 86.0109 144.44 86.1465C144.448 86.2821 144.352 86.4017 144.216 86.4097C143.312 86.4814 142.353 86.625 141.361 86.8324C141.337 86.8324 141.321 86.8324 141.305 86.8324Z" fill="white"/>
<path d="M141.665 113.447C141.545 113.447 141.441 113.359 141.425 113.232C141.409 113.096 141.505 112.977 141.641 112.961C142.12 112.905 142.608 112.841 143.088 112.769C143.224 112.753 143.344 112.841 143.368 112.977C143.384 113.112 143.296 113.232 143.16 113.248C142.68 113.32 142.192 113.383 141.705 113.439C141.689 113.447 141.673 113.447 141.665 113.447Z" fill="white"/>
<path d="M121.693 78.777C121.677 78.777 121.661 78.777 121.645 78.769C121.165 78.6812 120.685 78.5935 120.205 78.5058C120.069 78.4819 119.981 78.3542 120.005 78.2266C120.029 78.091 120.157 78.0033 120.285 78.0272C120.765 78.115 121.245 78.2027 121.725 78.2904C121.861 78.3144 121.949 78.442 121.917 78.5776C121.909 78.6972 121.805 78.777 121.693 78.777Z" fill="white"/>
<path d="M34.3015 95.6614C34.1895 95.6614 34.0935 95.5897 34.0615 95.478C33.8376 94.5688 33.7256 93.6356 33.7256 92.7184V92.5589C33.7256 92.4233 33.8296 92.3196 33.9735 92.3196C34.1095 92.3196 34.2135 92.4313 34.2135 92.5669V92.7184C34.2135 93.5958 34.3175 94.489 34.5334 95.3663C34.5654 95.494 34.4854 95.6295 34.3575 95.6614C34.3415 95.6535 34.3175 95.6614 34.3015 95.6614ZM34.3815 89.9509C34.3575 89.9509 34.3415 89.9509 34.3175 89.9429C34.1895 89.911 34.1095 89.7754 34.1415 89.6478C34.3895 88.7306 34.7494 87.8134 35.2133 86.9201C35.2773 86.8005 35.4213 86.7526 35.5412 86.8164C35.6612 86.8803 35.7092 87.0238 35.6452 87.1435C35.1973 88.0048 34.8534 88.8901 34.6134 89.7754C34.5814 89.8791 34.4854 89.9509 34.3815 89.9509ZM36.9809 84.8385C36.933 84.8385 36.877 84.8225 36.837 84.7906C36.733 84.7109 36.709 84.5593 36.789 84.4477C37.3569 83.698 38.0127 82.9642 38.7246 82.2624C38.8206 82.1666 38.9726 82.1666 39.0685 82.2624C39.1645 82.3581 39.1645 82.5096 39.0685 82.6053C38.3727 83.2912 37.7328 84.009 37.1809 84.7428C37.1249 84.8066 37.0529 84.8385 36.9809 84.8385ZM41.0682 80.7789C40.9962 80.7789 40.9242 80.747 40.8762 80.6832C40.7962 80.5795 40.8122 80.4279 40.9162 80.3402C41.668 79.758 42.4759 79.1997 43.3157 78.6813C43.4277 78.6095 43.5797 78.6494 43.6516 78.761C43.7236 78.8727 43.6836 79.0242 43.5717 79.096C42.7478 79.6065 41.956 80.1568 41.2121 80.7231C41.1721 80.7629 41.1241 80.7789 41.0682 80.7789ZM117.405 78.0033C117.389 78.0033 117.373 78.0033 117.365 78.0033C116.413 77.8359 115.47 77.6684 114.518 77.5089C114.382 77.4849 114.294 77.3573 114.318 77.2297C114.342 77.0941 114.47 77.0064 114.598 77.0303C115.55 77.1898 116.501 77.3573 117.445 77.5248C117.581 77.5487 117.669 77.6763 117.645 77.804C117.621 77.9236 117.517 78.0033 117.405 78.0033ZM45.9792 77.7402C45.8912 77.7402 45.8032 77.6923 45.7632 77.6046C45.7072 77.4849 45.7552 77.3414 45.8752 77.2776C46.755 76.8469 47.6589 76.464 48.5547 76.1291C48.6827 76.0812 48.8186 76.145 48.8666 76.2726C48.9146 76.4002 48.8506 76.5358 48.7226 76.5837C47.8428 76.9107 46.955 77.2855 46.0832 77.7083C46.0512 77.7322 46.0112 77.7402 45.9792 77.7402ZM111.702 77.0303C111.686 77.0303 111.678 77.0303 111.662 77.0303C110.711 76.8708 109.759 76.7193 108.807 76.5677C108.671 76.5438 108.583 76.4242 108.607 76.2886C108.631 76.153 108.751 76.0653 108.887 76.0892C109.839 76.2407 110.79 76.3923 111.742 76.5518C111.878 76.5757 111.966 76.6953 111.942 76.8309C111.918 76.9426 111.814 77.0303 111.702 77.0303ZM105.983 76.1291C105.967 76.1291 105.959 76.1291 105.943 76.1291C104.992 75.9855 104.04 75.8499 103.08 75.7143C102.944 75.6984 102.856 75.5708 102.872 75.4352C102.888 75.2996 103.016 75.2119 103.144 75.2278C104.096 75.3634 105.056 75.507 106.007 75.6505C106.143 75.6745 106.231 75.7941 106.215 75.9297C106.207 76.0413 106.103 76.1291 105.983 76.1291ZM51.3861 75.7143C51.2822 75.7143 51.1862 75.6426 51.1542 75.5389C51.1142 75.4113 51.1942 75.2757 51.3221 75.2358C52.234 74.9726 53.1778 74.7254 54.1376 74.502C54.2656 74.4701 54.4015 74.5499 54.4335 74.6855C54.4655 74.8131 54.3855 74.9487 54.2496 74.9806C53.3058 75.1959 52.3699 75.4432 51.4661 75.7064C51.4341 75.7064 51.4101 75.7143 51.3861 75.7143ZM100.257 75.3156C100.249 75.3156 100.233 75.3156 100.225 75.3156C99.2727 75.1879 98.3129 75.0683 97.3611 74.9487C97.2251 74.9327 97.1292 74.8131 97.1452 74.6775C97.1612 74.5419 97.2811 74.4542 97.4171 74.4622C98.3769 74.5818 99.3287 74.7014 100.289 74.829C100.425 74.845 100.513 74.9726 100.497 75.1002C100.481 75.2278 100.377 75.3156 100.257 75.3156ZM94.5137 74.6137C94.5057 74.6137 94.4977 74.6137 94.4897 74.6137C93.5299 74.502 92.5621 74.4063 91.6182 74.3106C91.4823 74.2947 91.3863 74.175 91.4023 74.0474C91.4183 73.9118 91.5383 73.8161 91.6662 73.8321C92.6101 73.9278 93.5779 74.0315 94.5457 74.1352C94.6816 74.1511 94.7776 74.2707 94.7616 74.4063C94.7376 74.518 94.6337 74.6137 94.5137 74.6137ZM57.017 74.3984C56.905 74.3984 56.8011 74.3186 56.7771 74.199C56.7531 74.0634 56.8411 73.9437 56.977 73.9198C57.9049 73.7523 58.8727 73.6008 59.8485 73.4732C59.9844 73.4572 60.1044 73.545 60.1204 73.6805C60.1364 73.8161 60.0484 73.9358 59.9125 73.9517C58.9446 74.0793 57.9848 74.2309 57.065 74.3984C57.049 74.3984 57.033 74.3984 57.017 74.3984ZM88.7548 74.0315C88.7468 74.0315 88.7388 74.0315 88.7308 74.0315C87.763 73.9437 86.7952 73.864 85.8514 73.7922C85.7154 73.7842 85.6194 73.6646 85.6274 73.529C85.6354 73.3934 85.7474 73.2897 85.8914 73.3057C86.8352 73.3775 87.803 73.4572 88.7788 73.545C88.9148 73.5529 89.0108 73.6726 89.0028 73.8082C88.9868 73.9358 88.8828 74.0315 88.7548 74.0315ZM62.7519 73.6327C62.6239 73.6327 62.5199 73.537 62.5119 73.4094C62.496 73.2738 62.5999 73.1542 62.7359 73.1462C63.6717 73.0584 64.6475 72.9867 65.6313 72.9308C65.7673 72.9149 65.8793 73.0265 65.8873 73.1621C65.8953 73.2977 65.7913 73.4094 65.6553 73.4173C64.6795 73.4732 63.7117 73.545 62.7759 73.6327C62.7679 73.6327 62.7599 73.6327 62.7519 73.6327ZM82.9879 73.6008C82.9799 73.6008 82.9799 73.6008 82.9719 73.6008C82.0041 73.545 81.0363 73.4891 80.0845 73.4413C79.9485 73.4333 79.8446 73.3216 79.8526 73.1861C79.8606 73.0505 79.9725 72.9548 80.1085 72.9548C81.0603 73.0026 82.0361 73.0505 83.0039 73.1143C83.1399 73.1223 83.2439 73.2419 83.2359 73.3695C83.2199 73.5051 83.1159 73.6008 82.9879 73.6008ZM77.2051 73.3296C76.1973 73.2977 75.2295 73.2738 74.3096 73.2578C74.1737 73.2578 74.0697 73.1462 74.0697 73.0106C74.0697 72.875 74.1897 72.7713 74.3176 72.7713C75.2375 72.7873 76.2133 72.8112 77.2131 72.8431C77.349 72.8511 77.453 72.9627 77.445 73.0903C77.445 73.2259 77.333 73.3296 77.2051 73.3296ZM68.5268 73.2897C68.3988 73.2897 68.2868 73.1861 68.2868 73.0505C68.2868 72.9149 68.3908 72.8032 68.5268 72.8032C69.4546 72.7793 70.4304 72.7633 71.4222 72.7554C71.5582 72.7554 71.6702 72.867 71.6702 72.9946C71.6702 73.1302 71.5582 73.2419 71.4302 73.2419C70.4304 73.2419 69.4626 73.2578 68.5268 73.2897Z" fill="white"/>
<path d="M35.997 99.6493C35.917 99.6493 35.837 99.6094 35.789 99.5296C35.5251 99.099 35.2851 98.6603 35.0692 98.2296C35.0132 98.11 35.0612 97.9664 35.1812 97.9026C35.3011 97.8468 35.4451 97.8946 35.5091 98.0143C35.717 98.429 35.949 98.8597 36.205 99.2744C36.2769 99.3861 36.2369 99.5376 36.125 99.6094C36.085 99.6333 36.045 99.6493 35.997 99.6493Z" fill="white"/>
<path d="M36.7811 102.074C35.9733 102.074 35.3174 101.42 35.3174 100.614C35.3174 99.8088 35.9733 99.1548 36.7811 99.1548C37.5889 99.1548 38.2448 99.8088 38.2448 100.614C38.2448 101.42 37.5889 102.074 36.7811 102.074ZM36.7811 99.6493C36.2452 99.6493 35.8053 100.088 35.8053 100.622C35.8053 101.157 36.2452 101.595 36.7811 101.595C37.317 101.595 37.7569 101.157 37.7569 100.622C37.7569 100.08 37.317 99.6493 36.7811 99.6493Z" fill="white"/>
<path d="M140.273 115.01C139.465 115.01 138.817 114.356 138.817 113.551C138.817 112.745 139.473 112.091 140.273 112.091C141.08 112.091 141.736 112.745 141.736 113.551C141.728 114.356 141.072 115.01 140.273 115.01ZM140.273 112.586C139.737 112.586 139.305 113.024 139.305 113.559C139.305 114.093 139.745 114.532 140.273 114.532C140.809 114.532 141.248 114.093 141.248 113.559C141.24 113.024 140.809 112.586 140.273 112.586Z" fill="white"/>
<path d="M120.173 124.781C120.109 124.781 120.045 124.757 119.997 124.709C119.901 124.613 119.901 124.462 119.997 124.366L124.996 119.381C125.092 119.285 125.244 119.285 125.34 119.381C125.436 119.477 125.436 119.628 125.34 119.724L120.341 124.709C120.293 124.757 120.237 124.781 120.173 124.781Z" fill="white"/>
<path d="M125.163 124.781C125.099 124.781 125.036 124.757 124.988 124.709L119.988 119.724C119.893 119.628 119.893 119.477 119.988 119.381C120.084 119.285 120.236 119.285 120.332 119.381L125.331 124.366C125.427 124.462 125.427 124.613 125.331 124.709C125.291 124.757 125.227 124.781 125.163 124.781Z" fill="white"/>
<path d="M121.692 77.7641C121.484 77.7641 121.3 77.6445 121.22 77.4531C121.212 77.4212 120.732 76.0892 118.597 73.1223L118.557 73.0744C117.581 71.7186 116.373 70.0357 116.517 68.1774C116.717 65.6411 118.797 63.6073 121.34 63.4478C122.796 63.3601 124.172 63.8466 125.219 64.8356C126.259 65.8086 126.859 67.1804 126.859 68.6001C126.859 70.2431 125.867 71.6229 124.915 72.9628L124.772 73.1622C122.388 76.488 122.172 77.3813 122.164 77.4212C122.164 77.4371 122.156 77.4531 122.148 77.469C122.076 77.6365 121.892 77.7641 121.692 77.7641ZM121.692 63.9104C121.588 63.9104 121.484 63.9104 121.38 63.9184C119.069 64.062 117.197 65.9043 117.013 68.2013C116.877 69.8842 118.029 71.4873 118.957 72.7793L118.997 72.8272C121.18 75.8659 121.66 77.2138 121.676 77.2696L121.7 77.2776C121.748 77.0862 122.084 76.0733 124.38 72.8591L124.524 72.6597C125.435 71.3916 126.379 70.0756 126.379 68.5842C126.379 67.2761 125.851 66.0638 124.899 65.1706C124.02 64.3571 122.892 63.9104 121.692 63.9104Z" fill="white"/>
<path d="M121.692 71.4474C120.108 71.4474 118.829 70.1633 118.829 68.5921C118.829 67.0129 120.116 65.7368 121.692 65.7368C123.276 65.7368 124.555 67.0209 124.555 68.5921C124.555 70.1633 123.268 71.4474 121.692 71.4474ZM121.692 66.2233C120.38 66.2233 119.317 67.2841 119.317 68.5921C119.317 69.9001 120.38 70.9609 121.692 70.9609C123.004 70.9609 124.068 69.9001 124.068 68.5921C124.068 67.2841 123.004 66.2233 121.692 66.2233Z" fill="white"/>
<path d="M62.804 98.9235C63.7558 98.4449 64.4517 97.3842 64.9636 96.2437C58.2209 95.6216 51.9822 96.1958 49.8146 97.1609C49.5906 97.2566 47.823 98.5167 47.639 98.6284C45.7034 99.745 45.8633 102.951 44.6636 107.354C44.3996 108.335 40.4084 123.169 38.9367 141.027C38.5928 145.182 39.2326 158.127 49.4306 158.948C52.4781 159.195 59.6287 161.907 59.0688 157.01C57.973 147.471 58.3649 130.044 59.3967 118.233L53.5418 116.829L47.431 114.261L48.5428 135.316C47.815 135.3 47.0311 135.683 46.3113 135.691C44.5436 135.707 42.776 135.197 41.2802 134.256C40.9683 134.056 40.6484 133.817 40.5364 133.474C40.4484 133.195 40.5044 132.892 40.5604 132.605C41.4802 128.043 42.4 123.481 43.3118 118.918C43.8557 116.207 44.4076 113.479 45.4634 110.927C45.9593 109.715 46.5832 108.534 47.479 107.577C48.5108 106.468 49.8546 105.703 51.2063 105.025C52.966 104.14 54.2377 103.573 55.1095 103.007C56.2853 102.241 56.1733 102.082 57.3971 101.651C58.6049 101.228 59.5007 101.444 60.2285 100.391C60.4685 100.048 61.1164 99.7051 61.5243 99.6253C61.6283 99.6094 61.7162 99.6094 61.8042 99.6333C61.8282 99.5615 61.8682 99.5057 61.9402 99.4499C62.2441 99.2744 62.5241 99.067 62.804 98.9235Z" fill="#6D597A"/>
<path d="M83.6639 98.8038C83.048 98.5885 80.4725 97.7909 78.4729 97.4559L78.105 99.2425C78.105 99.2425 78.4649 99.5216 79.9046 100.455C79.9046 100.981 79.8486 101.476 79.7367 101.946C79.9206 101.547 80.0646 101.133 80.1526 100.702C82.7521 102.122 85.2956 103.693 88.023 104.833C87.6151 103.709 87.1432 102.552 86.9432 101.994C86.5673 100.909 84.7357 99.1787 83.6639 98.8038Z" fill="#6D597A"/>
<path d="M55.6773 160.296C55.6613 160.296 55.6453 160.296 55.6293 160.288C54.8294 160.137 54.0056 160.009 53.2137 159.881C48.5347 159.14 44.1195 158.43 41.3601 154.187C39.1445 150.773 38.3127 145.39 38.8166 137.733C39.4005 128.936 41.72 117.116 45.9032 101.611C46.759 98.445 48.0947 97.3284 50.9982 97.3284C51.1342 97.3284 51.2381 97.44 51.2381 97.5676C51.2381 97.7032 51.1262 97.8069 50.9982 97.8069C48.3347 97.8069 47.1669 98.7959 46.3751 101.731C38.6566 130.3 37.1929 146.881 41.76 153.916C44.3995 157.983 48.7186 158.669 53.2857 159.395C54.0776 159.522 54.9014 159.65 55.7093 159.802C55.8452 159.826 55.9332 159.953 55.9012 160.089C55.8932 160.216 55.7892 160.296 55.6773 160.296Z" fill="black"/>
<path d="M49.8146 97.4081C49.7106 97.4081 49.6226 97.3443 49.5826 97.2406C49.5426 97.113 49.6066 96.9774 49.7346 96.9295C53.006 95.805 57.6211 95.7332 65.0036 96.0044C65.1396 96.0123 65.2436 96.124 65.2356 96.2596C65.2276 96.3952 65.1236 96.5068 64.9796 96.4909C57.6611 96.2277 53.086 96.2915 49.8866 97.3921C49.8706 97.4001 49.8386 97.4081 49.8146 97.4081Z" fill="black"/>
<path d="M53.9014 100.861C53.7894 100.861 53.6854 100.782 53.6614 100.67C53.4055 99.5375 52.6296 98.6522 51.0619 97.7031C50.1821 97.1688 49.3903 97.3442 48.6304 98.2375C48.5424 98.3412 48.3905 98.3492 48.2865 98.2694C48.1825 98.1817 48.1745 98.0301 48.2545 97.9264C49.4063 96.5706 50.55 96.8258 51.3099 97.2884C52.9976 98.3093 53.8374 99.2903 54.1253 100.566C54.1573 100.694 54.0694 100.83 53.9414 100.854C53.9414 100.861 53.9174 100.861 53.9014 100.861Z" fill="black"/>
<path d="M87.8712 104.809C87.7592 104.809 87.6632 104.738 87.6313 104.626C87.2473 103.127 86.9274 102.441 86.6155 101.779C86.5115 101.555 86.4075 101.34 86.3115 101.101C86.2555 100.973 86.3195 100.838 86.4395 100.782C86.5675 100.726 86.7034 100.79 86.7594 100.909C86.8554 101.149 86.9594 101.356 87.0554 101.571C87.3753 102.257 87.7032 102.959 88.1032 104.498C88.1352 104.626 88.0552 104.762 87.9272 104.794C87.9112 104.802 87.8872 104.809 87.8712 104.809Z" fill="black"/>
<path d="M86.5354 101.244C86.4634 101.244 86.3914 101.212 86.3434 101.149C86.3354 101.133 86.3194 101.109 86.2954 101.077C85.5436 99.8725 83.9439 98.9075 81.8003 98.3571L77.8251 97.8068C77.6891 97.7909 77.6011 97.6633 77.6171 97.5356C77.6331 97.4001 77.7611 97.3123 77.8891 97.3283L81.8803 97.8866C81.8883 97.8866 81.8963 97.8866 81.9043 97.8946C84.1838 98.4688 85.8875 99.5136 86.7033 100.83L86.7273 100.869C86.7993 100.981 86.7753 101.133 86.6713 101.204C86.6313 101.236 86.5834 101.244 86.5354 101.244Z" fill="black"/>
<path d="M103.572 121.758C101.868 119.74 101.269 118.942 99.5249 116.917C94.07 110.568 92.7102 106.7 88.471 105.017C88.3191 104.953 88.1751 104.889 88.0231 104.826C85.2957 103.677 82.7522 102.106 80.1527 100.694C79.8647 102.114 79.0249 103.35 77.8971 104.275C77.2492 104.81 76.5054 105.232 75.7215 105.527C73.578 106.325 71.1864 106.213 68.9709 105.647C67.6031 105.296 66.2354 104.714 65.0916 103.884C64.0438 103.119 63.196 102.146 62.7401 100.933C62.5081 100.327 62.1562 99.5217 61.5083 99.6334C61.1004 99.7052 60.4525 100.056 60.2126 100.399C59.4847 101.444 58.5889 101.236 57.3811 101.659C56.1574 102.09 56.2694 102.249 55.0936 103.015C54.2298 103.581 52.958 104.148 51.1904 105.033C49.8386 105.711 48.4949 106.476 47.4631 107.585C46.5673 108.542 45.9514 109.723 45.4475 110.935C44.3917 113.487 43.8398 116.215 43.2959 118.926C42.3761 123.489 41.4563 128.051 40.5444 132.613C40.4885 132.9 40.4325 133.203 40.5204 133.482C40.6324 133.833 40.9524 134.072 41.2643 134.264C42.76 135.205 44.5277 135.707 46.2953 135.699C47.0152 135.691 47.799 135.308 48.5269 135.324L47.4151 114.269L53.5419 116.829L59.3967 118.241L89.0789 125.379L104.38 122.611C104.116 122.308 103.804 122.029 103.572 121.758Z" fill="white"/>
<path d="M49.1503 137.725C48.3425 137.151 47.6306 136.433 47.0467 135.628C46.1909 135.915 45.2231 135.867 44.3992 135.492L44.3433 135.643C44.3433 135.643 42.6316 145.047 44.3433 147.958C44.8632 148.843 45.551 149.84 46.5028 150.319C46.8308 150.486 47.0947 150.55 47.2867 150.406L47.3107 150.534C47.3827 150.534 47.4227 150.518 47.4227 150.518L47.3827 150.311C47.4387 150.247 47.4866 150.159 47.5266 150.048C47.8066 149.306 47.7746 148.428 47.9665 147.663C48.1345 147.001 48.4065 146.371 48.5584 145.709C48.7024 145.095 49.1023 143.643 49.1423 143.013C49.2703 140.979 49.0303 139.759 49.1503 137.725Z" fill="#FFDDC0"/>
<path d="M96.5493 123.959C96.2774 122.97 96.0134 121.973 95.7415 120.984C94.9097 117.906 93.8379 114.803 92.5021 111.9C92.2702 111.389 91.8543 110.759 91.6063 110.257C90.8065 108.646 89.9986 107.25 89.1988 105.647C89.0628 105.384 88.8868 105.097 88.6549 104.913C88.3989 104.706 87.991 104.586 87.6791 104.506C85.7035 103.988 84.3517 103.063 82.712 101.851C82.2881 101.539 81.8482 101.189 81.3203 101.149C81.2323 101.46 81.9122 102.082 82.0722 102.361C84.5197 106.692 87.6071 109.858 89.5347 114.444C90.4705 116.677 91.1344 118.009 91.8223 121.152C91.9662 121.79 92.2462 122.827 92.4061 123.465C92.4941 123.808 92.2942 124.581 92.6381 124.757C93.038 124.94 96.5653 123.999 96.5493 123.959Z" fill="#6D597A"/>
<path d="M78.105 99.2425L78.4729 97.456L78.6729 96.4989C78.6729 96.4989 79.6727 96.8099 80.5605 96.5786C80.6405 96.5547 80.7205 96.5308 80.8005 96.4989C82.6721 95.6295 85.2956 93.3246 86.4233 90.3337C86.9832 88.8423 87.3592 86.1624 87.5511 84.4158C87.6151 83.4826 88.6789 80.6832 88.6789 80.6832C88.6789 80.6832 88.4949 78.131 87.8711 76.6395C87.3752 75.3953 87.4312 74.2707 87.3752 74.0235C86.9353 72.5879 81.4403 71.7185 80.1286 73.21C79.8166 73.5848 78.5049 76.0732 77.3211 78.131C76.5693 79.439 76.5133 79.6224 75.1376 80.9304C73.138 82.7967 72.0742 83.4188 70.0826 84.352C68.5869 85.0379 67.1471 85.9072 67.1471 85.9072L66.1473 92.1362C66.1473 92.1362 65.9954 93.2368 65.6034 94.5688C65.4435 95.1111 65.2435 95.6854 64.9955 96.2437C64.4916 97.3842 63.7878 98.4449 62.836 98.9235C62.548 99.067 62.2681 99.2744 61.9641 99.4579C61.8922 99.5137 61.8522 99.5775 61.8282 99.6413C61.7642 99.8407 61.8842 100.088 61.9641 100.375C62.1001 100.878 62.732 101.484 63.0599 101.882C63.3239 102.209 63.6358 102.497 63.9238 102.792C63.9718 102.84 64.0277 102.895 64.0757 102.943C64.1717 103.039 64.2837 103.159 64.4117 103.286C64.7636 103.637 65.2035 104.044 65.5074 104.243C66.8592 105.113 68.8268 106.317 72.1701 106.317C72.954 106.317 73.7218 106.07 74.4897 105.87C76.0574 105.464 77.7691 104.953 78.8808 103.709C79.3048 103.23 79.6007 102.616 79.7607 101.922C79.8726 101.46 79.9286 100.957 79.9286 100.431C78.4729 99.5217 78.105 99.2425 78.105 99.2425Z" fill="#FFDDC0"/>
<path d="M56.2053 102.114C56.0133 102.225 55.8214 102.337 55.6934 102.513C55.4774 102.816 55.4934 103.238 55.6294 103.589C55.7654 103.94 55.9893 104.243 56.1733 104.57C56.6372 105.392 56.9651 105.942 57.3731 106.795C57.653 107.378 57.877 108.303 58.1169 108.901C58.3809 109.555 58.4529 110.273 58.5328 110.975C58.6768 112.291 58.8128 113.599 58.9008 114.923C58.9568 115.736 58.9887 116.558 58.9967 117.371C58.9967 117.507 59.0047 117.658 59.0927 117.762C59.1567 117.834 59.2607 117.874 59.3567 117.906C60.4445 118.272 61.5243 118.647 62.612 119.014C62.572 116.598 62.5401 114.181 62.5001 111.772C62.4761 110.137 62.4521 108.494 62.1641 106.891C62.0522 106.237 61.8922 105.599 61.7322 104.953C61.5323 104.132 61.3323 103.318 61.1323 102.497C61.0284 102.074 60.8764 100.431 60.5005 100.247C60.1405 100.072 58.7408 100.87 58.3729 101.029C57.629 101.34 56.9092 101.707 56.2053 102.114Z" fill="#6D597A"/>
<path d="M91.4705 85.4766C91.4705 85.4766 91.8465 79.1838 91.7825 78.5617C91.3426 75.0763 90.7187 71.4633 88.7831 68.4087C86.8474 65.354 85.0958 65.2343 83.4721 64.676C82.2883 64.2374 81.2245 63.2404 79.4729 62.7459C77.9772 62.2514 74.9778 61.9962 72.6022 62.3711C69.9788 62.7459 67.9152 63.9901 65.7316 66.2951C64.9157 67.1644 63.0441 70.0277 61.3564 72.5879C59.4848 75.4512 57.8611 78.0034 57.1093 79.6862C56.1095 81.7439 56.6694 82.8605 57.1093 84.0489C57.8611 86.0428 59.1089 87.4705 58.9809 88.6588C58.8529 89.7834 58.2291 89.903 58.2291 89.903C58.2291 89.903 58.293 90.3417 58.8529 90.3975C59.3488 90.5251 60.3486 90.4613 60.3486 90.4613C60.3486 90.4613 60.9085 92.3276 62.2203 93.3884C63.532 94.3854 65.5316 94.5688 65.5316 94.5688H65.5476C65.9395 93.2369 66.0915 92.1362 66.0915 92.1362L67.0913 85.9072C67.0913 85.9072 68.531 85.0379 70.0267 84.352C72.0263 83.4188 73.0901 82.7967 75.0818 80.9304C76.4575 79.6224 76.5215 79.439 77.2653 78.131C78.4491 76.0733 79.7608 73.5848 80.0728 73.21C81.3845 71.7185 86.8794 72.5879 87.3194 74.0235C87.3833 74.2708 87.3194 75.3953 87.8153 76.6395C88.4391 78.131 88.6231 80.6832 88.6231 80.6832C88.6231 80.6832 87.5593 83.4826 87.4953 84.4158C87.3114 86.1625 86.9354 88.8343 86.3675 90.3337C85.2398 93.3246 82.6243 95.6296 80.7446 96.4989C80.6647 96.5308 80.5847 96.5547 80.5047 96.5787L80.8646 96.6265C80.8646 96.6265 82.4883 97.3762 83.928 96.9376C85.3677 96.4989 86.6155 94.9436 86.6155 94.9436C86.6155 94.9436 88.4231 96.4351 88.863 95.4381C88.863 95.4381 88.6151 94.1939 89.239 93.197C90.1108 91.7614 91.9264 90.2061 92.1104 88.8981C92.4063 87.1594 91.4705 85.4766 91.4705 85.4766Z" fill="#2E2E2E"/>
<path d="M55.3493 103.198C55.2134 103.198 55.1094 103.087 55.1094 102.959C55.1094 102.369 56.1172 101.946 57.7809 101.236C58.8206 100.798 60.1084 100.247 61.2922 99.5775C61.3402 99.5456 61.4281 99.4259 61.4841 99.3382C61.5721 99.2026 61.6681 99.067 61.7961 98.9873C62.068 98.8038 62.4119 98.7719 62.6679 98.9075C62.7879 98.9713 62.8359 99.1149 62.7719 99.2345C62.7079 99.3541 62.5639 99.402 62.4439 99.3382C62.348 99.2824 62.196 99.3063 62.068 99.394C62.02 99.4259 61.948 99.5296 61.8841 99.6173C61.7801 99.7609 61.6761 99.9204 61.5321 100C60.3244 100.686 59.0206 101.244 57.9728 101.683C56.973 102.106 55.6053 102.688 55.6053 102.959C55.5973 103.087 55.4853 103.198 55.3493 103.198Z" fill="black"/>
<path d="M45.1755 135.947C44.8236 135.947 44.4877 135.931 44.2877 135.883C41.0643 135.101 40.2325 133.953 40.2005 133.905C40.1605 133.849 40.1525 133.785 40.1605 133.721L41.0163 129.103L43.2719 118.496C43.3599 118.073 43.4399 117.634 43.5278 117.18C44.3037 113.048 45.2795 107.904 49.8306 105.376C51.7582 104.299 53.6219 103.462 55.2615 102.728C55.3815 102.672 55.5255 102.728 55.5815 102.848C55.6375 102.967 55.5815 103.111 55.4615 103.167C53.8298 103.9 51.9822 104.722 50.0706 105.791C45.7194 108.207 44.7756 113.224 44.0157 117.26C43.9278 117.714 43.8478 118.153 43.7598 118.584L41.4962 129.191L40.6644 133.689C40.8964 133.937 41.8482 134.782 44.4077 135.404C44.8236 135.5 46.1033 135.436 46.5592 135.396C46.6952 135.388 46.8072 135.484 46.8232 135.62C46.8312 135.755 46.7352 135.867 46.5992 135.883C46.4793 135.891 45.7994 135.947 45.1755 135.947Z" fill="black"/>
<path d="M62.0683 99.8008C61.9884 99.8008 61.9164 99.7689 61.8684 99.6971C61.7884 99.5855 61.8124 99.4339 61.9244 99.3542C63.2841 98.3891 64.2119 97.3363 64.7718 96.14C65.2197 95.1271 65.9636 91.9847 66.4355 88.4913C66.4515 88.3558 66.5795 88.268 66.7074 88.284C66.8434 88.2999 66.9314 88.4275 66.9154 88.5551C66.4195 92.2239 65.6676 95.3105 65.2117 96.3394C64.6119 97.6155 63.628 98.7321 62.2043 99.745C62.1643 99.7849 62.1163 99.8008 62.0683 99.8008Z" fill="black"/>
<path d="M77.8571 101.165C77.8491 101.165 77.8331 101.165 77.8251 101.165C77.6891 101.149 77.6011 101.021 77.6171 100.885C77.6331 100.782 78.001 98.2934 78.5609 96.6105C78.6009 96.4829 78.7449 96.4112 78.8729 96.459C79.0008 96.4989 79.0728 96.6424 79.0248 96.7701C78.4729 98.413 78.105 100.933 78.097 100.965C78.081 101.077 77.977 101.165 77.8571 101.165Z" fill="black"/>
<path d="M104.116 122.635C104.044 122.635 103.98 122.603 103.932 122.547C103.588 122.149 95.4377 112.666 93.4461 109.26C92.4943 107.625 90.4307 106.309 88.879 105.487C88.759 105.424 88.711 105.28 88.775 105.16C88.839 105.041 88.983 104.993 89.103 105.057C90.7186 105.902 92.8542 107.274 93.87 109.013C95.8376 112.378 104.22 122.125 104.3 122.228C104.388 122.332 104.38 122.484 104.276 122.571C104.228 122.611 104.172 122.635 104.116 122.635Z" fill="black"/>
<path d="M88.8311 105.232C88.7911 105.232 88.7511 105.224 88.7192 105.2C87.9593 104.802 87.3354 104.626 86.8315 104.491C86.6156 104.435 86.4316 104.379 86.2716 104.323C85.2398 103.94 83.8721 103.031 82.7763 102.297C82.1844 101.906 81.5286 101.468 81.2486 101.34C81.2166 101.372 81.1766 101.388 81.1286 101.404C81.0007 101.428 80.8727 101.348 80.8407 101.22C80.7927 101.005 80.9207 100.901 80.9607 100.878C81.2166 100.71 81.5286 100.886 83.0483 101.89C84.128 102.608 85.4718 103.494 86.4396 103.86C86.5836 103.916 86.7595 103.964 86.9595 104.02C87.4554 104.156 88.1353 104.347 88.9431 104.77C89.0631 104.833 89.1111 104.977 89.0471 105.097C88.9991 105.184 88.9191 105.232 88.8311 105.232Z" fill="black"/>
<path d="M80.9287 101.412C80.8807 101.412 80.8327 101.396 80.7928 101.372C79.1771 100.255 78.0893 99.3702 78.0813 99.3622C77.9773 99.2745 77.9613 99.123 78.0493 99.0193C78.1373 98.9156 78.2892 98.8996 78.3932 98.9874C78.4012 98.9953 79.481 99.8727 81.0807 100.973C81.1927 101.053 81.2167 101.205 81.1447 101.308C81.0887 101.38 81.0087 101.412 80.9287 101.412Z" fill="black"/>
<path fill-rule="evenodd" clip-rule="evenodd" d="M78.7931 96.6824C78.7931 96.6824 76.0417 95.502 73.9861 94.1302C72.0504 92.8222 70.4268 91.2031 70.4268 91.2031C70.4268 91.2031 71.1146 93.5081 73.2982 95.8131C75.4818 98.118 78.2332 98.6285 78.2332 98.6285L78.7931 96.6824Z" fill="black"/>
<path d="M79.9046 96.9775C77.7451 96.9775 74.3377 95.0793 72.3301 93.516C70.6025 92.1123 70.0906 91.2191 69.2667 89.6399C69.2027 89.5202 69.2507 89.3767 69.3707 89.3129C69.4907 89.2491 69.6346 89.2969 69.6986 89.4166C70.4905 90.9399 70.9864 91.8013 72.6341 93.1412C75.1776 95.1271 78.9448 96.9456 80.5845 96.4032C81.3683 96.14 82.3761 95.3983 83.352 94.3535C85.1356 92.4553 86.2954 90.589 86.5993 89.1135C86.8393 88.0447 86.9433 87.2392 87.0472 86.4576C87.1272 85.8355 87.2072 85.2453 87.3432 84.5753C87.5111 83.7778 87.7351 83.0281 87.9591 82.3023C88.071 81.9354 88.183 81.5685 88.287 81.2016L88.479 80.6274C88.5189 80.4998 88.6549 80.428 88.7909 80.4759C88.9189 80.5157 88.9909 80.6593 88.9429 80.7869L88.7589 81.3452C88.6549 81.7121 88.5429 82.079 88.431 82.4458C88.215 83.1636 87.991 83.8974 87.8231 84.679C87.6871 85.333 87.6071 85.9152 87.5271 86.5294C87.4232 87.319 87.3192 88.1405 87.0712 89.2251C86.7433 90.8123 85.5755 92.7025 83.7039 94.6964C83.096 95.3425 81.9042 96.491 80.7285 96.8818C80.4965 96.9376 80.2166 96.9775 79.9046 96.9775Z" fill="black"/>
<path d="M82.4802 89.2092C82.4082 89.2092 82.3362 89.1773 82.2882 89.1134C82.2082 89.0098 82.2242 88.8582 82.3282 88.7705C82.8081 88.4036 83.0641 88.1005 83.0881 87.8613C83.1121 87.6619 82.9761 87.4864 82.7601 87.2073C82.5122 86.8882 82.2002 86.4974 82.1682 85.9232C82.0963 84.5035 82.8721 83.2035 83.456 82.3501C83.536 82.2384 83.6879 82.2145 83.7919 82.2863C83.9039 82.366 83.9279 82.5176 83.8559 82.6213C83.304 83.4188 82.5842 84.6232 82.6481 85.8993C82.6641 86.322 82.9041 86.6171 83.136 86.9042C83.376 87.1993 83.616 87.5103 83.568 87.9171C83.52 88.2999 83.232 88.6828 82.6241 89.1533C82.5842 89.1932 82.5282 89.2092 82.4802 89.2092Z" fill="black"/>
<path d="M81.4966 91.9687C80.1369 91.9687 78.7372 91.4582 77.9453 90.7644C77.8413 90.6766 77.8333 90.5251 77.9213 90.4214C78.0093 90.3177 78.1613 90.3097 78.2653 90.3975C79.2811 91.2987 81.4006 91.8411 82.9443 91.2269C83.0723 91.1791 83.2083 91.2349 83.2643 91.3625C83.3123 91.4901 83.2563 91.6257 83.1283 91.6816C82.6244 91.8809 82.0645 91.9687 81.4966 91.9687Z" fill="black"/>
<path d="M80.4165 79.4949C80.3685 79.4949 80.3125 79.4789 80.2725 79.447C79.1447 78.6016 77.2731 79.2875 77.2571 79.2955C77.1291 79.3433 76.9931 79.2795 76.9451 79.1519C76.8971 79.0243 76.9611 78.8887 77.0891 78.8409C77.1771 78.809 79.2247 78.0592 80.5684 79.0642C80.6724 79.1439 80.6964 79.2955 80.6164 79.4071C80.5684 79.463 80.4884 79.4949 80.4165 79.4949Z" fill="black"/>
<path d="M88.471 80.2365C88.423 80.2365 88.375 80.2205 88.335 80.1966C87.9991 79.9733 87.1513 79.7021 86.1195 80.0929C85.9915 80.1408 85.8555 80.077 85.8075 79.9574C85.7595 79.8297 85.8235 79.6942 85.9435 79.6463C87.1593 79.1757 88.1831 79.5187 88.599 79.7978C88.711 79.8696 88.743 80.0212 88.663 80.1328C88.631 80.2046 88.551 80.2365 88.471 80.2365Z" fill="black"/>
<path d="M89.1588 95.8051C89.0788 95.8051 88.9988 95.7652 88.9508 95.6934C88.039 94.2897 89.1508 92.886 90.2226 91.5301C90.9264 90.6368 91.6623 89.7117 91.8543 88.7865C92.1982 87.1196 91.3424 85.8993 90.5105 84.7189C90.1986 84.2723 89.8706 83.8097 89.6307 83.3391C88.087 80.3802 87.7431 78.0353 87.4951 76.3205C87.2392 74.5659 87.0872 73.5051 85.8794 72.9867C85.7595 72.9309 85.6955 72.7873 85.7515 72.6677C85.8074 72.5481 85.9514 72.4843 86.0714 72.5401C87.5351 73.1622 87.7271 74.4622 87.983 76.2488C88.223 77.9237 88.5589 80.2206 90.0626 83.1158C90.2946 83.5624 90.5905 83.9852 90.9104 84.4398C91.7583 85.6441 92.7181 87.0079 92.3342 88.8822C92.1182 89.927 91.3504 90.8921 90.6145 91.8332C89.5587 93.1651 88.6469 94.3136 89.3667 95.4302C89.4387 95.5419 89.4067 95.6934 89.2948 95.7652C89.2548 95.7971 89.2068 95.8051 89.1588 95.8051Z" fill="black"/>
<path d="M64.6196 89.7037C64.6116 89.7037 64.5956 89.7037 64.5876 89.7037C64.4516 89.6877 64.3557 89.5681 64.3797 89.4325C64.7476 86.5134 66.8512 85.5324 69.2907 84.3919C70.6824 83.7379 72.2581 83.0041 73.7138 81.8078C76.1773 79.774 76.7532 78.6893 78.2889 75.8021L78.4009 75.5947C79.8966 72.8431 80.9764 70.8492 82.936 71.4314C83.5759 71.6468 84.1038 71.9977 84.5517 72.5002C84.6397 72.6039 84.6317 72.7554 84.5277 72.8431C84.4237 72.9309 84.2718 72.9229 84.1838 72.8192C83.7999 72.3805 83.3439 72.0775 82.792 71.894C81.3683 71.4713 80.5365 72.6996 78.8408 75.826L78.7289 76.0334C77.2011 78.9046 76.5693 80.085 74.0338 82.1906C72.5301 83.4268 70.9224 84.1845 69.5067 84.8465C67.1071 85.9711 65.2115 86.8564 64.8756 89.5122C64.8436 89.6159 64.7396 89.7037 64.6196 89.7037Z" fill="black"/>
<path d="M57.9328 90.2699C57.8608 90.2699 57.7808 90.238 57.7328 90.1742C57.6529 90.0626 57.6769 89.911 57.7808 89.8313C59.0606 88.8901 58.6847 88.0288 57.7888 86.314C57.3089 85.3968 56.757 84.36 56.5011 83.0998C55.8932 80.2445 58.0768 76.9665 59.9964 74.0714C60.3403 73.553 60.6603 73.0664 60.9722 72.5879C63.9236 67.9221 65.4033 65.5853 68.7867 63.4239C73.8657 60.1618 79.6726 62.2036 82.0401 63.7349C82.1521 63.8067 82.184 63.9582 82.1121 64.0699C82.0401 64.1816 81.8881 64.2135 81.7761 64.1417C79.5046 62.6662 73.9217 60.7042 69.0506 63.8306C65.7553 65.9362 64.2996 68.2491 61.3801 72.8511C61.0682 73.3376 60.7483 73.8241 60.4043 74.3425C58.5327 77.1579 56.4211 80.3482 56.981 83.0041C57.2209 84.2005 57.7568 85.2054 58.2208 86.0907C59.0446 87.6459 59.7485 88.9938 58.0768 90.2221C58.0368 90.254 57.9888 90.2699 57.9328 90.2699Z" fill="black"/>
<path d="M91.6546 83.9133C91.6386 83.9133 91.6226 83.9133 91.6066 83.9054C91.4706 83.8814 91.3827 83.7538 91.4146 83.6182C92.2785 78.9365 89.9909 71.1842 88.7592 69.0228C87.2315 66.343 85.9597 65.1067 82.8723 65.346C82.7363 65.354 82.6244 65.2583 82.6084 65.1227C82.6004 64.9871 82.6964 64.8754 82.8323 64.8595C86.1597 64.5963 87.5834 65.9761 89.1831 68.7835C90.4468 70.9848 92.7824 78.9126 91.8946 83.706C91.8786 83.8336 91.7746 83.9133 91.6546 83.9133Z" fill="black"/>
<path d="M82.5442 97.3044C82.4082 97.3044 82.3042 97.1928 82.3042 97.0652C82.3042 96.9296 82.4162 96.8179 82.5442 96.8179C84.3038 96.8179 86.4874 96.1639 86.8633 93.0454C86.8793 92.9099 86.9993 92.8142 87.1353 92.8301C87.2712 92.8461 87.3672 92.9657 87.3512 93.1013C86.9033 96.7541 84.1438 97.3044 82.5442 97.3044Z" fill="black"/>
<path d="M85.1676 70.0915C85.0236 70.0915 84.9196 69.9798 84.9276 69.8442C84.9276 69.7565 84.9516 67.7227 82.984 67.1564C82.856 67.1166 82.776 66.981 82.816 66.8534C82.856 66.7257 82.984 66.646 83.12 66.6859C85.4635 67.3558 85.4235 69.8283 85.4235 69.8522C85.4075 69.9878 85.2955 70.0915 85.1676 70.0915Z" fill="black"/>
<path d="M65.3715 94.7523C63.9078 94.7204 62.588 94.1541 61.6522 93.1571C60.7324 92.1761 60.2605 90.8442 60.3165 89.3926C60.3245 89.257 60.4285 89.1533 60.5724 89.1613C60.7084 89.1693 60.8124 89.281 60.8044 89.4165C60.7484 90.7565 61.1643 91.9289 62.0042 92.8301C62.852 93.7314 64.0438 94.2418 65.3715 94.2737C65.5075 94.2737 65.6114 94.3854 65.6114 94.521C65.6114 94.6406 65.4995 94.7523 65.3715 94.7523Z" fill="black"/>
<path d="M78.529 83.2434C77.7691 83.2434 77.1133 83.036 76.5774 82.6133C76.4734 82.5335 76.4494 82.374 76.5374 82.2703C76.6174 82.1666 76.7773 82.1427 76.8813 82.2305C77.4972 82.709 78.313 82.8605 79.3128 82.6771C79.4488 82.6532 79.5688 82.7409 79.5928 82.8765C79.6168 83.0121 79.5288 83.1317 79.3928 83.1556C79.0969 83.2194 78.8089 83.2434 78.529 83.2434Z" fill="black"/>
<path d="M85.6318 84.009C85.2318 84.009 84.7599 83.9213 84.288 83.6341C84.176 83.5624 84.1361 83.4108 84.208 83.2992C84.28 83.1875 84.432 83.1476 84.544 83.2194C85.5358 83.8256 86.5116 83.355 86.5596 83.3311C86.6796 83.2752 86.8235 83.3231 86.8875 83.4427C86.9435 83.5624 86.8955 83.7059 86.7755 83.7697C86.7435 83.7777 86.2716 84.009 85.6318 84.009Z" fill="black"/>
<path fill-rule="evenodd" clip-rule="evenodd" d="M77.0493 82.7967C77.1773 82.1746 77.4892 82.6691 77.9851 82.7329C78.481 82.7967 78.9849 82.4219 78.857 83.044C78.729 83.6661 78.2971 84.1047 77.7932 84.0409C77.2973 84.0409 76.9853 83.4826 77.0493 82.7967Z" fill="black"/>
<path fill-rule="evenodd" clip-rule="evenodd" d="M84.6 83.5464C84.728 82.9243 84.728 83.5464 85.1599 83.674C85.5998 83.8016 86.4077 83.363 86.2237 83.9851C86.0957 84.6072 85.5998 85.0458 85.1599 84.9182C84.728 84.7268 84.48 84.1685 84.6 83.5464Z" fill="black"/>
<path d="M47.2947 150.773C46.8228 150.773 45.5671 150.518 44.1353 148.077C42.3917 145.126 44.0314 135.986 44.1033 135.596C44.1273 135.46 44.2553 135.372 44.3833 135.396C44.5193 135.42 44.6072 135.548 44.5832 135.675C44.5673 135.771 42.9036 145.023 44.5513 147.822C46.1269 150.494 47.3587 150.279 47.3747 150.271C47.5027 150.247 47.6387 150.327 47.6626 150.454C47.6946 150.582 47.6147 150.709 47.4867 150.741C47.4787 150.757 47.4147 150.773 47.2947 150.773Z" fill="black"/>
<path d="M52.7897 176.343C52.7977 176.367 52.7977 176.415 52.7977 176.487H97.6129C97.5249 171.861 97.061 167.363 96.1972 162.793C95.8612 163.088 95.3973 163.327 95.0854 163.534C92.7498 165.09 89.9504 166.9 87.1989 167.434C86.0871 167.65 85.0713 167.873 83.9516 168.041C83.3597 168.128 82.1359 168.208 81.536 168.232C73.2177 168.551 68.5066 166.932 65.0673 165.911C61.8519 164.962 58.3486 163.813 55.5811 161.923C54.9892 163.064 54.5413 164.324 54.3973 165.48C53.5335 168.232 52.6697 170.361 52.8217 174.07C52.7257 174.884 52.6297 175.522 52.7897 176.343Z" fill="#2E2E2E"/>
<path d="M79.3525 162.489L73.6656 160.95L57.2769 157.353C57.1249 157.672 56.9569 157.991 56.7889 158.294C56.645 158.557 56.493 158.813 56.341 159.06C56.1491 159.387 55.7012 160.145 55.6692 160.519C55.6132 161.229 54.9973 161.5 55.5812 161.899C58.3486 163.789 61.852 164.938 65.0673 165.895C68.5066 166.916 73.2177 168.535 81.5361 168.216C82.136 168.192 83.3597 168.112 83.9516 168.025C85.0714 167.865 86.0872 167.634 87.199 167.418C89.9585 166.884 92.7579 165.074 95.0854 163.518C95.3974 163.311 95.8613 163.072 96.1972 162.777C96.3892 162.617 96.5332 162.434 96.5972 162.234C96.7251 161.804 96.2932 161.66 96.1972 161.221C95.8933 159.786 95.6213 158.35 95.3814 156.906C88.9267 159.203 79.3525 162.489 79.3525 162.489Z" fill="white"/>
<path d="M129.175 109.531C127.287 111.222 125.687 113.216 124.448 115.425L122.208 119.397L104.38 122.619L89.0786 125.387L53.5415 116.829L47.4307 114.261L48.5425 135.316L48.5985 136.337C48.6945 137.781 48.3665 142.223 48.0466 143.635L46.3989 154.96L56.7809 157.242L57.2768 157.353L73.6656 160.95L79.3525 162.489C79.3525 162.489 88.9266 159.196 95.3893 156.922C97.261 156.261 98.8686 155.686 99.9084 155.303C104.54 153.597 112.258 152.057 112.258 152.057L123.752 137.007C123.752 137.007 126.495 122.611 127.695 118.352C128.895 114.093 132.67 106.397 132.67 106.397L129.175 109.531Z" fill="#4EA692"/>
<path d="M79.3524 162.737C79.3284 162.737 79.3125 162.737 79.2885 162.729L73.6016 161.189L46.3429 155.208C46.2149 155.184 46.135 155.064 46.151 154.937C46.1749 154.801 48.1826 141.131 48.3025 137.909C48.6545 128.537 47.1908 114.436 47.1748 114.293C47.1668 114.205 47.1987 114.125 47.2707 114.069C47.3427 114.021 47.4307 114.006 47.5107 114.037L53.5975 116.598L89.0625 125.132L122.032 119.174L124.216 115.298C125.439 113.12 126.711 111.772 128.807 109.547L128.983 109.364L132.494 106.221C132.582 106.142 132.71 106.142 132.806 106.205C132.902 106.277 132.926 106.405 132.878 106.508C132.838 106.588 129.103 114.237 127.919 118.424C126.735 122.627 124.008 136.912 123.976 137.055C123.968 137.095 123.952 137.127 123.928 137.159L112.434 152.209C112.394 152.257 112.346 152.289 112.29 152.297C112.21 152.313 104.54 153.852 99.9804 155.535C95.3973 157.226 79.5764 162.665 79.4164 162.721C79.4084 162.729 79.3844 162.737 79.3524 162.737ZM46.6789 154.777L73.7296 160.711L79.3524 162.234C80.5202 161.836 95.4133 156.707 99.8364 155.08C104.164 153.485 111.25 152.017 112.13 151.842L123.528 136.912C123.72 135.923 126.311 122.38 127.463 118.296C128.383 115.026 130.838 109.699 131.918 107.402L129.335 109.715L129.175 109.882C127.031 112.163 125.847 113.415 124.656 115.545L122.416 119.517C122.384 119.58 122.32 119.62 122.248 119.636L89.1185 125.618C89.0865 125.626 89.0545 125.626 89.0146 125.618L53.4855 117.068C53.4695 117.068 53.4615 117.06 53.4455 117.052L47.7186 114.644C47.9586 117.036 49.1264 129.407 48.8064 137.917C48.6865 140.987 46.9508 152.927 46.6789 154.777Z" fill="black"/>
<path d="M79.3527 162.737C79.3287 162.737 79.3127 162.737 79.2887 162.729C79.1607 162.697 79.0807 162.561 79.1207 162.434C79.1687 162.258 83.9118 145.007 85.3515 138.507C86.7912 131.991 88.8228 125.387 88.8388 125.323C88.8788 125.195 89.0148 125.123 89.1427 125.163C89.2707 125.203 89.3427 125.339 89.3027 125.466C89.2787 125.53 87.2631 132.118 85.8234 138.618C84.3837 145.134 79.6326 162.402 79.5846 162.569C79.5606 162.665 79.4646 162.737 79.3527 162.737Z" fill="black"/>
<path d="M112.258 152.305C112.234 152.305 112.21 152.305 112.186 152.297C112.058 152.257 111.986 152.121 112.026 151.994C112.074 151.85 116.505 137.215 118.369 130.451C120.241 123.672 121.96 119.349 121.976 119.309C122.024 119.182 122.168 119.126 122.296 119.174C122.424 119.222 122.48 119.365 122.432 119.493C122.416 119.533 120.696 123.839 118.841 130.587C116.977 137.35 112.538 151.994 112.49 152.137C112.466 152.233 112.362 152.305 112.258 152.305Z" fill="black"/>
<path d="M127.119 114.827C126.783 115.146 126.439 115.473 126.224 115.88C126 116.287 125.92 116.797 126.128 117.22C125.944 117.491 125.784 117.786 125.728 118.105C125.672 118.424 125.72 118.775 125.92 119.038C125.656 119.285 125.392 119.533 125.144 119.788C124.952 119.979 124.752 120.187 124.672 120.45C124.592 120.713 124.656 121.04 124.896 121.168C125.096 121.279 125.336 121.223 125.544 121.136C125.752 121.048 125.952 120.928 126.168 120.896C125.888 121.176 125.648 121.503 125.472 121.854C125.336 122.133 125.248 122.492 125.448 122.731C125.616 122.93 125.928 122.954 126.168 122.85C126.407 122.747 126.591 122.547 126.767 122.356C127.063 122.037 127.359 121.71 127.647 121.391C127.887 121.136 128.127 120.873 128.287 120.561C128.447 120.25 128.535 119.884 128.431 119.549C128.415 119.493 128.391 119.437 128.407 119.381C128.423 119.309 128.479 119.253 128.535 119.206C128.959 118.823 129.199 118.233 129.151 117.658C130.175 117.132 130.719 115.84 130.383 114.739C130.367 114.699 130.359 114.652 130.367 114.612C130.375 114.58 130.407 114.548 130.431 114.524C130.703 114.245 130.959 113.942 131.119 113.583C131.359 113.024 131.231 111.629 130.303 111.892C129.927 111.996 129.623 112.386 129.351 112.65C128.999 112.993 128.655 113.336 128.303 113.671C127.911 114.061 127.511 114.444 127.119 114.827Z" fill="#FFDDC0"/>
<path d="M126.527 117.419C126.319 117.419 126.143 117.355 126.007 117.228C125.647 116.893 125.615 116.342 125.919 115.92C126.735 114.795 127.847 113.702 128.911 112.681C128.975 112.618 129.055 112.538 129.127 112.458C129.503 112.059 130.015 111.509 130.622 111.7C131.254 111.9 131.67 112.658 131.486 113.296C131.39 113.639 131.158 113.91 130.95 114.141C130.215 114.947 129.359 115.648 128.535 116.326C128.079 116.701 127.607 117.084 127.031 117.315C126.855 117.387 126.687 117.419 126.527 117.419ZM130.383 112.147C130.087 112.147 129.759 112.498 129.487 112.793C129.407 112.881 129.327 112.969 129.255 113.04C128.207 114.045 127.119 115.122 126.319 116.215C126.151 116.438 126.167 116.717 126.343 116.885C126.447 116.98 126.679 116.94 126.855 116.869C127.359 116.669 127.799 116.302 128.231 115.952C129.039 115.282 129.879 114.596 130.598 113.814C130.766 113.631 130.958 113.407 131.022 113.168C131.126 112.793 130.854 112.291 130.479 112.171C130.447 112.147 130.415 112.147 130.383 112.147Z" fill="black"/>
<path d="M126.127 119.317C125.855 119.317 125.623 119.19 125.464 118.958C125.264 118.655 125.248 118.241 125.424 117.961C125.631 117.626 126.031 117.315 126.351 117.06L126.439 116.988C126.543 116.909 126.695 116.925 126.783 117.028C126.863 117.132 126.847 117.283 126.743 117.371L126.655 117.443C126.383 117.658 125.999 117.953 125.839 118.217C125.767 118.336 125.775 118.552 125.871 118.695C125.943 118.807 126.047 118.855 126.183 118.831C126.399 118.799 126.599 118.735 126.783 118.639C127.423 118.312 128.055 117.953 128.655 117.563C129.127 117.26 129.655 116.901 129.959 116.406C130.215 115.999 130.343 115.361 130.023 114.915C129.943 114.803 129.967 114.651 130.079 114.572C130.191 114.492 130.343 114.516 130.423 114.628C130.87 115.258 130.726 116.103 130.375 116.661C130.007 117.244 129.431 117.642 128.919 117.969C128.303 118.36 127.655 118.735 127.007 119.07C126.775 119.19 126.519 119.269 126.255 119.309C126.215 119.309 126.167 119.317 126.127 119.317Z" fill="black"/>
<path d="M125.32 121.518C125.136 121.518 124.976 121.471 124.84 121.367C124.544 121.152 124.464 120.769 124.504 120.625C124.72 119.852 125.416 119.277 125.999 118.871C126.111 118.791 126.263 118.823 126.343 118.926C126.423 119.038 126.391 119.19 126.287 119.269C125.783 119.628 125.184 120.107 124.992 120.721C125 120.777 125.048 120.928 125.168 120.992C125.36 121.088 125.727 120.976 126.175 120.673C127.007 120.115 127.727 119.533 128.367 118.902C128.551 118.727 128.751 118.52 128.879 118.288C128.999 118.065 129.023 117.834 128.951 117.658C128.903 117.531 128.959 117.395 129.087 117.339C129.215 117.291 129.351 117.347 129.407 117.475C129.535 117.786 129.503 118.169 129.311 118.52C129.151 118.815 128.919 119.046 128.711 119.245C128.047 119.899 127.311 120.498 126.455 121.072C126.007 121.367 125.632 121.518 125.32 121.518Z" fill="black"/>
<path d="M125.983 123.544C125.816 123.544 125.648 123.497 125.52 123.417C125.232 123.249 125.112 122.954 125.216 122.659C125.464 121.941 125.824 121.287 126.383 120.546C126.463 120.442 126.615 120.418 126.727 120.498C126.831 120.577 126.855 120.729 126.775 120.841C126.247 121.542 125.904 122.149 125.68 122.819C125.672 122.843 125.64 122.922 125.776 123.002C125.904 123.082 126.111 123.09 126.215 122.97C126.655 122.492 127.055 121.893 127.439 121.319C127.583 121.112 127.719 120.904 127.855 120.705C128.199 120.211 128.303 119.86 128.183 119.588C128.127 119.469 128.183 119.325 128.303 119.269C128.423 119.214 128.567 119.269 128.623 119.389C128.879 119.963 128.535 120.569 128.247 120.976C128.111 121.168 127.975 121.375 127.831 121.582C127.431 122.173 127.023 122.787 126.559 123.289C126.407 123.473 126.191 123.544 125.983 123.544Z" fill="black"/>
<path d="M71.842 106.532C70.5782 106.532 69.3145 106.325 68.1307 105.91C65.2593 104.905 62.8037 102.648 61.556 99.8806C61.5 99.7609 61.556 99.6174 61.676 99.5615C61.7959 99.5057 61.9399 99.5615 61.9959 99.6812C63.1877 102.329 65.5392 104.49 68.2827 105.448C71.0341 106.413 74.2175 106.189 76.809 104.865C77.8088 104.355 78.5287 103.781 79.0086 103.103C79.5845 102.297 79.7924 101.324 79.5605 100.511C79.5205 100.383 79.6005 100.247 79.7284 100.208C79.8564 100.168 79.9924 100.247 80.0324 100.375C80.3043 101.332 80.0724 102.457 79.4085 103.382C78.8806 104.124 78.1047 104.746 77.033 105.296C75.4493 106.118 73.6496 106.532 71.842 106.532Z" fill="black"/>
<path d="M59.0845 118.193C58.9645 118.193 58.8525 118.097 58.8445 117.977C58.7645 117.244 58.7725 116.996 58.7885 116.582C58.7965 116.39 58.8045 116.159 58.8125 115.824C58.8685 110.361 57.0209 105.495 55.1652 103.103C55.0852 102.999 55.1012 102.848 55.2132 102.76C55.3172 102.68 55.4692 102.696 55.5571 102.808C57.4608 105.272 59.3564 110.257 59.3084 115.832C59.3084 116.175 59.2924 116.406 59.2844 116.606C59.2684 117.004 59.2604 117.228 59.3324 117.93C59.3484 118.065 59.2524 118.185 59.1164 118.201C59.1004 118.193 59.0925 118.193 59.0845 118.193Z" fill="black"/>
<path d="M62.6838 119.309C62.5399 119.309 62.4359 119.198 62.4359 119.062C62.5719 112.522 61.956 107.027 60.3723 100.678C60.3403 100.551 60.4203 100.415 60.5483 100.383C60.6762 100.351 60.8122 100.431 60.8442 100.558C62.4359 106.947 63.0598 112.482 62.9238 119.07C62.9238 119.206 62.8118 119.309 62.6838 119.309Z" fill="black"/>
<path d="M92.5023 124.637C92.3903 124.637 92.2863 124.557 92.2623 124.438C90.6386 115.72 87.2473 110.042 80.7366 101.324C80.6566 101.212 80.6806 101.061 80.7846 100.981C80.8965 100.901 81.0485 100.925 81.1285 101.029C87.6872 109.81 91.1025 115.537 92.7422 124.35C92.7662 124.485 92.6782 124.605 92.5503 124.637C92.5343 124.629 92.5183 124.637 92.5023 124.637Z" fill="black"/>
<path d="M96.4535 124.111C96.3415 124.111 96.2455 124.039 96.2135 123.927C94.6698 117.475 92.1183 111.142 88.615 105.113C88.551 104.993 88.591 104.849 88.703 104.778C88.823 104.714 88.9669 104.754 89.0389 104.865C92.5662 110.935 95.1337 117.315 96.6934 123.808C96.7254 123.935 96.6454 124.071 96.5095 124.103C96.4935 124.111 96.4695 124.111 96.4535 124.111Z" fill="black"/>
<path d="M52.2375 129.398C51.1018 127.628 46.9426 124.525 46.4947 124.43C46.0468 124.334 45.5189 124.485 45.3109 124.884C45.2069 125.092 45.1909 125.331 45.1909 125.562C45.2069 126.727 45.4149 127.628 46.0947 128.569L47.2545 130.515C47.6304 130.946 47.9824 129.717 48.5503 130.172C48.4543 130.116 47.5505 128.601 47.4545 128.561C46.5187 128.226 45.5668 128.338 45.8468 129.398C45.9748 129.869 46.3907 130.483 46.7266 130.834C47.2785 131.416 47.7104 132.102 48.3423 132.605L47.0466 131.193C46.7026 131.392 45.7508 132.31 45.8548 132.692C45.9108 132.908 46.0468 133.099 46.1907 133.275C46.4707 133.61 46.7986 133.897 47.1185 134.176C47.2385 134.28 47.3585 134.383 47.4785 134.495L46.4627 133.793C45.9668 133.833 45.6548 134.63 45.7908 134.981C45.9268 135.332 46.3747 135.779 46.6306 136.058C47.0066 136.465 47.4945 136.92 47.8704 137.318C48.2703 137.757 49.0302 138.196 49.6141 138.315C49.822 138.355 50.2459 138.18 50.3739 138.012C50.7018 137.589 50.102 136.64 49.958 136.202L49.4861 135.875C49.862 136.05 50.2539 136.178 50.6698 136.234C50.8058 136.25 50.9498 136.258 51.0618 136.186C51.1897 136.098 51.2377 135.931 51.2617 135.779C51.3097 135.468 51.2617 134.734 50.5259 134.112L50.5019 134.096C50.5579 134.12 50.6219 134.144 50.6778 134.16C50.9018 134.232 51.1418 134.288 51.3577 134.192C51.5577 134.104 51.6856 133.897 51.7336 133.689C51.8696 133.155 51.6137 132.613 51.3497 132.134C51.1258 131.735 50.8858 131.337 50.5739 130.994C50.2859 130.667 49.942 130.395 49.6061 130.132C49.5181 130.06 49.4221 129.989 49.3341 129.917C49.854 130.3 50.3339 130.659 50.6938 130.954C51.2937 131.448 52.1895 131.664 52.5255 130.962C52.5815 130.842 52.6215 130.706 52.6375 130.571C52.6695 130.14 52.4615 129.749 52.2375 129.398Z" fill="#FFDDC0"/>
<path d="M50.6702 136.585C50.6222 136.585 50.5742 136.585 50.5262 136.577C49.2464 136.409 48.2786 135.54 47.3428 134.702C47.2148 134.591 47.0869 134.479 46.9669 134.367C46.6389 134.08 46.303 133.785 46.0151 133.434C45.8631 133.259 45.6231 132.852 45.6231 132.541C45.6151 131.839 46.111 131.289 46.9269 131.097C47.0549 131.065 47.1908 131.145 47.2228 131.281C47.2548 131.408 47.1748 131.544 47.0389 131.576C46.7589 131.64 46.103 131.871 46.111 132.541C46.111 132.684 46.263 132.98 46.391 133.131C46.6549 133.45 46.9829 133.737 47.2948 134.008C47.4228 134.12 47.5508 134.232 47.6787 134.351C48.5586 135.141 49.4704 135.955 50.5982 136.106C50.7021 136.122 50.8301 136.106 50.8701 136.05C51.1821 135.612 51.0861 135.069 49.6144 133.857C49.5104 133.769 49.4944 133.618 49.5824 133.514C49.6703 133.41 49.8223 133.394 49.9263 133.482C51.0221 134.391 51.9499 135.364 51.27 136.329C51.1421 136.489 50.9261 136.585 50.6702 136.585Z" fill="black"/>
<path d="M51.7978 131.64C51.3339 131.64 50.854 131.392 50.5341 131.129C50.1981 130.858 49.7422 130.515 49.2623 130.164C48.1266 129.327 46.8468 128.37 46.087 127.508C45.999 127.405 46.007 127.253 46.1109 127.165C46.2149 127.078 46.3669 127.086 46.4549 127.189C47.1827 128.011 48.4945 128.992 49.5503 129.773C50.0382 130.132 50.4941 130.475 50.838 130.754C51.198 131.049 51.6379 131.201 51.9418 131.137C52.1018 131.105 52.2217 131.002 52.3017 130.842C52.3497 130.746 52.3817 130.643 52.3897 130.539C52.4217 130.18 52.2937 129.813 52.0618 129.566C51.7019 129.191 51.3899 128.864 51.11 128.569C49.5023 126.886 48.9664 126.32 47.5427 125.267C47.2147 125.028 46.8468 124.757 46.4469 124.669C46.1189 124.597 45.687 124.693 45.5271 124.996C45.4471 125.155 45.4311 125.355 45.4391 125.554C45.4551 126.782 45.695 127.588 46.3029 128.425C46.3829 128.537 46.3589 128.689 46.2469 128.768C46.1349 128.848 45.983 128.824 45.903 128.713C45.2471 127.795 44.9672 126.886 44.9512 125.562C44.9512 125.315 44.9592 125.028 45.0951 124.773C45.3671 124.254 46.031 124.087 46.5429 124.198C47.0468 124.302 47.4627 124.613 47.8306 124.884C49.2863 125.961 49.8382 126.535 51.4619 128.242C51.7418 128.537 52.0538 128.864 52.4137 129.239C52.7416 129.582 52.9176 130.084 52.8776 130.587C52.8616 130.754 52.8216 130.914 52.7416 131.065C52.5977 131.36 52.3577 131.552 52.0458 131.624C51.9658 131.632 51.8858 131.64 51.7978 131.64Z" fill="black"/>
<path d="M50.9339 134.527C50.8059 134.527 50.6859 134.503 50.5819 134.455C49.7981 134.128 48.0384 132.589 46.8867 131.353C46.6307 131.073 45.7669 130.132 45.6149 129.566C45.4549 128.96 45.6549 128.625 45.8469 128.441C46.2068 128.114 46.8547 128.067 47.5425 128.314C47.8945 128.441 48.1904 128.673 48.4543 128.88C48.8943 129.223 51.2458 131.791 51.4858 132.222C51.5417 132.326 51.5977 132.413 51.6537 132.501C51.8777 132.844 52.1016 133.203 51.9657 133.721C51.8857 134.032 51.6937 134.28 51.4458 134.383C51.2778 134.487 51.1018 134.527 50.9339 134.527ZM46.0868 129.454C46.1748 129.789 46.7347 130.491 47.2386 131.033C48.4783 132.349 50.126 133.745 50.7739 134.016C50.8939 134.072 51.0778 134.048 51.2618 133.969C51.3738 133.921 51.4618 133.793 51.5017 133.626C51.5817 133.322 51.4698 133.131 51.2458 132.788C51.1818 132.692 51.1178 132.589 51.0618 132.485C50.8699 132.142 48.5823 129.622 48.1504 129.279C47.9105 129.087 47.6545 128.888 47.3746 128.784C46.8707 128.601 46.3908 128.609 46.1748 128.808C46.0388 128.944 46.0068 129.159 46.0868 129.454Z" fill="black"/>
<path d="M49.7904 138.698C49.7584 138.698 49.7264 138.698 49.6864 138.69C48.9266 138.61 48.3107 138.052 47.8628 137.637L46.4951 136.385C46.1911 136.106 45.8392 135.787 45.6312 135.356C45.5433 135.181 45.3593 134.718 45.5273 134.232C45.6472 133.889 45.9032 133.626 46.2951 133.442C46.4151 133.386 46.5591 133.434 46.623 133.554C46.679 133.673 46.631 133.817 46.5111 133.881C46.2391 134.008 46.0711 134.184 45.9912 134.391C45.8792 134.718 46.0232 135.053 46.0711 135.149C46.2391 135.492 46.5431 135.771 46.831 136.034L48.1987 137.286C48.7186 137.765 49.1905 138.156 49.7344 138.212C49.8544 138.228 50.0144 138.196 50.0864 138.068C50.3343 137.653 49.9104 136.848 49.0226 136.018C48.9266 135.931 48.9186 135.771 49.0146 135.675C49.1026 135.58 49.2625 135.572 49.3585 135.667C50.4703 136.712 50.8942 137.677 50.5103 138.323C50.3663 138.555 50.0944 138.698 49.7904 138.698Z" fill="black"/>
<path d="M79.1847 168.527C77.753 168.527 76.2013 168.463 74.5056 168.32C69.4826 167.905 59.6045 164.436 55.6213 162.059C55.4853 161.979 55.2854 161.859 55.1894 161.644C55.0374 161.325 55.1974 160.982 55.2854 160.791L56.8291 157.425C56.885 157.305 57.029 157.249 57.149 157.305C57.269 157.361 57.325 157.505 57.269 157.624L55.7253 160.99C55.6453 161.158 55.5813 161.333 55.6293 161.437C55.6613 161.508 55.7573 161.572 55.8692 161.636C60.1724 164.204 69.9465 167.442 74.5456 167.825C87.519 168.902 92.1661 165.409 94.4057 163.726C94.7416 163.471 95.0296 163.255 95.2855 163.104C95.7974 162.793 96.3813 162.37 96.3573 161.828C96.3493 161.676 96.2613 161.532 96.1654 161.365C96.0854 161.229 95.9974 161.086 95.9494 160.918C95.4215 159.227 95.2135 157.114 95.2055 157.026C95.1895 156.891 95.2935 156.771 95.4215 156.763C95.5495 156.747 95.6774 156.851 95.6854 156.978C95.6854 157.002 95.9014 159.132 96.4133 160.775C96.4453 160.886 96.5173 160.998 96.5813 161.118C96.6932 161.309 96.8212 161.532 96.8372 161.796C96.8852 162.593 96.1653 163.136 95.5335 163.518C95.3015 163.662 95.0136 163.869 94.6936 164.117C92.71 165.624 88.8468 168.527 79.1847 168.527Z" fill="black"/>
<path d="M53.0459 176.487C52.9659 170.338 53.8937 167.626 55.2615 163.646C55.4454 163.12 55.6294 162.569 55.8213 161.987C55.8613 161.859 55.7973 161.724 55.6694 161.676C55.5414 161.636 55.4054 161.7 55.3574 161.828C55.1655 162.41 54.9735 162.96 54.7975 163.478C53.4138 167.506 52.478 170.25 52.558 176.479H53.0459V176.487Z" fill="black"/>
<path d="M97.861 176.487C97.773 171.829 97.3091 167.299 96.4373 162.689C96.4133 162.553 96.2853 162.473 96.1493 162.497C96.0133 162.521 95.9334 162.649 95.9574 162.785C96.8292 167.363 97.2931 171.861 97.3731 176.487H97.861Z" fill="black"/>
<rect x="-59.6138" y="-65.6426" width="228.256" height="273" rx="8.66782" fill="#4EA692"/>
<mask id="mask2_3424_20802" style="mask-type:alpha" maskUnits="userSpaceOnUse" x="-60" y="-66" width="229" height="274">
<rect x="-59.6138" y="-65.6426" width="228.256" height="273" rx="8.66782" fill="#4EA692"/>
</mask>
<g mask="url(#mask2_3424_20802)">
<g filter="url(#filter0_f_3424_20802)">
<circle opacity="0.2" cx="133.165" cy="117.907" r="47.2992" fill="url(#paint0_radial_3424_20802)"/>
<circle opacity="0.1" cx="133.167" cy="117.907" r="32.1842" fill="white"/>
<circle opacity="0.1" cx="133.7" cy="117.133" r="22.9309" fill="white"/>
</g>
<g opacity="0.2">
<path d="M168.642 207.361C168.642 207.361 164.322 182.738 144.844 180.314C125.366 177.89 133.253 191.243 122.965 190.945C112.609 190.648 121.113 150.801 76.1221 148.972C31.1308 147.143 58.496 192.179 37.1663 191.541C15.9052 190.945 31.0623 165.089 6.71485 164.154C-17.6326 163.261 -2.40685 193.029 -19.4157 192.731C-36.4246 192.434 -31.0065 171.766 -58.3716 155.946C-85.7367 140.126 -122.361 171.468 -116.874 207.361H168.642Z" fill="#043A4E"/>
<g opacity="0.1">
<mask id="mask3_3424_20802" style="mask-type:luminance" maskUnits="userSpaceOnUse" x="-118" y="148" width="287" height="60">
<path d="M168.642 207.36C168.642 207.36 164.321 182.737 144.843 180.313C125.365 177.889 133.252 191.243 122.965 190.945C112.608 190.647 121.113 150.8 76.1216 148.971C31.1305 147.143 58.4956 192.178 37.1659 191.54C15.9048 190.945 31.0619 165.089 6.71455 164.153C-17.6328 163.26 -2.40714 193.029 -19.416 192.731C-36.4248 192.433 -31.0067 171.766 -58.3718 155.946C-85.7368 140.126 -122.361 171.468 -116.874 207.36H168.642Z" fill="white"/>
</mask>
<g mask="url(#mask3_3424_20802)">
<path d="M-100.045 147.101C-68.2212 147.653 -34.1492 148.376 -6.64951 157.264C18.5153 165.429 29.4115 179.846 49.9065 190.222C68.1532 199.493 92.9722 206.34 119.607 207.02C145.983 207.7 171.147 201.619 189.048 192.348C211.532 180.696 221.477 164.706 223.985 148.972C224.072 148.546 222.774 148.546 222.688 148.972C220.353 163.643 211.532 178.57 191.729 189.924C174.001 200.088 147.972 206.978 120.299 206.382C92.4533 205.787 66.5101 198.26 48.0905 188.308C29.4979 178.23 18.7748 164.962 -4.66055 157.094C-32.5062 147.781 -67.4429 147.015 -99.9584 146.463C-100.823 146.463 -100.823 147.101 -100.045 147.101Z" fill="#CBE2D1"/>
</g>
</g>
<g opacity="0.1">
<mask id="mask4_3424_20802" style="mask-type:luminance" maskUnits="userSpaceOnUse" x="-118" y="148" width="287" height="60">
<path d="M168.642 207.36C168.642 207.36 164.321 182.737 144.843 180.313C125.365 177.889 133.252 191.243 122.965 190.945C112.608 190.647 121.113 150.8 76.1216 148.971C31.1305 147.143 58.4956 192.178 37.1659 191.54C15.9048 190.945 31.0619 165.089 6.71455 164.153C-17.6328 163.26 -2.40714 193.029 -19.416 192.731C-36.4248 192.433 -31.0067 171.766 -58.3718 155.946C-85.7368 140.126 -122.361 171.468 -116.874 207.36H168.642Z" fill="white"/>
</mask>
<g mask="url(#mask4_3424_20802)">
<path d="M135.094 158.965C124.974 162.027 114.694 165.174 106.089 169.427C97.5623 173.637 91.825 178.867 88.1595 184.693C80.6692 196.473 79.713 210.549 89.8329 221.947C94.614 227.305 102.104 231.898 112.384 234.322C113.101 234.492 113.659 233.939 113.021 233.769C87.044 227.645 81.5458 209.656 84.4941 196.218C86.3268 187.925 91.2673 179.208 101.626 172.786C110.87 167.003 123.539 163.175 135.731 159.475C136.369 159.305 135.731 158.752 135.094 158.965Z" fill="#CBE2D1"/>
</g>
</g>
<g opacity="0.1">
<mask id="mask5_3424_20802" style="mask-type:luminance" maskUnits="userSpaceOnUse" x="-118" y="148" width="287" height="60">
<path d="M168.642 207.36C168.642 207.36 164.321 182.737 144.843 180.313C125.365 177.889 133.252 191.243 122.965 190.945C112.608 190.647 121.113 150.8 76.1216 148.971C31.1305 147.143 58.4956 192.178 37.1659 191.54C15.9048 190.945 31.0619 165.089 6.71455 164.153C-17.6328 163.26 -2.40714 193.029 -19.416 192.731C-36.4248 192.433 -31.0067 171.766 -58.3718 155.946C-85.7368 140.126 -122.361 171.468 -116.874 207.36H168.642Z" fill="white"/>
</mask>
<g mask="url(#mask5_3424_20802)">
<path d="M137.682 153.011C124.967 160.793 109.913 164.408 95.0285 163.302C81.4626 162.281 64.6222 157.519 58.1157 144.335C57.9456 143.953 57.3928 144.293 57.5629 144.676C62.5385 154.712 73.5102 159.73 83.9292 162.239C95.5388 165.003 107.871 164.748 119.396 161.644C125.945 159.857 132.239 157.178 138.023 153.606C138.363 153.351 138.023 152.798 137.682 153.011Z" fill="#CBE2D1"/>
</g>
</g>
<mask id="mask6_3424_20802" style="mask-type:luminance" maskUnits="userSpaceOnUse" x="-118" y="148" width="287" height="60">
<path opacity="0.2" d="M168.642 207.36C168.642 207.36 164.321 182.737 144.843 180.313C125.365 177.889 133.252 191.243 122.965 190.945C112.608 190.647 121.113 150.8 76.1217 148.971C31.1305 147.143 58.4956 192.178 37.1659 191.54C15.9048 190.945 31.0619 165.089 6.71455 164.153C-17.6328 163.26 -2.40714 193.029 -19.416 192.731C-36.4249 192.433 -31.0067 171.766 -58.3718 155.946C-85.7368 140.126 -122.361 171.468 -116.874 207.36H168.642Z" fill="white"/>
</mask>
<g mask="url(#mask6_3424_20802)">
<path d="M45.3582 168.109C67.3868 181.249 82.2285 206.85 80.8676 232.749C80.4424 240.829 78.146 248.866 72.9152 255.203C72.6601 255.5 73.0853 255.968 73.383 255.67C82.186 245.124 82.8664 230.197 80.3999 217.227C77.9333 204.214 71.767 191.923 63.0491 181.972C58.0736 176.316 52.2049 171.468 45.7409 167.598C45.3157 167.386 45.018 167.896 45.3582 168.109Z" fill="#CBE2D1"/>
</g>
</g>
<path d="M131.551 43.3006H124.237C124.237 41.1743 124.577 39.4733 126.576 39.4733C128.617 39.4733 131.551 41.1743 131.551 43.3006Z" fill="white"/>
<path d="M125.937 43.3011H110.5C110.5 38.8358 112.201 35.2211 116.454 35.2211C120.749 35.2211 125.937 38.8358 125.937 43.3011Z" fill="white"/>
<path d="M44.314 105.352L44.9519 114.24L53.8398 113.134L52.4365 103.821L44.314 105.352Z" fill="#272425"/>
<path d="M52.0974 89.6598L47.1219 90.808C43.9749 91.5309 41.8061 94.2952 41.5509 97.5271C41.2107 101.737 42.1038 108.456 42.1038 108.456L54.1387 105.522L52.0974 89.6598Z" fill="#3D3639"/>
<path d="M52.8618 109.69L42.4854 112.156C42.9531 117.217 44.6542 123.723 44.6542 123.723C46.6529 129.975 53.0744 135.546 65.1944 132.866L78.2925 131.463L78.5901 112.454L52.8618 109.69Z" fill="#3D3639"/>
<path d="M52.5215 78.22C52.5215 78.22 45.5046 95.7833 49.1619 119.811C52.8192 143.838 83.8633 127.253 83.8633 127.253L87.7332 79.3682L52.5215 78.22Z" fill="#272425"/>
<path d="M89.8175 70.6929C89.8175 70.6929 77.7826 66.4828 49.0348 70.1826L46.6108 87.5759C46.6108 87.5759 57.37 88.7241 86.543 87.2357C89.1796 87.746 92.0714 84.2588 92.9645 79.4108C93.8575 74.6479 92.4542 71.2032 89.8175 70.6929Z" fill="#FF9D48"/>
<path d="M53.0457 79.8007C53.9514 75 52.534 70.7023 49.8798 70.2015C47.2255 69.7008 44.3396 73.1865 43.4339 77.9872C42.5282 82.7879 43.9456 87.0856 46.5999 87.5864C49.2541 88.0871 52.14 84.6014 53.0457 79.8007Z" fill="#DE8131"/>
<path d="M47.1636 84.556C46.9935 84.556 46.7809 84.5135 46.6108 84.471C45.8453 84.2158 44.6546 83.1527 45.3775 78.9426C46.1005 74.6474 47.9716 72.6487 49.375 71.7131C50.9485 70.6925 52.3093 70.735 52.3944 70.7775C52.5645 70.7775 52.7346 70.9476 52.7346 71.1177C52.7346 71.2878 52.5645 71.4579 52.3944 71.4579C52.1817 71.4579 47.3763 71.3729 46.0579 79.0701C45.5051 82.2171 46.1005 83.5779 46.8234 83.8331C47.6739 84.1308 48.9497 83.1101 49.8428 81.4516C50.7358 79.6655 51.799 76.5611 50.7784 75.9232C50.6083 75.8381 50.4807 75.7956 50.3106 75.8807C49.46 76.1783 48.4819 78.4322 48.0567 79.7506C48.0141 79.9207 47.8015 80.0482 47.6314 79.9632C47.4613 79.9207 47.3337 79.708 47.4188 79.5379C47.5464 79.1552 48.6095 75.7531 50.0979 75.2428C50.4381 75.1152 50.8209 75.1577 51.1611 75.3703C52.9897 76.5611 50.7358 81.239 50.4381 81.7918C49.5451 83.4929 48.2693 84.5135 47.1636 84.556Z" fill="white"/>
<path d="M93.2633 114.963L88.3303 189.979L75.4448 189.766L78.5492 113.347L93.2633 114.963Z" fill="#2E2E2E"/>
<path d="M66.2156 113.347L48.7798 191.85H61.9629L85.6926 117.089L66.2156 113.347Z" fill="#2E2E2E"/>
<path d="M77.0181 144.349L78.8467 139.629L86.2037 134.908" stroke="#272425" stroke-width="1.0054" stroke-miterlimit="10" stroke-linecap="round" stroke-linejoin="round"/>
<path d="M95.5161 85.1927L110.273 89.1477L111.761 96.0369C112.229 98.1633 109.975 100.034 107.849 99.6092L100.407 98.1633L93.2622 87.9144L95.5161 85.1927Z" fill="#F8E8CA"/>
<path d="M122.478 79.2816L104.447 89.9132C102.065 92.2521 102.235 96.122 104.744 98.2909C107.466 100.587 110.783 100.119 113.377 96.8024L127.708 83.0665L122.478 79.2816Z" fill="#F8E8CA"/>
<path d="M126.008 85.9582C129.155 85.9582 131.707 83.4069 131.707 80.2597C131.707 77.1125 129.155 74.5612 126.008 74.5612C122.861 74.5612 120.31 77.1125 120.31 80.2597C120.31 83.4069 122.861 85.9582 126.008 85.9582Z" fill="#F8E8CA"/>
<path d="M128.007 55.5516L106.659 206.647C106.574 207.243 107.042 207.711 107.637 207.668C108.062 207.626 108.403 207.328 108.488 206.903L130.899 55.9344C131.026 55.1689 130.516 54.4459 129.751 54.3184C128.9 54.1908 128.092 54.7436 128.007 55.5516Z" fill="#845C4A"/>
<path d="M133.025 60.4847L128.687 63.2489L127.964 67.2889L134.088 61.8881C134.385 61.6329 134.47 61.2077 134.3 60.8675C134.088 60.3572 133.45 60.1871 133.025 60.4847Z" fill="#845C4A"/>
<path d="M130.813 55.255C131.068 56.0205 130.643 56.8285 129.877 57.0411C129.112 57.2963 128.304 56.871 128.091 56.1055C127.836 55.34 128.261 54.5321 129.027 54.3194C129.75 54.0643 130.558 54.4895 130.813 55.255Z" fill="#D9A55B"/>
<path d="M132.854 60.5704C132.513 60.9531 132.513 61.506 132.896 61.8462C133.279 62.1864 133.832 62.1864 134.172 61.8036C134.512 61.4209 134.512 60.8681 134.129 60.5279C133.747 60.1876 133.194 60.2302 132.854 60.5704Z" fill="#D9A55B"/>
<path d="M126.391 66.9914C126.391 66.9914 126.561 63.2491 122.436 63.079C122.436 63.079 122.734 66.8638 126.391 66.9914Z" fill="#A0CAA0"/>
<path d="M127.793 76.7302C127.793 76.7302 126.942 78.5589 124.901 77.6233L123.413 80.8127V85.3205C123.413 85.3205 127.112 86.9791 129.451 84.8102C131.748 82.6414 130.089 77.6233 130.089 77.6233L127.793 76.7302Z" fill="#F8E8CA"/>
<path d="M81.8647 82.4302C81.8647 82.4302 90.1999 82.005 97.2167 85.1944C97.2167 85.1944 99.258 88.8517 100.406 98.1649L89.4769 96.7616L81.8647 82.4302Z" fill="white"/>
<path d="M52.0126 94.1675C52.0126 94.1675 47.8451 98.2925 46.0589 102.885C45.5912 104.076 46.2291 105.139 47.5048 105.437L54.3516 107.351L62.6017 100.334L52.0126 94.1675Z" fill="#F8E8CA"/>
<path d="M69.3626 123.085L56.2645 101.652C54.521 98.8029 50.7361 98.0374 48.057 99.9936C45.1652 102.077 44.91 106.288 47.4616 108.754L64.5146 125.509L69.3626 123.085Z" fill="#F8E8CA"/>
<path d="M65.0247 132.568C68.1719 132.568 70.7232 130.016 70.7232 126.869C70.7232 123.722 68.1719 121.171 65.0247 121.171C61.8775 121.171 59.3262 123.722 59.3262 126.869C59.3262 130.016 61.8775 132.568 65.0247 132.568Z" fill="#F8E8CA"/>
<path d="M72.2122 82.7706C72.2122 82.7706 62.0909 81.6649 52.0122 94.3803C52.0122 94.3803 57.8808 96.6342 61.7082 104.289L69.3204 99.4409L72.2122 82.7706Z" fill="white"/>
<path d="M72.3824 82.9404L65.1955 85.7472L62.3462 119.215C62.3462 119.215 77.0603 131.038 94.2834 123.468C94.2834 123.468 94.3685 105.139 90.2009 86.6402L83.3116 83.1531L72.3824 82.9404Z" fill="white"/>
<path d="M72.3828 82.9399L76.2952 84.5984L81.4409 91.9129L83.142 84.1306L78.2514 81.2814L72.3828 82.9399Z" fill="#F8E8CA"/>
<path d="M83.3115 84.3004L85.7781 88.3829L84.4172 82.5994" stroke="#272425" stroke-width="1.0054" stroke-miterlimit="10" stroke-linecap="round" stroke-linejoin="round"/>
<path d="M81.4414 91.9125C81.4414 91.9125 83.4827 116.323 82.2919 126.019" stroke="#272425" stroke-width="1.0054" stroke-miterlimit="10" stroke-linecap="round" stroke-linejoin="round"/>
<path d="M76.1684 84.8108L73.064 90.5944L69.8745 82.9822" stroke="#272425" stroke-width="1.0054" stroke-miterlimit="10" stroke-linecap="round" stroke-linejoin="round"/>
<path d="M93.0922 95.0603V94.55L93.0497 94.0396L92.9646 92.9765C92.9221 92.6363 92.8796 92.2961 92.8371 91.9133C92.752 91.2329 92.5819 90.51 92.4543 89.8295C92.1566 88.4687 91.7314 87.1079 91.1785 85.7896C91.051 85.4493 90.9234 85.1517 90.7533 84.8114C90.6257 84.4712 90.4556 84.1735 90.2855 83.8333C90.1154 83.5357 89.9453 83.1954 89.7326 82.8978C88.0316 81.4944 86.0329 82.515 86.0329 82.515C85.9903 82.4725 85.9903 82.4725 86.0329 82.515C86.203 82.6851 87.3087 84.046 87.3937 84.1736C87.4788 84.3011 87.5638 84.3862 87.6489 84.5138C87.819 84.7689 87.9891 84.9815 88.1592 85.2367C88.3293 85.4919 88.4994 85.747 88.627 86.0447C88.7971 86.2999 88.9246 86.5975 89.0948 86.8527C89.6901 87.9584 90.1579 89.1491 90.5406 90.3824C90.7108 91.0203 90.9234 91.6156 91.0084 92.2535C91.0935 92.5512 91.136 92.8914 91.2211 93.2316L91.3912 94.2098L91.4762 94.6775L91.5188 95.1879L91.6038 96.166C91.6463 96.5912 91.6463 97.059 91.6463 97.4843C91.6463 97.867 91.944 98.1647 92.2842 98.1647C92.667 98.1647 92.9646 97.867 92.9646 97.4843C93.0072 97.0165 93.0072 96.5487 93.0072 96.1234L93.0922 95.0603Z" fill="#272425"/>
<path d="M68.0452 89.4885C67.9176 88.4678 67.7475 87.4897 67.4924 86.5116C67.3648 86.0013 67.2372 85.5335 67.0671 85.0232C66.9821 84.768 66.897 84.5554 66.812 84.3003C66.7269 84.0451 66.6844 84.0026 66.5568 83.7049C66.5568 83.7049 64.9833 83.2371 63.9202 84.683C64.0052 84.8106 64.1328 85.1083 64.2179 85.3209C64.3029 85.5335 64.388 85.7461 64.473 85.9588C64.6431 86.384 64.7707 86.8093 64.8983 87.2346C65.1534 88.0851 65.3661 88.9781 65.4937 89.8712C65.7913 91.6573 65.8339 93.4859 65.6638 95.272C65.5787 96.1651 65.4086 97.0581 65.196 97.9512C64.9833 98.8442 64.6431 99.6948 64.3029 100.503C63.58 102.161 62.6019 103.735 61.4111 105.138L62.8145 106.371C64.1753 104.883 65.3236 103.224 66.2166 101.396C66.6419 100.46 67.0246 99.5247 67.3223 98.5466C67.62 97.5685 67.8326 96.5903 68.0027 95.5697C68.3004 93.5285 68.3004 91.4872 68.0452 89.4885Z" fill="#272425"/>
<path d="M73.0627 70.3524L72.3823 82.9402L83.1415 84.1309L84.0771 74.3924L73.0627 70.3524Z" fill="#F8E8CA"/>
<path d="M73.0625 72.5209C73.0625 72.5209 75.1463 81.0687 83.5665 80.5158L84.0343 74.9449L73.0625 72.5209Z" fill="#272425"/>
<path d="M86.8844 60.1465L84.1202 55.9789C83.5674 55.1284 82.7594 54.4905 81.8238 54.2354C80.3354 53.7676 77.7413 53.6825 73.7013 55.2985C66.0466 58.3604 69.0234 66.2703 69.0234 66.2703L86.8844 60.1465Z" fill="#FF9D48"/>
<mask id="mask7_3424_20802" style="mask-type:luminance" maskUnits="userSpaceOnUse" x="68" y="53" width="19" height="14">
<path d="M86.8844 60.1465L84.1202 55.9789C83.5674 55.1284 82.7594 54.4905 81.8238 54.2354C80.3354 53.7676 77.7413 53.6825 73.7013 55.2985C66.0466 58.3604 69.0234 66.2703 69.0234 66.2703L86.8844 60.1465Z" fill="white"/>
</mask>
<g mask="url(#mask7_3424_20802)">
<path d="M87.0109 58.3606C87.0109 58.3606 76.1242 56.8722 66.896 64.9947L68.4695 68.3968L88.712 60.657L87.0109 58.3606Z" fill="#E18D44"/>
</g>
<path d="M79.6412 71.5659C87.8348 68.8139 93.7253 64.3449 92.798 61.584C91.8708 58.8231 84.4768 58.8159 76.2832 61.5678C68.0895 64.3198 62.199 68.7888 63.1263 71.5497C64.0536 74.3106 71.4475 74.3179 79.6412 71.5659Z" fill="#272425"/>
<path d="M80.2503 77.3703C84.0352 77.2002 86.9269 74.0107 86.7568 70.2684L86.4592 63.8894C86.3741 62.1033 84.8857 60.7425 83.0996 60.785L79.4423 60.9551C75.7 61.1252 72.8082 64.2722 72.9783 68.0145L73.1059 70.8638C73.276 74.6486 76.4655 77.5404 80.2503 77.3703Z" fill="#F8E8CA"/>
<path d="M73.3171 67.5887C73.4021 67.3335 74.8906 67.0359 73.8274 63.2085C73.8274 63.2085 70.2127 64.2291 69.8725 67.5036C69.5322 70.7782 73.1045 70.8207 73.1045 70.8207L73.3171 67.5887Z" fill="#043A4E"/>
<path d="M72.3831 72.5216C73.7688 72.5216 74.8921 71.3983 74.8921 70.0126C74.8921 68.6269 73.7688 67.5035 72.3831 67.5035C70.9974 67.5035 69.874 68.6269 69.874 70.0126C69.874 71.3983 70.9974 72.5216 72.3831 72.5216Z" fill="#F8E8CA"/>
<path d="M87.0537 71.4585C87.0537 71.4159 87.0111 71.3309 86.9686 71.2883C86.5433 70.7355 85.6928 70.4804 84.9699 70.3953C84.2469 70.3102 83.524 70.3528 82.8436 70.4804C81.6103 70.778 79.3139 71.4585 78.0381 72.7768C78.0381 72.7768 73.9556 71.2458 73.4453 66.738L72.4246 67.1633C72.4246 67.1633 71.5316 75.1582 77.953 77.0719C81.6953 78.2201 83.9492 77.242 85.1825 76.2639C85.225 76.2214 85.3101 76.1789 85.3526 76.1363C87.4789 74.3928 87.0537 71.4585 87.0537 71.4585Z" fill="#043A4E"/>
<path d="M68.4268 69.0769C68.4268 69.0769 70.5531 65.5047 78.2503 62.9956C85.9476 60.5291 90.1577 64.6541 90.1577 64.6541L85.7775 59.8912C85.7775 59.8912 75.8689 59.551 68.3417 66.2701C61.1548 72.7766 68.4268 69.0769 68.4268 69.0769Z" fill="#272425"/>
<path d="M81.9073 67.0354C81.9073 67.2906 81.6946 67.5032 81.4395 67.5032C81.1843 67.5032 80.9717 67.2906 80.9717 67.0354C80.9717 66.7803 81.1843 66.5676 81.4395 66.5676C81.6946 66.5676 81.9073 66.7803 81.9073 67.0354Z" fill="#27262F"/>
<path d="M86.2031 66.8663C86.2031 67.0789 86.033 67.2916 85.7778 67.2916C85.5652 67.2916 85.3525 67.1215 85.3525 66.8663C85.3525 66.6537 85.5226 66.441 85.7778 66.441C85.9904 66.441 86.2031 66.6537 86.2031 66.8663Z" fill="#27262F"/>
<path d="M79.6544 66.3128L81.9083 65.6324C82.206 65.5048 82.3336 65.2071 82.2485 64.9095C82.121 64.6543 81.8658 64.4842 81.5681 64.5692L79.2292 65.037C78.8464 65.1646 78.6338 65.5899 78.8039 65.9301C78.974 66.3128 79.3142 66.4404 79.6544 66.3128Z" fill="#2E2E2E"/>
<path d="M86.118 65.8878L84.6296 65.2925C84.3744 65.2074 84.2469 64.9097 84.3319 64.6546C84.417 64.442 84.6721 64.3144 84.9273 64.3569L86.4582 64.7822C86.7984 64.8672 86.9685 65.25 86.841 65.5476C86.7134 65.8878 86.4157 66.0154 86.118 65.8878Z" fill="#2E2E2E"/>
<path d="M83.9492 66.6958L85.0124 68.652C85.225 68.9922 85.0974 69.46 84.7572 69.6726L84.1619 70.0554" stroke="white" stroke-width="0.5" stroke-miterlimit="10" stroke-linecap="round" stroke-linejoin="round"/>
<path d="M82.2485 72.1646C82.2485 72.1646 83.9496 73.3978 85.3529 72.1646" stroke="#F5F7F8" stroke-width="0.5" stroke-miterlimit="10" stroke-linecap="round" stroke-linejoin="round"/>
</g>
</g>
<defs>
<filter id="filter0_f_3424_20802" x="84.8662" y="69.6073" width="96.5986" height="96.5984" filterUnits="userSpaceOnUse" color-interpolation-filters="sRGB">
<feFlood flood-opacity="0" result="BackgroundImageFix"/>
<feBlend mode="normal" in="SourceGraphic" in2="BackgroundImageFix" result="shape"/>
<feGaussianBlur stdDeviation="0.5" result="effect1_foregroundBlur_3424_20802"/>
</filter>
<radialGradient id="paint0_radial_3424_20802" cx="0" cy="0" r="1" gradientUnits="userSpaceOnUse" gradientTransform="translate(133.165 117.907) rotate(-90) scale(58.1983)">
<stop stop-color="white"/>
<stop offset="1" stop-color="#F5F7F8" stop-opacity="0"/>
</radialGradient>
</defs>
</svg>
