<svg width="82" height="82" viewBox="0 0 82 82" fill="none" xmlns="http://www.w3.org/2000/svg">
<g clip-path="url(#clip0_1589_21981)">
<path d="M60.4853 0H21.5147C9.63245 0 0 9.63245 0 21.5147V60.4853C0 72.3676 9.63245 82 21.5147 82H60.4853C72.3676 82 82 72.3676 82 60.4853V21.5147C82 9.63245 72.3676 0 60.4853 0Z" />
<path d="M23.2166 38.4718C25.1797 38.4718 26.7711 35.787 26.7711 32.4751C26.7711 29.1633 25.1797 26.4785 23.2166 26.4785C21.2535 26.4785 19.6621 29.1633 19.6621 32.4751C19.6621 35.787 21.2535 38.4718 23.2166 38.4718Z" fill="#333333"/>
<path d="M58.7869 38.4718C60.75 38.4718 62.3414 35.787 62.3414 32.4751C62.3414 29.1633 60.75 26.4785 58.7869 26.4785C56.8238 26.4785 55.2324 29.1633 55.2324 32.4751C55.2324 35.787 56.8238 38.4718 58.7869 38.4718Z" fill="#333333"/>
<path d="M53.2088 46.0752C56.4271 46.0752 58.5182 49.4616 57.0846 52.3437C54.3804 57.7817 48.2701 61.5735 41.1661 61.5735C34.0621 61.5735 27.9518 57.7817 25.2476 52.3437C23.814 49.4616 25.9002 46.0752 29.1234 46.0752H53.2137H53.2088Z" fill="#333333"/>
</g>
<defs>
<clipPath id="clip0_1589_21981">
<rect width="82" height="82" fill="white"/>
</clipPath>
</defs>
</svg>
