<svg width="17" height="11" viewBox="0 0 17 11" fill="none" xmlns="http://www.w3.org/2000/svg">
<path d="M8.27311 5.6028C5.78873 5.58048 3.79033 4.75443 2.06087 3.24459C1.30439 2.58468 0.648637 1.83496 0.116456 0.982428C-0.11407 0.613276 0.0302682 0.177666 0.414997 0.0385198C0.699519 -0.0642821 0.990272 0.0416351 1.16888 0.320966C1.78725 1.28668 2.5593 2.10961 3.48088 2.79185C4.91959 3.85673 6.53223 4.40241 8.32919 4.34997C10.2513 4.29338 11.9029 3.55974 13.3343 2.30224C13.9958 1.72125 14.5679 1.0629 15.0404 0.319408C15.2439 -0.00145866 15.6151 -0.0912805 15.9168 0.0992664C16.2086 0.284102 16.3031 0.660004 16.0985 0.967891C14.4464 3.45435 12.2315 5.10177 9.20871 5.5244C8.84319 5.57529 8.47249 5.58775 8.27363 5.60384L8.27311 5.6028Z" fill="#CBE2D1"/>
<path d="M2.49958 6.06338C2.45752 6.14126 2.40768 6.30325 2.30332 6.4128C1.90146 6.83543 1.48506 7.24508 1.06762 7.65214C0.804902 7.9081 0.422251 7.90187 0.178745 7.65214C-0.0600874 7.40707 -0.0621643 7.03377 0.188091 6.77884C0.601375 6.35777 1.01881 5.94085 1.44144 5.52912C1.63666 5.33909 1.87602 5.30015 2.12523 5.41126C2.3677 5.51926 2.48244 5.71967 2.49958 6.06338Z" fill="#CBE2D1"/>
<path d="M16.2094 7.14058C16.1964 7.46508 16.0879 7.66134 15.8569 7.77453C15.6186 7.89135 15.3761 7.87369 15.1855 7.69197C14.7354 7.26259 14.2936 6.82335 13.8637 6.37372C13.6352 6.13437 13.6669 5.76002 13.9021 5.53106C14.131 5.30832 14.4986 5.2808 14.7323 5.50354C15.1829 5.9324 15.6222 6.37424 16.0526 6.82335C16.144 6.91888 16.1762 7.07049 16.2094 7.14006V7.14058Z" fill="#CBE2D1"/>
<path d="M5.29826 7.58295C5.2858 7.62708 5.26711 7.72261 5.2318 7.8114C5.0397 8.29789 4.84603 8.78386 4.6477 9.26828C4.49765 9.63535 4.15238 9.79578 3.81853 9.66183C3.48624 9.5284 3.35021 9.17274 3.49507 8.80411C3.69393 8.29945 3.89278 7.79426 4.10098 7.29323C4.2178 7.01234 4.5179 6.86074 4.79723 6.91993C5.08902 6.98223 5.29774 7.23716 5.29826 7.58295Z" fill="#CBE2D1"/>
<path d="M12.7768 9.06049C12.7799 9.3663 12.5873 9.61448 12.3022 9.68873C12.0359 9.7583 11.7249 9.6394 11.6133 9.38032C11.3729 8.8227 11.147 8.25885 10.9357 7.6898C10.8313 7.4084 10.998 7.09012 11.2742 6.96604C11.552 6.84091 11.9165 6.91567 12.04 7.18825C12.3064 7.77547 12.5296 8.38242 12.7695 8.98158C12.7809 9.01013 12.7763 9.04544 12.7778 9.06049H12.7768Z" fill="#CBE2D1"/>
<path d="M8.72662 8.92843C8.72662 9.18077 8.72973 9.43362 8.72558 9.68595C8.71987 10.052 8.45559 10.3251 8.10928 10.3287C7.75519 10.3324 7.48365 10.0546 7.48105 9.67868C7.47742 9.18025 7.47794 8.68129 7.48105 8.18286C7.48365 7.80436 7.75104 7.52918 8.10669 7.53126C8.45975 7.53282 8.72246 7.81059 8.7261 8.19013C8.72869 8.43623 8.7261 8.68233 8.7261 8.92843H8.72662Z" fill="#CBE2D1"/>
</svg>
