<svg width="64" height="64" viewBox="0 0 64 64" fill="none" xmlns="http://www.w3.org/2000/svg">
<path d="M61.7137 48.0004V57.1433C61.7137 58.3557 61.2321 59.5185 60.3748 60.3758C59.5175 61.2331 58.3547 61.7147 57.1423 61.7147H47.9994M47.9994 2.28613H57.1423C58.3547 2.28613 59.5175 2.76776 60.3748 3.62507C61.2321 4.48238 61.7137 5.64514 61.7137 6.85756V16.0004M2.28516 16.0004V6.85756C2.28516 5.64514 2.76679 4.48238 3.6241 3.62507C4.48141 2.76776 5.64417 2.28613 6.85658 2.28613H15.9994M15.9994 61.7147H6.85658C5.64417 61.7147 4.48141 61.2331 3.6241 60.3758C2.76679 59.5185 2.28516 58.3557 2.28516 57.1433V48.0004M31.9994 20.5718V36.5718H25.1423M20.5709 45.7147C23.6548 48.6441 27.7459 50.2774 31.9994 50.2774C36.2529 50.2774 40.344 48.6441 43.428 45.7147M18.2852 21.7147C17.9821 21.7147 17.6914 21.5943 17.477 21.38C17.2627 21.1656 17.1423 20.875 17.1423 20.5718C17.1423 20.2687 17.2627 19.9781 17.477 19.7637C17.6914 19.5494 17.9821 19.429 18.2852 19.429C18.5883 19.429 18.879 19.5494 19.0933 19.7637C19.3076 19.9781 19.428 20.2687 19.428 20.5718C19.428 20.875 19.3076 21.1656 19.0933 21.38C18.879 21.5943 18.5883 21.7147 18.2852 21.7147ZM45.7137 21.7147C45.4106 21.7147 45.1199 21.5943 44.9056 21.38C44.6913 21.1656 44.5709 20.875 44.5709 20.5718C44.5709 20.2687 44.6913 19.9781 44.9056 19.7637C45.1199 19.5494 45.4106 19.429 45.7137 19.429C46.0168 19.429 46.3075 19.5494 46.5218 19.7637C46.7362 19.9781 46.8566 20.2687 46.8566 20.5718C46.8566 20.875 46.7362 21.1656 46.5218 21.38C46.3075 21.5943 46.0168 21.7147 45.7137 21.7147Z" stroke="#FF9D48" stroke-width="3" stroke-linecap="round" stroke-linejoin="round"/>
</svg>
