<svg width="13" height="13" viewBox="0 0 13 13" fill="none" xmlns="http://www.w3.org/2000/svg">
<g clip-path="url(#clip0_15621_29245)">
<path d="M3.25037 11.1722C2.81401 11.1722 2.38853 11.1733 1.96361 11.1722C0.789071 11.1677 0.00350338 10.3707 0.00241382 9.17894C0.000779495 7.49772 0.000234718 5.81649 0.00241382 4.13582C0.00404815 2.94463 0.789071 2.14922 1.96524 2.14757C3.49988 2.14536 5.03397 2.14261 6.56806 2.15418C6.7146 2.15528 6.89874 2.21923 6.99843 2.32065C7.19237 2.51909 7.06272 2.85533 6.7876 2.92148C6.69227 2.94463 6.58931 2.94133 6.49016 2.94133C5.01 2.94243 3.53039 2.94133 2.05023 2.94243C1.19384 2.94353 0.780355 3.36246 0.77981 4.22567C0.77981 5.85177 0.779265 7.47788 0.77981 9.10398C0.77981 9.95231 1.19221 10.3657 2.03606 10.3668C2.54434 10.3668 3.05316 10.3646 3.56144 10.3679C3.94714 10.3707 4.08551 10.5217 4.07135 10.9109C4.05936 11.2504 4.04302 11.59 4.0403 11.9301C4.03975 12.0122 4.08442 12.0944 4.10839 12.1765C4.18957 12.1478 4.28381 12.1368 4.34973 12.0872C5.02743 11.5784 5.69478 11.0547 6.38066 10.557C6.53047 10.4484 6.7413 10.3806 6.92652 10.3756C7.70664 10.3558 8.48785 10.3696 9.26852 10.3668C10.0078 10.3641 10.4322 9.93742 10.436 9.18501C10.4409 8.22037 10.4371 7.25573 10.4382 6.2911C10.4382 6.19959 10.4376 6.10644 10.4518 6.01659C10.4855 5.80712 10.6179 5.68641 10.8228 5.68034C11.0434 5.67428 11.1796 5.80602 11.2188 6.02155C11.2384 6.12849 11.2275 6.24149 11.2275 6.35173C11.2275 7.307 11.2303 8.26226 11.2275 9.21808C11.2237 10.3486 10.4224 11.1633 9.30393 11.1711C8.56848 11.1766 7.83303 11.1644 7.09758 11.1788C6.95649 11.1815 6.79469 11.2372 6.67974 11.321C6.05543 11.7796 5.43928 12.2492 4.82859 12.7261C4.48157 12.9967 4.11874 13.102 3.71888 12.8776C3.33154 12.6605 3.2166 12.3016 3.2471 11.8722C3.26236 11.6545 3.24983 11.4345 3.24983 11.1716L3.25037 11.1722Z" fill="#CBE2D1"/>
<path d="M8.51659 4.20692C8.78026 3.58459 8.4218 3.06093 7.94512 2.54223C7.5774 2.14149 7.76807 1.54176 8.29977 1.45908C9.01125 1.34828 9.49011 1.02196 9.80935 0.357189C10.0371 -0.11631 10.7104 -0.119066 10.9414 0.351677C11.2639 1.00873 11.7335 1.34718 12.4482 1.45743C12.9903 1.54121 13.188 2.17126 12.7925 2.55711C12.2668 3.07085 12.1078 3.6331 12.2249 4.35079C12.3093 4.86949 11.7961 5.26416 11.338 5.02438C10.6772 4.67876 10.085 4.6749 9.42255 5.02162C8.95132 5.26857 8.49752 4.88437 8.51659 4.20692ZM8.61629 2.12992C8.83964 2.39946 8.9802 2.59074 9.14363 2.76051C9.33648 2.96061 9.40839 3.1833 9.37244 3.45891C9.34138 3.69704 9.33702 3.93847 9.3136 4.28188C10.048 3.74334 10.7344 3.7709 11.4518 4.2229C11.2023 3.37127 11.4589 2.72358 12.0963 2.16795C11.2263 2.13212 10.6864 1.70382 10.3754 0.901796C10.0719 1.7143 9.52061 2.13047 8.61574 2.12992H8.61629Z" fill="#CBE2D1"/>
<path d="M5.70147 6.05462C5.02104 6.05462 4.34116 6.05572 3.66073 6.05462C3.33223 6.05352 3.15409 5.90799 3.15627 5.65057C3.15845 5.40363 3.32842 5.25645 3.64276 5.2559C5.01232 5.25259 6.38189 5.25259 7.75146 5.2559C8.06852 5.25645 8.23849 5.40032 8.24285 5.64616C8.24775 5.90193 8.06525 6.05352 7.74165 6.05462C7.06123 6.05682 6.38135 6.05517 5.70092 6.05517L5.70147 6.05462Z" fill="#CBE2D1"/>
<path d="M4.69429 7.26509C5.05711 7.26509 5.41993 7.26068 5.78275 7.2662C6.04915 7.27061 6.21585 7.4255 6.21803 7.65426C6.22021 7.88522 6.05569 8.04838 5.79092 8.05003C5.05657 8.05499 4.32166 8.05499 3.58676 8.05003C3.31274 8.04838 3.15802 7.9001 3.1553 7.66197C3.15312 7.42385 3.30838 7.27116 3.57859 7.2662C3.95013 7.25958 4.32221 7.26454 4.69429 7.26454V7.26509Z" fill="#CBE2D1"/>
</g>
<defs>
<clipPath id="clip0_15621_29245">
<rect width="13" height="13" fill="white"/>
</clipPath>
</defs>
</svg>
