<svg width="54" height="54" viewBox="0 0 54 54" fill="none" xmlns="http://www.w3.org/2000/svg">
<path d="M12.8333 38.3333V25.1895C12.8333 23.7445 13.1167 22.359 13.6408 21.0727M41.1667 38.3333V29.3092M19.129 14.9158C21.5221 13.5372 24.2382 12.8185 27 12.8333C33.46 12.8333 38.9085 16.6017 40.6142 21.7583M21.3333 41.1667V34.9985M32.6667 41.1667V26.5835C32.6667 23.685 30.1308 21.3333 27 21.3333C23.8692 21.3333 21.3333 23.685 21.3333 26.5835V28.8332M10 1.5H1.5V10M44 1.5H52.5V10M10 52.5H1.5V44M44 52.5H52.5V44" stroke="#FF9D48" stroke-width="2" stroke-linecap="round" stroke-linejoin="round"/>
</svg>
