<svg width="19" height="19" viewBox="0 0 19 19" fill="none" xmlns="http://www.w3.org/2000/svg">
<path d="M7.17969 11.1597C7.67697 11.1597 8.15388 10.9621 8.50551 10.6105C8.85714 10.2589 9.05469 9.78195 9.05469 9.28467C9.05469 8.24967 8.67969 7.78467 8.30469 7.03467C7.50069 5.42742 8.13669 3.99417 9.80469 2.53467C10.1797 4.40967 11.3047 6.20967 12.8047 7.40967C14.3047 8.60967 15.0547 10.0347 15.0547 11.5347C15.0547 12.2241 14.9189 12.9068 14.6551 13.5438C14.3912 14.1807 14.0045 14.7595 13.517 15.247C13.0295 15.7345 12.4507 16.1212 11.8138 16.385C11.1768 16.6489 10.4941 16.7847 9.80469 16.7847C9.11525 16.7847 8.43256 16.6489 7.7956 16.385C7.15864 16.1212 6.57988 15.7345 6.09238 15.247C5.60487 14.7595 5.21816 14.1807 4.95432 13.5438C4.69048 12.9068 4.55469 12.2241 4.55469 11.5347C4.55469 10.6699 4.87944 9.81417 5.30469 9.28467C5.30469 9.78195 5.50223 10.2589 5.85386 10.6105C6.20549 10.9621 6.68241 11.1597 7.17969 11.1597Z" stroke="#043A4E" stroke-width="1.5" stroke-linecap="round" stroke-linejoin="round"/>
</svg>
