<svg width="19" height="19" viewBox="0 0 19 19" fill="none" xmlns="http://www.w3.org/2000/svg">
<g clip-path="url(#clip0_0_137133)">
<path d="M6.49219 11.7793C6.98947 11.7793 7.46638 11.5818 7.81801 11.2301C8.16964 10.8785 8.36719 10.4016 8.36719 9.9043C8.36719 8.8693 7.99219 8.4043 7.61719 7.6543C6.81319 6.04705 7.44919 4.6138 9.11719 3.1543C9.49219 5.0293 10.6172 6.8293 12.1172 8.0293C13.6172 9.2293 14.3672 10.6543 14.3672 12.1543C14.3672 12.8437 14.2314 13.5264 13.9676 14.1634C13.7037 14.8003 13.317 15.3791 12.8295 15.8666C12.342 16.3541 11.7632 16.7408 11.1263 17.0047C10.4893 17.2685 9.80663 17.4043 9.11719 17.4043C8.42775 17.4043 7.74506 17.2685 7.1081 17.0047C6.47114 16.7408 5.89238 16.3541 5.40488 15.8666C4.91737 15.3791 4.53066 14.8003 4.26682 14.1634C4.00298 13.5264 3.86719 12.8437 3.86719 12.1543C3.86719 11.2895 4.19194 10.4338 4.61719 9.9043C4.61719 10.4016 4.81473 10.8785 5.16636 11.2301C5.51799 11.5818 5.99491 11.7793 6.49219 11.7793Z" stroke="white" stroke-width="1.5" stroke-linecap="round" stroke-linejoin="round"/>
</g>
<defs>
<clipPath id="clip0_0_137133">
<rect width="18" height="18" fill="white" transform="translate(0.117188 0.904297)"/>
</clipPath>
</defs>
</svg>
