<svg width="31" height="31" viewBox="0 0 31 31" fill="none" xmlns="http://www.w3.org/2000/svg">
<path fill-rule="evenodd" clip-rule="evenodd" d="M14.3 0C6.34002 0.39 0 6.95999 0 15.02C0 19.63 2.08 23.76 5.34 26.51L7.10001 25.25L6.72 27.55C9.1 29.13 11.96 30.06 15.03 30.06C23.33 30.06 30.07 23.33 30.07 15.02C30.07 7.14999 24.03 0.689993 16.32 0.0399933L15.41 2.47L14.29 0H14.3Z" fill="#D27019"/>
<path fill-rule="evenodd" clip-rule="evenodd" d="M14.9091 1.34007C7.41915 1.41007 1.36914 7.51007 1.36914 15.0101C1.36914 19.3301 3.36915 23.1801 6.49915 25.6801L7.10916 25.2401L6.97916 26.0501C9.23916 27.7101 12.0292 28.6801 15.0492 28.6801C22.5992 28.6801 28.7292 22.5601 28.7292 15.0001C28.7292 7.44008 23.0292 1.76007 15.8492 1.35007L15.4391 2.45007L14.9291 1.33008L14.9091 1.34007Z" fill="#D88629"/>
<path fill-rule="evenodd" clip-rule="evenodd" d="M15.0408 10.25C11.7308 10.25 9.05078 12.38 9.05078 15.01C9.05078 17.64 11.7308 19.77 15.0408 19.77C18.3508 19.77 21.0308 17.64 21.0308 15.01C21.0308 12.38 18.3508 10.25 15.0408 10.25Z" fill="#E0A04D"/>
<path fill-rule="evenodd" clip-rule="evenodd" d="M6.39969 8.65993C5.07969 10.9199 6.2897 10.5399 5.8197 12.3099C5.3497 14.0799 3.62971 13.8699 4.35971 16.4799C5.08971 19.0899 6.8597 18.5199 6.7597 20.3399C6.6597 22.1699 9.04971 25.6099 11.9197 24.4599C14.7897 23.3099 16.4097 26.1299 18.8597 24.8299C21.3097 23.5199 20.9997 21.5399 23.4497 21.0699C25.8997 20.5999 26.4197 18.2499 25.4897 16.1099C24.5497 13.9699 24.9697 12.9799 24.9197 10.8899C24.8697 8.79993 24.0797 8.17992 21.6297 7.33992C19.1797 6.49992 19.9597 5.66993 18.0797 5.29993C16.1997 4.92993 16.2297 5.61992 14.4597 5.48992C12.6897 5.35992 11.5897 4.57992 9.67969 6.14992C8.18969 7.36992 9.17969 7.26992 6.39969 8.64992V8.65993Z" fill="#E0A04D"/>
<path fill-rule="evenodd" clip-rule="evenodd" d="M15.0398 10.4707C12.2598 10.4707 10.0098 12.5007 10.0098 15.0107C10.0098 17.5207 12.2598 19.5507 15.0398 19.5507C17.8198 19.5507 20.0698 17.5207 20.0698 15.0107C20.0698 12.5007 17.8198 10.4707 15.0398 10.4707Z" fill="#D27019"/>
<path fill-rule="evenodd" clip-rule="evenodd" d="M15.041 11.5605C12.931 11.5605 11.2109 13.1105 11.2109 15.0205C11.2109 16.9305 12.921 18.4805 15.041 18.4805C17.161 18.4805 18.8709 16.9305 18.8709 15.0205C18.8709 13.1105 17.161 11.5605 15.041 11.5605Z" fill="#C96918"/>
</svg>
