<svg width="21" height="12" viewBox="0 0 21 12" fill="none" xmlns="http://www.w3.org/2000/svg">
<path d="M14.1866 9.52846C14.2459 9.58181 14.3164 9.62415 14.3939 9.65303C14.4715 9.68191 14.5547 9.69678 14.6386 9.69678C14.7226 9.69678 14.8058 9.68191 14.8833 9.65303C14.9609 9.62415 15.0313 9.58181 15.0907 9.52846L19.335 5.71971C19.3824 5.67731 19.4199 5.62694 19.4456 5.5715C19.4712 5.51605 19.4844 5.45661 19.4844 5.39659C19.4844 5.33656 19.4712 5.27712 19.4456 5.22168C19.4199 5.16623 19.3824 5.11586 19.335 5.07346L15.0907 1.26471C14.8404 1.04013 14.4369 1.04013 14.1866 1.26471C13.9364 1.48929 13.9364 1.85138 14.1866 2.07596L17.8845 5.39888L14.1815 8.72179C13.9364 8.94179 13.9364 9.30846 14.1866 9.52846Z" fill="#4EA692"/>
<path d="M18.0422 5.41943L3.29883 5.41943" stroke="#4EA692" stroke-width="1.5" stroke-linecap="round"/>
</svg>
