<svg width="119" height="276" viewBox="0 0 119 276" fill="none" xmlns="http://www.w3.org/2000/svg">
<g opacity="0.6" clip-path="url(#clip0_0_106613)">
<path d="M65.7402 39.1292C65.5419 39.3906 65.3436 39.652 65.1542 39.9135C65.2173 40.0397 65.2895 40.1749 65.3526 40.3011C65.5509 40.3642 65.7492 40.4273 65.9386 40.4995V40.3101C66.0017 39.9225 66.2631 39.5258 65.9386 39.1292C65.8755 39.1292 65.8123 39.1292 65.7402 39.1292Z" fill="#033A4E"/>
<path d="M65.2314 273.045C69.739 263.02 74.4539 253.067 78.3304 242.772C79.295 240.212 80.2056 237.634 81.053 235.028C81.4677 233.739 81.8644 232.45 82.243 231.152C82.3782 230.674 82.4503 230.151 82.7749 229.763C83.1535 229.313 83.1896 228.645 83.3338 228.077C84.623 222.795 85.9302 217.367 85.1639 211.895C84.8123 209.416 83.8026 207.135 83.2888 204.701C83.0183 203.43 82.9913 202.132 82.9011 200.843C82.8019 199.427 82.7208 198.012 82.6577 196.597C82.5225 193.766 82.4233 190.926 82.234 188.095C82.1348 186.707 82.0176 185.355 81.666 184.002C81.3415 182.731 80.9268 181.487 80.7285 180.18C80.5211 178.819 80.6834 177.367 80.6022 175.997C80.5211 174.618 80.2957 173.283 80.0523 171.931C79.5925 169.389 79.0787 166.856 78.3935 164.358C78.051 163.123 77.6723 161.888 77.2486 160.68C77.0322 160.067 76.8069 159.454 76.5635 158.841C76.3381 158.273 76.0857 157.867 75.4366 157.768C74.5891 157.642 73.4622 157.877 72.8041 158.444C72.0108 159.112 71.4068 160.238 70.8839 161.122C69.5407 163.394 68.9907 165.738 68.8104 168.343C68.6211 171.12 68.7203 173.914 69.0088 176.682C69.162 178.088 69.3513 179.486 69.5857 180.874C69.8021 182.199 69.9914 183.498 69.8562 184.841C69.73 186.04 69.4325 187.275 69.1169 188.438C68.8285 189.502 68.4318 190.538 67.8819 191.494C66.9082 193.18 65.4658 194.685 63.4104 194.776C61.995 194.839 60.4353 194.343 59.3445 193.45C58.5872 192.828 58.1545 192.08 57.7488 191.206C57.253 190.142 56.5588 189.186 55.8016 188.294C54.3501 186.608 52.6553 185.156 51.2489 183.434C50.5007 182.506 49.8966 181.469 49.1213 180.55C48.3641 179.657 47.5257 178.837 46.5791 178.134C46.0742 177.764 45.5423 177.43 44.9834 177.151C44.5507 176.935 44.3343 176.61 44.0458 176.213C43.3516 175.249 42.7837 174.194 42.36 173.094C41.4855 170.804 41.3954 168.523 41.6748 166.116C41.8191 164.827 41.9903 163.529 42.3149 162.267C42.6214 161.041 43.1713 160.04 43.8835 159.003C44.5326 158.066 45.2719 157.191 46.1373 156.461C47.0298 155.704 48.0666 155.136 49.0132 154.442C50.8252 153.107 52.493 151.548 53.7822 149.691C54.5124 148.645 54.9632 147.626 55.1615 146.355C55.3238 145.318 55.495 143.795 54.5575 143.065C53.8002 142.47 52.5832 142.821 51.7447 143.092C50.6449 143.452 49.6803 144.083 48.7968 144.823C47.9494 145.544 47.1831 146.355 46.4078 147.157C45.5604 148.041 44.6678 148.708 43.595 149.294C42.5403 149.871 41.3773 150.385 40.4938 151.214C39.6825 151.981 39.1325 153.017 38.5646 153.964C37.9966 154.892 37.3926 155.929 36.4641 156.551C36.0854 156.804 35.6617 156.975 35.247 157.155C34.5258 157.462 33.9849 157.877 33.3628 158.345C32.3982 159.076 31.3074 159.652 30.4419 160.5C29.6216 161.311 28.8913 162.249 28.4045 163.304C27.3317 165.639 27.9087 168.253 28.7381 170.57C29.6576 173.13 30.487 175.699 31.2984 178.305C32.1278 180.991 33.2186 183.579 34.1382 186.229C35.0397 188.862 35.8781 191.512 36.8337 194.126C37.2664 195.307 37.627 196.66 38.2761 197.742C38.8891 198.769 39.8177 199.617 40.9175 200.085C40.6741 200.031 40.4307 199.977 40.1873 199.923C40.9266 196.371 38.4294 193.027 36.5993 190.214C34.6069 187.14 31.9745 184.525 30.0272 181.415C28.0259 178.224 26.7728 174.482 25.7 170.903C25.1591 169.1 24.6813 167.279 24.2125 165.458C23.9781 164.557 23.6355 163.61 23.5273 162.682C23.4191 161.735 23.6265 160.779 23.924 159.887C24.51 158.129 25.6188 156.542 26.7007 155.055C27.8366 153.504 29.0626 152.026 30.2436 150.511C31.3795 149.051 32.2269 147.419 33.1285 145.814C33.5702 145.03 34.03 144.264 34.5528 143.533C35.0847 142.794 35.7248 142.145 36.1756 141.334C36.6173 140.549 36.9238 139.693 37.2123 138.846C37.5008 137.989 37.9335 137.187 38.2761 136.348C38.9522 134.69 39.5563 132.986 40.4217 131.417C41.197 130.011 42.1166 128.812 43.8385 128.722C44.8752 128.667 45.8849 129.037 46.6241 129.776C47.724 130.885 48.1657 132.616 47.9854 134.14C47.742 136.186 47.0478 138.251 46.3176 140.171C45.5603 142.172 44.6679 144.137 43.6852 146.031C42.8378 147.671 41.206 148.717 40.2594 150.295C40.2144 150.376 39.5202 150.178 39.4751 150.096C39.0694 149.321 39.2317 148.492 39.4751 147.689C39.7456 146.77 40.025 145.859 40.3676 144.958C41.0798 143.101 41.9182 141.289 42.9009 139.549C43.8835 137.818 45.0014 136.159 46.2455 134.608C46.7504 133.977 47.2732 133.418 47.8682 132.886C48.31 132.481 48.6796 132.463 49.2385 132.598C50.3835 132.877 51.7628 133.4 52.1955 134.617C52.7094 136.06 52.7905 137.908 52.5832 139.404C52.484 140.099 52.3037 140.793 51.9972 141.433C51.8349 141.784 51.6275 142.109 51.3932 142.416C51.1047 142.785 50.69 143.065 50.4646 143.461C50.0048 144.264 50.0228 145.363 49.9237 146.256C49.7975 147.401 49.6893 148.555 49.5721 149.7C49.3647 151.791 49.1484 153.883 48.7607 155.956C48.337 158.192 47.4625 160.284 47.0028 162.501C46.561 164.647 46.4889 166.847 46.3357 169.028C46.1734 171.345 46.525 173.635 46.7053 175.943C46.8675 178.016 46.7233 180.135 46.1013 182.136C45.4071 184.363 44.7039 186.59 44.1179 188.853C43.559 191.007 43.0812 193.189 42.7657 195.398C42.6124 196.488 42.4862 197.588 42.4141 198.688C42.378 199.238 42.351 199.788 42.3419 200.338C42.3329 200.915 42.2067 201.699 42.351 202.267C42.5042 202.835 42.982 203.457 43.2525 203.989C43.5139 204.485 43.7663 204.972 44.0188 205.467C44.6228 206.621 45.2178 207.775 45.8038 208.929C46.9938 211.255 48.1477 213.599 49.2475 215.97C51.312 220.406 52.6102 225.382 52.7725 230.277C52.7725 230.277 51.9972 230.214 51.9882 230.079C51.8439 225.869 50.8072 221.749 49.3377 217.818C48.5624 215.727 47.4986 213.725 46.516 211.724C45.5694 209.813 44.5957 207.911 43.6131 206.008C43.0992 205.026 42.5854 204.043 42.0715 203.051C41.8461 202.628 41.6117 202.258 41.5486 201.789C41.4675 201.167 41.5306 200.482 41.5486 199.86C41.6117 197.742 41.8641 195.632 42.2338 193.549C42.6214 191.35 43.1533 189.177 43.7573 187.022C44.3253 184.985 45.1366 182.975 45.5784 180.919C45.7857 179.964 45.948 178.927 46.0021 177.953C46.0742 176.862 45.9029 175.717 45.8038 174.636C45.5964 172.508 45.4161 170.417 45.5784 168.28C45.7407 166.098 45.8128 163.899 46.3176 161.753C46.7954 159.734 47.5617 157.804 47.9494 155.749C48.337 153.684 48.5624 151.584 48.7607 149.492C48.8599 148.519 48.95 147.554 49.0492 146.581C49.1484 145.625 49.1664 144.588 49.491 143.669C49.7614 142.884 50.4736 142.434 50.9063 141.73C51.303 141.072 51.5644 140.333 51.6997 139.585C51.9701 138.115 51.8349 136.592 51.5374 135.131C51.3391 134.158 50.8973 133.436 49.9868 132.977C49.4098 132.688 49.0943 132.643 48.6075 133.085C48.328 133.337 48.0305 133.59 47.7691 133.86C46.3176 135.357 45.1186 137.232 44.0548 139.017C42.973 140.829 42.0535 142.731 41.2782 144.696C40.9175 145.607 40.6381 146.535 40.3406 147.473C40.0431 148.393 39.7366 149.384 40.2053 150.295C39.9439 150.232 39.6825 150.16 39.421 150.096C40.2234 148.753 41.5125 147.816 42.4141 146.553C42.8919 145.886 43.2164 145.102 43.568 144.363C43.9827 143.506 44.3794 142.641 44.758 141.766C45.4702 140.099 46.0922 138.395 46.561 136.646C46.9757 135.086 47.4085 133.472 47.0118 131.859C46.8405 131.147 46.525 130.461 46.0652 129.884C45.8669 129.65 45.6505 129.434 45.3981 129.244C44.9744 128.929 44.6498 128.902 44.1269 128.992C42.36 129.289 41.5486 130.813 40.8094 132.282C40.0431 133.815 39.4841 135.438 38.817 137.024C38.4925 137.791 38.1319 138.512 37.8614 139.296C37.5639 140.144 37.2484 140.991 36.7886 141.766C36.3559 142.479 35.7699 143.074 35.2831 143.75C34.7602 144.48 34.3004 145.246 33.8587 146.031C33.0022 147.554 32.2089 149.123 31.1451 150.52C30.0272 151.981 28.8372 153.396 27.7374 154.865C26.6826 156.272 25.5828 157.786 24.9066 159.418C24.5911 160.193 24.3387 161.032 24.2575 161.861C24.1674 162.853 24.4378 163.736 24.6813 164.683C25.132 166.432 25.5738 168.172 26.0696 169.903C27.0522 173.374 28.2242 176.799 29.865 180.018C31.668 183.57 34.5078 186.382 36.7706 189.619C37.8885 191.224 38.9703 192.936 39.8718 194.667C40.7553 196.38 41.3142 198.228 40.9175 200.149C40.8995 200.221 40.2414 200.013 40.1873 199.986C39.2137 199.572 38.4113 198.895 37.7803 198.048C37.041 197.047 36.6804 195.767 36.2477 194.613C35.265 191.963 34.4086 189.258 33.4981 186.581C32.5785 183.876 31.4516 181.244 30.6042 178.521C29.7748 175.871 28.9725 173.238 28.0078 170.633C27.1334 168.244 26.4753 165.539 27.5932 163.123C28.08 162.069 28.8012 161.131 29.6306 160.32C30.487 159.472 31.5869 158.895 32.5515 158.165C33.0022 157.822 33.4169 157.426 33.9308 157.191C34.5438 156.912 35.1839 156.696 35.7338 156.308C36.6714 155.65 37.2754 154.559 37.8614 153.594C38.4384 152.639 39.0063 151.602 39.8718 150.872C40.8364 150.069 42.0084 149.556 43.0902 148.942C45.1547 147.78 46.4799 145.823 48.31 144.372C49.7073 143.263 51.5284 142.379 53.3585 142.605C53.9354 142.677 54.5755 142.821 55.0804 143.137C56.0089 143.714 56.045 144.805 55.9819 145.805C55.9097 147.094 55.5672 148.302 54.882 149.384C54.278 150.349 53.5658 151.232 52.7725 152.053C51.9521 152.909 51.0596 153.684 50.122 154.397C49.1844 155.118 48.1477 155.704 47.2191 156.425C45.4251 157.804 43.7573 159.959 43.1443 162.15C42.7837 163.439 42.5944 164.773 42.4411 166.107C42.2969 167.306 42.1616 168.496 42.2608 169.704C42.4591 172.129 43.3516 174.491 44.776 176.466C45.4882 177.457 46.7053 177.89 47.6519 178.647C48.5714 179.378 49.3918 180.234 50.131 181.154C50.9063 182.109 51.5284 183.173 52.3217 184.111C53.061 184.976 53.8723 185.778 54.6657 186.581C56.2163 188.149 57.6947 189.745 58.6143 191.773C59.5969 193.946 61.9409 195.262 64.2397 194.226C66.2141 193.333 67.4221 190.998 68.0622 189.042C68.8645 186.59 69.2972 183.993 68.8735 181.433C68.4138 178.656 68.0441 175.88 67.9269 173.067C67.8097 170.299 67.7557 167.279 68.4859 164.593C68.8014 163.439 69.2882 162.33 69.8742 161.284C70.4151 160.32 71.0462 159.238 71.8215 158.444C72.8312 157.399 74.6432 157.444 75.9234 157.849C76.6536 158.084 77.0142 158.381 77.2937 159.103C77.7895 160.347 78.2313 161.618 78.6189 162.898C79.3852 165.395 79.9712 167.946 80.467 170.507C80.9989 173.274 81.3775 175.97 81.3956 178.783C81.4046 180.189 81.621 181.451 81.9906 182.812C82.3692 184.174 82.7388 185.517 82.847 186.932C83.0814 189.808 83.1896 192.693 83.3158 195.578C83.3789 197.038 83.451 198.508 83.5412 199.968C83.6313 201.302 83.6584 202.673 83.8387 203.998C84.1813 206.486 85.2721 208.794 85.7319 211.255C86.2457 213.978 86.1916 216.782 85.8491 219.513C85.5065 222.272 84.8664 224.976 84.2083 227.672C84.055 228.303 83.9829 229.069 83.7215 229.664C83.6494 229.835 83.5412 229.926 83.433 230.07C83.2437 230.331 83.1986 230.566 83.1085 230.881C82.7388 232.179 82.3512 233.478 81.9365 234.758C78.5378 245.441 73.931 255.7 69.2972 265.905C68.1794 268.366 67.0615 270.836 65.9436 273.297C65.8985 273.397 65.1503 273.117 65.1593 273.099" fill="#CBE2D1"/>
<path d="M66.5975 194.036C66.4533 192.594 66.1467 191.179 65.6509 189.808C65.2272 188.663 64.488 187.636 64.1995 186.455C63.5233 183.642 62.4235 180.956 61.1884 178.35C59.9894 175.826 58.7273 173.329 57.7266 170.714C57.2668 169.506 56.8611 168.271 56.5456 167.018C56.3833 166.369 56.2932 165.693 56.1309 165.044C56.0227 164.593 55.6892 164.287 55.6351 163.818C55.4818 162.42 55.563 160.933 55.5269 159.517C55.4818 158.066 55.4638 156.624 55.5539 155.172C55.6351 153.802 55.8154 152.432 56.1489 151.097C56.5366 149.565 57.2398 148.167 57.9249 146.752C59.2411 144.038 60.6385 141.361 61.9096 138.62C63.1537 135.925 64.7764 133.482 66.3631 130.976C67.8777 128.577 70.3929 126.856 71.3936 124.133C72.4574 121.203 71.3936 118.273 70.4199 115.478C69.5094 112.873 68.4546 110.322 67.2015 107.861C66.5795 106.626 65.9033 105.418 65.2002 104.237C64.506 103.083 63.4512 101.938 63.298 100.567C63.1717 99.4405 63.2529 97.7727 61.9006 97.349C60.0164 96.763 58.8445 98.6382 58.2224 100.135C57.2578 102.452 57.3029 105.075 57.8438 107.491C58.1683 108.924 58.8625 110.196 59.3583 111.566C59.8091 112.828 60.0345 114.198 60.368 115.496C61.0712 118.246 62.1801 120.734 63.3701 123.304C64.3527 125.431 65.5337 127.487 67.3908 128.974C67.7154 129.227 68.112 129.578 68.5267 129.668C68.671 129.704 68.8423 129.65 68.9865 129.704C69.6536 129.93 70.2486 130.462 70.9248 130.714C72.2139 131.201 73.5842 131.327 74.9546 131.246C76.4871 131.156 77.5329 130.083 78.6147 129.118C79.7146 128.145 80.553 126.874 81.2742 125.602C82.6535 123.177 83.6001 120.392 84.123 117.651C84.6909 114.658 84.6819 111.476 84.3934 108.456C84.1049 105.409 82.1216 102.956 80.7423 100.342C79.4802 97.953 78.3983 95.4648 76.9739 93.166C76.6314 92.616 76.2798 92.0841 75.9011 91.5613C75.4955 91.0113 74.9636 90.5245 74.7292 89.8844C74.2874 88.6584 73.5031 87.6036 72.6827 86.612C70.9789 84.5565 69.3201 82.501 67.3548 80.689C65.3083 78.7958 63.4692 76.8846 62.144 74.4054C61.5761 73.3507 61.0081 72.1877 60.6385 71.0518C60.2689 69.9159 60.5123 68.9963 61.1884 68.0498C62.126 66.7516 63.7397 64.9395 65.5517 65.5255C66.5705 65.8501 67.3908 66.7426 68.067 67.5179C68.9414 68.5185 69.7167 69.4742 70.8436 70.2044C73.1605 71.7099 75.5045 73.2335 77.623 75.0275C78.7499 75.9921 79.9219 76.9026 81.1029 77.7951C81.6438 78.2008 82.2658 78.5704 82.7617 79.0302C83.2845 79.517 83.7263 80.121 84.2041 80.6439C85.1777 81.6897 86.2325 82.6633 87.2061 83.7091C88.0626 84.6376 88.5674 86.017 88.8739 87.216C89.6222 90.1459 89.6763 93.193 90.2713 96.141C90.8933 99.2151 91.9301 102.28 92.8857 105.264C93.3455 106.689 93.8323 108.104 94.3912 109.492C94.8871 110.718 95.5181 111.89 95.9238 113.144C96.618 115.307 96.672 117.714 95.6353 119.779C95.0854 120.888 94.2289 121.753 93.4356 122.682C92.4259 123.881 91.4613 125.116 90.5327 126.378C88.7838 128.776 87.1521 131.264 85.4842 133.716C85.0425 134.365 84.5467 135.672 83.6361 135.699C82.7707 135.736 82.1486 135.086 81.779 134.374C81.3192 133.482 81.166 132.517 81.0849 131.534C80.9677 130.02 80.7874 128.514 80.58 127.018C79.7326 120.933 78.1549 114.92 77.8664 108.771C77.7312 105.787 76.4511 103.065 75.3692 100.333C75.1529 99.7741 74.9005 99.2061 74.7562 98.6201C74.5939 97.935 74.5759 97.2318 74.3866 96.5557C74.035 95.2935 73.3949 93.7249 72.5655 92.6972C70.9428 90.6688 67.3728 91.5252 65.2092 91.8678C62.2071 92.3366 59.178 92.589 56.158 92.9135C54.6705 93.0758 53.192 93.3192 51.6955 93.5176C50.1268 93.7249 48.6303 94.0224 47.1428 94.5813C44.3481 95.6361 41.4542 96.3303 38.6235 97.2588C36.8385 97.8448 37.1901 99.6028 38.2539 100.721C38.6686 101.162 39.1464 101.514 39.6512 101.839C40.2733 102.235 40.8683 102.434 41.5444 102.713C42.1214 102.947 42.6623 103.245 43.2933 103.317C43.9695 103.389 44.6817 103.407 45.3668 103.425C46.8633 103.461 48.3689 102.794 49.7662 102.325C52.3355 101.451 54.9139 100.486 57.6184 100.108C60.0525 99.7651 62.8833 99.8101 65.092 101.018C66.1107 101.577 66.895 102.47 67.6974 103.29C68.5538 104.164 69.3832 105.084 70.0233 106.13C70.4109 106.761 71.4026 108.275 70.8707 109.006C70.3298 109.745 69.0947 109.565 68.3104 109.546C66.886 109.519 65.4706 109.303 64.0823 109.006C62.5407 108.672 61.0712 108.221 59.4755 108.221C56.3924 108.212 53.4805 109.195 50.9652 110.953C48.7475 112.503 47.0977 114.649 45.484 116.795C44.7267 117.804 44.0596 118.922 43.9154 120.211C43.8252 121.005 44.0146 121.338 44.7267 121.69C45.3488 121.987 46.0249 122.159 46.7101 122.204C48.0173 122.294 49.4687 122.023 50.6677 121.501C51.9749 120.924 52.9666 119.616 53.8771 118.571C54.6074 117.741 55.3466 116.867 56.2391 116.2C57.1586 115.515 58.2675 115.037 59.3764 114.748C60.6655 114.406 62.0268 114.325 63.352 114.496C64.4609 114.64 64.8846 115.208 65.11 116.29C65.6689 119.012 66.2099 121.753 67.0933 124.394C68.7431 129.362 71.9615 134.275 76.415 137.169C78.7048 138.656 81.5627 139.576 84.2492 138.647C86.4579 137.89 87.9454 135.952 89.1174 134.032C90.3344 132.03 91.3982 129.912 92.3358 127.775C92.8046 126.711 93.2824 125.639 93.9224 124.665C94.4183 123.908 95.1034 122.88 95.9599 122.501C96.4827 122.267 96.8974 122.366 96.9786 122.979C97.1048 123.989 96.4827 124.917 96.0771 125.774C94.7608 128.568 93.6069 131.435 92.3718 134.257C92.0743 134.942 91.7678 135.627 91.4523 136.303C91.0917 137.079 90.5147 137.926 90.3614 138.774C90.1451 140.027 89.505 141.19 89.0362 142.38C87.9454 145.12 87.0258 147.96 86.5751 150.881C85.7006 156.57 87.0889 162.294 88.883 167.676C90.6139 172.851 92.9488 177.791 95.446 182.632C97.9612 187.51 100.657 192.306 103.109 197.21C105.877 202.745 108.482 208.371 111.186 213.933C113.864 219.423 116.505 224.922 118.958 230.512C119.057 230.746 118.381 231.161 118.299 230.981C115.577 224.751 112.602 218.63 109.618 212.518C106.733 206.613 104.01 200.618 100.981 194.785C95.5812 184.39 89.3968 174.194 86.6742 162.682C85.9621 159.689 85.4482 156.66 85.6465 153.577C85.8449 150.538 86.5931 147.572 87.6028 144.706C88.1257 143.227 88.7207 141.767 89.3427 140.324C89.5861 139.756 89.5952 139.17 89.8115 138.611C90.1451 137.764 90.6139 136.953 90.9925 136.123C92.3808 133.076 93.6159 129.957 95.0042 126.91C95.473 125.891 96.4827 124.539 96.2934 123.349C96.1492 122.42 95.2837 123.502 95.0042 123.854C94.5174 124.467 94.1208 125.143 93.7692 125.837C92.6242 128.082 91.6686 130.39 90.4516 132.598C88.306 136.502 85.0786 140.216 80.1563 139.441C77.3526 138.999 74.9906 137.277 72.9893 135.366C70.9699 133.446 69.266 131.093 67.9858 128.614C66.6967 126.089 65.8943 123.358 65.2633 120.599C64.9297 119.157 64.7314 117.66 64.3347 116.245C63.8749 114.613 61.7113 114.847 60.368 115.01C58.6461 115.208 56.9964 115.866 55.7433 117.074C54.7786 118.003 53.9673 119.076 53.0297 120.04C52.2364 120.851 51.3349 121.663 50.253 122.051C49.0901 122.474 47.855 122.772 46.6109 122.754C46.052 122.754 45.493 122.673 44.9611 122.519C44.5464 122.402 43.4466 122.06 43.2302 121.636C43.0499 121.284 43.2302 120.554 43.2933 120.184C43.4015 119.598 43.6089 119.048 43.8793 118.517C44.4202 117.453 45.1955 116.533 45.9348 115.605C46.7461 114.595 47.4854 113.558 48.4139 112.639C50.253 110.827 52.588 109.231 55.0671 108.456C56.5005 108.014 57.988 107.734 59.4936 107.689C61.0171 107.644 62.4145 107.951 63.893 108.311C65.5968 108.726 67.3367 109.015 69.0857 109.024C69.266 109.024 70.0052 109.114 70.1675 108.988C70.4921 108.735 70.0774 108.032 69.9602 107.743C69.6717 107.076 69.293 106.454 68.8693 105.868C68.094 104.814 67.1655 103.885 66.2369 102.965C65.1641 101.902 64.0642 101.198 62.5767 100.838C59.5296 100.099 56.4014 100.64 53.4534 101.523C51.9299 101.983 50.4333 102.533 48.9188 103.038C47.6206 103.47 46.2864 104.02 44.898 103.984C43.5728 103.948 42.4008 103.876 41.1838 103.353C40.5257 103.074 39.9036 102.902 39.2996 102.524C38.8128 102.217 38.3621 101.92 37.9293 101.532C37.145 100.82 36.4418 99.7831 36.7213 98.6652C36.9377 97.7998 37.713 97.2048 38.5153 96.8982C39.9036 96.3754 41.3911 96.0508 42.8155 95.6271C44.4833 95.1313 46.1241 94.5813 47.7649 93.9773C49.1532 93.4635 50.6046 93.2201 52.0741 93.0307C53.5977 92.8324 55.1122 92.58 56.6358 92.4177C60.0164 92.0571 63.3701 91.6604 66.7417 91.1917C68.8333 90.9032 72.0066 90.4163 73.3859 92.4988C74.1071 93.5897 74.7382 94.96 75.0808 96.2221C75.2701 96.8982 75.2971 97.6104 75.4504 98.2866C75.6487 99.134 76.0454 99.9634 76.3699 100.766C76.9289 102.163 77.5149 103.56 77.9386 105.003C78.4074 106.571 78.4885 108.104 78.6417 109.718C78.9573 113.026 79.4802 116.272 80.0661 119.535C80.6341 122.727 81.2111 125.927 81.5627 129.154C81.743 130.768 81.5987 135.429 84.2852 135.186C84.1049 135.303 83.9246 135.411 83.7533 135.528C86.9447 130.966 89.8656 126.197 93.5528 122.005C95.3017 120.013 96.059 117.75 95.6083 115.1C95.4009 113.847 94.9141 112.72 94.3912 111.575C93.7962 110.25 93.2733 108.897 92.7955 107.527C91.894 104.922 91.1548 102.271 90.3795 99.6298C89.5411 96.763 89.1714 93.9052 88.7838 90.9573C88.5855 89.4788 88.3961 87.9101 87.8102 86.5218C87.5848 85.9899 87.3684 85.44 87.0799 84.9351C86.7193 84.3131 86.1604 83.8353 85.6555 83.3304C84.736 82.4019 83.8164 81.4733 82.942 80.4997C82.4642 79.9678 82.0495 79.499 81.4725 79.0663C80.9316 78.6606 80.3817 78.2549 79.8408 77.8492C77.5599 76.1273 75.4233 74.2432 73.0704 72.6294C71.9615 71.8632 70.7896 71.178 69.6897 70.4117C68.8423 69.8167 68.2022 68.9783 67.5351 68.203C66.8139 67.3646 65.9484 66.3369 64.8305 66.0484C63.4242 65.6788 62.3333 67.1122 61.6302 68.1219C60.6655 69.4922 61.2876 70.6641 61.8645 72.0164C62.3604 73.1884 62.9013 74.3153 63.5955 75.3971C64.9928 77.5788 66.913 79.2376 68.7702 80.9955C70.6092 82.7354 72.241 84.7909 73.8006 86.7923C74.1432 87.234 74.4677 87.6938 74.7472 88.1806C75.0717 88.7395 75.225 89.4066 75.5676 89.9295C75.8921 90.4254 76.3339 90.8671 76.6855 91.3539C77.0821 91.9129 77.4608 92.4898 77.8124 93.0848C79.1286 95.2845 80.1743 97.6375 81.3733 99.9093C82.6174 102.271 84.3123 104.453 84.8983 107.112C85.1958 108.465 85.1777 109.916 85.2048 111.295C85.2408 112.711 85.2048 114.126 85.0515 115.542C84.763 118.138 84.0418 120.716 83.0231 123.123C82.1396 125.215 80.9316 127.523 79.2277 129.064C78.4705 129.749 77.6861 130.489 76.8207 131.039C75.9282 131.598 75.0988 131.814 74.053 131.841C72.8811 131.877 71.7001 131.742 70.5822 131.363C69.9511 131.147 69.3832 130.84 68.8062 130.516C68.3284 130.245 67.8506 130.272 67.3908 129.966C65.5157 128.713 64.2085 126.856 63.2078 124.872C62.153 122.772 61.0622 120.581 60.35 118.336C59.9443 117.065 59.6288 115.767 59.3133 114.469C58.9527 113.008 58.4929 111.638 57.943 110.232C57.0955 108.05 56.5997 105.814 56.8161 103.443C57.0054 101.388 57.7717 99.2782 59.2321 97.7727C60.4762 96.4926 62.9013 96.159 63.6586 98.0973C63.8389 98.557 63.902 99.0168 63.929 99.5036C63.9831 100.387 64.1003 101.027 64.5871 101.784C65.3354 102.929 66.0386 104.092 66.7147 105.282C67.9768 107.527 69.0767 109.862 70.0323 112.251C70.9699 114.595 72.0607 117.146 72.4123 119.652C72.7729 122.195 72.0787 124.503 70.5281 126.522C69.7438 127.532 68.8423 128.433 68.0219 129.416C67.0663 130.552 66.3361 131.859 65.5337 133.103C64.7674 134.284 64.0011 135.465 63.343 136.718C62.6218 138.088 62.0268 139.531 61.3417 140.928C60.0796 143.498 58.7543 146.04 57.5643 148.654C56.3473 151.314 56.1489 154.325 56.158 157.219C56.158 158.616 56.2211 160.004 56.2661 161.402C56.2842 162.042 56.2571 162.682 56.3022 163.322C56.3383 163.809 56.6177 164.052 56.762 164.494C57.1316 165.684 57.2578 166.973 57.6364 168.181C58.0511 169.515 58.556 170.822 59.1149 172.112C60.1697 174.555 61.3867 176.926 62.4956 179.342C63.0546 180.559 63.5324 181.812 63.9651 183.083C64.1454 183.606 64.3167 184.129 64.4699 184.661C64.6953 185.427 64.8125 186.283 65.1641 187.005C65.6689 188.041 66.1828 189.006 66.5344 190.124C66.904 191.287 67.1294 192.477 67.2556 193.694C67.2827 193.928 66.5975 194.316 66.5705 194.073" fill="#CBE2D1"/>
<path d="M83.6892 230.168C84.6268 231.448 85.1587 232.98 85.6004 234.495C86.0872 236.172 86.5109 237.867 87.0518 239.525C87.6108 241.229 88.2328 242.915 88.7467 244.637C89.2515 246.323 89.7023 248.018 90.2162 249.703C90.7751 251.57 91.3431 253.454 91.4693 255.41C91.4783 255.554 90.6759 255.635 90.6759 255.527C90.5677 253.796 90.108 252.111 89.6121 250.452C89.1073 248.766 88.6295 247.071 88.1427 245.385C87.6468 243.654 87.0428 241.968 86.4659 240.265C85.9069 238.606 85.4381 236.92 84.9784 235.234C84.5096 233.512 83.9596 231.745 82.8959 230.285C82.8508 230.231 83.2565 230.141 83.2835 230.141C83.3737 230.123 83.6261 230.068 83.6982 230.168" fill="#CBE2D1"/>
<path d="M52.2395 229.855C52.4829 231.459 51.7436 233.001 50.9503 234.353C50.0578 235.868 49.0932 237.346 48.1196 238.816C46.0641 241.926 43.9005 244.964 41.7008 247.966C39.4921 250.986 37.3014 254.015 35.0476 256.999C32.8028 259.983 30.4679 262.886 28.2141 265.861C27.0782 267.358 25.9693 268.881 24.8875 270.423C23.8958 271.838 22.778 273.154 21.588 274.417C21.2905 274.732 20.993 275.048 20.6864 275.354C20.3529 275.697 19.821 275.264 20.1906 274.894C21.3896 273.677 22.5346 272.415 23.5623 271.054C24.6621 269.602 25.6808 268.079 26.7807 266.618C28.9804 263.67 31.2883 260.804 33.524 257.874C35.7508 254.962 37.8964 251.978 40.078 249.021C42.2687 246.046 44.4324 243.053 46.5058 239.988C47.5246 238.473 48.5252 236.95 49.4808 235.399C50.2922 234.101 51.2388 232.739 51.4732 231.189C51.5273 230.81 51.5363 230.441 51.4732 230.062C51.4101 229.638 52.1674 229.395 52.2395 229.846" fill="#CBE2D1"/>
<path d="M25.2231 33.2439C25.5476 33.1898 25.8181 32.9825 26.1336 32.9194C26.4671 32.8472 26.8007 32.8292 27.1343 32.7751C27.8284 32.6579 28.5136 32.5137 29.1987 32.3153C29.8478 32.126 30.4879 31.9007 31.1009 31.6212C31.741 31.3327 32.354 30.9721 32.9761 30.6295C35.4102 29.2953 37.8984 28.0422 40.2513 26.5547C41.3782 25.8425 42.5231 25.1032 43.5148 24.2017C43.9295 23.8231 44.3172 23.3994 44.6146 22.9216C44.9753 22.3266 45.1646 21.6594 45.3899 21.0013C45.8497 19.6851 46.3275 18.414 47.1209 17.26C47.4905 16.7281 47.788 16.1602 48.1666 15.6373C48.5453 15.1144 49.0231 14.6817 49.555 14.3121C50.1139 13.9244 50.7269 13.5638 51.394 13.3925C52.0161 13.2393 52.6652 13.2573 53.2782 13.4196C54.4772 13.7441 55.6131 14.6456 56.3163 15.6644C57.0646 16.7372 57.4793 18.0263 57.8849 19.2614C58.0743 19.8294 58.2456 20.4063 58.4709 20.9653C58.6693 21.4431 58.8766 21.9209 59.0389 22.4167C59.1831 22.8494 59.3454 23.3994 59.1922 23.8501C59.0299 24.346 58.5881 24.7336 58.2275 25.0852C57.1908 26.0769 56.1811 27.1046 55.1443 28.0963C54.0896 29.0969 52.9987 30.0525 52.0431 31.1614C51.6014 31.6843 51.1687 32.2162 50.6999 32.721C50.2131 33.2349 49.6902 33.7127 49.1493 34.1815C48.0855 35.101 47.0397 36.0476 45.9128 36.895C45.3359 37.3188 44.7499 37.7244 44.1639 38.1391C43.5959 38.5358 43.037 38.9505 42.4149 39.266C41.829 39.5635 41.2069 39.7889 40.5759 39.9872C39.8546 40.2216 39.1425 40.465 38.4303 40.7265C37.0509 41.2313 35.6987 41.6641 34.2202 41.7182C32.7597 41.7722 31.2993 41.5559 29.8659 41.2854C29.1717 41.1502 28.4595 41.033 27.7834 40.8257C27.2064 40.6454 26.6565 40.411 26.1246 40.1405C25.0157 39.5816 23.979 38.8784 22.8521 38.3735C22.3202 38.1391 21.7793 37.9949 21.2293 37.8326C20.6794 37.6703 20.1205 37.3728 19.9853 36.7598C19.859 36.1648 20.1205 35.5608 20.2196 34.9748C20.2828 34.5962 20.2557 34.2356 20.2467 33.8569C20.2467 33.5594 20.2557 33.271 20.409 33.0005C20.6614 32.5678 21.1753 32.3604 21.635 32.2522C22.212 32.117 22.8431 31.9728 23.4381 31.9908C24.1052 32.0088 24.7903 32.2703 25.4214 32.4866C25.7099 32.5858 25.9893 32.694 26.2688 32.8112C26.5843 32.9554 26.8007 33.0546 27.0892 32.8112C27.594 32.3785 28.0448 31.8646 28.5226 31.4048C29.0635 30.891 29.6044 30.3771 30.1543 29.8813C32.3721 27.8799 34.7971 26.131 37.1862 24.346C38.3311 23.4985 39.449 22.615 40.6209 21.8037C41.4323 21.2357 42.2978 20.7489 43.046 20.1088C43.7492 19.5048 44.3081 18.7475 44.4163 17.81C44.4884 17.1879 44.3712 16.5569 44.2721 15.9438C44.1549 15.2497 44.0016 14.5555 43.8123 13.8794C43.055 11.1117 41.82 8.49732 40.5398 5.93702C39.8817 4.6208 39.1875 3.33164 38.4483 2.05148C38.1418 1.52861 37.8082 0.987697 37.2583 0.699212C36.7895 0.446788 36.2396 0.365651 35.7167 0.401712C35.0496 0.446788 34.4275 0.708227 33.8055 0.933606C33.1744 1.15898 32.5163 1.32126 31.8762 1.51959C30.4879 1.9433 29.1446 2.56535 27.8645 3.25951C26.5934 3.9627 25.3132 4.64785 23.988 5.25186C23.3569 5.54035 22.7078 5.8108 22.0948 6.12633C21.4818 6.45088 20.8868 6.81148 20.2828 7.15406C19.7148 7.46959 19.1468 7.78512 18.669 8.24489C18.1912 8.70467 17.8036 9.23656 17.452 9.78648C16.7398 10.8953 16.0907 12.0583 15.676 13.3114C15.2433 14.6096 15.099 15.9528 15.0269 17.3141C14.9548 18.7475 14.9638 20.19 15.072 21.6234C15.2613 23.9673 15.7121 26.3924 16.6677 28.556C17.0643 29.4666 17.5872 30.3591 18.3535 31.0082C19.2731 31.7925 20.4811 31.8375 21.626 32.0178C22.2661 32.117 22.8701 32.2072 23.5012 32.0178C24.1232 31.8195 24.6641 31.4409 25.3132 31.3237C25.6287 31.2696 25.9443 31.2786 26.2598 31.3147C26.5753 31.3507 26.8638 31.2966 27.0892 31.0532C27.3146 30.8098 27.3867 30.4132 27.4949 30.1066C27.6211 29.746 27.7293 29.3854 27.8375 29.0248C28.2341 27.6545 28.6398 26.2842 29.1987 24.968C29.7306 23.7059 30.3707 22.4978 31.0649 21.3169C32.5253 18.8287 34.13 16.4126 35.7798 14.0507C35.9871 13.7532 36.1945 13.4557 36.4018 13.1582C36.5821 12.9057 36.7895 12.6353 36.8436 12.3288C36.9247 11.869 36.6543 11.4182 36.3748 11.0937C35.7077 10.3003 34.7521 9.74141 33.8235 9.29065C32.5884 8.68664 31.2722 8.27194 29.929 8.00148C28.6668 7.74005 27.3777 7.55974 26.0885 7.50565C24.9616 7.46057 23.7987 7.60482 22.8611 8.28997C21.8784 9.00217 21.2474 10.1471 20.8597 11.274C20.454 12.446 20.2828 13.69 20.2106 14.9251C20.1746 15.475 20.1385 16.034 20.3549 16.5569C20.5983 17.1338 21.0671 17.5215 21.5539 17.8911C23.8167 19.5679 25.9984 21.3529 28.0448 23.3002C29.1086 24.3099 30.1003 25.3827 31.0468 26.4916C31.4345 26.9513 31.8582 27.3841 32.2278 27.8619C32.4893 28.1954 32.7417 28.5921 32.4893 28.9978C32.2909 29.3403 31.8943 29.5477 31.5517 29.719C31.1821 29.8903 30.7944 30.0345 30.3978 30.1337C29.6495 30.323 28.766 30.1788 28.2882 29.5207C27.8465 28.9257 27.7473 28.1233 27.6752 27.4111C27.576 26.4825 27.5039 25.545 27.3957 24.6164C27.2244 23.0928 27.0712 21.5693 26.9179 20.0547C26.7646 18.5492 26.5934 17.0437 26.4852 15.5291C26.4671 15.2316 26.4401 14.9341 26.404 14.6366C26.368 14.3482 26.3319 14.0416 26.4221 13.7622C26.5122 13.4647 26.7106 13.4557 26.99 13.4466C27.3236 13.4376 27.6481 13.4466 27.9817 13.4827C29.352 13.6269 30.6772 14.0687 31.9213 14.6457C32.4893 14.9071 33.0392 15.2046 33.5801 15.5291C34.13 15.8627 34.716 16.2594 35.3561 16.3585C36.492 16.5388 37.5918 15.7545 38.4843 15.1685C39.5391 14.4744 40.648 13.7622 41.829 13.3204C42.5141 13.068 43.2443 12.9147 43.9565 12.7615C44.6687 12.6172 45.3809 12.491 46.1021 12.4189C46.7873 12.3558 47.4725 12.3378 48.1666 12.3107C48.7346 12.2927 49.3296 12.2116 49.8885 12.3919C50.3393 12.5451 50.6368 12.8607 50.8441 13.2753C50.9703 13.5278 51.0875 13.7982 51.1867 14.0687C51.2228 14.1859 51.2588 14.3121 51.2768 14.4293C51.2949 14.6006 51.2588 14.7719 51.376 14.9071C51.1326 14.88 50.8892 14.853 50.6458 14.8169C50.8982 14.5735 50.9433 14.2219 51.1416 13.9425C51.2678 13.7622 51.8989 13.8884 51.9169 14.1228C51.944 14.6276 51.7276 15.0874 51.5022 15.5291C51.394 15.7455 51.2859 15.9528 51.1867 16.1782C51.0785 16.4307 51.0244 16.7011 50.9162 16.9625C50.6909 17.4944 50.4204 17.9993 50.2131 18.5312C50.0057 19.0811 49.8164 19.631 49.6181 20.181C49.2214 21.2628 48.6715 22.2364 48.1396 23.2461C47.6618 24.1476 47.2651 25.0762 46.6701 25.9146C46.012 26.8431 45.2818 27.7176 44.6327 28.6642C43.9836 29.6198 43.4156 30.6295 42.7936 31.6032C42.1806 32.5678 41.3872 33.3611 40.657 34.2266C39.9268 35.101 39.2326 36.0206 38.3671 36.7688C34.7791 39.861 29.6856 39.5185 25.2771 39.0677C22.825 38.8153 20.3639 38.5088 17.9478 38.031C15.7662 37.5982 13.5665 37.1204 11.502 36.282C10.7267 35.9665 9.96041 35.6059 9.25722 35.1461C8.95071 34.9388 8.5901 34.6953 8.4098 34.3528C8.17541 33.893 8.04919 33.3701 8.02215 32.8563C7.94101 31.6122 7.84185 30.3771 7.72465 29.133C7.59844 27.8528 7.38207 26.5727 7.17472 25.3106C6.78707 22.9125 6.35435 20.5145 6.05685 18.0985C5.92162 16.9716 5.83147 15.7996 6.02078 14.6727C6.18306 13.7081 6.59775 12.8246 7.20177 12.0493C8.63518 10.2192 10.3661 8.62353 12.0159 6.99179C13.5394 5.47724 15.1081 3.98073 16.9381 2.82679C17.8667 2.24982 18.8584 1.79906 19.8681 1.38436C20.3819 1.17701 20.9048 0.987697 21.4547 0.90656C22.0317 0.816409 22.6087 0.861485 23.1856 0.933606C24.3846 1.08686 25.5566 1.40239 26.7286 1.69088C27.8915 1.97936 29.0635 2.20474 30.2445 2.42111C32.7327 2.87186 35.2389 3.25952 37.7451 3.62914C38.9892 3.80944 40.2333 3.98974 41.4774 4.16103C42.6854 4.33232 43.8844 4.53065 45.0564 4.89126C46.021 5.18876 46.9315 5.58542 47.7159 6.2255C48.419 6.79345 48.978 7.51467 49.4558 8.27194C50.0328 9.2005 50.5466 10.2012 50.9433 11.2289C51.34 12.2566 51.5924 13.3745 51.4662 14.4834C51.4031 15.0694 51.2588 15.6553 51.1326 16.2323C51.0695 16.5208 51.0064 16.8003 50.9433 17.0888C50.8802 17.3592 50.772 17.6297 50.763 17.9091C50.763 18.1255 49.9696 18.0353 49.9696 17.7739C49.9696 17.5125 50.0778 17.26 50.1319 17.0076C50.204 16.7101 50.2671 16.4036 50.3303 16.1061C50.4475 15.5472 50.5917 14.9792 50.6638 14.4113C50.799 13.2844 50.5286 12.1575 50.1229 11.1117C49.7353 10.1381 49.2484 9.17345 48.6985 8.28095C48.2297 7.5327 47.6708 6.81148 46.9676 6.26156C46.1653 5.63951 45.2277 5.29694 44.254 5.0355C43.1181 4.72898 41.9462 4.58474 40.7832 4.41345C38.3671 4.07088 35.9421 3.7283 33.535 3.33164C31.164 2.953 28.784 2.56535 26.4581 1.97936C25.3583 1.70891 24.2494 1.41141 23.1225 1.26717C22.5456 1.19505 22.0137 1.19505 21.4547 1.3483C20.8958 1.49255 20.3729 1.72694 19.85 1.96133C18.9034 2.37603 17.9929 2.8358 17.1275 3.41277C16.253 4.00777 15.4416 4.68391 14.6573 5.38709C13.0526 6.83853 11.52 8.38914 10.0055 9.94876C9.23018 10.7511 8.43685 11.5715 7.77874 12.482C7.20177 13.2753 6.86821 14.1769 6.75101 15.1415C6.61578 16.2864 6.73298 17.4494 6.88624 18.5853C7.0395 19.7302 7.22882 20.8661 7.4001 22.002C7.76972 24.382 8.25654 26.753 8.49094 29.151C8.60813 30.3771 8.76139 31.6122 8.79745 32.8472C8.80647 33.3611 8.92366 33.9291 9.1851 34.3798C9.35639 34.6953 9.73503 34.9207 10.0325 35.101C11.6462 36.1017 13.5304 36.6516 15.3515 37.1024C17.5782 37.6523 19.832 38.0129 22.1038 38.3194C24.4748 38.635 26.8548 38.9144 29.2528 38.9505C31.4435 38.9866 33.6612 38.7972 35.6536 37.8056C36.5731 37.3548 37.4115 36.7598 38.1237 36.0386C38.9351 35.2182 39.6203 34.2807 40.3775 33.4152C40.7381 33.0005 41.1258 32.6219 41.4593 32.1801C41.7749 31.7654 42.0543 31.3327 42.3248 30.8819C42.9108 29.9263 43.4878 28.9617 44.1278 28.0422C44.7589 27.1406 45.4891 26.3022 46.0931 25.3827C46.6431 24.5533 47.0217 23.6428 47.4905 22.7683C47.7609 22.2544 48.0584 21.7586 48.3109 21.2357C48.5543 20.7309 48.7436 20.199 48.9419 19.6761C49.1312 19.1442 49.3115 18.6033 49.5279 18.0804C49.7353 17.5666 50.0237 17.0888 50.2131 16.5659C50.3753 16.1151 50.5376 15.7004 50.754 15.2767C50.9613 14.862 51.1596 14.4203 51.1326 13.9425C51.394 14.0056 51.6465 14.0597 51.9079 14.1228C51.7096 14.4022 51.6645 14.7538 51.4121 14.9972C51.2498 15.1505 50.8171 15.0603 50.6818 14.9071C50.5647 14.7719 50.5196 14.6456 50.5106 14.4653C50.4925 14.231 50.4475 14.0236 50.3663 13.8072C50.2311 13.4737 50.0959 13.077 49.8524 12.8066C49.6721 12.5992 49.5099 12.5812 49.2484 12.5902C48.7526 12.6082 48.2478 12.6353 47.7519 12.6533C46.7422 12.6984 45.7596 12.7975 44.7769 12.9959C43.8033 13.1852 42.8116 13.3925 41.9191 13.8163C41.1438 14.1859 40.3775 14.6276 39.6563 15.0964C38.9802 15.5291 38.3221 16.0069 37.5828 16.3315C36.8436 16.647 36.0412 16.7913 35.2479 16.638C34.3464 16.4667 33.5801 15.9709 32.8048 15.5111C31.137 14.5194 29.0996 13.654 27.1162 13.7802C27.1793 13.7532 27.2515 13.7351 27.3146 13.7081C27.0621 14.1408 27.2515 14.7358 27.2785 15.2046C27.3326 15.8988 27.3777 16.5929 27.4498 17.2871C27.585 18.6664 27.7293 20.0457 27.8645 21.425C28.0087 22.8224 28.153 24.2197 28.3153 25.6171C28.3964 26.3293 28.4234 27.0415 28.5136 27.7537C28.5947 28.3577 28.7119 29.0969 29.1356 29.5657C29.2168 29.6559 29.3069 29.728 29.4061 29.7821C29.4512 29.8001 29.4602 29.8001 29.4872 29.8091C29.5143 29.8091 29.5864 29.8091 29.6495 29.8091C29.9831 29.7821 30.3256 29.6378 30.6321 29.5207C30.9837 29.3764 31.3624 29.2051 31.6328 28.9256C31.9393 28.6011 31.8312 28.2766 31.5878 27.943C31.2722 27.5103 30.8665 27.1226 30.5149 26.7079C30.0912 26.2121 29.6585 25.7163 29.2168 25.2294C27.4408 23.2732 25.4394 21.5152 23.384 19.8564C22.8521 19.4237 22.3112 19.009 21.7703 18.5943C21.3285 18.2607 20.8597 17.9542 20.436 17.5936C20.0484 17.2691 19.7238 16.8724 19.5525 16.3946C19.3812 15.9258 19.3993 15.421 19.4263 14.9341C19.5345 12.7795 19.9492 10.4446 21.3916 8.74974C22.0768 7.94739 22.9963 7.43353 24.0331 7.2352C25.0968 7.03686 26.1877 7.10898 27.2515 7.2352C29.7487 7.50565 32.2549 8.01951 34.5087 9.16444C35.3381 9.58815 36.1404 10.075 36.8075 10.7241C37.1231 11.0306 37.4296 11.3912 37.5828 11.8149C37.7451 12.2657 37.6369 12.6533 37.3845 13.059C37.0509 13.5999 36.6633 14.1047 36.3027 14.6186C35.906 15.1866 35.5184 15.7545 35.1307 16.3315C34.3915 17.4313 33.6703 18.5492 32.9671 19.6761C31.6328 21.8037 30.3617 23.9853 29.5233 26.3653C29.0815 27.6275 28.775 28.9527 28.3243 30.2058C28.144 30.7016 28.0358 31.2696 27.5219 31.54C27.2695 31.6753 26.981 31.7203 26.6925 31.7203C26.377 31.7203 26.0795 31.6392 25.755 31.7023C25.187 31.8105 24.7002 32.1531 24.1503 32.3334C23.6003 32.5227 23.0053 32.5588 22.4284 32.5047C21.7883 32.4416 21.1482 32.3244 20.5171 32.2342C19.9312 32.1441 19.3362 32.0359 18.7862 31.8105C17.0914 31.1163 16.1538 29.3674 15.5588 27.7357C14.8015 25.6532 14.4139 23.4354 14.2606 21.2267C14.1705 19.8925 14.1705 18.5492 14.2336 17.215C14.2967 16.0069 14.4139 14.8079 14.7565 13.636C15.081 12.5 15.6039 11.4453 16.1989 10.4266C16.8029 9.40785 17.452 8.35308 18.4256 7.64088C18.9034 7.2983 19.4263 7.02785 19.9402 6.73035C20.4721 6.42383 20.995 6.11732 21.5359 5.83785C22.7168 5.22482 23.9609 4.74701 25.1509 4.143C26.3139 3.548 27.4228 2.86285 28.6128 2.31292C29.8028 1.75398 31.0198 1.33027 32.2729 0.969666C33.4088 0.645121 34.4996 0.0861816 35.6987 0.0861816C36.6903 0.0861816 37.8262 0.365651 38.5204 1.11391C38.9351 1.55565 39.2146 2.11459 39.5121 2.64648C39.8366 3.24148 40.1792 3.81845 40.4947 4.42247C41.1168 5.59444 41.7028 6.78444 42.2707 7.98345C43.3796 10.3364 44.3803 12.7615 44.9121 15.3218C45.1285 16.3405 45.417 17.5215 45.0924 18.5492C44.849 19.3516 44.2811 19.9916 43.641 20.5145C42.9649 21.0644 42.2076 21.5152 41.4864 22.002C40.4136 22.7232 39.3949 23.5436 38.3581 24.3099C36.1675 25.9416 33.9227 27.5283 31.8492 29.3133C30.8395 30.1878 29.8568 31.1073 28.9012 32.0359C28.6849 32.2432 28.4685 32.4596 28.2521 32.6669C28.0628 32.8563 27.8915 33.0726 27.6662 33.2169C27.1884 33.5324 26.5573 33.4062 26.0615 33.2078C25.4935 32.9825 24.9346 32.7571 24.3396 32.5858C24.0871 32.5137 23.8167 32.4145 23.5462 32.4235C23.2217 32.4235 22.9062 32.5227 22.5906 32.5768C22.1579 32.6579 21.6981 32.721 21.3646 33.0366C20.8958 33.4693 21.0671 34.1184 21.0581 34.6863C21.049 35.3084 20.7876 35.8853 20.7515 36.5074C20.7335 36.7778 20.7696 37.0573 20.9409 37.2827C21.1031 37.4991 21.3556 37.5802 21.608 37.6433C22.6898 37.9408 23.6725 38.3645 24.6551 38.9144C25.6197 39.4553 26.5483 40.0413 27.585 40.447C28.153 40.6634 28.739 40.7896 29.3249 40.9068C29.9921 41.042 30.6682 41.1682 31.3443 41.2674C32.6515 41.4567 33.9948 41.5288 35.293 41.2854C36.6272 41.033 37.8803 40.465 39.1515 40.0323C40.3505 39.6266 41.5495 39.2841 42.6043 38.5628C43.6771 37.8236 44.7679 37.0934 45.7866 36.282C46.8053 35.4797 47.788 34.5962 48.7526 33.7307C49.7082 32.8743 50.5196 31.9277 51.349 30.9541C52.2144 29.9534 53.2061 29.0789 54.1617 28.1774C55.1353 27.2578 56.1 26.3022 57.0556 25.3647C57.4342 24.995 57.8489 24.6435 58.1644 24.2107C58.4529 23.8231 58.489 23.4354 58.3898 22.9666C58.1824 22.011 57.6956 21.1185 57.3891 20.19C57.0105 19.0541 56.6679 17.8911 56.154 16.8093C55.6402 15.7275 54.919 14.871 53.9093 14.231C53.4134 13.9154 52.8635 13.6991 52.2685 13.7712C51.6284 13.8433 51.0515 14.1678 50.5106 14.5104C49.9877 14.844 49.4828 15.2407 49.0952 15.7275C48.7256 16.1872 48.4371 16.7011 48.1215 17.1879C47.806 17.6928 47.4364 18.1706 47.1659 18.7115C46.8684 19.3065 46.634 19.9375 46.4087 20.5596C46.003 21.6594 45.7325 22.8314 44.9843 23.76C44.2811 24.6344 43.3255 25.2925 42.4149 25.9326C41.3872 26.6538 40.3144 27.3119 39.2236 27.943C37.0239 29.2232 34.7611 30.4132 32.5163 31.6212C31.4525 32.1891 30.3076 32.6038 29.1446 32.8923C28.5677 33.0366 27.9907 33.1538 27.4047 33.2439C27.1253 33.289 26.8278 33.298 26.5573 33.3701C26.2688 33.4513 26.0344 33.6316 25.7279 33.6766C25.5476 33.7037 25.3222 33.6856 25.169 33.5775C25.0518 33.4963 25.0428 33.3611 25.214 33.3341" fill="#CBE2D1"/>
<path d="M26.0342 40.5599C26.0883 41.1188 25.6916 41.4704 25.3851 41.8851C24.9794 42.426 24.7721 43.0391 24.6278 43.6972C24.3033 45.1666 24.4565 46.591 24.7991 48.0425C25.1507 49.5119 25.5564 50.9544 25.7818 52.4509C26.0161 53.9564 26.2596 55.4709 26.6743 56.9404C26.8816 57.6797 27.098 58.4099 27.2512 59.1581C27.3955 59.8703 27.5036 60.5916 27.6659 61.3037C28.0085 62.8183 28.6576 64.2788 29.2075 65.7302C30.3074 68.6241 31.4703 71.4728 32.8316 74.2585C34.1568 76.9811 35.5542 79.6676 36.8073 82.4353C37.4203 83.7966 37.826 85.1849 38.1235 86.6453C38.43 88.1419 38.7726 89.6203 39.1061 91.0988C39.4577 92.6314 39.6561 94.2 39.8995 95.7506C40.1429 97.3103 40.3863 98.8699 40.6297 100.43C41.1165 103.522 41.5943 106.605 41.7296 109.733C41.8017 111.302 41.8738 112.861 42.1082 114.412C42.3336 115.881 42.4418 117.36 42.4598 118.847C42.4868 120.389 42.7212 121.913 42.8564 123.454C42.9917 124.987 42.8204 126.501 42.7573 128.025C42.7212 128.8 42.7393 129.575 42.8384 130.342C42.8655 130.585 42.1713 130.288 42.1443 130.062C42.0451 129.413 41.9369 128.764 41.8377 128.115C41.7836 127.763 42.4868 128.088 42.5319 128.331C42.6311 128.98 42.7302 129.63 42.8384 130.279C42.604 130.189 42.3696 130.089 42.1352 129.999C41.9279 128.449 42.1172 126.907 42.1893 125.356C42.2615 123.824 42.0631 122.327 41.9008 120.813C41.7386 119.289 41.7746 117.757 41.6574 116.233C41.5312 114.691 41.2427 113.177 41.1346 111.635C41.0354 110.103 41.0083 108.561 40.8641 107.029C40.7199 105.415 40.4945 103.819 40.2511 102.224C39.7733 99.1043 39.2684 95.976 38.7996 92.8568C38.5652 91.3242 38.1415 89.8367 37.808 88.3222C37.4834 86.8527 37.2671 85.3652 36.7983 83.9318C36.3295 82.4894 35.6083 81.11 34.9411 79.7397C34.274 78.3604 33.5799 76.9991 32.9037 75.6198C31.5695 72.9153 30.3254 70.1927 29.2346 67.38C28.6666 65.9105 28.1077 64.441 27.5577 62.9625C27.0168 61.5111 26.8005 60.0236 26.4759 58.5181C26.1604 57.0486 25.6826 55.6332 25.4121 54.1457C25.1417 52.6492 24.9704 51.1437 24.5918 49.6652C24.2311 48.2588 23.7984 46.8434 23.7353 45.374C23.6812 44.1479 23.8886 42.7055 24.5557 41.6507C24.8532 41.1909 25.3941 40.8123 25.331 40.2083C25.3039 39.9649 26.0071 40.2804 26.0432 40.5509" fill="#CBE2D1"/>
<path d="M39.5512 92.6081C39.7406 92.527 39.8217 92.2385 39.8848 92.0672C39.984 91.7697 40.0381 91.4542 40.0922 91.1477C40.2184 90.4355 40.3987 89.7413 40.5069 89.0291C40.6331 88.1546 40.7683 87.2621 40.8404 86.3786C40.9035 85.6124 40.9306 84.8461 41.0297 84.0798C41.1199 83.3496 41.2731 82.6103 41.5977 81.9432C41.9673 81.1769 42.5533 80.645 43.2024 80.1221C44.7079 78.8961 46.3577 77.8413 47.8181 76.5521C50.6128 74.082 52.9027 70.7644 53.8493 67.1223C54.3271 65.2652 54.4623 63.3359 54.3812 61.4247C54.3451 60.4691 54.255 59.5135 54.3451 58.5579C54.4262 57.6383 54.7057 56.7999 55.1835 56.0066C55.6523 55.2403 56.2653 54.5281 56.4096 53.6176C56.5538 52.7521 56.3555 51.8686 56.1121 51.0392C55.8597 50.1738 55.5441 49.3354 55.3638 48.4429C55.1655 47.4512 55.0032 46.4325 55.0573 45.4228C55.0844 44.927 55.1745 44.4492 55.3097 43.9714C55.5351 44.1246 55.7515 44.2689 55.9769 44.4221C54.85 45.6302 53.7321 46.8382 52.3978 47.8299C51.7578 48.2986 51.0906 48.7404 50.4866 49.2633C49.8736 49.7861 49.2876 50.3541 48.6656 50.868C48.0796 51.3458 47.4756 51.8055 46.8175 52.1842C46.1503 52.5718 45.4201 52.68 44.6628 52.7792C43.9146 52.8783 43.2024 53.0406 42.5353 53.3832C41.9042 53.7077 41.2191 54.1855 40.8494 54.8166C40.4888 55.4296 40.4978 56.1959 40.4708 56.8901C40.4347 57.7375 40.4257 58.5849 40.3536 59.4233C40.2094 61.1002 39.6144 62.6778 39.38 64.3366C39.1546 65.9413 39.2267 67.555 39.6234 69.1236C39.8037 69.8358 39.975 70.548 40.2725 71.2242C40.4077 71.5397 40.57 71.8552 40.8224 72.0896C41.0658 72.324 41.3723 72.4863 41.6428 72.6756C42.2378 73.0903 42.6885 73.5771 42.8328 74.2983C42.977 74.9925 42.8869 75.7227 43.1122 76.4079C43.2204 76.7414 43.3827 76.8857 43.6712 77.066C43.9777 77.2553 44.2662 77.4536 44.5006 77.7241C45.0144 78.3371 45.0505 79.1485 45.1046 79.9058C44.8792 79.7705 44.6538 79.6353 44.4284 79.4911C45.7807 74.5237 46.4478 69.4121 47.4846 64.3817C47.9984 61.9115 48.5934 59.4594 49.4048 57.0794C49.8195 55.8714 50.2793 54.6814 50.8202 53.5274C51.3341 52.4186 51.7938 51.2015 52.5962 50.2639C53.083 49.696 53.6239 49.1551 54.1197 48.5961C54.5525 48.1093 54.9311 47.5774 55.445 47.1717C56.4186 46.3964 57.6356 45.9547 58.8617 45.7744C59.024 45.7474 59.2043 45.8646 59.3305 45.9727C59.3575 45.9998 59.61 46.2522 59.4657 46.2702C58.3659 46.4235 57.275 46.7931 56.3645 47.4332C55.8867 47.7667 55.5261 48.1905 55.1475 48.6322C54.7147 49.1461 54.255 49.6329 53.7952 50.1287C53.3625 50.5975 52.9478 51.0663 52.6322 51.6252C52.3257 52.1661 52.0823 52.7341 51.8209 53.293C51.28 54.4289 50.7841 55.5829 50.3514 56.7729C48.6115 61.5689 47.8091 66.6264 46.8986 71.6299C46.3937 74.4246 45.8528 77.2102 45.1046 79.9418C45.0595 80.1131 44.4375 79.6894 44.4284 79.5271C44.3834 78.8961 44.4014 78.0126 43.8966 77.5348C43.7072 77.3635 43.4548 77.2463 43.2475 77.1021C42.986 76.9127 42.7426 76.6964 42.5894 76.4079C42.0214 75.3531 42.6434 73.7124 41.5706 72.9371C40.9937 72.5224 40.3806 72.1888 39.975 71.5848C39.5783 70.9988 39.3709 70.3046 39.1816 69.6375C38.7579 68.1139 38.4875 66.5904 38.5866 65.0037C38.6317 64.2014 38.7669 63.399 38.9382 62.6057C39.1185 61.7763 39.389 60.9739 39.5332 60.1355C39.6775 59.2971 39.7135 58.4587 39.7406 57.6113C39.7676 56.818 39.7496 55.9976 39.8848 55.2133C40.011 54.4921 40.3806 53.9692 40.9396 53.5094C41.4715 53.0677 42.0845 52.7341 42.7426 52.5267C43.4548 52.2924 44.2031 52.2743 44.9423 52.1301C45.7447 51.9768 46.4118 51.5802 47.0699 51.1114C47.8091 50.5795 48.5033 49.9755 49.1794 49.3714C49.8466 48.7674 50.5317 48.2265 51.2619 47.6946C52.0012 47.1627 52.7134 46.6038 53.3715 45.9637C54.0386 45.3146 54.6697 44.6295 55.3007 43.9533C55.445 43.7911 56.0309 44.2058 55.9678 44.4041C55.6703 45.4138 55.6794 46.4505 55.8146 47.4873C55.9408 48.4429 56.1481 49.3805 56.4456 50.3C56.7161 51.1564 57.0226 52.0129 57.1128 52.9054C57.2029 53.7979 57.0046 54.6002 56.5358 55.3575C56.067 56.1148 55.5081 56.827 55.2466 57.6924C54.9581 58.63 54.9581 59.6217 55.0032 60.5863C55.0844 62.5155 55.1294 64.4087 54.7778 66.3199C54.1017 70.0432 52.0733 73.4058 49.4228 76.0743C48.0525 77.4627 46.4569 78.5535 44.9062 79.7255C44.185 80.2664 43.3827 80.8163 42.7967 81.5195C42.3099 82.0964 42.0214 82.8086 41.8591 83.5479C41.6878 84.3142 41.6337 85.1075 41.5797 85.8918C41.5256 86.7032 41.4264 87.4965 41.3272 88.2989C41.2191 89.1914 41.0568 90.0568 40.8765 90.9403C40.7593 91.4902 40.7052 92.0672 40.5069 92.5991C40.4347 92.7884 40.3446 92.9958 40.1462 93.0859C39.9479 93.1761 39.3709 92.6712 39.5422 92.5901" fill="#CBE2D1"/>
<path d="M41.9337 115.075C41.6452 113.894 41.3567 112.695 40.7617 111.632C40.1306 110.514 39.166 109.594 38.1924 108.765C37.2999 108.008 36.3713 107.322 35.3436 106.772C34.3429 106.241 33.3152 105.772 32.3505 105.168C31.8908 104.879 31.44 104.564 31.0343 104.203C30.6286 103.852 30.2049 103.446 29.9796 102.941C29.5558 102.003 30.1418 101.075 30.3943 100.182C30.7549 98.9383 31.0433 97.6131 31.1696 96.3239C31.2958 95.0077 31.1966 93.6735 30.7819 92.4113C30.4754 91.4918 29.9705 90.6444 29.2313 90.0043C28.5461 89.4183 27.7077 89.0487 26.8783 88.7151C25.7064 88.2463 24.5074 87.8587 23.2633 87.5972C21.938 87.3268 20.5858 87.1826 19.2335 87.1285C16.529 87.0113 13.8334 87.2276 11.1289 87.2637C9.70448 87.2817 8.27107 87.2817 6.84668 87.4169C6.26069 87.471 5.63865 87.6333 5.05266 87.5522C4.49372 87.4801 3.97084 87.2186 3.50206 86.9121C3.39387 86.84 3.28569 86.7588 3.1685 86.6777C3.08736 86.6146 2.95213 86.4794 2.85297 86.4613C2.70872 86.4253 2.7538 86.5966 2.78986 86.7228C2.83494 86.876 2.90706 87.0203 2.97918 87.1645C3.08736 87.3899 3.21357 87.6153 3.28569 87.8677C3.37584 88.1652 3.41191 88.4717 3.43895 88.7782C3.59221 90.1936 3.86266 91.6 4.07001 93.0154C4.23228 94.1423 4.39456 95.2421 4.78221 96.3149C5.1338 97.2885 5.64766 98.2171 6.3238 99.0104C7.02698 99.8218 7.86539 100.498 8.89312 100.859C9.97494 101.246 11.1199 101.454 12.2197 101.796C13.2474 102.112 14.2571 102.517 15.1677 103.103C15.5824 103.374 15.97 103.689 16.3216 104.032C16.7183 104.429 17.0518 104.888 17.4034 105.33C18.0796 106.168 18.8188 106.971 19.7203 107.557C20.1801 107.854 20.6759 108.08 21.1537 108.341C21.6856 108.639 22.2085 108.972 22.7765 109.207C23.2993 109.432 23.8763 109.567 24.4443 109.486C24.9401 109.414 25.3818 109.171 25.7695 108.864C26.5899 108.215 27.1849 107.331 27.861 106.547C28.7445 105.519 29.7181 104.582 30.6287 103.581C31.2777 102.869 32.0801 101.832 31.3949 100.877C31.0253 100.363 30.4123 100.083 29.8533 99.8128C29.2854 99.5423 28.7084 99.2719 28.1765 98.9293C27.0586 98.2171 26.049 97.3066 25.0483 96.4411C23.1731 94.8274 21.2799 93.1596 19.0983 91.9696C18.0796 91.4197 16.9797 90.996 15.8438 90.7616C15.1947 90.6263 14.5366 90.5813 13.8785 90.5272C13.1933 90.4731 12.5172 90.3919 11.8321 90.3018C10.4527 90.1215 9.07342 89.9141 7.67607 89.833C6.58524 89.7699 5.48539 89.5896 4.47569 89.1659C3.38486 88.7151 2.43827 87.9488 1.57281 87.1645C1.1491 86.7769 0.779481 86.3532 0.490996 85.8483C0.220541 85.3705 -0.085974 84.8476 -0.0318831 84.2797C-0.00483764 83.9912 0.103344 83.5404 0.400844 83.4052C0.76145 83.2429 1.31137 83.6757 1.55478 83.901C1.681 84.0092 1.41054 83.9191 1.3835 83.9101C1.22122 83.8379 1.04994 83.7478 0.914708 83.6216C1.01387 83.6757 1.11304 83.7298 1.21221 83.7838C1.18516 83.7838 1.15812 83.7838 1.12206 83.7929C1.086 83.8289 1.0319 83.8379 0.995844 83.874C0.914708 83.9371 0.860617 84.0363 0.824556 84.1264C0.72539 84.3248 0.671299 84.5682 0.671299 84.7935C0.671299 85.1812 0.833572 85.5508 1.01387 85.8844C1.20319 86.236 1.41054 86.5785 1.67198 86.8851C2.14077 87.426 2.70872 87.8677 3.27668 88.3094C3.8266 88.7512 4.40357 88.9946 5.09774 89.1659C5.79191 89.3372 6.5041 89.4093 7.2163 89.4454C8.03668 89.4904 8.85706 89.5896 9.66842 89.6978C10.5158 89.806 11.3543 89.9412 12.2017 90.0313C12.995 90.1215 13.7883 90.1395 14.5817 90.2477C17.4395 90.6534 20.0088 92.186 22.2806 93.8988C23.5247 94.8364 24.6877 95.8551 25.8687 96.8738C26.4997 97.4148 27.1398 97.9557 27.7979 98.4605C28.4199 98.9383 29.069 99.2719 29.7722 99.6144C30.4303 99.93 31.0974 100.282 31.6564 100.759C32.1071 101.147 32.4497 101.67 32.3415 102.292C32.2333 102.932 31.7736 103.473 31.3499 103.942C30.818 104.528 30.25 105.096 29.7001 105.673C29.1592 106.241 28.6273 106.827 28.1315 107.44C27.7528 107.908 27.3832 108.377 26.9595 108.801C26.5448 109.216 26.067 109.594 25.499 109.784C24.886 110 24.2369 109.91 23.6239 109.711C22.9387 109.495 22.2986 109.143 21.6766 108.792C21.0546 108.44 20.4055 108.125 19.7924 107.755C18.6655 107.097 17.737 106.223 16.8986 105.231C16.4568 104.69 16.0511 104.122 15.5463 103.635C15.1316 103.239 14.6538 102.914 14.1309 102.68C12.8958 102.121 11.5526 101.877 10.2544 101.499C8.91115 101.111 7.67607 100.552 6.60327 99.6415C5.65668 98.8391 4.89941 97.8565 4.38554 96.7296C3.8266 95.5216 3.58319 94.2414 3.39387 92.9252C3.27668 92.0868 3.14145 91.2484 3.00622 90.41C2.94312 89.9953 2.871 89.5716 2.80789 89.1479C2.74478 88.7332 2.72675 88.3094 2.65463 87.8948C2.54645 87.2276 2.07766 86.6867 2.00554 86.0106C2.00554 86.0106 2.02357 86.0106 2.02357 86.0016C2.4563 86.0557 2.86198 86.2901 3.22259 86.5245C3.40289 86.6416 3.57418 86.7769 3.75448 86.9031C3.9438 87.0383 4.07001 87.0834 4.33145 87.1285C4.82728 87.2186 5.35016 87.0744 5.846 87.0293C6.43198 86.9662 7.02698 86.9301 7.61297 86.9031C8.75789 86.858 9.91183 86.858 11.0658 86.84C12.1927 86.8129 13.3286 86.7588 14.4555 86.7228C16.6281 86.6507 18.8188 86.6416 20.9824 86.9211C23.0379 87.1826 24.9942 87.7505 26.8964 88.5529C28.2937 89.1388 29.7361 89.9051 30.6557 91.1582C31.7916 92.7088 32.026 94.8364 31.8457 96.7026C31.7465 97.7573 31.5031 98.7941 31.2597 99.8308C31.1425 100.309 31.0163 100.777 30.845 101.237C30.7098 101.598 30.5655 101.967 30.5205 102.355C30.4033 103.311 31.1155 104.032 31.8006 104.582C32.4858 105.132 33.2701 105.546 34.0454 105.943C34.8748 106.367 35.7042 106.772 36.4885 107.268C37.3359 107.809 38.1383 108.431 38.8865 109.098C39.6438 109.756 40.383 110.46 40.978 111.271C41.573 112.073 41.9427 113.011 42.2221 113.967C42.3574 114.444 42.4746 114.922 42.5918 115.409C42.6098 115.499 42.3303 115.355 42.3033 115.346C42.2131 115.301 41.9246 115.184 41.8886 115.066" fill="#CBE2D1"/>
</g>
<defs>
<clipPath id="clip0_0_106613">
<rect width="119" height="275.485" fill="white"/>
</clipPath>
</defs>
</svg>
