<svg width="27" height="26" viewBox="0 0 27 26" fill="none" xmlns="http://www.w3.org/2000/svg">
<path d="M6.46049 15.4656L5.63774 18.537L2.63061 18.6006C1.73192 16.9338 1.22217 15.0267 1.22217 13C1.22217 11.0403 1.69877 9.19223 2.54359 7.56496H2.54423L5.22142 8.05579L6.39419 10.7169C6.14873 11.4325 6.01495 12.2007 6.01495 13C6.01504 13.8676 6.17219 14.6988 6.46049 15.4656Z" fill="#FBBB00"/>
<path d="M24.6522 10.7922C24.7879 11.5071 24.8587 12.2454 24.8587 13C24.8587 13.8461 24.7697 14.6714 24.6002 15.4675C24.0249 18.1766 22.5217 20.5422 20.4392 22.2162L20.4386 22.2155L17.0665 22.0435L16.5893 19.0642C17.9711 18.2539 19.0509 16.9857 19.6198 15.4675H13.3003V10.7922H19.712H24.6522Z" fill="#518EF8"/>
<path d="M20.4386 22.2156L20.4393 22.2163C18.414 23.8442 15.8412 24.8182 13.0406 24.8182C8.53995 24.8182 4.62698 22.3026 2.63086 18.6007L6.46073 15.4656C7.45877 18.1292 10.0283 20.0254 13.0406 20.0254C14.3354 20.0254 15.5484 19.6753 16.5893 19.0643L20.4386 22.2156Z" fill="#28B446"/>
<path d="M20.5837 3.90258L16.7551 7.03699C15.6779 6.36363 14.4045 5.97464 13.0402 5.97464C9.95969 5.97464 7.34215 7.95774 6.39411 10.7169L2.5441 7.56493H2.54346C4.51035 3.77272 8.47268 1.18182 13.0402 1.18182C15.9077 1.18182 18.537 2.20326 20.5837 3.90258Z" fill="#F14336"/>
</svg>
