<svg width="35" height="35" viewBox="0 0 35 35" fill="none" xmlns="http://www.w3.org/2000/svg">
<path d="M7.73047 14.8128V10.6091C7.73047 9.7091 8.46008 8.97949 9.3601 8.97949H26.1008C27.0009 8.97949 27.7305 9.7091 27.7305 10.6091V14.4888M7.73047 21.2943V24.8499C7.73047 25.7499 8.46008 26.4795 9.3601 26.4795H26.1008C27.0009 26.4795 27.7305 25.7499 27.7305 24.8499V21.2943" stroke="white" stroke-width="2"/>
<path d="M8.00098 18.0073H12.0838C12.2327 18.0073 12.3697 18.0885 12.4412 18.2191L14.4189 21.8326C14.5695 22.1078 14.9614 22.1167 15.1244 21.8487L19.8314 14.1083C19.9861 13.8539 20.3526 13.846 20.5181 14.0935L23.0151 17.8264C23.0907 17.9394 23.2177 18.0073 23.3537 18.0073H27.7307" stroke="white" stroke-width="2"/>
</svg>
