<svg width="271" height="268" viewBox="0 0 271 268" fill="none" xmlns="http://www.w3.org/2000/svg">
<path d="M-1 267C63 260 115.605 224.298 124.524 215.805C135.672 205.189 151.599 185.549 136.734 170.686C123.993 160.07 120.277 165.378 118.684 149.454C118.33 144.323 121.445 131.725 136.734 122.383C155.846 110.705 161.154 107.52 163.278 106.459C165.401 105.397 180.797 95.8424 186.636 90.5343C192.476 85.2263 199.378 82.5722 203.094 83.103C206.81 83.6338 212.65 86.2876 208.402 92.1264C204.155 97.9653 193.538 108.581 188.229 107.52C182.92 106.459 185.044 103.273 186.636 105.397C188.229 107.52 187.698 109.643 180.797 114.951C175.276 119.198 177.081 120.259 178.673 120.259C175.311 118.49 168.374 114.527 167.525 112.828C166.463 110.705 166.463 120.259 180.797 120.259C191.414 119.728 192.476 118.667 194.069 118.667C194.954 118.667 196.936 118.667 197.785 118.667M258.305 114.951C264.145 114.42 268.923 117.074 269.454 118.136C269.984 119.198 270.515 121.321 266.268 122.382C262.021 123.444 256.712 122.913 262.552 120.79C268.392 118.667 269.984 119.198 269.984 120.259C269.984 121.321 258.836 124.506 254.058 125.036C249.28 125.567 241.317 128.221 239.724 128.752C238.132 129.283 230.699 131.406 229.638 129.283C228.576 127.16 232.823 118.136 237.601 114.42C241.317 112.297 241.317 112.828 242.379 111.766C243.44 110.705 248.218 105.397 249.811 103.804C251.404 102.212 255.12 100.089 258.836 101.15C262.552 102.212 262.552 102.743 262.021 104.335C261.49 105.927 258.836 110.174 257.243 109.643C255.651 109.112 257.243 103.804 260.959 102.212C263.932 100.938 259.367 108.051 256.712 111.766C252.642 117.605 241.848 130.238 231.23 134.06C217.958 138.837 211.588 142.553 208.402 138.837C205.217 135.122 210.526 126.098 213.18 124.506C215.835 122.913 217.958 119.198 218.489 117.605C219.02 116.013 223.798 106.458 225.922 103.273C228.045 100.089 235.477 99.5577 236.539 100.619C237.601 101.681 234.946 109.643 231.761 110.174C228.576 110.705 232.292 101.681 236.008 101.15C238.981 100.726 234.769 108.758 232.292 112.828C231.407 115.482 229.425 121.109 228.576 122.382C227.514 123.975 222.736 140.43 209.464 145.738C198.847 149.984 187.698 154.585 183.451 156.354C180.443 156.708 174.32 156.673 173.895 153.7C173.365 149.984 174.426 148.392 179.735 145.207C185.044 142.022 189.291 142.553 189.822 142.553C190.353 142.553 191.414 134.06 196.723 130.875C196.723 127.691 198.316 120.79 200.97 117.605C203.625 114.42 206.81 112.828 208.402 113.359C209.995 113.89 209.464 114.951 209.464 117.074C209.464 119.198 207.872 124.506 206.81 122.913C205.748 121.321 206.279 117.605 207.341 116.013C208.403 114.42 208.933 112.828 209.464 113.89C209.995 114.951 207.872 126.629 207.872 127.691C207.872 128.54 203.979 138.661 202.032 143.615C200.793 145.409 197.36 149.514 193.538 151.577C189.716 153.64 168.941 162.345 159.031 166.439L149.475 169.624C144.343 169.978 133.761 170.686 132.487 170.686C130.894 170.686 124.524 171.747 119.746 173.871C114.968 175.994 95.3254 189.264 88.9549 198.288C82.5843 207.312 84.177 207.842 84.177 208.904C84.177 209.966 86.8313 209.966 90.0166 204.658C92.5648 200.411 103.466 180.241 108.597 170.686C112.137 161.308 122.082 141.916 133.549 139.368C147.882 136.183 167.525 137.245 178.142 130.345C188.76 123.444 195.131 119.198 207.872 100.619C211.656 95.1018 216.093 90.0476 220.494 85.674" stroke="#CBE2D1" stroke-linecap="round"/>
<path d="M239.756 88.4437C235.735 87.1931 229.996 85.4734 223.9 82.1697M223.9 82.1697C209.691 74.4697 192.552 60.5458 183.619 40.9583C170.852 12.9666 184.707 3.40535 193.23 2.12369C200.624 0.620858 216.037 2.27617 221.98 19.6274C222.313 20.5993 223.853 20.6359 224.206 19.6712C227.742 10.0122 235.738 -2.9044 253.404 2.12369C273.398 7.81434 269.715 30.3425 263.756 42.9029C253.256 60.1992 246.292 60.1033 235.544 69.2927C231.322 72.9028 228.35 75.2307 223.9 82.1697Z" stroke="#FF9D48"/>
</svg>
