<svg width="22" height="22" viewBox="0 0 22 22" fill="none" xmlns="http://www.w3.org/2000/svg">
<rect width="22" height="22" rx="4" fill="black" fill-opacity="0.25"/>
<path d="M10.7612 3.92068C11.2545 3.89413 11.7521 3.89185 12.2456 3.91971C12.4883 3.93342 12.6885 4.0337 12.8276 4.19901C12.9311 4.32196 12.9979 4.47693 13.0269 4.65115L13.0435 4.83182L13.0493 5.04178C13.0521 5.10141 13.0551 5.15144 13.061 5.19412C13.0725 5.27716 13.0907 5.32406 13.1167 5.35916C13.1438 5.39568 13.187 5.4294 13.2671 5.4744C13.3484 5.52011 13.4548 5.5697 13.604 5.64432C13.8826 5.78392 14.1128 5.87612 14.3198 5.86893C14.5152 5.86204 14.709 5.76532 14.9116 5.47635C15.0228 5.31765 15.212 5.24756 15.396 5.24393C15.5805 5.24031 15.7771 5.30256 15.9204 5.4285C16.3302 5.78773 16.7265 6.17183 17.0864 6.58377C17.3785 6.91832 17.3418 7.40244 16.9868 7.68729C16.7808 7.85243 16.6863 7.99539 16.6597 8.14529C16.6324 8.29883 16.6718 8.48118 16.7827 8.73416C16.9081 9.02 17.0124 9.23847 17.1636 9.37576C17.3051 9.50418 17.4996 9.57052 17.8345 9.51248C18.0211 9.48006 18.2014 9.55673 18.3335 9.67752C18.4657 9.79864 18.5612 9.97389 18.5728 10.1599L18.5942 10.5847C18.609 11.01 18.6042 11.4371 18.5767 11.8611C18.5503 12.2708 18.1837 12.5878 17.7632 12.534C17.4852 12.4985 17.3117 12.5395 17.1831 12.6355C17.0496 12.7354 16.9466 12.9062 16.8374 13.1697C16.7202 13.4527 16.651 13.6695 16.6665 13.8601C16.6813 14.0409 16.775 14.2155 17.0308 14.407C17.3589 14.6523 17.3527 15.1399 17.0933 15.4383C16.7349 15.8498 16.3472 16.2421 15.9351 16.6004C15.5882 16.9021 15.1328 16.8036 14.8091 16.493C14.6869 16.3757 14.601 16.2951 14.5298 16.241C14.4601 16.1881 14.4119 16.1661 14.3667 16.159C14.32 16.1516 14.2634 16.1582 14.1733 16.1834C14.0821 16.2089 13.9704 16.2494 13.8101 16.3035C13.5213 16.4012 13.3007 16.4965 13.1626 16.6443C13.0485 16.7666 12.9811 16.9361 13.0024 17.2068L13.0171 17.3299L13.0239 17.4109C13.0268 17.5971 12.938 17.7586 12.8062 17.8777C12.6568 18.0127 12.4484 18.0988 12.2349 18.1199H12.2339C11.9988 18.1427 11.7594 18.15 11.5288 18.1629L11.5229 18.1668L11.4966 18.1648C11.2696 18.1518 11.0341 18.1438 10.8032 18.1248C10.5526 18.1039 10.3437 18.0108 10.1958 17.8513C10.048 17.6919 9.9695 17.4746 9.96338 17.2215C9.95827 17.0148 9.90657 16.8481 9.81396 16.7156C9.72125 16.5831 9.58226 16.4773 9.39014 16.4021H9.38916C9.3785 16.3979 9.36128 16.3906 9.34424 16.3797L9.34326 16.3787C9.09226 16.2129 8.87562 16.1343 8.68213 16.1521C8.49329 16.1696 8.3021 16.2821 8.10596 16.5535C7.98848 16.7161 7.79771 16.7893 7.60889 16.7928C7.42011 16.7962 7.22098 16.7309 7.07178 16.6004C6.76998 16.3356 6.47648 16.0568 6.19971 15.7635L5.9292 15.4656C5.62727 15.1201 5.65723 14.6272 6.03467 14.3377C6.25007 14.1724 6.33218 14.0269 6.34912 13.8767C6.36687 13.7182 6.31551 13.5349 6.21631 13.2859C6.10189 12.9988 5.99718 12.7885 5.84814 12.659C5.70684 12.5363 5.5114 12.4752 5.18604 12.5262C4.99201 12.5562 4.80769 12.4813 4.67236 12.3572C4.53716 12.2332 4.44328 12.0538 4.43115 11.8611C4.39574 11.307 4.39112 10.7465 4.42725 10.1912C4.45548 9.76411 4.82323 9.44904 5.25928 9.50174C5.5296 9.53426 5.69952 9.49516 5.82568 9.40213C5.95638 9.30575 6.05772 9.14019 6.16357 8.88162C6.28108 8.59481 6.35322 8.37336 6.33838 8.17752C6.32423 7.99204 6.22948 7.81225 5.96631 7.616C5.62373 7.36061 5.66877 6.86856 5.93994 6.55936H5.94092C6.28079 6.17266 6.64418 5.80234 7.03174 5.4617C7.20683 5.30787 7.41263 5.24299 7.61865 5.26053C7.82289 5.27799 8.02063 5.37559 8.18701 5.53299C8.31324 5.6524 8.40239 5.73457 8.47607 5.78983C8.5482 5.8439 8.59802 5.86637 8.64502 5.87381C8.69338 5.88141 8.75085 5.87479 8.84229 5.8494C8.93516 5.82359 9.04932 5.7832 9.2124 5.7283C9.49759 5.6324 9.71373 5.53895 9.84814 5.39432C9.97495 5.25786 10.0407 5.06075 9.98682 4.72342C9.95172 4.50421 10.0426 4.30656 10.1899 4.16483C10.3366 4.02377 10.5439 3.93231 10.7612 3.92068ZM10.9272 4.61014C10.8088 4.62014 10.7557 4.63774 10.7271 4.66092C10.7035 4.68014 10.6793 4.71836 10.6685 4.82498C10.6576 4.93156 10.6622 5.08333 10.6714 5.30643C10.6796 5.51145 10.6324 5.6842 10.5288 5.82596C10.4262 5.96636 10.2744 6.06693 10.0884 6.14041C9.76577 6.26756 9.44709 6.38808 9.13818 6.53104C8.91051 6.63612 8.71232 6.6872 8.52002 6.65506C8.32712 6.62274 8.15804 6.50923 7.97998 6.32889C7.9105 6.25884 7.82712 6.18112 7.75635 6.09647C7.68007 6.00567 7.61748 5.97979 7.56885 5.97928C7.51763 5.97887 7.45156 6.00623 7.36768 6.0867C7.17964 6.2669 6.99463 6.42084 6.82471 6.60135C6.66965 6.76604 6.56852 6.87917 6.5083 6.96463C6.44713 7.05148 6.44336 7.08997 6.44678 7.11014C6.45117 7.13535 6.47236 7.16989 6.54443 7.24002C6.57887 7.27352 6.6199 7.3107 6.66943 7.35623C6.71822 7.40108 6.77376 7.45283 6.83447 7.51346C7.00371 7.6824 7.10861 7.85136 7.13818 8.04276C7.16758 8.23324 7.11956 8.42986 7.01611 8.6492C6.90047 8.89432 6.78832 9.13799 6.69971 9.38846C6.58893 9.70161 6.4832 9.91813 6.30225 10.0467C6.12077 10.1754 5.88222 10.2011 5.54932 10.1971H5.54834C5.4807 10.1965 5.39897 10.2001 5.32178 10.1941C5.2346 10.1879 5.18486 10.2066 5.15674 10.2312C5.12868 10.2558 5.10488 10.3019 5.1001 10.3865C5.08496 10.6589 5.06834 10.9276 5.0708 11.1951C5.07255 11.3808 5.07443 11.5119 5.08643 11.6082C5.0985 11.7049 5.11868 11.7463 5.14111 11.7683C5.16381 11.7906 5.20615 11.8106 5.3042 11.8221C5.40162 11.8334 5.53356 11.8345 5.72021 11.8357C5.95768 11.8374 6.15229 11.8835 6.30908 11.9978C6.46549 12.1121 6.57154 12.2851 6.65088 12.5125V12.5135C6.66693 12.5598 6.68197 12.6067 6.6958 12.6521C6.70981 12.6982 6.72335 12.7425 6.73779 12.7859C6.7523 12.8296 6.76676 12.8713 6.78369 12.9099L6.84131 13.0174L6.9165 13.1414C7.07972 13.4291 7.15602 13.7094 7.11768 13.9793C7.07351 14.2897 6.88086 14.5645 6.54541 14.8074H6.54443C6.47201 14.8597 6.45309 14.9083 6.45264 14.9461C6.4523 14.9883 6.47506 15.0464 6.54053 15.116C6.73204 15.3191 6.902 15.5199 7.09619 15.7049C7.24758 15.849 7.35438 15.9447 7.43701 16.0027C7.52041 16.0612 7.56256 16.0693 7.58838 16.0662C7.61672 16.0628 7.65425 16.0429 7.72314 15.9773C7.79269 15.9111 7.87002 15.8237 7.98877 15.701C8.15891 15.5249 8.32797 15.4135 8.51904 15.3806C8.70998 15.3479 8.90613 15.3957 9.12256 15.4998C9.16906 15.5222 9.21487 15.5466 9.25928 15.5701C9.30418 15.5939 9.34768 15.6168 9.39111 15.6385C9.47787 15.6816 9.55979 15.7163 9.64209 15.7342C10.026 15.8169 10.3212 15.9724 10.5015 16.2215C10.6821 16.4713 10.7351 16.798 10.6733 17.1961C10.6602 17.2805 10.6791 17.3318 10.7065 17.3621C10.7355 17.3938 10.7904 17.4217 10.8853 17.4246C11.1672 17.4331 11.4269 17.4602 11.6919 17.4461C11.8772 17.4362 12.0034 17.4352 12.1069 17.4265C12.2096 17.4179 12.2535 17.4028 12.2769 17.3836C12.2962 17.3675 12.3182 17.3339 12.3296 17.2361C12.3409 17.1386 12.34 16.9991 12.3335 16.7937C12.3262 16.5571 12.37 16.3647 12.4819 16.2097C12.593 16.0559 12.7615 15.9514 12.9771 15.8719H12.978C13.2802 15.7605 13.5794 15.6427 13.8687 15.5086C14.0954 15.4035 14.2934 15.3525 14.4858 15.3846C14.6789 15.4169 14.8487 15.53 15.0269 15.7097C15.0879 15.7714 15.1657 15.8428 15.229 15.9217L15.2896 15.9871C15.347 16.0396 15.3961 16.0569 15.437 16.0574C15.4948 16.0579 15.5696 16.0259 15.6636 15.9334C15.7507 15.8476 15.841 15.7644 15.9282 15.6834C16.0162 15.6017 16.1022 15.5211 16.1821 15.4363L16.3755 15.2254C16.4277 15.1658 16.4685 15.1158 16.4985 15.073C16.5589 14.9868 16.5626 14.9483 16.5591 14.9275C16.5546 14.9016 16.5337 14.8659 16.4614 14.7957C16.427 14.7623 16.3858 14.7257 16.3364 14.6805C16.2878 14.6359 16.2328 14.5843 16.1724 14.5242C16.0027 14.3555 15.897 14.1872 15.8677 13.9959C15.8386 13.8055 15.8877 13.6086 15.9907 13.3894C16.1102 13.136 16.2239 12.8804 16.3159 12.6199L16.395 12.4158C16.4775 12.2278 16.572 12.0875 16.7056 11.993C16.884 11.8669 17.1144 11.8349 17.4272 11.8396C17.5055 11.8408 17.5968 11.8393 17.6831 11.8445C17.7708 11.8499 17.8215 11.8313 17.8501 11.8064C17.8782 11.782 17.9023 11.7363 17.9067 11.6512L17.9272 11.2449C17.9329 11.1103 17.9366 10.9763 17.9351 10.8426C17.9331 10.6565 17.9315 10.5249 17.9194 10.4285C17.9074 10.3323 17.8871 10.2914 17.8647 10.2693C17.8421 10.2471 17.7997 10.227 17.7017 10.2156C17.6042 10.2043 17.4723 10.203 17.2856 10.2019C17.0477 10.2006 16.8525 10.1554 16.6958 10.0408C16.5396 9.92655 16.4346 9.75324 16.355 9.52518V9.5242C16.339 9.4779 16.3239 9.43095 16.3101 9.38553C16.296 9.33953 16.2826 9.29517 16.2681 9.25174C16.2391 9.16479 16.2075 9.08716 16.1646 9.02029C15.9506 8.68909 15.8452 8.36678 15.8892 8.05838C15.9334 7.74796 16.1258 7.47284 16.4614 7.23026H16.4624C16.5345 7.17813 16.5529 7.1301 16.5532 7.09256C16.5534 7.06091 16.5414 7.02013 16.5073 6.97244L16.4653 6.92264C16.2728 6.7184 16.1046 6.51651 15.9097 6.33279C15.7621 6.1939 15.6582 6.09951 15.5767 6.0408C15.4945 5.98165 15.4522 5.97136 15.4253 5.97342C15.3974 5.97566 15.3585 5.9932 15.2886 6.0574C15.219 6.12129 15.1381 6.21199 15.0181 6.33768C14.8483 6.5154 14.6798 6.62493 14.4888 6.65701C14.2988 6.68884 14.1032 6.64158 13.8853 6.54178C13.5752 6.39981 13.2564 6.27359 12.936 6.1492C12.7478 6.07581 12.5914 5.97636 12.4849 5.83865C12.3769 5.69898 12.3267 5.52808 12.3364 5.32596C12.3475 5.09811 12.3527 4.94235 12.3423 4.83279C12.3319 4.72421 12.3081 4.68467 12.2827 4.66385C12.2516 4.63863 12.1934 4.61951 12.0669 4.60916C11.9419 4.59896 11.7823 4.59817 11.5562 4.58768H11.4087L10.9272 4.61014Z" fill="#CBE2D1" stroke="#CBE2D1" stroke-width="0.2"/>
<path d="M10.2148 8.12115C11.4234 7.59933 12.7949 7.87618 13.709 8.82428C14.6095 9.75811 14.8357 11.1463 14.2783 12.3214C13.724 13.4909 12.5038 14.2175 11.2109 14.0977C10.012 13.9865 9.14424 13.3597 8.61328 12.2813C8.60042 12.2552 8.58859 12.2283 8.5752 12.1993C8.57064 12.2166 8.56628 12.2339 8.56152 12.251C8.53967 12.3299 8.51514 12.4052 8.47559 12.4747C8.44212 12.533 8.38508 12.5698 8.33887 12.5958C8.31507 12.6091 8.28934 12.6225 8.26758 12.6339C8.24491 12.6457 8.22533 12.6568 8.20801 12.668L8.13184 12.7169L8.0918 12.6358C8.08238 12.6168 8.06944 12.5956 8.05371 12.5714C8.03885 12.5484 8.02044 12.5209 8.00488 12.4952C7.98923 12.4693 7.97245 12.4398 7.96191 12.4092C7.95149 12.3789 7.94451 12.3408 7.9541 12.3008L8.13867 11.6133C8.20426 11.3858 8.27291 11.1593 8.3418 10.9337C8.37662 10.8195 8.44683 10.731 8.55078 10.7081C8.65306 10.6857 8.75603 10.7336 8.83984 10.8165C9.15251 11.1246 9.46367 11.436 9.77539 11.7442L9.85059 11.8282C9.87377 11.8594 9.89379 11.8942 9.90527 11.9317C9.91737 11.9714 9.91998 12.0147 9.9082 12.0596C9.89657 12.104 9.87221 12.1453 9.83691 12.1837H9.83594C9.75813 12.2677 9.66934 12.2999 9.57715 12.2784C9.49475 12.2591 9.42557 12.2001 9.37207 12.1426C9.25552 12.0169 9.14041 11.8881 9.02637 11.7608C9.03614 11.7972 9.04467 11.8328 9.05762 11.8682C9.51218 13.1055 10.8417 13.7928 12.1172 13.4503C13.4137 13.1018 14.2002 11.8466 13.9629 10.5001C13.7414 9.24558 12.5427 8.32705 11.251 8.43854C10.5317 8.50053 9.93869 8.81686 9.47559 9.37604L9.47461 9.37506C9.45882 9.3943 9.45064 9.41237 9.42773 9.44635C9.41013 9.47245 9.38089 9.51308 9.33398 9.53326C9.2822 9.55516 9.22777 9.56806 9.17773 9.57819C9.12369 9.58912 9.083 9.59583 9.03516 9.60651L8.94727 9.62604L8.93652 9.53717C8.93416 9.51635 8.9293 9.49187 8.92285 9.46393C8.91678 9.4376 8.90904 9.40622 8.90332 9.37701C8.89755 9.34756 8.89293 9.31437 8.89355 9.28229C8.8942 9.25048 8.90093 9.2128 8.92383 9.17877V9.1778C9.24732 8.69903 9.68592 8.34982 10.2148 8.12115Z" fill="#CBE2D1" stroke="#CBE2D1" stroke-width="0.16134"/>
</svg>
