<svg width="12" height="14" viewBox="0 0 12 14" fill="none" xmlns="http://www.w3.org/2000/svg">
<rect x="0.4" y="0.4" width="11.2" height="13.2" rx="1.6" stroke="#6D597A" stroke-width="0.8"/>
<g clip-path="url(#clip0_15125_48396)">
<path d="M6.87388 4.07587C7.16843 4.07587 7.42924 4.07924 7.6895 4.07475C7.89973 4.07137 8.00091 4.16412 7.99866 4.37772C7.99529 4.78019 7.99641 5.18323 7.9981 5.58626C7.99866 5.78469 7.90254 5.878 7.70524 5.87631C7.4433 5.87406 7.18135 5.87631 6.87388 5.87631C6.87388 6.13263 6.87557 6.38108 6.87388 6.62954C6.87107 6.95387 6.82554 6.99884 6.49446 7.00053C6.14763 7.00222 5.80137 7.00222 5.45455 7.00053C5.12234 6.99884 5.07738 6.95444 5.074 6.63066C5.07175 6.40582 5.07119 6.18097 5.06894 5.95669C5.06894 5.93983 5.05658 5.92353 5.03859 5.87687C4.78171 5.87687 4.51302 5.87518 4.24433 5.87743C4.04647 5.878 3.94866 5.78693 3.94922 5.58738C3.95091 5.17536 3.94922 4.76333 3.94978 4.35074C3.94978 4.16581 4.04422 4.07531 4.22803 4.07531C4.4984 4.07531 4.76822 4.07531 5.07344 4.07531C5.07344 3.79763 5.0785 3.53849 5.07175 3.27992C5.06613 3.06126 5.15101 2.94715 5.3826 2.94996C5.77608 2.95559 6.16956 2.95559 6.56303 2.94996C6.79406 2.94659 6.88175 3.05845 6.87557 3.2788C6.86882 3.53062 6.87388 3.78357 6.87388 4.07587ZM6.42251 6.53566C6.42251 6.2636 6.42756 6.00335 6.42082 5.74421C6.4152 5.51824 6.51582 5.41819 6.74122 5.42381C7.00092 5.42999 7.26061 5.4255 7.52761 5.4255V4.52781C7.2578 4.52781 7.00654 4.52106 6.75527 4.52949C6.51582 4.53736 6.41183 4.43337 6.41969 4.19448C6.42813 3.93647 6.42138 3.6779 6.42138 3.41708H5.52369C5.52369 3.68914 5.51863 3.94883 5.52538 4.20853C5.531 4.43393 5.43038 4.53455 5.20441 4.52949C4.94472 4.52331 4.68502 4.52781 4.41802 4.52781V5.4255C4.68783 5.4255 4.9391 5.43224 5.19036 5.42381C5.42982 5.41594 5.53325 5.51993 5.52538 5.75939C5.51695 6.0174 5.52369 6.27597 5.52369 6.53679H6.42138L6.42251 6.53566Z" fill="#6D597A"/>
</g>
<path d="M5.60318 9.57389C4.34897 9.57389 4.09421 9.57558 2.84 9.57052C2.73432 9.57052 2.60558 9.55366 2.52856 9.49294C2.39364 9.38613 2.47347 9.17194 2.65449 9.13259C2.73544 9.11516 2.82202 9.1236 2.90634 9.1236C5.36809 9.1236 6.83039 9.1236 9.29214 9.1236C9.3388 9.1236 9.39614 9.10617 9.43043 9.12697C9.53725 9.19106 9.70702 9.25739 9.72164 9.34453C9.75424 9.5351 9.59009 9.57558 9.422 9.57502C8.14868 9.57277 6.87649 9.57389 5.60318 9.57389Z" fill="#6D597A" stroke="#6D597A" stroke-width="0.2"/>
<path d="M7.93428 11.6798C7.43845 11.6798 6.94261 11.6798 6.44734 11.6798C6.28937 11.6798 6.12297 11.6629 6.11735 11.4634C6.11116 11.2435 6.28712 11.2267 6.45521 11.2267C7.43732 11.2267 8.41944 11.2267 9.40155 11.2267C9.56177 11.2267 9.72648 11.248 9.73154 11.4442C9.73716 11.6607 9.56402 11.6815 9.39368 11.6809C8.9074 11.6798 8.42112 11.6809 7.93484 11.6809L7.93428 11.6798Z" fill="#6D597A" stroke="#6D597A" stroke-width="0.2"/>
<defs>
<clipPath id="clip0_15125_48396">
<rect width="4.05" height="4.05113" fill="white" transform="translate(3.94922 2.95001)"/>
</clipPath>
</defs>
</svg>
