<svg width="214" height="198" viewBox="0 0 214 198" fill="none" xmlns="http://www.w3.org/2000/svg">
<g clip-path="url(#clip0_19496_34303)">
<path d="M107.36 197.814C78.987 169.442 50.815 141.27 22.2416 112.696C29.4184 113.056 35.9344 111.266 42.2581 117.924C62.2076 138.961 83.0773 159.128 103.554 179.663C104.616 180.734 105.336 182.148 106.339 183.578C107.97 182.089 108.798 181.386 109.568 180.625C135.206 154.996 160.885 129.4 186.464 103.713C206.029 84.0559 208.956 55.3318 193.733 33.9268C174.753 7.25211 137.991 3.32074 113.817 25.3949C111.659 27.3606 109.56 29.3932 107.151 31.6517C85.6787 9.88695 61.1955 3.18691 34.5208 20.4264C13.1576 34.2363 7.40275 55.3486 13.0823 80.4758C9.97069 80.4758 6.9427 80.7351 4.00673 80.3253C3.06152 80.1914 1.83193 78.4181 1.61445 77.2387C-2.99445 51.5092 4.5337 29.9453 25.1273 13.8016C48.8745 -4.81802 80.5512 -4.11539 104.323 14.8639C106.557 16.6456 107.828 16.3695 109.936 14.7468C131.726 -1.94896 155.439 -4.80129 179.647 7.88781C203.837 20.5769 215.188 41.7895 213.9 69.1167C213.164 84.8673 206.689 98.5434 195.564 109.735C166.464 139.003 137.23 168.137 108.037 197.313C107.845 197.505 107.594 197.647 107.36 197.814Z" fill="#CBE2D1"/>
<path d="M92.111 115.901C95.9754 102.409 99.8315 88.9249 103.696 75.4328C104.808 71.5516 105.929 67.6788 107.033 63.7976C107.836 60.962 109.635 58.5948 112.579 59.3142C114.578 59.8077 116.979 61.8403 117.723 63.7558C120.634 71.2672 123.135 78.9543 125.427 86.6915C126.414 90.029 127.861 91.2837 131.475 91.1917C141.922 90.9156 152.378 91.0913 162.825 91.0997C164.08 91.0997 165.368 90.9993 166.573 91.2586C169.492 91.8776 171.441 93.7261 171.248 96.7709C171.064 99.7236 169.191 101.781 166.104 101.798C151.751 101.89 137.389 101.999 123.043 101.631C121.245 101.589 118.811 99.1297 117.899 97.2058C115.917 93.0235 114.729 88.4648 112.404 84.1152C109.242 95.1398 106.071 106.164 102.918 117.197C100.894 124.29 98.8863 131.384 96.8788 138.477C95.9671 141.68 94.8713 144.809 90.689 144.558C86.7994 144.324 85.9463 141.371 85.2436 138.209C79.7648 113.483 74.2275 88.7659 68.7152 64.0485C68.5981 63.5216 68.4642 63.003 68.1464 61.6981C67.2932 63.5216 66.6826 64.7093 66.1807 65.9389C62.0235 76.2609 57.8077 86.566 53.7927 96.9465C52.446 100.426 50.3131 101.932 46.5657 101.898C33.3245 101.781 20.0834 101.873 6.85058 101.84C2.61809 101.831 0.158896 99.941 0.00833342 96.7374C-0.150594 93.425 2.50935 91.1164 6.82549 91.0913C18.2515 91.0327 29.6859 90.9825 41.112 91.1331C43.8054 91.1666 45.0099 90.213 45.9551 87.7956C51.7852 72.8983 57.7826 58.0595 63.6881 43.1956C64.8758 40.201 66.2894 37.3654 70.087 37.7335C73.851 38.1015 74.6959 41.1044 75.3901 44.283C80.6598 68.1974 86.0132 92.0867 91.3414 115.984C91.6007 115.951 91.8517 115.909 92.111 115.876V115.901Z" fill="#FF9D48"/>
</g>
<defs>
<clipPath id="clip0_19496_34303">
<rect width="214" height="197.814" fill="white"/>
</clipPath>
</defs>
</svg>
