<svg width="13" height="12" viewBox="0 0 13 12" fill="none" xmlns="http://www.w3.org/2000/svg">
<path d="M6.57373 10.0044L6.51123 10.0628L6.44248 10.0044C3.47373 7.49026 1.51123 5.82776 1.51123 4.14193C1.51123 2.97526 2.44873 2.10026 3.69873 2.10026C4.66123 2.10026 5.59873 2.68359 5.92998 3.47693H7.09248C7.42373 2.68359 8.36123 2.10026 9.32373 2.10026C10.5737 2.10026 11.5112 2.97526 11.5112 4.14193C11.5112 5.82776 9.54873 7.49026 6.57373 10.0044ZM9.32373 0.933594C8.23623 0.933594 7.19248 1.40609 6.51123 2.14693C5.82998 1.40609 4.78623 0.933594 3.69873 0.933594C1.77373 0.933594 0.26123 2.33943 0.26123 4.14193C0.26123 6.34109 2.38623 8.14359 5.60498 10.8678L6.51123 11.6378L7.41748 10.8678C10.6362 8.14359 12.7612 6.34109 12.7612 4.14193C12.7612 2.33943 11.2487 0.933594 9.32373 0.933594Z" fill="#CBE2D1"/>
</svg>
