<svg width="23" height="22" viewBox="0 0 23 22" fill="none" xmlns="http://www.w3.org/2000/svg">
<path d="M8.98047 20.5723V13.1723C8.98047 12.6122 8.98047 12.3322 9.08947 12.1183C9.18534 11.9301 9.33832 11.7771 9.52648 11.6813C9.74039 11.5723 10.0204 11.5723 10.5805 11.5723H13.3805C13.9405 11.5723 14.2206 11.5723 14.4345 11.6813C14.6226 11.7771 14.7756 11.9301 14.8715 12.1183C14.9805 12.3322 14.9805 12.6122 14.9805 13.1723V20.5723M1.98047 9.07227L11.0205 2.29227C11.3647 2.03407 11.5369 1.90497 11.7259 1.85521C11.8928 1.81128 12.0682 1.81128 12.235 1.85521C12.4241 1.90497 12.5962 2.03407 12.9405 2.29227L21.9805 9.07227M3.98047 7.57227V17.3723C3.98047 18.4924 3.98047 19.0524 4.19846 19.4802C4.39021 19.8566 4.69617 20.1625 5.07249 20.3543C5.50032 20.5723 6.06037 20.5723 7.18047 20.5723H16.7805C17.9006 20.5723 18.4606 20.5723 18.8885 20.3543C19.2648 20.1625 19.5707 19.8566 19.7625 19.4802C19.9805 19.0524 19.9805 18.4924 19.9805 17.3723V7.57227L13.9005 3.01227C13.212 2.49588 12.8677 2.23768 12.4896 2.13816C12.1559 2.0503 11.8051 2.0503 11.4713 2.13816C11.0932 2.23768 10.749 2.49588 10.0605 3.01227L3.98047 7.57227Z" stroke="#CBE2D1" stroke-width="2" stroke-linecap="round" stroke-linejoin="round"/>
</svg>
