<svg width="387" height="71" viewBox="0 0 387 71" fill="none" xmlns="http://www.w3.org/2000/svg">
<path d="M1 44.0001C17.5 33.5001 53.2 18.8001 64 44.0001C77.5 75.5001 87 73.9999 94.5 46.4999C102 18.9999 104 -21.0001 123 15.4999C142 51.9999 112 77 112 54.5C112 32 135.5 -2.5 167 26C198.5 54.5 220 58.5001 240.5 44.0001C261 29.5 257 8.5 274.5 34.5C288.5 55.3 355 51.1666 386.5 46.4999" stroke="#4EA692"/>
<circle cx="194" cy="41" r="22" fill="#043A4E"/>
<circle cx="194" cy="41" r="25.6667" stroke="#043A4E" stroke-opacity="0.05" stroke-width="7.33333"/>
<path d="M332.23 24.4842C334.865 13.9019 328.172 8.98815 312.83 10.6865C301.502 13.3843 284.406 1.33814 281.771 11.9205C279.136 22.5028 288.296 33.894 302.23 37.3634C316.164 40.8328 329.595 35.0666 332.23 24.4842Z" fill="#FF9D48" fill-opacity="0.5"/>
<path d="M84.7033 42.2056C79.5353 48.1351 73.5556 45.9381 67.6382 35.6573C64.1364 27.4819 49.1659 21.6657 54.3339 15.7362C59.5019 9.80677 70.4898 10.9254 78.8761 18.2347C87.2624 25.544 89.8713 36.2762 84.7033 42.2056Z" fill="#4EA692" fill-opacity="0.51"/>
<path d="M187 34L201 48" stroke="#FF9D48" stroke-width="2" stroke-linecap="round" stroke-linejoin="round"/>
<path d="M201 34L187 48" stroke="#FF9D48" stroke-width="2" stroke-linecap="round" stroke-linejoin="round"/>
</svg>
