<svg width="167" height="110" viewBox="0 0 167 110" fill="none" xmlns="http://www.w3.org/2000/svg">
<path d="M4.64165 76.3296C6.11086 73.4117 16.4996 74.4327 21.3225 84.2001C24.8357 95.7195 42.6112 94.9718 41.142 97.8897C39.6728 100.808 27.7157 101.94 17.6364 95.9868C7.55713 90.0332 3.17243 79.2476 4.64165 76.3296Z" fill="#FF9D48" fill-opacity="0.17"/>
<path d="M84.0808 84.5863C82.3457 84.8652 80.5533 83.8316 79.0479 83.122C77.2678 82.2811 75.3605 81.7479 73.4449 81.3049C71.915 80.9521 70.3892 80.5871 68.8633 80.222C68.4818 80.1318 68.1004 80.0415 67.7189 79.9472C67.2513 79.816 66.7796 79.697 66.312 79.5821C65.8444 79.4714 65.143 79.4099 64.6713 79.3073C60.7459 78.5567 56.9231 77.5231 53.33 75.263C52.9403 74.9923 52.5753 74.697 52.2348 74.3729L52.2266 74.3647C51.7631 73.9176 52.0256 73.1301 52.6655 73.0563C52.7147 73.0522 52.7599 73.044 52.8091 73.0399C57.6491 72.7732 62.198 75.2958 66.9273 75.8701C67.3908 75.9767 67.8543 76.0751 68.3219 76.1613C68.7895 76.2474 69.2571 76.3213 69.7288 76.3828C70.1389 76.4607 70.5532 76.5305 70.9634 76.592C73.0184 76.9037 75.0569 77.0227 77.198 76.9857C80.1595 76.9365 83.1374 76.8791 86.066 76.3664C87.3786 76.1367 90.4098 75.2302 88.6747 73.45C86.9315 71.6617 84.573 70.3491 82.5672 68.8807C81.911 68.4008 81.2588 67.9168 80.6066 67.4328C80.0652 67.0308 79.5114 66.6945 79.3145 66.0054C79.1915 65.5665 79.1546 64.8938 79.4458 64.5082C79.778 64.0652 80.2415 64.1596 80.7337 64.2211C82.6698 64.459 84.3802 65.4106 86.1111 66.2433C87.9446 67.1251 89.897 67.6994 91.8372 68.2859C93.4163 68.7618 100.389 70.2056 100.389 70.2056C107.469 71.35 161.773 111.139 165.6 114.019C166.097 114.392 166.224 115.085 165.883 115.606C163.914 118.629 161.56 124.291 134.571 115.232C134.39 115.47 134.21 115.712 134.029 115.95C133.529 116.61 132.557 113.684 131.974 113.093C131.695 112.81 131.425 112.527 131.154 112.24C127.343 108.508 106.013 87.0473 100.073 87.4206C99.29 87.5518 98.5189 87.6872 97.7478 87.8185C95.4385 88.2122 93.1497 88.5978 90.6559 89.0982C87.8421 89.5781 85.0078 89.7094 82.4688 88.405C77.6574 86.5551 73.0061 82.3139 68.2029 80.0661" stroke="#CBE2D1" stroke-width="0.558247" stroke-linecap="round" stroke-linejoin="round"/>
<path d="M61.1422 74.5045C60.4162 73.7169 57.8896 73.0032 58.4351 71.6086C58.6976 71.219 59.2513 70.9113 59.723 70.8867C62.463 71.0426 69.194 74.9597 69.6369 75.0869C70.1579 75.3494 70.6952 75.5914 71.2284 75.8416C71.7617 76.0918 72.6804 76.5717 73.1973 76.8589" stroke="#CBE2D1" stroke-width="0.558247" stroke-linecap="round" stroke-linejoin="round"/>
<path d="M61.8978 71.2596C61.4712 69.783 62.9889 69.18 64.2809 69.541C65.4294 69.865 66.4918 70.4762 67.6115 71.0258C67.9807 71.2268 68.3539 71.4237 68.7354 71.596C69.1169 71.7683 69.5065 71.9159 69.9126 72.0267C70.2243 72.1292 70.5361 72.2358 70.8437 72.3466C71.1513 72.4573 71.4508 72.5681 71.7461 72.6911C73.6165 73.4705 75.4336 74.2785 77.2301 75.2096C78.3786 75.8044 79.6378 76.1776 80.7617 76.8175" stroke="#CBE2D1" stroke-width="0.558247" stroke-linecap="round" stroke-linejoin="round"/>
<path d="M69.3994 71.8299C69.3789 71.5346 69.6906 71.2926 70.0557 71.0998C70.8268 70.702 72.8695 71.6412 73.7759 72.2196C75.2321 73.1507 82.7998 76.4034 83.1484 76.7397" stroke="#CBE2D1" stroke-width="0.558247" stroke-linecap="round" stroke-linejoin="round"/>
<path d="M49.0833 62.0765C34.3665 62.0765 22.4361 50.7098 22.4361 36.6882C22.4361 22.6666 34.3665 11.2998 49.0833 11.2998C63.8001 11.2998 75.7305 22.6666 75.7305 36.6882C75.7305 50.7098 63.8001 62.0765 49.0833 62.0765Z" fill="#4EA692"/>
<path d="M49.0799 52.7011C39.9509 52.7011 32.5504 45.5323 32.5504 36.6892C32.5504 27.8461 39.9509 20.6774 49.0799 20.6774C58.2089 20.6774 65.6094 27.8461 65.6094 36.6892C65.6094 45.5323 58.2089 52.7011 49.0799 52.7011Z" fill="#CBE2D1"/>
<path d="M42.0595 36.5115C42.0595 32.6174 45.3654 29.4527 49.436 29.4527C53.5066 29.4527 56.8125 32.6174 56.8125 36.5115C56.8125 40.4057 53.5066 43.5704 49.436 43.5704C45.3654 43.5704 42.0595 40.4057 42.0595 36.5115Z" fill="#4EA692"/>
<path d="M49.4382 44.0176C53.7558 44.0176 57.2617 40.6529 57.2617 36.5117C57.2617 32.3705 53.7558 29.0058 49.4382 29.0058C45.1205 29.0058 41.6146 32.3705 41.6146 36.5117C41.6146 40.6529 45.1205 44.0176 49.4382 44.0176ZM49.4382 29.8881C53.2617 29.8881 56.3794 32.8528 56.3794 36.5117C56.3794 40.1705 53.2617 43.1352 49.4382 43.1352C45.6146 43.1352 42.4969 40.1705 42.4969 36.5117C42.4969 32.8528 45.6146 29.8881 49.4382 29.8881Z" fill="#CBE2D1"/>
<path d="M82.6752 21.0646C86.9105 17.994 91.2987 15.1351 95.8164 12.4645C92.2399 11.6998 88.734 11.1469 85.2164 10.6528C86.4281 7.2998 87.3928 3.94684 88.3693 0.605652C84.0281 2.97037 80.2634 5.39391 75.4281 8.66451C74.5457 11.7116 73.4398 14.9234 73.2751 18.3822C76.0046 19.5469 79.7105 20.0175 82.6752 21.0646Z" fill="#043A4E"/>
<path d="M82.6754 21.4999C82.7695 21.4999 82.8636 21.4764 82.9342 21.4176C87.146 18.3705 91.5578 15.4881 96.0401 12.8411C96.1931 12.747 96.2754 12.5705 96.2519 12.394C96.2284 12.2175 96.0872 12.0764 95.9107 12.0293C92.3107 11.2528 88.8166 10.7117 85.8165 10.2881C86.946 7.08811 87.8871 3.8528 88.793 0.735139C88.8401 0.558668 88.793 0.382195 88.6519 0.264547C88.5107 0.158664 88.3224 0.135138 88.1695 0.217492C83.8048 2.59397 80.0989 4.98221 75.193 8.28811C75.1106 8.34694 75.04 8.42929 75.0165 8.53517C74.8871 8.97047 74.7577 9.40576 74.6283 9.84106C73.8165 12.547 72.9812 15.3352 72.84 18.3587C72.84 18.547 72.9341 18.7117 73.1106 18.7823C74.6518 19.4411 76.4989 19.8764 78.2871 20.3117C79.7342 20.6529 81.2283 21.0176 82.5459 21.4764C82.593 21.4882 82.6401 21.4999 82.6989 21.4999H82.6754ZM94.6166 12.6646C90.5107 15.1234 86.4754 17.7823 82.6048 20.5705C81.2989 20.1235 79.8636 19.7823 78.4753 19.4529C76.84 19.0646 75.1459 18.6529 73.7224 18.0882C73.8989 15.2881 74.6871 12.6528 75.4518 10.0999C75.5694 9.71165 75.6871 9.32341 75.793 8.93518C80.2636 5.9234 83.7342 3.67633 87.6401 1.51161C86.7813 4.47633 85.8754 7.51164 84.793 10.4999C84.746 10.6293 84.7577 10.7587 84.8283 10.8764C84.8989 10.994 85.0165 11.0646 85.146 11.0881C87.946 11.4764 91.2166 11.9705 94.6048 12.6646H94.6166Z" fill="#FF9D48"/>
<path d="M49.0864 37.123C49.1805 37.123 49.2629 37.0995 49.3452 37.0406C52.8982 34.4759 56.5688 31.7583 60.1218 29.1347C70.8512 21.1935 81.9454 12.9935 93.1337 6.35815C93.3454 6.22874 93.416 5.95815 93.2866 5.75814C93.1572 5.54638 92.8866 5.47579 92.6866 5.60521C81.463 12.2641 70.3453 20.4876 59.5923 28.4288C56.0394 31.0524 52.3688 33.77 48.8276 36.3348C48.6276 36.4759 48.5805 36.7583 48.7335 36.9465C48.8158 37.0642 48.957 37.1348 49.0864 37.1348V37.123Z" fill="#CBE2D1"/>
<g opacity="0.13">
<path d="M86.6269 11.523C86.121 10.6172 85.1916 10.8054 84.4622 11.3348C83.7916 11.7348 83.121 12.1466 82.4387 12.523C79.5092 14.276 76.5563 15.7466 74.3445 17.3113C73.521 18.1231 74.5445 19.4643 75.6033 18.9701C78.2386 17.3113 81.0034 15.8525 83.7093 14.3231C84.4269 13.9466 85.121 13.5231 85.8387 13.1466C86.5093 12.9113 86.9563 12.1819 86.6152 11.523H86.6269Z" fill="#FF9D48"/>
</g>
<path style="mix-blend-mode:color-dodge" d="M23.3564 75.3905C19.2893 74.5652 16.6612 70.5992 17.4865 66.5321C18.3117 62.465 22.2777 59.837 26.3448 60.6622C30.4119 61.4874 33.04 65.4535 32.2147 69.5206C31.3895 73.5877 27.4235 76.2157 23.3564 75.3905Z" fill="url(#paint0_radial_20266_35349)"/>
<path d="M83.8664 30.7781C83.8664 33.7079 81.4909 36.0819 78.5625 36.0819C81.4923 36.0819 83.8664 38.4574 83.8664 41.3858C83.8664 38.456 86.2419 36.0819 89.1702 36.0819C86.2405 36.0819 83.8664 33.7064 83.8664 30.7781Z" fill="#4EA692"/>
<path d="M90.526 41.9163C90.526 43.836 88.9695 45.3915 87.0508 45.3915C88.9705 45.3915 90.526 46.948 90.526 48.8668C90.526 46.9471 92.0825 45.3915 94.0013 45.3915C92.0816 45.3915 90.526 43.835 90.526 41.9163Z" fill="#6D597A"/>
<defs>
<radialGradient id="paint0_radial_20266_35349" cx="0" cy="0" r="1" gradientUnits="userSpaceOnUse" gradientTransform="translate(24.8516 68.0279) rotate(180) scale(7.51421)">
<stop stop-color="white"/>
<stop offset="0.28" stop-color="#A8A8A8" stop-opacity="0.4356"/>
<stop offset="0.54" stop-color="#606060" stop-opacity="0.1444"/>
<stop offset="0.75" stop-color="#2C2C2C" stop-opacity="0.0289"/>
<stop offset="0.91" stop-color="#0C0C0C" stop-opacity="0.01"/>
<stop offset="1" stop-opacity="0"/>
</radialGradient>
</defs>
</svg>
