<svg width="174" height="78" viewBox="0 0 174 78" fill="none" xmlns="http://www.w3.org/2000/svg">
<path d="M133.993 0C114.123 0 99.5959 13.7612 87 27.923C74.4041 13.7612 59.8767 0 40.0069 0C17.9117 0 0 17.4609 0 39C0 60.5391 17.9117 78 40.0069 78C59.8151 78 73.8493 64.6194 87 49.7966C100.027 64.5193 114.123 78 133.993 78C156.088 78 174 60.5391 174 39C174 17.4609 156.088 0 133.993 0ZM74.6712 39.3205C61.8288 53.6626 52.0685 61.9753 40.0069 61.9753C26.9898 61.9753 16.4383 51.6895 16.4383 39C16.4383 26.3105 26.9898 16.0247 40.0069 16.0247C52.1713 16.0247 62.6096 24.9784 74.5891 38.4191L74.9589 38.8598L74.6712 39.3205ZM133.993 61.9753C121.911 61.9753 111.822 53.302 99.452 39.3205L99.0411 38.8598L99.4109 38.4191C111.37 24.9784 121.931 16.0247 133.993 16.0247C147.01 16.0247 157.562 26.3105 157.562 39C157.562 51.6895 147.01 61.9753 133.993 61.9753Z" fill="#FF9D48"/>
</svg>
