<svg width="34" height="33" viewBox="0 0 34 33" fill="none" xmlns="http://www.w3.org/2000/svg">
<circle cx="16.8965" cy="16.7363" r="16.1387" fill="#6D597A"/>
<circle cx="16.8965" cy="16.7363" r="16.1387" fill="black" fill-opacity="0.2"/>
<path d="M16.8945 15.5273C17.8304 15.5273 18.5891 16.286 18.5891 17.2219C18.5891 18.1577 17.8304 18.9164 16.8945 18.9164C15.9587 18.9164 15.2 18.1577 15.2 17.2219C15.2 16.286 15.9587 15.5273 16.8945 15.5273Z" fill="#A0A0A0"/>
<path d="M10.1164 15.5273C11.0523 15.5273 11.8109 16.286 11.8109 17.2219C11.8109 18.1577 11.0523 18.9164 10.1164 18.9164C9.18054 18.9164 8.42188 18.1577 8.42188 17.2219C8.42187 16.286 9.18054 15.5273 10.1164 15.5273Z" fill="#A0A0A0"/>
<path d="M23.6727 15.5273C24.6085 15.5273 25.3672 16.286 25.3672 17.2219C25.3672 18.1577 24.6085 18.9164 23.6727 18.9164C22.7368 18.9164 21.9781 18.1577 21.9781 17.2219C21.9781 16.286 22.7368 15.5273 23.6727 15.5273Z" fill="#A0A0A0"/>
</svg>
