<svg width="62" height="63" viewBox="0 0 62 63" fill="none" xmlns="http://www.w3.org/2000/svg">
<g style="mix-blend-mode:luminosity" clip-path="url(#clip0_1589_21990)">
<path d="M45.5566 62.5849H16.4471C7.36423 62.5849 0 55.1481 0 45.9756V16.6093C0 7.43684 7.36423 0 16.4471 0H45.5379C54.6171 0 61.9776 7.42929 61.9851 16.598L62.0037 45.9643C62.0112 55.1405 54.6432 62.5811 45.5566 62.5811V62.5849Z" />
<path d="M22.2508 25.4419C22.5589 23.5248 21.2698 21.7185 19.3715 21.4073C17.4731 21.0961 15.6844 22.398 15.3763 24.315C15.0682 26.2321 16.3573 28.0384 18.2556 28.3496C20.1539 28.6608 21.9426 27.3589 22.2508 25.4419Z" fill="#333333"/>
<path d="M46.5762 25.6823C47.0179 23.7921 45.8587 21.8981 43.987 21.452C42.1152 21.0059 40.2397 22.1765 39.7979 24.0667C39.3562 25.9569 40.5154 27.8509 42.3872 28.297C44.2589 28.7432 46.1344 27.5725 46.5762 25.6823Z" fill="#333333"/>
<path d="M30.0846 38.6336C29.5989 38.8034 29.3672 39.3656 29.5877 39.8372L30.305 41.3578C30.5628 41.9011 30.8281 42.4557 31.269 42.8595C31.7099 43.2632 32.3749 43.4783 32.9129 43.2217C33.3688 43.0066 33.6378 42.501 33.7088 41.9992C33.7275 41.8558 33.7349 41.7124 33.7312 41.5653C33.7237 41.1653 34.1272 40.9088 34.4747 41.0974C34.8334 41.2936 35.222 41.4181 35.6591 41.388C35.9954 41.3653 36.3242 41.2182 36.5334 40.9503C37.064 40.2749 36.6156 39.4599 36.0963 38.909C35.547 38.3317 34.8857 37.8601 34.1646 37.5318C33.8993 37.4111 33.6004 37.396 33.3239 37.4941L30.0771 38.6336H30.0846Z" fill="#333333"/>
</g>
<defs>
<clipPath id="clip0_1589_21990">
<rect width="62" height="62.5849" fill="white"/>
</clipPath>
</defs>
</svg>
