<svg width="387" height="182" viewBox="0 0 387 182" fill="none" xmlns="http://www.w3.org/2000/svg">
<path d="M206.616 54.1016C208.198 56.5755 209.792 58.9586 211.043 61.5346C212.511 64.5418 213.57 67.6852 213.718 71.0442C213.957 76.4459 211.692 80.7127 207.561 84.0831C205.433 85.808 203.077 87.1471 200.585 88.2592C200.164 88.4408 199.686 88.5315 199.47 89.0649C198.707 91.0054 197.057 91.936 195.214 92.5487C194.189 92.8892 193.12 93.0707 192.073 93.2977C191.595 93.3998 191.026 93.3998 190.821 92.9005C190.593 92.3558 191.117 92.0608 191.504 91.7998C193.518 90.4493 195.76 89.5302 197.956 88.5202C198.696 88.1798 199.128 87.8053 198.821 86.9769C196.431 80.5879 197.33 73.9607 197.478 67.4015C197.478 67.0384 197.592 66.6525 197.273 66.1305C196.261 68.8995 195.282 71.5436 194.315 74.1876C191.993 80.5766 189.66 86.9655 187.373 93.3658C187.043 94.285 186.565 94.8183 185.643 95.2269C179.862 97.7348 174.115 100.356 169.108 104.271C166.035 106.677 163.395 109.412 162.257 113.282C162.211 113.44 162.211 113.599 162.166 113.883C165.182 109.752 169.665 108.686 174.126 107.63C175.97 107.188 177.848 106.938 179.771 107.278C182.013 107.687 183.549 108.913 184.414 110.955C185.279 112.964 185.677 115.075 185.472 117.265C185.279 119.398 184.152 120.953 182.331 122.042C180.42 123.177 178.28 123.733 176.186 124.403C174.775 124.857 173.364 125.322 171.907 126.389C174.98 126.672 177.597 125.98 180.203 125.299C186.974 123.529 193.518 121.066 200.05 118.604C200.596 118.4 200.983 118.014 201.393 117.639C210.042 109.979 219.795 104.249 231.038 101.275C237.57 99.5505 243.761 100.22 249.132 104.646C253.958 108.629 255.892 113.815 254.754 119.977C254.015 124.017 251.249 126.377 247.152 126.718C241.633 127.183 236.671 125.401 231.971 122.769C228.102 120.601 224.381 118.15 220.25 116.459C216.199 114.791 212.17 114.45 208.085 116.391C206.457 117.163 204.762 117.878 203.02 118.343C200.266 119.08 199.31 121.361 198.104 123.472C197.854 123.915 198.161 124.005 198.468 124.074C201.791 124.845 205.035 125.617 208.517 124.493C212.682 123.154 216.836 123.291 220.364 126.355C222.15 127.898 223.197 129.918 223.402 132.301C223.47 133.107 223.357 133.89 222.503 134.264C222.025 134.468 222.128 134.741 222.264 135.081C222.355 135.319 222.412 135.569 222.48 135.819C223.322 139.008 222.116 140.71 218.805 140.971C215.072 141.266 211.271 140.982 207.675 142.355C205.183 143.308 202.679 144.25 200.164 145.17C198.48 145.782 196.773 146.202 194.929 145.555C194.667 146.236 195.066 146.838 195.145 147.439C195.464 149.709 194.554 150.878 192.243 151.002C189.842 151.116 187.509 150.617 185.222 149.947C178.804 148.086 172.283 146.543 166.081 143.989C165.193 143.626 165.034 144.137 164.761 144.659C162.246 149.425 159.366 153.976 156.681 158.64C153.619 163.939 149.079 165.471 143.332 164.881C134.672 163.996 126.455 161.386 118.296 158.583C112.879 156.71 107.576 154.441 102.09 152.807C63.5 140 19.7807 168.96 1.18564 181.374C0.878374 181.579 0.536972 182.214 0.138669 181.647C-0.316534 181.011 0.468692 180.875 0.775954 180.66C8.44613 175.247 55.339 152.316 64.5 150.5C75.9711 148.242 90.0047 148.256 101.237 151.604C106.699 153.227 111.923 155.53 117.306 157.369C124.657 159.877 132.02 162.328 139.724 163.576C142.934 164.098 146.154 164.359 149.386 163.735C150.57 163.508 151.025 163.122 150.968 161.726C150.763 156.903 151.833 152.228 153.187 147.632C154.109 144.534 155.008 141.436 155.975 138.361C156.169 137.748 156.146 137.362 155.668 136.885C153.312 134.491 151.434 131.745 150.16 128.658C148.578 124.834 146.348 121.429 143.81 118.195C142.695 116.777 141.659 115.29 140.737 113.724C139.588 111.761 139.212 109.718 139.85 107.528C140.475 105.327 141.192 103.148 142.831 101.457C143.15 101.128 143.241 100.855 143.07 100.436C141.534 96.8043 141.135 92.8551 139.85 89.1443C139.03 86.7953 137.904 84.5597 137.414 82.0745C136.504 77.3991 137.733 74.2671 141.727 71.657C146.291 68.6838 151.366 66.6299 156.112 64.0085C161.859 60.8424 168.061 58.5955 173.774 55.3726C176.744 53.6931 179.486 51.6505 182.502 50.0504C184.437 49.0177 186.405 48.178 188.67 48.6773C189.524 48.8702 189.421 48.1099 189.569 47.7127C192.892 39.0315 196.192 30.3389 199.504 21.6463C200.198 19.8419 200.949 18.049 201.678 16.256C202.008 15.4503 202.451 14.7126 203.043 14.0771C203.555 13.5211 204.523 13.3282 203.976 12.0799C203.703 11.4444 204.682 10.8089 205.444 10.7749C206.491 10.7295 206.935 10.1621 207.277 9.31098C207.846 7.86978 208.46 6.45128 209.063 5.02143C209.279 4.51076 209.473 3.97741 209.735 3.47809C211.897 -0.709327 212.671 -0.754719 217.029 1.43545C217.883 1.86667 218.236 2.61564 218.201 3.56888C218.145 5.11221 217.576 6.50802 217.018 7.90382C216.346 9.58333 215.63 11.2401 214.913 12.897C214.639 13.5211 214.617 13.9296 215.311 14.3608C217.576 15.768 218.088 17.822 217.416 20.3072C216.472 23.8024 214.878 27.082 213.831 30.5431C211.658 37.7605 209.2 44.8757 206.321 51.8434C206.127 52.32 205.934 52.6945 206.685 53.0236C217.94 57.8692 228.99 63.1574 240.279 67.9008C244.615 69.7279 248.95 71.5209 253.446 72.928C258.601 74.5394 263.619 74.3465 268.627 72.2471C281.577 66.8228 294.163 60.6721 306.158 53.3527C312.303 49.5965 378.528 13.9537 384.708 10.2543C385.117 10.016 385.538 9.78902 385.971 9.59611C386.289 9.44858 386.665 9.06275 386.938 9.63015C387.177 10.1408 386.665 10.1862 386.403 10.3224C382.033 12.592 317.914 47.2928 313.692 49.8121C304.178 55.5088 294.71 61.2963 284.661 66.0284C279.825 68.3094 274.874 70.3407 270.026 72.6103C263.733 75.5607 257.463 75.4359 251.033 73.0755C243.42 70.2726 235.988 67.027 228.58 63.7361C221.684 60.6721 214.81 57.5514 207.914 54.4648C207.538 54.2946 207.186 53.9995 206.582 54.1016H206.616ZM163.588 100.038C164.032 99.403 164.157 98.7334 164.237 98.0412C164.624 94.9205 164.169 91.8565 163.566 88.8039C163.418 88.0776 163.11 87.6124 162.496 87.1698C160.038 85.4335 158.968 82.7894 158.103 80.0546C157.978 79.646 157.978 79.1467 158.433 78.8971C158.854 78.6701 159.298 78.8176 159.639 79.1127C160.152 79.5666 160.664 80.0432 161.096 80.5652C162.45 82.188 163.201 84.1172 163.748 86.1144C163.953 86.8634 164.362 87.1698 165.056 87.2719C165.785 87.374 166.513 87.374 167.253 87.2492C170.2 86.7045 172.715 85.3087 174.684 83.0845C175.446 82.222 176.619 81.927 177.097 80.622C180.738 70.8173 184.528 61.0693 188.26 51.2987C188.989 49.4036 188.761 49.1199 186.701 49.3582C186.155 49.4263 185.609 49.6078 185.085 49.8007C183.606 50.3227 182.274 51.1058 180.943 51.9115C178.098 53.625 175.412 55.6109 172.419 57.0635C166.559 59.9005 160.607 62.5559 154.848 65.5858C150.422 67.9122 145.813 69.8867 141.648 72.7124C138.529 74.8458 137.596 77.7736 138.177 81.3823C138.586 83.9696 139.884 86.2506 140.612 88.7131C142.103 93.7403 143.343 98.8469 145.039 103.817C146.063 106.825 146.723 109.968 148.157 112.839C148.339 113.202 148.328 113.701 149.113 113.577C150.683 113.316 151.537 113.77 152.14 115.324C153.574 119.012 154.473 122.814 154.029 126.808C153.893 128.023 153.722 129.35 152.299 129.906C152.015 130.02 151.89 130.179 152.072 130.485C152.277 130.826 152.436 130.803 152.777 130.587C153.278 130.27 153.847 130.031 154.416 129.838C159.344 128.204 161.677 125.004 161.096 119.886C160.63 115.767 161.29 112.045 163.406 108.493C164.613 106.473 164.465 104.283 163.634 102.126C163.452 101.661 163.201 101.389 162.667 101.219C161.347 100.799 160.561 99.7774 159.992 98.5745C159.799 98.166 159.685 97.7461 160.083 97.3944C160.47 97.0539 160.823 97.383 161.142 97.5532C162.177 98.132 162.803 99.142 163.6 100.016L163.588 100.038ZM203.259 117.083C203.954 117.219 204.352 116.924 204.784 116.777C207.186 115.96 209.45 114.711 211.988 114.314C215.55 113.758 218.816 114.87 222.002 116.277C226.042 118.059 229.65 120.635 233.553 122.644C237.673 124.766 241.974 126.218 246.697 125.935C250.68 125.696 253.275 123.393 254.026 119.5C255.153 113.588 252.069 107.063 246.811 103.931C241.94 101.037 236.808 100.697 231.436 102.013C223.618 103.931 216.62 107.608 209.962 111.999C207.663 113.52 205.456 115.143 203.259 117.072V117.083ZM199.675 65.5972C201.393 61.5119 203.02 57.6309 204.659 53.7498C208.198 45.341 211.055 36.6824 213.831 28.0012C214.742 25.1415 216.096 22.4179 216.756 19.4675C217.132 17.7766 216.608 16.4148 215.254 15.3595C214.662 14.8942 214.127 14.4857 213.365 15.1893C212.864 15.6432 212.124 15.5751 211.499 15.3708C210.554 15.0644 209.632 14.7013 208.722 14.3268C205.296 12.9537 203.703 13.5665 202.315 16.9936C198.116 27.3543 194.258 37.8513 190.275 48.3028C189.956 49.1312 190.263 49.4035 190.946 49.5624C192.289 49.8575 193.643 50.1298 194.997 50.4022C198.093 51.0263 198.958 52.5696 197.842 55.5428C197.262 57.0748 196.682 58.5955 196.079 60.1161C195.589 61.3417 195.896 62.3176 196.966 63.0439C197.933 63.7021 198.821 64.451 199.675 65.6199V65.5972ZM169.244 103.034C174.513 99.2327 180.055 96.6681 185.666 94.2623C186.235 94.024 186.371 93.5587 186.542 93.0708C187.578 90.1997 188.602 87.3173 189.66 84.4576C192.084 77.8757 194.497 71.2939 196.978 64.7347C197.228 64.0652 196.795 64.0085 196.5 63.7701C195.032 62.5786 194.69 61.6254 195.293 59.7983C195.817 58.255 196.465 56.7457 197.034 55.2137C197.956 52.7399 197.376 51.7185 194.77 51.1852C193.461 50.9128 192.107 50.7653 190.855 50.3568C189.876 50.039 189.524 50.232 189.182 51.1625C183.731 66.0284 177.882 80.7468 172.169 95.5106C171.247 97.905 170.314 100.299 169.256 103.023L169.244 103.034ZM221.058 132.812C220.898 131.609 220.477 130.735 219.829 129.975C218.11 127.921 215.755 126.933 213.217 126.491C208.016 125.56 202.804 125.73 197.66 126.888C195.453 127.387 193.575 127.092 191.925 125.503C191.253 124.857 190.423 124.346 189.478 124.527C186.849 125.038 184.323 125.912 181.797 126.774C181.034 127.035 181.341 127.478 181.842 127.739C182.866 128.284 183.913 128.794 184.972 129.282C187.555 130.474 190.172 131.597 192.426 133.39C194.519 135.047 195.657 137.158 195.612 139.859C195.589 141.016 195.589 142.185 195.544 143.342C195.487 144.874 195.976 145.362 197.421 145.011C200.562 144.25 203.521 142.945 206.685 141.754C205.797 141.016 205.57 140.199 205.649 139.189C205.831 136.704 207.39 135.331 209.427 134.378C212.489 132.948 215.823 132.721 219.123 132.369C219.738 132.301 220.318 132.482 221.058 132.812ZM205.501 54.0222C203.806 58.0167 202.224 61.7729 200.619 65.5177C200.403 66.0171 200.38 66.766 199.743 66.8341C199.083 66.9136 199.015 66.0851 198.628 65.722C198.582 65.6766 198.48 65.688 198.377 65.6653C198.332 66.6525 198.264 67.6285 198.241 68.6044C198.093 74.687 197.353 80.8149 199.606 86.7386C199.936 87.6124 200.13 87.5216 200.756 87.2265C202.793 86.2619 204.739 85.1612 206.514 83.7881C211.988 79.5439 213.957 74.0855 212.261 67.3448C211.032 62.4538 208.358 58.3004 205.478 54.0108L205.501 54.0222ZM181.091 125.946C178.633 126.536 176.266 127.194 173.796 127.262C173.387 127.262 173.159 127.41 173.125 127.852C173.022 129.055 172.362 130.031 171.828 131.064C169.916 134.775 168.015 138.486 166.103 142.196C165.876 142.639 165.739 142.934 166.331 143.184C169.927 144.682 173.648 145.782 177.54 146.86C175.469 143.921 176.232 141.731 179.555 140.982C182.923 140.233 186.371 139.893 189.831 139.938C191.857 139.961 193.393 140.857 194.155 142.832C194.224 143.013 194.178 143.377 194.554 143.365C195.635 138.747 194.383 135.58 190.468 133.038C188.977 132.074 187.373 131.336 185.78 130.576C184.3 129.872 182.741 129.339 181.364 128.431C180.101 127.591 180.055 127.194 181.08 125.946H181.091ZM184.71 115.824C184.642 114.689 184.38 113.248 183.879 111.863C183.037 109.537 181.432 108.027 178.906 108.016C173.739 107.993 168.914 109.321 164.692 112.362C163.406 113.293 162.61 114.632 162.61 116.334C162.61 120.465 166.069 125.004 170.064 126.059C170.462 126.162 170.769 126.241 171.122 125.912C172.453 124.675 174.16 124.164 175.845 123.597C177.722 122.973 179.657 122.508 181.421 121.577C183.617 120.419 184.733 118.638 184.71 115.824ZM151.901 158.776C152.789 158.333 153.654 158.129 154.188 158.81C154.974 159.808 155.213 159.094 155.588 158.549C158.74 153.908 161.358 148.96 164.123 144.091C164.419 143.569 164.487 143.24 163.816 142.911C161.608 141.811 159.594 140.392 157.739 138.769C157.147 138.247 156.874 138.27 156.635 139.098C155.474 143.15 154.211 147.178 153.107 151.241C152.459 153.646 152.06 156.109 151.901 158.787V158.776ZM193.598 145.794C193.598 145.533 193.598 145.283 193.598 145.022C193.666 142.548 192.517 141.186 190.093 140.801C188.659 140.574 187.248 140.823 185.836 140.982C183.492 141.232 181.08 141.209 178.838 142.117C176.937 142.9 176.653 144.704 178.166 146.1C178.542 146.441 178.986 146.736 179.441 146.974C183.31 148.926 187.464 149.8 191.754 150.095C192.596 150.151 193.017 149.731 193.279 148.994C193.655 147.95 193.552 146.872 193.598 145.805V145.794ZM209.177 140.959C211.669 140.381 214.73 140.313 217.792 140.199C221.775 140.052 222.697 138.622 221.297 134.9C221.251 134.775 221.206 134.661 221.16 134.536C220.762 133.595 220.056 133.061 219.032 133.175C216.039 133.526 213.001 133.742 210.178 134.934C208.506 135.637 207.06 136.624 206.571 138.531C206.093 140.381 206.73 141.13 209.177 140.948V140.959ZM160.493 131.2C159.731 131.075 159.014 131.609 158.684 132.857C158.365 134.06 157.91 135.229 157.489 136.398C157.295 136.942 157.318 137.328 157.807 137.737C159.822 139.439 161.961 140.948 164.271 142.219C164.749 142.48 165.011 142.469 165.273 141.947C166.445 139.598 167.64 137.271 168.846 134.934C169.074 134.502 169.108 134.185 168.607 133.878C166.263 132.448 163.805 131.359 160.504 131.2H160.493ZM148.863 123.574C148.18 119.602 148.976 115.358 146.666 111.67C146.37 111.205 146.234 110.637 146.063 110.104C145.21 107.46 144.379 104.816 143.525 102.115C143.377 102.195 143.229 102.229 143.173 102.319C140.783 105.849 139.019 110.115 142.103 114.36C144.333 117.424 146.734 120.363 148.863 123.574ZM157.705 129.532C158.957 130.644 160.379 130.394 161.779 130.417C161.904 130.417 162.029 130.463 162.166 130.485C164.556 130.803 166.707 131.779 168.766 132.97C169.028 133.118 169.324 133.697 169.688 133.061C170.564 131.529 171.532 130.054 172.169 128.397C172.431 127.716 172.317 127.319 171.418 127.194C166.786 126.57 163.93 123.824 162.416 119.534C162.302 119.205 162.154 118.888 162.029 118.558C162.655 123.086 161.46 126.854 157.705 129.543V129.532ZM217.405 3.69371C217.428 2.46812 216.597 2.00285 215.664 1.7078C214.503 1.33332 213.388 0.221211 212.079 1.35601C211.92 1.49219 211.794 1.68511 211.681 1.85533C211.442 2.20712 211.157 2.54756 210.986 2.94474C209.905 5.38456 208.858 7.83574 207.766 10.2642C207.47 10.9224 207.982 10.8997 208.289 10.9791C209.985 11.399 211.533 12.1366 213.046 12.9877C213.649 13.3282 213.888 13.2941 214.15 12.6133C214.901 10.6841 215.755 8.81167 216.529 6.89385C216.95 5.86118 217.28 4.78312 217.416 3.69371H217.405ZM165 106.745C165.819 105.996 166.388 105.429 167.014 104.907C167.423 104.555 167.492 104.339 167.014 103.954C166.103 103.205 165.728 102.149 165.523 101.026C164.908 97.7688 166.183 95.1474 168.322 92.8097C170.28 90.6763 172.01 88.3727 173.614 85.9782C173.774 85.7286 174.16 85.5357 173.944 85.1158C169.893 87.7372 169.142 88.0209 164.954 88.1117C164.135 88.1344 164.419 88.5429 164.465 88.9287C164.681 90.5061 165 92.0721 165.125 93.6495C165.318 96.0439 165.477 98.4724 164.26 100.697C164.089 101.003 164.123 101.275 164.26 101.548C165.045 103.102 165.136 104.759 165 106.745ZM174.912 86.1144C172.727 88.9401 170.462 91.6976 168.118 94.3871C167.287 95.3403 166.707 96.4525 166.433 97.6894C166.046 99.4597 166.092 101.196 167.128 102.785C167.31 103.057 167.503 103.443 167.89 103.42C168.311 103.397 168.334 102.955 168.448 102.66C169.062 101.105 169.677 99.5391 170.28 97.9844C171.828 94.0353 173.364 90.0749 174.9 86.1258L174.912 86.1144ZM149.113 116.675C149.227 117.889 149.295 119.137 149.454 120.374C149.75 122.666 149.875 125.004 150.683 127.206C150.956 127.943 151.15 129.055 152.094 128.965C152.914 128.885 152.994 127.83 153.107 127.069C153.722 123.064 152.641 119.319 151.287 115.619C151.104 115.143 150.809 114.677 150.296 114.473C149.591 114.201 148.988 114.144 149.102 115.222C149.147 115.687 149.102 116.164 149.102 116.675H149.113ZM189.387 123.404C190.719 123.597 191.822 124.153 192.744 125.038C193.461 125.73 194.076 126.071 194.702 124.936C194.975 124.437 195.498 124.108 196.056 124.005C196.727 123.892 197.103 123.506 197.399 122.95C197.922 121.986 198.468 121.044 199.128 119.863C195.726 121.089 192.551 122.247 189.364 123.393L189.387 123.404ZM222.378 133.22C222.697 130.746 221.661 128.772 219.988 127.172C217.075 124.391 213.547 124.21 209.803 125.061C215.265 125.81 220.648 126.672 222.378 133.22ZM158.217 131.631C156.339 130.905 154.587 130.86 152.823 131.836C153.927 133.447 154.985 135.07 156.555 136.432C157.147 134.729 157.671 133.197 158.217 131.631ZM213.16 14.2474C211.681 13.1693 210.087 12.4544 208.415 11.8643C207.322 11.4785 206.548 11.7168 205.9 12.897C208.54 12.5792 210.497 15.1098 213.149 14.2474H213.16ZM159.025 79.9411C159.787 82.3242 160.686 84.6165 162.951 86.5456C162.143 83.754 161.164 81.5071 159.025 79.9411ZM192.71 92.197C194.781 91.8338 196.795 91.3799 198.104 89.5302C196.181 90.1884 194.383 91.0735 192.71 92.197ZM152.083 162.521C153.062 161.931 153.358 161.079 153.745 160.296C153.938 159.911 153.915 159.525 153.449 159.343C152.937 159.139 152.629 159.377 152.493 159.865C152.265 160.671 151.924 161.465 152.083 162.521ZM200.232 125.526C197.683 124.346 197.217 124.437 196.204 126.252C197.524 126.014 198.776 125.787 200.232 125.526Z" fill="#CBE2D1"/>
<path d="M102.5 96C102.5 106.495 96.0057 115 88 115C96.0096 115 102.5 123.51 102.5 134C102.5 123.505 108.994 115 117 115C108.99 115 102.5 106.49 102.5 96Z" fill="#CBE2D1"/>
</svg>
