<svg width="49" height="48" viewBox="0 0 49 48" fill="none" xmlns="http://www.w3.org/2000/svg">
<rect x="0.166016" width="48" height="48" rx="24" fill="#4EA692"/>
<g clip-path="url(#clip0_5932_26196)">
<path d="M29.7243 13.457C31.8546 13.5651 33.5677 14.5469 34.4969 16.6146C35.4293 18.6913 35.1343 20.6862 33.605 22.3781C32.3091 23.8124 30.8909 25.1346 29.5233 26.5043C27.2284 28.8022 24.9264 31.0921 22.6396 33.3981C22.2527 33.788 21.8355 33.9951 21.283 34.0668C19.1184 34.3466 16.9598 34.6708 14.8003 34.9819C13.9043 35.1112 13.3518 34.5506 13.4791 33.6486C13.7983 31.4042 14.0993 29.1578 14.4397 26.9174C14.4872 26.6083 14.6518 26.2629 14.871 26.0417C18.5336 22.3518 22.2113 18.6772 25.892 15.0045C26.9173 13.9823 28.1809 13.5085 29.7243 13.457ZM24.5092 19.3196C24.3961 19.4711 24.3022 19.6357 24.1729 19.766C21.8689 22.0771 19.5709 24.3942 17.2447 26.6821C16.7538 27.1639 16.4205 27.6487 16.4013 28.3629C16.3861 28.9123 16.2407 29.4568 16.1629 30.0053C16.0417 30.8638 15.9286 31.7224 15.8084 32.6143C15.9993 32.6143 16.1316 32.6305 16.2588 32.6123C17.5376 32.4274 18.8113 32.183 20.0972 32.0689C20.8315 32.0042 21.3224 31.6759 21.8113 31.18C24.1032 28.8568 26.4193 26.5578 28.7263 24.2498C28.8516 24.1245 28.9677 23.9892 29.0677 23.8811C27.5617 22.3731 26.089 20.8993 24.5102 19.3196H24.5092ZM30.696 22.3074C31.1142 21.8791 31.5556 21.4428 31.9788 20.9882C33.1263 19.7539 33.1061 17.8075 31.9414 16.6045C30.8152 15.4408 28.8233 15.3247 27.588 16.3903C27.0819 16.8267 26.6466 17.3459 26.1971 17.8085C27.6688 19.2802 29.1516 20.763 30.695 22.3074H30.696Z" fill="#043A4E"/>
</g>
<defs>
<clipPath id="clip0_5932_26196">
<rect width="21.5663" height="21.5431" fill="white" transform="translate(13.4609 13.457)"/>
</clipPath>
</defs>
</svg>
