<svg width="14" height="15" viewBox="0 0 14 15" fill="none" xmlns="http://www.w3.org/2000/svg">
<path d="M11.5431 9.13578C10.3414 10.3316 8.62057 10.6991 7.10974 10.2266L4.36224 12.9683C4.16391 13.1724 3.77307 13.2949 3.49307 13.2541L2.22141 13.0791C1.80141 13.0208 1.41057 12.6241 1.34641 12.2041L1.17141 10.9324C1.13057 10.6524 1.26474 10.2616 1.45724 10.0633L4.19891 7.32161C3.73224 5.80495 4.09391 4.08411 5.29557 2.88828C7.01641 1.16745 9.81057 1.16745 11.5372 2.88828C13.2639 4.60911 13.2639 7.41495 11.5431 9.13578Z" stroke="#CBE2D1" stroke-miterlimit="10" stroke-linecap="round" stroke-linejoin="round"/>
<path d="M4.01562 10.6289L5.35729 11.9706" stroke="#CBE2D1" stroke-miterlimit="10" stroke-linecap="round" stroke-linejoin="round"/>
<path d="M8.46094 6.8418C8.94419 6.8418 9.33594 6.45005 9.33594 5.9668C9.33594 5.48355 8.94419 5.0918 8.46094 5.0918C7.97769 5.0918 7.58594 5.48355 7.58594 5.9668C7.58594 6.45005 7.97769 6.8418 8.46094 6.8418Z" stroke="#CBE2D1" stroke-linecap="round" stroke-linejoin="round"/>
</svg>
