<svg width="12" height="15" viewBox="0 0 12 15" fill="none" xmlns="http://www.w3.org/2000/svg">
<path fill-rule="evenodd" clip-rule="evenodd" d="M7.09303 1.13565C3.98361 0.458585 1.24023 2.80118 1.24023 5.78728C1.24023 7.49791 2.37678 9.15729 3.79218 10.0127C3.94201 10.1032 4.03357 10.2655 4.03357 10.4406V11.2139C4.03357 11.2585 4.03231 11.3029 4.03132 11.3378C4.03127 11.3397 4.03122 11.3416 4.03117 11.3434C4.06805 11.3462 4.11351 11.3478 4.16902 11.3473L4.17357 11.3473V11.3473H7.8469C7.91427 11.3473 7.95989 11.3417 7.98896 11.3359C7.9891 11.3257 7.98903 11.3141 7.98876 11.3002C7.98849 11.2869 7.98815 11.2757 7.98772 11.2594C7.98734 11.245 7.9869 11.2264 7.9869 11.2073V10.4339C7.9869 10.2588 8.07854 10.0964 8.22848 10.0059C10.2147 8.80679 11.5163 6.09614 10.2659 3.58336L10.2659 3.58335C9.64939 2.34429 8.45791 1.43787 7.09303 1.13565ZM4.03193 11.4686C4.03192 11.4686 4.03182 11.4681 4.03167 11.467L4.03193 11.4686ZM0.240234 5.78728C0.240234 2.17361 3.56309 -0.656985 7.30669 0.158741L7.30824 0.15908C8.95636 0.523711 10.4045 1.61717 11.1612 3.13787C12.6436 6.11678 11.1764 9.23422 8.9869 10.7079V11.2073C8.9869 11.208 8.98704 11.21 8.98727 11.2132C8.99058 11.2605 9.01245 11.5727 8.87774 11.831C8.6886 12.1937 8.30821 12.3473 7.8469 12.3473H4.17579C3.80198 12.3504 3.3697 12.2929 3.14873 11.921C3.05037 11.7555 3.03448 11.5858 3.03076 11.4806C3.0288 11.4253 3.03004 11.3714 3.03117 11.3294C3.03139 11.3212 3.03161 11.3134 3.03182 11.3059C3.03279 11.2711 3.03357 11.2432 3.03357 11.2139V10.7146C1.49105 9.67811 0.240234 7.81199 0.240234 5.78728Z" fill="#FF9D48"/>
<path fill-rule="evenodd" clip-rule="evenodd" d="M8.19628 14.3353C6.75887 13.9273 5.24008 13.9273 3.80267 14.3353C3.53702 14.4107 3.26055 14.2565 3.18514 13.9908C3.10974 13.7252 3.26397 13.4487 3.52962 13.3733C5.14554 12.9146 6.85342 12.9146 8.46934 13.3733C8.73499 13.4487 8.88921 13.7252 8.81381 13.9908C8.73841 14.2565 8.46193 14.4107 8.19628 14.3353Z" fill="#FF9D48"/>
</svg>
