<svg width="95" height="185" viewBox="0 0 95 185" fill="none" xmlns="http://www.w3.org/2000/svg">
<path d="M43.7405 16.7648C46.2453 33.4911 52.3824 49.6153 61.6007 63.7984C71.5943 79.173 85.2008 92.0749 101.062 101.287C110.332 106.668 120.3 110.806 130.671 113.516C132.126 113.894 131.741 116.22 130.274 115.835C111.498 110.928 93.9836 101.524 79.5891 88.5003C66.3541 76.5337 55.9442 61.5883 49.1537 45.099C45.4381 36.0792 42.8437 26.6237 41.4023 16.9761C41.1781 15.4771 43.5227 15.2721 43.7469 16.7648H43.7405Z" fill="white" fill-opacity="0.1"/>
<path d="M40.8891 0.00639281C39.3708 4.88144 37.8398 9.77572 37.1992 14.843C36.5457 19.9038 36.7956 25.1824 38.7623 29.8909C40.1716 33.2925 42.4329 36.3034 45.0466 38.9043C46.456 40.3072 47.987 41.6076 49.6014 42.7671L49.6334 42.6903C47.2055 36.0023 49.1594 28.6161 48.98 21.5181C48.7942 13.7091 45.8858 5.99611 40.8891 0V0.00639281Z" fill="white" fill-opacity="0.1"/>
<path d="M43.0237 50.7875C37.3735 49.6216 31.4735 50.2046 25.9194 51.7612C30.0001 54.2852 32.6907 58.6094 36.6753 61.2743C39.9424 63.4524 44.0103 64.3877 47.9052 63.8496C51.3773 63.3691 54.6636 61.7163 57.1428 59.25C53.7476 54.7977 48.5074 51.915 43.0237 50.7875Z" fill="white" fill-opacity="0.1"/>
<path d="M95.9946 61.0568C93.8486 69.5384 91.5231 78.0842 91.4078 86.8413C91.2861 95.1116 93.3809 103.734 98.7236 109.98L99.0759 109.679C105.898 94.2404 104.713 75.5089 95.9946 61.0568Z" fill="white" fill-opacity="0.1"/>
<path d="M57.2314 59.1732C57.3211 59.0835 57.398 59.0066 57.4813 58.917C56.7958 55.3359 57.5005 51.5819 58.6792 48.1226C59.922 44.4455 61.6837 40.967 62.9393 37.3091C65.6042 29.577 65.9437 21.0569 63.913 13.1389C58.3845 19.3336 54.7587 27.1811 53.6056 35.4001C52.4845 43.4526 53.7401 51.8254 57.225 59.1732H57.2314Z" fill="white" fill-opacity="0.1"/>
<path d="M34.0552 78.8207C39.0584 84.4517 46.2781 88.0583 53.7924 88.6861C61.2235 89.3011 68.866 86.9949 74.7084 82.3377L74.5867 82.1775C68.834 77.9623 61.9026 75.3614 54.7982 74.7721C47.681 74.1891 40.4165 75.6049 34.0488 78.8207H34.0552Z" fill="white" fill-opacity="0.1"/>
<path d="M22.9215 119.045C32.5114 133.061 44.6574 145.297 58.4626 155.169C72.1844 164.983 87.5271 172.504 103.722 177.257C112.921 179.954 122.37 181.735 131.921 182.555C133.427 182.683 133.324 185.034 131.812 184.906C114.612 183.433 97.7704 178.865 82.1075 171.633C66.4061 164.381 51.9347 154.471 39.5453 142.402C32.5819 135.618 26.3295 128.154 20.8395 120.134C19.9875 118.885 22.0759 117.809 22.9279 119.045H22.9215Z" fill="white" fill-opacity="0.1"/>
<path d="M65.087 129.384C61.7558 118.488 54.8629 108.148 44.549 103.28C46.5157 125.195 53.5176 147.424 68.6296 163.407C51.9865 161.21 34.0751 164.861 21.3525 175.822C27.2974 177.52 33.2935 179.23 39.4498 179.865C45.6125 180.479 52.0186 179.961 57.6303 177.36C63.2485 174.74 67.9826 169.865 69.4816 163.849L68.9051 163.273C68.6808 151.876 68.431 140.3 65.0934 129.391L65.087 129.384Z" fill="white" fill-opacity="0.1"/>
<path d="M96.7517 176.315C97.7767 166.117 97.6742 155.63 94.5224 145.867C91.377 136.117 84.894 127.123 75.6885 122.62C77.3669 132.459 78.1036 142.504 80.8646 152.094C83.5808 161.575 88.5648 170.838 96.7453 176.322H96.7582L96.7517 176.315Z" fill="white" fill-opacity="0.1"/>
<path d="M38.8979 126.918C34.8172 118.936 29.4937 111.14 21.6334 106.79C15.1056 103.164 7.4503 102.287 0 101.627C7.6617 109.98 10.6534 121.575 17.0979 130.896C24.8044 142.03 37.5974 149.48 51.0759 150.73C46.0983 143.318 42.9593 134.875 38.9043 126.918H38.8979Z" fill="white" fill-opacity="0.1"/>
</svg>
