<svg width="99" height="185" viewBox="0 0 99 185" fill="none" xmlns="http://www.w3.org/2000/svg">
<path d="M55.2595 16.7648C52.7547 33.4911 46.6176 49.6153 37.3993 63.7984C27.4057 79.173 13.7992 92.0749 -2.06234 101.287C-11.332 106.668 -21.2999 110.806 -31.6714 113.516C-33.1255 113.894 -32.7412 116.22 -31.2742 115.835C-12.4979 110.928 5.0164 101.524 19.4109 88.5003C32.6459 76.5337 43.0558 61.5883 49.8463 45.099C53.5619 36.0792 56.1563 26.6237 57.5977 16.9761C57.8219 15.4771 55.4773 15.2721 55.2531 16.7648H55.2595Z" fill="white" fill-opacity="0.1"/>
<path d="M58.1109 0.00639281C59.6292 4.88144 61.1602 9.77572 61.8008 14.843C62.4543 19.9038 62.2044 25.1824 60.2377 29.8909C58.8284 33.2925 56.5671 36.3034 53.9534 38.9043C52.544 40.3072 51.013 41.6076 49.3986 42.7671L49.3666 42.6903C51.7945 36.0023 49.8406 28.6161 50.02 21.5181C50.2058 13.7091 53.1142 5.99611 58.1109 0V0.00639281Z" fill="white" fill-opacity="0.1"/>
<path d="M55.9763 50.7875C61.6265 49.6216 67.5265 50.2046 73.0806 51.7612C68.9999 54.2852 66.3093 58.6094 62.3247 61.2743C59.0576 63.4524 54.9897 64.3877 51.0948 63.8496C47.6227 63.3691 44.3364 61.7163 41.8572 59.25C45.2524 54.7977 50.4926 51.915 55.9763 50.7875Z" fill="white" fill-opacity="0.1"/>
<path d="M3.0054 61.0568C5.15145 69.5384 7.47687 78.0842 7.59218 86.8413C7.71389 95.1116 5.6191 103.734 0.276406 109.98L-0.075932 109.679C-6.89843 94.2404 -5.7133 75.5089 3.0054 61.0568Z" fill="white" fill-opacity="0.1"/>
<path d="M41.7686 59.1732C41.6789 59.0835 41.602 59.0066 41.5187 58.917C42.2042 55.3359 41.4995 51.5819 40.3208 48.1226C39.078 44.4455 37.3163 40.967 36.0607 37.3091C33.3958 29.577 33.0563 21.0569 35.087 13.1389C40.6155 19.3336 44.2413 27.1811 45.3944 35.4001C46.5155 43.4526 45.2599 51.8254 41.775 59.1732H41.7686Z" fill="white" fill-opacity="0.1"/>
<path d="M64.9448 78.8207C59.9416 84.4517 52.7219 88.0583 45.2076 88.6861C37.7765 89.3011 30.134 86.9949 24.2916 82.3377L24.4133 82.1775C30.166 77.9623 37.0974 75.3614 44.2018 74.7721C51.319 74.1891 58.5835 75.6049 64.9512 78.8207H64.9448Z" fill="white" fill-opacity="0.1"/>
<path d="M76.0785 119.045C66.4886 133.061 54.3426 145.297 40.5374 155.169C26.8156 164.983 11.4729 172.504 -4.72169 177.257C-13.9209 179.954 -23.3699 181.735 -32.9214 182.555C-34.4268 182.683 -34.3243 185.034 -32.8125 184.906C-15.6121 183.433 1.22958 178.865 16.8925 171.633C32.5939 164.381 47.0653 154.471 59.4547 142.402C66.4181 135.618 72.6705 128.154 78.1605 120.134C79.0125 118.885 76.9241 117.809 76.0721 119.045H76.0785Z" fill="white" fill-opacity="0.1"/>
<path d="M33.913 129.384C37.2442 118.488 44.1371 108.148 54.451 103.28C52.4843 125.195 45.4824 147.424 30.3704 163.407C47.0135 161.21 64.9249 164.861 77.6475 175.822C71.7026 177.52 65.7065 179.23 59.5502 179.865C53.3875 180.479 46.9814 179.961 41.3697 177.36C35.7515 174.74 31.0174 169.865 29.5184 163.849L30.0949 163.273C30.3192 151.876 30.569 140.3 33.9066 129.391L33.913 129.384Z" fill="white" fill-opacity="0.1"/>
<path d="M2.24825 176.315C1.22327 166.117 1.32577 155.63 4.47757 145.867C7.62297 136.117 14.106 127.123 23.3115 122.62C21.6331 132.459 20.8964 142.504 18.1354 152.094C15.4192 161.575 10.4352 170.838 2.25465 176.322H2.24185L2.24825 176.315Z" fill="white" fill-opacity="0.1"/>
<path d="M60.1021 126.918C64.1828 118.936 69.5063 111.14 77.3666 106.79C83.8944 103.164 91.5497 102.287 99 101.627C91.3383 109.98 88.3466 121.575 81.9021 130.896C74.1956 142.03 61.4026 149.48 47.9241 150.73C52.9017 143.318 56.0407 134.875 60.0957 126.918H60.1021Z" fill="white" fill-opacity="0.1"/>
</svg>
