<svg width="14" height="13" viewBox="0 0 14 13" fill="none" xmlns="http://www.w3.org/2000/svg">
<g clip-path="url(#clip0_15710_30399)">
<path d="M9.23347 9.00058C9.23347 8.55883 9.23237 8.13159 9.23347 7.70434C9.23511 7.26528 9.39637 7.10513 9.84188 7.10244C10.2245 7.10029 10.6072 7.10083 10.9893 7.10244C11.4659 7.10406 11.6174 7.25453 11.6321 7.73336C11.6338 7.78603 11.6398 7.8387 11.6463 7.93221C11.9038 7.93221 12.1542 7.9306 12.4051 7.93221C12.8566 7.93543 13.0129 8.08859 13.0157 8.5282C13.0168 8.67921 13.0157 8.82969 13.0157 9.01886C13.1501 9.01886 13.2649 9.01671 13.3792 9.01886C13.7903 9.02692 13.9914 9.22737 13.9963 9.63742C13.9996 9.91472 13.9996 10.1926 13.9963 10.4699C13.9909 10.8794 13.7914 11.0745 13.3737 11.0825C13.266 11.0847 13.1583 11.0825 13.0157 11.0825C13.0157 11.2916 13.0195 11.4764 13.0146 11.6608C13.0058 11.9821 12.8369 12.1547 12.5084 12.174C12.363 12.1826 12.217 12.1762 12.0711 12.1767C11.9366 12.1767 11.8016 12.1767 11.6819 12.1767C11.6578 12.2165 11.6425 12.2304 11.6414 12.246C11.5917 12.9269 11.5135 12.9984 10.8144 12.9984C10.4683 12.9984 10.1223 13.0022 9.77628 12.9968C9.41605 12.9914 9.23784 12.8173 9.23401 12.4669C9.22909 12.0198 9.23292 11.5732 9.23292 11.104H4.76687C4.76687 11.5232 4.76742 11.9402 4.76687 12.3573C4.76632 12.849 4.616 12.9962 4.11582 12.9973C3.76051 12.9979 3.40519 12.9973 3.05042 12.9973C2.52729 12.9968 2.38243 12.8597 2.36767 12.3535C2.36657 12.3089 2.36111 12.2648 2.354 12.1756C2.09544 12.1756 1.83524 12.1788 1.57504 12.1751C1.14866 12.1686 0.987401 12.0053 0.984668 11.5812C0.983575 11.4297 0.984668 11.2776 0.984668 11.0814C0.847461 11.0814 0.724467 11.0841 0.601473 11.0809C0.217185 11.0702 0.0121953 10.8724 0.00454237 10.4978C-0.000924028 10.2114 0.000715892 9.92493 0.00399573 9.63849C0.00836885 9.21609 0.209532 9.02315 0.645751 9.01724C0.744693 9.01617 0.844182 9.01724 0.985215 9.01724C0.985215 8.81679 0.981388 8.63246 0.985761 8.44866C0.993961 8.11009 1.16287 7.94134 1.51054 7.93274C1.78222 7.92576 2.05444 7.93113 2.34744 7.93113C2.35564 7.8344 2.36493 7.75755 2.36821 7.6807C2.38297 7.27656 2.55134 7.10567 2.95367 7.10191C3.37239 7.09761 3.79166 7.09653 4.21039 7.10191C4.58921 7.10674 4.76304 7.27871 4.76687 7.64684C4.77124 8.09236 4.76796 8.53787 4.76796 8.99951H9.23401L9.23347 9.00058ZM2.80607 7.52754V12.5867C3.2412 12.5867 3.65828 12.5754 4.07428 12.591C4.29949 12.5996 4.36892 12.5319 4.36782 12.3057C4.35853 10.8031 4.3629 9.30046 4.36236 7.79732C4.36236 7.71079 4.35252 7.62427 4.34596 7.527H2.80607V7.52754ZM9.65219 7.52807C9.64673 7.63502 9.63798 7.73068 9.63798 7.82634C9.63689 8.65825 9.63743 9.49017 9.63743 10.3221C9.63743 10.9928 9.63306 11.664 9.6429 12.3347C9.64399 12.418 9.71888 12.5711 9.76425 12.5728C10.2409 12.5905 10.7187 12.5835 11.1921 12.5835V7.52807H9.65219ZM9.21761 9.43212H4.78764V10.6644H9.21761V9.43212ZM2.34908 8.34601H1.41597V11.7537H2.34908V8.34601ZM11.6573 8.34064V11.7532H12.5833V8.34064H11.6573ZM0.966082 10.6848V9.42782C0.896112 9.42245 0.843635 9.41654 0.790611 9.41546C0.432562 9.40794 0.416709 9.42245 0.415616 9.76425C0.414522 9.97814 0.423815 10.1926 0.413429 10.4059C0.40359 10.6107 0.481759 10.7079 0.697135 10.6864C0.777492 10.6784 0.859488 10.6854 0.966082 10.6854V10.6848ZM13.0293 10.6735C13.1119 10.6778 13.1736 10.6838 13.236 10.6843C13.5689 10.6881 13.5836 10.6741 13.5853 10.3382C13.5864 10.1152 13.5798 9.89215 13.5869 9.66966C13.5924 9.48963 13.5208 9.40257 13.3322 9.41385C13.236 9.41976 13.1392 9.41493 13.0299 9.41493V10.673L13.0293 10.6735Z" fill="#CBE2D1"/>
<path d="M6.99743 0.00108787C7.78951 0.00108787 8.58105 -0.00106178 9.37313 0.00162528C9.99357 0.00377493 10.3341 0.339658 10.3352 0.950695C10.3369 2.44524 10.3369 3.93924 10.3352 5.43379C10.3347 6.0416 9.99192 6.3748 9.36821 6.3791C8.97681 6.38178 8.58542 6.38769 8.19403 6.37641C8.01035 6.37103 7.89337 6.41618 7.80591 6.58922C7.6687 6.86115 7.50526 7.12019 7.34455 7.37976C7.12097 7.74144 6.74598 7.74359 6.5224 7.38298C6.35185 7.10836 6.2048 6.81924 6.02332 6.55214C5.96647 6.46831 5.83363 6.39253 5.73196 6.38716C5.35095 6.36781 4.96776 6.38447 4.58565 6.37802C4.01551 6.36835 3.66839 6.02548 3.6673 5.46657C3.66457 3.94516 3.66402 2.42428 3.6673 0.902865C3.66839 0.348256 4.02425 0.00484976 4.59495 0.00162528C5.39577 -0.00267401 6.1966 0.000550459 6.99798 0.000550459L6.99743 0.00108787ZM6.93402 7.27174C7.14721 6.90898 7.33908 6.59621 7.51674 6.27591C7.63973 6.0545 7.81411 5.95884 8.07103 5.96475C8.51709 5.97496 8.9637 5.97012 9.40975 5.96636C9.75304 5.96368 9.91922 5.8132 9.92032 5.47732C9.92524 3.95537 9.92524 2.43342 9.92032 0.910927C9.91922 0.570207 9.7596 0.414895 9.41795 0.414358C7.80591 0.411133 6.19387 0.411133 4.58237 0.414358C4.24072 0.414895 4.0822 0.570207 4.08111 0.911464C4.07673 2.43342 4.07673 3.95537 4.08111 5.47786C4.0822 5.81374 4.24783 5.96314 4.59167 5.96636C4.98306 5.97012 5.375 5.97657 5.7664 5.96421C6.043 5.95508 6.23104 6.05127 6.36223 6.29741C6.5306 6.61341 6.72411 6.91704 6.93402 7.27174Z" fill="#CBE2D1"/>
<path d="M6.97728 2.06848C7.14455 2.00185 7.28941 1.91908 7.44466 1.8863C7.86776 1.79709 8.27938 1.99593 8.47945 2.36299C8.67515 2.72252 8.63962 3.17018 8.32092 3.44856C7.96998 3.75435 7.57859 4.01768 7.18719 4.27349C7.09809 4.33153 6.90458 4.3326 6.81438 4.2751C6.43556 4.03326 6.05346 3.78605 5.71892 3.49048C5.31932 3.13632 5.30456 2.5973 5.6249 2.21036C5.93539 1.83525 6.4454 1.76216 6.90239 2.02603C6.93301 2.04376 6.96362 2.06096 6.97619 2.06848H6.97728ZM8.18809 2.8789C8.16841 2.57849 8.06619 2.39953 7.83879 2.30978C7.59991 2.21574 7.38562 2.27216 7.22163 2.45918C7.0795 2.62148 6.96198 2.6548 6.79853 2.48283C6.53997 2.21036 6.21964 2.19531 5.98294 2.42371C5.75062 2.64835 5.75226 2.98477 6.02832 3.22983C6.2836 3.45608 6.5673 3.65278 6.8532 3.84141C6.92153 3.88655 7.07349 3.88601 7.14182 3.84087C7.43427 3.64633 7.72126 3.43889 7.98693 3.21049C8.09352 3.11859 8.14108 2.96005 8.18754 2.87944L8.18809 2.8789Z" fill="#CBE2D1"/>
</g>
<defs>
<clipPath id="clip0_15710_30399">
<rect width="14" height="13" fill="white"/>
</clipPath>
</defs>
</svg>
