<svg width="16" height="16" viewBox="0 0 16 16" fill="none" xmlns="http://www.w3.org/2000/svg">
<path d="M7.16789 1.63289C7.62789 1.23956 8.38122 1.23956 8.84788 1.63289L9.90123 2.53963C10.1012 2.71296 10.4745 2.85294 10.7412 2.85294H11.8746C12.5812 2.85294 13.1612 3.4329 13.1612 4.13956V5.27295C13.1612 5.53295 13.3012 5.91295 13.4745 6.11295L14.3812 7.16626C14.7746 7.62626 14.7746 8.3796 14.3812 8.84627L13.4745 9.89957C13.3012 10.0996 13.1612 10.4729 13.1612 10.7396V11.873C13.1612 12.5796 12.5812 13.1596 11.8746 13.1596H10.7412C10.4812 13.1596 10.1012 13.2996 9.90123 13.4729L8.84788 14.3796C8.38788 14.7729 7.63456 14.7729 7.16789 14.3796L6.11456 13.4729C5.91456 13.2996 5.54122 13.1596 5.27456 13.1596H4.12122C3.41455 13.1596 2.83456 12.5796 2.83456 11.873V10.7329C2.83456 10.4729 2.69456 10.0996 2.52789 9.89957L1.62789 8.8396C1.24122 8.3796 1.24122 7.63293 1.62789 7.17293L2.52789 6.11295C2.69456 5.91295 2.83456 5.53962 2.83456 5.27962V4.13956C2.83456 3.4329 3.41455 2.85294 4.12122 2.85294H5.27456C5.53456 2.85294 5.91456 2.71296 6.11456 2.53963L7.16789 1.63289Z" stroke="#CBE2D1" stroke-width="0.8" stroke-linecap="round" stroke-linejoin="round"/>
<path d="M6.59342 9.87934L7.56008 10.626C7.68675 10.7527 7.96676 10.8127 8.15342 10.8127H9.33341C9.70675 10.8127 10.1134 10.5327 10.2067 10.1594L10.9534 7.87934C11.1067 7.44601 10.8268 7.06602 10.3601 7.06602H9.11342C8.92676 7.06602 8.77342 6.91273 8.80009 6.69273L8.95341 5.69273C9.01341 5.41273 8.82675 5.09938 8.54675 5.00605C8.30009 4.91271 7.98675 5.03935 7.86009 5.22602L6.58008 7.126" stroke="#CBE2D1" stroke-width="0.8" stroke-miterlimit="10"/>
<path d="M5 9.87907V6.82576C5 6.38576 5.18667 6.23242 5.62667 6.23242H5.94C6.37334 6.23242 6.56667 6.38576 6.56667 6.82576V9.87907C6.56667 10.3124 6.38 10.4724 5.94 10.4724H5.62667C5.18667 10.4724 5 10.3191 5 9.87907Z" stroke="#CBE2D1" stroke-width="0.8" stroke-linecap="round" stroke-linejoin="round"/>
</svg>
