<svg width="58" height="44" viewBox="0 0 58 44" fill="none" xmlns="http://www.w3.org/2000/svg">
<path d="M55.2162 11.1782L55.2162 11.1782C55.474 11.2617 55.6848 11.4502 55.7957 11.6974C57.2066 14.8287 57.4068 18.6346 56.3842 22.7004C55.3563 26.7865 53.1727 30.7768 50.0712 34.2412C46.9699 37.7055 43.2446 40.3159 39.2969 41.7878C37.0026 42.6434 34.7502 43.0743 32.6228 43.0743C31.216 43.0743 29.8652 42.8835 28.5914 42.5048C27.3177 42.8834 25.9666 43.0743 24.5601 43.0743C22.4325 43.0743 20.1805 42.6433 17.8861 41.7878C13.9382 40.3158 10.213 37.7055 7.11158 34.2412L7.18608 34.1745L7.11157 34.2412C4.83961 31.7032 3.0735 28.9082 1.8633 25.9339C1.66326 25.4427 1.89952 24.8826 2.3907 24.6827C2.88173 24.4827 3.44197 24.7189 3.64185 25.2101L3.54922 25.2478L3.64185 25.2101C4.76826 27.9785 6.41675 30.5862 8.54212 32.9606C11.4392 36.1966 14.9026 38.6263 18.5568 39.9887C21.1025 40.9379 23.638 41.3053 25.9134 41.0781C25.3771 40.7008 24.8698 40.2878 24.3865 39.8453C22.7551 38.3515 21.4487 36.5238 20.4249 34.5749C18.0589 30.0718 17.1719 24.859 17.4933 19.8133M55.2162 11.1782L17.5931 19.8196M55.2162 11.1782C52.8306 10.4065 50.0846 10.3221 47.2383 10.923C46.4691 8.11706 45.142 5.71845 43.3618 3.94897C43.1695 3.75779 42.9056 3.65729 42.6349 3.67111L42.6348 3.67112C40.1295 3.80214 37.542 4.70314 35.0984 6.27934C33.3848 3.93232 31.3067 2.18188 28.9808 1.15059L28.9808 1.15058C28.7329 1.04075 28.4504 1.04076 28.2025 1.15058L28.2025 1.15059C25.9123 2.1659 23.8101 3.94641 22.0921 6.28401C19.6464 4.70498 17.0564 3.80216 14.5485 3.67112M55.2162 11.1782L2.96923 12.8817M17.4933 19.8133L17.5931 19.8196M17.4933 19.8133L17.4933 19.8134L17.5931 19.8196M17.4933 19.8133L17.4951 19.7863L17.4968 19.7606L17.4968 19.7604C17.5658 18.6982 17.6891 17.6509 17.868 16.6227M17.5931 19.8196L17.5966 19.7668C17.6668 18.6871 17.7932 17.6229 17.9772 16.5788M17.868 16.6227C17.8733 16.6266 17.8785 16.6304 17.8837 16.6343C17.8947 16.6423 17.906 16.6506 17.9185 16.6597L17.9772 16.5788M17.868 16.6227C17.8716 16.6023 17.8751 16.5818 17.8787 16.5614L17.9772 16.5788M17.868 16.6227C17.8595 16.6165 17.8508 16.6102 17.8417 16.6036L17.8416 16.6035C17.4594 16.3286 17.0688 16.0646 16.672 15.8108L16.7259 15.7266M17.9772 16.5788C17.9514 16.5601 17.9259 16.5409 17.9 16.5223C17.5163 16.2463 17.1241 15.9812 16.7259 15.7266M16.7259 15.7266L16.672 15.8108C14.7416 14.5761 12.6224 13.5772 10.4022 13.0062L10.4017 13.0061C10.3739 12.9988 10.3467 12.9915 10.3198 12.9843C10.2567 12.9675 10.1957 12.9512 10.1342 12.9361L10.1342 12.9361C7.56467 12.3026 5.09836 12.2867 2.96923 12.8817M16.7259 15.7266L2.96923 12.8817M2.96923 12.8817C1.96127 15.3775 1.80472 18.4012 2.52691 21.6617L2.42928 21.6833L2.52692 21.6617C2.64156 22.1795 2.31491 22.6921 1.79715 22.8068L1.79705 22.8069C1.27965 22.921 0.766678 22.5948 0.652009 22.0769C-0.196874 18.245 0.0547275 14.6548 1.38717 11.6973M1.38717 11.6973L1.47834 11.7384L1.38717 11.6973ZM1.38717 11.6973C1.49838 11.4502 1.70913 11.2616 1.96697 11.1782C4.35266 10.4063 7.09858 10.3218 9.94496 10.923C10.7141 8.11716 12.0413 5.71845 13.8214 3.94898L13.8214 3.94896C14.0136 3.75801 14.2775 3.65679 14.5485 3.67112M14.5485 3.67112L14.5432 3.77098L14.5485 3.67112C14.5485 3.67112 14.5485 3.67112 14.5485 3.67112ZM44.5906 11.6737L44.5907 11.6737L44.616 11.6648L44.6418 11.6557L44.6418 11.6557L44.6749 11.75C44.9513 11.653 45.2279 11.5603 45.5047 11.4756L44.5906 11.6737ZM44.5906 11.6737C43.5375 12.0442 42.513 12.4936 41.5231 13.0079C41.028 13.2652 40.5414 13.5388 40.0638 13.8272C40.0475 13.837 40.0066 13.8604 39.948 13.894C39.9097 13.9158 39.8639 13.9421 39.8125 13.9716C39.6837 14.0456 39.5224 14.1392 39.3652 14.2336C39.2084 14.3279 39.054 14.424 38.9396 14.5031C38.9164 14.5191 38.8943 14.5348 38.8739 14.5499C38.2856 12.2163 37.3905 9.95086 36.1548 7.88054C38.174 6.58103 40.2785 5.80826 42.3067 5.62015C43.6926 7.11348 44.7452 9.09314 45.3828 11.4086L44.5906 11.6737ZM31.2702 41.0778C33.5452 41.3047 36.0806 40.9377 38.6262 39.9885C42.2803 38.626 45.7438 36.1964 48.6408 32.9604C51.5378 29.7244 53.5709 26.014 54.5222 22.232C55.3841 18.8058 55.2693 15.5064 54.2139 12.8812C50.7651 11.917 47.0206 12.6399 43.7842 14.0555C42.217 14.7415 40.7278 15.6063 39.3387 16.6056C39.3247 16.6158 39.3134 16.6241 39.3019 16.6325C39.2967 16.6363 39.2914 16.6402 39.2858 16.6443C39.284 16.6567 39.2827 16.6752 39.2825 16.7007C39.2819 16.7618 39.2877 16.848 39.2986 16.9538C39.3206 17.1645 39.3621 17.4409 39.4087 17.7242C39.4505 17.9782 39.496 18.2361 39.5347 18.4548L39.5476 18.5278C39.5881 18.7574 39.6202 18.9407 39.6262 19.0075C39.71 19.9242 39.7528 20.8447 39.7528 21.7653C39.7528 25.0037 39.2555 28.1179 38.2741 31.0208L38.1794 30.9887L38.2741 31.0208C38.1932 31.2601 38.0106 31.4654 37.7845 31.5756L37.7844 31.5756C37.5618 31.6839 37.2926 31.7023 37.057 31.6228L37.057 31.6228C36.5542 31.453 36.2846 30.9079 36.4545 30.4055C37.3685 27.7019 37.8323 24.7949 37.8323 21.7652C37.8323 19.9685 37.6649 18.1667 37.3205 16.4035C36.7751 13.6112 35.7972 10.9121 34.2817 8.50156C34.2346 8.42674 34.1867 8.35281 34.1384 8.27824C32.6067 5.92271 30.6848 4.12074 28.5921 3.08825C26.3666 4.18591 24.3387 6.15012 22.7637 8.72691C22.5232 9.12194 22.2954 9.52445 22.0822 9.93444C22.0822 9.93445 22.0822 9.93446 22.0822 9.93447L31.2702 41.0778ZM31.2702 41.0778C33.0002 39.8628 34.4456 38.2711 35.6089 36.5186C36.0257 35.8906 36.409 35.2396 36.7593 34.5728L36.7598 34.5718L36.7623 34.5672C36.7635 34.5651 36.7654 34.5615 36.7675 34.5575M31.2702 41.0778L18.3904 14.6424C18.5551 13.9841 18.7425 13.3344 18.9541 12.6952C19.1017 12.2495 19.5784 12.0059 20.0252 12.1447M36.7675 34.5575C36.7673 34.5577 36.7672 34.558 36.767 34.5583L36.6785 34.5118L36.7679 34.5565C36.7678 34.5568 36.7676 34.5572 36.7675 34.5575ZM36.7675 34.5575C37.0132 34.088 36.8319 33.5081 36.3624 33.262C35.8927 33.0157 35.3124 33.1969 35.0662 33.6665C33.903 35.885 32.3341 37.9191 30.3046 39.3985L30.3635 39.4794M30.3635 39.4794L30.3046 39.3985C29.8275 39.7463 29.3271 40.0616 28.8044 40.334L28.8506 40.4227M30.3635 39.4794C32.4083 37.9888 33.9864 35.9414 35.1548 33.713C35.3754 33.2923 35.8952 33.1299 36.316 33.3506L27.8825 40.2258M30.3635 39.4794C29.8828 39.8298 29.3781 40.1477 28.8506 40.4227M28.8506 40.4227L28.8044 40.334C28.6089 40.4359 28.4883 40.4405 28.3782 40.4051C28.3188 40.386 28.2574 40.3536 28.185 40.3079C28.1392 40.2791 28.0927 40.2474 28.0409 40.2121C28.009 40.1904 27.975 40.1672 27.938 40.1425C26.0794 38.9036 24.5089 37.4194 23.255 35.5677C21.6827 33.2462 20.6267 30.5922 20.013 27.8591C19.8571 27.1646 19.7296 26.4636 19.6297 25.7586L19.5307 25.7726M28.8506 40.4227C28.4665 40.6229 28.29 40.5027 27.9824 40.2932C27.9506 40.2716 27.9174 40.249 27.8825 40.2258M19.5307 25.7726L19.6297 25.7586C19.3465 23.762 19.2835 21.7347 19.4245 19.723M19.5307 25.7726C19.631 26.4802 19.7589 27.1839 19.9154 27.881C20.5314 30.6243 21.5918 33.2903 23.1722 35.6238C24.4343 37.4875 26.0146 38.9805 27.8825 40.2258M19.5307 25.7726C19.2465 23.7688 19.1833 21.7345 19.3247 19.716L19.4245 19.7232C19.4245 19.7231 19.4245 19.7231 19.4245 19.723M19.4245 19.723C19.5049 18.5975 19.6521 17.4853 19.8646 16.3988L19.8647 16.3981L19.8653 16.3954L19.8653 16.395C20.0724 15.3372 20.3438 14.2906 20.6825 13.2677C20.8491 12.7642 20.5762 12.2211 20.0728 12.0542L20.0724 12.0541C20.0661 12.052 20.0604 12.0506 20.0578 12.0499C20.0549 12.0492 20.0544 12.0491 20.0544 12.0491L20.0545 12.0491L20.0252 12.1447M19.4245 19.723L27.8825 40.2258M20.0252 12.1447L20.0549 12.0492C19.5562 11.8943 19.024 12.1662 18.8591 12.6638L18.8591 12.6638C18.6505 13.294 18.4654 13.9341 18.3023 14.5827C16.8639 13.611 15.3311 12.7725 13.7258 12.1081C13.0956 11.8472 12.4529 11.6118 11.801 11.4086M20.0252 12.1447C20.0277 12.1455 20.0302 12.1461 20.0326 12.1467C20.0355 12.1475 20.0384 12.1482 20.0414 12.1491C20.4924 12.2987 20.7369 12.7852 20.5876 13.2362C20.2474 14.2633 19.9751 15.3141 19.7672 16.3758L11.801 11.4086M11.801 11.4086C12.4385 9.09302 13.4911 7.11348 14.8771 5.62015C16.9055 5.80837 19.01 6.58112 21.0293 7.88091C20.7964 8.27007 20.5758 8.66711 20.3674 9.06948L20.3672 9.06983L20.3618 9.07984L20.3616 9.08023L11.801 11.4086ZM20.3535 9.09526C20.1103 9.5663 20.295 10.1456 20.7662 10.3887L20.3535 9.09526Z" fill="#FF9D48" stroke="#FF9D48" stroke-width="0.2"/>
</svg>
