<svg width="102" height="103" viewBox="0 0 102 103" fill="none" xmlns="http://www.w3.org/2000/svg">
<rect y="0.477539" width="102" height="102" rx="51" fill="#B0CAC1" fill-opacity="0.2"/>
<path d="M79.2162 42.1782L79.2162 42.1782C79.474 42.2617 79.6848 42.4502 79.7957 42.6974C81.2066 45.8287 81.4068 49.6346 80.3842 53.7004C79.3563 57.7865 77.1727 61.7768 74.0712 65.2412C70.9699 68.7055 67.2446 71.3159 63.2969 72.7878C61.0026 73.6434 58.7502 74.0743 56.6228 74.0743C55.216 74.0743 53.8652 73.8835 52.5914 73.5048C51.3177 73.8834 49.9666 74.0743 48.5601 74.0743C46.4325 74.0743 44.1805 73.6433 41.8861 72.7878C37.9382 71.3158 34.213 68.7055 31.1116 65.2412L31.1861 65.1745L31.1116 65.2412C28.8396 62.7032 27.0735 59.9082 25.8633 56.9339C25.6633 56.4427 25.8995 55.8826 26.3907 55.6827C26.8817 55.4827 27.442 55.7189 27.6418 56.2101L27.5492 56.2478L27.6419 56.2101C28.7683 58.9785 30.4167 61.5862 32.5421 63.9606C35.4392 67.1966 38.9026 69.6263 42.5568 70.9887C45.1025 71.9379 47.638 72.3053 49.9134 72.0781C49.3771 71.7008 48.8698 71.2878 48.3865 70.8453C46.7551 69.3515 45.4487 67.5238 44.4249 65.5749C42.0589 61.0718 41.1719 55.859 41.4933 50.8133M79.2162 42.1782L41.5931 50.8196M79.2162 42.1782C76.8306 41.4065 74.0846 41.3221 71.2383 41.923C70.4691 39.1171 69.142 36.7185 67.3618 34.949C67.1695 34.7578 66.9056 34.6573 66.6349 34.6711L66.6348 34.6711C64.1295 34.8021 61.542 35.7031 59.0984 37.2793C57.3848 34.9323 55.3067 33.1819 52.9808 32.1506L52.9808 32.1506C52.7329 32.0408 52.4504 32.0408 52.2025 32.1506L52.2025 32.1506C49.9123 33.1659 47.8101 34.9464 46.0921 37.284C43.6464 35.705 41.0564 34.8022 38.5485 34.6711M79.2162 42.1782L26.9692 43.8817M41.4933 50.8133L41.5931 50.8196M41.4933 50.8133L41.4933 50.8134L41.5931 50.8196M41.4933 50.8133L41.4951 50.7863L41.4968 50.7606L41.4968 50.7604C41.5658 49.6982 41.6891 48.6509 41.868 47.6227M41.5931 50.8196L41.5966 50.7668C41.6668 49.6871 41.7932 48.6229 41.9772 47.5788M41.868 47.6227C41.8733 47.6266 41.8785 47.6304 41.8837 47.6343C41.8947 47.6423 41.906 47.6506 41.9185 47.6597L41.9772 47.5788M41.868 47.6227C41.8716 47.6023 41.8751 47.5818 41.8787 47.5614L41.9772 47.5788M41.868 47.6227C41.8595 47.6165 41.8508 47.6102 41.8417 47.6036L41.8416 47.6035C41.4594 47.3286 41.0688 47.0646 40.672 46.8108L40.7259 46.7266M41.9772 47.5788C41.9514 47.5601 41.9259 47.5409 41.9 47.5223C41.5163 47.2463 41.1241 46.9812 40.7259 46.7266M40.7259 46.7266L40.672 46.8108C38.7416 45.5761 36.6224 44.5772 34.4022 44.0062L34.4017 44.0061C34.3739 43.9988 34.3467 43.9915 34.3198 43.9843C34.2567 43.9675 34.1957 43.9512 34.1342 43.9361L34.1342 43.9361C31.5647 43.3026 29.0984 43.2867 26.9692 43.8817M40.7259 46.7266L26.9692 43.8817M26.9692 43.8817C25.9613 46.3775 25.8047 49.4012 26.5269 52.6617L26.4293 52.6833L26.5269 52.6617C26.6416 53.1795 26.3149 53.6921 25.7972 53.8068L25.797 53.8069C25.2797 53.921 24.7667 53.5948 24.652 53.0769C23.8031 49.245 24.0547 45.6548 25.3872 42.6973M25.3872 42.6973L25.4783 42.7384L25.3872 42.6973ZM25.3872 42.6973C25.4984 42.4502 25.7091 42.2616 25.967 42.1782C28.3527 41.4063 31.0986 41.3218 33.945 41.923C34.7141 39.1172 36.0413 36.7185 37.8214 34.949L37.8214 34.949C38.0136 34.758 38.2775 34.6568 38.5485 34.6711M38.5485 34.6711L38.5432 34.771L38.5485 34.6711C38.5485 34.6711 38.5485 34.6711 38.5485 34.6711ZM68.5906 42.6737L68.5907 42.6737L68.616 42.6648L68.6418 42.6557L68.6418 42.6557L68.6749 42.75C68.9513 42.653 69.2279 42.5603 69.5047 42.4756L68.5906 42.6737ZM68.5906 42.6737C67.5375 43.0442 66.513 43.4936 65.5231 44.0079C65.028 44.2652 64.5414 44.5388 64.0638 44.8272C64.0475 44.837 64.0066 44.8604 63.948 44.894C63.9097 44.9158 63.8639 44.9421 63.8125 44.9716C63.6837 45.0456 63.5224 45.1392 63.3652 45.2336C63.2084 45.3279 63.054 45.424 62.9396 45.5031C62.9164 45.5191 62.8943 45.5348 62.8739 45.5499C62.2856 43.2163 61.3905 40.9509 60.1548 38.8805C62.174 37.581 64.2785 36.8083 66.3067 36.6201C67.6926 38.1135 68.7452 40.0931 69.3828 42.4086L68.5906 42.6737ZM55.2702 72.0778C57.5452 72.3047 60.0806 71.9377 62.6262 70.9885C66.2803 69.626 69.7438 67.1964 72.6408 63.9604C75.5378 60.7244 77.5709 57.014 78.5222 53.232C79.3841 49.8058 79.2693 46.5064 78.2139 43.8812C74.7651 42.917 71.0206 43.6399 67.7842 45.0555C66.217 45.7415 64.7278 46.6063 63.3387 47.6056C63.3247 47.6158 63.3134 47.6241 63.3019 47.6325C63.2967 47.6363 63.2914 47.6402 63.2858 47.6443C63.284 47.6567 63.2827 47.6752 63.2825 47.7007C63.2819 47.7618 63.2877 47.848 63.2986 47.9538C63.3206 48.1645 63.3621 48.4409 63.4087 48.7242C63.4505 48.9782 63.496 49.2361 63.5347 49.4548L63.5476 49.5278C63.5881 49.7574 63.6202 49.9407 63.6262 50.0075C63.71 50.9242 63.7528 51.8447 63.7528 52.7653C63.7528 56.0037 63.2555 59.1179 62.2741 62.0208L62.1794 61.9887L62.2741 62.0208C62.1932 62.2601 62.0106 62.4654 61.7845 62.5756L61.7844 62.5756C61.5618 62.6839 61.2926 62.7023 61.057 62.6228L61.057 62.6228C60.5542 62.453 60.2846 61.9079 60.4545 61.4055C61.3685 58.7019 61.8323 55.7949 61.8323 52.7652C61.8323 50.9685 61.6649 49.1667 61.3205 47.4035C60.7751 44.6112 59.7972 41.9121 58.2817 39.5016C58.2346 39.4267 58.1867 39.3528 58.1384 39.2782C56.6067 36.9227 54.6848 35.1207 52.5921 34.0883C50.3666 35.1859 48.3387 37.1501 46.7637 39.7269C46.5232 40.1219 46.2954 40.5245 46.0822 40.9344C46.0822 40.9345 46.0822 40.9345 46.0822 40.9345L55.2702 72.0778ZM55.2702 72.0778C57.0002 70.8628 58.4456 69.2711 59.6089 67.5186C60.0257 66.8906 60.409 66.2396 60.7593 65.5728L60.7598 65.5718L60.7623 65.5672C60.7635 65.5651 60.7654 65.5615 60.7675 65.5575M55.2702 72.0778L42.3904 45.6424C42.5551 44.9841 42.7425 44.3344 42.9541 43.6952C43.1017 43.2495 43.5784 43.0059 44.0252 43.1447M60.7675 65.5575C60.7673 65.5577 60.7672 65.558 60.767 65.5583L60.6785 65.5118L60.7679 65.5565C60.7678 65.5568 60.7676 65.5572 60.7675 65.5575ZM60.7675 65.5575C61.0132 65.088 60.8319 64.5081 60.3624 64.262C59.8927 64.0157 59.3124 64.1969 59.0662 64.6665C57.903 66.885 56.3341 68.9191 54.3046 70.3985L54.3635 70.4794M54.3635 70.4794L54.3046 70.3985C53.8275 70.7463 53.3271 71.0616 52.8044 71.334L52.8506 71.4227M54.3635 70.4794C56.4083 68.9888 57.9864 66.9414 59.1548 64.713C59.3754 64.2923 59.8952 64.1299 60.316 64.3506L51.8825 71.2258M54.3635 70.4794C53.8828 70.8298 53.3781 71.1477 52.8506 71.4227M52.8506 71.4227L52.8044 71.334C52.6089 71.4359 52.4883 71.4405 52.3782 71.4051C52.3188 71.386 52.2574 71.3536 52.185 71.3079C52.1392 71.2791 52.0927 71.2474 52.0409 71.2121C52.009 71.1904 51.975 71.1672 51.938 71.1425C50.0794 69.9036 48.5089 68.4194 47.255 66.5677C45.6827 64.2462 44.6267 61.5922 44.013 58.8591C43.8571 58.1646 43.7296 57.4636 43.6297 56.7586L43.5307 56.7726M52.8506 71.4227C52.4665 71.6229 52.29 71.5027 51.9824 71.2932C51.9506 71.2716 51.9174 71.249 51.8825 71.2258M43.5307 56.7726L43.6297 56.7586C43.3465 54.762 43.2835 52.7347 43.4245 50.723M43.5307 56.7726C43.631 57.4802 43.7589 58.1839 43.9154 58.881C44.5314 61.6243 45.5918 64.2903 47.1722 66.6238C48.4343 68.4875 50.0146 69.9805 51.8825 71.2258M43.5307 56.7726C43.2465 54.7688 43.1833 52.7345 43.3247 50.716L43.4245 50.7232C43.4245 50.7231 43.4245 50.7231 43.4245 50.723M43.4245 50.723C43.5049 49.5975 43.6521 48.4853 43.8646 47.3988L43.8647 47.3981L43.8653 47.3954L43.8653 47.395C44.0724 46.3372 44.3438 45.2906 44.6825 44.2677C44.8491 43.7642 44.5762 43.2211 44.0728 43.0542L44.0724 43.0541C44.0661 43.052 44.0604 43.0506 44.0578 43.0499C44.0549 43.0492 44.0544 43.0491 44.0544 43.0491L44.0545 43.0491L44.0252 43.1447M43.4245 50.723L51.8825 71.2258M44.0252 43.1447L44.0549 43.0492C43.5562 42.8943 43.024 43.1662 42.8591 43.6638L42.8591 43.6638C42.6505 44.294 42.4654 44.9341 42.3023 45.5827C40.8639 44.611 39.3311 43.7725 37.7258 43.1081C37.0956 42.8472 36.4529 42.6118 35.801 42.4086M44.0252 43.1447C44.0277 43.1455 44.0302 43.1461 44.0326 43.1467C44.0355 43.1475 44.0384 43.1482 44.0414 43.1491C44.4924 43.2987 44.7369 43.7852 44.5876 44.2362C44.2474 45.2633 43.9751 46.3141 43.7672 47.3758L35.801 42.4086M35.801 42.4086C36.4385 40.093 37.4911 38.1135 38.8771 36.6201C40.9055 36.8084 43.01 37.5811 45.0293 38.8809C44.7964 39.2701 44.5758 39.6671 44.3674 40.0695L44.3672 40.0698L44.3618 40.0798L44.3616 40.0802L35.801 42.4086ZM44.3535 40.0953C44.1103 40.5663 44.295 41.1456 44.7662 41.3887L44.3535 40.0953Z" fill="#FF9D48" stroke="#FF9D48" stroke-width="0.2"/>
</svg>
