<svg width="40" height="40" viewBox="0 0 40 40" fill="none" xmlns="http://www.w3.org/2000/svg">
<rect x="0.702148" y="0.832031" width="39" height="39" rx="8.57588" fill="#CBE2D1"/>
<g clip-path="url(#clip0_12074_33901)">
<path d="M27.7272 33.331C26.3774 33.1847 25.2865 32.969 24.1955 32.969C21.5087 32.9652 18.8218 33.1078 16.1349 33.0984C14.7098 33.0928 13.2534 33.0496 11.8686 32.7495C9.93108 32.3292 9.07525 31.0235 9.2185 29.1869C9.3691 27.2677 10.6767 25.643 12.4343 25.5567C13.4903 25.5042 14.5959 25.8081 15.6262 26.1308C16.4582 26.3934 17.2865 26.8231 17.9807 27.3615C18.9944 28.1475 19.9274 28.0406 21.011 27.5791C22.3608 27.0032 23.7456 26.4947 25.1505 26.0858C25.9862 25.8419 26.8934 25.7274 27.7621 25.7593C29.8778 25.8363 31.2773 27.4947 31.1983 29.6859C31.1193 31.8658 29.5968 33.3517 27.7254 33.331H27.7272ZM22.4435 31.3931C20.2488 30.1793 18.0578 28.8848 15.7878 27.7536C14.8585 27.2902 13.7713 27.0238 12.7392 26.9525C11.6115 26.8756 10.7777 27.8755 10.6179 29.1174C10.471 30.2562 10.954 31.0685 12.1753 31.3987C13.0202 31.6257 13.9237 31.7364 14.7979 31.7176C17.3599 31.6576 19.9201 31.5075 22.4453 31.395L22.4435 31.3931ZM20.9816 29.0293C22.9393 29.9917 24.7355 30.9053 26.5592 31.7589C27.4297 32.1679 28.3131 32.0366 29.0422 31.3893C29.7695 30.7402 29.9697 29.8941 29.7364 28.928C29.3783 27.4365 27.9623 26.6786 26.2396 27.2058C24.5206 27.7311 22.8365 28.3802 20.9816 29.0311V29.0293Z" fill="#043A4E"/>
<path d="M19.977 22.3819C18.6345 24.363 16.3535 25.5449 12.7042 24.5712C12.4269 20.4458 15.617 15.0372 20.6198 15.4218C23.6556 15.6544 25.6023 17.5079 26.7814 20.1963C27.3066 21.3932 27.4701 22.7627 27.7309 24.0684C27.7749 24.286 27.4976 24.7813 27.3305 24.8001C25.3323 25.0233 23.3507 25.0365 21.628 23.7213C21.0679 23.2936 20.5316 22.8321 19.9751 22.38L19.977 22.3819ZM26.1808 23.4231C26.3296 21.4814 24.752 18.7067 22.8365 17.5586C20.9669 16.4367 19.0918 16.493 17.314 17.7162C15.3562 19.065 14.4104 21.0386 14.1129 23.4024C16.5683 23.757 18.0908 22.9709 19.2717 20.7778C19.4921 20.3707 19.6941 19.943 20.2102 20.1456C20.55 20.2788 20.9375 20.5358 21.1009 20.8491C22.1882 22.9203 23.8741 23.8001 26.179 23.4231H26.1808Z" fill="#043A4E"/>
<path d="M23.7509 11.0804C23.7546 13.1797 22.166 14.8381 20.1329 14.855C18.1072 14.8718 16.4598 13.2153 16.4396 11.1423C16.4194 9.00547 18.0393 7.32642 20.1182 7.33205C22.1623 7.33767 23.7473 8.9717 23.7509 11.0804ZM17.8097 11.0072C17.7785 12.3617 18.7482 13.3916 20.0668 13.4048C21.3634 13.4179 22.346 12.4649 22.3845 11.1573C22.4213 9.85531 21.4644 8.78973 20.2174 8.74095C18.9135 8.69217 17.8391 9.70336 17.8097 11.0053V11.0072Z" fill="#043A4E"/>
</g>
<defs>
<clipPath id="clip0_12074_33901">
<rect width="22" height="26" fill="white" transform="translate(9.20215 7.33203)"/>
</clipPath>
</defs>
</svg>
