<svg width="202" height="202" viewBox="0 0 202 202" fill="none" xmlns="http://www.w3.org/2000/svg">
<g style="mix-blend-mode:multiply">
<path d="M101.441 15.5475C93.5589 14.725 85.8192 16.9144 78.766 20.3167C72.3636 23.4055 66.3636 27.4114 60.9376 31.9972C50.7483 40.6066 42.2098 51.7723 38.2808 64.6421C34.34 77.5474 35.9435 91.1687 42.2098 103.062C48.7838 115.547 59.5175 125.518 71.5766 132.636C84.7778 140.429 99.8369 145.044 115.139 145.967C129.151 146.814 144.139 144.571 155.902 136.435C166.63 129.015 172.926 117.127 174.606 104.334C176.346 91.1154 173.275 77.8314 166.707 66.3107C159.73 54.08 149.369 44.0741 137.943 35.9972C125.506 27.1984 111.044 19.4646 95.5825 18.3463C91.8547 18.0741 88.1328 18.2516 84.4464 18.8493C83.8784 18.9439 84.1151 19.8078 84.6831 19.7191C100.411 17.1688 115.949 23.3463 129.192 31.3522C140.908 38.435 151.861 47.2398 160.21 58.1747C168.292 68.7604 173.653 81.3107 174.145 94.719C174.606 107.234 171.003 120.198 162.434 129.571C152.932 139.967 138.701 144.388 124.973 145.121C110.216 145.908 95.1861 142.879 81.7127 136.867C57.5234 126.068 34.2335 102.867 37.2039 74.3166C38.5767 61.1214 45.4287 49.0445 54.3636 39.4765C58.9021 34.6126 64.0323 30.3108 69.5707 26.6303C75.837 22.4706 82.7068 18.867 90.0796 17.1806C93.8133 16.3286 97.618 16.0504 101.429 16.4469C102.003 16.5061 102.003 15.6067 101.429 15.5475H101.441Z" fill="#E9FBFF"/>
<path d="M107.412 149.002C99.3583 151.795 90.6068 150.547 82.3938 149.216C74.5299 147.937 66.7371 146.103 59.24 143.381C45.0803 138.233 31.962 129.594 23.459 116.943C15.5833 105.227 12.9206 91.1209 16.3643 77.3931C19.7075 64.0736 27.9501 52.1565 38.53 43.5174C62.8495 23.6594 97.5595 22.3044 127.341 26.0381C136.033 27.1269 144.654 28.8192 153.074 31.2334C160.127 33.2571 167.453 35.6772 173.24 40.3576C179.346 45.2985 182.335 52.5056 182.092 60.3103C181.838 68.4227 178.293 75.9079 173.761 82.4819C165.287 94.7718 154.145 105.6 142.406 114.748C130.589 123.961 117.536 131.612 103.707 137.369C100.382 138.754 97.0092 140.026 93.6009 141.192C93.0565 141.381 93.2873 142.251 93.8376 142.062C123.051 132.05 149.394 113.937 169.062 90.115C178.465 78.7304 187.713 62.9079 180.553 47.9849C177.471 41.5588 171.453 37.3221 165.11 34.4937C157.494 31.0973 149.199 29.0322 141.056 27.3754C124.483 24.0026 107.169 22.6713 90.2932 24.0441C74.7607 25.3044 59.2341 29.1802 45.814 37.2985C22.2342 51.5529 6.30519 81.6594 17.8436 108.547C23.672 122.127 35.0448 132.707 48.0034 139.452C55.246 143.221 63.0152 145.908 70.9382 147.837C79.027 149.807 87.5654 151.434 95.9145 151.571C99.9027 151.636 103.873 151.186 107.654 149.878C108.199 149.689 107.962 148.819 107.417 149.008L107.412 149.002Z" fill="#E9FBFF"/>
<path d="M41.2299 67.5949C42.9885 65.8364 42.9885 62.9852 41.2299 61.2267C39.4714 59.4682 36.6203 59.4682 34.8618 61.2267C33.1033 62.9852 33.1033 65.8364 34.8618 67.5949C36.6203 69.3534 39.4714 69.3534 41.2299 67.5949Z" fill="#E9FBFF"/>
<path d="M47.9552 15.4463C47.9552 16.9374 46.7421 18.1504 45.251 18.1504C43.7599 18.1504 42.5469 16.9374 42.5469 15.4463C42.5469 13.9552 43.7599 12.7422 45.251 12.7422C46.7421 12.7422 47.9552 13.9552 47.9552 15.4463Z" fill="#E9FBFF"/>
<path d="M33.5411 105.861C33.5411 107.352 32.3281 108.565 30.837 108.565C29.3458 108.565 28.1328 107.352 28.1328 105.861C28.1328 104.37 29.3458 103.157 30.837 103.157C32.3281 103.157 33.5411 104.37 33.5411 105.861Z" fill="#E9FBFF"/>
<path d="M147.388 62.1562C147.388 63.3988 146.382 64.4107 145.133 64.4107C143.885 64.4107 142.879 63.4047 142.879 62.1562C142.879 60.9077 143.885 59.9018 145.133 59.9018C146.382 59.9018 147.388 60.9077 147.388 62.1562Z" fill="#E9FBFF"/>
<path d="M69.5889 60.955C69.5889 61.5349 69.1156 62.0083 68.5357 62.0083C67.9558 62.0083 67.4824 61.5349 67.4824 60.955C67.4824 60.3752 67.9558 59.9018 68.5357 59.9018C69.1156 59.9018 69.5889 60.3752 69.5889 60.955Z" fill="#E9FBFF"/>
<path d="M137.772 1.77833C137.772 2.68957 137.033 3.42921 136.122 3.42921C135.21 3.42921 134.471 2.68957 134.471 1.77833C134.471 0.867086 135.21 0.127441 136.122 0.127441C137.033 0.127441 137.772 0.867086 137.772 1.77833Z" fill="#E9FBFF"/>
<path d="M137.772 135.755C137.772 136.666 137.033 137.405 136.122 137.405C135.21 137.405 134.471 136.666 134.471 135.755C134.471 134.843 135.21 134.104 136.122 134.104C137.033 134.104 137.772 134.843 137.772 135.755Z" fill="#E9FBFF"/>
<path d="M201.76 99.2578C201.76 101.412 200.014 103.163 197.855 103.163C195.695 103.163 193.949 101.418 193.949 99.2578C193.949 97.098 195.695 95.3525 197.855 95.3525C200.014 95.3525 201.76 97.098 201.76 99.2578Z" fill="#E9FBFF"/>
<path d="M7.7071 134.701C10.0306 134.701 11.9142 132.817 11.9142 130.493C11.9142 128.17 10.0306 126.286 7.7071 126.286C5.38358 126.286 3.5 128.17 3.5 130.493C3.5 132.817 5.38358 134.701 7.7071 134.701Z" fill="#E9FBFF"/>
<path d="M3.80177 37.5239C3.80177 38.4352 3.06213 39.1748 2.15089 39.1748C1.23964 39.1748 0.5 38.4352 0.5 37.5239C0.5 36.6127 1.23964 35.873 2.15089 35.873C3.06213 35.873 3.80177 36.6127 3.80177 37.5239Z" fill="#E9FBFF"/>
<path d="M142.576 32.9362C145.23 32.9362 147.381 30.785 147.381 28.1314C147.381 25.4779 145.23 23.3267 142.576 23.3267C139.923 23.3267 137.771 25.4779 137.771 28.1314C137.771 30.785 139.923 32.9362 142.576 32.9362Z" fill="#E9FBFF"/>
<path d="M129.665 189.369C131.489 189.369 132.967 187.891 132.967 186.067C132.967 184.244 131.489 182.765 129.665 182.765C127.842 182.765 126.363 184.244 126.363 186.067C126.363 187.891 127.842 189.369 129.665 189.369Z" fill="#E9FBFF"/>
<path d="M175.026 51.1917C177.183 51.1917 178.932 49.4432 178.932 47.2864C178.932 45.1295 177.183 43.381 175.026 43.381C172.87 43.381 171.121 45.1295 171.121 47.2864C171.121 49.4432 172.87 51.1917 175.026 51.1917Z" fill="#E9FBFF"/>
<path d="M64.4278 119.132L67.5165 116.606C66.1437 113.464 62.842 112.931 60.984 112.902L57.8242 114.546C58.7355 119.132 64.4278 119.132 64.4278 119.132Z" fill="#2E2E2E"/>
<path d="M90.0976 115.906C90.0976 115.906 85.0502 112.818 81.6834 116.747C81.6834 116.747 78.5946 114.22 73.2692 118.149L71.3047 118.989C71.3047 118.989 76.636 123.196 82.5236 120.113C82.5236 120.113 91.7839 121.516 92.062 118.989C92.3402 116.463 90.0976 115.9 90.0976 115.9V115.906Z" fill="#2E2E2E"/>
<path d="M106.233 58.818C106.233 58.818 122.505 51.8062 125.588 38.0606C128.677 24.3151 116.89 9.16718 116.89 9.16718C116.89 9.16718 68.0733 50.9659 78.736 59.6642C84.233 64.1494 106.227 62.1908 106.227 62.1908" fill="#2E2E2E"/>
<mask id="mask0_2623_31998" style="mask-type:luminance" maskUnits="userSpaceOnUse" x="77" y="9" width="50" height="54">
<path d="M106.233 58.8178C106.233 58.8178 122.505 51.806 125.588 38.0605C128.677 24.3149 116.89 9.16702 116.89 9.16702C116.89 9.16702 68.0733 50.9658 78.736 59.664C84.233 64.1492 106.227 62.1906 106.227 62.1906" fill="white"/>
</mask>
<g mask="url(#mask0_2623_31998)">
<g style="mix-blend-mode:multiply" opacity="0.22">
<path d="M86.8728 43.3865C86.8728 43.3865 92.2042 56.8539 102.021 56.2918C111.837 55.7297 118.749 43.203 119.364 36.8421C119.979 30.4812 85.7485 36.3747 86.8728 43.3865Z" fill="#1D3542"/>
</g>
</g>
<path d="M87.434 126.428C87.434 126.428 76.7713 142.7 76.2151 145.227C76.2151 145.227 40.0258 147.191 31.6116 150.836C23.1974 154.481 20.1087 165.422 27.4045 171.037C34.7004 176.653 83.2328 178.611 96.7003 173.842C96.7003 173.842 166.274 183.102 178.055 169.635C189.836 156.167 156.736 142.984 128.682 144.386C128.682 144.386 118.866 125.031 113.535 122.505C108.203 119.978 87.4459 126.434 87.4459 126.434L87.434 126.428Z" fill="#FF9D48"/>
<mask id="mask1_2623_31998" style="mask-type:luminance" maskUnits="userSpaceOnUse" x="23" y="121" width="158" height="56">
<path d="M87.434 126.429C87.434 126.429 76.7713 142.701 76.2151 145.228C76.2151 145.228 40.0258 147.192 31.6116 150.837C23.1974 154.482 20.1087 165.423 27.4045 171.038C34.7004 176.654 83.2328 178.612 96.7003 173.843C96.7003 173.843 166.274 183.103 178.055 169.636C189.836 156.168 156.736 142.985 128.682 144.387C128.682 144.387 118.866 125.032 113.535 122.506C108.203 119.979 87.4459 126.435 87.4459 126.435L87.434 126.429Z" fill="white"/>
</mask>
<g mask="url(#mask1_2623_31998)">
<g style="mix-blend-mode:multiply" opacity="0.23">
<path d="M101.345 174.399C101.345 174.399 87.4338 173.275 74.8066 164.299C74.8066 164.299 82.6646 175.239 91.6409 176.926C100.617 178.606 101.345 174.399 101.345 174.399Z" fill="#D25A5C"/>
</g>
<g style="mix-blend-mode:multiply" opacity="0.23">
<path d="M48.4408 151.677C47.9082 152.263 45.0739 153.642 47.8787 154.766C50.6834 155.89 66.1153 164.305 70.0443 163.18C73.9733 162.056 51.2455 148.595 48.4408 151.677Z" fill="#D25A5C"/>
</g>
<g style="mix-blend-mode:multiply" opacity="0.23">
<path d="M131.441 161.737C132.045 161.778 144.11 158.69 149.435 156.447C154.767 154.204 155.885 152.518 157.293 152.518C158.702 152.518 158.418 149.713 154.489 149.991C150.56 150.269 134.288 157.287 134.288 157.287L131.441 162.145" fill="#D25A5C"/>
</g>
<g style="mix-blend-mode:multiply" opacity="0.23">
<path d="M127.553 154.766C127.553 154.766 114.647 157.571 112.683 157.293C110.718 157.015 116.612 144.95 130.357 143.825C130.357 143.825 116.89 143.547 107.914 153.642C98.9374 163.742 91.3634 151.115 85.748 148.31C85.748 148.31 94.7658 159.683 95.1682 161.151C95.1682 161.151 109.127 159.358 113.15 160.003C113.15 160.003 123.346 160.092 128.251 154.624L127.547 154.766H127.553Z" fill="#D25A5C"/>
</g>
<path d="M79.4826 160.186C83.5714 162.02 88.0862 162.014 92.4649 161.63C97.382 161.198 102.276 160.594 107.21 160.364C112.346 160.121 117.5 160.156 122.625 160.583C124.175 160.713 125.713 160.837 127.222 161.204C128.56 161.529 129.885 161.908 131.204 162.293C133.956 163.097 136.743 163.884 139.417 164.926C139.672 165.026 139.778 164.618 139.53 164.517C137.24 163.63 134.855 162.943 132.506 162.239C130.157 161.535 127.79 160.701 125.376 160.429C115.275 159.287 105.133 159.861 95.0625 160.949C89.9442 161.5 84.524 161.991 79.6956 159.825C79.453 159.713 79.2341 160.08 79.4826 160.186Z" fill="#AA353B"/>
<path d="M75.5888 165.529C82.9261 169.819 90.9498 172.866 99.287 174.535C99.5533 174.588 99.6657 174.18 99.3995 174.127C91.0977 172.47 83.1095 169.434 75.8018 165.162C75.5652 165.026 75.3581 165.387 75.5888 165.523V165.529Z" fill="#AA353B"/>
<path d="M61.1455 156.748C56.8496 155.677 52.2698 154.665 47.9561 156.239C47.7017 156.334 47.8141 156.736 48.0686 156.647C52.3112 155.097 56.8023 156.103 61.0331 157.156C61.2934 157.221 61.4058 156.813 61.1455 156.748Z" fill="#AA353B"/>
<g style="mix-blend-mode:multiply" opacity="0.49">
<path d="M94.6767 160.831C93.1146 158.571 91.5465 156.304 89.9844 154.044L94.6767 160.831Z" fill="#D25A5C"/>
</g>
<path d="M131.057 143.47C129.134 143.559 127.222 144.009 125.388 144.565C123.554 145.121 121.719 145.819 120.021 146.742C119.784 146.873 119.997 147.234 120.234 147.103C121.903 146.198 123.69 145.518 125.5 144.967C127.311 144.417 129.169 143.973 131.057 143.884C131.329 143.873 131.329 143.452 131.057 143.464V143.47Z" fill="#AA353B"/>
<path d="M74.8077 145.169C77.7781 145.281 80.6301 146.565 82.6893 148.707C82.8786 148.903 83.1745 148.607 82.9852 148.412C80.8491 146.187 77.8846 144.867 74.8077 144.749C74.5355 144.737 74.5355 145.157 74.8077 145.169Z" fill="#AA353B"/>
<path d="M126.068 156.452C122.506 158.275 118.837 159.689 114.79 159.742C114.518 159.742 114.518 160.168 114.79 160.162C118.914 160.109 122.66 158.671 126.281 156.819C126.524 156.695 126.311 156.334 126.068 156.458V156.452Z" fill="#AA353B"/>
</g>
<path d="M75.2808 71.5057C75.3045 72.0678 74.0915 76.056 72.8903 86.4998C71.695 96.9495 65.624 111.275 65.7009 112.955C65.7779 114.636 61.9199 116.222 58.8844 123.387C55.8489 130.553 49.3459 135.63 47.7305 137.109C47.7305 137.109 44.3164 136.145 40.6832 136.594C37.056 137.044 33.6359 136.08 33.0264 134.985C33.0264 134.985 31.411 136.464 32.8785 137.801C34.3459 139.139 37.6536 137.861 38.5767 139.5C39.4939 141.145 37.3696 143.766 35.3696 143.02C33.3696 142.269 32.7424 140.896 32.4229 140.068C32.1033 139.239 33.3459 135.813 30.7838 135.091C30.7838 135.091 30.0205 139.76 30.3519 140.867C30.3519 140.867 26.8075 137.103 24.9199 138.872C24.9199 138.872 28.4288 141.796 28.7483 142.624C28.7483 142.624 25.8785 141.352 25.1211 143.074C25.1211 143.074 27.7247 144.636 28.8548 144.867C29.9909 145.097 30.843 145.334 31.4406 146.151C31.4406 146.151 28.3341 145.736 28.1329 147.429C28.1329 147.429 31.2158 147.287 32.6418 147.778C34.0678 148.275 39.4169 148.583 41.3282 147.37C43.2394 146.156 69.5234 131.73 75.3518 118.257C75.3518 118.257 82.3755 94.34 82.3932 88.7187" fill="#FDBCA0"/>
<mask id="mask2_2623_31998" style="mask-type:luminance" maskUnits="userSpaceOnUse" x="24" y="71" width="59" height="78">
<path d="M75.2808 71.5067C75.3045 72.0688 74.0915 76.0569 72.8903 86.5007C71.695 96.9504 65.624 111.276 65.7009 112.956C65.7779 114.637 61.9199 116.223 58.8844 123.388C55.8489 130.554 49.3459 135.631 47.7305 137.11C47.7305 137.11 44.3164 136.146 40.6832 136.595C37.056 137.045 33.6359 136.081 33.0264 134.986C33.0264 134.986 31.411 136.465 32.8785 137.802C34.3459 139.14 37.6536 137.862 38.5767 139.501C39.4939 141.146 37.3696 143.767 35.3696 143.021C33.3696 142.27 32.7424 140.897 32.4229 140.069C32.1033 139.24 33.3459 135.814 30.7838 135.092C30.7838 135.092 30.0205 139.761 30.3519 140.868C30.3519 140.868 26.8075 137.104 24.9199 138.873C24.9199 138.873 28.4288 141.797 28.7483 142.625C28.7483 142.625 25.8785 141.353 25.1211 143.075C25.1211 143.075 27.7247 144.637 28.8548 144.868C29.9909 145.098 30.843 145.335 31.4406 146.152C31.4406 146.152 28.3341 145.737 28.1329 147.43C28.1329 147.43 31.2158 147.288 32.6418 147.779C34.0678 148.276 39.4169 148.583 41.3282 147.37C43.2394 146.157 69.5234 131.731 75.3518 118.258C75.3518 118.258 82.3755 94.3409 82.3932 88.7196" fill="white"/>
</mask>
<g mask="url(#mask2_2623_31998)">
<g style="mix-blend-mode:multiply" opacity="0.21">
<path d="M70.0371 99.5005C70.0371 99.5005 75.9306 111.566 83.5045 116.335C91.0785 121.104 79.8596 90.8082 70.0371 99.5005Z" fill="#D18161"/>
</g>
</g>
<path d="M131.198 72.5644C131.169 73.1265 131.885 74.7833 133.009 85.2389C134.133 95.6945 140.092 110.067 140.003 111.748C139.914 113.428 143.761 115.044 146.743 122.227C149.725 129.41 156.192 134.541 157.796 136.032C157.796 136.032 161.216 135.091 164.843 135.57C168.471 136.05 171.891 135.109 172.512 134.02C172.512 134.02 174.116 135.511 172.642 136.836C171.163 138.162 167.867 136.86 166.932 138.493C166.003 140.126 168.104 142.771 170.11 142.038C172.116 141.304 172.755 139.931 173.08 139.109C173.406 138.286 172.187 134.848 174.755 134.144C174.755 134.144 175.482 138.819 175.145 139.925C175.145 139.925 178.719 136.186 180.589 137.973C180.589 137.973 177.062 140.872 176.737 141.7C176.737 141.7 179.613 140.452 180.364 142.18C180.364 142.18 177.755 143.724 176.619 143.943C175.482 144.162 174.624 144.399 174.021 145.209C174.021 145.209 177.133 144.813 177.323 146.511C177.323 146.511 174.24 146.345 172.808 146.831C171.376 147.316 166.027 147.588 164.121 146.363C162.222 145.138 136.039 130.517 130.311 117.002C130.311 117.002 123.459 93.0318 123.482 87.4164" fill="#FDBCA0"/>
<mask id="mask3_2623_31998" style="mask-type:luminance" maskUnits="userSpaceOnUse" x="123" y="72" width="58" height="76">
<path d="M131.198 72.5644C131.169 73.1265 131.885 74.7833 133.009 85.2389C134.133 95.6945 140.092 110.067 140.003 111.748C139.914 113.428 143.761 115.044 146.743 122.227C149.725 129.41 156.192 134.541 157.796 136.032C157.796 136.032 161.216 135.091 164.843 135.57C168.471 136.05 171.891 135.109 172.512 134.02C172.512 134.02 174.116 135.511 172.642 136.836C171.163 138.162 167.867 136.86 166.932 138.493C166.003 140.126 168.104 142.771 170.11 142.038C172.116 141.304 172.755 139.931 173.08 139.109C173.406 138.286 172.187 134.848 174.755 134.144C174.755 134.144 175.482 138.819 175.145 139.925C175.145 139.925 178.719 136.186 180.589 137.973C180.589 137.973 177.062 140.872 176.737 141.7C176.737 141.7 179.613 140.452 180.364 142.18C180.364 142.18 177.755 143.724 176.619 143.943C175.482 144.162 174.624 144.399 174.021 145.209C174.021 145.209 177.133 144.813 177.323 146.511C177.323 146.511 174.24 146.345 172.808 146.831C171.376 147.316 166.027 147.588 164.121 146.363C162.222 145.138 136.039 130.517 130.311 117.002C130.311 117.002 123.459 93.0318 123.482 87.4164" fill="white"/>
</mask>
<g mask="url(#mask3_2623_31998)">
<g style="mix-blend-mode:multiply" opacity="0.21">
<path d="M130.358 121.937C130.358 121.937 135.689 112.96 140.458 111.836C145.228 110.712 127.831 100.617 130.358 121.937Z" fill="#D18161"/>
</g>
</g>
<path d="M86.8723 127.552L81.5409 89.398L74.8664 73.6584C74.8664 73.6584 73.5646 69.6703 88.5528 62.4632C103.707 55.1792 130.352 63.8655 131.328 73.4572C132.405 84.0312 124.742 87.4276 124.742 87.4276L118.849 127.546C118.849 127.546 105.103 134.558 86.8664 127.546L86.8723 127.552Z" fill="#FDBCA0"/>
<mask id="mask4_2623_31998" style="mask-type:luminance" maskUnits="userSpaceOnUse" x="74" y="59" width="58" height="72">
<path d="M86.8723 127.552L81.541 89.3979L74.8664 73.6583C74.8664 73.6583 73.5646 69.6701 88.5528 62.463C103.707 55.179 130.352 63.8654 131.328 73.4571C132.405 84.0311 124.742 87.4275 124.742 87.4275L118.849 127.546C118.849 127.546 105.103 134.558 86.8664 127.546L86.8723 127.552Z" fill="white"/>
</mask>
<g mask="url(#mask4_2623_31998)">
<g style="mix-blend-mode:multiply" opacity="0.21">
<path d="M83.506 116.327C83.4291 116.948 109.37 134.262 121.826 124.735C134.281 115.209 86.0267 96.1317 83.506 116.327Z" fill="#D18161"/>
</g>
</g>
<path d="M90.1497 62.422C89.6823 63.8244 98.0551 53.7474 97.2622 39.1794H106.73C106.73 39.1794 106.741 57.3155 116.327 62.9782C116.327 62.9782 101.244 76.9723 90.1497 62.4279V62.422Z" fill="#FDBCA0"/>
<mask id="mask5_2623_31998" style="mask-type:luminance" maskUnits="userSpaceOnUse" x="90" y="39" width="27" height="31">
<path d="M90.1497 62.422C89.6823 63.8244 98.0551 53.7474 97.2622 39.1794H106.73C106.73 39.1794 106.741 57.3155 116.327 62.9782C116.327 62.9782 101.244 76.9723 90.1497 62.4279V62.422Z" fill="white"/>
</mask>
<g mask="url(#mask5_2623_31998)">
<g style="mix-blend-mode:multiply" opacity="0.34">
<path d="M101.884 56.298C106.61 56.298 110.441 53.2197 110.441 49.4223C110.441 45.6249 106.61 42.5466 101.884 42.5466C97.1589 42.5466 93.3281 45.6249 93.3281 49.4223C93.3281 53.2197 97.1589 56.298 101.884 56.298Z" fill="#D18161"/>
</g>
</g>
<path d="M79.0207 160.09C79.0207 160.09 77.8964 157.002 76.7781 153.641C75.6598 150.28 70.8846 149.996 67.2396 151.96C63.5947 153.925 56.0207 149.434 53.2101 149.155C50.4054 148.877 46.4764 149.155 47.3166 151.398C48.2988 154.025 51.8077 151.676 53.2101 153.362C54.6124 155.043 70.8846 165.706 75.6538 165.706C75.6538 165.706 79.0207 164.865 79.0207 160.096V160.09Z" fill="#FDBCA0"/>
<path d="M126.523 156.025C126.523 156.025 127.937 153.06 129.381 149.818C130.825 146.575 135.594 146.753 139.038 149.06C142.482 151.368 150.452 147.629 153.269 147.617C156.085 147.605 159.973 148.268 158.914 150.415C157.683 152.936 154.417 150.262 152.86 151.8C151.304 153.339 134.079 162.386 129.334 161.924C129.334 161.924 126.062 160.765 126.523 156.013V156.025Z" fill="#FDBCA0"/>
<path d="M76.4442 70.3504C76.7815 70.3682 123.403 87.5279 132.207 78.6403C132.207 78.6403 133.971 92.8829 135.965 98.3681C138.207 104.54 140.456 111.552 140.456 111.836C140.456 111.836 137.367 111.273 127.829 120.812C114.935 133.705 86.9886 122.001 69.9531 99.3859C69.9531 99.3859 71.9058 70.1019 76.4383 70.3504H76.4442Z" fill="#4EA692"/>
<mask id="mask6_2623_31998" style="mask-type:luminance" maskUnits="userSpaceOnUse" x="69" y="70" width="72" height="57">
<path d="M76.4442 70.3497C76.7815 70.3675 123.403 87.5272 132.207 78.6396C132.207 78.6396 133.971 92.8822 135.965 98.3674C138.207 104.539 140.456 111.551 140.456 111.835C140.456 111.835 137.367 111.273 127.829 120.811C114.935 133.705 86.9886 122.001 69.9531 99.3852C69.9531 99.3852 71.9058 70.1012 76.4383 70.3497H76.4442Z" fill="white"/>
</mask>
<g mask="url(#mask6_2623_31998)">
<path d="M67.5519 83.9533C72.9366 81.332 80.0549 85.4385 85.4868 82.9001C86.0904 82.6161 86.6703 82.2551 87.333 82.1249C87.9306 82.0125 88.5519 82.0954 89.1495 82.1841L106.682 84.7107C108.25 84.9356 109.824 85.1604 111.41 85.1664C113.493 85.1723 115.629 84.8113 117.617 85.3853C118.558 85.6575 119.416 86.1368 120.345 86.4504C122.771 87.2788 125.463 86.9652 128.025 86.6456C131.516 86.2078 135.007 85.764 138.499 85.3261C139.493 85.2019 140.889 85.3498 140.966 86.2729C141.049 87.2669 139.534 87.5332 138.451 87.5273C135.226 87.5214 132.084 88.4208 128.883 88.7462C126.576 88.977 124.25 88.906 121.931 88.8232C110.789 88.4445 99.6525 87.9238 88.5223 87.261C86.3744 87.1309 84.2206 87.0007 82.1022 86.6575C81.3507 86.5332 80.5697 86.3912 79.83 86.5569C79.2146 86.6989 78.6762 87.048 78.0667 87.2255C75.7235 87.9178 73.3567 85.9297 70.9011 86.0776C69.8182 86.1427 68.7768 86.622 67.694 86.5332C66.6111 86.4445 65.546 85.2906 66.2088 84.4977" fill="#FCEBE6"/>
<path d="M65.5097 92.8055C65.7523 91.6044 67.486 91.1842 68.7523 91.5511C70.0186 91.918 71.0482 92.7819 72.2789 93.2375C76.0659 94.6339 80.1902 91.8588 84.2671 92.0422C87.0245 92.1665 89.6399 93.6458 92.3795 93.3381C93.1901 93.2434 93.9653 93.0008 94.7759 92.9002C96.4801 92.6931 98.1842 93.1665 99.8588 93.5333C105.379 94.7404 111.101 94.841 116.776 94.9298C120.243 94.983 123.717 95.0422 127.184 95.0955C130.314 95.1428 133.498 95.1902 136.516 94.4209C137.681 94.1251 138.835 93.7049 140.042 93.6872C141.249 93.6754 142.575 94.1901 143.007 95.2316C139.521 95.6872 136.03 96.1487 132.545 96.6044C130.847 96.8292 129.149 97.0481 127.433 97.1014C124.823 97.1842 122.214 96.8706 119.604 96.7582C111.504 96.415 103.332 98.0245 95.3203 96.8588C93.2138 96.5511 91.1073 96.054 88.983 96.1901C87.1487 96.3085 85.3617 96.8884 83.5274 96.8351C82.1606 96.7937 80.8351 96.3972 79.5156 96.0718C74.8825 94.9239 70.0245 94.5748 65.2553 95.0481L63.5156 92.5038C64.2198 92.4742 64.9239 92.4446 65.628 92.415" fill="#FCEBE6"/>
<path d="M65.5399 101.9C68.0074 100.409 71.2737 100.769 74.0902 101.574C76.9068 102.379 79.6701 103.574 82.6228 103.586C85.3861 103.604 88.0429 102.574 90.8062 102.444C95.1908 102.237 99.5044 104.302 103.848 103.716C105.682 103.468 107.427 102.758 109.28 102.627C110.646 102.533 112.019 102.758 113.368 102.988C116.078 103.444 118.788 103.9 121.493 104.355C122.327 104.497 123.173 104.639 124.019 104.586C125.12 104.521 126.161 104.13 127.191 103.781C129.788 102.894 132.457 102.184 135.167 101.663C136.629 101.385 138.232 101.172 139.558 101.805C140.066 102.048 140.516 102.409 141.066 102.562C142.143 102.858 143.244 102.284 144.339 102.048C145.433 101.811 146.96 102.261 146.901 103.296C143.806 104.314 140.404 103.799 137.126 103.947C133.64 104.101 130.256 105.006 126.818 105.545C121.451 106.391 115.919 106.337 110.569 105.397C108.735 105.077 106.913 104.645 105.049 104.58C102.836 104.497 100.646 104.923 98.4571 105.184C92.9837 105.835 87.4334 105.462 81.9245 105.089L72.8654 104.474C70.5281 104.314 68.179 104.154 65.9068 103.633C65.4216 103.521 64.895 103.367 64.6287 102.977C64.3624 102.586 64.5873 101.923 65.0843 101.923" fill="#FCEBE6"/>
<path d="M75.7167 111.895C77.8232 111.007 80.2966 111.327 82.5096 111.954C84.7226 112.575 86.8646 113.486 89.1664 113.753C95.6989 114.504 102.492 109.972 108.569 112.309C109.634 112.717 110.669 113.338 111.823 113.291C112.687 113.256 113.48 112.847 114.308 112.617C116.681 111.966 119.202 112.841 121.492 113.705C122.344 114.025 123.279 114.35 124.155 114.096C124.805 113.907 125.308 113.433 125.93 113.167C127.326 112.575 128.936 113.167 130.456 113.368C132.711 113.676 134.983 113.12 137.237 112.812C139.492 112.504 141.977 112.492 143.829 113.717C142.456 114.688 140.657 114.936 138.93 115.049C133.196 115.409 127.314 114.54 121.752 115.895C120.865 116.108 119.977 116.386 119.066 116.356C118.066 116.327 117.125 115.936 116.178 115.628C112.592 114.463 108.711 114.433 104.912 114.421C103.344 114.415 101.776 114.409 100.214 114.563C96.5984 114.924 93.0777 116.143 89.4504 116.019C85.0658 115.865 80.9534 113.747 76.5629 113.705C75.9297 113.699 75.267 113.735 74.6812 113.498C74.0954 113.267 73.628 112.658 73.8351 112.108C74.0422 111.557 75.1132 111.48 75.2493 112.049" fill="#FCEBE6"/>
<path d="M67.2723 77.3675C68.4084 75.4267 71.1185 74.7048 73.5031 74.9001C75.8877 75.0953 78.1303 75.9947 80.4617 76.4977C82.8759 77.0184 85.3966 77.1012 87.8463 76.7462C89.154 76.5569 90.4735 76.2433 91.7812 76.4267C93.0356 76.5983 94.1658 77.2137 95.3788 77.5391C99.6983 78.6989 104.083 76.1841 108.539 75.622C111.521 75.2433 114.55 75.7521 117.509 76.2788C124.74 77.5628 132.13 78.9651 139.42 77.9829C139.379 79.6219 137.047 80.1841 135.272 80.2432C128.237 80.4622 121.184 80.2314 114.178 79.5569C110.663 79.2196 107.142 78.7699 103.615 78.9592C101.142 79.0953 98.6865 79.545 96.2131 79.4563C92.0474 79.3024 88.0652 77.6338 83.8995 77.5687C81.7575 77.5332 79.6333 77.9296 77.5031 78.1427C74.5978 78.4326 71.651 78.3793 68.7635 77.9829C68.1658 77.9 67.5149 77.7758 67.1362 77.3498C66.7516 76.9178 66.8996 76.0953 67.4972 76.0184" fill="#FCEBE6"/>
<path d="M90.8301 120.592C97.4159 120.752 104.043 120.906 110.57 120.09C112.025 119.906 113.487 119.675 114.954 119.705C116.25 119.729 117.528 119.959 118.806 120.172C123.522 120.965 128.28 121.563 133.055 121.971C128.937 123.8 124.114 123.598 119.587 123.013C115.061 122.427 110.499 121.504 105.96 122.013C103.339 122.308 100.771 123.084 98.1318 122.995C96.1141 122.924 94.12 122.338 92.4336 121.314" fill="#FCEBE6"/>
</g>
<path d="M120.464 33.0436C120.464 44.6412 107.487 54.0495 102.02 54.0495C96.5525 54.0495 83.5762 44.6471 83.5762 33.0436C83.5762 21.44 91.4933 6.91934 101.677 6.91934C111.86 6.91934 120.464 21.4459 120.464 33.0436Z" fill="#FDBCA0"/>
<mask id="mask7_2623_31998" style="mask-type:luminance" maskUnits="userSpaceOnUse" x="83" y="6" width="38" height="49">
<path d="M120.464 33.0441C120.464 44.6417 107.487 54.05 102.02 54.05C96.5525 54.05 83.5762 44.6476 83.5762 33.0441C83.5762 21.4405 91.4933 6.91986 101.677 6.91986C111.86 6.91986 120.464 21.4465 120.464 33.0441Z" fill="white"/>
</mask>
<g mask="url(#mask7_2623_31998)">
<g style="mix-blend-mode:multiply" opacity="0.18">
<path d="M101.553 13.1153C101.553 13.1153 108.18 27.0975 118.813 32.1803L105.612 12.7365L97.7182 11.0442C97.7182 11.0442 86.02 28.559 87.7123 33.843C87.7123 33.843 97.4046 15.0679 103.612 13.1922C109.819 11.3164 100.251 10.4289 100.251 10.4289" fill="#A05940"/>
</g>
</g>
<path d="M101.741 13.6523C101.741 13.6523 92.203 19.8239 87.7119 33.8535C87.7119 33.8535 85.1853 40.0251 86.8717 43.3919C88.5581 46.7588 95.0078 51.2499 93.6054 55.457C93.6054 55.457 93.8835 62.7529 87.4338 67.8002C87.4338 67.8002 93.6054 65.2736 98.9368 75.096C98.9368 75.096 110.156 69.2026 118.292 79.5872C118.292 79.5872 124.185 72.8534 130.073 81.5517C130.073 81.5517 135.404 77.9067 138.209 84.9185C138.209 84.9185 142.416 81.5516 141.014 90.812C141.014 90.812 145.783 94.741 139.889 98.3859C139.889 98.3859 140.73 100.35 137.363 102.315L135.682 97.5457C135.682 97.5457 136.523 96.7055 138.487 96.7055C138.487 96.7055 136.807 92.7765 139.611 90.812C139.611 90.812 135.12 89.6877 135.12 84.9185C135.12 84.9185 130.073 88.2854 126.706 82.3919C126.706 82.3919 118.57 89.1256 112.12 80.1493C112.12 80.1493 99.2149 88.8475 93.3214 77.3446C93.3214 77.3446 77.3332 84.6404 76.4871 70.3327C76.4871 70.3327 68.0729 58.8298 78.7297 52.0961C78.7297 52.0961 68.9368 39.1493 74.8007 27.6878C80.9723 15.6227 86.8658 -2.32989 100.327 5.24406C100.327 5.24406 123.895 -5.13462 120.528 33.5813C120.528 33.5813 108.747 24.605 101.73 13.6642L101.741 13.6523Z" fill="#2E2E2E"/>
<mask id="mask8_2623_31998" style="mask-type:luminance" maskUnits="userSpaceOnUse" x="72" y="3" width="71" height="100">
<path d="M101.741 13.6517C101.741 13.6517 92.203 19.8233 87.7119 33.8529C87.7119 33.8529 85.1853 40.0245 86.8717 43.3913C88.5581 46.7582 95.0078 51.2493 93.6054 55.4564C93.6054 55.4564 93.8835 62.7523 87.4338 67.7996C87.4338 67.7996 93.6054 65.273 98.9368 75.0954C98.9368 75.0954 110.156 69.2019 118.292 79.5865C118.292 79.5865 124.185 72.8528 130.073 81.551C130.073 81.551 135.404 77.9061 138.209 84.9179C138.209 84.9179 142.416 81.551 141.014 90.8114C141.014 90.8114 145.783 94.7404 139.889 98.3853C139.889 98.3853 140.73 100.35 137.363 102.314L135.682 97.5451C135.682 97.5451 136.523 96.7049 138.487 96.7049C138.487 96.7049 136.807 92.7759 139.611 90.8114C139.611 90.8114 135.12 89.6871 135.12 84.9179C135.12 84.9179 130.073 88.2848 126.706 82.3913C126.706 82.3913 118.57 89.125 112.12 80.1487C112.12 80.1487 99.2149 88.8469 93.3214 77.3439C93.3214 77.3439 77.3332 84.6398 76.4871 70.3321C76.4871 70.3321 68.0729 58.8292 78.7297 52.0955C78.7297 52.0955 68.9368 39.1487 74.8007 27.6872C80.9723 15.6221 86.8658 -2.3305 100.327 5.24345C100.327 5.24345 123.895 -5.13523 120.528 33.5807C120.528 33.5807 108.747 24.6044 101.73 13.6636L101.741 13.6517Z" fill="white"/>
</mask>
<g mask="url(#mask8_2623_31998)">
<g style="mix-blend-mode:multiply" opacity="0.22">
<path d="M86.8709 43.3857C86.8709 43.3857 92.2022 56.8532 102.019 56.291C111.835 55.7289 118.747 43.2023 119.362 36.8413C119.977 30.4804 85.7466 36.3739 86.8709 43.3857Z" fill="#1D3542"/>
</g>
</g>
<path d="M87.9427 34.7479C88.4753 36.9254 87.7356 38.9846 86.2919 39.3396C84.8422 39.6946 83.2386 38.2154 82.7002 36.0378C82.1676 33.8603 82.9072 31.8012 84.351 31.4461C85.8007 31.0911 87.4043 32.5704 87.9427 34.7479Z" fill="#FDBCA0"/>
<path d="M118.63 32.7883C118.097 34.9658 118.837 37.025 120.281 37.38C121.73 37.7351 123.334 36.2558 123.872 34.0783C124.405 31.9007 123.665 29.8416 122.222 29.4865C120.772 29.1315 119.168 30.6108 118.63 32.7883Z" fill="#FDBCA0"/>
<path d="M71.4456 97.2497C65.5521 95.2852 63.0314 102.297 63.0314 102.297C58.8243 100.617 57.7001 105.942 57.7001 105.942C54.0551 109.031 57.7001 113.238 57.7001 113.238C57.7001 113.711 57.7474 114.143 57.8243 114.54L60.9841 112.895C60.1912 112.877 59.6586 112.954 59.6586 112.954C61.061 110.149 58.8184 107.06 58.8184 107.06C63.0255 107.338 64.4279 103.693 64.4279 103.693C79.5758 109.303 83.5048 91.9124 83.5048 91.9124C83.5048 91.9124 77.3332 99.2082 71.4397 97.2437L71.4456 97.2497Z" fill="#2E2E2E"/>
<path d="M91.1621 34.2617C92.3929 34.5576 93.5941 34.6937 94.8012 34.6049C96.0083 34.528 97.1799 34.2262 98.3633 33.7647C97.4106 34.6167 96.1266 35.0724 94.8426 35.1611C93.5586 35.244 92.2213 34.9718 91.1621 34.2617Z" fill="#2E2430"/>
<path d="M99.4982 47.1433C101.214 47.8356 103.066 47.6936 104.67 46.7765C104.942 46.6226 104.694 46.2025 104.427 46.3564C102.924 47.2203 101.232 47.3209 99.6343 46.6759C99.3444 46.5575 99.2201 47.0309 99.5042 47.1433H99.4982Z" fill="#A34F31"/>
<path d="M99.5645 42.4213C100.032 42.4332 100.446 42.4628 100.86 42.4628C101.269 42.4628 101.671 42.4628 102.067 42.4273C102.464 42.3977 102.866 42.3563 103.269 42.2912C103.677 42.232 104.085 42.1492 104.547 42.0722C104.269 42.4509 103.884 42.7231 103.47 42.9243C103.05 43.1196 102.594 43.2379 102.127 43.2675C101.665 43.2971 101.192 43.2497 100.748 43.1137C100.31 42.9716 99.8899 42.7527 99.5645 42.4213Z" fill="#A34F31"/>
<path d="M106.322 34.3089C107.553 34.6048 108.754 34.7409 109.961 34.6521C111.168 34.5752 112.34 34.2734 113.523 33.8119C112.571 34.6639 111.287 35.1196 110.003 35.2083C108.719 35.2911 107.381 35.019 106.322 34.3089Z" fill="#2E2430"/>
<path d="M91.0727 31.5101C92.7236 29.6107 95.1496 28.7468 97.6289 29.2261C98.0549 29.3089 98.2383 28.6581 97.8064 28.5752C95.1022 28.0486 92.404 28.9421 90.5934 31.0308C90.3094 31.3563 90.7827 31.8356 91.0727 31.5101Z" fill="#1D3542"/>
<path d="M113.731 30.7477C111.92 28.659 109.222 27.7655 106.518 28.2921C106.092 28.3749 106.269 29.0258 106.695 28.943C109.175 28.4578 111.601 29.3217 113.251 31.227C113.535 31.5584 114.015 31.0732 113.731 30.7477Z" fill="#1D3542"/>
<path d="M102.292 12.6995C102.665 14.4569 103.363 16.2439 104.215 17.8948C105.073 19.5575 106.109 21.1433 107.339 22.5693C108.564 23.9895 109.919 25.3326 111.452 26.4391C112.185 27.0427 113.014 27.5102 113.813 28.0249C114.623 28.522 115.493 28.9125 116.333 29.3622C115.475 28.9539 114.582 28.6048 113.748 28.1492C112.919 27.6758 112.067 27.238 111.292 26.6699C109.683 25.6285 108.245 24.3386 106.919 22.9421C105.588 21.5457 104.452 19.9717 103.475 18.3031C102.505 16.6167 101.706 14.8711 101.191 12.9244L102.292 12.7054V12.6995Z" fill="#1D3542"/>
<path d="M102.683 11.4806C102.292 12.3741 102.008 13.4036 101.831 14.4096C101.653 15.4273 101.6 16.4687 101.671 17.5042C101.73 18.5457 101.955 19.5752 102.328 20.5575C102.665 21.5575 103.245 22.4569 103.855 23.3267C103.174 22.5161 102.505 21.6581 102.073 20.6699C101.606 19.6995 101.275 18.6522 101.121 17.5752C100.949 16.4983 100.914 15.3977 101.008 14.309C101.109 13.2084 101.292 12.1492 101.659 11.0545L102.695 11.4865L102.683 11.4806Z" fill="#1D3542"/>
<path d="M103.611 12.5641C103.126 12.8777 102.617 13.286 102.162 13.7002C101.694 14.1203 101.256 14.5759 100.848 15.0552C100.434 15.5345 100.055 16.0434 99.7121 16.5878C99.3571 17.1203 99.073 17.6943 98.7949 18.2801C98.9843 17.6647 99.1855 17.0434 99.4636 16.4517C99.7298 15.854 100.043 15.2801 100.393 14.7239C100.742 14.1677 101.126 13.6292 101.552 13.1203C101.978 12.6055 102.416 12.1262 102.955 11.6588L103.617 12.5641H103.611Z" fill="#1D3542"/>
<g style="mix-blend-mode:multiply" opacity="0.56">
<path d="M193.949 199.286C193.949 200.777 154.813 201.99 106.535 201.99C58.2572 201.99 19.1211 200.777 19.1211 199.286C19.1211 197.795 58.2572 196.582 106.535 196.582C154.813 196.582 193.949 197.795 193.949 199.286Z" fill="#A7D3DF"/>
</g>
</g>
</svg>
