<svg width="202" height="203" viewBox="0 0 202 203" fill="none" xmlns="http://www.w3.org/2000/svg">
<g style="mix-blend-mode:luminosity">
<path d="M101.441 15.6901C93.5598 14.8676 85.8202 17.0569 78.767 20.4593C72.3646 23.548 66.3646 27.554 60.9386 32.1398C50.7492 40.7492 42.2108 51.9149 38.2818 64.7847C34.341 77.69 35.9445 91.3113 42.2108 103.205C48.7847 115.69 59.5185 125.66 71.5776 132.779C84.7788 140.572 99.8379 145.187 115.14 146.11C129.151 146.956 144.14 144.714 155.903 136.577C166.631 129.157 172.927 117.27 174.607 104.477C176.347 91.258 173.276 77.974 166.708 66.4533C159.731 54.2226 149.37 44.2167 137.944 36.1397C125.507 27.3409 111.045 19.6072 95.5835 18.4889C91.8557 18.2167 88.1338 18.3942 84.4474 18.9918C83.8794 19.0865 84.1161 19.9504 84.6841 19.8617C100.412 17.3114 115.95 23.4889 129.193 31.4948C140.909 38.5776 151.862 47.3823 160.211 58.3172C168.293 68.903 173.654 81.4533 174.146 94.8616C174.607 107.376 171.004 120.341 162.435 129.714C152.933 140.11 138.702 144.53 124.974 145.264C110.217 146.051 95.1871 143.021 81.7137 137.009C57.5244 126.211 34.2345 103.009 37.2049 74.4592C38.5777 61.264 45.4297 49.1871 54.3646 39.619C58.9031 34.7551 64.0332 30.4534 69.5717 26.7729C75.838 22.6131 82.7078 19.0096 90.0806 17.3232C93.8143 16.4711 97.619 16.193 101.43 16.5895C102.004 16.6486 102.004 15.7492 101.43 15.6901H101.441Z" fill="#E9FBFF"/>
<path d="M107.411 149.145C99.3573 151.938 90.6059 150.689 82.3929 149.358C74.529 148.08 66.7361 146.246 59.2391 143.524C45.0793 138.376 31.961 129.737 23.458 117.086C15.5823 105.37 12.9196 91.2635 16.3634 77.5357C19.7066 64.2162 27.9492 52.299 38.529 43.66C62.8485 23.802 97.5585 22.447 127.34 26.1807C136.032 27.2695 144.653 28.9618 153.073 31.376C160.126 33.3996 167.452 35.8198 173.239 40.5002C179.345 45.441 182.334 52.6481 182.091 60.4529C181.837 68.5653 178.292 76.0505 173.76 82.6244C165.286 94.9144 154.144 105.743 142.405 114.891C130.588 124.104 117.535 131.755 103.706 137.512C100.381 138.897 97.0082 140.169 93.6 141.334C93.0556 141.524 93.2863 142.394 93.8366 142.204C123.05 132.192 149.393 114.08 169.061 90.2576C178.464 78.873 187.712 63.0505 180.553 48.1274C177.47 41.7014 171.452 37.4647 165.109 34.6363C157.493 31.2399 149.198 29.1748 141.056 27.518C124.482 24.1452 107.168 22.8139 90.2923 24.1866C74.7597 25.447 59.2331 29.3227 45.813 37.4411C22.2332 51.6955 6.30421 81.802 17.8427 108.689C23.6711 122.269 35.0438 132.849 48.0024 139.595C55.245 143.364 63.0142 146.05 70.9373 147.979C79.026 149.95 87.5645 151.577 95.9136 151.713C99.9017 151.778 103.872 151.328 107.653 150.021C108.198 149.831 107.961 148.962 107.417 149.151L107.411 149.145Z" fill="#E9FBFF"/>
<path d="M41.2299 67.7374C42.9885 65.9789 42.9885 63.1278 41.2299 61.3693C39.4714 59.6108 36.6203 59.6108 34.8618 61.3693C33.1033 63.1278 33.1033 65.9789 34.8618 67.7374C36.6203 69.496 39.4714 69.496 41.2299 67.7374Z" fill="#E9FBFF"/>
<path d="M47.9552 15.5889C47.9552 17.08 46.7421 18.293 45.251 18.293C43.7599 18.293 42.5469 17.08 42.5469 15.5889C42.5469 14.0978 43.7599 12.8847 45.251 12.8847C46.7421 12.8847 47.9552 14.0978 47.9552 15.5889Z" fill="#E9FBFF"/>
<path d="M33.5421 106.003C33.5421 107.495 32.3291 108.708 30.8379 108.708C29.3468 108.708 28.1338 107.495 28.1338 106.003C28.1338 104.512 29.3468 103.299 30.8379 103.299C32.3291 103.299 33.5421 104.512 33.5421 106.003Z" fill="#E9FBFF"/>
<path d="M147.387 62.2988C147.387 63.5414 146.381 64.5532 145.132 64.5532C143.884 64.5532 142.878 63.5473 142.878 62.2988C142.878 61.0503 143.884 60.0444 145.132 60.0444C146.381 60.0444 147.387 61.0503 147.387 62.2988Z" fill="#E9FBFF"/>
<path d="M69.5889 61.0976C69.5889 61.6775 69.1156 62.1509 68.5357 62.1509C67.9558 62.1509 67.4824 61.6775 67.4824 61.0976C67.4824 60.5177 67.9558 60.0444 68.5357 60.0444C69.1156 60.0444 69.5889 60.5177 69.5889 61.0976Z" fill="#E9FBFF"/>
<path d="M137.772 1.92091C137.772 2.83215 137.033 3.57179 136.122 3.57179C135.21 3.57179 134.471 2.83215 134.471 1.92091C134.471 1.00966 135.21 0.27002 136.122 0.27002C137.033 0.27002 137.772 1.00966 137.772 1.92091Z" fill="#E9FBFF"/>
<path d="M137.772 135.897C137.772 136.808 137.033 137.548 136.122 137.548C135.21 137.548 134.471 136.808 134.471 135.897C134.471 134.986 135.21 134.246 136.122 134.246C137.033 134.246 137.772 134.986 137.772 135.897Z" fill="#E9FBFF"/>
<path d="M201.76 99.4004C201.76 101.554 200.014 103.306 197.855 103.306C195.695 103.306 193.949 101.56 193.949 99.4004C193.949 97.2406 195.695 95.4951 197.855 95.4951C200.014 95.4951 201.76 97.2406 201.76 99.4004Z" fill="#E9FBFF"/>
<path d="M7.7071 134.843C10.0306 134.843 11.9142 132.959 11.9142 130.636C11.9142 128.312 10.0306 126.429 7.7071 126.429C5.38358 126.429 3.5 128.312 3.5 130.636C3.5 132.959 5.38358 134.843 7.7071 134.843Z" fill="#E9FBFF"/>
<path d="M3.80177 37.6665C3.80177 38.5778 3.06213 39.3174 2.15089 39.3174C1.23964 39.3174 0.5 38.5778 0.5 37.6665C0.5 36.7553 1.23964 36.0156 2.15089 36.0156C3.06213 36.0156 3.80177 36.7553 3.80177 37.6665Z" fill="#E9FBFF"/>
<path d="M142.576 33.0788C145.23 33.0788 147.381 30.9276 147.381 28.274C147.381 25.6204 145.23 23.4693 142.576 23.4693C139.923 23.4693 137.771 25.6204 137.771 28.274C137.771 30.9276 139.923 33.0788 142.576 33.0788Z" fill="#E9FBFF"/>
<path d="M129.665 189.512C131.489 189.512 132.967 188.033 132.967 186.21C132.967 184.386 131.489 182.908 129.665 182.908C127.842 182.908 126.363 184.386 126.363 186.21C126.363 188.033 127.842 189.512 129.665 189.512Z" fill="#E9FBFF"/>
<path d="M175.027 51.3343C177.184 51.3343 178.933 49.5858 178.933 47.4289C178.933 45.2721 177.184 43.5236 175.027 43.5236C172.871 43.5236 171.122 45.2721 171.122 47.4289C171.122 49.5858 172.871 51.3343 175.027 51.3343Z" fill="#E9FBFF"/>
<path d="M64.4278 119.275L67.5165 116.748C66.1437 113.606 62.842 113.074 60.984 113.044L57.8242 114.689C58.7355 119.275 64.4278 119.275 64.4278 119.275Z" fill="#1D3542"/>
<path d="M90.0966 116.049C90.0966 116.049 85.0493 112.96 81.6824 116.889C81.6824 116.889 78.5936 114.363 73.2682 118.292L71.3037 119.132C71.3037 119.132 76.6351 123.339 82.5226 120.256C82.5226 120.256 91.783 121.658 92.0611 119.132C92.3392 116.605 90.0966 116.043 90.0966 116.043V116.049Z" fill="#1D3542"/>
<path d="M106.234 58.9606C106.234 58.9606 122.506 51.9488 125.589 38.2032C128.678 24.4577 116.891 9.30975 116.891 9.30975C116.891 9.30975 68.0742 51.1085 78.7369 59.8067C84.234 64.2919 106.228 62.3334 106.228 62.3334" fill="#1D3542"/>
<mask id="mask0_2611_20547" style="mask-type:luminance" maskUnits="userSpaceOnUse" x="77" y="9" width="50" height="54">
<path d="M106.234 58.9604C106.234 58.9604 122.506 51.9486 125.589 38.2031C128.678 24.4575 116.891 9.3096 116.891 9.3096C116.891 9.3096 68.0742 51.1084 78.7369 59.8066C84.234 64.2918 106.228 62.3332 106.228 62.3332" fill="white"/>
</mask>
<g mask="url(#mask0_2611_20547)">
<g style="mix-blend-mode:multiply" opacity="0.22">
<path d="M86.8728 43.5291C86.8728 43.5291 92.2042 56.9965 102.021 56.4344C111.837 55.8722 118.749 43.3456 119.364 36.9847C119.979 30.6237 85.7485 36.5172 86.8728 43.5291Z" fill="#1D3542"/>
</g>
</g>
<path d="M87.434 126.57C87.434 126.57 76.7713 142.843 76.2151 145.369C76.2151 145.369 40.0258 147.334 31.6116 150.979C23.1974 154.624 20.1087 165.564 27.4045 171.18C34.7004 176.795 83.2328 178.754 96.7003 173.985C96.7003 173.985 166.274 183.245 178.055 169.777C189.836 156.31 156.736 143.127 128.682 144.529C128.682 144.529 118.866 125.174 113.535 122.647C108.203 120.121 87.4459 126.576 87.4459 126.576L87.434 126.57Z" fill="#FF9D48"/>
<mask id="mask1_2611_20547" style="mask-type:luminance" maskUnits="userSpaceOnUse" x="23" y="122" width="158" height="56">
<path d="M87.434 126.571C87.434 126.571 76.7713 142.843 76.2151 145.37C76.2151 145.37 40.0258 147.335 31.6116 150.98C23.1974 154.625 20.1087 165.565 27.4045 171.181C34.7004 176.796 83.2328 178.755 96.7003 173.985C96.7003 173.985 166.274 183.246 178.055 169.778C189.836 156.311 156.736 143.128 128.682 144.53C128.682 144.53 118.866 125.175 113.535 122.648C108.203 120.122 87.4459 126.577 87.4459 126.577L87.434 126.571Z" fill="white"/>
</mask>
<g mask="url(#mask1_2611_20547)">
<g style="mix-blend-mode:multiply" opacity="0.23">
<path d="M101.346 174.542C101.346 174.542 87.4348 173.417 74.8076 164.441C74.8076 164.441 82.6656 175.382 91.6419 177.068C100.618 178.749 101.346 174.542 101.346 174.542Z" fill="#D25A5C"/>
</g>
<g style="mix-blend-mode:multiply" opacity="0.23">
<path d="M48.4408 151.82C47.9082 152.406 45.0739 153.784 47.8787 154.909C50.6834 156.033 66.1153 164.447 70.0443 163.323C73.9733 162.199 51.2455 148.737 48.4408 151.82Z" fill="#D25A5C"/>
</g>
<g style="mix-blend-mode:multiply" opacity="0.23">
<path d="M131.44 161.879C132.044 161.921 144.109 158.832 149.434 156.59C154.766 154.347 155.884 152.661 157.292 152.661C158.701 152.661 158.417 149.856 154.488 150.134C150.559 150.412 134.287 157.43 134.287 157.43L131.44 162.288" fill="#D25A5C"/>
</g>
<g style="mix-blend-mode:multiply" opacity="0.23">
<path d="M127.554 154.909C127.554 154.909 114.648 157.713 112.684 157.435C110.719 157.157 116.613 145.092 130.358 143.968C130.358 143.968 116.891 143.69 107.915 153.784C98.9384 163.885 91.3644 151.258 85.749 148.453C85.749 148.453 94.7668 159.826 95.1691 161.293C95.1691 161.293 109.128 159.5 113.151 160.145C113.151 160.145 123.347 160.234 128.252 154.767L127.548 154.909H127.554Z" fill="#D25A5C"/>
</g>
<path d="M79.4826 160.329C83.5714 162.163 88.0862 162.157 92.4649 161.772C97.382 161.34 102.276 160.737 107.21 160.506C112.346 160.264 117.5 160.299 122.625 160.725C124.175 160.855 125.713 160.979 127.222 161.346C128.56 161.672 129.885 162.051 131.204 162.435C133.956 163.24 136.743 164.027 139.417 165.068C139.672 165.169 139.778 164.761 139.53 164.66C137.24 163.772 134.855 163.086 132.506 162.382C130.157 161.678 127.79 160.843 125.376 160.571C115.275 159.429 105.133 160.003 95.0625 161.092C89.9442 161.642 84.524 162.133 79.6956 159.968C79.453 159.855 79.2341 160.222 79.4826 160.329Z" fill="#AA353B"/>
<path d="M75.5879 165.672C82.9251 169.962 90.9488 173.009 99.286 174.678C99.5523 174.731 99.6647 174.323 99.3985 174.269C91.0967 172.613 83.1086 169.577 75.8009 165.305C75.5642 165.169 75.3571 165.53 75.5879 165.666V165.672Z" fill="#AA353B"/>
<path d="M61.1445 156.891C56.8486 155.82 52.2688 154.808 47.9552 156.382C47.7007 156.476 47.8132 156.879 48.0676 156.79C52.3102 155.24 56.8013 156.246 61.0321 157.299C61.2924 157.364 61.4049 156.956 61.1445 156.891Z" fill="#AA353B"/>
<g style="mix-blend-mode:multiply" opacity="0.49">
<path d="M94.6767 160.974C93.1146 158.713 91.5465 156.447 89.9844 154.187L94.6767 160.974Z" fill="#D25A5C"/>
</g>
<path d="M131.057 143.613C129.134 143.702 127.222 144.151 125.388 144.707C123.554 145.264 121.719 145.962 120.021 146.885C119.784 147.015 119.997 147.376 120.234 147.246C121.903 146.341 123.69 145.66 125.5 145.11C127.311 144.56 129.169 144.116 131.057 144.027C131.329 144.015 131.329 143.595 131.057 143.607V143.613Z" fill="#AA353B"/>
<path d="M74.8067 145.312C77.7771 145.424 80.6292 146.708 82.6883 148.85C82.8777 149.045 83.1735 148.749 82.9842 148.554C80.8481 146.329 77.8836 145.01 74.8067 144.891C74.5345 144.88 74.5345 145.3 74.8067 145.312Z" fill="#AA353B"/>
<path d="M126.068 156.595C122.506 158.417 118.837 159.832 114.79 159.885C114.518 159.885 114.518 160.311 114.79 160.305C118.914 160.252 122.66 158.814 126.281 156.962C126.524 156.838 126.311 156.477 126.068 156.601V156.595Z" fill="#AA353B"/>
</g>
<path d="M75.2808 71.6483C75.3045 72.2104 74.0915 76.1986 72.8903 86.6423C71.695 97.092 65.624 111.417 65.7009 113.098C65.7779 114.778 61.9199 116.364 58.8844 123.53C55.8489 130.696 49.3459 135.772 47.7305 137.252C47.7305 137.252 44.3164 136.287 40.6832 136.737C37.056 137.187 33.6359 136.222 33.0264 135.127C33.0264 135.127 31.411 136.607 32.8785 137.944C34.3459 139.281 37.6536 138.003 38.5767 139.642C39.4939 141.287 37.3696 143.909 35.3696 143.163C33.3696 142.412 32.7424 141.039 32.4229 140.21C32.1033 139.382 33.3459 135.956 30.7838 135.234C30.7838 135.234 30.0205 139.903 30.3519 141.009C30.3519 141.009 26.8075 137.246 24.9199 139.015C24.9199 139.015 28.4288 141.938 28.7483 142.767C28.7483 142.767 25.8785 141.494 25.1211 143.216C25.1211 143.216 27.7247 144.778 28.8548 145.009C29.9909 145.24 30.843 145.477 31.4406 146.293C31.4406 146.293 28.3341 145.879 28.1329 147.571C28.1329 147.571 31.2158 147.429 32.6418 147.92C34.0678 148.417 39.4169 148.725 41.3282 147.512C43.2394 146.299 69.5234 131.873 75.3518 118.4C75.3518 118.4 82.3755 94.4826 82.3932 88.8613" fill="#FDBCA0"/>
<mask id="mask2_2611_20547" style="mask-type:luminance" maskUnits="userSpaceOnUse" x="24" y="71" width="59" height="78">
<path d="M75.2808 71.6492C75.3045 72.2114 74.0915 76.1995 72.8903 86.6433C71.695 97.093 65.624 111.418 65.7009 113.099C65.7779 114.779 61.9199 116.365 58.8844 123.531C55.8489 130.696 49.3459 135.773 47.7305 137.253C47.7305 137.253 44.3164 136.288 40.6832 136.738C37.056 137.188 33.6359 136.223 33.0264 135.128C33.0264 135.128 31.411 136.608 32.8785 137.945C34.3459 139.282 37.6536 138.004 38.5767 139.643C39.4939 141.288 37.3696 143.91 35.3696 143.164C33.3696 142.412 32.7424 141.04 32.4229 140.211C32.1033 139.383 33.3459 135.957 30.7838 135.235C30.7838 135.235 30.0205 139.904 30.3519 141.01C30.3519 141.01 26.8075 137.247 24.9199 139.016C24.9199 139.016 28.4288 141.939 28.7483 142.767C28.7483 142.767 25.8785 141.495 25.1211 143.217C25.1211 143.217 27.7247 144.779 28.8548 145.01C29.9909 145.241 30.843 145.478 31.4406 146.294C31.4406 146.294 28.3341 145.88 28.1329 147.572C28.1329 147.572 31.2158 147.43 32.6418 147.921C34.0678 148.418 39.4169 148.726 41.3282 147.513C43.2394 146.3 69.5234 131.874 75.3518 118.401C75.3518 118.401 82.3755 94.4835 82.3932 88.8622" fill="white"/>
</mask>
<g mask="url(#mask2_2611_20547)">
<g style="mix-blend-mode:multiply" opacity="0.21">
<path d="M70.0381 99.6431C70.0381 99.6431 75.9316 111.708 83.5055 116.477C91.0795 121.247 79.8606 90.9508 70.0381 99.6431Z" fill="#D18161"/>
</g>
</g>
<path d="M131.198 72.707C131.169 73.2691 131.885 74.9259 133.009 85.3815C134.133 95.8371 140.092 110.21 140.003 111.89C139.914 113.571 143.761 115.186 146.743 122.37C149.725 129.553 156.192 134.683 157.796 136.174C157.796 136.174 161.216 135.234 164.843 135.713C168.471 136.192 171.891 135.251 172.512 134.163C172.512 134.163 174.116 135.654 172.642 136.979C171.163 138.305 167.867 137.003 166.932 138.636C166.003 140.269 168.104 142.914 170.11 142.18C172.116 141.447 172.755 140.074 173.08 139.251C173.406 138.429 172.187 134.991 174.755 134.287C174.755 134.287 175.482 138.961 175.145 140.068C175.145 140.068 178.719 136.328 180.589 138.115C180.589 138.115 177.062 141.015 176.737 141.843C176.737 141.843 179.613 140.594 180.364 142.322C180.364 142.322 177.755 143.867 176.619 144.086C175.482 144.305 174.624 144.541 174.021 145.352C174.021 145.352 177.133 144.955 177.323 146.654C177.323 146.654 174.24 146.488 172.808 146.973C171.376 147.458 166.027 147.731 164.121 146.506C162.222 145.281 136.039 130.66 130.311 117.145C130.311 117.145 123.459 93.1744 123.482 87.559" fill="#FDBCA0"/>
<mask id="mask3_2611_20547" style="mask-type:luminance" maskUnits="userSpaceOnUse" x="123" y="72" width="58" height="76">
<path d="M131.198 72.707C131.169 73.2691 131.885 74.9259 133.009 85.3815C134.133 95.8371 140.092 110.21 140.003 111.89C139.914 113.571 143.761 115.186 146.743 122.37C149.725 129.553 156.192 134.683 157.796 136.174C157.796 136.174 161.216 135.234 164.843 135.713C168.471 136.192 171.891 135.251 172.512 134.163C172.512 134.163 174.116 135.654 172.642 136.979C171.163 138.305 167.867 137.003 166.932 138.636C166.003 140.269 168.104 142.914 170.11 142.18C172.116 141.447 172.755 140.074 173.08 139.251C173.406 138.429 172.187 134.991 174.755 134.287C174.755 134.287 175.482 138.961 175.145 140.068C175.145 140.068 178.719 136.328 180.589 138.115C180.589 138.115 177.062 141.015 176.737 141.843C176.737 141.843 179.613 140.594 180.364 142.322C180.364 142.322 177.755 143.867 176.619 144.086C175.482 144.305 174.624 144.541 174.021 145.352C174.021 145.352 177.133 144.955 177.323 146.654C177.323 146.654 174.24 146.488 172.808 146.973C171.376 147.458 166.027 147.731 164.121 146.506C162.222 145.281 136.039 130.66 130.311 117.145C130.311 117.145 123.459 93.1744 123.482 87.559" fill="white"/>
</mask>
<g mask="url(#mask3_2611_20547)">
<g style="mix-blend-mode:multiply" opacity="0.21">
<path d="M130.358 122.079C130.358 122.079 135.689 113.103 140.458 111.979C145.228 110.854 127.831 100.76 130.358 122.079Z" fill="#D18161"/>
</g>
</g>
<path d="M86.8723 127.694L81.5409 89.5406L74.8664 73.801C74.8664 73.801 73.5646 69.8128 88.5528 62.6057C103.707 55.3217 130.352 64.0081 131.328 73.5998C132.405 84.1738 124.742 87.5702 124.742 87.5702L118.849 127.688C118.849 127.688 105.103 134.7 86.8664 127.688L86.8723 127.694Z" fill="#FDBCA0"/>
<mask id="mask4_2611_20547" style="mask-type:luminance" maskUnits="userSpaceOnUse" x="74" y="59" width="58" height="72">
<path d="M86.8723 127.694L81.541 89.5405L74.8664 73.8009C74.8664 73.8009 73.5646 69.8127 88.5528 62.6056C103.707 55.3216 130.352 64.008 131.328 73.5997C132.405 84.1736 124.742 87.5701 124.742 87.5701L118.849 127.688C118.849 127.688 105.103 134.7 86.8664 127.688L86.8723 127.694Z" fill="white"/>
</mask>
<g mask="url(#mask4_2611_20547)">
<g style="mix-blend-mode:multiply" opacity="0.21">
<path d="M83.506 116.47C83.4291 117.091 109.37 134.404 121.826 124.878C134.281 115.351 86.0267 96.2743 83.506 116.47Z" fill="#D18161"/>
</g>
</g>
<path d="M90.1497 62.5646C89.6823 63.9669 98.0551 53.89 97.2622 39.322H106.73C106.73 39.322 106.741 57.4581 116.327 63.1208C116.327 63.1208 101.244 77.1148 90.1497 62.5705V62.5646Z" fill="#FDBCA0"/>
<mask id="mask5_2611_20547" style="mask-type:luminance" maskUnits="userSpaceOnUse" x="90" y="39" width="27" height="31">
<path d="M90.1497 62.5646C89.6823 63.9669 98.0551 53.89 97.2622 39.322H106.73C106.73 39.322 106.741 57.4581 116.327 63.1208C116.327 63.1208 101.244 77.1148 90.1497 62.5705V62.5646Z" fill="white"/>
</mask>
<g mask="url(#mask5_2611_20547)">
<g style="mix-blend-mode:multiply" opacity="0.34">
<path d="M101.884 56.4406C106.61 56.4406 110.441 53.3622 110.441 49.5649C110.441 45.7675 106.61 42.6891 101.884 42.6891C97.1589 42.6891 93.3281 45.7675 93.3281 49.5649C93.3281 53.3622 97.1589 56.4406 101.884 56.4406Z" fill="#D18161"/>
</g>
</g>
<path d="M79.0207 160.233C79.0207 160.233 77.8964 157.144 76.7781 153.783C75.6598 150.422 70.8846 150.138 67.2396 152.103C63.5947 154.067 56.0207 149.576 53.2101 149.298C50.4054 149.02 46.4764 149.298 47.3166 151.541C48.2988 154.168 51.8077 151.819 53.2101 153.505C54.6124 155.186 70.8846 165.848 75.6538 165.848C75.6538 165.848 79.0207 165.008 79.0207 160.239V160.233Z" fill="#FDBCA0"/>
<path d="M126.523 156.168C126.523 156.168 127.937 153.203 129.381 149.96C130.825 146.718 135.594 146.895 139.038 149.203C142.482 151.511 150.452 147.771 153.269 147.759C156.085 147.747 159.973 148.41 158.914 150.558C157.683 153.079 154.417 150.404 152.86 151.943C151.304 153.481 134.079 162.528 129.334 162.067C129.334 162.067 126.062 160.907 126.523 156.156V156.168Z" fill="#FDBCA0"/>
<path d="M76.4452 70.493C76.7825 70.5107 123.404 87.6705 132.208 78.7829C132.208 78.7829 133.972 93.0255 135.966 98.5107C138.208 104.682 140.457 111.694 140.457 111.978C140.457 111.978 137.368 111.416 127.83 120.954C114.936 133.848 86.9896 122.144 69.9541 99.5285C69.9541 99.5285 71.9068 70.2445 76.4393 70.493H76.4452Z" fill="#FFD2B9"/>
<mask id="mask6_2611_20547" style="mask-type:luminance" maskUnits="userSpaceOnUse" x="69" y="70" width="72" height="57">
<path d="M76.4452 70.4923C76.7825 70.51 123.404 87.6698 132.208 78.7822C132.208 78.7822 133.972 93.0248 135.966 98.51C138.208 104.682 140.457 111.693 140.457 111.977C140.457 111.977 137.368 111.415 127.83 120.954C114.936 133.847 86.9896 122.143 69.9541 99.5278C69.9541 99.5278 71.9068 70.2438 76.4393 70.4923H76.4452Z" fill="white"/>
</mask>
<g mask="url(#mask6_2611_20547)">
<path d="M67.5529 84.0959C72.9375 81.4746 80.0559 85.5811 85.4878 83.0427C86.0914 82.7586 86.6712 82.3977 87.334 82.2675C87.9316 82.1551 88.5529 82.2379 89.1505 82.3267L106.683 84.8533C108.251 85.0782 109.825 85.303 111.411 85.3089C113.494 85.3148 115.63 84.9539 117.618 85.5279C118.559 85.8001 119.417 86.2794 120.346 86.593C122.772 87.4214 125.464 87.1077 128.026 86.7882C131.517 86.3503 135.008 85.9066 138.5 85.4687C139.494 85.3444 140.89 85.4924 140.967 86.4154C141.05 87.4095 139.535 87.6758 138.452 87.6699C135.227 87.664 132.085 88.5634 128.884 88.8888C126.577 89.1196 124.251 89.0486 121.932 88.9657C110.79 88.587 99.6535 88.0663 88.5233 87.4036C86.3754 87.2734 84.2215 87.1433 82.1032 86.8001C81.3517 86.6758 80.5707 86.5338 79.831 86.6995C79.2156 86.8415 78.6772 87.1906 78.0677 87.3681C75.7245 88.0604 73.3576 86.0722 70.902 86.2202C69.8192 86.2853 68.7778 86.7646 67.6949 86.6758C66.6121 86.587 65.547 85.4332 66.2097 84.6403" fill="#FCEBE6"/>
<path d="M65.5117 92.9481C65.7543 91.7469 67.488 91.3268 68.7543 91.6937C70.0205 92.0605 71.0501 92.9244 72.2809 93.3801C76.0679 94.7765 80.1921 92.0014 84.269 92.1848C87.0264 92.3091 89.6418 93.7884 92.3814 93.4807C93.1921 93.386 93.9672 93.1434 94.7779 93.0428C96.482 92.8357 98.1862 93.3091 99.8607 93.6759C105.381 94.883 111.103 94.9836 116.778 95.0724C120.245 95.1256 123.719 95.1848 127.186 95.2381C130.316 95.2854 133.5 95.3327 136.517 94.5635C137.683 94.2676 138.837 93.8475 140.044 93.8298C141.251 93.8179 142.577 94.3327 143.009 95.3741C139.523 95.8298 136.032 96.2913 132.547 96.7469C130.849 96.9718 129.151 97.1907 127.435 97.244C124.825 97.3268 122.216 97.0132 119.606 96.9008C111.506 96.5576 103.334 98.167 95.3223 97.0014C93.2158 96.6937 91.1093 96.1966 88.985 96.3327C87.1507 96.4511 85.3637 97.0309 83.5294 96.9777C82.1625 96.9363 80.8371 96.5398 79.5176 96.2144C74.8844 95.0664 70.0264 94.7173 65.2572 95.1907L63.5176 92.6463C64.2217 92.6168 64.9259 92.5872 65.63 92.5576" fill="#FCEBE6"/>
<path d="M65.5419 102.042C68.0094 100.551 71.2756 100.912 74.0922 101.717C76.9087 102.522 79.6721 103.717 82.6247 103.729C85.388 103.746 88.0448 102.717 90.8081 102.587C95.1927 102.379 99.5064 104.445 103.85 103.859C105.684 103.61 107.429 102.9 109.281 102.77C110.648 102.675 112.021 102.9 113.37 103.131C116.08 103.587 118.79 104.042 121.494 104.498C122.329 104.64 123.175 104.782 124.021 104.729C125.122 104.664 126.163 104.273 127.193 103.924C129.79 103.036 132.459 102.326 135.169 101.806C136.631 101.527 138.234 101.314 139.56 101.948C140.068 102.19 140.518 102.551 141.068 102.705C142.145 103.001 143.246 102.427 144.341 102.19C145.435 101.953 146.962 102.403 146.903 103.439C143.808 104.456 140.406 103.942 137.128 104.09C133.642 104.243 130.258 105.149 126.82 105.687C121.453 106.533 115.921 106.48 110.571 105.539C108.737 105.22 106.915 104.788 105.051 104.723C102.838 104.64 100.648 105.066 98.459 105.326C92.9857 105.977 87.4354 105.604 81.9265 105.232L72.8673 104.616C70.5301 104.456 68.1809 104.297 65.9088 103.776C65.4236 103.664 64.8969 103.51 64.6307 103.119C64.3644 102.729 64.5892 102.066 65.0863 102.066" fill="#FCEBE6"/>
<path d="M75.7187 112.037C77.8252 111.15 80.2986 111.469 82.5116 112.096C84.7246 112.718 86.8666 113.629 89.1684 113.895C95.7009 114.647 102.494 110.114 108.571 112.451C109.636 112.86 110.671 113.481 111.825 113.434C112.689 113.398 113.482 112.99 114.31 112.759C116.683 112.108 119.204 112.984 121.494 113.848C122.346 114.167 123.281 114.493 124.157 114.238C124.807 114.049 125.31 113.576 125.932 113.309C127.328 112.718 128.938 113.309 130.458 113.511C132.713 113.818 134.985 113.262 137.239 112.954C139.494 112.647 141.979 112.635 143.831 113.86C142.458 114.83 140.659 115.079 138.932 115.191C133.198 115.552 127.316 114.682 121.754 116.037C120.867 116.25 119.979 116.528 119.068 116.499C118.068 116.469 117.127 116.079 116.18 115.771C112.594 114.605 108.713 114.576 104.914 114.564C103.346 114.558 101.778 114.552 100.216 114.706C96.6003 115.067 93.0796 116.286 89.4524 116.162C85.0678 116.008 80.9554 113.889 76.5648 113.848C75.9317 113.842 75.269 113.877 74.6832 113.641C74.0974 113.41 73.6299 112.801 73.837 112.25C74.0441 111.7 75.1151 111.623 75.2512 112.191" fill="#FCEBE6"/>
<path d="M67.2753 77.5101C68.4114 75.5693 71.1214 74.8474 73.506 75.0426C75.8906 75.2379 78.1332 76.1373 80.4646 76.6403C82.8788 77.161 85.3995 77.2438 87.8492 76.8888C89.1569 76.6994 90.4764 76.3858 91.7841 76.5693C93.0385 76.7409 94.1687 77.3562 95.3817 77.6817C99.7013 78.8414 104.086 76.3267 108.541 75.7645C111.524 75.3858 114.553 75.8947 117.512 76.4213C124.743 77.7054 132.133 79.1077 139.423 78.1255C139.382 79.7645 137.05 80.3267 135.275 80.3858C128.24 80.6048 121.186 80.374 114.181 79.6994C110.666 79.3622 107.145 78.9125 103.618 79.1018C101.145 79.2379 98.6894 79.6876 96.2161 79.5988C92.0504 79.445 88.0681 77.7764 83.9025 77.7113C81.7605 77.6758 79.6362 78.0722 77.506 78.2852C74.6007 78.5752 71.654 78.5219 68.7664 78.1255C68.1688 78.0426 67.5179 77.9184 67.1392 77.4923C66.7546 77.0604 66.9025 76.2379 67.5001 76.161" fill="#FCEBE6"/>
<path d="M90.8311 120.735C97.4168 120.895 104.044 121.049 110.571 120.232C112.026 120.049 113.488 119.818 114.955 119.847C116.251 119.871 117.529 120.102 118.807 120.315C123.523 121.108 128.281 121.705 133.056 122.114C128.938 123.942 124.115 123.741 119.588 123.155C115.062 122.569 110.5 121.646 105.961 122.155C103.34 122.451 100.772 123.226 98.1328 123.137C96.1151 123.066 94.121 122.481 92.4346 121.457" fill="#FCEBE6"/>
</g>
<path d="M120.465 33.1861C120.465 44.7838 107.488 54.192 102.021 54.192C96.5535 54.192 83.5771 44.7897 83.5771 33.1861C83.5771 21.5826 91.4943 7.06192 101.678 7.06192C111.861 7.06192 120.465 21.5885 120.465 33.1861Z" fill="#FDBCA0"/>
<mask id="mask7_2611_20547" style="mask-type:luminance" maskUnits="userSpaceOnUse" x="83" y="7" width="38" height="48">
<path d="M120.465 33.1867C120.465 44.7843 107.488 54.1926 102.021 54.1926C96.5535 54.1926 83.5771 44.7902 83.5771 33.1867C83.5771 21.5831 91.4943 7.06244 101.678 7.06244C111.861 7.06244 120.465 21.589 120.465 33.1867Z" fill="white"/>
</mask>
<g mask="url(#mask7_2611_20547)">
<g style="mix-blend-mode:multiply" opacity="0.18">
<path d="M101.553 13.2578C101.553 13.2578 108.18 27.2401 118.813 32.3229L105.612 12.8791L97.7182 11.1868C97.7182 11.1868 86.02 28.7016 87.7123 33.9856C87.7123 33.9856 97.4046 15.2105 103.612 13.3348C109.819 11.459 100.251 10.5714 100.251 10.5714" fill="#A05940"/>
</g>
</g>
<path d="M101.742 13.7949C101.742 13.7949 92.204 19.9665 87.7129 33.9961C87.7129 33.9961 85.1863 40.1677 86.8727 43.5345C88.5591 46.9014 95.0087 51.3925 93.6064 55.5996C93.6064 55.5996 93.8845 62.8954 87.4348 67.9428C87.4348 67.9428 93.6064 65.4161 98.9377 75.2386C98.9377 75.2386 110.157 69.3451 118.293 79.7297C118.293 79.7297 124.186 72.996 130.074 81.6942C130.074 81.6942 135.405 78.0493 138.21 85.0611C138.21 85.0611 142.417 81.6942 141.015 90.9546C141.015 90.9546 145.784 94.8835 139.89 98.5285C139.89 98.5285 140.731 100.493 137.364 102.458L135.683 97.6883C135.683 97.6883 136.523 96.848 138.488 96.848C138.488 96.848 136.808 92.9191 139.612 90.9546C139.612 90.9546 135.121 89.8303 135.121 85.0611C135.121 85.0611 130.074 88.4279 126.707 82.5345C126.707 82.5345 118.571 89.2682 112.121 80.2919C112.121 80.2919 99.2158 88.9901 93.3224 77.4871C93.3224 77.4871 77.3342 84.783 76.4881 70.4753C76.4881 70.4753 68.0739 58.9724 78.7307 52.2386C78.7307 52.2386 68.9378 39.2919 74.8017 27.8304C80.9733 15.7653 86.8667 -2.18731 100.328 5.38664C100.328 5.38664 123.896 -4.99205 120.529 33.7239C120.529 33.7239 108.748 24.7476 101.731 13.8067L101.742 13.7949Z" fill="#1D3542"/>
<mask id="mask8_2611_20547" style="mask-type:luminance" maskUnits="userSpaceOnUse" x="72" y="3" width="71" height="100">
<path d="M101.742 13.7943C101.742 13.7943 92.204 19.9659 87.7129 33.9955C87.7129 33.9955 85.1863 40.167 86.8727 43.5339C88.5591 46.9008 95.0087 51.3919 93.6064 55.599C93.6064 55.599 93.8845 62.8948 87.4348 67.9422C87.4348 67.9422 93.6064 65.4155 98.9377 75.238C98.9377 75.238 110.157 69.3445 118.293 79.7291C118.293 79.7291 124.186 72.9954 130.074 81.6936C130.074 81.6936 135.405 78.0486 138.21 85.0605C138.21 85.0605 142.417 81.6936 141.015 90.954C141.015 90.954 145.784 94.8829 139.89 98.5279C139.89 98.5279 140.731 100.492 137.364 102.457L135.683 97.6877C135.683 97.6877 136.523 96.8474 138.488 96.8474C138.488 96.8474 136.808 92.9184 139.612 90.954C139.612 90.954 135.121 89.8297 135.121 85.0605C135.121 85.0605 130.074 88.4273 126.707 82.5339C126.707 82.5339 118.571 89.2676 112.121 80.2912C112.121 80.2912 99.2158 88.9895 93.3224 77.4865C93.3224 77.4865 77.3342 84.7824 76.4881 70.4747C76.4881 70.4747 68.0739 58.9718 78.7307 52.238C78.7307 52.238 68.9378 39.2913 74.8017 27.8298C80.9733 15.7647 86.8667 -2.18792 100.328 5.38603C100.328 5.38603 123.896 -4.99266 120.529 33.7233C120.529 33.7233 108.748 24.7469 101.731 13.8061L101.742 13.7943Z" fill="white"/>
</mask>
<g mask="url(#mask8_2611_20547)">
<g style="mix-blend-mode:multiply" opacity="0.22">
<path d="M86.8728 43.5283C86.8728 43.5283 92.2042 56.9957 102.021 56.4336C111.837 55.8715 118.749 43.3449 119.364 36.9839C119.979 30.623 85.7485 36.5165 86.8728 43.5283Z" fill="#1D3542"/>
</g>
</g>
<path d="M87.9437 34.8905C88.4763 37.068 87.7366 39.1272 86.2928 39.4822C84.8431 39.8372 83.2396 38.3579 82.7011 36.1804C82.1686 34.0029 82.9082 31.9437 84.352 31.5887C85.8017 31.2337 87.4053 32.713 87.9437 34.8905Z" fill="#FDBCA0"/>
<path d="M118.63 32.9309C118.097 35.1084 118.837 37.1676 120.281 37.5226C121.73 37.8776 123.334 36.3983 123.872 34.2208C124.405 32.0433 123.665 29.9842 122.222 29.6291C120.772 29.2741 119.168 30.7534 118.63 32.9309Z" fill="#FDBCA0"/>
<path d="M71.4456 97.3922C65.5521 95.4277 63.0314 102.44 63.0314 102.44C58.8243 100.759 57.7001 106.085 57.7001 106.085C54.0551 109.173 57.7001 113.38 57.7001 113.38C57.7001 113.854 57.7474 114.286 57.8243 114.682L60.9841 113.037C60.1912 113.019 59.6586 113.096 59.6586 113.096C61.061 110.292 58.8184 107.203 58.8184 107.203C63.0255 107.481 64.4279 103.836 64.4279 103.836C79.5758 109.445 83.5048 92.055 83.5048 92.055C83.5048 92.055 77.3332 99.3508 71.4397 97.3863L71.4456 97.3922Z" fill="#1D3542"/>
<path d="M91.1621 34.4043C92.3929 34.7002 93.5941 34.8362 94.8012 34.7475C96.0083 34.6706 97.1799 34.3688 98.3633 33.9073C97.4106 34.7593 96.1266 35.2149 94.8426 35.3037C93.5586 35.3865 92.2213 35.1144 91.1621 34.4043Z" fill="#2E2430"/>
<path d="M99.4992 47.2859C101.215 47.9782 103.067 47.8362 104.671 46.9191C104.943 46.7652 104.694 46.3451 104.428 46.4989C102.925 47.3628 101.233 47.4634 99.6353 46.8185C99.3454 46.7001 99.2211 47.1735 99.5051 47.2859H99.4992Z" fill="#A34F31"/>
<path d="M99.5645 42.5639C100.032 42.5758 100.446 42.6053 100.86 42.6053C101.269 42.6053 101.671 42.6053 102.067 42.5698C102.464 42.5403 102.866 42.4988 103.269 42.4337C103.677 42.3746 104.085 42.2917 104.547 42.2148C104.269 42.5935 103.884 42.8657 103.47 43.0669C103.05 43.2621 102.594 43.3805 102.127 43.4101C101.665 43.4397 101.192 43.3923 100.748 43.2562C100.31 43.1142 99.8899 42.8953 99.5645 42.5639Z" fill="#A34F31"/>
<path d="M106.321 34.4515C107.552 34.7473 108.753 34.8834 109.96 34.7947C111.167 34.7177 112.339 34.416 113.522 33.9544C112.57 34.8065 111.286 35.2621 110.002 35.3509C108.718 35.4337 107.38 35.1615 106.321 34.4515Z" fill="#2E2430"/>
<path d="M91.0736 31.6527C92.7245 29.7533 95.1506 28.8894 97.6298 29.3687C98.0559 29.4515 98.2393 28.8006 97.8074 28.7178C95.1032 28.1912 92.405 29.0847 90.5944 31.1734C90.3103 31.4989 90.7837 31.9781 91.0736 31.6527Z" fill="#1D3542"/>
<path d="M113.73 30.8903C111.919 28.8015 109.221 27.908 106.517 28.4347C106.091 28.5175 106.268 29.1684 106.694 29.0856C109.174 28.6004 111.6 29.4643 113.25 31.3696C113.534 31.7009 114.014 31.2157 113.73 30.8903Z" fill="#1D3542"/>
<path d="M102.293 12.8421C102.666 14.5995 103.364 16.3865 104.216 18.0374C105.074 19.7001 106.11 21.2859 107.34 22.7119C108.565 24.132 109.92 25.4752 111.453 26.5817C112.186 27.1853 113.015 27.6527 113.814 28.1675C114.624 28.6646 115.494 29.0551 116.334 29.5048C115.476 29.0965 114.583 28.7474 113.749 28.2918C112.92 27.8184 112.068 27.3805 111.293 26.8125C109.683 25.7711 108.246 24.4811 106.92 23.0847C105.589 21.6882 104.453 20.1143 103.476 18.4456C102.506 16.7593 101.707 15.0137 101.192 13.067L102.293 12.848V12.8421Z" fill="#1D3542"/>
<path d="M102.683 11.6231C102.292 12.5166 102.008 13.5462 101.831 14.5521C101.653 15.5699 101.6 16.6113 101.671 17.6468C101.73 18.6882 101.955 19.7178 102.328 20.7001C102.665 21.7001 103.245 22.5995 103.855 23.4693C103.174 22.6586 102.505 21.8006 102.073 20.8125C101.606 19.8421 101.275 18.7947 101.121 17.7178C100.949 16.6409 100.914 15.5403 101.008 14.4515C101.109 13.351 101.292 12.2918 101.659 11.1971L102.695 11.6291L102.683 11.6231Z" fill="#1D3542"/>
<path d="M103.611 12.7067C103.126 13.0203 102.617 13.4286 102.162 13.8428C101.694 14.2629 101.256 14.7185 100.848 15.1978C100.434 15.6771 100.055 16.186 99.7121 16.7304C99.3571 17.2629 99.073 17.8369 98.7949 18.4227C98.9843 17.8073 99.1855 17.186 99.4636 16.5943C99.7298 15.9966 100.043 15.4227 100.393 14.8664C100.742 14.3102 101.126 13.7718 101.552 13.2629C101.978 12.7481 102.416 12.2688 102.955 11.8014L103.617 12.7067H103.611Z" fill="#1D3542"/>
<g style="mix-blend-mode:multiply" opacity="0.56">
<path d="M193.949 199.428C193.949 200.92 154.813 202.133 106.535 202.133C58.2572 202.133 19.1211 200.92 19.1211 199.428C19.1211 197.937 58.2572 196.724 106.535 196.724C154.813 196.724 193.949 197.937 193.949 199.428Z" fill="#A7D3DF"/>
</g>
</g>
</svg>
