<svg width="33" height="33" viewBox="0 0 33 33" fill="none" xmlns="http://www.w3.org/2000/svg">
<circle cx="16.3652" cy="16.2637" r="16.1387" fill="#6D597A"/>
<circle cx="16.3652" cy="16.2637" r="16.1387" fill="black" fill-opacity="0.2"/>
<path d="M16.3633 15.0547C17.2991 15.0547 18.0578 15.8134 18.0578 16.7492C18.0578 17.6851 17.2991 18.4437 16.3633 18.4437C15.4274 18.4437 14.6687 17.6851 14.6687 16.7492C14.6687 15.8134 15.4274 15.0547 16.3633 15.0547Z" fill="#A0A0A0"/>
<path d="M9.58516 15.0547C10.521 15.0547 11.2797 15.8134 11.2797 16.7492C11.2797 17.6851 10.521 18.4437 9.58516 18.4437C8.64929 18.4437 7.89063 17.6851 7.89063 16.7492C7.89062 15.8134 8.64929 15.0547 9.58516 15.0547Z" fill="#A0A0A0"/>
<path d="M23.1414 15.0547C24.0773 15.0547 24.8359 15.8134 24.8359 16.7492C24.8359 17.6851 24.0773 18.4437 23.1414 18.4437C22.2055 18.4437 21.4469 17.6851 21.4469 16.7492C21.4469 15.8134 22.2055 15.0547 23.1414 15.0547Z" fill="#A0A0A0"/>
</svg>
