<svg width="24" height="25" viewBox="0 0 24 25" fill="none" xmlns="http://www.w3.org/2000/svg">
<path d="M20.75 10.6641C20.75 10.2498 20.4142 9.91406 20 9.91406C19.5858 9.91406 19.25 10.2498 19.25 10.6641H20.75ZM4.75 10.6641C4.75 10.2498 4.41421 9.91406 4 9.91406C3.58579 9.91406 3.25 10.2498 3.25 10.6641H4.75ZM9.8181 21.9365C9.41625 22.0369 9.17193 22.4441 9.27239 22.846C9.37285 23.2478 9.78006 23.4921 10.1819 23.3917L9.8181 21.9365ZM10.7873 22.4672L10.6054 21.7396L10.7873 22.4672ZM13.2127 22.4672L13.3946 21.7396L13.2127 22.4672ZM13.8181 23.3917C14.2199 23.4921 14.6271 23.2478 14.7276 22.846C14.8281 22.4441 14.5837 22.0369 14.1819 21.9365L13.8181 23.3917ZM12 22.3179V23.0679V22.3179ZM15.25 6.66406V10.6641H16.75V6.66406H15.25ZM8.75 10.6641V6.66406H7.25V10.6641H8.75ZM12 13.9141C10.2051 13.9141 8.75 12.459 8.75 10.6641H7.25C7.25 13.2874 9.37665 15.4141 12 15.4141V13.9141ZM15.25 10.6641C15.25 12.459 13.7949 13.9141 12 13.9141V15.4141C14.6234 15.4141 16.75 13.2874 16.75 10.6641H15.25ZM12 3.41406C13.7949 3.41406 15.25 4.86914 15.25 6.66406H16.75C16.75 4.04071 14.6234 1.91406 12 1.91406V3.41406ZM12 1.91406C9.37665 1.91406 7.25 4.04071 7.25 6.66406H8.75C8.75 4.86914 10.2051 3.41406 12 3.41406V1.91406ZM19.25 10.6641C19.25 14.6681 16.0041 17.9141 12 17.9141V19.4141C16.8325 19.4141 20.75 15.4966 20.75 10.6641H19.25ZM12 17.9141C7.99594 17.9141 4.75 14.6681 4.75 10.6641H3.25C3.25 15.4966 7.16751 19.4141 12 19.4141V17.9141ZM11.25 18.6641V21.6641H12.75V18.6641H11.25ZM10.1819 23.3917L10.9692 23.1948L10.6054 21.7396L9.8181 21.9365L10.1819 23.3917ZM13.0308 23.1948L13.8181 23.3917L14.1819 21.9365L13.3946 21.7396L13.0308 23.1948ZM10.9692 23.1948C11.3076 23.1102 11.6538 23.0679 12 23.0679V21.5679C11.5316 21.5679 11.0632 21.6252 10.6054 21.7396L10.9692 23.1948ZM12 23.0679C12.3462 23.0679 12.6924 23.1102 13.0308 23.1948L13.3946 21.7396C12.9368 21.6252 12.4684 21.5679 12 21.5679V23.0679ZM11.25 21.6641V22.3179H12.75V21.6641H11.25Z" fill="#4EA692"/>
</svg>
