<svg width="25" height="25" viewBox="0 0 25 25" fill="none" xmlns="http://www.w3.org/2000/svg">
<path d="M21.1484 10.8027C21.1484 10.3885 20.8127 10.0527 20.3984 10.0527C19.9842 10.0527 19.6484 10.3885 19.6484 10.8027H21.1484ZM5.14844 10.8027C5.14844 10.3885 4.81265 10.0527 4.39844 10.0527C3.98422 10.0527 3.64844 10.3885 3.64844 10.8027H5.14844ZM10.2165 22.0751C9.81469 22.1756 9.57037 22.5828 9.67083 22.9846C9.77129 23.3865 10.1785 23.6308 10.5803 23.5303L10.2165 22.0751ZM11.1858 22.6059L11.0039 21.8783L11.1858 22.6059ZM13.6111 22.6059L13.793 21.8783L13.6111 22.6059ZM14.2165 23.5303C14.6184 23.6308 15.0256 23.3865 15.126 22.9846C15.2265 22.5828 14.9822 22.1756 14.5803 22.0751L14.2165 23.5303ZM12.3984 22.4566V23.2066V22.4566ZM15.6484 6.80273V10.8027H17.1484V6.80273H15.6484ZM9.14844 10.8027V6.80273H7.64844V10.8027H9.14844ZM12.3984 14.0527C10.6035 14.0527 9.14844 12.5977 9.14844 10.8027H7.64844C7.64844 13.4261 9.77508 15.5527 12.3984 15.5527V14.0527ZM15.6484 10.8027C15.6484 12.5977 14.1934 14.0527 12.3984 14.0527V15.5527C15.0218 15.5527 17.1484 13.4261 17.1484 10.8027H15.6484ZM12.3984 3.55273C14.1934 3.55273 15.6484 5.00781 15.6484 6.80273H17.1484C17.1484 4.17938 15.0218 2.05273 12.3984 2.05273V3.55273ZM12.3984 2.05273C9.77508 2.05273 7.64844 4.17938 7.64844 6.80273H9.14844C9.14844 5.00781 10.6035 3.55273 12.3984 3.55273V2.05273ZM19.6484 10.8027C19.6484 14.8068 16.4025 18.0527 12.3984 18.0527V19.5527C17.2309 19.5527 21.1484 15.6352 21.1484 10.8027H19.6484ZM12.3984 18.0527C8.39437 18.0527 5.14844 14.8068 5.14844 10.8027H3.64844C3.64844 15.6352 7.56595 19.5527 12.3984 19.5527V18.0527ZM11.6484 18.8027V21.8027H13.1484V18.8027H11.6484ZM10.5803 23.5303L11.3677 23.3335L11.0039 21.8783L10.2165 22.0751L10.5803 23.5303ZM13.4292 23.3335L14.2165 23.5303L14.5803 22.0751L13.793 21.8783L13.4292 23.3335ZM11.3677 23.3335C11.706 23.2489 12.0522 23.2066 12.3984 23.2066V21.7066C11.9301 21.7066 11.4617 21.7638 11.0039 21.8783L11.3677 23.3335ZM12.3984 23.2066C12.7446 23.2066 13.0908 23.2489 13.4292 23.3335L13.793 21.8783C13.3352 21.7638 12.8668 21.7066 12.3984 21.7066V23.2066ZM11.6484 21.8027V22.4566H13.1484V21.8027H11.6484Z" fill="#4EA692"/>
</svg>
