<svg width="53" height="53" viewBox="0 0 53 53" fill="none" xmlns="http://www.w3.org/2000/svg">
<rect x="0.898438" y="0.952637" width="52.1016" height="51.2132" rx="25.6066" fill="#4EA692"/>
<circle cx="26.9498" cy="26.5592" r="22.0143" fill="#CBE2D1"/>
<path d="M34.1334 25.3354V34.2176C34.1334 35.7971 32.8529 37.0776 31.2734 37.0776H20.778C19.1984 37.0776 17.918 35.7971 17.918 34.2176V32.8831M31.5435 17.332H20.778C19.1984 17.332 17.918 18.6125 17.918 20.192V21.3515M17.918 24.1965V25.6999M17.918 28.8537V30.2264" stroke="#043A4E" stroke-width="1.1" stroke-linecap="round"/>
<circle cx="19.5062" cy="22.6863" r="0.99248" fill="#043A4E"/>
<rect x="15.9785" y="22.2637" width="3.52683" height="0.846262" rx="0.423131" fill="#043A4E"/>
<circle cx="19.5062" cy="27.2049" r="0.99248" fill="#043A4E"/>
<rect x="15.9785" y="26.7832" width="3.52683" height="0.843672" rx="0.421836" fill="#043A4E"/>
<circle cx="19.5062" cy="31.5901" r="0.99248" fill="#043A4E"/>
<rect x="15.9785" y="31.21" width="3.52683" height="0.760487" rx="0.380243" fill="#043A4E"/>
<path d="M34.8767 16.9508C34.9442 16.8763 35.0594 16.8707 35.1339 16.9383L37.0056 18.6352C37.0801 18.7028 37.0857 18.8179 37.0182 18.8924L29.3672 27.3312C29.3482 27.3522 29.3245 27.3685 29.2981 27.3787L26.6693 28.3975C26.5295 28.4517 26.3878 28.3232 26.4281 28.1789L27.1852 25.4631C27.1928 25.4358 27.2067 25.4107 27.2257 25.3897L34.8767 16.9508Z" stroke="#043A4E" stroke-width="1.1"/>
<path d="M26.9961 24.9668L29.785 27.4953" stroke="#043A4E" stroke-width="1.1"/>
<path d="M33.2188 18.2847L36.0077 20.8132" stroke="#043A4E" stroke-width="1.1"/>
</svg>
