<svg width="31" height="37" viewBox="0 0 31 37" fill="none" xmlns="http://www.w3.org/2000/svg">
<path d="M17.8981 0.61377H6.01525C2.72744 0.61377 0.0621338 3.27907 0.0621338 6.56689V18.4497C0.0621338 21.7375 2.72744 24.4028 6.01525 24.4028H17.8981C21.1859 24.4028 23.8512 21.7375 23.8512 18.4497V6.56689C23.8512 3.27907 21.1859 0.61377 17.8981 0.61377Z" fill="#FF9D48"/>
<path d="M16.5012 18.5566C17.0688 18.5566 17.4944 18.0198 17.3467 17.4713C16.7982 15.4235 14.7299 13.9009 12.2639 13.9009C9.79777 13.9009 7.72954 15.4235 7.18103 17.4713C7.0333 18.0198 7.45894 18.5566 8.02646 18.5566L11.2458 18.1266C11.8909 18.0403 12.5432 18.0388 13.1883 18.1236L16.5027 18.5566H16.5012Z" fill="#043A4E"/>
<path d="M7.9504 9.16618C8.46819 8.80928 8.87482 8.31782 9.3107 7.86439C9.37652 7.79564 9.45112 7.72397 9.54473 7.70935C9.67198 7.69033 9.79485 7.79126 9.84019 7.9112C9.887 8.03114 9.87383 8.1657 9.85335 8.29296C9.66467 9.41337 8.83533 10.3436 7.86411 10.9331C7.34632 11.2476 6.77002 11.4845 6.16593 11.5328C5.60572 11.5781 4.97677 11.4509 4.53504 11.0852C4.15474 10.7707 3.94997 10.2427 4.48824 10.0218C4.93728 9.83755 5.6379 9.94286 6.12205 9.8551C6.76856 9.73955 7.40775 9.54062 7.95333 9.16618H7.9504Z" fill="#043A4E"/>
<path d="M15.963 9.16618C15.4452 8.80928 15.0386 8.31782 14.6027 7.86439C14.5369 7.79564 14.4623 7.72397 14.3687 7.70935C14.2414 7.69033 14.1185 7.79126 14.0732 7.9112C14.0264 8.03114 14.0396 8.1657 14.06 8.29296C14.2487 9.41337 15.0781 10.3436 16.0493 10.9331C16.5671 11.2476 17.1434 11.4845 17.7475 11.5328C18.3077 11.5781 18.9366 11.4509 19.3783 11.0852C19.7586 10.7707 19.9634 10.2427 19.4252 10.0218C18.9761 9.83755 18.2755 9.94286 17.7913 9.8551C17.1448 9.73955 16.5071 9.54062 15.9601 9.16618H15.963Z" fill="#043A4E"/>
<path d="M12.3082 11.8779H24.7612C28.204 11.8779 30.9999 14.6739 30.9999 18.1167V30.5697C30.9999 34.0125 28.204 36.8084 24.7612 36.8084H12.3082C8.8654 36.8084 6.06946 34.0125 6.06946 30.5697V18.1167C6.06946 14.6739 8.8654 11.8779 12.3082 11.8779Z" fill="#6D597A"/>
<path d="M12.9366 22.667C13.5546 22.667 14.0556 21.8222 14.0556 20.78C14.0556 19.7379 13.5546 18.8931 12.9366 18.8931C12.3186 18.8931 11.8176 19.7379 11.8176 20.78C11.8176 21.8222 12.3186 22.667 12.9366 22.667Z" fill="#CBE2D1"/>
<path d="M24.1327 22.667C24.7507 22.667 25.2517 21.8222 25.2517 20.78C25.2517 19.7379 24.7507 18.8931 24.1327 18.8931C23.5147 18.8931 23.0137 19.7379 23.0137 20.78C23.0137 21.8222 23.5147 22.667 24.1327 22.667Z" fill="#CBE2D1"/>
<path d="M22.3776 25.0601C23.3908 25.0601 24.0484 26.1269 23.5977 27.0344C22.747 28.7451 20.8232 29.9392 18.5868 29.9392C16.3503 29.9392 14.4266 28.7451 13.5759 27.0344C13.1252 26.1269 13.7813 25.0601 14.796 25.0601H22.3776Z" fill="#CBE2D1"/>
</svg>
