<svg width="12" height="12" viewBox="0 0 12 12" fill="none" xmlns="http://www.w3.org/2000/svg">
<path d="M5.98418 12C3.07398 11.9869 0.571749 9.86061 0.0845272 6.97402C-0.467407 3.70214 1.74174 0.616589 5.01348 0.0927333C5.25967 0.053409 5.50821 0.0309379 5.75627 0.00378543C5.94713 -0.0172812 6.10375 0.0482594 6.17128 0.233645C6.2435 0.432608 6.14314 0.575392 5.97996 0.688684C5.18183 1.2425 4.63224 1.97421 4.38371 2.92034C3.79379 5.16697 5.39426 7.46604 7.70329 7.68607C9.202 7.82885 10.379 7.26052 11.2728 6.06862C11.3417 5.97687 11.4163 5.872 11.5134 5.82191C11.7544 5.69785 12.0114 5.89541 11.9992 6.19643C11.972 6.85417 11.8529 7.49788 11.6057 8.10787C10.7331 10.2627 9.13635 11.531 6.84654 11.9279C6.56331 11.9771 6.27163 11.9771 5.98418 12Z" fill="#6D597A"/>
</svg>
