<svg width="28" height="28" viewBox="0 0 28 28" fill="none" xmlns="http://www.w3.org/2000/svg">
<path d="M24.5004 14.9217C24.3168 16.9076 23.5715 18.8001 22.3517 20.3779C21.1318 21.9557 19.4878 23.1534 17.612 23.831C15.7363 24.5085 13.7064 24.6378 11.7598 24.2038C9.81323 23.7697 8.03053 22.7903 6.6203 21.3801C5.21007 19.9698 4.23064 18.1871 3.7966 16.2406C3.36256 14.294 3.49188 12.2641 4.16941 10.3883C4.84694 8.51259 6.04468 6.86859 7.62245 5.64871C9.20023 4.42883 11.0928 3.68352 13.0787 3.5C11.916 5.07298 11.3565 7.01102 11.502 8.96165C11.6475 10.9123 12.4882 12.7459 13.8713 14.129C15.2545 15.5122 17.0881 16.3529 19.0387 16.4984C20.9893 16.6438 22.9274 16.0844 24.5004 14.9217Z" stroke="#FF9D48" stroke-width="2" stroke-linecap="round" stroke-linejoin="round"/>
</svg>
