<svg width="25" height="25" viewBox="0 0 25 25" fill="none" xmlns="http://www.w3.org/2000/svg">
<path d="M12.3398 2.45117V3.45117M12.3398 21.4512V22.4512M22.3398 12.4512H21.3398M3.33984 12.4512H2.33984M19.4098 5.38117L19.0178 5.77417M5.66184 19.1292L5.26884 19.5222M19.4098 19.5212L19.0178 19.1282M5.66184 5.77317L5.26884 5.38017M6.68084 10.4512C6.22761 11.7343 6.22399 13.1333 6.67058 14.4187C7.11716 15.7041 7.98743 16.7995 9.13856 17.5252C10.2897 18.2509 11.6533 18.5637 13.0056 18.4124C14.358 18.261 15.6187 17.6544 16.5809 16.6922C17.5431 15.73 18.1497 14.4693 18.301 13.117C18.4524 11.7646 18.1396 10.401 17.4139 9.24988C16.6882 8.09875 15.5928 7.22849 14.3074 6.7819C13.022 6.33532 11.6229 6.33894 10.3398 6.79217" stroke="#FF9D48" stroke-width="1.5" stroke-linecap="round"/>
</svg>
