<svg width="32" height="16" viewBox="0 0 32 16" fill="none" xmlns="http://www.w3.org/2000/svg">
<path d="M25.1719 4.41504C25.1719 6.62504 26.5219 8.41504 28.2019 8.41504C29.8819 8.41504 31.2319 6.62504 31.2319 4.41504C31.2319 2.20504 29.8819 0.415039 28.2019 0.415039C26.5219 0.415039 25.1719 2.20504 25.1719 4.41504Z" fill="#043A4E"/>
<path d="M3.03 8.41504C4.70342 8.41504 6.06 6.62418 6.06 4.41504C6.06 2.2059 4.70342 0.415039 3.03 0.415039C1.35658 0.415039 0 2.2059 0 4.41504C0 6.62418 1.35658 8.41504 3.03 8.41504Z" fill="#043A4E"/>
<path d="M26.7213 15.735H4.27125C3.08125 15.735 3.07125 13.875 4.27125 13.875H26.7213C27.9113 13.875 27.9213 15.735 26.7213 15.735Z" fill="#043A4E"/>
</svg>
