<svg width="9" height="9" viewBox="0 0 9 9" fill="none" xmlns="http://www.w3.org/2000/svg">
<path opacity="0.48" d="M0.171656 0.503143C0.225707 0.452618 0.289917 0.412531 0.360609 0.38518C0.431301 0.357829 0.507085 0.34375 0.583622 0.34375C0.660158 0.34375 0.735942 0.357829 0.806634 0.38518C0.877326 0.412531 0.941535 0.452618 0.995586 0.503143L4.86387 4.10999C4.90702 4.15014 4.94126 4.19784 4.96462 4.25034C4.98798 4.30285 5 4.35914 5 4.41598C5 4.47283 4.98798 4.52911 4.96462 4.58162C4.94126 4.63413 4.90702 4.68182 4.86387 4.72198L0.995586 8.32882C0.767493 8.5415 0.39975 8.5415 0.171656 8.32882C-0.0564375 8.11614 -0.0564375 7.77325 0.171656 7.56058L3.54186 4.41381L0.167002 1.26705C-0.0564365 1.05871 -0.0564375 0.711481 0.171656 0.503143Z" fill="#CBE2D1"/>
<path d="M4.17166 0.503143C4.22571 0.452618 4.28992 0.412531 4.36061 0.38518C4.4313 0.357829 4.50709 0.34375 4.58362 0.34375C4.66016 0.34375 4.73594 0.357829 4.80663 0.38518C4.87733 0.412531 4.94154 0.452618 4.99559 0.503143L8.86387 4.10999C8.90702 4.15014 8.94126 4.19784 8.96462 4.25034C8.98798 4.30285 9 4.35914 9 4.41598C9 4.47283 8.98798 4.52911 8.96462 4.58162C8.94126 4.63413 8.90702 4.68182 8.86387 4.72198L4.99559 8.32882C4.76749 8.5415 4.39975 8.5415 4.17166 8.32882C3.94356 8.11614 3.94356 7.77325 4.17166 7.56058L7.54186 4.41381L4.167 1.26705C3.94356 1.05871 3.94356 0.711481 4.17166 0.503143Z" fill="#CBE2D1"/>
</svg>
