<svg width="21" height="12" viewBox="0 0 21 12" fill="none" xmlns="http://www.w3.org/2000/svg">
<path d="M14.3155 9.64809C14.3748 9.70144 14.4453 9.74377 14.5228 9.77266C14.6004 9.80154 14.6836 9.81641 14.7675 9.81641C14.8515 9.81641 14.9347 9.80154 15.0122 9.77266C15.0898 9.74377 15.1603 9.70144 15.2196 9.64809L19.4639 5.83934C19.5113 5.79694 19.5488 5.74657 19.5745 5.69113C19.6001 5.63568 19.6133 5.57624 19.6133 5.51622C19.6133 5.45619 19.6001 5.39675 19.5745 5.3413C19.5488 5.28586 19.5113 5.23549 19.4639 5.19309L15.2196 1.38434C14.9693 1.15976 14.5658 1.15976 14.3155 1.38434C14.0653 1.60892 14.0653 1.97101 14.3155 2.19559L18.0134 5.51851L14.3104 8.84142C14.0653 9.06142 14.0653 9.42809 14.3155 9.64809Z" fill="#4EA692"/>
<path d="M18.177 5.53906L3.43359 5.53906" stroke="#4EA692" stroke-width="1.5" stroke-linecap="round"/>
</svg>
