<svg width="319" height="197" viewBox="0 0 319 197" fill="none" xmlns="http://www.w3.org/2000/svg">
<path opacity="0.2" fill-rule="evenodd" clip-rule="evenodd" d="M304.333 98C299.547 98 295.667 101.88 295.667 106.667L288 106.667C283.029 106.667 279 110.696 279 115.667C279 120.637 283.029 124.667 288 124.667H310C314.971 124.667 319 120.637 319 115.667C319 111.748 316.496 108.414 313 107.179V106.667C313 101.88 309.12 98 304.333 98Z" fill="white" fill-opacity="0.23"/>
<path style="mix-blend-mode:color-dodge" d="M246.393 20.5727C253.253 25.2127 255.063 34.5328 250.423 41.3928C245.783 48.2528 236.463 50.0627 229.603 45.4227C222.743 40.7827 220.933 31.4627 225.573 24.6027C230.213 17.7427 239.533 15.9327 246.393 20.5727Z" fill="url(#paint0_radial_22089_49702)"/>
<mask id="mask0_22089_49702" style="mask-type:alpha" maskUnits="userSpaceOnUse" x="0" y="0" width="250" height="197">
<rect width="250" height="196.875" transform="matrix(-1 0 0 1 250 0)" fill="#D9D9D9"/>
</mask>
<g mask="url(#mask0_22089_49702)">
<path d="M-41.6668 156.658C-37.2576 150.857 -22.5216 140.994 1.14885 147.956C30.7369 156.658 53.7111 140.298 61.7173 126.722C69.7235 113.146 56.4959 100.615 48.1416 108.621C39.7873 116.627 43.9648 119.76 45.0091 118.368C46.0534 116.976 43.6168 105.14 33.522 106.185C23.4273 107.229 19.9463 118.716 29.693 129.855C39.4396 140.994 51.2748 150.045 73.2048 149C95.1348 147.956 81.211 134.032 124.027 151.089C141.431 158.051 142.128 156.658 141.779 154.222C141.431 151.785 126.541 153.927 134.895 174.813C143.25 195.699 169.796 183.81 167.189 167.449C164.583 151.089 154.687 144.605 156.249 135.751C157.812 126.896 173.232 117.357 175.197 102.704C176.23 94.9943 172.916 88.8752 173.456 82.8622C173.996 76.8493 180.729 73.4633 182.507 67.5461C183.528 64.1464 183.187 54.1292 175.197 53.2742C167.187 52.4172 164.057 58.4952 165.45 65.8052C166.842 73.1152 170.671 89.4756 153.614 88.4313C136.558 87.3871 124.723 79.729 120.197 80.0771C115.672 80.4252 116.963 89.7198 121.242 87.7352C125.52 85.7505 123.958 76.8964 124.723 73.4633C125.487 70.0302 132.032 68.2418 134.469 72.7671C136.906 77.2923 133.077 82.5137 128.203 79.0328C123.33 75.5518 128.203 65.4571 134.469 70.3304C140.735 75.2037 147.001 81.4694 148.741 75.8999C150.482 70.3304 144.216 63.7166 141.083 64.7609C137.95 65.8052 136.21 74.1595 142.475 79.0328C148.741 83.9061 152.918 72.0709 150.83 62.3242C148.741 52.5776 160.937 54.5005 162.317 63.3685C163.659 71.9949 155.208 79.5005 151.231 70.3304" stroke="#CBE2D1"/>
<path d="M242.379 31.3421C237.273 36.3314 223.582 45.5443 209.658 42.4811C195.734 39.4179 196.342 25.8298 198.171 18.8107C200 11.7915 194.792 5.02182 187.032 10.1083C179.272 15.1947 187.325 30.6461 188.021 33.0827C188.717 35.5194 190.044 35.3663 188.772 51.1837C187.5 67.001 207.292 74.8116 208.962 87.0374C210.632 99.2632 204.413 101.511 195.833 114.395C187.254 127.279 195.773 146.554 210.938 146.166C226.102 145.778 236.461 132.29 230.892 113.493C226.436 98.4549 238.403 74.1533 242.379 65.1074C246.354 56.0616 245.024 45.1964 236.113 40.7408C224.974 35.1713 221.493 34.8234 219.752 33.0827C218.012 31.3421 212.79 26.4689 209.309 28.5575C205.828 30.6461 199.911 26.4689 201.999 18.1147C204.088 9.76039 211.398 10.4566 212.442 13.9375C213.486 17.4185 209.657 34.127 221.145 33.0827C232.632 32.0384 234.024 17.0704 228.803 15.678C223.581 14.2856 211.05 26.817 222.189 34.127C233.328 41.437 245.511 32.7348 242.03 25.7727C238.549 18.8106 230.543 25.0767 230.891 28.2094C231.239 31.3421 234.372 36.5637 243.771 34.8232C253.169 33.0827 250.385 44.2214 245.511 42.4811C241.613 41.0889 241.102 37.9561 241.334 36.5637" stroke="#CBE2D1"/>
</g>
<defs>
<radialGradient id="paint0_radial_22089_49702" cx="0" cy="0" r="1" gradientUnits="userSpaceOnUse" gradientTransform="translate(237.993 33.0027) scale(15 15)">
<stop stop-color="white"/>
<stop offset="0.28" stop-color="#A8A8A8" stop-opacity="0.4356"/>
<stop offset="0.54" stop-color="#606060" stop-opacity="0.1444"/>
<stop offset="0.75" stop-color="#2C2C2C" stop-opacity="0.0289"/>
<stop offset="0.91" stop-color="#0C0C0C" stop-opacity="0.01"/>
<stop offset="1" stop-opacity="0"/>
</radialGradient>
</defs>
</svg>
