<svg width="296" height="179" viewBox="0 0 296 179" fill="none" xmlns="http://www.w3.org/2000/svg">
<mask id="path-1-inside-1_22044_49989" fill="white">
<path d="M82.7971 138.894C81.0529 138.001 79.2667 137.243 77.6441 136.224C66.6087 129.322 59.0757 119.769 55.9615 107.008C54.8907 102.627 55.0544 98.2035 56.4478 93.8689C61.2921 78.8168 78.4765 75.4407 89.3482 87.4581C93.8091 92.3866 95.8151 98.3859 96.3154 104.914C97.2272 116.711 93.6875 127.171 86.6922 136.579C86.1404 137.318 84.7797 138.16 86.9681 138.782C99.1117 142.242 114.276 138.352 121 125.203C123.6 120.12 124.633 114.64 124.933 108.996C125.466 98.947 123.319 89.1695 121.921 79.3125C120.621 70.1756 119.873 61.048 122.468 51.9719C126.92 36.4008 143.113 26.4877 158.754 29.8123C174.386 33.1369 185.159 49.1008 182.662 65.1722C181.718 71.251 179.67 77.0914 178.945 83.2169C178.052 90.75 180.32 97.0813 185.968 102.089C191.159 106.69 197.401 108.884 204.238 109.604C205.851 109.772 206.412 109.267 206.501 107.649C207.235 94.8695 209.98 82.5436 215.203 70.8302C220.72 58.4575 227.884 47.1883 238.667 38.7061C247.247 31.9539 256.96 29.0548 267.78 32.1222C275.416 34.2872 280.012 40.165 283.907 46.5851C289.36 55.5724 292.081 65.5697 293.895 75.7914C298.782 103.314 294.045 129.056 279.105 152.791C273.442 161.788 266.022 169.209 257.885 175.961C257.647 176.157 257.39 176.34 257.137 176.522C253.448 179.15 251.348 178.346 250.399 173.889C249.216 168.344 250.577 163.742 254.897 159.786C265.746 149.859 273.564 137.861 277.894 123.791C283.416 105.849 284.029 87.8041 277.679 69.895C275.177 62.8389 271.114 56.6432 265.75 51.3921C259.929 45.692 253.364 44.7381 246.06 48.3386C241.561 50.555 238.012 53.9171 234.837 57.7047C223.058 71.742 216.521 87.9257 215.17 106.195C214.964 108.954 215.044 108.968 217.648 108.364C219.313 107.976 220.954 107.401 222.642 107.191C225.209 106.873 225.728 105.353 225.906 103.062C226.528 95.1688 228.74 87.776 233.608 81.3699C235.314 79.1208 237.316 77.1802 239.967 76.0065C244.489 74.0099 248.776 74.9965 251.9 78.8308C254.542 82.076 255.674 85.9524 256.384 89.9644C258.25 100.537 257.722 110.899 253.373 120.863C252.723 122.355 251.872 123.763 251.072 125.189C250.82 125.638 250.502 126.297 249.838 125.932C249.085 125.516 249.674 124.974 249.931 124.562C253.092 119.437 254.883 113.831 255.594 107.902C256.534 100.093 256.31 92.3118 253.663 84.8301C250.114 74.7861 241.842 73.388 235.099 81.6271C229.708 88.2156 227.758 96.0853 226.986 104.357C226.869 105.601 227.463 105.662 228.384 105.316C230.554 104.502 232.724 103.684 234.884 102.87C234.786 102.58 234.781 102.384 234.697 102.346C233.841 101.949 232.032 102.225 232.275 101.224C232.569 100.022 234.141 100.869 235.104 101.056C239.055 101.823 239.088 101.884 236.988 105.377C236.535 106.129 236.324 107.911 235.183 107.247C234.084 106.616 235.716 105.61 235.866 104.689C235.889 104.54 235.964 104.395 236.137 103.913C233.117 104.993 230.297 105.984 227.487 107.008C226.738 107.28 226.832 107.99 226.832 108.608C226.846 113.775 227.36 118.885 229.221 123.744C232.429 132.105 239.724 134.232 246.934 128.967C248.501 127.826 249.225 128.607 249.604 130.061C251.638 137.865 252.704 145.791 252.335 153.867C252.237 155.962 251.989 158.056 251.666 160.133C251.33 162.283 250.011 163.579 247.823 163.943C238.424 165.51 231.199 161.582 225.532 154.587C219.135 146.694 216.241 137.262 214.707 127.358C213.931 122.346 213.557 117.3 213.683 112.227C213.716 110.81 213.183 110.558 211.897 110.637C207.614 110.899 207.515 110.857 207.637 115.168C208.142 133.217 211.799 150.374 222.231 165.552C224.134 168.316 226.28 170.887 228.609 173.305C229.544 174.273 230.493 175.241 229.867 176.774C229.193 178.42 227.791 178.378 226.341 178.378C175.452 178.397 124.563 178.42 73.6742 178.462C34.5548 178.495 -4.56938 178.542 -43.6888 178.593C-78.0528 178.64 -112.417 178.71 -146.785 178.734C-147.721 178.734 -149.404 179.379 -149.418 177.957C-149.427 177.027 -147.702 177.485 -146.771 177.48C-92.2211 177.396 -37.6708 177.35 16.8841 177.284C86.3181 177.205 155.757 177.116 225.191 177.032C225.658 177.032 226.126 177.041 226.594 177.032C227.351 177.008 228.254 177.2 228.6 176.255C228.927 175.362 228.23 174.829 227.692 174.268C219.089 165.295 213.533 154.624 210.232 142.728C207.558 133.077 206.234 123.22 206.309 113.199C206.323 111.577 206.024 110.927 204.214 110.829C199.178 110.548 194.432 109.094 190.032 106.583C180.17 100.958 175.957 92.2136 177.94 81.066C178.744 76.5536 179.866 72.0974 180.9 67.6271C184.926 50.2043 173.998 36.6813 162.757 32.3981C145.717 25.9032 126.448 36.9338 122.997 55.0814C121.243 64.2931 122.305 73.3833 123.731 82.4828C125.077 91.096 126.686 99.6905 126.275 108.467C125.947 115.463 124.699 122.248 120.743 128.228C114.482 137.683 105.34 141.382 94.3468 141.195C91.4617 141.148 88.5813 140.788 85.8599 139.778C84.3682 139.226 83.737 140.171 82.9327 141.012C75.5586 148.686 66.7818 153.951 56.2748 155.947C41.6903 158.72 28.7565 154.671 17.464 145.473C2.0612 132.923 -3.28346 116.51 -0.20665 97.0953C1.57959 85.8261 5.54016 75.1555 8.71983 64.2698C11.3711 55.203 13.5455 46.0521 13.1246 36.499C12.816 29.5551 11.1607 22.9573 7.73787 16.8691C1.21017 5.27263 -10.1198 0.797694 -22.1932 1.90591C-41.3321 3.65941 -56.1784 13.6474 -68.9112 27.2592C-76.8744 35.7742 -82.6493 45.6967 -86.7782 56.5964C-87.4094 58.2658 -87.2879 58.8082 -85.2959 59.2898C-70.328 62.9184 -58.2031 70.6899 -50.7917 84.5496C-45.793 93.8923 -44.8812 103.548 -50.8431 112.956C-57.7449 123.847 -70.5571 126.021 -80.7976 118.184C-87.704 112.9 -91.0334 105.592 -92.4455 97.287C-94.4702 85.3959 -93.217 73.7013 -89.8503 62.1983C-89.3219 60.3887 -89.4201 59.72 -91.5945 59.5517C-112.304 57.9525 -128.348 66.0981 -140.454 82.6465C-140.501 82.7072 -140.538 82.7821 -140.594 82.8335C-141.151 83.3338 -141.258 84.8535 -142.31 84.1475C-143.129 83.6004 -142.086 82.7774 -141.703 82.1882C-138.476 77.2504 -134.525 72.9718 -129.83 69.404C-118.439 60.7534 -105.669 56.7554 -91.3466 58.3219C-89.4108 58.5323 -88.5738 58.1068 -87.8443 56.1756C-79.5678 34.4135 -65.3668 17.7856 -44.6006 7.00743C-36.9928 3.06556 -28.8612 0.722878 -20.248 0.400234C-3.70432 -0.226351 9.06586 10.0188 13.1199 26.9038C15.5749 37.1209 14.4105 47.1649 12.0024 57.1716C9.51007 67.5336 5.66173 77.5029 3.05252 87.8368C0.649063 97.3525 -1.03432 107.041 1.17743 116.72C5.63834 136.247 18.0438 148.812 37.1686 153.965C54.9749 158.762 69.8773 152.426 82.409 139.595C82.5633 139.437 82.6334 139.198 82.7971 138.899V138.894ZM294.461 99.1247C294.47 83.2964 292.315 71.3118 288.41 59.6499C285.82 51.9111 282.168 44.7428 276.299 38.8604C271.348 33.8944 265.362 31.9258 258.479 32.3186C249.118 32.8517 241.444 37.0461 235.057 43.5972C217.569 61.5343 209.447 83.5022 207.73 108.149C207.698 108.598 207.511 109.272 208.002 109.417C209.694 109.922 211.406 109.482 213.056 109.131C214.202 108.888 213.702 107.691 213.758 106.92C214.964 89.0058 221.062 72.9671 232.158 58.8596C235.74 54.3052 239.724 50.1576 244.952 47.4221C252.793 43.3166 260.027 44.1863 266.433 50.2324C271.6 55.1048 275.481 60.9545 278.137 67.5102C284.623 83.5068 284.768 99.9944 281.2 116.604C277.459 134.017 268.813 148.742 255.748 160.796C251.825 164.416 250.6 168.568 251.652 173.637C252.335 176.929 253.611 177.583 256.221 175.507C259.326 173.038 262.342 170.429 265.157 167.637C285.156 147.811 293.788 123.323 294.456 99.12L294.461 99.1247ZM-92.1135 85.8682C-92.1369 89.927 -91.8096 93.9624 -91.0193 97.937C-89.5698 105.203 -86.6613 111.694 -80.7882 116.557C-72.175 123.688 -61.1397 123.169 -54.0649 115.046C-47.2847 107.266 -46.443 98.2409 -50.2446 89.0479C-56.9546 72.8222 -70.0054 64.2604 -86.6145 60.3653C-87.9986 60.0427 -88.1436 60.7674 -88.4429 61.7447C-90.8557 69.6098 -91.9779 77.6618 -92.1135 85.8682ZM95.1464 106.896C95.2119 99.7092 92.4577 92.2042 87.2486 87.1775C78.0883 78.3445 64.9394 80.0185 59.2066 90.7593C56.9762 94.9397 56.0316 99.438 56.8453 104.077C59.5714 119.568 68.582 130.276 82.4604 137.201C83.7323 137.837 84.3682 137.459 85.1351 136.453C91.3962 128.237 95.0903 119.119 95.1464 106.896ZM225.378 107.864C222.647 108.519 220.047 109.281 217.396 109.735C215.511 110.057 214.871 110.829 214.927 112.765C215.077 117.749 215.24 122.72 216.044 127.653C217.499 136.584 220.159 145.09 225.541 152.473C230.433 159.183 236.867 163.317 245.513 162.985C249.375 162.84 250.329 161.662 250.731 157.883C251.259 152.899 251.25 147.928 250.67 142.972C250.161 138.628 249.557 134.284 248.07 129.916C244.493 132.951 240.589 133.849 236.343 132.694C231.045 131.258 228.838 126.994 227.318 122.248C225.836 117.614 225.64 112.783 225.378 107.864Z"/>
</mask>
<path d="M82.7971 138.894C81.0529 138.001 79.2667 137.243 77.6441 136.224C66.6087 129.322 59.0757 119.769 55.9615 107.008C54.8907 102.627 55.0544 98.2035 56.4478 93.8689C61.2921 78.8168 78.4765 75.4407 89.3482 87.4581C93.8091 92.3866 95.8151 98.3859 96.3154 104.914C97.2272 116.711 93.6875 127.171 86.6922 136.579C86.1404 137.318 84.7797 138.16 86.9681 138.782C99.1117 142.242 114.276 138.352 121 125.203C123.6 120.12 124.633 114.64 124.933 108.996C125.466 98.947 123.319 89.1695 121.921 79.3125C120.621 70.1756 119.873 61.048 122.468 51.9719C126.92 36.4008 143.113 26.4877 158.754 29.8123C174.386 33.1369 185.159 49.1008 182.662 65.1722C181.718 71.251 179.67 77.0914 178.945 83.2169C178.052 90.75 180.32 97.0813 185.968 102.089C191.159 106.69 197.401 108.884 204.238 109.604C205.851 109.772 206.412 109.267 206.501 107.649C207.235 94.8695 209.98 82.5436 215.203 70.8302C220.72 58.4575 227.884 47.1883 238.667 38.7061C247.247 31.9539 256.96 29.0548 267.78 32.1222C275.416 34.2872 280.012 40.165 283.907 46.5851C289.36 55.5724 292.081 65.5697 293.895 75.7914C298.782 103.314 294.045 129.056 279.105 152.791C273.442 161.788 266.022 169.209 257.885 175.961C257.647 176.157 257.39 176.34 257.137 176.522C253.448 179.15 251.348 178.346 250.399 173.889C249.216 168.344 250.577 163.742 254.897 159.786C265.746 149.859 273.564 137.861 277.894 123.791C283.416 105.849 284.029 87.8041 277.679 69.895C275.177 62.8389 271.114 56.6432 265.75 51.3921C259.929 45.692 253.364 44.7381 246.06 48.3386C241.561 50.555 238.012 53.9171 234.837 57.7047C223.058 71.742 216.521 87.9257 215.17 106.195C214.964 108.954 215.044 108.968 217.648 108.364C219.313 107.976 220.954 107.401 222.642 107.191C225.209 106.873 225.728 105.353 225.906 103.062C226.528 95.1688 228.74 87.776 233.608 81.3699C235.314 79.1208 237.316 77.1802 239.967 76.0065C244.489 74.0099 248.776 74.9965 251.9 78.8308C254.542 82.076 255.674 85.9524 256.384 89.9644C258.25 100.537 257.722 110.899 253.373 120.863C252.723 122.355 251.872 123.763 251.072 125.189C250.82 125.638 250.502 126.297 249.838 125.932C249.085 125.516 249.674 124.974 249.931 124.562C253.092 119.437 254.883 113.831 255.594 107.902C256.534 100.093 256.31 92.3118 253.663 84.8301C250.114 74.7861 241.842 73.388 235.099 81.6271C229.708 88.2156 227.758 96.0853 226.986 104.357C226.869 105.601 227.463 105.662 228.384 105.316C230.554 104.502 232.724 103.684 234.884 102.87C234.786 102.58 234.781 102.384 234.697 102.346C233.841 101.949 232.032 102.225 232.275 101.224C232.569 100.022 234.141 100.869 235.104 101.056C239.055 101.823 239.088 101.884 236.988 105.377C236.535 106.129 236.324 107.911 235.183 107.247C234.084 106.616 235.716 105.61 235.866 104.689C235.889 104.54 235.964 104.395 236.137 103.913C233.117 104.993 230.297 105.984 227.487 107.008C226.738 107.28 226.832 107.99 226.832 108.608C226.846 113.775 227.36 118.885 229.221 123.744C232.429 132.105 239.724 134.232 246.934 128.967C248.501 127.826 249.225 128.607 249.604 130.061C251.638 137.865 252.704 145.791 252.335 153.867C252.237 155.962 251.989 158.056 251.666 160.133C251.33 162.283 250.011 163.579 247.823 163.943C238.424 165.51 231.199 161.582 225.532 154.587C219.135 146.694 216.241 137.262 214.707 127.358C213.931 122.346 213.557 117.3 213.683 112.227C213.716 110.81 213.183 110.558 211.897 110.637C207.614 110.899 207.515 110.857 207.637 115.168C208.142 133.217 211.799 150.374 222.231 165.552C224.134 168.316 226.28 170.887 228.609 173.305C229.544 174.273 230.493 175.241 229.867 176.774C229.193 178.42 227.791 178.378 226.341 178.378C175.452 178.397 124.563 178.42 73.6742 178.462C34.5548 178.495 -4.56938 178.542 -43.6888 178.593C-78.0528 178.64 -112.417 178.71 -146.785 178.734C-147.721 178.734 -149.404 179.379 -149.418 177.957C-149.427 177.027 -147.702 177.485 -146.771 177.48C-92.2211 177.396 -37.6708 177.35 16.8841 177.284C86.3181 177.205 155.757 177.116 225.191 177.032C225.658 177.032 226.126 177.041 226.594 177.032C227.351 177.008 228.254 177.2 228.6 176.255C228.927 175.362 228.23 174.829 227.692 174.268C219.089 165.295 213.533 154.624 210.232 142.728C207.558 133.077 206.234 123.22 206.309 113.199C206.323 111.577 206.024 110.927 204.214 110.829C199.178 110.548 194.432 109.094 190.032 106.583C180.17 100.958 175.957 92.2136 177.94 81.066C178.744 76.5536 179.866 72.0974 180.9 67.6271C184.926 50.2043 173.998 36.6813 162.757 32.3981C145.717 25.9032 126.448 36.9338 122.997 55.0814C121.243 64.2931 122.305 73.3833 123.731 82.4828C125.077 91.096 126.686 99.6905 126.275 108.467C125.947 115.463 124.699 122.248 120.743 128.228C114.482 137.683 105.34 141.382 94.3468 141.195C91.4617 141.148 88.5813 140.788 85.8599 139.778C84.3682 139.226 83.737 140.171 82.9327 141.012C75.5586 148.686 66.7818 153.951 56.2748 155.947C41.6903 158.72 28.7565 154.671 17.464 145.473C2.0612 132.923 -3.28346 116.51 -0.20665 97.0953C1.57959 85.8261 5.54016 75.1555 8.71983 64.2698C11.3711 55.203 13.5455 46.0521 13.1246 36.499C12.816 29.5551 11.1607 22.9573 7.73787 16.8691C1.21017 5.27263 -10.1198 0.797694 -22.1932 1.90591C-41.3321 3.65941 -56.1784 13.6474 -68.9112 27.2592C-76.8744 35.7742 -82.6493 45.6967 -86.7782 56.5964C-87.4094 58.2658 -87.2879 58.8082 -85.2959 59.2898C-70.328 62.9184 -58.2031 70.6899 -50.7917 84.5496C-45.793 93.8923 -44.8812 103.548 -50.8431 112.956C-57.7449 123.847 -70.5571 126.021 -80.7976 118.184C-87.704 112.9 -91.0334 105.592 -92.4455 97.287C-94.4702 85.3959 -93.217 73.7013 -89.8503 62.1983C-89.3219 60.3887 -89.4201 59.72 -91.5945 59.5517C-112.304 57.9525 -128.348 66.0981 -140.454 82.6465C-140.501 82.7072 -140.538 82.7821 -140.594 82.8335C-141.151 83.3338 -141.258 84.8535 -142.31 84.1475C-143.129 83.6004 -142.086 82.7774 -141.703 82.1882C-138.476 77.2504 -134.525 72.9718 -129.83 69.404C-118.439 60.7534 -105.669 56.7554 -91.3466 58.3219C-89.4108 58.5323 -88.5738 58.1068 -87.8443 56.1756C-79.5678 34.4135 -65.3668 17.7856 -44.6006 7.00743C-36.9928 3.06556 -28.8612 0.722878 -20.248 0.400234C-3.70432 -0.226351 9.06586 10.0188 13.1199 26.9038C15.5749 37.1209 14.4105 47.1649 12.0024 57.1716C9.51007 67.5336 5.66173 77.5029 3.05252 87.8368C0.649063 97.3525 -1.03432 107.041 1.17743 116.72C5.63834 136.247 18.0438 148.812 37.1686 153.965C54.9749 158.762 69.8773 152.426 82.409 139.595C82.5633 139.437 82.6334 139.198 82.7971 138.899V138.894ZM294.461 99.1247C294.47 83.2964 292.315 71.3118 288.41 59.6499C285.82 51.9111 282.168 44.7428 276.299 38.8604C271.348 33.8944 265.362 31.9258 258.479 32.3186C249.118 32.8517 241.444 37.0461 235.057 43.5972C217.569 61.5343 209.447 83.5022 207.73 108.149C207.698 108.598 207.511 109.272 208.002 109.417C209.694 109.922 211.406 109.482 213.056 109.131C214.202 108.888 213.702 107.691 213.758 106.92C214.964 89.0058 221.062 72.9671 232.158 58.8596C235.74 54.3052 239.724 50.1576 244.952 47.4221C252.793 43.3166 260.027 44.1863 266.433 50.2324C271.6 55.1048 275.481 60.9545 278.137 67.5102C284.623 83.5068 284.768 99.9944 281.2 116.604C277.459 134.017 268.813 148.742 255.748 160.796C251.825 164.416 250.6 168.568 251.652 173.637C252.335 176.929 253.611 177.583 256.221 175.507C259.326 173.038 262.342 170.429 265.157 167.637C285.156 147.811 293.788 123.323 294.456 99.12L294.461 99.1247ZM-92.1135 85.8682C-92.1369 89.927 -91.8096 93.9624 -91.0193 97.937C-89.5698 105.203 -86.6613 111.694 -80.7882 116.557C-72.175 123.688 -61.1397 123.169 -54.0649 115.046C-47.2847 107.266 -46.443 98.2409 -50.2446 89.0479C-56.9546 72.8222 -70.0054 64.2604 -86.6145 60.3653C-87.9986 60.0427 -88.1436 60.7674 -88.4429 61.7447C-90.8557 69.6098 -91.9779 77.6618 -92.1135 85.8682ZM95.1464 106.896C95.2119 99.7092 92.4577 92.2042 87.2486 87.1775C78.0883 78.3445 64.9394 80.0185 59.2066 90.7593C56.9762 94.9397 56.0316 99.438 56.8453 104.077C59.5714 119.568 68.582 130.276 82.4604 137.201C83.7323 137.837 84.3682 137.459 85.1351 136.453C91.3962 128.237 95.0903 119.119 95.1464 106.896ZM225.378 107.864C222.647 108.519 220.047 109.281 217.396 109.735C215.511 110.057 214.871 110.829 214.927 112.765C215.077 117.749 215.24 122.72 216.044 127.653C217.499 136.584 220.159 145.09 225.541 152.473C230.433 159.183 236.867 163.317 245.513 162.985C249.375 162.84 250.329 161.662 250.731 157.883C251.259 152.899 251.25 147.928 250.67 142.972C250.161 138.628 249.557 134.284 248.07 129.916C244.493 132.951 240.589 133.849 236.343 132.694C231.045 131.258 228.838 126.994 227.318 122.248C225.836 117.614 225.64 112.783 225.378 107.864Z" fill="#CBE2D1" stroke="#043A4E" stroke-width="0.2" mask="url(#path-1-inside-1_22044_49989)"/>
</svg>
