<svg width="336" height="212" viewBox="0 0 336 212" fill="none" xmlns="http://www.w3.org/2000/svg">
<mask id="mask0_22089_49701" style="mask-type:alpha" maskUnits="userSpaceOnUse" x="0" y="0" width="336" height="212">
<rect width="336" height="212" fill="#D9D9D9"/>
</mask>
<g mask="url(#mask0_22089_49701)">
<path d="M307.422 28.4629C307.422 34.7388 302.333 39.8243 296.061 39.8243C302.336 39.8243 307.422 44.9128 307.422 51.1857C307.422 44.9098 312.51 39.8243 318.783 39.8243C312.507 39.8243 307.422 34.7357 307.422 28.4629Z" fill="#4EA692"/>
</g>
<mask id="mask1_22089_49701" style="mask-type:alpha" maskUnits="userSpaceOnUse" x="-4" y="4" width="328" height="208">
<path d="M-4 4H324V212H-4V4Z" fill="#D9D9D9"/>
</mask>
<g mask="url(#mask1_22089_49701)">
<mask id="path-4-inside-1_22089_49701" fill="white">
<path d="M82.7971 152.894C81.0529 152.001 79.2667 151.243 77.6441 150.224C66.6087 143.322 59.0757 133.769 55.9615 121.008C54.8907 116.627 55.0544 112.204 56.4478 107.869C61.2921 92.8168 78.4765 89.4407 89.3482 101.458C93.8091 106.387 95.8151 112.386 96.3154 118.914C97.2272 130.711 93.6875 141.171 86.6922 150.579C86.1404 151.318 84.7797 152.16 86.9681 152.782C99.1117 156.242 114.276 152.352 121 139.203C123.6 134.12 124.633 128.64 124.933 122.996C125.466 112.947 123.319 103.169 121.921 93.3125C120.621 84.1756 119.873 75.048 122.468 65.9719C126.92 50.4008 143.113 40.4877 158.754 43.8123C174.386 47.1369 185.159 63.1008 182.662 79.1722C181.718 85.251 179.67 91.0914 178.945 97.2169C178.052 104.75 180.32 111.081 185.968 116.089C191.159 120.69 197.401 122.884 204.238 123.604C205.851 123.772 206.412 123.267 206.501 121.649C207.235 108.87 209.98 96.5436 215.203 84.8302C220.72 72.4575 227.884 61.1883 238.667 52.7061C247.247 45.9539 256.96 43.0548 267.78 46.1222C275.416 48.2872 280.012 54.165 283.907 60.5851C289.36 69.5724 292.081 79.5697 293.895 89.7914C298.782 117.314 294.045 143.056 279.105 166.791C273.442 175.788 266.022 183.209 257.885 189.961C257.647 190.157 257.39 190.34 257.137 190.522C253.448 193.15 251.348 192.346 250.399 187.889C249.216 182.344 250.577 177.742 254.897 173.786C265.746 163.859 273.564 151.861 277.894 137.791C283.416 119.849 284.029 101.804 277.679 83.895C275.177 76.8389 271.114 70.6432 265.75 65.3921C259.929 59.692 253.364 58.7381 246.06 62.3386C241.561 64.555 238.012 67.9171 234.837 71.7047C223.058 85.742 216.521 101.926 215.17 120.195C214.964 122.954 215.044 122.968 217.648 122.364C219.313 121.976 220.954 121.401 222.642 121.191C225.209 120.873 225.728 119.353 225.906 117.062C226.528 109.169 228.74 101.776 233.608 95.3699C235.314 93.1208 237.316 91.1802 239.967 90.0065C244.489 88.0099 248.776 88.9965 251.9 92.8308C254.542 96.076 255.674 99.9524 256.384 103.964C258.25 114.537 257.722 124.899 253.373 134.863C252.723 136.355 251.872 137.763 251.072 139.189C250.82 139.638 250.502 140.297 249.838 139.932C249.085 139.516 249.674 138.974 249.931 138.562C253.092 133.437 254.883 127.831 255.594 121.902C256.534 114.093 256.31 106.312 253.663 98.8301C250.114 88.7861 241.842 87.388 235.099 95.6271C229.708 102.216 227.758 110.085 226.986 118.357C226.869 119.601 227.463 119.662 228.384 119.316C230.554 118.502 232.724 117.684 234.884 116.87C234.786 116.58 234.781 116.384 234.697 116.346C233.841 115.949 232.032 116.225 232.275 115.224C232.569 114.022 234.141 114.869 235.104 115.056C239.055 115.823 239.088 115.884 236.988 119.377C236.535 120.129 236.324 121.911 235.183 121.247C234.084 120.616 235.716 119.61 235.866 118.689C235.889 118.54 235.964 118.395 236.137 117.913C233.117 118.993 230.297 119.984 227.487 121.008C226.738 121.28 226.832 121.99 226.832 122.608C226.846 127.775 227.36 132.885 229.221 137.744C232.429 146.105 239.724 148.232 246.934 142.967C248.501 141.826 249.225 142.607 249.604 144.061C251.638 151.865 252.704 159.791 252.335 167.867C252.237 169.962 251.989 172.056 251.666 174.133C251.33 176.283 250.011 177.579 247.823 177.943C238.424 179.51 231.199 175.582 225.532 168.587C219.135 160.694 216.241 151.262 214.707 141.358C213.931 136.346 213.557 131.3 213.683 126.227C213.716 124.81 213.183 124.558 211.897 124.637C207.614 124.899 207.515 124.857 207.637 129.168C208.142 147.217 211.799 164.374 222.231 179.552C224.134 182.316 226.28 184.887 228.609 187.305C229.544 188.273 230.493 189.241 229.867 190.774C229.193 192.42 227.791 192.378 226.341 192.378C175.452 192.397 124.563 192.42 73.6742 192.462C34.5548 192.495 -4.56938 192.542 -43.6888 192.593C-78.0528 192.64 -112.417 192.71 -146.785 192.734C-147.721 192.734 -149.404 193.379 -149.418 191.957C-149.427 191.027 -147.702 191.485 -146.771 191.48C-92.2211 191.396 -37.6708 191.35 16.8841 191.284C86.3181 191.205 155.757 191.116 225.191 191.032C225.658 191.032 226.126 191.041 226.594 191.032C227.351 191.008 228.254 191.2 228.6 190.255C228.927 189.362 228.23 188.829 227.692 188.268C219.089 179.295 213.533 168.624 210.232 156.728C207.558 147.077 206.234 137.22 206.309 127.199C206.323 125.577 206.024 124.927 204.214 124.829C199.178 124.548 194.432 123.094 190.032 120.583C180.17 114.958 175.957 106.214 177.94 95.066C178.744 90.5536 179.866 86.0974 180.9 81.6271C184.926 64.2043 173.998 50.6813 162.757 46.3981C145.717 39.9032 126.448 50.9338 122.997 69.0814C121.243 78.2931 122.305 87.3833 123.731 96.4828C125.077 105.096 126.686 113.69 126.275 122.467C125.947 129.463 124.699 136.248 120.743 142.228C114.482 151.683 105.34 155.382 94.3468 155.195C91.4617 155.148 88.5813 154.788 85.8599 153.778C84.3682 153.226 83.737 154.171 82.9327 155.012C75.5586 162.686 66.7818 167.951 56.2748 169.947C41.6903 172.72 28.7565 168.671 17.464 159.473C2.0612 146.923 -3.28346 130.51 -0.20665 111.095C1.57959 99.8261 5.54016 89.1555 8.71983 78.2698C11.3711 69.203 13.5455 60.0521 13.1246 50.499C12.816 43.5551 11.1607 36.9573 7.73787 30.8691C1.21017 19.2726 -10.1198 14.7977 -22.1932 15.9059C-41.3321 17.6594 -56.1784 27.6474 -68.9112 41.2592C-76.8744 49.7742 -82.6493 59.6967 -86.7782 70.5964C-87.4094 72.2658 -87.2879 72.8082 -85.2959 73.2898C-70.328 76.9184 -58.2031 84.6899 -50.7917 98.5496C-45.793 107.892 -44.8812 117.548 -50.8431 126.956C-57.7449 137.847 -70.5571 140.021 -80.7976 132.184C-87.704 126.9 -91.0334 119.592 -92.4455 111.287C-94.4702 99.3959 -93.217 87.7013 -89.8503 76.1983C-89.3219 74.3887 -89.4201 73.72 -91.5945 73.5517C-112.304 71.9525 -128.348 80.0981 -140.454 96.6465C-140.501 96.7072 -140.538 96.7821 -140.594 96.8335C-141.151 97.3338 -141.258 98.8535 -142.31 98.1475C-143.129 97.6004 -142.086 96.7774 -141.703 96.1882C-138.476 91.2504 -134.525 86.9718 -129.83 83.404C-118.439 74.7534 -105.669 70.7554 -91.3466 72.3219C-89.4108 72.5323 -88.5738 72.1068 -87.8443 70.1756C-79.5678 48.4135 -65.3668 31.7856 -44.6006 21.0074C-36.9928 17.0656 -28.8612 14.7229 -20.248 14.4002C-3.70432 13.7736 9.06586 24.0188 13.1199 40.9038C15.5749 51.1209 14.4105 61.1649 12.0024 71.1716C9.51007 81.5336 5.66173 91.5029 3.05252 101.837C0.649063 111.352 -1.03432 121.041 1.17743 130.72C5.63834 150.247 18.0438 162.812 37.1686 167.965C54.9749 172.762 69.8773 166.426 82.409 153.595C82.5633 153.437 82.6334 153.198 82.7971 152.899V152.894ZM294.461 113.125C294.47 97.2964 292.315 85.3118 288.41 73.6499C285.82 65.9111 282.168 58.7428 276.299 52.8604C271.348 47.8944 265.362 45.9258 258.479 46.3186C249.118 46.8517 241.444 51.0461 235.057 57.5972C217.569 75.5343 209.447 97.5022 207.73 122.149C207.698 122.598 207.511 123.272 208.002 123.417C209.694 123.922 211.406 123.482 213.056 123.131C214.202 122.888 213.702 121.691 213.758 120.92C214.964 103.006 221.062 86.9671 232.158 72.8596C235.74 68.3052 239.724 64.1576 244.952 61.4221C252.793 57.3166 260.027 58.1863 266.433 64.2324C271.6 69.1048 275.481 74.9545 278.137 81.5102C284.623 97.5068 284.768 113.994 281.2 130.604C277.459 148.017 268.813 162.742 255.748 174.796C251.825 178.416 250.6 182.568 251.652 187.637C252.335 190.929 253.611 191.583 256.221 189.507C259.326 187.038 262.342 184.429 265.157 181.637C285.156 161.811 293.788 137.323 294.456 113.12L294.461 113.125ZM-92.1135 99.8682C-92.1369 103.927 -91.8096 107.962 -91.0193 111.937C-89.5698 119.203 -86.6613 125.694 -80.7882 130.557C-72.175 137.688 -61.1397 137.169 -54.0649 129.046C-47.2847 121.266 -46.443 112.241 -50.2446 103.048C-56.9546 86.8222 -70.0054 78.2604 -86.6145 74.3653C-87.9986 74.0427 -88.1436 74.7674 -88.4429 75.7447C-90.8557 83.6098 -91.9779 91.6618 -92.1135 99.8682ZM95.1464 120.896C95.2119 113.709 92.4577 106.204 87.2486 101.177C78.0883 92.3445 64.9394 94.0185 59.2066 104.759C56.9762 108.94 56.0316 113.438 56.8453 118.077C59.5714 133.568 68.582 144.276 82.4604 151.201C83.7323 151.837 84.3682 151.459 85.1351 150.453C91.3962 142.237 95.0903 133.119 95.1464 120.896ZM225.378 121.864C222.647 122.519 220.047 123.281 217.396 123.735C215.511 124.057 214.871 124.829 214.927 126.765C215.077 131.749 215.24 136.72 216.044 141.653C217.499 150.584 220.159 159.09 225.541 166.473C230.433 173.183 236.867 177.317 245.513 176.985C249.375 176.84 250.329 175.662 250.731 171.883C251.259 166.899 251.25 161.928 250.67 156.972C250.161 152.628 249.557 148.284 248.07 143.916C244.493 146.951 240.589 147.849 236.343 146.694C231.045 145.258 228.838 140.994 227.318 136.248C225.836 131.614 225.64 126.783 225.378 121.864Z"/>
</mask>
<path d="M82.7971 152.894C81.0529 152.001 79.2667 151.243 77.6441 150.224C66.6087 143.322 59.0757 133.769 55.9615 121.008C54.8907 116.627 55.0544 112.204 56.4478 107.869C61.2921 92.8168 78.4765 89.4407 89.3482 101.458C93.8091 106.387 95.8151 112.386 96.3154 118.914C97.2272 130.711 93.6875 141.171 86.6922 150.579C86.1404 151.318 84.7797 152.16 86.9681 152.782C99.1117 156.242 114.276 152.352 121 139.203C123.6 134.12 124.633 128.64 124.933 122.996C125.466 112.947 123.319 103.169 121.921 93.3125C120.621 84.1756 119.873 75.048 122.468 65.9719C126.92 50.4008 143.113 40.4877 158.754 43.8123C174.386 47.1369 185.159 63.1008 182.662 79.1722C181.718 85.251 179.67 91.0914 178.945 97.2169C178.052 104.75 180.32 111.081 185.968 116.089C191.159 120.69 197.401 122.884 204.238 123.604C205.851 123.772 206.412 123.267 206.501 121.649C207.235 108.87 209.98 96.5436 215.203 84.8302C220.72 72.4575 227.884 61.1883 238.667 52.7061C247.247 45.9539 256.96 43.0548 267.78 46.1222C275.416 48.2872 280.012 54.165 283.907 60.5851C289.36 69.5724 292.081 79.5697 293.895 89.7914C298.782 117.314 294.045 143.056 279.105 166.791C273.442 175.788 266.022 183.209 257.885 189.961C257.647 190.157 257.39 190.34 257.137 190.522C253.448 193.15 251.348 192.346 250.399 187.889C249.216 182.344 250.577 177.742 254.897 173.786C265.746 163.859 273.564 151.861 277.894 137.791C283.416 119.849 284.029 101.804 277.679 83.895C275.177 76.8389 271.114 70.6432 265.75 65.3921C259.929 59.692 253.364 58.7381 246.06 62.3386C241.561 64.555 238.012 67.9171 234.837 71.7047C223.058 85.742 216.521 101.926 215.17 120.195C214.964 122.954 215.044 122.968 217.648 122.364C219.313 121.976 220.954 121.401 222.642 121.191C225.209 120.873 225.728 119.353 225.906 117.062C226.528 109.169 228.74 101.776 233.608 95.3699C235.314 93.1208 237.316 91.1802 239.967 90.0065C244.489 88.0099 248.776 88.9965 251.9 92.8308C254.542 96.076 255.674 99.9524 256.384 103.964C258.25 114.537 257.722 124.899 253.373 134.863C252.723 136.355 251.872 137.763 251.072 139.189C250.82 139.638 250.502 140.297 249.838 139.932C249.085 139.516 249.674 138.974 249.931 138.562C253.092 133.437 254.883 127.831 255.594 121.902C256.534 114.093 256.31 106.312 253.663 98.8301C250.114 88.7861 241.842 87.388 235.099 95.6271C229.708 102.216 227.758 110.085 226.986 118.357C226.869 119.601 227.463 119.662 228.384 119.316C230.554 118.502 232.724 117.684 234.884 116.87C234.786 116.58 234.781 116.384 234.697 116.346C233.841 115.949 232.032 116.225 232.275 115.224C232.569 114.022 234.141 114.869 235.104 115.056C239.055 115.823 239.088 115.884 236.988 119.377C236.535 120.129 236.324 121.911 235.183 121.247C234.084 120.616 235.716 119.61 235.866 118.689C235.889 118.54 235.964 118.395 236.137 117.913C233.117 118.993 230.297 119.984 227.487 121.008C226.738 121.28 226.832 121.99 226.832 122.608C226.846 127.775 227.36 132.885 229.221 137.744C232.429 146.105 239.724 148.232 246.934 142.967C248.501 141.826 249.225 142.607 249.604 144.061C251.638 151.865 252.704 159.791 252.335 167.867C252.237 169.962 251.989 172.056 251.666 174.133C251.33 176.283 250.011 177.579 247.823 177.943C238.424 179.51 231.199 175.582 225.532 168.587C219.135 160.694 216.241 151.262 214.707 141.358C213.931 136.346 213.557 131.3 213.683 126.227C213.716 124.81 213.183 124.558 211.897 124.637C207.614 124.899 207.515 124.857 207.637 129.168C208.142 147.217 211.799 164.374 222.231 179.552C224.134 182.316 226.28 184.887 228.609 187.305C229.544 188.273 230.493 189.241 229.867 190.774C229.193 192.42 227.791 192.378 226.341 192.378C175.452 192.397 124.563 192.42 73.6742 192.462C34.5548 192.495 -4.56938 192.542 -43.6888 192.593C-78.0528 192.64 -112.417 192.71 -146.785 192.734C-147.721 192.734 -149.404 193.379 -149.418 191.957C-149.427 191.027 -147.702 191.485 -146.771 191.48C-92.2211 191.396 -37.6708 191.35 16.8841 191.284C86.3181 191.205 155.757 191.116 225.191 191.032C225.658 191.032 226.126 191.041 226.594 191.032C227.351 191.008 228.254 191.2 228.6 190.255C228.927 189.362 228.23 188.829 227.692 188.268C219.089 179.295 213.533 168.624 210.232 156.728C207.558 147.077 206.234 137.22 206.309 127.199C206.323 125.577 206.024 124.927 204.214 124.829C199.178 124.548 194.432 123.094 190.032 120.583C180.17 114.958 175.957 106.214 177.94 95.066C178.744 90.5536 179.866 86.0974 180.9 81.6271C184.926 64.2043 173.998 50.6813 162.757 46.3981C145.717 39.9032 126.448 50.9338 122.997 69.0814C121.243 78.2931 122.305 87.3833 123.731 96.4828C125.077 105.096 126.686 113.69 126.275 122.467C125.947 129.463 124.699 136.248 120.743 142.228C114.482 151.683 105.34 155.382 94.3468 155.195C91.4617 155.148 88.5813 154.788 85.8599 153.778C84.3682 153.226 83.737 154.171 82.9327 155.012C75.5586 162.686 66.7818 167.951 56.2748 169.947C41.6903 172.72 28.7565 168.671 17.464 159.473C2.0612 146.923 -3.28346 130.51 -0.20665 111.095C1.57959 99.8261 5.54016 89.1555 8.71983 78.2698C11.3711 69.203 13.5455 60.0521 13.1246 50.499C12.816 43.5551 11.1607 36.9573 7.73787 30.8691C1.21017 19.2726 -10.1198 14.7977 -22.1932 15.9059C-41.3321 17.6594 -56.1784 27.6474 -68.9112 41.2592C-76.8744 49.7742 -82.6493 59.6967 -86.7782 70.5964C-87.4094 72.2658 -87.2879 72.8082 -85.2959 73.2898C-70.328 76.9184 -58.2031 84.6899 -50.7917 98.5496C-45.793 107.892 -44.8812 117.548 -50.8431 126.956C-57.7449 137.847 -70.5571 140.021 -80.7976 132.184C-87.704 126.9 -91.0334 119.592 -92.4455 111.287C-94.4702 99.3959 -93.217 87.7013 -89.8503 76.1983C-89.3219 74.3887 -89.4201 73.72 -91.5945 73.5517C-112.304 71.9525 -128.348 80.0981 -140.454 96.6465C-140.501 96.7072 -140.538 96.7821 -140.594 96.8335C-141.151 97.3338 -141.258 98.8535 -142.31 98.1475C-143.129 97.6004 -142.086 96.7774 -141.703 96.1882C-138.476 91.2504 -134.525 86.9718 -129.83 83.404C-118.439 74.7534 -105.669 70.7554 -91.3466 72.3219C-89.4108 72.5323 -88.5738 72.1068 -87.8443 70.1756C-79.5678 48.4135 -65.3668 31.7856 -44.6006 21.0074C-36.9928 17.0656 -28.8612 14.7229 -20.248 14.4002C-3.70432 13.7736 9.06586 24.0188 13.1199 40.9038C15.5749 51.1209 14.4105 61.1649 12.0024 71.1716C9.51007 81.5336 5.66173 91.5029 3.05252 101.837C0.649063 111.352 -1.03432 121.041 1.17743 130.72C5.63834 150.247 18.0438 162.812 37.1686 167.965C54.9749 172.762 69.8773 166.426 82.409 153.595C82.5633 153.437 82.6334 153.198 82.7971 152.899V152.894ZM294.461 113.125C294.47 97.2964 292.315 85.3118 288.41 73.6499C285.82 65.9111 282.168 58.7428 276.299 52.8604C271.348 47.8944 265.362 45.9258 258.479 46.3186C249.118 46.8517 241.444 51.0461 235.057 57.5972C217.569 75.5343 209.447 97.5022 207.73 122.149C207.698 122.598 207.511 123.272 208.002 123.417C209.694 123.922 211.406 123.482 213.056 123.131C214.202 122.888 213.702 121.691 213.758 120.92C214.964 103.006 221.062 86.9671 232.158 72.8596C235.74 68.3052 239.724 64.1576 244.952 61.4221C252.793 57.3166 260.027 58.1863 266.433 64.2324C271.6 69.1048 275.481 74.9545 278.137 81.5102C284.623 97.5068 284.768 113.994 281.2 130.604C277.459 148.017 268.813 162.742 255.748 174.796C251.825 178.416 250.6 182.568 251.652 187.637C252.335 190.929 253.611 191.583 256.221 189.507C259.326 187.038 262.342 184.429 265.157 181.637C285.156 161.811 293.788 137.323 294.456 113.12L294.461 113.125ZM-92.1135 99.8682C-92.1369 103.927 -91.8096 107.962 -91.0193 111.937C-89.5698 119.203 -86.6613 125.694 -80.7882 130.557C-72.175 137.688 -61.1397 137.169 -54.0649 129.046C-47.2847 121.266 -46.443 112.241 -50.2446 103.048C-56.9546 86.8222 -70.0054 78.2604 -86.6145 74.3653C-87.9986 74.0427 -88.1436 74.7674 -88.4429 75.7447C-90.8557 83.6098 -91.9779 91.6618 -92.1135 99.8682ZM95.1464 120.896C95.2119 113.709 92.4577 106.204 87.2486 101.177C78.0883 92.3445 64.9394 94.0185 59.2066 104.759C56.9762 108.94 56.0316 113.438 56.8453 118.077C59.5714 133.568 68.582 144.276 82.4604 151.201C83.7323 151.837 84.3682 151.459 85.1351 150.453C91.3962 142.237 95.0903 133.119 95.1464 120.896ZM225.378 121.864C222.647 122.519 220.047 123.281 217.396 123.735C215.511 124.057 214.871 124.829 214.927 126.765C215.077 131.749 215.24 136.72 216.044 141.653C217.499 150.584 220.159 159.09 225.541 166.473C230.433 173.183 236.867 177.317 245.513 176.985C249.375 176.84 250.329 175.662 250.731 171.883C251.259 166.899 251.25 161.928 250.67 156.972C250.161 152.628 249.557 148.284 248.07 143.916C244.493 146.951 240.589 147.849 236.343 146.694C231.045 145.258 228.838 140.994 227.318 136.248C225.836 131.614 225.64 126.783 225.378 121.864Z" fill="#CBE2D1" stroke="#043A4E" stroke-width="0.2" mask="url(#path-4-inside-1_22089_49701)"/>
<path opacity="0.2" fill-rule="evenodd" clip-rule="evenodd" d="M86.3333 15C81.5469 15 77.6667 18.8802 77.6667 23.6667L70 23.6667C65.0294 23.6667 61 27.6961 61 32.6667C61 37.6372 65.0294 41.6667 70 41.6667H92C96.9706 41.6667 101 37.6372 101 32.6667C101 28.748 98.4956 25.4143 95 24.1788V23.6667C95 18.8802 91.1198 15 86.3333 15Z" fill="white" fill-opacity="0.23"/>
</g>
</svg>
