<svg width="199" height="156" viewBox="0 0 199 156" fill="none" xmlns="http://www.w3.org/2000/svg">
<g opacity="0.6">
<g style="mix-blend-mode:luminosity">
<g style="mix-blend-mode:multiply">
<path d="M91.5539 78.3163C96.1871 78.3163 99.9419 74.5582 99.9377 69.9249L99.8817 8.38417C99.8774 3.75379 96.1202 0.0036017 91.4899 0.00804448L9.24273 0.0869593C4.61267 0.0914018 0.862794 3.84829 0.867011 8.47835L0.922995 69.9402C0.92721 74.5675 4.67951 78.3163 9.30675 78.3163H91.5539Z" fill="#407BFF"/>
</g>
<path opacity="0.8" d="M91.5539 78.3163C96.1871 78.3163 99.9419 74.5582 99.9377 69.9249L99.8817 8.38417C99.8774 3.75379 96.1202 0.0036017 91.4899 0.00804448L9.24273 0.0869593C4.61267 0.0914018 0.862794 3.84829 0.867011 8.47835L0.922995 69.9402C0.92721 74.5675 4.67951 78.3163 9.30675 78.3163H91.5539Z" fill="#FAFAFA"/>
<path d="M90.6945 79.3969C95.3277 79.3969 99.0825 75.6387 99.0783 71.0055L99.0223 9.24503C99.0181 4.61464 95.2608 0.864441 90.6305 0.868884L8.38333 0.947795C3.75328 0.952237 0.0034092 4.70911 0.00761479 9.33917L0.0636418 71.0207C0.0678448 75.648 3.82015 79.3969 8.4474 79.3969H90.6945Z" fill="#FAFAFA"/>
<path d="M83.5229 8.271H15.5615C10.9313 8.271 7.17773 12.0245 7.17773 16.6548V64.4403C7.17773 69.0705 10.9313 72.8241 15.5615 72.8241H83.5229C88.1531 72.8241 91.9066 69.0705 91.9066 64.4403V16.6548C91.9066 12.0245 88.1531 8.271 83.5229 8.271Z" fill="#407BFF"/>
<path opacity="0.8" d="M83.5229 8.271H15.5615C10.9313 8.271 7.17773 12.0245 7.17773 16.6548V64.4403C7.17773 69.0705 10.9313 72.8241 15.5615 72.8241H83.5229C88.1531 72.8241 91.9066 69.0705 91.9066 64.4403V16.6548C91.9066 12.0245 88.1531 8.271 83.5229 8.271Z" fill="#FAFAFA"/>
<path d="M40.5233 38.8328C45.1516 34.2046 45.1516 26.7007 40.5233 22.0725C35.8951 17.4442 28.3912 17.4442 23.763 22.0725C19.1347 26.7007 19.1347 34.2046 23.763 38.8328C28.3912 43.4611 35.8951 43.4611 40.5233 38.8328Z" fill="#407BFF"/>
<path opacity="0.1" d="M40.5233 38.8328C45.1516 34.2046 45.1516 26.7007 40.5233 22.0725C35.8951 17.4442 28.3912 17.4442 23.763 22.0725C19.1347 26.7007 19.1347 34.2046 23.763 38.8328C28.3912 43.4611 35.8951 43.4611 40.5233 38.8328Z" fill="#FAFAFA"/>
<path d="M83.3675 51.475C83.3675 51.4731 83.3673 51.4712 83.367 51.4692C82.4522 46.3599 79.2718 42.0277 74.9046 39.5518C74.9035 39.5512 74.8989 39.5495 74.8976 39.5495C74.8969 39.5495 74.8946 39.549 74.8946 39.5483C74.8947 39.4122 74.9124 39.2819 74.9124 39.1458C74.9065 29.6219 67.1758 21.909 57.652 21.9209C50.8594 21.9264 45.0013 25.8696 42.2003 31.5821C41.7598 32.4805 40.8042 33.0123 39.8037 33.0123C38.0324 33.0123 36.3669 33.4612 34.9129 34.251C31.2842 36.222 26.9673 38.5053 23.137 40.0483C18.5294 41.9067 15.2638 46.2946 15.1628 51.2643C15.0203 58.1934 20.6016 63.8579 27.5011 63.8519C27.5011 63.8519 27.507 63.8519 27.5129 63.8519L51.8747 63.8282L74.194 63.8104C79.3003 63.8104 83.6228 59.7491 83.6466 54.6428C83.6466 54.6071 83.6466 54.5775 83.6466 54.5418C83.6466 53.4979 83.5518 52.4717 83.3681 51.481C83.3677 51.479 83.3675 51.477 83.3675 51.475Z" fill="#407BFF"/>
<path opacity="0.3" d="M83.3675 51.475C83.3675 51.4731 83.3673 51.4712 83.367 51.4692C82.4522 46.3599 79.2718 42.0277 74.9046 39.5518C74.9035 39.5512 74.8989 39.5495 74.8976 39.5495C74.8969 39.5495 74.8946 39.549 74.8946 39.5483C74.8947 39.4122 74.9124 39.2819 74.9124 39.1458C74.9065 29.6219 67.1758 21.909 57.652 21.9209C50.8594 21.9264 45.0013 25.8696 42.2003 31.5821C41.7598 32.4805 40.8042 33.0123 39.8037 33.0123C38.0324 33.0123 36.3669 33.4612 34.9129 34.251C31.2842 36.222 26.9673 38.5053 23.137 40.0483C18.5294 41.9067 15.2638 46.2946 15.1628 51.2643C15.0203 58.1934 20.6016 63.8579 27.5011 63.8519C27.5011 63.8519 27.507 63.8519 27.5129 63.8519L51.8747 63.8282L74.194 63.8104C79.3003 63.8104 83.6228 59.7491 83.6466 54.6428C83.6466 54.6071 83.6466 54.5775 83.6466 54.5418C83.6466 53.4979 83.5518 52.4717 83.3681 51.481C83.3677 51.479 83.3675 51.477 83.3675 51.475Z" fill="black"/>
</g>
<g style="mix-blend-mode:luminosity">
<g style="mix-blend-mode:multiply">
<path d="M190.486 142.258C195.094 141.758 198.422 137.612 197.914 133.004L188.702 49.4289C188.195 44.8266 184.053 41.5069 179.45 42.0142L72.6797 53.7824C68.0771 54.2897 64.7573 58.4323 65.265 63.0349L74.4642 146.43C74.9713 151.026 79.1045 154.344 83.7019 153.846L190.486 142.258Z" fill="#407BFF"/>
</g>
<path opacity="0.8" d="M190.486 142.258C195.094 141.758 198.422 137.612 197.914 133.004L188.702 49.4289C188.195 44.8266 184.053 41.5069 179.45 42.0142L72.6797 53.7824C68.0771 54.2897 64.7573 58.4323 65.265 63.0349L74.4642 146.43C74.9713 151.026 79.1045 154.344 83.7019 153.846L190.486 142.258Z" fill="#FAFAFA"/>
<path d="M189.526 143.39C194.135 142.889 197.463 138.744 196.955 134.136L187.744 50.6198C187.236 46.0177 183.094 42.6983 178.492 43.2056L71.7278 54.9738C67.1255 55.4811 63.8058 59.6233 64.3131 64.2257L73.4988 147.561C74.0055 152.158 78.1388 155.476 82.7365 154.977L189.526 143.39Z" fill="#FAFAFA"/>
<path d="M170.593 53.3697L81.6341 63.1752C77.0317 63.6825 73.712 67.8247 74.2193 72.427L81.2524 136.234C81.7597 140.837 85.9019 144.156 90.5043 143.649L179.463 133.844C184.066 133.336 187.386 129.194 186.878 124.592L179.845 60.7845C179.338 56.1822 175.196 52.8625 170.593 53.3697Z" fill="#407BFF"/>
<path opacity="0.8" d="M170.593 53.3697L81.6341 63.1752C77.0317 63.6825 73.712 67.8247 74.2193 72.427L81.2524 136.234C81.7597 140.837 85.9019 144.156 90.5043 143.649L179.463 133.844C184.066 133.336 187.386 129.194 186.878 124.592L179.845 60.7845C179.338 56.1822 175.196 52.8625 170.593 53.3697Z" fill="#FAFAFA"/>
<path d="M186.807 129.438C187.241 129.785 187.519 130.291 187.579 130.844C187.704 131.992 186.876 133.025 185.728 133.151L153.13 136.744C145.841 137.547 141.303 129.043 146.029 123.435L154.164 113.768C157.094 110.286 162.268 109.778 165.82 112.623L186.807 129.438Z" fill="#407BFF"/>
<path opacity="0.3" d="M186.807 129.438C187.241 129.785 187.519 130.291 187.579 130.844C187.704 131.992 186.876 133.025 185.728 133.151L153.13 136.744C145.841 137.547 141.303 129.043 146.029 123.435L154.164 113.768C157.094 110.286 162.268 109.778 165.82 112.623L186.807 129.438Z" fill="black"/>
<path d="M146.03 123.434C152.175 127.563 149.829 137.111 142.471 137.922L86.6695 144.074C84.1908 144.347 81.9597 142.559 81.6859 140.081C81.5464 138.817 81.9457 137.553 82.786 136.6L108.723 107.156C111.505 103.999 116.196 103.392 119.689 105.739L146.03 123.434Z" fill="#407BFF"/>
<path opacity="0.3" d="M146.03 123.434C152.175 127.563 149.829 137.111 142.471 137.922L86.6695 144.074C84.1908 144.347 81.9597 142.559 81.6859 140.081C81.5464 138.817 81.9457 137.553 82.786 136.6L108.723 107.156C111.505 103.999 116.196 103.392 119.689 105.739L146.03 123.434Z" fill="black"/>
<path d="M149.651 91.3031C154.883 86.734 155.421 78.7884 150.851 73.5563C146.282 68.3241 138.337 67.7866 133.105 72.3557C127.872 76.9249 127.335 84.8704 131.904 90.1026C136.473 95.3348 144.419 95.8723 149.651 91.3031Z" fill="#407BFF"/>
<path opacity="0.1" d="M149.651 91.3031C154.883 86.734 155.421 78.7884 150.851 73.5563C146.282 68.3241 138.337 67.7866 133.105 72.3557C127.872 76.9249 127.335 84.8704 131.904 90.1026C136.473 95.3348 144.419 95.8723 149.651 91.3031Z" fill="#FAFAFA"/>
</g>
</g>
</svg>
