<svg width="322" height="275" viewBox="0 0 322 275" fill="none" xmlns="http://www.w3.org/2000/svg">
<circle cx="128" cy="128" r="75.5" stroke="#2145A4" stroke-dasharray="4 4"/>
<circle cx="128" cy="128" r="102.5" stroke="#2145A4" stroke-opacity="0.4" stroke-dasharray="4 4"/>
<circle cx="128" cy="128" r="127.5" stroke="#2145A4" stroke-opacity="0.2" stroke-dasharray="4 4"/>
<g clip-path="url(#clip0_593_195)">
<path d="M170.441 126.453C170.471 113.379 170.113 100.658 169.246 94.0409C168.939 91.3546 168.566 89.6158 168.138 89.1874C166.732 87.7812 151.43 87.0958 134.677 87.0101C133.422 87.005 132.162 87 130.897 87C130.106 87 129.315 87 128.523 87.005C116.402 86.9647 104.306 87.2621 96.8015 87.9677C92.6032 88.3003 89.8564 88.7086 89.3776 89.1874C89.2466 89.3184 89.1206 89.6107 88.9996 90.0492C88.919 90.276 88.8383 90.5582 88.7627 90.8909C87.4675 95.7494 86.9534 111.333 87.0038 127.26C86.9987 128.499 86.9987 129.739 87.0038 130.979C86.9735 144.053 87.3314 156.774 88.1983 163.391C88.5057 166.078 88.8787 167.816 89.3071 168.245C90.7132 169.651 106 170.336 122.747 170.422C124.018 170.427 125.293 170.432 126.573 170.432C127.288 170.432 128.004 170.432 128.72 170.427C147.635 170.483 166.565 169.812 168.133 168.24C169.71 166.662 170.456 147.661 170.436 128.711C170.446 127.96 170.441 127.204 170.441 126.453Z" fill="#E0E0DF"/>
<path d="M148.336 122.527C145.71 114.196 137.923 108.153 128.72 108.153C117.365 108.153 108.157 117.361 108.157 128.716C108.157 129.82 108.242 130.903 108.414 131.962C115.812 125.072 125.736 120.859 136.643 120.859C140.71 120.854 144.631 121.438 148.336 122.527Z" fill="#A7A7A7"/>
<path d="M128.725 149.274C140.08 149.274 149.288 140.066 149.288 128.711C149.288 126.554 148.956 124.477 148.341 122.522C144.631 121.433 140.71 120.849 136.653 120.849C125.746 120.849 115.823 125.062 108.424 131.952C109.971 141.775 118.474 149.274 128.725 149.274Z" fill="#B9B8B9"/>
<path d="M154.933 159.294H102.517C100.103 159.294 98.1421 157.333 98.1421 154.919V102.508C98.1421 100.094 100.103 98.1333 102.517 98.1333H154.933C157.347 98.1333 159.308 100.094 159.308 102.508V154.919C159.308 157.333 157.342 159.294 154.933 159.294ZM102.517 98.6171C100.37 98.6171 98.6259 100.361 98.6259 102.508V154.919C98.6259 157.066 100.37 158.81 102.517 158.81H154.933C157.08 158.81 158.824 157.066 158.824 154.919V102.508C158.824 100.361 157.08 98.6171 154.933 98.6171H102.517Z" fill="#ACACB1"/>
<path d="M142.879 129.294C143.2 127.626 142.109 126.014 140.442 125.693C138.774 125.372 137.162 126.464 136.841 128.131C136.52 129.798 137.611 131.41 139.279 131.732C140.946 132.053 142.558 130.961 142.879 129.294Z" fill="#282425"/>
<path d="M139.853 131.922C138.084 131.922 136.647 130.485 136.647 128.716C136.647 126.947 138.084 125.511 139.853 125.511C141.622 125.511 143.058 126.947 143.058 128.716C143.063 130.48 141.622 131.922 139.853 131.922ZM139.853 125.778C138.235 125.778 136.915 127.098 136.915 128.716C136.915 130.334 138.235 131.654 139.853 131.654C141.471 131.654 142.791 130.334 142.791 128.716C142.791 127.093 141.476 125.778 139.853 125.778Z" fill="white"/>
<path d="M118.772 131.558C120.34 130.908 121.085 129.11 120.436 127.541C119.786 125.972 117.987 125.227 116.419 125.877C114.85 126.527 114.105 128.325 114.755 129.894C115.405 131.463 117.203 132.208 118.772 131.558Z" fill="#282425"/>
<path d="M117.592 131.922C115.823 131.922 114.386 130.485 114.386 128.716C114.386 126.947 115.823 125.511 117.592 125.511C119.361 125.511 120.797 126.947 120.797 128.716C120.797 130.48 119.361 131.922 117.592 131.922ZM117.592 125.778C115.974 125.778 114.653 127.098 114.653 128.716C114.653 130.334 115.974 131.654 117.592 131.654C119.21 131.654 120.53 130.334 120.53 128.716C120.53 127.093 119.215 125.778 117.592 125.778Z" fill="white"/>
<path d="M131.86 128.716C131.86 130.445 130.459 131.851 128.725 131.851C126.996 131.851 125.59 130.45 125.59 128.716C125.59 126.987 126.991 125.581 128.725 125.581C130.454 125.581 131.86 126.982 131.86 128.716Z" fill="#848484"/>
<path d="M128.725 131.957C126.936 131.957 125.484 130.505 125.484 128.716C125.484 126.927 126.936 125.475 128.725 125.475C130.514 125.475 131.966 126.927 131.966 128.716C131.966 130.5 130.509 131.957 128.725 131.957ZM128.725 125.687C127.057 125.687 125.701 127.043 125.701 128.711C125.701 130.379 127.057 131.735 128.725 131.735C130.393 131.735 131.749 130.379 131.749 128.711C131.749 127.048 130.393 125.687 128.725 125.687Z" fill="#282425"/>
<path d="M128.967 125.531H128.478V131.901H128.967V125.531Z" fill="#282425"/>
<path d="M131.961 128.469H125.484V128.958H131.961V128.469Z" fill="#282425"/>
<path d="M130.681 108.082H126.77V114.801H130.681V108.082Z" fill="#282425"/>
<path d="M130.005 108.692H127.44V115.41H130.005V108.692Z" fill="#CAB78F"/>
<path d="M130.681 142.631H126.77V149.35H130.681V142.631Z" fill="#282425"/>
<path d="M130.005 142.017H127.44V148.735H130.005V142.017Z" fill="#CAB78F"/>
<path d="M111.972 117.174C111.352 118.102 108.333 124.301 108.333 124.301L108.318 124.533H111.972V117.174Z" fill="#EAEAEA"/>
<path d="M108.408 133.514L111.972 140.253V133.05H108.368L108.408 133.514Z" fill="#EAEAEA"/>
<path d="M145.478 117.174C146.098 118.102 149.117 124.301 149.117 124.301L149.132 124.533H145.478V117.174Z" fill="#EAEAEA"/>
<path d="M149.041 133.514L145.478 140.253V133.05H149.077L149.041 133.514Z" fill="#EAEAEA"/>
<path d="M128.725 149.945C125.857 149.945 123.08 149.385 120.459 148.276C117.929 147.208 115.661 145.676 113.711 143.725C111.76 141.775 110.228 139.507 109.159 136.977C108.051 134.361 107.491 131.579 107.491 128.711C107.491 125.843 108.051 123.066 109.159 120.445C110.228 117.915 111.76 115.647 113.711 113.697C115.661 111.746 117.929 110.214 120.459 109.146C123.075 108.037 125.857 107.478 128.725 107.478C131.592 107.478 134.37 108.037 136.99 109.146C139.52 110.214 141.788 111.746 143.739 113.697C145.689 115.647 147.222 117.915 148.29 120.445C149.399 123.061 149.958 125.843 149.958 128.711C149.958 131.579 149.399 134.356 148.29 136.977C147.222 139.507 145.689 141.775 143.739 143.725C141.788 145.676 139.52 147.208 136.99 148.276C134.37 149.385 131.587 149.945 128.725 149.945ZM128.725 108.823C117.758 108.823 108.832 117.749 108.832 128.716C108.832 139.683 117.758 148.609 128.725 148.609C139.692 148.609 148.618 139.683 148.618 128.716C148.618 117.744 139.692 108.823 128.725 108.823Z" fill="white"/>
<path d="M311.479 154.417C306.661 156.086 302.637 158.019 299.181 160.315C295.744 162.602 292.715 165.351 289.913 168.728C287.412 171.744 284.989 175.367 282.294 180.126C278.06 187.602 275.475 195.466 272.981 203.069C270.231 211.435 267.639 219.342 263.082 226.215C260.644 229.892 256.089 232.32 250.255 233.05C246.394 233.536 242.324 233.205 238.685 232.164C241.703 229.263 243.944 226.408 245.356 223.676C246.295 221.853 246.888 220.049 247.108 218.307C247.371 216.273 247.135 214.31 246.419 212.47C244.493 207.55 240.23 204.589 235.01 204.545C232.283 204.521 229.466 205.333 227.075 206.825C224.516 208.423 222.593 210.668 221.503 213.314C220.459 215.858 219.924 218.375 219.916 220.799C219.906 223.168 220.387 225.446 221.357 227.573C222.309 229.662 223.72 231.581 225.531 233.268C222.39 235.418 219.577 236.985 218.02 237.746C208.305 242.463 200.519 242.074 193.523 236.513C188.081 232.188 183.473 225.146 179.117 217.755L181.486 216.483C182.506 215.935 182.889 214.664 182.341 213.644C181.86 212.749 180.825 212.344 179.885 212.628L177.993 209.111L179.455 184.855L179.132 184.253L139.029 193.422L144.517 203.633L165.557 215.794L167.449 219.311C166.697 219.933 166.462 221.026 166.943 221.92C167.491 222.94 168.763 223.323 169.783 222.775L172.601 221.262C177.345 229.342 182.439 237.153 188.92 242.305C191.039 243.992 193.26 245.343 195.513 246.323C197.97 247.395 200.554 248.06 203.198 248.312C205.957 248.571 208.855 248.38 211.813 247.75C214.824 247.103 217.994 245.977 221.242 244.402C223.555 243.282 227.757 240.89 232.167 237.622C234.707 238.774 237.558 239.637 240.51 240.135C244.021 240.729 247.71 240.808 251.172 240.378C252.049 240.266 252.906 240.127 253.74 239.956C256.476 239.397 259.005 238.51 261.291 237.312C264.641 235.552 267.311 233.19 269.234 230.292C274.342 222.586 277.219 213.834 279.995 205.37C282.379 198.108 284.846 190.597 288.721 183.761C297.567 168.146 304.367 162.455 329.664 157.284L328.184 150.045C321.327 151.457 316.018 152.841 311.479 154.417ZM231.516 228.701C228.241 226.171 225.857 222.183 228.34 216.135C229.161 214.136 231.261 212.554 233.537 212.089C234.001 211.994 234.475 211.943 234.949 211.949C236.469 211.963 238.499 212.53 239.539 215.178C240.089 216.583 239.844 218.254 238.795 220.294C237.682 222.451 235.744 224.822 233.043 227.339C232.536 227.803 232.027 228.257 231.516 228.701Z" fill="#52B5BB"/>
<path d="M253.358 238.11C252.518 238.282 251.662 238.421 250.79 238.532C247.329 238.967 243.644 238.882 240.127 238.289C237.176 237.791 234.324 236.929 231.784 235.776C227.374 239.039 223.171 241.431 220.86 242.557C217.613 244.136 214.442 245.257 211.431 245.904C208.468 246.535 205.57 246.726 202.816 246.466C200.173 246.219 197.587 245.549 195.13 244.477C192.872 243.494 190.656 242.141 188.537 240.46C180.706 234.236 174.901 224.131 169.293 214.361L175.701 210.68C180.966 219.851 186.411 229.33 193.137 234.674C200.133 240.235 207.918 240.624 217.633 235.906C219.197 235.149 222.003 233.578 225.144 231.428C223.333 229.741 221.922 227.822 220.971 225.733C220.007 223.61 219.52 221.328 219.53 218.959C219.543 216.534 220.077 214.012 221.117 211.474C222.202 208.829 224.13 206.584 226.689 204.985C229.08 203.493 231.897 202.681 234.623 202.705C239.843 202.749 244.106 205.71 246.033 210.63C246.752 212.464 246.984 214.428 246.722 216.467C246.501 218.205 245.908 220.013 244.969 221.836C243.557 224.568 241.317 227.423 238.299 230.324C241.936 231.36 246.006 231.691 249.869 231.21C255.703 230.481 260.258 228.053 262.696 224.375C267.253 217.502 269.846 209.6 272.596 201.234C275.095 193.63 277.675 185.767 281.908 178.291C284.603 173.532 287.027 169.909 289.527 166.893C292.33 163.516 295.358 160.763 298.796 158.481C302.252 156.185 306.275 154.251 311.094 152.582C315.638 151.005 320.947 149.621 327.796 148.221L329.275 155.46C303.978 160.631 297.178 166.322 288.333 181.937C284.462 188.772 281.995 196.283 279.607 203.546C276.825 212.011 273.953 220.762 268.846 228.468C266.923 231.366 264.252 233.728 260.903 235.488C258.628 236.663 256.093 237.551 253.358 238.11ZM233.153 210.233C230.871 210.699 228.777 212.28 227.956 214.279C225.474 220.332 227.857 224.315 231.132 226.845C231.648 226.4 232.157 225.947 232.653 225.48C235.354 222.963 237.287 220.592 238.404 218.435C239.459 216.398 239.703 214.723 239.149 213.318C238.115 210.675 236.084 210.102 234.559 210.09C234.095 210.087 233.622 210.137 233.153 210.233Z" fill="#4E5F67"/>
<path d="M172.362 171.695L166.657 174.765L157.312 157.384C156.907 156.634 156.171 156.182 155.379 156.108C154.917 156.063 154.442 156.155 154.001 156.389C153.399 156.713 152.985 157.255 152.812 157.867C152.644 158.457 152.691 159.116 153.006 159.7L162.059 176.533L147.144 184.551L138.091 167.718C137.686 166.967 136.95 166.516 136.158 166.441C135.698 166.401 135.221 166.488 134.781 166.723C134.178 167.046 133.764 167.589 133.591 168.2C133.423 168.79 133.471 169.449 133.785 170.033L143.131 187.414L137.425 190.483L138.495 192.471L177.64 184.506L172.362 171.695Z" fill="#C1C1C0"/>
<path d="M163.653 173.625L145.798 183.223L147.793 186.934L165.648 177.336L163.653 173.625Z" fill="#E0E1E0"/>
<path d="M147.336 183.756L137.715 165.855C137.31 165.105 136.574 164.653 135.782 164.578L146.372 184.272L147.336 183.756Z" fill="#ADB1B4"/>
<path d="M146.373 184.277L135.783 164.583C135.322 164.544 134.846 164.631 134.406 164.865C133.803 165.189 133.389 165.731 133.216 166.343L143.648 185.744L146.373 184.277Z" fill="#D3D4D5"/>
<path d="M143.036 186.07L143.647 185.739L133.215 166.338C133.047 166.928 133.095 167.587 133.41 168.171L143.036 186.07Z" fill="#E0E1E0"/>
<path d="M166.557 173.422L156.936 155.522C156.531 154.771 155.795 154.32 155.003 154.245L165.593 173.938L166.557 173.422Z" fill="#ADB1B4"/>
<path d="M165.589 173.944L154.999 154.251C154.538 154.206 154.063 154.298 153.622 154.533C153.019 154.856 152.605 155.399 152.432 156.01L162.864 175.412L165.589 173.944Z" fill="#D3D4D5"/>
<path d="M162.252 175.737L162.863 175.407L152.437 156.009C152.27 156.599 152.317 157.258 152.632 157.842L162.252 175.737Z" fill="#E0E1E0"/>
<path d="M167.827 180.565L158.418 186.48L148.286 191.067L144.13 201.793L165.171 213.954L171.386 210.61L177.606 207.266L179.068 183.01L167.827 180.565Z" fill="#4E5F67"/>
<path d="M163.88 181.75L151.445 188.435L168.804 220.726L181.239 214.042L163.88 181.75Z" fill="#556974"/>
<path d="M181.949 211.8C182.497 212.82 182.114 214.092 181.094 214.64L169.396 220.93C168.376 221.478 167.104 221.095 166.556 220.075C166.008 219.056 166.391 217.784 167.411 217.236L179.109 210.945C180.129 210.397 181.401 210.78 181.949 211.8Z" fill="#556974"/>
<path d="M171.983 169.848L137.046 188.629L144.129 201.805L179.066 183.024L171.983 169.848Z" fill="#556974"/>
<path d="M151.867 180.653L163.729 202.72C164.226 203.642 165.138 204.202 166.108 204.292L153.054 180.015L151.867 180.653Z" fill="#ADB1B4"/>
<path d="M153.054 180.015L166.108 204.292C166.674 204.346 167.264 204.236 167.806 203.945C168.553 203.545 169.059 202.876 169.275 202.122L156.418 178.206L153.054 180.015Z" fill="#D3D4D5"/>
<path d="M157.169 177.8L156.414 178.207L169.271 202.123C169.482 201.395 169.414 200.586 169.031 199.867L157.169 177.8Z" fill="#E0E1E0"/>
<path d="M231.784 235.776C231.784 235.776 236.706 231.92 238.301 230.313L239.475 230.619C239.475 230.619 234.773 234.795 233.231 236.386L231.784 235.776Z" fill="#3D4B50"/>
</g>
<defs>
<clipPath id="clip0_593_195">
<rect width="252" height="252" fill="white" transform="translate(70 23)"/>
</clipPath>
</defs>
</svg>
