<svg width="125" height="104" viewBox="0 0 125 104" fill="none" xmlns="http://www.w3.org/2000/svg">
<path d="M62.9467 67.6052L58.2409 67.6446C46.437 67.739 36.7894 58.2487 36.6871 46.4448L36.4903 22.5853C36.3959 10.7815 45.8862 1.13377 57.6901 1.03147L102.395 0.66162C101.207 0.472758 99.9951 0.378327 98.7596 0.386197L52.4806 0.771789C40.3148 0.874089 30.5254 10.8208 30.6277 22.9866L30.8323 47.5859C30.9346 59.7517 40.8814 71.1385 53.0472 71.0362L58.6973 70.9969L76.8202 88.0101L93.8098 70.6585L80.1567 84.5398L62.9388 67.6052H62.9467Z" fill="#CBE2D1"/>
<path d="M76.8367 88.5608L58.5486 71.398L53.0559 71.4374C53.0008 71.4374 52.9536 71.4374 52.8985 71.4374C41.0238 71.4374 30.5499 60.3339 30.4397 47.5936L30.2351 22.9944C30.1879 17.0059 32.47 11.3558 36.6721 7.08277C40.8664 2.81764 46.4851 0.433262 52.4736 0.386047L98.7525 0.000454443C99.9644 -0.00741479 101.216 0.087016 102.459 0.275878L102.404 1.05493L57.6987 1.42479C52.0958 1.472 46.8471 3.699 42.9124 7.6887C38.9857 11.6863 36.8453 16.9744 36.8925 22.5773L37.0892 46.4368C37.1836 57.9416 46.5795 67.2431 58.0686 67.2431C58.1315 67.2431 58.1866 67.2431 58.2417 67.2431L63.1128 67.2037L80.1654 83.9731L93.5431 70.375L94.1018 70.9259L76.8367 88.553V88.5608ZM58.8555 70.6111L76.8131 87.467L79.6382 84.579L62.7901 68.0064L58.2496 68.0457C58.1866 68.0457 58.1237 68.0457 58.0686 68.0457C46.1467 68.0457 36.4046 58.3981 36.3023 46.4604L36.1055 22.6009C36.0583 16.7855 38.2775 11.3007 42.3537 7.15359C45.3362 4.12393 49.0504 2.07006 53.1031 1.17297H52.4893C46.7054 1.22806 41.2914 3.518 37.2387 7.64148C33.1861 11.765 30.9827 17.2183 31.0299 22.9944L31.2345 47.5936C31.3368 59.9168 41.4409 70.6583 52.9064 70.6583C52.9536 70.6583 53.0087 70.6583 53.0559 70.6583L58.8634 70.619L58.8555 70.6111Z" fill="#A0C3AA"/>
<path d="M124.131 21.8606C124.036 10.0567 114.389 0.566424 102.577 0.660855H102.388L57.6828 1.03071C45.879 1.12514 36.3887 10.7807 36.4831 22.5845L36.6799 46.4441C36.7743 58.2479 46.4298 67.7382 58.2337 67.6438L62.9395 67.6045L80.1574 84.539L93.8105 70.6577L97.092 67.3212L103.128 67.2739C114.932 67.1795 124.422 57.524 124.327 45.7201L124.131 21.8606Z" fill="#CBE2D1"/>
<path d="M80.1739 85.098L62.7908 67.9981L58.2502 68.0375C58.1873 68.0375 58.1243 68.0375 58.0692 68.0375C46.1474 68.0375 36.4052 58.3898 36.3029 46.4522L36.1062 22.5926C36.059 16.7773 38.2781 11.2924 42.3544 7.14532C46.4228 3.0061 51.8762 0.692544 57.6915 0.645329L102.586 0.275475C108.409 0.259736 113.886 2.44738 118.033 6.52365C122.18 10.5999 124.486 16.0454 124.533 21.8608L124.73 45.7203C124.832 57.7209 115.145 67.5653 103.144 67.6676L97.2738 67.7148L80.1739 85.098ZM63.1056 67.2112L80.1582 83.9805L96.9275 66.9279L103.121 66.8728C114.688 66.7784 124.021 57.2881 123.927 45.7203L123.73 21.8608C123.683 16.2579 121.456 11.0091 117.466 7.0745C113.469 3.14775 108.196 1.00731 102.578 1.05453L57.6837 1.42438C52.0808 1.4716 46.832 3.69859 42.8974 7.6883C38.9706 11.6859 36.8302 16.974 36.8774 22.5769L37.0741 46.4364C37.1686 57.9412 46.5644 67.2427 58.0535 67.2427C58.1165 67.2427 58.1715 67.2427 58.2266 67.2427L63.0977 67.2033L63.1056 67.2112Z" fill="#A0C4AA"/>
<path d="M64.0018 38.0013C62.727 40.8106 59.414 42.054 56.6047 40.7791C53.7954 39.5043 52.5521 36.1914 53.8269 33.3821C55.1017 30.5727 58.4146 29.3294 61.224 30.6042C64.0333 31.879 65.2766 35.192 64.0018 38.0013Z" fill="white"/>
<path d="M58.9035 41.6684C58.0772 41.6684 57.2352 41.4953 56.4404 41.1333C53.4344 39.7719 52.1045 36.215 53.4659 33.209C54.8272 30.2029 58.3841 28.873 61.3902 30.2344C62.846 30.8954 63.9555 32.0837 64.5143 33.5788C65.073 35.074 65.0179 36.7029 64.3569 38.1587C63.3575 40.3621 61.1777 41.6684 58.9035 41.6684ZM58.9192 30.4941C56.9441 30.4941 55.0476 31.6273 54.182 33.5395C52.9937 36.1442 54.1583 39.2368 56.7631 40.4172C58.03 40.9917 59.4386 41.0389 60.737 40.551C62.0355 40.0631 63.0663 39.103 63.6408 37.8361C64.2152 36.5691 64.2624 35.1606 63.7746 33.8621C63.2867 32.5637 62.3266 31.5328 61.0597 30.9584C60.3672 30.6436 59.6353 30.4941 58.9192 30.4941Z" fill="#9FBFFF"/>
<path d="M85.3827 37.387C84.1078 40.1964 80.7949 41.4397 77.9856 40.1649C75.1763 38.8901 73.9329 35.5771 75.2077 32.7678C76.4826 29.9585 79.7955 28.7151 82.6048 29.99C85.4141 31.2648 86.6575 34.5777 85.3827 37.387Z" fill="white"/>
<path d="M80.2922 41.0615C79.4502 41.0615 78.6082 40.8805 77.8213 40.5185C74.8152 39.1571 73.4853 35.6002 74.8467 32.5942C75.5077 31.1383 76.696 30.0288 78.1911 29.4701C79.6863 28.9114 81.3152 28.9664 82.7632 29.6275C84.219 30.2885 85.3285 31.4767 85.8873 32.9719C86.446 34.467 86.3909 36.096 85.7299 37.5439C85.0689 38.9997 83.8806 40.1093 82.3854 40.668C81.7008 40.9277 80.9926 41.0536 80.2844 41.0536L80.2922 41.0615ZM80.3001 29.8793C78.3249 29.8793 76.4363 31.0124 75.5628 32.9247C74.3746 35.5294 75.5313 38.622 78.1439 39.8024C79.4109 40.3768 80.8195 40.424 82.1179 39.9361C83.4163 39.4483 84.4472 38.4882 85.0216 37.2213C85.5961 35.9543 85.6433 34.5457 85.1554 33.2473C84.6675 31.9489 83.7075 30.918 82.4405 30.3436C81.748 30.0288 81.0162 29.8793 80.3001 29.8793Z" fill="#9FBFFF"/>
<path d="M106.252 36.7884C104.977 39.5977 101.664 40.8411 98.8547 39.5662C96.0454 38.2914 94.8021 34.9785 96.0769 32.1692C97.3517 29.3599 100.665 28.1165 103.474 29.3913C106.283 30.6661 107.527 33.9791 106.252 36.7884Z" fill="#CBE2D1"/>
<path d="M101.153 40.4633C100.327 40.4633 99.4847 40.2902 98.6899 39.9282C97.234 39.2672 96.1245 38.0789 95.5658 36.5837C95.0071 35.0886 95.0621 33.4597 95.7232 32.0117C97.0845 29.0057 100.641 27.6758 103.647 29.0371C106.654 30.3985 107.983 33.9554 106.622 36.9615C105.623 39.1649 103.443 40.4711 101.169 40.4711L101.153 40.4633ZM101.169 29.2811C99.1935 29.2811 97.297 30.4143 96.4314 32.3265C95.8569 33.5934 95.8097 35.002 96.2976 36.3004C96.7855 37.5989 97.7455 38.6297 99.0125 39.2042C101.617 40.3925 104.71 39.2357 105.89 36.6231C107.078 34.0184 105.914 30.9258 103.309 29.7454C102.617 29.4306 101.885 29.2811 101.169 29.2811Z" fill="#A0C3AA"/>
<path d="M32.3276 83.5154L27.6218 83.5547C15.818 83.6491 6.17028 74.1588 6.06798 62.355L5.87125 38.4955C5.77681 26.6916 15.2592 17.0439 27.071 16.9416L71.7761 16.5718C70.5878 16.3829 69.376 16.2885 68.1405 16.2964L21.8615 16.6819C9.67996 16.7842 -0.101505 26.731 0.000795169 38.9047L0.205395 63.5039C0.307695 75.6697 10.2544 87.0565 22.4202 86.9542L28.0704 86.9149L46.1932 103.928L63.1829 86.5765L49.5298 100.458L32.3119 83.5232L32.3276 83.5154Z" fill="#389680"/>
<path d="M93.5115 37.7717C93.4171 25.9679 83.7694 16.4776 71.9577 16.572H71.7688L27.0637 16.9418C15.2598 17.0363 5.76955 26.6918 5.86398 38.4957L6.06071 62.3552C6.15514 74.1591 15.8107 83.6494 27.6145 83.5549L32.3204 83.5156L49.5382 100.45L63.1914 86.5688L66.4728 83.2323L72.5085 83.1851C84.3124 83.0906 93.8027 73.4351 93.7083 61.6312L93.5115 37.7717Z" fill="#4EA692"/>
<path d="M28.2825 57.579C27.4404 57.579 26.5984 57.398 25.8115 57.0361C22.8055 55.6747 21.4756 52.1178 22.8369 49.1117C23.498 47.6559 24.6862 46.5464 26.1814 45.9876C27.6765 45.4289 29.3055 45.484 30.7534 46.145C32.2092 46.806 33.3188 47.9943 33.8775 49.4895C34.4362 50.9846 34.3811 52.6135 33.7201 54.0694C33.0591 55.5252 31.8708 56.6347 30.3757 57.1934C29.6911 57.4531 28.9828 57.579 28.2746 57.579H28.2825ZM28.2903 46.3968C27.6765 46.3968 27.0549 46.507 26.4647 46.7274C25.1662 47.2152 24.1354 48.1753 23.5609 49.4422C22.3727 52.047 23.5294 55.1396 26.142 56.32C27.409 56.8944 28.8176 56.9416 30.116 56.4537C31.4144 55.9658 32.4453 55.0058 33.0197 53.7388C33.5942 52.4719 33.6414 51.0633 33.1535 49.7649C32.6656 48.4665 31.7056 47.4356 30.4386 46.8611C29.754 46.5464 29.0222 46.3968 28.2903 46.3968Z" fill="white"/>
<path d="M49.6633 56.9647C48.837 56.9647 47.995 56.7916 47.2002 56.4296C44.1941 55.0682 42.8642 51.5113 44.2256 48.5053C44.8866 47.0495 46.0749 45.9399 47.57 45.3812C49.0652 44.8225 50.6941 44.8776 52.1421 45.5386C55.1481 46.9 56.478 50.4569 55.1166 53.4629C54.1173 55.6663 51.9375 56.9726 49.6633 56.9726V56.9647ZM49.6711 45.7825C49.0573 45.7825 48.4357 45.8927 47.8455 46.113C46.547 46.6009 45.5162 47.561 44.9417 48.8279C43.7535 51.4326 44.9102 54.5253 47.5228 55.7056C50.1275 56.8939 53.2202 55.7371 54.4005 53.1245C55.5888 50.5198 54.4241 47.4272 51.8194 46.2468C51.1348 45.932 50.403 45.7825 49.6711 45.7825Z" fill="white"/>
<path d="M70.5319 56.3749C69.6899 56.3749 68.8479 56.1939 68.0609 55.8319C66.6051 55.1709 65.4956 53.9827 64.9369 52.4875C64.3781 50.9924 64.4332 49.3634 65.0943 47.9076C65.7553 46.4518 66.9435 45.3423 68.4387 44.7835C69.9338 44.2248 71.5628 44.2799 73.0107 44.9409C74.4665 45.6019 75.5761 46.7902 76.1348 48.2854C76.6935 49.7805 76.6384 51.4094 75.9774 52.8574C75.3164 54.3132 74.1281 55.4228 72.633 55.9815C71.9484 56.2412 71.2401 56.3671 70.5319 56.3671V56.3749ZM70.5398 45.1927C69.926 45.1927 69.3043 45.3029 68.7141 45.5233C67.4157 46.0111 66.3848 46.9712 65.8103 48.2381C65.2359 49.5051 65.1887 50.9137 65.6766 52.2121C66.1645 53.5105 67.1245 54.5414 68.3915 55.1159C69.6584 55.6903 71.067 55.7375 72.3654 55.2496C73.6638 54.7617 74.6947 53.8017 75.2692 52.5347C75.8436 51.2678 75.8908 49.8592 75.4029 48.5608C74.9151 47.2624 73.955 46.2315 72.6881 45.657C72.0034 45.3423 71.2716 45.1849 70.5398 45.1849V45.1927Z" fill="white"/>
</svg>
