<svg width="17" height="18" viewBox="0 0 17 18" fill="none" xmlns="http://www.w3.org/2000/svg">
<path d="M10.4605 16.7695H6.99767M13.9234 5.67715C13.9234 4.31936 13.3762 3.01719 12.402 2.05709C11.4279 1.09699 10.1067 0.557617 8.72911 0.557617C7.35149 0.557617 6.0303 1.09699 5.05618 2.05709C4.08206 3.01719 3.5348 4.31936 3.5348 5.67715C3.5348 8.31387 2.85995 10.1192 2.10608 11.3133C1.47018 12.3205 1.15223 12.8241 1.16388 12.9646C1.17679 13.1202 1.21023 13.1795 1.33742 13.2725C1.45228 13.3564 1.9701 13.3564 3.00572 13.3564H14.4525C15.4881 13.3564 16.0059 13.3564 16.1208 13.2725C16.248 13.1795 16.2814 13.1202 16.2943 12.9646C16.306 12.8241 15.988 12.3205 15.3521 11.3133C14.5983 10.1192 13.9234 8.31387 13.9234 5.67715Z" stroke="#043A4E" stroke-linecap="round" stroke-linejoin="round"/>
</svg>
