<svg width="367" height="169" viewBox="0 0 367 169" fill="none" xmlns="http://www.w3.org/2000/svg">
<mask id="path-1-inside-1_22089_49703" fill="white">
<path d="M366.441 132.515C364.009 132.466 361.578 132.407 359.144 132.368C356.376 132.324 353.649 132.868 350.899 132.978C346.998 133.133 343.209 133.986 339.389 134.613C336.48 135.091 333.622 135.887 330.737 136.524C325.642 137.649 320.565 138.83 315.428 139.769C309.25 140.901 303.044 141.372 296.785 141.141C292.652 140.99 288.564 140.443 284.473 139.784C279.666 139.012 274.959 137.875 270.324 136.434C263.505 134.316 256.931 131.601 250.752 127.974C245.314 124.781 240.246 121.112 236.058 116.331C233.502 113.415 231.346 110.253 230.072 106.518C229.068 103.575 229.048 100.625 229.575 97.6126C230.637 91.5276 234.138 86.6508 237.361 81.6392C239.776 77.8896 242.459 74.2847 243.682 69.8931C245.28 64.1585 244.949 58.4705 243.297 52.7874C242.212 49.06 240.553 45.58 239.06 42.0241C238.166 39.8993 237.802 37.657 237.649 35.395C237.571 36.4929 237.776 37.6447 237.218 38.7279C236.516 40.088 235.349 40.3258 234.306 39.1838C232.981 37.7305 232.364 35.8974 231.923 34.0324C231.446 32.0033 231.285 29.957 231.857 27.8813C232.245 26.4795 232.73 25.1806 233.816 24.1734C234.036 23.97 234.479 23.7862 234.384 23.5142C234.27 23.1907 233.853 23.0583 233.456 23.0583C231.402 23.0583 229.684 23.8205 228.3 25.3399C227.357 26.379 226.777 27.6386 226.21 28.9007C225.769 29.881 226.117 30.7951 226.407 31.7337C227.577 35.5126 228.624 39.3136 228.386 43.345C228.273 45.2345 227.786 45.928 225.932 46.3691C225.269 46.526 225.452 46.9377 225.535 47.2979C226.77 52.736 225.177 57.505 222.114 61.9162C218.854 66.6117 214.561 70.246 209.985 73.5397C203.18 78.4386 196.421 83.3718 190.822 89.7141C188.954 91.8291 187.355 94.1082 186.159 96.674C185.757 97.5367 185.711 98.4018 186.001 99.2766C186.987 102.249 186.644 105.242 185.579 108.023C184.709 110.292 185.292 112.106 186.203 114.062C188.379 118.73 191.697 122.568 194.996 126.418C199.223 131.349 203.502 136.243 206.662 141.975C208.099 144.582 209.366 147.263 209.376 150.358C209.388 154.458 207.442 157.578 204.559 160.232C200.856 163.641 196.382 165.533 191.636 166.945C185.886 168.653 180.017 169.184 174.081 168.738C169.053 168.361 164.165 167.337 159.714 164.717C155.028 161.96 152.906 156.483 154.193 151.162C156.142 143.1 160.654 136.517 165.644 130.177C169.252 125.592 173.714 121.835 177.795 117.713C179.6 115.89 181.281 113.978 182.553 111.721C183.031 110.873 183.316 110.023 183.194 109.045C182.77 105.683 183.135 102.369 183.874 99.0929C184.251 97.4191 183.379 96.1766 182.607 94.9047C179.451 89.6896 175.09 85.5848 170.463 81.7396C165.283 77.4338 159.679 73.7162 154.11 69.9544C150.548 67.5503 147.115 64.9746 144.196 61.7912C142.242 59.6591 140.658 57.2844 139.666 54.5053C139.128 53.0006 139.666 51.6773 139.959 50.3245C140.777 46.5309 141.44 42.7029 141.174 38.8309C140.919 35.1009 140.446 31.3514 137.732 28.3885C136.606 27.1608 135.251 26.3447 133.67 25.8791C133.375 25.7933 133.095 25.8251 132.869 26.0285C132.644 26.2295 132.839 26.3912 132.973 26.5358C135.459 29.1801 135.13 32.1234 133.906 35.1818C133.015 37.4119 132.082 39.6224 130.856 41.6908C130.549 42.2079 130.11 42.6465 129.74 43.1269C129.406 43.5606 128.968 43.7494 128.456 43.5803C127.876 43.3867 127.681 42.8867 127.696 42.3157C127.771 39.3823 128.086 36.4709 128.605 33.5815C128.98 31.4788 129.416 29.3909 130.12 27.3495C129.411 27.8739 129.116 28.6361 128.982 29.4325C128.12 34.5667 127.338 39.7155 126.434 44.8424C125.552 49.8442 124.531 54.8141 123.225 59.7351C121.415 66.5504 122.292 73.0202 126.178 79.0317C128.758 83.0238 131.84 86.6483 134.372 90.6674C136.263 93.6695 137.941 96.7745 138.884 100.223C140.424 105.854 139.001 110.903 135.817 115.588C132.44 120.553 128.027 124.617 124.148 129.141C117.019 137.458 108.241 143.499 98.5484 148.315C94.4089 150.371 90.1499 152.192 85.7253 153.51C80.5112 155.064 75.2607 156.537 69.8492 157.257C62.8273 158.191 55.7835 158.438 48.7299 157.681C40.3168 156.779 32.2228 154.586 24.2946 151.633C18.2643 149.388 12.0805 147.589 5.74814 146.396C4.15712 146.097 2.5588 145.832 0.972656 145.509V144.283C3.06802 144.112 5.06349 144.773 7.07845 145.139C9.81217 145.636 12.502 146.41 15.187 147.158C18.4958 148.079 21.7387 149.219 24.9865 150.344C28.573 151.589 32.14 152.885 35.8312 153.824C40.156 154.922 44.5246 155.625 48.9541 156.144C54.1827 156.757 59.4163 156.708 64.6206 156.35C68.9599 156.054 73.2993 155.36 77.5509 154.348C83.608 152.907 89.4896 150.922 95.1544 148.31C100.863 145.675 106.316 142.607 111.442 138.938C115.655 135.924 119.358 132.378 122.777 128.511C126.402 124.408 130.369 120.612 133.646 116.196C136.543 112.292 138.421 108.092 137.912 103.063C137.554 99.5266 136.041 96.4437 134.357 93.4171C132.057 89.2828 128.985 85.6877 126.297 81.823C123.074 77.1888 120.832 72.2188 120.881 66.4426C120.903 63.7885 121.366 61.1981 122.07 58.6225C122.84 55.8042 123.398 52.9222 123.968 50.0525C124.633 46.7024 125.328 43.3523 125.788 39.9729C126.134 37.4315 126.526 34.8975 126.948 32.3709C127.221 30.7338 127.413 29.0576 128.113 27.521C128.683 26.2663 129.521 25.3399 131.022 25.3007C131.18 25.2958 131.375 25.2933 131.487 25.2051C133.865 23.3426 135.748 25.0066 137.478 26.2589C140.249 28.266 141.445 31.3048 142.115 34.5789C142.666 37.2796 142.702 40.0145 142.524 42.7372C142.337 45.6143 142.052 48.4865 141.231 51.2827C140.595 53.4442 141.304 55.3508 142.602 57.1888C142.9 56.1816 142.317 55.3753 142.327 54.4931C142.356 51.9027 142.668 49.3222 143.745 46.994C144.615 45.1095 144.232 43.3278 144.015 41.5045C143.584 37.8432 143.579 34.204 144.04 30.5427C144.873 23.9063 147.57 17.885 150.072 11.8049C151.498 8.3396 153.157 4.98218 155.844 2.26439C156.756 1.34294 157.833 0.732719 159.044 0.347964C160.62 -0.154424 162.345 0.651847 163.22 2.2938C164.019 3.79361 164.326 5.42821 164.443 7.10201C164.499 7.89603 164.453 8.6974 164.562 9.51837C165.81 7.67547 166.933 5.80316 168.351 4.1367C169.204 3.13438 170.159 2.25459 171.326 1.66642C173.433 0.600383 176.196 1.80121 177.134 4.10729C178.026 6.29819 178.06 8.55036 177.719 10.8491C177.636 11.4005 177.324 12.1749 177.736 12.4837C178.284 12.8954 178.701 12.0744 179.115 11.7877C182.46 9.45956 185.954 11.3049 186.386 15.8264C186.456 16.5763 186.395 17.3385 186.395 18.3604C187.382 16.7405 188.196 15.3314 189.653 14.4908C189.724 14.4516 189.787 14.4001 189.85 14.3462C190.377 13.9051 191.434 14.2531 191.602 13.4664C191.821 12.4445 191.741 11.349 191.546 10.3026C191.178 8.32 191.441 6.37661 192.272 4.61213C193.634 1.71544 197.311 1.18854 199.906 3.3917C200.702 4.06808 201.467 4.78123 202.169 5.4086C202.342 4.78368 202.491 3.93085 202.812 3.14663C204.033 0.156811 207.295 -1.11509 210.153 1.1959C213.277 3.72499 215.375 7.0481 217.348 10.479C220.128 15.3142 222.341 20.4141 224.414 25.585C224.663 26.2074 224.577 26.9794 225.24 27.5088C226.049 25.9109 226.97 24.4234 228.378 23.3426C230.081 22.0364 231.97 21.311 234.153 21.8085C236.384 22.3182 236.95 24.3449 237.822 26.0359C238.402 27.1608 238.499 28.4768 238.553 29.7291C238.67 32.4199 239.057 35.0813 239.398 37.7428C239.688 40.0096 240.619 42.1074 241.572 44.1905C243.64 48.7095 245.27 53.3486 245.991 58.3333C247.066 65.7539 245.112 72.3168 241.16 78.468C238.663 82.3572 235.97 86.1264 233.792 90.2214C231.953 93.6793 230.405 97.2279 230.583 101.274C230.759 105.259 232.23 108.788 234.482 112.005C238.514 117.769 243.877 122.038 249.775 125.697C254.4 128.567 259.317 130.854 264.355 132.851C267.581 134.13 270.902 135.164 274.262 136.069C278.284 137.152 282.344 138.112 286.456 138.696C290.257 139.235 294.09 139.632 297.949 139.703C301 139.759 304.06 139.781 307.071 139.475C311.969 138.978 316.832 138.191 321.649 137.078C324.521 136.414 327.389 135.711 330.284 135.14C332.973 134.608 335.629 133.91 338.319 133.37C340.619 132.91 342.958 132.65 345.251 132.16C347.909 131.589 350.621 131.486 353.301 131.175C356.11 130.849 358.975 131.02 361.816 131.001C363.359 130.991 364.901 131.032 366.443 131.052V132.522L366.441 132.515ZM184.89 96.054C186.266 92.9368 188.145 90.4616 190.286 88.1702C194.955 83.1708 200.113 78.7596 205.739 74.8729C211.179 71.1135 216.459 67.1263 220.486 61.7642C223.003 58.4166 224.604 54.6671 224.538 50.376C224.494 47.5601 223.612 44.9404 222.399 42.4333C219.312 36.0493 214.193 32.5645 207.213 31.9077C204.25 31.6283 201.346 32.1699 198.475 32.986C193.144 34.4981 188.459 37.0198 184.89 41.3869C184.485 41.8795 184.171 41.9653 183.586 41.5388C181.988 40.3699 180.336 39.2695 178.582 38.3358C175.219 36.5419 171.738 35.1328 167.976 34.3412C164.214 33.5497 160.515 33.5938 156.977 34.9465C152.538 36.6449 149.205 39.7989 146.739 43.8866C146.247 44.7051 146.026 45.5334 146.216 46.45C146.859 49.5525 147.519 52.6526 148.184 55.7503C148.45 56.9903 148.798 58.2426 148.274 59.4729C147.819 60.5413 146.822 60.9702 145.599 61.2079C148.684 64.3668 152.051 66.869 155.545 69.202C161.531 73.2015 167.508 77.2206 172.946 81.9651C177.57 85.9989 181.922 90.2999 184.892 96.054H184.89ZM183.852 112.334C182.19 115.066 180.326 117.292 178.219 119.326C173.031 124.332 167.656 129.167 163.578 135.206C160.116 140.333 156.87 145.54 155.545 151.755C154.568 156.345 156.205 160.776 160.169 163.273C164.93 166.273 170.317 166.942 175.721 167.422C177.88 167.614 180.068 167.445 182.261 167.19C185.326 166.832 188.349 166.374 191.317 165.538C195.759 164.283 199.937 162.46 203.429 159.357C207.849 155.429 209.213 150.626 206.552 144.979C204.352 140.306 201.319 136.203 198.054 132.253C195.133 128.717 192.05 125.317 189.251 121.673C187.087 118.855 185.267 115.855 183.847 112.336L183.852 112.334ZM223.432 41.1786C223.432 39.1396 223.422 37.4291 223.437 35.7185C223.442 35.2308 223.469 34.7358 223.561 34.2579C224.046 31.7754 224.314 29.4203 223.315 26.8691C220.779 20.3846 217.996 14.0423 214.249 8.16805C212.807 5.90854 211.25 3.72254 209.018 2.1394C207.697 1.2008 206.314 1.2155 205.122 2.23253C203.887 3.28632 202.976 6.92311 203.687 8.38371C205.222 11.5304 206.462 14.7922 207.559 18.1104C208.582 21.1983 209.479 24.3204 209.842 27.57C209.949 28.5405 210.178 29.7609 209.001 30.0771C207.873 30.3785 207.503 29.1899 207.118 28.3616C206.031 26.0383 205.29 23.5852 204.52 21.1444C203.429 17.6914 202.449 14.1869 202.235 10.5648C202.062 7.65587 200.537 5.68553 198.412 4.09014C196.463 2.62464 193.727 3.82056 193.217 6.22467C192.791 8.24648 192.896 10.2854 193.147 12.3121C193.237 13.0302 192.981 13.9124 193.488 14.4442C195.712 16.7797 196.122 19.8014 196.648 22.7446C197.104 25.3007 197.494 27.8935 197.357 30.5108C197.299 31.6087 197.71 31.8048 198.624 31.4445C199.574 31.072 200.588 30.9863 201.582 30.8098C206.618 29.9129 211.416 30.5647 215.901 33.0987C219.137 34.9269 221.449 37.6619 223.432 41.1737V41.1786ZM145.658 42.8647C146.54 41.4286 147.439 40.2743 148.433 39.223C150.275 37.2698 152.334 35.5788 154.748 34.351C155.116 34.1648 155.898 34.1109 155.657 33.4418C155.135 31.9984 155.686 30.6775 156.074 29.3933C157.47 24.7591 159.431 20.3332 161.475 15.9636C163.293 12.0769 163.388 8.1362 162.401 4.10974C161.936 2.21538 160.618 0.813591 158.088 2.2889C157.555 2.60013 157.114 3.00204 156.69 3.43336C154.755 5.40125 153.513 7.82496 152.343 10.2732C150.47 14.1943 148.996 18.282 147.531 22.377C145.173 28.9792 144.41 35.6989 145.658 42.8647ZM163.532 32.4469C164.016 32.4469 164.219 32.4395 164.421 32.4469C165.191 32.4836 166.039 32.7532 166.711 32.5155C167.62 32.192 166.816 31.0549 167.301 30.4152C167.35 30.3515 167.379 30.2707 167.403 30.1947C168.587 26.4035 170.473 22.9554 172.493 19.5637C173.467 17.9242 174.951 16.5543 175.485 14.704C176.252 12.0352 176.715 9.2537 176.274 6.48444C175.88 3.99946 175.002 2.53151 172.376 2.89911C171.474 3.0241 170.836 3.60981 170.242 4.21512C168.256 6.22957 166.831 8.64839 165.476 11.1064C164.813 12.3048 164.102 13.4713 163.87 14.8878C163.154 19.272 161.984 23.5436 160.423 27.7024C159.879 29.1483 159.36 30.6015 158.822 32.0498C158.622 32.5841 158.644 33.0546 159.346 32.8071C160.817 32.29 162.323 32.5375 163.532 32.4493V32.4469ZM184.242 25.384C183.84 26.1976 183.442 27.0113 183.038 27.8224C181.805 30.3025 180.441 32.7017 178.54 34.7382C178.07 35.2431 177.514 35.7969 176.752 35.3215C176.048 34.8828 176.25 34.1427 176.469 33.5497C177.724 30.1579 179.451 26.9941 182.102 24.5483C183.235 23.5044 183.881 22.3697 184.263 21.0267C184.641 19.7034 184.853 18.3236 185.029 16.9537C185.182 15.7455 184.778 14.5888 184.215 13.5571C183.798 12.7949 183.057 12.3685 182.09 12.3734C180.363 12.3832 176.971 14.8976 176.469 16.6792C175.794 19.0735 174.929 21.4017 173.989 23.6955C172.727 26.7687 171.652 29.957 169.394 32.513C168.97 32.9934 169.291 33.084 169.72 33.2041C174.069 34.4147 178.167 36.2062 181.949 38.6912C182.748 39.2156 182.887 38.9411 182.88 38.13C182.86 36.1719 182.802 34.2113 183.162 32.268C183.584 29.9962 183.805 27.6876 184.237 25.3865L184.242 25.384ZM186.425 37.4609C188.993 35.5543 191.692 33.9687 194.606 32.7532C195.186 32.5106 195.184 32.2067 194.913 31.6234C194.472 30.675 194.087 29.6531 193.929 28.6238C193.359 24.9331 192.915 21.2228 192.367 17.5272C192.26 16.8067 192.331 15.797 191.568 15.4956C190.674 15.1402 190.004 15.922 189.38 16.5101C189.263 16.6204 189.156 16.7479 189.058 16.8753C187.731 18.6251 187.119 20.6861 186.532 22.7594C186.391 23.2593 186.668 23.4823 186.992 23.769C187.852 24.5263 188.722 25.3399 188.849 26.5432C189.056 28.5307 189.027 30.501 188.384 32.4567C187.828 34.1501 186.888 35.6768 186.425 37.456V37.4609ZM235.527 29.3566C235.527 28.2145 235.537 27.0725 235.52 25.9305C235.515 25.6291 235.641 25.2051 235.217 25.1022C234.854 25.014 234.64 25.3522 234.45 25.607C234.038 26.1609 233.639 26.7319 233.49 27.423C232.83 30.4863 232.886 33.5055 234.253 36.3777C234.574 37.0541 234.81 38.3701 235.607 38.1349C236.638 37.831 236.199 36.5395 236.224 35.6352C236.224 35.596 236.224 35.5519 236.207 35.5151C235.415 33.5252 235.529 31.4372 235.527 29.359V29.3566ZM129.492 40.9164C131.134 38.2133 132.393 35.373 133.258 32.3488C133.673 30.8956 133.414 29.6237 132.593 28.4081C132.411 28.1361 132.276 27.7293 131.957 27.7269C131.511 27.7269 131.487 28.2464 131.373 28.5503C130.863 29.9202 130.512 31.3367 130.244 32.7801C129.745 35.4612 129.311 38.1447 129.492 40.9139V40.9164ZM184.361 37.2526C186.225 34.2873 187.865 31.2338 187.555 27.548C187.494 26.8226 187.277 26.1413 186.754 25.5507C186.237 24.9674 185.976 25.0311 185.825 25.7492C185.565 26.9819 185.318 28.217 185.097 29.457C184.641 32.0204 184.261 34.5912 184.361 37.2551V37.2526ZM145.051 48.3321C143.794 51.0573 143.767 53.8559 144.157 56.6889C144.264 57.4584 144.466 58.2059 144.971 58.8259C145.299 59.2327 145.609 59.7645 146.242 59.5219C146.815 59.3013 147.061 58.8308 147.095 58.1765C147.141 57.2525 146.851 56.4095 146.657 55.5395C146.123 53.1379 145.587 50.7338 145.051 48.3321ZM225.208 32.7998C225.126 33.9932 225.182 34.8706 224.989 35.6891C224.329 38.4902 225.289 41.1565 225.576 43.8768C225.61 44.2076 225.774 44.7835 226.244 44.7884C226.765 44.7933 226.729 44.2346 226.838 43.8596C227.109 42.9431 227.084 42.002 226.987 41.0732C226.704 38.3677 226.159 35.716 225.208 32.7998ZM204.082 12.9273C204.849 17.7967 207.042 25.0385 208.202 26.4721C207.364 21.6737 205.829 17.2747 204.082 12.9273ZM157.177 31.7435C158.9 28.0749 160.186 24.2396 161.146 20.294C159.779 24.0901 157.684 27.6288 157.177 31.7435ZM168.894 30.7314C170.743 28.043 171.993 25.0679 172.907 21.9408C171.228 24.7076 169.671 27.5308 168.894 30.7314ZM194.08 18.7942C194.899 22.4457 194.553 26.2957 195.927 29.8491C195.513 26.129 195.525 22.3403 194.08 18.7942ZM184.539 106.092C184.999 104.484 185.233 102.977 185.031 101.411C184.451 102.889 184.475 104.421 184.539 106.092ZM179.534 30.773C180.385 29.9202 180.887 28.8689 181.318 27.7759C180.497 28.641 179.907 29.6433 179.534 30.773Z"/>
</mask>
<path d="M366.441 132.515C364.009 132.466 361.578 132.407 359.144 132.368C356.376 132.324 353.649 132.868 350.899 132.978C346.998 133.133 343.209 133.986 339.389 134.613C336.48 135.091 333.622 135.887 330.737 136.524C325.642 137.649 320.565 138.83 315.428 139.769C309.25 140.901 303.044 141.372 296.785 141.141C292.652 140.99 288.564 140.443 284.473 139.784C279.666 139.012 274.959 137.875 270.324 136.434C263.505 134.316 256.931 131.601 250.752 127.974C245.314 124.781 240.246 121.112 236.058 116.331C233.502 113.415 231.346 110.253 230.072 106.518C229.068 103.575 229.048 100.625 229.575 97.6126C230.637 91.5276 234.138 86.6508 237.361 81.6392C239.776 77.8896 242.459 74.2847 243.682 69.8931C245.28 64.1585 244.949 58.4705 243.297 52.7874C242.212 49.06 240.553 45.58 239.06 42.0241C238.166 39.8993 237.802 37.657 237.649 35.395C237.571 36.4929 237.776 37.6447 237.218 38.7279C236.516 40.088 235.349 40.3258 234.306 39.1838C232.981 37.7305 232.364 35.8974 231.923 34.0324C231.446 32.0033 231.285 29.957 231.857 27.8813C232.245 26.4795 232.73 25.1806 233.816 24.1734C234.036 23.97 234.479 23.7862 234.384 23.5142C234.27 23.1907 233.853 23.0583 233.456 23.0583C231.402 23.0583 229.684 23.8205 228.3 25.3399C227.357 26.379 226.777 27.6386 226.21 28.9007C225.769 29.881 226.117 30.7951 226.407 31.7337C227.577 35.5126 228.624 39.3136 228.386 43.345C228.273 45.2345 227.786 45.928 225.932 46.3691C225.269 46.526 225.452 46.9377 225.535 47.2979C226.77 52.736 225.177 57.505 222.114 61.9162C218.854 66.6117 214.561 70.246 209.985 73.5397C203.18 78.4386 196.421 83.3718 190.822 89.7141C188.954 91.8291 187.355 94.1082 186.159 96.674C185.757 97.5367 185.711 98.4018 186.001 99.2766C186.987 102.249 186.644 105.242 185.579 108.023C184.709 110.292 185.292 112.106 186.203 114.062C188.379 118.73 191.697 122.568 194.996 126.418C199.223 131.349 203.502 136.243 206.662 141.975C208.099 144.582 209.366 147.263 209.376 150.358C209.388 154.458 207.442 157.578 204.559 160.232C200.856 163.641 196.382 165.533 191.636 166.945C185.886 168.653 180.017 169.184 174.081 168.738C169.053 168.361 164.165 167.337 159.714 164.717C155.028 161.96 152.906 156.483 154.193 151.162C156.142 143.1 160.654 136.517 165.644 130.177C169.252 125.592 173.714 121.835 177.795 117.713C179.6 115.89 181.281 113.978 182.553 111.721C183.031 110.873 183.316 110.023 183.194 109.045C182.77 105.683 183.135 102.369 183.874 99.0929C184.251 97.4191 183.379 96.1766 182.607 94.9047C179.451 89.6896 175.09 85.5848 170.463 81.7396C165.283 77.4338 159.679 73.7162 154.11 69.9544C150.548 67.5503 147.115 64.9746 144.196 61.7912C142.242 59.6591 140.658 57.2844 139.666 54.5053C139.128 53.0006 139.666 51.6773 139.959 50.3245C140.777 46.5309 141.44 42.7029 141.174 38.8309C140.919 35.1009 140.446 31.3514 137.732 28.3885C136.606 27.1608 135.251 26.3447 133.67 25.8791C133.375 25.7933 133.095 25.8251 132.869 26.0285C132.644 26.2295 132.839 26.3912 132.973 26.5358C135.459 29.1801 135.13 32.1234 133.906 35.1818C133.015 37.4119 132.082 39.6224 130.856 41.6908C130.549 42.2079 130.11 42.6465 129.74 43.1269C129.406 43.5606 128.968 43.7494 128.456 43.5803C127.876 43.3867 127.681 42.8867 127.696 42.3157C127.771 39.3823 128.086 36.4709 128.605 33.5815C128.98 31.4788 129.416 29.3909 130.12 27.3495C129.411 27.8739 129.116 28.6361 128.982 29.4325C128.12 34.5667 127.338 39.7155 126.434 44.8424C125.552 49.8442 124.531 54.8141 123.225 59.7351C121.415 66.5504 122.292 73.0202 126.178 79.0317C128.758 83.0238 131.84 86.6483 134.372 90.6674C136.263 93.6695 137.941 96.7745 138.884 100.223C140.424 105.854 139.001 110.903 135.817 115.588C132.44 120.553 128.027 124.617 124.148 129.141C117.019 137.458 108.241 143.499 98.5484 148.315C94.4089 150.371 90.1499 152.192 85.7253 153.51C80.5112 155.064 75.2607 156.537 69.8492 157.257C62.8273 158.191 55.7835 158.438 48.7299 157.681C40.3168 156.779 32.2228 154.586 24.2946 151.633C18.2643 149.388 12.0805 147.589 5.74814 146.396C4.15712 146.097 2.5588 145.832 0.972656 145.509V144.283C3.06802 144.112 5.06349 144.773 7.07845 145.139C9.81217 145.636 12.502 146.41 15.187 147.158C18.4958 148.079 21.7387 149.219 24.9865 150.344C28.573 151.589 32.14 152.885 35.8312 153.824C40.156 154.922 44.5246 155.625 48.9541 156.144C54.1827 156.757 59.4163 156.708 64.6206 156.35C68.9599 156.054 73.2993 155.36 77.5509 154.348C83.608 152.907 89.4896 150.922 95.1544 148.31C100.863 145.675 106.316 142.607 111.442 138.938C115.655 135.924 119.358 132.378 122.777 128.511C126.402 124.408 130.369 120.612 133.646 116.196C136.543 112.292 138.421 108.092 137.912 103.063C137.554 99.5266 136.041 96.4437 134.357 93.4171C132.057 89.2828 128.985 85.6877 126.297 81.823C123.074 77.1888 120.832 72.2188 120.881 66.4426C120.903 63.7885 121.366 61.1981 122.07 58.6225C122.84 55.8042 123.398 52.9222 123.968 50.0525C124.633 46.7024 125.328 43.3523 125.788 39.9729C126.134 37.4315 126.526 34.8975 126.948 32.3709C127.221 30.7338 127.413 29.0576 128.113 27.521C128.683 26.2663 129.521 25.3399 131.022 25.3007C131.18 25.2958 131.375 25.2933 131.487 25.2051C133.865 23.3426 135.748 25.0066 137.478 26.2589C140.249 28.266 141.445 31.3048 142.115 34.5789C142.666 37.2796 142.702 40.0145 142.524 42.7372C142.337 45.6143 142.052 48.4865 141.231 51.2827C140.595 53.4442 141.304 55.3508 142.602 57.1888C142.9 56.1816 142.317 55.3753 142.327 54.4931C142.356 51.9027 142.668 49.3222 143.745 46.994C144.615 45.1095 144.232 43.3278 144.015 41.5045C143.584 37.8432 143.579 34.204 144.04 30.5427C144.873 23.9063 147.57 17.885 150.072 11.8049C151.498 8.3396 153.157 4.98218 155.844 2.26439C156.756 1.34294 157.833 0.732719 159.044 0.347964C160.62 -0.154424 162.345 0.651847 163.22 2.2938C164.019 3.79361 164.326 5.42821 164.443 7.10201C164.499 7.89603 164.453 8.6974 164.562 9.51837C165.81 7.67547 166.933 5.80316 168.351 4.1367C169.204 3.13438 170.159 2.25459 171.326 1.66642C173.433 0.600383 176.196 1.80121 177.134 4.10729C178.026 6.29819 178.06 8.55036 177.719 10.8491C177.636 11.4005 177.324 12.1749 177.736 12.4837C178.284 12.8954 178.701 12.0744 179.115 11.7877C182.46 9.45956 185.954 11.3049 186.386 15.8264C186.456 16.5763 186.395 17.3385 186.395 18.3604C187.382 16.7405 188.196 15.3314 189.653 14.4908C189.724 14.4516 189.787 14.4001 189.85 14.3462C190.377 13.9051 191.434 14.2531 191.602 13.4664C191.821 12.4445 191.741 11.349 191.546 10.3026C191.178 8.32 191.441 6.37661 192.272 4.61213C193.634 1.71544 197.311 1.18854 199.906 3.3917C200.702 4.06808 201.467 4.78123 202.169 5.4086C202.342 4.78368 202.491 3.93085 202.812 3.14663C204.033 0.156811 207.295 -1.11509 210.153 1.1959C213.277 3.72499 215.375 7.0481 217.348 10.479C220.128 15.3142 222.341 20.4141 224.414 25.585C224.663 26.2074 224.577 26.9794 225.24 27.5088C226.049 25.9109 226.97 24.4234 228.378 23.3426C230.081 22.0364 231.97 21.311 234.153 21.8085C236.384 22.3182 236.95 24.3449 237.822 26.0359C238.402 27.1608 238.499 28.4768 238.553 29.7291C238.67 32.4199 239.057 35.0813 239.398 37.7428C239.688 40.0096 240.619 42.1074 241.572 44.1905C243.64 48.7095 245.27 53.3486 245.991 58.3333C247.066 65.7539 245.112 72.3168 241.16 78.468C238.663 82.3572 235.97 86.1264 233.792 90.2214C231.953 93.6793 230.405 97.2279 230.583 101.274C230.759 105.259 232.23 108.788 234.482 112.005C238.514 117.769 243.877 122.038 249.775 125.697C254.4 128.567 259.317 130.854 264.355 132.851C267.581 134.13 270.902 135.164 274.262 136.069C278.284 137.152 282.344 138.112 286.456 138.696C290.257 139.235 294.09 139.632 297.949 139.703C301 139.759 304.06 139.781 307.071 139.475C311.969 138.978 316.832 138.191 321.649 137.078C324.521 136.414 327.389 135.711 330.284 135.14C332.973 134.608 335.629 133.91 338.319 133.37C340.619 132.91 342.958 132.65 345.251 132.16C347.909 131.589 350.621 131.486 353.301 131.175C356.11 130.849 358.975 131.02 361.816 131.001C363.359 130.991 364.901 131.032 366.443 131.052V132.522L366.441 132.515ZM184.89 96.054C186.266 92.9368 188.145 90.4616 190.286 88.1702C194.955 83.1708 200.113 78.7596 205.739 74.8729C211.179 71.1135 216.459 67.1263 220.486 61.7642C223.003 58.4166 224.604 54.6671 224.538 50.376C224.494 47.5601 223.612 44.9404 222.399 42.4333C219.312 36.0493 214.193 32.5645 207.213 31.9077C204.25 31.6283 201.346 32.1699 198.475 32.986C193.144 34.4981 188.459 37.0198 184.89 41.3869C184.485 41.8795 184.171 41.9653 183.586 41.5388C181.988 40.3699 180.336 39.2695 178.582 38.3358C175.219 36.5419 171.738 35.1328 167.976 34.3412C164.214 33.5497 160.515 33.5938 156.977 34.9465C152.538 36.6449 149.205 39.7989 146.739 43.8866C146.247 44.7051 146.026 45.5334 146.216 46.45C146.859 49.5525 147.519 52.6526 148.184 55.7503C148.45 56.9903 148.798 58.2426 148.274 59.4729C147.819 60.5413 146.822 60.9702 145.599 61.2079C148.684 64.3668 152.051 66.869 155.545 69.202C161.531 73.2015 167.508 77.2206 172.946 81.9651C177.57 85.9989 181.922 90.2999 184.892 96.054H184.89ZM183.852 112.334C182.19 115.066 180.326 117.292 178.219 119.326C173.031 124.332 167.656 129.167 163.578 135.206C160.116 140.333 156.87 145.54 155.545 151.755C154.568 156.345 156.205 160.776 160.169 163.273C164.93 166.273 170.317 166.942 175.721 167.422C177.88 167.614 180.068 167.445 182.261 167.19C185.326 166.832 188.349 166.374 191.317 165.538C195.759 164.283 199.937 162.46 203.429 159.357C207.849 155.429 209.213 150.626 206.552 144.979C204.352 140.306 201.319 136.203 198.054 132.253C195.133 128.717 192.05 125.317 189.251 121.673C187.087 118.855 185.267 115.855 183.847 112.336L183.852 112.334ZM223.432 41.1786C223.432 39.1396 223.422 37.4291 223.437 35.7185C223.442 35.2308 223.469 34.7358 223.561 34.2579C224.046 31.7754 224.314 29.4203 223.315 26.8691C220.779 20.3846 217.996 14.0423 214.249 8.16805C212.807 5.90854 211.25 3.72254 209.018 2.1394C207.697 1.2008 206.314 1.2155 205.122 2.23253C203.887 3.28632 202.976 6.92311 203.687 8.38371C205.222 11.5304 206.462 14.7922 207.559 18.1104C208.582 21.1983 209.479 24.3204 209.842 27.57C209.949 28.5405 210.178 29.7609 209.001 30.0771C207.873 30.3785 207.503 29.1899 207.118 28.3616C206.031 26.0383 205.29 23.5852 204.52 21.1444C203.429 17.6914 202.449 14.1869 202.235 10.5648C202.062 7.65587 200.537 5.68553 198.412 4.09014C196.463 2.62464 193.727 3.82056 193.217 6.22467C192.791 8.24648 192.896 10.2854 193.147 12.3121C193.237 13.0302 192.981 13.9124 193.488 14.4442C195.712 16.7797 196.122 19.8014 196.648 22.7446C197.104 25.3007 197.494 27.8935 197.357 30.5108C197.299 31.6087 197.71 31.8048 198.624 31.4445C199.574 31.072 200.588 30.9863 201.582 30.8098C206.618 29.9129 211.416 30.5647 215.901 33.0987C219.137 34.9269 221.449 37.6619 223.432 41.1737V41.1786ZM145.658 42.8647C146.54 41.4286 147.439 40.2743 148.433 39.223C150.275 37.2698 152.334 35.5788 154.748 34.351C155.116 34.1648 155.898 34.1109 155.657 33.4418C155.135 31.9984 155.686 30.6775 156.074 29.3933C157.47 24.7591 159.431 20.3332 161.475 15.9636C163.293 12.0769 163.388 8.1362 162.401 4.10974C161.936 2.21538 160.618 0.813591 158.088 2.2889C157.555 2.60013 157.114 3.00204 156.69 3.43336C154.755 5.40125 153.513 7.82496 152.343 10.2732C150.47 14.1943 148.996 18.282 147.531 22.377C145.173 28.9792 144.41 35.6989 145.658 42.8647ZM163.532 32.4469C164.016 32.4469 164.219 32.4395 164.421 32.4469C165.191 32.4836 166.039 32.7532 166.711 32.5155C167.62 32.192 166.816 31.0549 167.301 30.4152C167.35 30.3515 167.379 30.2707 167.403 30.1947C168.587 26.4035 170.473 22.9554 172.493 19.5637C173.467 17.9242 174.951 16.5543 175.485 14.704C176.252 12.0352 176.715 9.2537 176.274 6.48444C175.88 3.99946 175.002 2.53151 172.376 2.89911C171.474 3.0241 170.836 3.60981 170.242 4.21512C168.256 6.22957 166.831 8.64839 165.476 11.1064C164.813 12.3048 164.102 13.4713 163.87 14.8878C163.154 19.272 161.984 23.5436 160.423 27.7024C159.879 29.1483 159.36 30.6015 158.822 32.0498C158.622 32.5841 158.644 33.0546 159.346 32.8071C160.817 32.29 162.323 32.5375 163.532 32.4493V32.4469ZM184.242 25.384C183.84 26.1976 183.442 27.0113 183.038 27.8224C181.805 30.3025 180.441 32.7017 178.54 34.7382C178.07 35.2431 177.514 35.7969 176.752 35.3215C176.048 34.8828 176.25 34.1427 176.469 33.5497C177.724 30.1579 179.451 26.9941 182.102 24.5483C183.235 23.5044 183.881 22.3697 184.263 21.0267C184.641 19.7034 184.853 18.3236 185.029 16.9537C185.182 15.7455 184.778 14.5888 184.215 13.5571C183.798 12.7949 183.057 12.3685 182.09 12.3734C180.363 12.3832 176.971 14.8976 176.469 16.6792C175.794 19.0735 174.929 21.4017 173.989 23.6955C172.727 26.7687 171.652 29.957 169.394 32.513C168.97 32.9934 169.291 33.084 169.72 33.2041C174.069 34.4147 178.167 36.2062 181.949 38.6912C182.748 39.2156 182.887 38.9411 182.88 38.13C182.86 36.1719 182.802 34.2113 183.162 32.268C183.584 29.9962 183.805 27.6876 184.237 25.3865L184.242 25.384ZM186.425 37.4609C188.993 35.5543 191.692 33.9687 194.606 32.7532C195.186 32.5106 195.184 32.2067 194.913 31.6234C194.472 30.675 194.087 29.6531 193.929 28.6238C193.359 24.9331 192.915 21.2228 192.367 17.5272C192.26 16.8067 192.331 15.797 191.568 15.4956C190.674 15.1402 190.004 15.922 189.38 16.5101C189.263 16.6204 189.156 16.7479 189.058 16.8753C187.731 18.6251 187.119 20.6861 186.532 22.7594C186.391 23.2593 186.668 23.4823 186.992 23.769C187.852 24.5263 188.722 25.3399 188.849 26.5432C189.056 28.5307 189.027 30.501 188.384 32.4567C187.828 34.1501 186.888 35.6768 186.425 37.456V37.4609ZM235.527 29.3566C235.527 28.2145 235.537 27.0725 235.52 25.9305C235.515 25.6291 235.641 25.2051 235.217 25.1022C234.854 25.014 234.64 25.3522 234.45 25.607C234.038 26.1609 233.639 26.7319 233.49 27.423C232.83 30.4863 232.886 33.5055 234.253 36.3777C234.574 37.0541 234.81 38.3701 235.607 38.1349C236.638 37.831 236.199 36.5395 236.224 35.6352C236.224 35.596 236.224 35.5519 236.207 35.5151C235.415 33.5252 235.529 31.4372 235.527 29.359V29.3566ZM129.492 40.9164C131.134 38.2133 132.393 35.373 133.258 32.3488C133.673 30.8956 133.414 29.6237 132.593 28.4081C132.411 28.1361 132.276 27.7293 131.957 27.7269C131.511 27.7269 131.487 28.2464 131.373 28.5503C130.863 29.9202 130.512 31.3367 130.244 32.7801C129.745 35.4612 129.311 38.1447 129.492 40.9139V40.9164ZM184.361 37.2526C186.225 34.2873 187.865 31.2338 187.555 27.548C187.494 26.8226 187.277 26.1413 186.754 25.5507C186.237 24.9674 185.976 25.0311 185.825 25.7492C185.565 26.9819 185.318 28.217 185.097 29.457C184.641 32.0204 184.261 34.5912 184.361 37.2551V37.2526ZM145.051 48.3321C143.794 51.0573 143.767 53.8559 144.157 56.6889C144.264 57.4584 144.466 58.2059 144.971 58.8259C145.299 59.2327 145.609 59.7645 146.242 59.5219C146.815 59.3013 147.061 58.8308 147.095 58.1765C147.141 57.2525 146.851 56.4095 146.657 55.5395C146.123 53.1379 145.587 50.7338 145.051 48.3321ZM225.208 32.7998C225.126 33.9932 225.182 34.8706 224.989 35.6891C224.329 38.4902 225.289 41.1565 225.576 43.8768C225.61 44.2076 225.774 44.7835 226.244 44.7884C226.765 44.7933 226.729 44.2346 226.838 43.8596C227.109 42.9431 227.084 42.002 226.987 41.0732C226.704 38.3677 226.159 35.716 225.208 32.7998ZM204.082 12.9273C204.849 17.7967 207.042 25.0385 208.202 26.4721C207.364 21.6737 205.829 17.2747 204.082 12.9273ZM157.177 31.7435C158.9 28.0749 160.186 24.2396 161.146 20.294C159.779 24.0901 157.684 27.6288 157.177 31.7435ZM168.894 30.7314C170.743 28.043 171.993 25.0679 172.907 21.9408C171.228 24.7076 169.671 27.5308 168.894 30.7314ZM194.08 18.7942C194.899 22.4457 194.553 26.2957 195.927 29.8491C195.513 26.129 195.525 22.3403 194.08 18.7942ZM184.539 106.092C184.999 104.484 185.233 102.977 185.031 101.411C184.451 102.889 184.475 104.421 184.539 106.092ZM179.534 30.773C180.385 29.9202 180.887 28.8689 181.318 27.7759C180.497 28.641 179.907 29.6433 179.534 30.773Z" fill="#CBE2D1" stroke="#043A4E" stroke-width="0.4" mask="url(#path-1-inside-1_22089_49703)"/>
<path d="M43.3039 110.238L48.5286 108.191L51.5698 91.6922L59.7316 112.663L61.8939 100.537L69.3578 97.6117L69.7624 94.2306L75.7406 100.75L76.138 88.5097L85.1089 102.718L85.5064 90.4779L95.9559 86.3831" stroke="#CBE2D1" stroke-width="0.677711" stroke-linecap="round"/>
<path d="M276.81 101.943C276.821 102.045 276.784 102.092 276.727 102.126C276.631 102.185 276.532 102.178 276.445 102.111C276.203 101.926 276.018 101.687 275.857 101.433C275.773 101.302 275.845 101.192 275.952 101.108C276.089 101 276.149 101.118 276.221 101.204C276.38 101.397 276.543 101.588 276.701 101.782C276.747 101.838 276.784 101.904 276.809 101.942L276.81 101.943Z" fill="#CBE2D1"/>
<path fill-rule="evenodd" clip-rule="evenodd" d="M290.127 107.465C290.175 107.515 290.223 107.564 290.271 107.614L290.275 107.615C290.267 107.627 290.259 107.639 290.252 107.651C290.244 107.663 290.236 107.675 290.228 107.687C290.086 107.652 289.944 107.617 289.801 107.583C289.482 107.507 289.164 107.43 288.848 107.343C288.447 107.231 288.045 107.12 287.644 107.009C285.346 106.374 283.049 105.738 280.767 105.046C279.878 104.777 279.083 104.388 278.454 103.687C278.253 103.464 278.038 103.253 277.824 103.042C277.652 102.873 277.479 102.703 277.314 102.528C277.121 102.323 276.999 102.431 276.879 102.537C276.822 102.587 276.767 102.637 276.704 102.654C276.53 102.7 276.632 102.834 276.713 102.914C276.864 103.063 277.013 103.215 277.162 103.367C277.761 103.979 278.361 104.591 279.115 105.033C280.133 105.631 281.257 105.945 282.379 106.258L282.473 106.285C284.461 106.841 286.453 107.386 288.444 107.932C289.494 108.219 290.545 108.507 291.595 108.796C291.609 108.8 291.625 108.803 291.641 108.806C291.707 108.817 291.782 108.831 291.798 108.926L292.986 109.224C293.411 109.239 293.836 109.266 294.261 109.292C295.122 109.345 295.984 109.399 296.847 109.362C298.373 109.298 299.849 108.989 301.264 108.412C302.213 108.026 303.117 107.554 303.961 106.97C304.683 106.47 304.776 106.389 304.776 106.389C304.776 106.389 305.13 106.014 305.149 106.015C305.149 106.015 305.399 105.844 305.678 105.739C305.704 105.689 305.803 105.58 305.892 105.483C305.935 105.436 305.975 105.391 306.004 105.357C306.053 105.3 306.106 105.245 306.163 105.196C307.178 104.34 308.062 103.358 308.929 102.359C310.091 101.021 311.067 99.5585 311.83 97.9608C312.545 96.4672 312.994 94.8815 313.432 93.2928C313.454 93.2099 313.481 93.1275 313.507 93.0448C313.579 92.8193 313.653 92.5912 313.656 92.3434C313.221 92.4777 312.948 92.7484 312.837 93.1555C312.796 93.3044 312.75 93.4519 312.705 93.5994C312.684 93.668 312.663 93.7366 312.642 93.8053C312.111 95.5811 311.442 97.3004 310.503 98.9065C309.037 101.413 307.076 103.496 304.896 105.39C304.652 105.602 304.359 105.713 304.034 105.739C303.718 105.765 303.406 105.731 303.094 105.698C302.967 105.684 302.84 105.671 302.713 105.661C302.71 105.661 302.706 105.661 302.702 105.66C302.643 105.656 302.578 105.652 302.55 105.588C302.514 105.504 302.573 105.456 302.628 105.413C302.632 105.41 302.636 105.406 302.64 105.403C302.728 105.331 302.819 105.263 302.911 105.197C304.038 104.38 305.064 103.454 305.956 102.384C306.904 101.248 307.692 100.006 308.383 98.7027C308.902 97.7246 309.401 96.7366 309.816 95.7087C309.887 95.5336 309.635 95.123 309.442 95.1042C309.342 95.0945 308.998 95.8497 308.828 96.2207C308.8 96.2835 308.776 96.3354 308.759 96.3706C308.32 97.3034 307.856 98.2257 307.344 99.1215C306.312 100.926 305.08 102.574 303.446 103.888C302.73 104.463 301.99 105.005 301.118 105.348C300.497 105.593 299.885 105.495 299.277 105.398C299.131 105.374 298.985 105.351 298.84 105.332C297.151 105.116 295.468 104.86 293.785 104.596L293.748 104.59C292.988 104.47 292.211 104.348 291.621 103.786C290.865 103.066 290.785 102.451 291.692 101.866C292.868 101.11 294.018 100.312 295.144 99.4808C296.468 98.5049 297.71 97.443 298.764 96.1774C300.707 93.8438 301.843 91.163 302.066 88.1426C302.217 86.1026 302.279 84.0527 302.299 82.0059C302.301 81.8316 302.303 81.6573 302.305 81.483C302.336 78.5666 302.368 75.6501 302.027 72.7409C301.793 70.7447 301.534 68.7515 301.244 66.7628C301.05 65.4344 300.986 65.4224 299.657 65.2895C299.642 65.2879 299.625 65.2877 299.608 65.2874C299.546 65.2864 299.481 65.2853 299.459 65.2171C299.43 65.1271 299.499 65.0832 299.561 65.0437C299.574 65.0355 299.587 65.0275 299.598 65.0193C299.752 64.907 299.909 64.7986 300.067 64.6901C300.138 64.6413 300.209 64.5924 300.279 64.5431C300.471 64.4095 300.498 64.2495 300.355 64.0616C300.325 64.0211 300.296 63.979 300.268 63.9368C300.226 63.8744 300.183 63.812 300.135 63.7552C299.93 63.5182 299.967 63.3054 300.169 63.088C300.491 62.7439 300.835 62.4405 301.293 62.2805C301.97 62.045 302.652 61.9778 303.373 62.0276C306.5 62.2427 308.765 63.7771 310.282 66.4533C311.222 68.1122 311.715 69.9243 312.05 71.793C312.415 73.8307 312.488 75.8896 312.528 77.947C312.561 79.6157 312.484 81.2874 312.319 82.9516C312.13 84.8535 311.845 86.7395 311.414 88.6037C310.999 90.3947 310.481 92.1539 309.826 93.8724C309.791 93.9675 310.492 93.8189 310.593 93.4724C310.603 93.4373 310.648 93.3033 310.716 93.0964C311.058 92.0631 312.001 89.2133 312.294 87.806C312.947 84.6686 313.219 81.4935 313.216 78.2949C313.214 77.1402 313.161 75.9847 313.081 74.8315C312.936 72.7575 312.673 70.7047 312.018 68.7205C311.437 66.9597 310.663 65.2903 309.334 63.962C307.31 61.9386 304.81 61.1529 301.982 61.3906C301.145 61.4608 300.423 61.8435 299.813 62.4465C299.147 63.1046 298.747 63.9069 298.443 64.7658C298.33 65.0865 298.179 65.1809 297.854 65.0616C297.607 64.9706 297.355 64.8885 297.104 64.8064C296.803 64.7081 296.503 64.6099 296.208 64.4963C296.128 64.4656 296.042 64.4425 295.956 64.4193C295.731 64.3585 295.504 64.2971 295.366 64.0978C294.876 63.3869 294.135 63.1718 293.35 63.0397C292.774 62.9425 292.197 62.8502 291.62 62.758C290.889 62.6412 290.157 62.5244 289.428 62.3974C287.626 62.0842 285.825 61.7574 284.027 61.4216C283.983 61.4134 283.94 61.4052 283.896 61.397C283.466 61.3168 283.03 61.2356 282.599 61.0767C282.703 60.9201 282.83 60.8705 282.949 60.8239C282.97 60.8156 282.991 60.8075 283.011 60.7989C285.729 59.6465 288.47 58.5514 291.238 57.5234C292.257 57.1453 293.301 56.9113 294.391 57.1227C297.637 57.7514 300.869 58.4442 304.066 59.291C306.032 59.8118 307.83 60.6706 309.442 61.9016C310.628 62.8073 311.653 63.882 312.66 64.9778C313.508 65.9001 314.025 66.9605 314.213 68.1877C314.251 68.4393 314.291 68.6909 314.33 68.9423C314.499 70.0182 314.668 71.0939 314.771 72.1809C314.95 74.0836 315.021 75.984 314.99 77.8957C314.961 79.5946 314.847 81.2829 314.671 82.9705C314.446 85.1222 314.102 87.2543 313.679 89.375C313.641 89.5668 313.605 89.7588 313.568 89.9509C313.499 90.3146 313.429 90.6782 313.349 91.0392C313.277 91.3615 314.215 90.2558 314.264 90.0105C314.313 89.7687 314.362 89.527 314.412 89.2854C314.634 88.1968 314.857 87.1088 315.017 86.0082C315.221 84.6029 315.402 83.1976 315.512 81.7803C315.548 81.3026 315.569 80.8243 315.59 80.3463C315.611 79.8455 315.633 79.3452 315.673 78.8466C315.785 77.4525 315.712 76.0638 315.64 74.6784C315.631 74.5234 315.623 74.3684 315.615 74.2134C315.515 72.2451 315.289 70.2828 314.955 68.3371C314.764 67.2269 314.504 66.1333 313.778 65.2299C312.982 64.239 312.123 63.3031 311.174 62.4503C309.901 61.3069 308.514 60.3363 306.966 59.5959C305.856 59.0653 304.686 58.7144 303.502 58.3974C302.327 58.0824 301.139 57.818 299.952 57.5535C299.674 57.4916 299.396 57.4297 299.118 57.3672C298.612 57.2529 298.103 57.1451 297.595 57.0372C296.832 56.8753 296.069 56.7134 295.311 56.5295C293.971 56.2042 292.651 56.2034 291.368 56.7166C290.461 57.0792 289.548 57.4287 288.636 57.7782C287.11 58.3627 285.584 58.9472 284.082 59.5929C283.908 59.668 283.731 59.7404 283.555 59.8128C283.043 60.0233 282.53 60.234 282.05 60.5136C281.644 60.7506 281.537 61.0276 281.673 61.4284C281.806 61.8201 281.805 61.8329 281.379 61.8133C281.084 61.7998 280.79 61.7697 280.496 61.7395C280.063 61.6952 279.63 61.6508 279.192 61.6593C278.247 61.6782 277.458 62.0261 276.881 62.7559C276.16 63.6676 275.531 64.6435 275.192 65.7695C275.106 66.0532 275.02 66.3368 274.935 66.6204C274.25 68.8886 273.565 71.1574 272.903 73.4323C272.29 75.535 271.694 77.6423 271.098 79.7495C270.921 80.3764 270.743 81.0033 270.566 81.6301C270.437 82.0838 270.319 82.5398 270.2 82.996C270.166 83.1241 270.133 83.2522 270.1 83.3803C270.097 83.3904 270.094 83.4006 270.091 83.4109C270.068 83.497 270.042 83.5891 270.137 83.6565C270.193 83.6957 271.088 83.1856 271.084 82.6384C271.082 82.482 271.13 82.3238 271.177 82.1672C271.193 82.116 271.208 82.065 271.222 82.0142C272.41 77.581 273.602 73.1492 274.976 68.7681C275.355 67.556 275.739 66.3454 276.137 65.1393C276.231 64.8556 276.355 64.5688 276.619 64.3786C275.131 69.331 273.788 74.31 272.445 79.2899C272.152 80.3759 271.859 81.462 271.565 82.5478C271.783 82.5048 272.282 82.1946 272.325 82.0301C272.699 80.5953 273.074 79.1606 273.467 77.7312C273.669 76.9977 273.869 76.2637 274.069 75.5297C274.725 73.1215 275.381 70.7131 276.108 68.3243C276.173 68.1084 276.238 67.8922 276.303 67.6759C276.602 66.6751 276.901 65.6739 277.291 64.7039C277.648 63.8156 278.2 63.5242 279.146 63.6541C279.176 63.6582 279.207 63.6628 279.237 63.6675C279.306 63.678 279.376 63.6886 279.446 63.6933C281.636 63.8329 283.816 64.0571 285.99 64.3575C288.674 64.728 291.305 65.3077 293.866 66.1929C294.168 66.297 294.316 66.3471 294.37 66.448C294.423 66.5462 294.386 66.6924 294.313 66.9831C294.297 67.0449 294.283 67.1069 294.268 67.1688C294.246 67.266 294.223 67.3631 294.197 67.4594C293.871 68.6737 293.545 69.8883 293.219 71.1028C292.892 72.3173 292.566 73.5319 292.24 74.7462C292.078 75.3492 291.918 75.9524 291.757 76.5557C291.412 77.8478 291.068 79.1399 290.713 80.4293C290.021 82.9505 289.316 85.4679 288.61 87.9853L288.61 87.9863C288.542 88.2287 288.474 88.471 288.407 88.7134C287.987 90.2141 287.567 91.7153 287.125 93.2098C286.848 94.1487 286.131 94.5509 285.163 94.3607C283.583 94.0501 282.044 93.5919 280.504 93.1336C280.121 93.0196 279.738 92.9057 279.355 92.7939C277.708 92.3147 276.068 91.806 274.435 91.283C274.2 91.2077 273.963 91.1376 273.726 91.0675C273.091 90.8797 272.456 90.6917 271.857 90.4037C271.367 90.1675 270.926 89.8626 270.875 89.2573C270.841 88.8445 270.823 88.4264 270.919 88.0173C271.254 86.5856 271.41 84.0814 271.086 84.2067C271.071 84.2128 271.065 84.2471 271.06 84.2796C271.058 84.2912 271.057 84.3026 271.054 84.3124C271.003 84.5297 270.951 84.7469 270.899 84.9641C270.603 86.2015 270.307 87.4384 270.168 88.7071C270.044 89.8279 270.514 90.6339 271.567 91.0098C272.383 91.3002 273.211 91.5548 274.038 91.8092L274.052 91.8136C274.196 91.858 274.341 91.9024 274.485 91.9468C276.222 92.4807 277.959 93.0147 279.702 93.5275C280.084 93.6399 280.465 93.7539 280.846 93.8679C282.278 94.2959 283.71 94.724 285.165 95.0679C286.309 95.3381 287.124 94.9117 287.542 93.8181C287.96 92.7223 288.287 91.5951 288.614 90.469C288.669 90.2788 288.724 90.0887 288.78 89.8988C289.406 87.763 290.028 85.6263 290.626 83.4829C291.04 82.003 291.433 80.5177 291.827 79.0322C291.942 78.598 292.057 78.1637 292.172 77.7297C292.452 76.6782 292.73 75.6264 293.008 74.5746C293.286 73.523 293.564 72.4714 293.844 71.4202C294.206 70.0601 294.572 68.7001 294.947 67.3431C294.955 67.3127 294.962 67.2795 294.97 67.2454C295.002 67.091 295.038 66.9189 295.237 66.9084C295.473 66.8963 295.612 67.0896 295.729 67.2745C295.84 67.4503 295.882 67.6443 295.874 67.8511C295.863 68.1665 295.798 68.4737 295.724 68.7794C295.642 69.1207 295.561 69.4621 295.479 69.8034C295.306 70.5254 295.133 71.2473 294.958 71.9688C294.483 73.9372 294.054 75.9145 293.662 77.901C293.385 79.3017 293.244 80.6942 293.999 82.012C294.12 82.2218 294.088 82.3327 293.819 82.3478C293.068 82.3886 292.618 82.8391 292.374 83.4965C291.77 85.1229 291.184 86.7562 290.604 88.3916C289.788 90.6913 288.969 92.9894 288.098 95.2694C287.77 96.1253 287.301 96.3827 286.414 96.1389C285.112 95.7819 283.816 95.4068 282.52 95.0302C282.167 94.9275 281.814 94.8249 281.461 94.7222C278.785 93.9444 276.11 93.1667 273.438 92.3766C273.27 92.3269 273.102 92.2778 272.934 92.2287C272.182 92.0096 271.43 91.7904 270.697 91.5117C269.484 91.0505 269.158 90.48 269.403 89.2105C269.434 89.0505 269.467 88.8898 269.506 88.7313C269.579 88.4417 269.651 88.1518 269.722 87.8619C269.926 87.0413 270.129 86.2204 270.35 85.4044C270.439 85.0746 269.972 84.461 269.864 84.5524C269.766 84.6354 269.537 85.5252 269.49 85.7509C269.402 86.178 269.307 86.6036 269.211 87.0292C269.031 87.83 268.852 88.6308 268.72 89.4415C268.508 90.7396 268.911 91.4815 270.112 91.9924C272.324 92.9313 274.625 93.6015 276.931 94.2581C278.981 94.8423 281.037 95.4083 283.093 95.9736C284.199 96.2777 285.307 96.5796 286.422 96.8521C287.317 97.071 287.939 96.8649 288.342 96.2589C288.537 95.9653 288.708 95.6581 288.839 95.3275C289.247 94.2995 289.613 93.2567 289.979 92.214C290.108 91.845 290.237 91.4761 290.369 91.1079C290.551 90.5954 290.733 90.0826 290.915 89.5699C291.355 88.3284 291.795 87.087 292.249 85.8505C292.327 85.6374 292.4 85.4221 292.472 85.2067C292.67 84.6241 292.867 84.041 293.169 83.501C293.444 83.012 294.123 82.8708 294.597 83.1735C294.736 83.2625 294.725 83.3712 294.679 83.4995C294.608 83.6969 294.536 83.8942 294.465 84.0915C294.274 84.6154 294.084 85.1393 293.903 85.6656C293.823 85.8972 293.741 86.1284 293.66 86.3597C293.257 87.504 292.853 88.6489 292.646 89.8513C292.493 90.7388 292.822 91.3985 293.622 91.8234C293.788 91.9117 293.965 91.9849 294.143 92.046C294.363 92.1207 294.451 92.2309 294.353 92.4687C294.157 92.9376 293.967 93.4085 293.776 93.8795C293.404 94.7958 293.033 95.7121 292.628 96.6128C292.196 97.5729 291.404 98.1457 290.322 98.0974C289.036 98.04 287.759 97.84 286.517 97.4883C285.068 97.0784 283.623 96.6505 282.179 96.2226C281.772 96.1022 281.366 95.9819 280.96 95.8619C279.881 95.543 278.802 95.2223 277.724 94.9017C276.771 94.6184 275.818 94.335 274.864 94.0528C274.71 94.0071 274.555 93.9608 274.401 93.9144C273.89 93.7612 273.379 93.6079 272.863 93.477C272.228 93.3155 272.021 93.5147 272.151 94.1343C272.402 95.3328 272.759 96.5027 273.291 97.6046C273.398 97.8251 273.497 98.0507 273.597 98.2765C273.984 99.1564 274.373 100.04 275.204 100.646C275.239 100.671 275.27 100.704 275.3 100.737C275.388 100.83 275.471 100.918 275.634 100.806C275.841 100.666 275.74 100.526 275.646 100.396C275.637 100.383 275.628 100.371 275.619 100.359C275.017 99.5004 274.512 98.5887 274.069 97.6408C273.635 96.7147 273.294 95.7562 273.024 94.7728C272.909 94.3577 273.041 94.2166 273.414 94.3283C273.978 94.497 274.542 94.6678 275.106 94.8386C275.617 94.9933 276.127 95.148 276.638 95.3011C278.825 95.957 281.012 96.6113 283.2 97.2649C283.495 97.353 283.79 97.4412 284.084 97.5293C285.228 97.8709 286.371 98.2125 287.515 98.5502C287.776 98.628 287.891 98.708 287.745 99.0212C286.969 100.687 286.978 102.373 287.666 104.069C288.147 105.257 288.893 106.257 289.809 107.142C289.918 107.247 290.023 107.356 290.127 107.465ZM305.492 105.723C305.498 105.727 305.503 105.732 305.505 105.739C305.506 105.73 305.502 105.725 305.492 105.723ZM301.395 73.2111C301.592 75.2494 301.664 77.2937 301.718 79.4134C301.698 80.1426 301.674 80.8792 301.65 81.6211C301.6 83.1558 301.549 84.7126 301.532 86.2709C301.508 88.4347 301.08 90.5403 300.2 92.5366C299.576 93.9532 298.73 95.2249 297.676 96.3608C296.315 97.8272 294.688 98.9656 293.06 100.104C293.015 100.136 292.97 100.168 292.925 100.199C292.736 100.331 292.547 100.462 292.359 100.594C291.782 100.996 291.206 101.398 290.635 101.805C290.4 101.974 290.291 101.969 290.257 101.648C290.172 100.875 290.076 100.102 289.967 99.3314C289.919 98.9902 290.056 98.8446 290.384 98.8098C292.115 98.6264 293.169 97.6257 293.697 96.0279C294.452 93.7382 295.197 91.4447 295.941 89.1511C296.086 88.7065 296.23 88.2619 296.375 87.8173C296.541 87.3031 296.711 86.7896 296.88 86.2761C297.336 84.8916 297.792 83.5071 298.203 82.1093C298.521 81.0293 298.837 79.9659 299.536 79.0625C299.619 78.9559 299.705 78.8528 299.792 78.7497C299.972 78.5361 300.152 78.3224 300.294 78.0776C301.026 76.8172 300.972 75.5727 300.166 74.3855C299.835 73.8994 299.711 73.4753 299.907 72.8911C300.131 72.2266 300.305 71.5455 300.48 70.8643C300.555 70.5707 300.63 70.277 300.71 69.9847C300.715 69.9641 300.719 69.9405 300.722 69.9166C300.735 69.8354 300.747 69.7492 300.849 69.7545C300.951 69.7599 300.959 69.8544 300.966 69.9384C300.968 69.9601 300.969 69.9812 300.973 69.9998C301.157 71.0647 301.292 72.1356 301.395 73.2111ZM294.272 80.3291C294.272 80.2583 294.273 80.1876 294.273 80.1168V80.1161C294.298 77.9644 294.711 75.8715 295.228 73.7938C295.329 73.3901 295.43 72.9866 295.531 72.5832C295.852 71.3036 296.173 70.0239 296.469 68.7386C296.631 68.0352 296.683 67.3145 296.196 66.679C296.188 66.6683 296.179 66.6576 296.171 66.6469C296.079 66.5257 295.986 66.4037 295.849 66.3371C295.437 66.1356 295.385 65.7831 295.406 65.3824C295.418 65.1703 295.49 65.0767 295.71 65.1371L295.748 65.1474C296.928 65.4722 298.109 65.7974 299.135 66.5054C299.764 66.9386 300.234 67.7492 300.053 68.6586C299.793 69.9651 299.527 71.27 299.249 72.5726C299.099 73.2745 298.887 73.4609 298.18 73.596C295.885 74.0353 295.132 76.1998 296.39 78.1146C296.725 78.627 297.653 78.8429 298.244 78.6074C298.446 78.5266 298.435 78.378 298.411 78.2036C298.344 77.7057 298.148 77.2521 297.951 76.7987C297.913 76.7099 297.875 76.621 297.837 76.5319C297.569 75.8927 297.749 75.3425 298.193 74.8692C298.762 74.2632 299.55 74.3991 299.873 75.1643C300.31 76.1968 300.275 77.2096 299.452 78.0361C298.505 78.9855 298.042 80.1614 297.665 81.3953C297.57 81.7085 297.479 82.0228 297.388 82.337C297.3 82.6386 297.213 82.9402 297.122 83.2406C297.116 83.2584 297.111 83.2774 297.106 83.2971C297.07 83.4278 297.027 83.5841 296.859 83.5493C296.675 83.5116 296.666 83.2973 296.665 83.1403C296.664 83.0516 296.7 82.9622 296.735 82.8737C296.747 82.8432 296.759 82.8127 296.769 82.7825C296.872 82.4844 296.923 82.1833 296.681 81.932C296.428 81.6686 296.107 81.7078 295.796 81.8074C295.755 81.8208 295.714 81.8352 295.673 81.8495C295.434 81.9337 295.204 82.0145 294.931 81.8603C294.502 81.6187 294.283 81.2776 294.273 80.7961C294.27 80.6404 294.271 80.4847 294.272 80.3291ZM292.205 106.203C293.574 106.833 295.04 107.075 296.544 107.097C297.657 107.073 298.752 106.907 299.838 106.672C300.644 106.498 301.459 106.39 302.274 106.282C302.446 106.259 302.618 106.236 302.79 106.213C302.933 106.193 303.074 106.189 303.145 106.349C303.231 106.542 303.116 106.662 302.972 106.757C302.383 107.149 301.759 107.479 301.11 107.759C299.729 108.353 298.278 108.685 296.782 108.743C295.342 108.799 293.947 108.515 292.615 107.955C291.752 107.593 290.923 107.171 290.202 106.566C289.185 105.713 288.583 104.591 288.167 103.362C287.835 102.374 287.681 101.363 287.912 100.323C287.967 100.071 288.07 99.8476 288.236 99.6521C288.61 99.2121 289.074 99.2785 289.331 99.8182C289.565 100.307 289.526 100.828 289.488 101.344C289.486 101.367 289.485 101.39 289.483 101.413C289.324 103.58 290.148 105.258 292.205 106.203ZM295.989 83.6769C296.184 84.0671 296.309 84.4708 296.252 84.9161V84.9154C296.2 86.0256 295.956 87.1026 295.625 88.1607C295.359 89.0128 295.021 89.84 294.664 90.6588C294.537 90.9501 294.357 91.246 294.014 91.1886C293.675 91.132 293.485 90.8558 293.426 90.489C293.312 89.7781 293.393 89.1094 293.625 88.4188C293.981 87.36 294.347 86.3047 294.714 85.2493C294.892 84.7369 295.07 84.2244 295.247 83.7116C295.303 83.5478 295.377 83.4142 295.58 83.4029C295.791 83.3916 295.905 83.5078 295.989 83.6769ZM278.382 62.494C278.65 62.3733 278.938 62.331 279.234 62.328L279.234 62.3288C279.683 62.3724 280.134 62.4151 280.584 62.4579C281.551 62.5496 282.518 62.6414 283.484 62.7423C285.855 62.9899 288.212 63.3348 290.553 63.7839C291.754 64.0141 292.954 64.2533 294.132 64.5914C294.437 64.679 294.663 64.8367 294.648 65.1914C294.633 65.519 294.5 65.6194 294.184 65.522C293.195 65.2178 292.202 64.9348 291.199 64.6805C289.045 64.1333 286.863 63.7348 284.657 63.4744C282.604 63.2322 280.547 63.0314 278.477 63.0125C278.446 63.0123 278.412 63.0136 278.376 63.0149C278.189 63.022 277.961 63.0307 277.929 62.8299C277.905 62.6738 278.092 62.6044 278.259 62.5425C278.303 62.5263 278.345 62.5106 278.382 62.494ZM291.353 104.743C291.277 104.688 291.193 104.627 291.201 104.473V104.474C291.417 104.549 291.625 104.635 291.832 104.72C292.089 104.825 292.344 104.93 292.607 105.013C293.915 105.425 295.261 105.623 296.609 105.821C296.768 105.844 296.927 105.868 297.086 105.891C297.231 105.913 297.377 105.935 297.522 105.956C297.725 105.986 297.928 106.016 298.131 106.047C298.138 106.048 298.145 106.049 298.152 106.05C298.208 106.057 298.273 106.066 298.277 106.136C298.284 106.236 298.193 106.249 298.121 106.259C295.696 106.577 293.395 106.328 291.389 104.77C291.377 104.761 291.365 104.752 291.353 104.743ZM297.154 77.8323C296.425 77.2617 296.338 75.596 297.106 74.9674C296.768 75.958 297.117 76.7387 297.466 77.5183C297.473 77.5334 297.479 77.5485 297.486 77.5636C297.497 77.5885 297.511 77.6142 297.526 77.6404C297.586 77.7511 297.651 77.8702 297.514 77.9666C297.399 78.0476 297.3 77.9595 297.211 77.8811C297.192 77.8637 297.173 77.8468 297.154 77.8323Z" fill="#CBE2D1"/>
<path style="mix-blend-mode:color-dodge" d="M236.528 53.6021C243.096 45.4184 241.787 33.4598 233.603 26.8917C225.419 20.3236 213.461 21.6333 206.893 29.817C200.324 38.0006 201.634 49.9592 209.818 56.5273C218.001 63.0954 229.96 61.7857 236.528 53.6021Z" fill="url(#paint0_radial_22089_49703)"/>
<defs>
<radialGradient id="paint0_radial_22089_49703" cx="0" cy="0" r="1" gradientUnits="userSpaceOnUse" gradientTransform="translate(222.012 41.9219) scale(19.0095)">
<stop stop-color="white"/>
<stop offset="0.28" stop-color="#A8A8A8" stop-opacity="0.4356"/>
<stop offset="0.54" stop-color="#606060" stop-opacity="0.1444"/>
<stop offset="0.75" stop-color="#2C2C2C" stop-opacity="0.0289"/>
<stop offset="0.91" stop-color="#0C0C0C" stop-opacity="0.01"/>
<stop offset="1" stop-opacity="0"/>
</radialGradient>
</defs>
</svg>
