<svg width="310" height="245" viewBox="0 0 310 245" fill="none" xmlns="http://www.w3.org/2000/svg">
<path opacity="0.6" d="M236 233.5C236 227.149 241.149 222 247.5 222C253.851 222 259 227.149 259 233.5C259 239.851 253.851 245 247.5 245C241.149 245 236 239.851 236 233.5Z" fill="white" fill-opacity="0.1"/>
<path opacity="0.2" fill-rule="evenodd" clip-rule="evenodd" d="M47.9186 15.0132C51.681 16.0914 54.4345 19.5571 54.4345 23.666C54.4345 28.6366 50.4051 32.666 45.4345 32.666H20C15.0294 32.666 11 28.6366 11 23.666C11 18.6955 15.0294 14.666 20 14.666H29.1031C29.2788 9.85019 33.2383 6 38.097 6H38.9186C43.8892 6 47.9186 10.0294 47.9186 15C47.9186 15.0044 47.9186 15.0088 47.9186 15.0132Z" fill="white" fill-opacity="0.23"/>
<path d="M0.721666 140.684C4.25463 142.951 27.4917 156.616 55.331 143.398C55.432 143.35 55.5129 143.272 55.5611 143.171C56.6351 140.953 68.4837 114.88 51.4359 77.6367C51.3038 77.3461 50.9354 77.2513 50.6867 77.4455C47.5625 79.8905 29.935 93.1737 15.9524 92.8317C15.6229 92.8239 15.3773 93.1255 15.4644 93.4457C16.4716 97.1325 20.3651 116.296 0.611296 139.954C0.42167 140.181 0.471421 140.523 0.721666 140.684Z" fill="#CBE2D1"/>
<path d="M30.7311 149.443C26.794 149.443 22.8274 149.025 18.8405 148.185C9.08721 146.134 2.36323 142.147 0.535354 140.975C0.334847 140.846 0.198082 140.636 0.162333 140.4C0.125029 140.162 0.19341 139.92 0.347288 139.735C20.0047 116.191 16.1127 97.1215 15.1319 93.5373C15.062 93.2808 15.1149 93.0166 15.2781 92.8083C15.4428 92.5985 15.6946 92.4819 15.9604 92.4881C29.7783 92.8316 47.1322 79.7924 50.474 77.175C50.6745 77.018 50.931 76.9636 51.1797 77.0242C51.433 77.0864 51.6397 77.2573 51.7485 77.4936C58.9062 93.13 61.8951 108.631 60.6361 123.568C59.674 134.986 56.497 142.027 55.8706 143.322C55.7882 143.493 55.653 143.627 55.4789 143.711C47.4384 147.528 39.1539 149.443 30.7326 149.443H30.7311ZM15.9386 93.1767C15.8734 93.1767 15.8361 93.2124 15.819 93.2326C15.8003 93.2575 15.7801 93.2979 15.7956 93.3554C16.792 96.9972 20.7524 116.37 0.874203 140.176C0.835345 140.221 0.836904 140.271 0.840013 140.296C0.843121 140.321 0.857098 140.366 0.905282 140.395C2.70829 141.552 9.34056 145.484 18.9804 147.511C31.3404 150.111 43.52 148.624 55.1805 143.087C55.2116 143.072 55.2349 143.05 55.2489 143.022C55.8659 141.746 58.9963 134.807 59.9491 123.509C61.1988 108.692 58.2285 93.3057 51.1222 77.7796C51.0942 77.7174 51.0398 77.6972 51.018 77.6926C50.9931 77.6863 50.945 77.6817 50.8999 77.7174C47.569 80.3256 30.4311 93.1813 16.4889 93.1829C16.3055 93.1829 16.1267 93.1813 15.9449 93.1767C15.9449 93.1767 15.9417 93.1767 15.9402 93.1767H15.9386Z" fill="#043A4E"/>
<path d="M21.1283 99.2664C20.9682 99.2664 20.8252 99.1544 20.7925 98.9928C20.7537 98.8063 20.8718 98.6244 21.0583 98.5856C21.2075 98.5545 36.1399 95.351 47.0139 87.2826C47.1662 87.1691 47.3822 87.2017 47.4957 87.3541C47.6092 87.5064 47.5765 87.7224 47.4242 87.8359C36.4274 95.9976 21.3521 99.2291 21.1998 99.2601C21.1765 99.2648 21.1516 99.2679 21.1283 99.2679V99.2664Z" fill="#043A4E"/>
<path d="M31.8697 103.148C31.7127 103.148 31.5712 103.039 31.5339 102.88C31.492 102.695 31.6086 102.51 31.7935 102.469C38.903 100.854 45.1513 98.2206 50.3645 94.6425C50.5215 94.5353 50.736 94.5741 50.8432 94.7311C50.9505 94.8881 50.9101 95.1026 50.7546 95.2099C45.47 98.8376 39.1408 101.505 31.9458 103.14C31.9194 103.146 31.8946 103.149 31.8697 103.149V103.148Z" fill="#043A4E"/>
<path d="M20.9978 104.641C20.8098 104.641 20.6559 104.491 20.6543 104.301C20.6512 104.111 20.8035 103.954 20.9932 103.953C21.0165 103.953 23.2982 103.916 26.7861 103.406C26.9757 103.379 27.1483 103.508 27.1762 103.696C27.2042 103.885 27.0737 104.06 26.8856 104.087C23.348 104.604 21.0258 104.641 21.0025 104.641H20.9978Z" fill="#043A4E"/>
<path d="M24.3047 110.613C22.0106 110.613 20.6738 110.462 20.6288 110.456C20.4407 110.433 20.3055 110.262 20.3288 110.074C20.3521 109.886 20.5215 109.75 20.7111 109.774C20.8557 109.791 35.4181 111.426 51.7306 103.575C51.9016 103.493 52.1083 103.564 52.1907 103.737C52.2731 103.908 52.2016 104.115 52.0306 104.197C40.4401 109.775 29.7153 110.615 24.3047 110.615V110.613Z" fill="#043A4E"/>
<path d="M28.7505 116.86C22.8549 116.86 19.165 116.059 19.0904 116.042C18.9054 116 18.7889 115.817 18.8308 115.63C18.8728 115.445 19.0562 115.329 19.2427 115.371C19.395 115.405 34.6227 118.698 52.8719 111.685C53.0491 111.617 53.2481 111.705 53.3164 111.883C53.3848 112.06 53.2962 112.259 53.119 112.327C43.6455 115.967 34.9724 116.858 28.752 116.858L28.7505 116.86Z" fill="#043A4E"/>
<path d="M42.2696 124.043C42.1001 124.043 41.954 123.919 41.9292 123.746C41.9028 123.558 42.0333 123.384 42.2214 123.358C45.8911 122.842 49.3868 121.935 52.612 120.669C52.7892 120.599 52.9881 120.686 53.0581 120.863C53.128 121.04 53.041 121.239 52.8638 121.309C49.5888 122.596 46.0403 123.516 42.3178 124.04C42.3022 124.042 42.2851 124.043 42.2696 124.043Z" fill="#043A4E"/>
<path d="M34.554 124.571C24.7898 124.571 17.3213 122.17 17.2436 122.143C17.0633 122.084 16.9638 121.89 17.0229 121.71C17.082 121.53 17.2778 121.432 17.4565 121.489C17.5374 121.516 25.7473 124.152 36.1783 123.859C36.3773 123.855 36.5265 124.004 36.5327 124.194C36.5374 124.383 36.3881 124.542 36.1985 124.548C35.6436 124.564 35.0949 124.571 34.554 124.571Z" fill="#043A4E"/>
<path d="M74.3859 160.824C74.295 160.824 74.2006 160.807 74.1097 160.77C71.2596 159.628 68.1434 157.758 68.0121 157.681C67.6583 157.468 67.5438 157.01 67.7594 156.657C67.9716 156.303 68.4298 156.188 68.7835 156.404C68.8139 156.424 71.9267 158.29 74.6655 159.385C75.0496 159.537 75.2349 159.972 75.0799 160.356C74.962 160.649 74.6824 160.824 74.3859 160.824Z" fill="#043A4E"/>
<path d="M102.889 204.253L114.235 210.741C115.175 211.28 116.374 210.947 116.91 210L151.963 148.239C152.562 147.185 152.199 145.844 151.151 145.244L122.398 128.801L102.892 204.253H102.889Z" fill="#92AFC5"/>
<path d="M102.882 204.25L114.229 210.738C114.781 211.055 115.421 211.069 115.964 210.839C115.964 210.839 116.873 210.425 117.88 208.656C118.746 207.134 151.7 148.684 151.7 148.684C152.425 147.404 152.061 146.066 151.013 145.467L122.26 129.023L102.879 204.25H102.882Z" fill="#CBE2D1"/>
<path d="M115.191 211.744C114.73 211.744 114.275 211.623 113.86 211.387L102.514 204.899C102.157 204.693 102.032 204.238 102.238 203.881C102.443 203.524 102.898 203.399 103.255 203.605L114.601 210.093C114.932 210.282 115.319 210.306 115.673 210.154C115.673 210.154 116.4 209.753 117.236 208.288C118.092 206.785 150.726 148.905 151.056 148.319C151.554 147.443 151.386 146.537 150.648 146.115L121.895 129.672C121.538 129.467 121.413 129.012 121.619 128.655C121.824 128.298 122.279 128.173 122.636 128.378L151.389 144.822C152.838 145.651 153.252 147.47 152.353 149.056C152.023 149.639 119.389 207.523 118.533 209.029C117.435 210.952 116.39 211.468 116.276 211.522C115.922 211.673 115.555 211.747 115.194 211.747L115.191 211.744Z" fill="#043A4E"/>
<path d="M134.486 168.009L100.855 206.98C100.383 207.529 99.5916 207.667 98.965 207.307L32.6625 169.39C31.8372 168.919 31.6485 167.803 32.2717 167.079L83.2695 107.989C83.7411 107.44 84.5328 107.302 85.1594 107.663L151.462 145.579C152.287 146.051 152.476 147.166 151.853 147.89L137.882 164.101L134.49 168.009H134.486Z" fill="#FF9D4A"/>
<path d="M99.7043 208.251C99.3236 208.251 98.9396 208.154 98.5926 207.955L32.2901 170.039C31.7039 169.702 31.3031 169.129 31.1851 168.459C31.0706 167.788 31.2592 167.108 31.7006 166.592L82.6983 107.502C83.4024 106.684 84.5882 106.482 85.5214 107.014L151.824 144.93C152.41 145.267 152.811 145.84 152.929 146.51C153.043 147.181 152.855 147.861 152.413 148.377L138.443 164.588C138.173 164.901 137.702 164.935 137.392 164.665C137.078 164.396 137.045 163.924 137.314 163.614L151.285 147.403C151.436 147.228 151.5 146.992 151.46 146.763C151.436 146.628 151.359 146.382 151.086 146.227L84.7836 108.311C84.4703 108.132 84.0694 108.2 83.8302 108.479L32.8325 167.569C32.6809 167.744 32.6169 167.977 32.6573 168.209C32.6809 168.344 32.7584 168.59 33.0313 168.745L99.3337 206.661C99.647 206.84 100.048 206.769 100.287 206.493L133.922 167.522C134.191 167.209 134.663 167.175 134.973 167.444C135.286 167.714 135.32 168.186 135.05 168.496L101.419 207.466C100.978 207.979 100.348 208.251 99.7076 208.251H99.7043Z" fill="#043A4E"/>
<path d="M88.4374 202.561C88.3633 202.574 88.2959 202.587 88.2285 202.601L88.4374 202.561Z" fill="#043A4E"/>
<path d="M72.4803 129.08L85.1168 136.31L75.994 146.878L63.3574 139.652L72.4803 129.08Z" fill="#CBE2D1"/>
<path d="M75.9949 147.627C75.8669 147.627 75.7422 147.593 75.6243 147.529L62.9877 140.303C62.7957 140.192 62.661 140 62.6239 139.781C62.5868 139.562 62.6475 139.336 62.7957 139.168L71.9186 128.596C72.151 128.327 72.5452 128.26 72.8551 128.435L85.4917 135.661C85.6837 135.772 85.8184 135.964 85.8555 136.183C85.8926 136.402 85.8319 136.628 85.6837 136.796L76.5608 147.368C76.416 147.536 76.2071 147.627 75.9949 147.627ZM64.5138 139.454L75.8332 145.926L83.9622 136.507L72.6429 130.035L64.5138 139.454Z" fill="#043A4E"/>
<path d="M61.3508 141.936L73.9874 149.165L64.8646 159.733L52.2246 152.507L61.3508 141.936Z" fill="#CBE2D1"/>
<path d="M64.866 160.483C64.738 160.483 64.6133 160.449 64.4954 160.385L51.8588 153.159C51.6668 153.048 51.532 152.856 51.495 152.637C51.4579 152.418 51.5186 152.192 51.6668 152.023L60.7897 141.452C61.0221 141.182 61.4129 141.115 61.7262 141.29L74.3628 148.516C74.5548 148.628 74.6896 148.82 74.7266 149.039C74.7637 149.258 74.7031 149.483 74.5548 149.652L65.4319 160.223C65.2871 160.392 65.0782 160.483 64.866 160.483ZM53.3849 152.31L64.7043 158.781L72.8333 149.362L61.514 142.89L53.3849 152.31Z" fill="#043A4E"/>
<path d="M87.6814 137.779L100.321 145.005L91.1952 155.577L78.5586 148.351L87.6814 137.779Z" fill="#CBE2D1"/>
<path d="M91.1961 156.32C91.0681 156.32 90.9434 156.287 90.8255 156.223L78.1889 148.997C77.9969 148.885 77.8621 148.693 77.8251 148.474C77.788 148.255 77.8487 148.03 77.9969 147.861L87.1197 137.29C87.3522 137.02 87.743 136.953 88.0563 137.128L100.693 144.354C100.885 144.466 101.02 144.658 101.057 144.877C101.094 145.095 101.033 145.321 100.885 145.49L91.762 156.061C91.6172 156.23 91.4083 156.32 91.1961 156.32ZM79.715 148.151L91.0343 154.623L99.1634 145.203L87.844 138.732L79.715 148.151Z" fill="#043A4E"/>
<path d="M76.5564 150.633L89.193 157.859L80.0702 168.43L67.4336 161.204L76.5564 150.633Z" fill="#CBE2D1"/>
<path d="M80.0711 169.174C79.9431 169.174 79.8184 169.14 79.7005 169.076L67.0639 161.85C66.8719 161.739 66.7371 161.547 66.7001 161.328C66.663 161.109 66.7237 160.883 66.8719 160.715L75.9948 150.143C76.2272 149.874 76.6213 149.806 76.9313 149.982L89.5679 157.208C89.7599 157.319 89.8947 157.511 89.9317 157.73C89.9688 157.949 89.9081 158.175 89.7599 158.343L80.637 168.915C80.4922 169.083 80.2833 169.174 80.0711 169.174ZM68.59 161.005L79.9094 167.476L88.0384 158.057L76.719 151.585L68.59 161.005Z" fill="#043A4E"/>
<path d="M102.882 146.469L115.519 153.695L106.392 164.266L93.7559 157.04L102.882 146.469Z" fill="#CBE2D1"/>
<path d="M106.393 165.016C106.265 165.016 106.141 164.982 106.023 164.918L93.3862 157.692C93.1941 157.581 93.0594 157.389 93.0223 157.17C92.9853 156.951 93.0459 156.725 93.1941 156.557L102.32 145.985C102.553 145.716 102.947 145.648 103.257 145.823L115.893 153.05C116.086 153.161 116.22 153.353 116.257 153.572C116.294 153.791 116.234 154.017 116.086 154.185L106.963 164.756C106.818 164.925 106.609 165.016 106.397 165.016H106.393ZM94.9123 156.843L106.232 163.315L114.361 153.895L103.045 147.424L94.9123 156.843Z" fill="#043A4E"/>
<path d="M91.7498 159.322L104.386 166.548L95.2635 177.12L82.627 169.894L91.7498 159.322Z" fill="#CBE2D1"/>
<path d="M95.2644 177.869C95.1364 177.869 95.0118 177.836 94.8939 177.772L82.2573 170.545C82.0653 170.434 81.9305 170.242 81.8934 170.023C81.8564 169.804 81.917 169.579 82.0652 169.41L91.1881 158.839C91.4206 158.569 91.8147 158.502 92.1246 158.677L104.761 165.903C104.953 166.014 105.088 166.206 105.125 166.425C105.162 166.644 105.101 166.87 104.953 167.038L95.8304 177.61C95.6855 177.778 95.4767 177.869 95.2644 177.869ZM83.7834 169.696L95.1027 176.168L103.232 166.749L91.9124 160.277L83.7834 169.696Z" fill="#043A4E"/>
<path d="M118.083 155.16L130.72 162.39L121.597 172.961L108.957 165.732L118.083 155.16Z" fill="#CBE2D1"/>
<path d="M121.595 173.707C121.466 173.707 121.342 173.674 121.224 173.61L108.587 166.383C108.395 166.272 108.261 166.08 108.224 165.861C108.186 165.642 108.247 165.416 108.395 165.248L117.518 154.677C117.751 154.407 118.141 154.34 118.455 154.515L131.091 161.741C131.283 161.852 131.418 162.044 131.455 162.263C131.492 162.482 131.432 162.708 131.283 162.876L122.16 173.448C122.016 173.616 121.807 173.707 121.595 173.707ZM110.117 165.538L121.433 172.009L129.562 162.59L118.242 156.118L110.113 165.538H110.117Z" fill="#043A4E"/>
<path d="M106.951 168.021L119.588 175.248L110.465 185.819L97.8281 178.59L106.951 168.021Z" fill="#CBE2D1"/>
<path d="M110.466 186.563C110.338 186.563 110.213 186.529 110.095 186.465L97.4585 179.239C97.2664 179.128 97.1317 178.936 97.0946 178.717C97.0575 178.498 97.1182 178.272 97.2664 178.103L106.389 167.532C106.622 167.263 107.013 167.195 107.326 167.37L119.962 174.597C120.154 174.708 120.289 174.9 120.326 175.119C120.363 175.338 120.303 175.563 120.154 175.732L111.032 186.303C110.887 186.472 110.678 186.563 110.466 186.563ZM98.9846 178.393L110.304 184.865L118.433 175.445L107.114 168.974L98.9846 178.393Z" fill="#043A4E"/>
<path d="M90.5978 118.664C90.4731 118.664 90.3451 118.633 90.2272 118.566C86.7708 116.588 85.5647 112.152 87.5388 108.675C88.499 106.984 90.0554 105.771 91.9251 105.259C93.7813 104.75 95.7252 104.996 97.3961 105.95C97.5241 106.024 97.6521 106.101 97.7734 106.182C98.117 106.408 98.2147 106.869 97.989 107.216C97.7633 107.56 97.3018 107.658 96.9548 107.432C96.8571 107.368 96.7594 107.307 96.655 107.25C95.331 106.492 93.7948 106.3 92.3226 106.701C90.8403 107.109 89.6039 108.072 88.8426 109.413C87.2727 112.179 88.2295 115.702 90.9751 117.272C91.3322 117.478 91.4568 117.933 91.2513 118.29C91.1132 118.532 90.8606 118.667 90.6045 118.667L90.5978 118.664Z" fill="#043A4E"/>
<path d="M99.1115 123.533C98.9868 123.533 98.8588 123.503 98.7409 123.435C95.2844 121.458 94.0784 117.021 96.0525 113.544C97.0126 111.853 98.5691 110.64 100.439 110.128C102.295 109.619 104.239 109.865 105.91 110.819C106.038 110.893 106.162 110.97 106.287 111.048C106.631 111.274 106.728 111.735 106.503 112.082C106.277 112.426 105.815 112.523 105.468 112.298C105.371 112.234 105.27 112.173 105.169 112.116C103.845 111.358 102.305 111.162 100.833 111.567C99.3506 111.974 98.1142 112.938 97.3529 114.279C95.783 117.041 96.7398 120.568 99.4854 122.138C99.8425 122.344 99.9671 122.798 99.7616 123.156C99.6235 123.398 99.3709 123.533 99.1148 123.533H99.1115Z" fill="#043A4E"/>
<path d="M107.623 128.4C107.498 128.4 107.37 128.37 107.253 128.302C103.796 126.325 102.59 121.888 104.564 118.411C105.524 116.72 107.081 115.507 108.947 114.995C110.803 114.487 112.747 114.733 114.418 115.686C114.546 115.76 114.671 115.838 114.795 115.915C115.139 116.141 115.237 116.602 115.011 116.949C114.785 117.293 114.324 117.391 113.977 117.165C113.879 117.101 113.778 117.04 113.677 116.98C112.353 116.222 110.813 116.03 109.345 116.43C107.862 116.838 106.626 117.802 105.865 119.142C104.295 121.908 105.251 125.432 107.997 127.002C108.354 127.207 108.479 127.662 108.273 128.019C108.135 128.262 107.883 128.397 107.627 128.397L107.623 128.4Z" fill="#043A4E"/>
<path d="M116.133 133.269C116.008 133.269 115.88 133.239 115.762 133.171C112.306 131.194 111.1 126.757 113.074 123.281C114.034 121.589 115.591 120.377 117.457 119.864C119.313 119.356 121.257 119.602 122.928 120.555C123.056 120.629 123.181 120.707 123.305 120.788C123.649 121.013 123.747 121.475 123.521 121.822C123.295 122.165 122.834 122.263 122.487 122.037C122.389 121.973 122.291 121.913 122.187 121.855C120.863 121.097 119.323 120.902 117.851 121.306C116.369 121.714 115.132 122.677 114.371 124.018C112.801 126.784 113.758 130.308 116.504 131.878C116.861 132.083 116.985 132.538 116.78 132.895C116.642 133.138 116.389 133.273 116.133 133.273V133.269Z" fill="#043A4E"/>
<path d="M124.647 138.136C124.522 138.136 124.394 138.106 124.276 138.039C120.82 136.061 119.614 131.624 121.588 128.148C122.548 126.457 124.104 125.244 125.971 124.732C127.827 124.223 129.771 124.469 131.442 125.422C131.57 125.496 131.694 125.574 131.819 125.651C132.163 125.877 132.26 126.339 132.034 126.686C131.809 127.029 131.347 127.127 131 126.901C130.903 126.837 130.801 126.777 130.7 126.716C129.376 125.958 127.837 125.763 126.365 126.167C124.882 126.574 123.646 127.538 122.885 128.879C121.315 131.645 122.272 135.168 125.017 136.738C125.374 136.944 125.499 137.399 125.293 137.756C125.155 137.995 124.903 138.133 124.647 138.133V138.136Z" fill="#043A4E"/>
<path d="M133.154 143.004C133.03 143.004 132.902 142.973 132.784 142.906C129.327 140.928 128.121 136.492 130.095 133.015C131.056 131.324 132.612 130.111 134.478 129.599C136.335 129.09 138.278 129.336 139.949 130.289C140.077 130.364 140.202 130.441 140.327 130.519C140.67 130.744 140.768 131.206 140.542 131.553C140.317 131.896 139.855 131.994 139.508 131.768C139.41 131.704 139.309 131.644 139.208 131.583C137.884 130.825 136.345 130.633 134.872 131.034C133.39 131.442 132.154 132.405 131.392 133.746C129.823 136.512 130.779 140.036 133.525 141.605C133.882 141.811 134.007 142.266 133.801 142.623C133.663 142.865 133.41 143 133.154 143V143.004Z" fill="#043A4E"/>
<path d="M141.186 147.591C141.061 147.591 140.933 147.561 140.815 147.494C137.359 145.516 136.153 141.079 138.127 137.603C139.087 135.912 140.643 134.699 142.513 134.187C144.369 133.678 146.313 133.924 147.984 134.877C150.17 136.127 151.531 138.388 151.619 140.921C151.632 141.332 151.312 141.679 150.898 141.693C150.467 141.713 150.14 141.386 150.127 140.972C150.056 138.957 148.978 137.165 147.24 136.171C145.916 135.413 144.376 135.221 142.907 135.622C141.425 136.03 140.188 136.993 139.427 138.334C137.857 141.1 138.814 144.623 141.56 146.193C141.917 146.399 142.041 146.854 141.836 147.211C141.698 147.453 141.445 147.588 141.189 147.588L141.186 147.591Z" fill="#043A4E"/>
<path d="M196.253 24.8959C194.449 25.2351 192.46 24.7304 191.152 23.6005C193.073 23.8108 194.968 24.1865 196.805 24.722C196.029 24.4837 195.244 24.2426 194.553 23.8557C193.862 23.4687 193.262 22.9164 193.025 22.2351C194.28 22.7874 195.5 23.4043 196.672 24.0828C195.65 23.3342 194.54 22.4341 194.524 21.2762C194.764 21.1893 195.017 21.3575 195.205 21.5145C196.085 22.2435 196.967 22.9725 197.846 23.7014C197.392 22.7173 197.058 21.6939 196.847 20.6509C197.447 21.2734 198.048 21.8958 198.648 22.5183C198.278 21.4865 198.103 20.4014 198.139 19.3219C198.142 19.2042 198.168 19.0612 198.294 19.0135C198.401 18.9743 198.521 19.0275 198.619 19.0836C199.803 19.7649 200.436 21.0042 201.624 21.6799C202.315 22.0724 203.136 22.2407 203.94 22.4033C204.015 22.4173 204.112 22.4229 204.148 22.364C204.18 22.3052 204.018 22.2743 204.051 22.336" stroke="#043A4E" stroke-width="0.666192" stroke-miterlimit="10"/>
<path d="M205.315 14C205.623 17.1097 205.248 20.2656 204.509 23.2895C203.77 26.3135 202.677 29.222 201.53 32.0943C201.288 32.6945 201.044 33.354 201.203 33.9839C201.307 34.3895 201.566 34.7226 201.838 35.026C203.709 37.1101 206.472 38.2181 209.152 37.9642" stroke="#CBE2D1" stroke-width="0.666192" stroke-miterlimit="10"/>
<path d="M206.16 46.3968C206.419 46.0695 206.727 45.736 207.141 45.634C207.371 45.5754 207.614 45.5939 207.847 45.634C208.646 45.7792 209.42 46.2146 210.22 46.0756C210.941 45.9521 211.492 45.3963 212.178 45.1492C213.457 44.6891 214.836 45.3901 216.075 45.9367C216.71 46.2177 220.886 47.5671 218.335 47.9284C215.078 48.3854 211.841 48.9691 208.633 49.6731C207.847 49.846 207.06 50.0282 206.299 50.2845C205.859 50.4328 204.535 51.2603 204.244 50.9176C203.898 50.51 204.632 49.0586 204.814 48.6479C205.163 47.8481 205.613 47.0885 206.16 46.3968Z" stroke="#043A4E" stroke-width="0.666192" stroke-miterlimit="10"/>
<path d="M205.152 50.9298C207.397 52.8421 209.804 54.4324 212.953 53.8938C215.972 53.3779 218.879 50.7844 219.152 48" stroke="#043A4E" stroke-width="0.666192" stroke-miterlimit="10"/>
<path d="M201.152 102.762C210.301 103.816 219.844 101.333 227.152 96" stroke="#043A4E" stroke-width="0.666192" stroke-miterlimit="10"/>
<path d="M236.152 94C238.065 92.9692 240.158 92.7297 242.152 93.3076" stroke="#043A4E" stroke-width="0.666192" stroke-miterlimit="10"/>
<path d="M194.851 1C193.223 6.40445 192.802 12.1842 193.717 17.7618C194.341 21.5658 195.558 25.2767 195.786 29.1224C196.004 32.8141 195.301 36.509 195.428 40.2071C195.643 46.6155 198.088 53.0463 202.212 57.9183C205.839 62.2034 210.605 65.6385 216.183 66.4724C219.144 66.9183 222.153 66.8926 225.14 67.1043C225.431 67.1235 225.745 67.1588 225.957 67.3577C226.147 67.5373 226.214 67.8131 226.268 68.0697C226.787 70.5554 227.078 73.0925 227.145 75.6327C227.183 77.1787 227.104 78.8401 226.195 80.0846C223.043 84.4049 214.694 85.319 210 86.711C202.855 88.8279 195.827 91.3585 188.963 94.2869C183.718 96.5257 178.245 99.284 175.423 104.291C173.688 107.373 173.152 111.013 173.152 114.561C173.156 124.988 177.453 134.838 181.08 144.595C186.597 159.442 192.571 176.136 194.018 192" stroke="#CBE2D1" stroke-width="0.666192" stroke-miterlimit="10"/>
<path d="M248.634 35.6677C249.845 31.9097 248.983 27.3856 245.527 24.7783C241.732 21.9157 236.163 22.562 233.248 26.3357C231.034 29.2015 230.493 33.3126 232.015 36.6009C233.537 39.8891 237.103 42.1527 240.713 41.992C244.776 41.8122 247.543 39.0505 248.634 35.6708V35.6677Z" stroke="#043A4E" stroke-width="0.666192" stroke-miterlimit="10"/>
<path d="M194.151 191C194.818 198.5 190.651 214.4 168.651 218C141.151 222.5 140.151 183.859 167.151 189C194.151 194.142 231.652 193 243.652 163.5C255.652 134 274.652 114 308.652 136.5" stroke="#CBE2D1" stroke-width="0.8" stroke-linecap="round"/>
<path d="M149.421 51C149.421 56.8001 144.315 61.5 138.02 61.5C144.318 61.5 149.421 66.2027 149.421 72C149.421 66.1999 154.528 61.5 160.823 61.5C154.525 61.5 149.421 56.7973 149.421 51Z" fill="#043A4E"/>
<path d="M116.845 28C116.845 35.4572 110.279 41.5 102.186 41.5C110.283 41.5 116.845 47.5464 116.845 55C116.845 47.5428 123.41 41.5 131.504 41.5C123.406 41.5 116.845 35.4536 116.845 28Z" fill="#043A4E"/>
</svg>
