<svg width="23" height="17" viewBox="0 0 23 17" fill="none" xmlns="http://www.w3.org/2000/svg">
<path d="M9.97475 6.45615C9.97475 8.11567 9.71944 9.54115 9.20882 10.7326C8.69819 11.9666 8.03865 12.9666 7.23016 13.7325C6.42168 14.541 5.50682 15.1154 4.48558 15.4558C3.42179 15.8388 2.37928 16.0303 1.35804 16.0303L1.35804 13.7963C2.46438 13.7963 3.5069 13.4133 4.48558 12.6474C5.42172 11.924 5.97489 10.9241 6.1451 9.64753C6.01744 9.69008 5.86851 9.73263 5.69831 9.77518C5.57065 9.81773 5.42172 9.86029 5.25151 9.90284C5.03876 9.94539 4.80472 9.96666 4.54941 9.96666C3.27286 9.96666 2.20907 9.47732 1.35804 8.49863C0.507006 7.5625 0.0814904 6.45615 0.0814905 5.1796C0.0814906 3.90306 0.528283 2.77544 1.42187 1.79675C2.2729 0.860615 3.42179 0.392548 4.86855 0.392548C6.48551 0.392548 7.74079 0.988271 8.63437 2.17972C9.52795 3.41371 9.97475 4.83919 9.97475 6.45615ZM22.7402 6.45615C22.7402 8.11567 22.4849 9.54115 21.9743 10.7326C21.4637 11.9666 20.8041 12.9666 19.9957 13.7325C19.1872 14.541 18.2723 15.1154 17.2511 15.4558C16.1873 15.8388 15.1448 16.0303 14.1235 16.0303L14.1235 13.7963C15.2299 13.7963 16.2724 13.4133 17.2511 12.6474C18.1872 11.924 18.7404 10.9241 18.9106 9.64753C18.7829 9.69008 18.634 9.73263 18.4638 9.77518C18.3361 9.81774 18.1872 9.86029 18.017 9.90284C17.8042 9.94539 17.5702 9.96666 17.3149 9.96666C16.0384 9.96666 14.9746 9.47732 14.1235 8.49863C13.2725 7.5625 12.847 6.45616 12.847 5.17961C12.847 3.90306 13.2938 2.77544 14.1874 1.79675C15.0384 0.860616 16.1873 0.392549 17.634 0.392549C19.251 0.392549 20.5063 0.988272 21.3999 2.17972C22.2934 3.41371 22.7402 4.83919 22.7402 6.45615Z" />
</svg>
