<svg width="177" height="290" viewBox="0 0 177 290" fill="none" xmlns="http://www.w3.org/2000/svg">
<path d="M96.3513 89.0107C94.3641 90.4008 92.5113 90.0267 90.5473 88.8028C83.7938 84.5861 80.2919 78.3281 78.4484 70.7861C77.5405 67.0728 78.4483 63.535 78.5039 59.9141C78.5225 58.7872 79.1385 58.3715 80.1344 58.2976C86.3831 57.8404 92.553 56.7828 98.8989 56.9906C103.471 57.143 108.024 57.1569 112.559 57.8312C118.729 58.7456 124.658 60.3252 130.429 62.8284C136.618 65.5117 141.94 69.2112 146.869 73.7281C153.511 79.8199 157.031 87.6066 159.537 95.943C162.293 105.111 163.595 114.528 164.012 124.102C164.73 140.641 162.053 156.621 155.767 171.862C152.26 180.365 147.522 188.313 141.273 195.227C138.197 198.631 135.502 202.279 135.052 207.009C134.64 211.382 135.668 215.599 137.109 219.705C139.467 226.416 143.26 232.364 147.587 237.906C152.839 244.64 158.875 250.677 165.823 255.738C168.019 257.341 170.497 258.519 172.577 260.315C173.257 260.907 174.36 260.874 175.323 260.814" stroke="#FF9D48" stroke-width="1.5" stroke-linecap="round" stroke-linejoin="round"/>
<path d="M15.9853 195.698C15.6749 196.082 15.3322 196.446 15.0635 196.857C12.3862 200.963 13.5071 203.998 18.3013 205.623C19.2972 205.961 20.3348 206.178 21.3075 206.566C23.429 207.411 24.2952 209.161 23.341 211.143C22.9195 212.015 22.4146 212.907 21.8217 213.743C19.6168 216.846 19.4593 220.135 21.5484 223.405C23.7069 226.785 26.9216 228.217 30.8033 227.76C38.6546 226.832 46.2836 224.864 53.7274 222.227C55.4088 221.631 56.9188 220.527 58.6142 219.982C62.3384 218.781 63.5798 218.592 65.5252 222.495C67.3781 226.208 68.235 230.268 69.254 234.263C71.3755 242.599 75.2062 250.09 80.0884 257.161C83.3587 261.895 86.8652 266.546 88.7643 272.116C89.1117 273.132 89.334 274.107 89.3943 275.136C89.4591 276.291 89.334 277.159 88.0556 277.968C80.3525 282.817 72.2742 286.655 63.2463 288.355C62.1855 288.553 61.3842 288.133 60.4578 288.068" stroke="#FF9D48" stroke-width="1.5" stroke-linecap="round" stroke-linejoin="round"/>
<path d="M126.925 200.316C120.375 202.284 114.205 205.438 107.461 206.736C102.403 207.711 97.3077 208.242 92.3931 205.674C89.8964 204.367 87.2654 205.577 85.0095 208.634C82.1701 212.482 82.3971 216.726 83.3698 221.104C84.7594 227.348 87.8397 232.651 91.9252 237.518C97.6412 244.331 104.914 249.009 112.83 252.667C119.722 255.854 127.059 257.858 134.563 259.216C145.222 261.147 155.973 261.502 166.756 261.221C168.595 261.174 170.61 261.53 172.315 260.357" stroke="#FF9D48" stroke-width="1.5" stroke-linecap="round" stroke-linejoin="round"/>
<path d="M21.0809 99.8644C18.4314 99.7905 17.1992 101.656 15.9856 103.559C13.6835 107.152 13.1138 111.291 12.5764 115.346C11.8863 120.569 10.4364 125.714 10.6727 131.039C10.7838 133.547 11.1822 135.963 12.9609 137.981C15.1611 140.48 14.7257 142.964 13.2851 145.855C10.4133 151.619 6.42968 156.663 3.25208 162.214C2.27472 163.923 1.29272 165.613 0.681285 167.516C-0.560109 171.41 0.954577 174.472 4.87331 175.585C6.14712 175.945 7.49969 176.037 8.8013 176.305C12.0113 176.956 12.7432 178.49 11.3489 181.612C10.5893 183.311 9.71381 184.965 9.05143 186.701C7.47653 190.83 8.54653 193.121 12.4977 194.576C14.8925 195.458 17.2733 195.213 19.6867 195.01" stroke="#FF9D48" stroke-width="1.5" stroke-linecap="round" stroke-linejoin="round"/>
<path d="M78.2871 59.2216C74.8964 58.6627 71.7558 59.9605 68.569 60.6579C56.9193 63.2027 45.6403 67.0314 34.5465 71.3174C28.4229 73.6821 22.4104 76.5871 17.4171 80.9793C13.6929 84.2492 11.5297 88.4059 12.2662 93.634C12.5951 95.9848 13.5678 97.6983 15.9719 98.525C16.9539 98.8621 18.0656 99.1716 18.765 100.1" stroke="#FF9D48" stroke-width="1.5" stroke-linecap="round" stroke-linejoin="round"/>
<path d="M131.788 100.326C133.433 100.654 133.785 102.243 134.266 103.356C136.652 108.861 137.5 114.63 136.921 120.648C136.513 124.887 135.739 128.873 132.488 131.963C130.26 134.083 127.448 134.97 124.618 135.916C121.723 136.882 118.587 137.14 116.002 139.066C115.099 139.736 114.154 140.138 114.186 141.426" stroke="#FF9D48" stroke-width="1.5" stroke-linecap="round" stroke-linejoin="round"/>
<path d="M85.4652 -2.6665C84.3952 -0.227936 85.8358 1.99356 86.2388 4.24739C87.1467 9.29541 88.5039 14.2603 89.6248 19.276C90.4494 22.98 89.2496 25.8435 85.9377 27.8341C84.7148 28.573 83.7051 29.6953 82.4359 30.3188C79.2629 31.8845 79.8327 34.8773 79.4806 37.5191C79.4436 37.7916 79.9068 38.1287 80.1384 38.4381" stroke="#FF9D48" stroke-width="1.5" stroke-linecap="round" stroke-linejoin="round"/>
<path d="M111.639 77.6953C112.12 80.1293 114.279 81.3809 115.604 83.2144C121.602 91.4954 121.848 100.127 117.419 109.096C115.775 112.431 114.029 115.719 112.333 119.031" stroke="#FF9D48" stroke-width="1.5" stroke-linecap="round" stroke-linejoin="round"/>
<path d="M128.545 201.933C128.902 200.534 127.452 200.714 126.915 200.095C123.075 195.652 118.002 193.652 112.333 192.936C105.741 192.105 99.8077 194.206 94.0269 197.065C90.7937 198.663 87.9218 200.691 85.4668 203.319" stroke="#FF9D48" stroke-width="1.5" stroke-linecap="round" stroke-linejoin="round"/>
<path d="M111.638 143.74C110.499 150.631 117.141 156.519 124.112 154.261C130.579 152.164 137.05 149.795 142.451 145.365C142.965 144.945 143.627 144.844 144.299 144.894" stroke="#FF9D48" stroke-width="1.5" stroke-linecap="round" stroke-linejoin="round"/>
<path d="M89.1719 162.676C87.0921 163.355 85.3504 164.823 83.0622 165.234C82.1867 164.251 81.3298 163.184 80.357 162.228C78.7636 160.657 77.6427 160.948 76.4013 162.888C75.674 164.024 75.5536 165.313 74.9375 166.601C72.6076 167.299 70.2684 166.01 67.9014 166.435C67.2066 164.172 68.3044 161.341 65.5344 160.417C62.9173 159.544 61.8519 162.098 60.189 163.35C58.0073 162.288 56.1499 160.681 54.0423 159.156C54.9872 158.168 55.367 156.912 55.7747 155.73C56.5899 153.356 54.8714 151.758 52.3469 152.27C48.5811 153.037 48.7988 153.333 47.474 149.749C47.2609 149.176 46.8996 148.645 46.5569 148.132C45.8018 147.001 45.9454 146.178 47.247 145.564C47.7751 145.315 48.192 144.825 48.6459 144.428C49.4797 143.694 50.3459 142.853 49.9985 141.671C49.5909 140.262 48.4514 139.274 47.0201 139.168C44.7272 139.001 44.0926 137.99 44.6901 135.879C44.9171 135.066 44.6855 134.203 44.8754 133.33C45.0329 132.6 45.2969 131.889 45.4405 131.076C46.7885 130.933 48.2383 131.233 49.577 130.582C51.2352 129.774 51.8096 128.074 50.7072 126.665C49.9383 125.682 48.9516 124.873 48.0113 123.94C48.7478 122.693 49.1601 121.451 50.0216 120.403C52.0875 117.881 52.069 117.821 54.8946 118.805C58.3455 120.005 59.4479 119.225 59.0449 115.336C58.9569 114.477 58.5863 113.646 58.3408 112.768C60.4206 111.544 62.3846 110.122 64.8581 109.794" stroke="#FF9D48" stroke-width="1.5" stroke-linecap="round" stroke-linejoin="round"/>
<path d="M63.6974 26.1992C63.8178 29.7 62.4514 33.0577 62.7524 36.5908C63.174 41.5373 64.508 46.0588 68.8158 49.0285C71.6692 50.9959 74.8004 51.8596 78.3069 50.4879C79.9374 49.8506 80.8453 48.8483 81.0537 47.2134C81.2529 45.6246 80.2709 44.2714 79.1777 43.5832C73.5822 40.087 68.1951 36.3922 64.156 31.0533C64.0633 30.9286 63.8549 30.8916 63.702 30.8177" stroke="#FF9D48" stroke-width="1.5" stroke-linecap="round" stroke-linejoin="round"/>
<path d="M89.8679 164.292C86.9774 168.329 84.578 172.509 84.2538 177.682C84.0222 181.358 84.944 184.586 86.8709 187.607C87.399 188.433 87.9965 189.265 88.7284 189.907C90.9286 191.837 91.1139 194.271 90.5117 196.844C90.3774 197.407 90.4561 197.938 90.3357 198.474" stroke="#FF9D48" stroke-width="1.5" stroke-linecap="round" stroke-linejoin="round"/>
<path d="M101.68 25.5063C102.546 32.3463 98.8356 37.5652 95.0929 42.5163C92.7028 45.68 88.8119 47.4581 85.7176 50.0029C83.5174 51.8087 81.3264 53.6422 79.8673 56.1963C79.4458 56.9306 79.4041 57.5633 79.4504 58.2977" stroke="#FF9D48" stroke-width="1.5" stroke-linecap="round" stroke-linejoin="round"/>
<path d="M77.5918 68.4582C75.2341 69.622 74.4003 69.0032 73.4832 65.2252C72.7281 65.2252 71.9175 65.2576 71.1069 65.216C70.0971 65.1652 69.5274 65.4192 69.4486 66.6062C69.356 68.0194 68.6797 69.368 67.1604 69.5481C65.7198 69.719 64.9602 68.4997 64.3812 67.3036C64.2932 67.1188 64.0801 66.9895 63.9272 66.8371C62.1578 67.0357 60.694 67.8993 59.2766 68.9293C59.3415 70.4626 60.6477 72.2823 59.008 73.4646C57.748 74.3745 56.1917 73.5939 54.7604 72.7303C53.9451 73.6771 52.8566 74.3606 52.3285 75.6076C51.9302 76.5405 51.4994 77.358 52.5648 78.1709C53.4449 78.8406 54.3713 79.7966 53.8988 80.9004C53.4356 81.9811 52.2637 82.4522 50.9528 82.3414C50.5035 82.2998 50.0264 82.5492 49.6188 82.6508C48.924 84.2812 49.1278 85.9577 49.1046 87.6111C49.8689 87.8743 50.5313 88.0822 51.1844 88.3223C53.292 89.1075 53.6348 90.4469 52.1062 92.0079C51.5318 92.5898 50.8787 93.0932 50.2626 93.6336" stroke="#FF9D48" stroke-width="1.5" stroke-linecap="round" stroke-linejoin="round"/>
<path d="M72.2659 108.177C73.0627 109.734 72.0529 111.069 71.5016 112.302C70.8254 113.803 69.1393 113.872 67.6339 112.796C65.1418 111.013 64.7666 109.886 66.0127 107.946C67.3235 108.099 68.6344 108.27 69.9499 108.399C70.6864 108.473 71.3534 108.279 72.0482 107.97C72.9052 107.591 72.5578 105.697 74.1141 106.335C75.8095 107.032 77.7781 107.027 79.2233 108.394C80.8075 109.895 82.4935 111.295 84.0731 112.796C87.0886 115.669 90.104 118.527 93.5642 120.892C94.523 121.548 95.5745 121.973 96.5658 122.532C97.6728 123.155 98.678 123.151 99.5859 122.472C102.578 120.232 105.64 118.135 109.327 117.179" stroke="#FF9D48" stroke-width="1.5" stroke-linecap="round" stroke-linejoin="round"/>
<path d="M99.3639 58.0664C95.9547 61.9321 92.388 65.7146 89.6875 70.1068C86.6998 74.9609 87.0426 79.7964 91.4893 84.1655C92.967 85.6158 94.4261 87.0891 95.8898 88.5531" stroke="#FF9D48" stroke-width="1.5" stroke-linecap="round" stroke-linejoin="round"/>
<path d="M99.8253 54.1411C100.136 61.1428 100.844 68.1352 100.515 75.1553C100.293 79.8939 99.7188 84.5447 96.8145 88.5489" stroke="#FF9D48" stroke-width="1.5" stroke-linecap="round" stroke-linejoin="round"/>
<path d="M84.7725 -0.357422C80.7657 4.13638 76.6108 8.5101 75.6983 14.879C75.3601 17.2298 76.1244 19.1881 77.162 21.1047C77.7549 22.1993 78.7137 23.0953 79.4363 24.1299C80.6221 25.8295 81.1131 27.5984 79.6772 29.4365" stroke="#FF9D48" stroke-width="1.5" stroke-linecap="round" stroke-linejoin="round"/>
<path d="M142.441 145.125C140.204 143.343 137.379 143.158 134.785 142.396C130.945 141.264 126.98 140.622 122.982 140.294C120.597 140.096 118.327 140.876 116.011 141.283C114.075 141.62 112.87 143.186 110.943 143.32C109.193 143.44 107.502 143.938 105.825 144.617C102.346 146.031 101.99 147.393 104.181 150.238C106.575 153.346 109.54 155.826 112.259 158.588C116.696 163.096 116.729 167.982 112.755 172.804C111.314 174.55 109.758 176.36 107.238 176.785C106.043 176.988 106.02 178.235 105.63 179.081C103.829 182.988 101.823 186.687 97.7559 188.807C96.5609 189.431 96.4404 191.389 94.7266 191.546" stroke="#FF9D48" stroke-width="1.5" stroke-linecap="round" stroke-linejoin="round"/>
<path d="M103.067 149.744C101.905 152.977 102.201 156.242 103.09 159.433C104.684 165.137 107.004 170.675 106.773 176.762" stroke="#FF9D48" stroke-width="1.5" stroke-linecap="round" stroke-linejoin="round"/>
<path d="M132.945 101.712C129.378 107.679 124.39 112.69 121.333 119.017C120.17 121.428 118.961 123.811 118.396 126.43C118.229 127.197 117.974 127.769 117.428 128.268" stroke="#FF9D48" stroke-width="1.5" stroke-linecap="round" stroke-linejoin="round"/>
<path d="M90.7949 164.062C92.078 165.142 91.3276 166.689 91.6796 167.996C92.9488 172.712 94.936 177.178 96.3858 181.834C97.0945 184.115 97.0667 186.47 97.5114 188.77" stroke="#FF9D48" stroke-width="1.5" stroke-linecap="round" stroke-linejoin="round"/>
<path d="M78.0547 107.254C81.6723 104.072 86.0543 104.307 90.0656 105.517C97.3519 107.716 103.679 111.632 109.46 116.8C113.115 120.066 115.028 124.028 117.159 128.056C117.525 128.749 117.58 129.783 117.386 130.564C116.973 132.217 117.321 133.81 117.432 135.427" stroke="#FF9D48" stroke-width="1.5" stroke-linecap="round" stroke-linejoin="round"/>
<path d="M102.374 148.589C99.7338 151.023 98.1404 153.933 97.9551 157.595C97.7976 160.754 97.5151 163.909 97.9783 167.063C98.2979 169.225 98.7518 171.391 99.8589 173.28C101.239 175.635 102.99 177.649 106.08 177.686" stroke="#FF9D48" stroke-width="1.5" stroke-linecap="round" stroke-linejoin="round"/>
<path d="M101.215 27.3535C96.6661 30.4017 91.2142 31.3716 86.3598 33.7548C83.9696 34.9279 82.1909 36.6552 80.3705 38.4379C79.722 39.0753 79.6896 39.902 79.6618 40.7425C79.634 41.5923 79.5182 42.4375 79.4395 43.2827" stroke="#FF9D48" stroke-width="1.5" stroke-linecap="round" stroke-linejoin="round"/>
<path d="M113.027 80.9287C111.345 85.8012 109.145 90.4428 106.788 95.0244C105.699 97.135 104.634 99.278 103.795 101.495C102.79 104.151 103.23 106.635 105.129 108.889C106.76 110.824 108.251 112.861 110.479 114.182" stroke="#FF9D48" stroke-width="1.5" stroke-linecap="round" stroke-linejoin="round"/>
<path d="M110.481 114.644C112.982 111.101 112.037 107.383 110.356 104.086C109.23 101.878 107.956 99.4396 105.617 98.0171" stroke="#FF9D48" stroke-width="1.5" stroke-linecap="round" stroke-linejoin="round"/>
<path d="M97.5099 156.441C96.6345 157.134 95.6895 157.101 94.7353 156.663C94.3277 156.478 93.9849 156.076 93.568 156.002C92.1738 155.753 90.6591 154.931 89.4223 156.229C88.2412 157.471 88.5191 158.944 89.1722 160.367C89.6632 161.434 88.8619 163.05 90.5572 163.6" stroke="#FF9D48" stroke-width="1.5" stroke-linecap="round" stroke-linejoin="round"/>
<path d="M66.2439 107.831C66.2439 107.716 66.2671 107.596 66.2439 107.485C65.0951 102.663 64.215 102.381 60.389 105.693C58.7168 105.143 57.4569 103.892 56.0302 102.913C56.725 101.476 58.0173 99.989 56.9195 98.525C55.7291 96.9408 53.9087 98.0585 52.3847 98.2432C50.7543 97.0193 51.1804 94.7378 49.8047 93.3984" stroke="#FF9D48" stroke-width="1.5" stroke-linecap="round" stroke-linejoin="round"/>
<path d="M96.8145 89.4727L105.152 97.0932" stroke="#FF9D48" stroke-width="1.5" stroke-linecap="round" stroke-linejoin="round"/>
<path d="M71.8004 120.647C67.5945 121.368 63.9537 123.109 61.142 126.416C56.093 132.36 56.0467 141.297 61.142 147.204C64.4354 151.019 68.5718 153.065 73.6486 152.963C80.3604 152.829 85.326 149.762 88.2164 143.726C93.2561 133.196 85.6595 120.583 73.417 120.643C72.9538 120.643 72.4906 120.643 72.0274 120.643" stroke="#FF9D48" stroke-width="1.5" stroke-linecap="round" stroke-linejoin="round"/>
<path d="M67.6333 74.9238C63.2699 76.1523 60.2497 78.6232 59.013 83.2233C57.8457 87.5647 59.1195 91.1163 62.1165 94.049C65.1134 96.9818 69.0275 97.7438 72.937 96.5615C78.2963 94.9404 81.0524 89.9663 80.8578 85.7773C80.6123 80.5538 76.9344 76.0554 72.27 75.127C70.7877 74.8315 69.3286 75.0439 67.8649 74.9238" stroke="#FF9D48" stroke-width="1.5" stroke-linecap="round" stroke-linejoin="round"/>
</svg>
