<svg width="20" height="21" viewBox="0 0 20 21" fill="none" xmlns="http://www.w3.org/2000/svg">
<path d="M17.3666 9.91221L9.70825 17.5705C8.77005 18.5087 7.49757 19.0358 6.17075 19.0358C4.84393 19.0358 3.57145 18.5087 2.63325 17.5705C1.69505 16.6323 1.16797 15.3599 1.16797 14.033C1.16797 12.7062 1.69505 11.4337 2.63325 10.4955L10.2916 2.83721C10.9171 2.21174 11.7654 1.86035 12.6499 1.86035C13.5345 1.86035 14.3828 2.21174 15.0082 2.83721C15.6337 3.46267 15.9851 4.31099 15.9851 5.19554C15.9851 6.08008 15.6337 6.9284 15.0082 7.55387L7.34158 15.2122C7.02885 15.5249 6.60469 15.7006 6.16242 15.7006C5.72014 15.7006 5.29598 15.5249 4.98325 15.2122C4.67051 14.8995 4.49482 14.4753 4.49482 14.033C4.49482 13.5908 4.67051 13.1666 4.98325 12.8539L12.0582 5.78721" stroke="#CBE2D1" stroke-width="1.5" stroke-linecap="round" stroke-linejoin="round"/>
</svg>

