<svg width="158" height="190" viewBox="0 0 158 190" fill="none" xmlns="http://www.w3.org/2000/svg">
<rect x="0.00585938" y="0.794922" width="157.92" height="188.876" rx="8.66782" fill="#4EA692"/>
<mask id="mask0_6782_65609" style="mask-type:alpha" maskUnits="userSpaceOnUse" x="0" y="0" width="158" height="190">
<rect x="0.00585938" y="0.794922" width="157.92" height="188.876" rx="8.66782" fill="#4EA692"/>
</mask>
<g mask="url(#mask0_6782_65609)">
<g filter="url(#filter0_f_6782_65609)">
<circle opacity="0.2" cx="133.38" cy="127.784" r="32.7241" fill="url(#paint0_radial_6782_65609)"/>
<circle opacity="0.1" cx="133.381" cy="127.784" r="22.2667" fill="white"/>
<circle opacity="0.1" cx="133.751" cy="127.248" r="15.8648" fill="white"/>
</g>
<g opacity="0.2">
<path d="M157.926 189.673C157.926 189.673 154.936 172.638 141.46 170.961C127.985 169.284 133.441 178.522 126.324 178.316C119.159 178.11 125.043 150.542 93.9152 149.277C62.7879 148.012 81.7205 179.17 66.9635 178.728C52.2539 178.316 62.7404 160.428 45.8956 159.781C29.0507 159.163 39.5847 179.758 27.817 179.552C16.0494 179.346 19.7979 165.047 0.865273 154.102C-18.0674 143.157 -43.4058 164.841 -39.6098 189.673H157.926Z" fill="#043A4E"/>
<g opacity="0.1">
<mask id="mask1_6782_65609" style="mask-type:luminance" maskUnits="userSpaceOnUse" x="-40" y="149" width="198" height="41">
<path d="M157.925 189.673C157.925 189.673 154.936 172.637 141.46 170.96C127.984 169.283 133.441 178.522 126.323 178.316C119.158 178.11 125.042 150.542 93.9149 149.276C62.7876 148.011 81.7202 179.169 66.9632 178.728C52.2537 178.316 62.7402 160.427 45.8954 159.78C29.0506 159.162 39.5845 179.758 27.8169 179.552C16.0492 179.346 19.7978 165.047 0.865173 154.102C-18.0674 143.157 -43.4058 164.841 -39.6098 189.673H157.925Z" fill="white"/>
</mask>
<g mask="url(#mask1_6782_65609)">
<path d="M-27.9666 147.982C-5.94935 148.364 17.6235 148.865 36.6493 155.014C54.0596 160.663 61.5982 170.637 75.7777 177.816C88.4018 184.23 105.573 188.967 124 189.438C142.248 189.908 159.659 185.701 172.043 179.287C187.599 171.225 194.479 160.163 196.215 149.277C196.274 148.982 195.377 148.982 195.317 149.277C193.702 159.427 187.599 169.754 173.898 177.61C161.633 184.642 143.624 189.408 124.479 188.996C105.214 188.584 87.265 183.377 74.5213 176.492C61.658 169.519 54.2391 160.339 38.0253 154.896C18.7602 148.453 -5.41089 147.923 -27.9068 147.541C-28.5051 147.541 -28.5051 147.982 -27.9666 147.982Z" fill="#CBE2D1"/>
</g>
</g>
<g opacity="0.1">
<mask id="mask2_6782_65609" style="mask-type:luminance" maskUnits="userSpaceOnUse" x="-40" y="149" width="198" height="41">
<path d="M157.925 189.673C157.925 189.673 154.936 172.637 141.46 170.96C127.984 169.283 133.441 178.522 126.323 178.316C119.158 178.11 125.042 150.542 93.9149 149.276C62.7876 148.011 81.7202 179.169 66.9632 178.728C52.2537 178.316 62.7402 160.427 45.8954 159.78C29.0506 159.162 39.5845 179.758 27.8169 179.552C16.0492 179.346 19.7978 165.047 0.865173 154.102C-18.0674 143.157 -43.4058 164.841 -39.6098 189.673H157.925Z" fill="white"/>
</mask>
<g mask="url(#mask2_6782_65609)">
<path d="M134.714 156.191C127.713 158.309 120.601 160.486 114.647 163.428C108.748 166.341 104.779 169.96 102.243 173.991C97.0607 182.141 96.3991 191.879 103.401 199.764C106.708 203.472 111.891 206.649 119.002 208.326C119.499 208.444 119.884 208.061 119.443 207.944C101.471 203.707 97.6671 191.262 99.7069 181.964C100.975 176.227 104.393 170.195 111.56 165.753C117.955 161.751 126.721 159.103 135.155 156.544C135.596 156.426 135.155 156.043 134.714 156.191Z" fill="#CBE2D1"/>
</g>
</g>
<g opacity="0.1">
<mask id="mask3_6782_65609" style="mask-type:luminance" maskUnits="userSpaceOnUse" x="-40" y="149" width="198" height="41">
<path d="M157.925 189.673C157.925 189.673 154.936 172.637 141.46 170.96C127.984 169.283 133.441 178.522 126.323 178.316C119.158 178.11 125.042 150.542 93.9149 149.276C62.7876 148.011 81.7202 179.169 66.9632 178.728C52.2537 178.316 62.7402 160.427 45.8954 159.78C29.0506 159.162 39.5845 179.758 27.8169 179.552C16.0492 179.346 19.7978 165.047 0.865173 154.102C-18.0674 143.157 -43.4058 164.841 -39.6098 189.673H157.925Z" fill="white"/>
</mask>
<g mask="url(#mask3_6782_65609)">
<path d="M136.506 152.071C127.709 157.455 117.293 159.956 106.996 159.191C97.6101 158.485 85.959 155.19 81.4574 146.069C81.3397 145.804 80.9573 146.04 81.075 146.304C84.5173 153.248 92.1082 156.72 99.3166 158.456C107.349 160.368 115.881 160.191 123.854 158.044C128.385 156.808 132.74 154.954 136.741 152.483C136.977 152.306 136.741 151.924 136.506 152.071Z" fill="#CBE2D1"/>
</g>
</g>
<mask id="mask4_6782_65609" style="mask-type:luminance" maskUnits="userSpaceOnUse" x="-40" y="149" width="198" height="41">
<path opacity="0.2" d="M157.925 189.673C157.925 189.673 154.936 172.637 141.46 170.96C127.984 169.283 133.441 178.522 126.323 178.316C119.158 178.11 125.042 150.542 93.9149 149.276C62.7876 148.011 81.7202 179.169 66.9632 178.728C52.2537 178.316 62.7402 160.427 45.8954 159.78C29.0506 159.162 39.5845 179.758 27.8169 179.552C16.0492 179.346 19.7978 165.047 0.865173 154.102C-18.0674 143.157 -43.4058 164.841 -39.6098 189.673H157.925Z" fill="white"/>
</mask>
<g mask="url(#mask4_6782_65609)">
<path d="M72.6315 162.517C87.8721 171.608 98.1403 189.32 97.1988 207.238C96.9046 212.828 95.3158 218.389 91.6969 222.773C91.5204 222.979 91.8146 223.302 92.0206 223.096C98.1109 215.8 98.5817 205.473 96.8752 196.499C95.1687 187.496 90.9025 178.993 84.8711 172.108C81.4287 168.195 77.3685 164.841 72.8963 162.164C72.6021 162.016 72.3961 162.37 72.6315 162.517Z" fill="#CBE2D1"/>
</g>
</g>
<path d="M132.265 76.1676H127.204C127.204 74.6965 127.439 73.5197 128.822 73.5197C130.235 73.5197 132.265 74.6965 132.265 76.1676Z" fill="white"/>
<path d="M128.38 76.1679H117.7C117.7 73.0786 118.877 70.5778 121.819 70.5778C124.791 70.5778 128.38 73.0786 128.38 76.1679Z" fill="white"/>
<path d="M38.8684 107.66H32.1602C32.1602 105.718 32.4544 104.159 34.308 104.159C36.191 104.13 38.8684 105.718 38.8684 107.66Z" fill="white"/>
<path d="M33.7195 107.66H19.5381C19.5381 103.57 21.0974 100.246 25.0106 100.246C28.9531 100.216 33.7195 103.541 33.7195 107.66Z" fill="white"/>
<path d="M71.9092 119.098L72.3505 125.247L78.4997 124.482L77.5288 118.039L71.9092 119.098Z" fill="#272425"/>
<path d="M77.2935 108.241L73.8511 109.036C71.6739 109.536 70.1734 111.448 69.9968 113.684C69.7615 116.597 70.3793 121.246 70.3793 121.246L78.7057 119.216L77.2935 108.241Z" fill="#3D3639"/>
<path d="M77.8225 122.099L70.6436 123.805C70.9672 127.307 72.1441 131.808 72.1441 131.808C73.5269 136.133 77.9696 139.988 86.3549 138.134L95.4168 137.163L95.6228 124.011L77.8225 122.099Z" fill="#3D3639"/>
<path d="M77.5871 100.327C77.5871 100.327 72.7325 112.478 75.2628 129.101C77.7931 145.725 99.2711 134.25 99.2711 134.25L101.948 101.121L77.5871 100.327Z" fill="#272425"/>
<path d="M103.39 95.119C103.39 95.119 95.0634 92.2062 75.1741 94.7659L73.4971 106.8C73.4971 106.8 80.9408 107.594 101.124 106.564C102.948 106.917 104.949 104.505 105.567 101.151C106.185 97.8553 105.214 95.4721 103.39 95.119Z" fill="#FF9D48"/>
<path d="M77.9496 101.42C78.5762 98.0988 77.5956 95.1254 75.7592 94.779C73.9229 94.4325 71.9263 96.8442 71.2996 100.166C70.673 103.487 71.6537 106.46 73.49 106.807C75.3264 107.153 77.323 104.742 77.9496 101.42Z" fill="#DE8131"/>
<path d="M73.8801 104.71C73.7624 104.71 73.6153 104.681 73.4976 104.651C72.968 104.475 72.1442 103.739 72.6444 100.827C73.1445 97.8549 74.4391 96.4721 75.41 95.8248C76.4986 95.1187 77.4402 95.1481 77.499 95.1775C77.6167 95.1775 77.7344 95.2952 77.7344 95.4129C77.7344 95.5306 77.6167 95.6483 77.499 95.6483C77.3519 95.6483 74.0272 95.5894 73.1151 100.915C72.7326 103.092 73.1445 104.034 73.6447 104.21C74.2332 104.416 75.1158 103.71 75.7337 102.562C76.3515 101.327 77.0871 99.1789 76.381 98.7376C76.2633 98.6788 76.175 98.6493 76.0573 98.7082C75.4689 98.9141 74.7922 100.473 74.498 101.386C74.4685 101.503 74.3214 101.592 74.2037 101.533C74.086 101.503 73.9978 101.356 74.0566 101.238C74.1449 100.974 74.8804 98.6199 75.9102 98.2668C76.1456 98.1786 76.4104 98.208 76.6458 98.3551C77.9109 99.1789 76.3515 102.415 76.1456 102.798C75.5277 103.975 74.6451 104.681 73.8801 104.71Z" fill="white"/>
<path d="M101.009 183.503H95.2715L95.654 174.029H101.391L101.009 183.503Z" fill="white"/>
<path d="M94.7425 182.561H102.834L108.865 185.092C110.071 185.71 110.807 186.945 110.807 188.299H94.2129L94.7425 182.561Z" fill="black"/>
<path d="M103.422 182.856L101.774 180.649C101.774 180.649 99.2145 180.178 99.4499 182.973L103.422 182.856Z" fill="black"/>
<path d="M94.1625 189.269H110.845V188.327H94.1625V189.269Z" fill="#11110F"/>
<path d="M94.1581 189.674H101.308V188.321H94.1581V189.674Z" fill="#11110F"/>
<path d="M107.211 189.674H110.83V188.321H107.211V189.674Z" fill="#11110F"/>
<path d="M102.441 189.674H106.06V188.321H102.441V189.674Z" fill="#11110F"/>
<path d="M94.5664 184.856C94.5664 184.856 98.0088 184.532 98.5678 188.327" stroke="#A0A0A0" stroke-miterlimit="10"/>
<path d="M108.277 184.856C106.599 185.239 104.834 185.033 103.275 184.297L99.5088 182.503L103.245 182.65" stroke="#A0A0A0" stroke-miterlimit="10" stroke-linejoin="round"/>
<path d="M105.775 125.747L102.362 177.648L93.4473 177.501L95.5951 124.629L105.775 125.747Z" fill="#2E2E2E"/>
<path d="M92.5053 175.735H103.45L103.362 178.942H92.417L92.5053 175.735Z" fill="black"/>
<path d="M75.6465 183.504H81.3838L83.8846 174.03H78.1473L75.6465 183.504Z" fill="white"/>
<path d="M82.207 182.562H74.1159L68.0844 185.093C66.8781 185.711 66.1426 186.946 66.1426 188.3H82.4423L82.207 182.562Z" fill="black"/>
<path d="M73.5273 182.856L75.175 180.65C75.175 180.65 77.7347 180.179 77.4993 182.974L73.5273 182.856Z" fill="black"/>
<path d="M82.5013 188.299H66.1133V189.241H82.5013V188.299Z" fill="#11110F"/>
<path d="M82.4714 188.299H75.6455V189.653H82.4714V188.299Z" fill="#11110F"/>
<path d="M69.7322 188.299H66.1133V189.653H69.7322V188.299Z" fill="#11110F"/>
<path d="M74.4988 188.299H70.8799V189.653H74.4988V188.299Z" fill="#11110F"/>
<path d="M82.2661 184.827C82.2661 184.827 78.353 184.533 77.7939 188.299" stroke="#A0A0A0" stroke-miterlimit="10"/>
<path d="M68.6738 184.857C70.3509 185.239 72.1162 185.033 73.6756 184.298L77.4416 182.503L73.705 182.65" stroke="#A0A0A0" stroke-miterlimit="10" stroke-linejoin="round"/>
<path d="M87.061 124.629L74.998 178.942H84.1188L100.536 127.219L87.061 124.629Z" fill="#2E2E2E"/>
<path d="M74.7625 175.735H85.7075L85.0602 178.942H74.1152L74.7625 175.735Z" fill="black"/>
<path d="M94.5342 146.078L95.7993 142.813L100.889 139.547" stroke="#272425" stroke-width="1.0054" stroke-miterlimit="10" stroke-linecap="round" stroke-linejoin="round"/>
<path d="M107.335 105.151L117.544 107.887L118.574 112.654C118.898 114.125 117.338 115.419 115.867 115.125L110.718 114.125L105.775 107.034L107.335 105.151Z" fill="#F8E8CA"/>
<path d="M125.988 101.062L113.513 108.417C111.866 110.035 111.984 112.713 113.719 114.213C115.602 115.802 117.897 115.478 119.692 113.183L129.607 103.68L125.988 101.062Z" fill="#F8E8CA"/>
<path d="M128.431 105.681C130.608 105.681 132.373 103.916 132.373 101.738C132.373 99.5608 130.608 97.7957 128.431 97.7957C126.253 97.7957 124.488 99.5608 124.488 101.738C124.488 103.916 126.253 105.681 128.431 105.681Z" fill="#F8E8CA"/>
<path d="M129.814 84.6437L115.044 189.18C114.985 189.592 115.309 189.915 115.721 189.886C116.015 189.857 116.25 189.651 116.309 189.356L131.815 84.9085C131.903 84.3789 131.55 83.8788 131.02 83.7905C130.432 83.7022 129.873 84.0847 129.814 84.6437Z" fill="#845C4A"/>
<path d="M133.285 88.0569L130.284 89.9693L129.784 92.7644L134.021 89.0278C134.227 88.8513 134.286 88.5571 134.168 88.3217C134.021 87.9686 133.58 87.851 133.285 88.0569Z" fill="#845C4A"/>
<path d="M131.755 84.4387C131.931 84.9683 131.637 85.5273 131.107 85.6744C130.578 85.851 130.019 85.5567 129.872 85.0272C129.695 84.4976 129.989 83.9385 130.519 83.7914C131.019 83.6149 131.578 83.9091 131.755 84.4387Z" fill="#D9A55B"/>
<path d="M133.167 88.1161C132.932 88.3809 132.932 88.7634 133.197 88.9988C133.461 89.2342 133.844 89.2342 134.079 88.9694C134.315 88.7046 134.315 88.3221 134.05 88.0867C133.785 87.8513 133.403 87.8807 133.167 88.1161Z" fill="#D9A55B"/>
<path d="M128.696 92.5585C128.696 92.5585 128.814 89.9694 125.96 89.8517C125.96 89.8517 126.166 92.4702 128.696 92.5585Z" fill="#A0CAA0"/>
<path d="M129.665 99.2964C129.665 99.2964 129.077 100.562 127.665 99.9142L126.635 102.121V105.24C126.635 105.24 129.194 106.387 130.813 104.887C132.401 103.386 131.254 99.9142 131.254 99.9142L129.665 99.2964Z" fill="#F8E8CA"/>
<path d="M97.8896 103.24C97.8896 103.24 103.656 102.946 108.511 105.152C108.511 105.152 109.923 107.682 110.718 114.126L103.156 113.155L97.8896 103.24Z" fill="white"/>
<path d="M77.2358 111.36C77.2358 111.36 74.3524 114.214 73.1167 117.392C72.7931 118.216 73.2344 118.951 74.1171 119.157L78.854 120.481L84.5619 115.627L77.2358 111.36Z" fill="#F8E8CA"/>
<path d="M89.2393 131.367L80.1773 116.539C78.971 114.567 76.3525 114.038 74.4989 115.391C72.4982 116.833 72.3217 119.746 74.087 121.452L85.8852 133.044L89.2393 131.367Z" fill="#F8E8CA"/>
<path d="M86.2384 137.928C88.4158 137.928 90.181 136.162 90.181 133.985C90.181 131.808 88.4158 130.042 86.2384 130.042C84.061 130.042 82.2959 131.808 82.2959 133.985C82.2959 136.162 84.061 137.928 86.2384 137.928Z" fill="#F8E8CA"/>
<path d="M91.2108 103.475C91.2108 103.475 84.2084 102.71 77.2354 111.507C77.2354 111.507 81.2956 113.067 83.9436 118.363L89.2101 115.009L91.2108 103.475Z" fill="white"/>
<path d="M91.3274 103.593L86.3551 105.534L84.3838 128.69C84.3838 128.69 94.5638 136.869 106.48 131.632C106.48 131.632 106.539 118.951 103.655 106.152L98.8888 103.74L91.3274 103.593Z" fill="white"/>
<path d="M91.3281 103.592L94.0349 104.74L97.595 109.8L98.7719 104.416L95.3883 102.445L91.3281 103.592Z" fill="#F8E8CA"/>
<path d="M98.8896 104.534L100.596 107.358L99.6546 103.357" stroke="#272425" stroke-width="1.0054" stroke-miterlimit="10" stroke-linecap="round" stroke-linejoin="round"/>
<path d="M97.5957 109.8C97.5957 109.8 99.008 126.688 98.1841 133.396" stroke="#272425" stroke-width="1.0054" stroke-miterlimit="10" stroke-linecap="round" stroke-linejoin="round"/>
<path d="M93.9472 104.887L91.7994 108.888L89.5928 103.621" stroke="#272425" stroke-width="1.0054" stroke-miterlimit="10" stroke-linecap="round" stroke-linejoin="round"/>
<path d="M105.656 111.978V111.625L105.627 111.272L105.568 110.536C105.538 110.301 105.509 110.065 105.48 109.801C105.421 109.33 105.303 108.83 105.215 108.359C105.009 107.417 104.715 106.476 104.332 105.564C104.244 105.328 104.156 105.123 104.038 104.887C103.95 104.652 103.832 104.446 103.714 104.21C103.597 104.005 103.479 103.769 103.332 103.563C102.155 102.592 100.772 103.298 100.772 103.298C100.743 103.269 100.743 103.269 100.772 103.298C100.89 103.416 101.655 104.358 101.714 104.446C101.772 104.534 101.831 104.593 101.89 104.681C102.008 104.858 102.125 105.005 102.243 105.181C102.361 105.358 102.479 105.534 102.567 105.74C102.684 105.917 102.773 106.123 102.89 106.299C103.302 107.064 103.626 107.888 103.891 108.741C104.008 109.183 104.156 109.595 104.214 110.036C104.273 110.242 104.303 110.477 104.362 110.713L104.479 111.389L104.538 111.713L104.567 112.066L104.626 112.743C104.656 113.037 104.656 113.361 104.656 113.655C104.656 113.92 104.862 114.126 105.097 114.126C105.362 114.126 105.568 113.92 105.568 113.655C105.597 113.331 105.597 113.008 105.597 112.713L105.656 111.978Z" fill="#272425"/>
<path d="M88.3271 108.123C88.2389 107.417 88.1212 106.74 87.9446 106.063C87.8564 105.71 87.7681 105.387 87.6504 105.034C87.5916 104.857 87.5327 104.71 87.4739 104.534C87.415 104.357 87.3856 104.328 87.2974 104.122C87.2974 104.122 86.2087 103.798 85.4732 104.798C85.532 104.887 85.6203 105.093 85.6792 105.24C85.738 105.387 85.7968 105.534 85.8557 105.681C85.9734 105.975 86.0616 106.269 86.1499 106.564C86.3264 107.152 86.4735 107.77 86.5618 108.388C86.7678 109.624 86.7972 110.889 86.6795 112.124C86.6207 112.742 86.503 113.36 86.3559 113.978C86.2087 114.596 85.9734 115.184 85.738 115.743C85.2378 116.891 84.5611 117.979 83.7373 118.95L84.7082 119.803C85.6497 118.774 86.4441 117.626 87.062 116.361C87.3562 115.714 87.621 115.067 87.827 114.39C88.0329 113.713 88.18 113.036 88.2977 112.33C88.5037 110.918 88.5037 109.506 88.3271 108.123Z" fill="#272425"/>
<path d="M91.7989 94.8837L91.3281 103.593L98.7719 104.416L99.4192 97.6788L91.7989 94.8837Z" fill="#F8E8CA"/>
<path d="M91.7988 96.3839C91.7988 96.3839 93.2405 102.298 99.066 101.915L99.3897 98.061L91.7988 96.3839Z" fill="#272425"/>
<path d="M101.362 87.8226L99.4494 84.9393C99.0669 84.3508 98.5078 83.9095 97.8606 83.733C96.8308 83.4093 95.0361 83.3505 92.241 84.4685C86.945 86.5869 89.0046 92.0594 89.0046 92.0594L101.362 87.8226Z" fill="#FF9D48"/>
<mask id="mask5_6782_65609" style="mask-type:luminance" maskUnits="userSpaceOnUse" x="88" y="83" width="14" height="10">
<path d="M101.362 87.8226L99.4494 84.9393C99.0669 84.3508 98.5078 83.9095 97.8606 83.733C96.8308 83.4093 95.0361 83.3505 92.241 84.4685C86.945 86.5869 89.0046 92.0594 89.0046 92.0594L101.362 87.8226Z" fill="white"/>
</mask>
<g mask="url(#mask5_6782_65609)">
<path d="M101.45 86.587C101.45 86.587 93.9178 85.5572 87.5332 91.1768L88.6218 93.5306L102.627 88.1758L101.45 86.587Z" fill="#E18D44"/>
</g>
<path d="M96.3502 95.7231C102.019 93.8192 106.094 90.7272 105.453 88.8171C104.811 86.907 99.6957 86.9019 94.027 88.8059C88.3582 90.7098 84.2828 93.8018 84.9243 95.7119C85.5659 97.622 90.6814 97.6271 96.3502 95.7231Z" fill="#272425"/>
<path d="M96.7714 99.7389C99.39 99.6212 101.391 97.4146 101.273 94.8254L101.067 90.4121C101.008 89.1764 99.9784 88.2349 98.7427 88.2643L96.2124 88.382C93.6233 88.4997 91.6226 90.6769 91.7403 93.2661L91.8286 95.2373C91.9462 97.8559 94.1529 99.8566 96.7714 99.7389Z" fill="#F8E8CA"/>
<path d="M91.9752 92.9715C92.034 92.795 93.0638 92.589 92.3282 89.941C92.3282 89.941 89.8274 90.6472 89.592 92.9127C89.3566 95.1781 91.828 95.2076 91.828 95.2076L91.9752 92.9715Z" fill="#043A4E"/>
<path d="M91.3287 96.3844C92.2874 96.3844 93.0646 95.6072 93.0646 94.6485C93.0646 93.6898 92.2874 92.9126 91.3287 92.9126C90.37 92.9126 89.5928 93.6898 89.5928 94.6485C89.5928 95.6072 90.37 96.3844 91.3287 96.3844Z" fill="#F8E8CA"/>
<path d="M101.479 95.6488C101.479 95.6194 101.449 95.5605 101.42 95.5311C101.125 95.1486 100.537 94.9721 100.037 94.9132C99.5367 94.8544 99.0365 94.8838 98.5658 94.9721C97.7125 95.178 96.1237 95.6488 95.2411 96.5609C95.2411 96.5609 92.4166 95.5017 92.0635 92.3829L91.3574 92.6772C91.3574 92.6772 90.7395 98.2085 95.1822 99.5325C97.7714 100.327 99.3307 99.6502 100.184 98.9735C100.213 98.944 100.272 98.9146 100.302 98.8852C101.773 97.6789 101.479 95.6488 101.479 95.6488Z" fill="#043A4E"/>
<path d="M88.5915 94.0011C88.5915 94.0011 90.0626 91.5296 95.388 89.7937C100.713 88.0872 103.626 90.9412 103.626 90.9412L100.596 87.6459C100.596 87.6459 93.7403 87.4105 88.5327 92.0592C83.5603 96.5608 88.5915 94.0011 88.5915 94.0011Z" fill="#272425"/>
<path d="M97.9188 92.5888C97.9188 92.7653 97.7717 92.9124 97.5951 92.9124C97.4186 92.9124 97.2715 92.7653 97.2715 92.5888C97.2715 92.4122 97.4186 92.2651 97.5951 92.2651C97.7717 92.2651 97.9188 92.4122 97.9188 92.5888Z" fill="#27262F"/>
<path d="M100.891 92.4717C100.891 92.6188 100.773 92.7659 100.597 92.7659C100.45 92.7659 100.303 92.6482 100.303 92.4717C100.303 92.3246 100.42 92.1775 100.597 92.1775C100.744 92.1775 100.891 92.3246 100.891 92.4717Z" fill="#27262F"/>
<path d="M96.3599 92.0888L97.9193 91.618C98.1252 91.5298 98.2135 91.3238 98.1547 91.1179C98.0664 90.9413 97.8899 90.8237 97.6839 90.8825L96.0657 91.2061C95.8009 91.2944 95.6538 91.5886 95.7715 91.824C95.8892 92.0888 96.1245 92.1771 96.3599 92.0888Z" fill="#2E2E2E"/>
<path d="M100.832 91.7948L99.8022 91.3829C99.6257 91.3241 99.5374 91.1181 99.5963 90.9416C99.6551 90.7945 99.8317 90.7062 100.008 90.7356L101.067 91.0298C101.303 91.0887 101.42 91.3535 101.332 91.5594C101.244 91.7948 101.038 91.8831 100.832 91.7948Z" fill="#2E2E2E"/>
<path d="M99.3311 92.3538L100.067 93.7072C100.214 93.9425 100.125 94.2662 99.8901 94.4133L99.4782 94.6781" stroke="white" stroke-width="0.5" stroke-miterlimit="10" stroke-linecap="round" stroke-linejoin="round"/>
<path d="M98.1543 96.1373C98.1543 96.1373 99.3312 96.9906 100.302 96.1373" stroke="#F5F7F8" stroke-width="0.5" stroke-miterlimit="10" stroke-linecap="round" stroke-linejoin="round"/>
<path d="M15.7209 19.3529V29.1249H13.7609V19.3529H15.7209ZM18.0494 19.3529H20.1074L18.5954 22.8809H17.2514L18.0494 19.3529ZM31.1449 21.2569C32.0969 21.2569 32.8622 21.5509 33.4409 22.1389C34.0289 22.7175 34.3229 23.5295 34.3229 24.5749V29.1249H32.3629V24.8409C32.3629 24.2342 32.2089 23.7722 31.9009 23.4549C31.5929 23.1282 31.1729 22.9649 30.6409 22.9649C30.1089 22.9649 29.6842 23.1282 29.3669 23.4549C29.0589 23.7722 28.9049 24.2342 28.9049 24.8409V29.1249H26.9449V24.8409C26.9449 24.2342 26.7909 23.7722 26.4829 23.4549C26.1749 23.1282 25.7549 22.9649 25.2229 22.9649C24.6815 22.9649 24.2522 23.1282 23.9349 23.4549C23.6269 23.7722 23.4729 24.2342 23.4729 24.8409V29.1249H21.5129V21.3689H23.4729V22.3069C23.7249 21.9802 24.0469 21.7235 24.4389 21.5369C24.8402 21.3502 25.2789 21.2569 25.7549 21.2569C26.3615 21.2569 26.9029 21.3875 27.3789 21.6489C27.8549 21.9009 28.2235 22.2649 28.4849 22.7409C28.7369 22.2929 29.1009 21.9335 29.5769 21.6629C30.0622 21.3922 30.5849 21.2569 31.1449 21.2569ZM41.8007 22.9789V26.7309C41.8007 26.9922 41.8614 27.1835 41.9827 27.3049C42.1134 27.4169 42.3281 27.4729 42.6267 27.4729H43.5367V29.1249H42.3047C40.6527 29.1249 39.8267 28.3222 39.8267 26.7169V22.9789H38.9027V21.3689H39.8267V19.4509H41.8007V21.3689H43.5367V22.9789H41.8007ZM49.3145 21.2569C49.9025 21.2569 50.4251 21.3875 50.8825 21.6489C51.3398 21.9009 51.6945 22.2789 51.9465 22.7829C52.2078 23.2775 52.3385 23.8749 52.3385 24.5749V29.1249H50.3785V24.8409C50.3785 24.2249 50.2245 23.7535 49.9165 23.4269C49.6085 23.0909 49.1885 22.9229 48.6565 22.9229C48.1151 22.9229 47.6858 23.0909 47.3685 23.4269C47.0605 23.7535 46.9065 24.2249 46.9065 24.8409V29.1249H44.9465V18.7649H46.9065V22.3349C47.1585 21.9989 47.4945 21.7375 47.9145 21.5509C48.3345 21.3549 48.8011 21.2569 49.3145 21.2569ZM61.4123 25.0789C61.4123 25.3589 61.3937 25.6109 61.3563 25.8349H55.6863C55.733 26.3949 55.929 26.8335 56.2743 27.1509C56.6197 27.4682 57.0443 27.6269 57.5483 27.6269C58.2763 27.6269 58.7943 27.3142 59.1023 26.6889H61.2163C60.9923 27.4355 60.563 28.0515 59.9283 28.5369C59.2937 29.0129 58.5143 29.2509 57.5903 29.2509C56.8437 29.2509 56.1717 29.0875 55.5743 28.7609C54.9863 28.4249 54.5243 27.9535 54.1883 27.3469C53.8617 26.7402 53.6983 26.0402 53.6983 25.2469C53.6983 24.4442 53.8617 23.7395 54.1883 23.1329C54.515 22.5262 54.9723 22.0595 55.5603 21.7329C56.1483 21.4062 56.825 21.2429 57.5903 21.2429C58.3277 21.2429 58.9857 21.4015 59.5643 21.7189C60.1523 22.0362 60.605 22.4889 60.9223 23.0769C61.249 23.6555 61.4123 24.3229 61.4123 25.0789ZM59.3823 24.5189C59.373 24.0149 59.191 23.6135 58.8363 23.3149C58.4817 23.0069 58.0477 22.8529 57.5343 22.8529C57.049 22.8529 56.6383 23.0022 56.3023 23.3009C55.9757 23.5902 55.775 23.9962 55.7003 24.5189H59.3823ZM15.7209 39.4889C15.9729 39.1342 16.3183 38.8402 16.7569 38.6069C17.2049 38.3642 17.7136 38.2429 18.2829 38.2429C18.9456 38.2429 19.5429 38.4062 20.0749 38.7329C20.6163 39.0595 21.0409 39.5262 21.3489 40.1329C21.6663 40.7302 21.8249 41.4255 21.8249 42.2189C21.8249 43.0122 21.6663 43.7169 21.3489 44.3329C21.0409 44.9395 20.6163 45.4109 20.0749 45.7469C19.5429 46.0829 18.9456 46.2509 18.2829 46.2509C17.7136 46.2509 17.2096 46.1342 16.7709 45.9009C16.3416 45.6675 15.9916 45.3735 15.7209 45.0189V49.8209H13.7609V38.3689H15.7209V39.4889ZM19.8229 42.2189C19.8229 41.7522 19.7249 41.3509 19.5289 41.0149C19.3423 40.6695 19.0903 40.4082 18.7729 40.2309C18.4649 40.0535 18.1289 39.9649 17.7649 39.9649C17.4103 39.9649 17.0743 40.0582 16.7569 40.2449C16.4489 40.4222 16.1969 40.6835 16.0009 41.0289C15.8143 41.3742 15.7209 41.7802 15.7209 42.2469C15.7209 42.7135 15.8143 43.1195 16.0009 43.4649C16.1969 43.8102 16.4489 44.0762 16.7569 44.2629C17.0743 44.4402 17.4103 44.5289 17.7649 44.5289C18.1289 44.5289 18.4649 44.4355 18.7729 44.2489C19.0903 44.0622 19.3423 43.7962 19.5289 43.4509C19.7249 43.1055 19.8229 42.6949 19.8229 42.2189ZM25.2092 35.7649V46.1249H23.2492V35.7649H25.2092ZM26.6417 42.2189C26.6417 41.4349 26.7957 40.7395 27.1037 40.1329C27.421 39.5262 27.8457 39.0595 28.3777 38.7329C28.919 38.4062 29.521 38.2429 30.1837 38.2429C30.7624 38.2429 31.2664 38.3595 31.6957 38.5929C32.1344 38.8262 32.4844 39.1202 32.7457 39.4749V38.3689H34.7197V46.1249H32.7457V44.9909C32.4937 45.3549 32.1437 45.6582 31.6957 45.9009C31.257 46.1342 30.7484 46.2509 30.1697 46.2509C29.5164 46.2509 28.919 46.0829 28.3777 45.7469C27.8457 45.4109 27.421 44.9395 27.1037 44.3329C26.7957 43.7169 26.6417 43.0122 26.6417 42.2189ZM32.7457 42.2469C32.7457 41.7709 32.6524 41.3649 32.4657 41.0289C32.279 40.6835 32.027 40.4222 31.7097 40.2449C31.3924 40.0582 31.0517 39.9649 30.6877 39.9649C30.3237 39.9649 29.9877 40.0535 29.6797 40.2309C29.3717 40.4082 29.1197 40.6695 28.9237 41.0149C28.737 41.3509 28.6437 41.7522 28.6437 42.2189C28.6437 42.6855 28.737 43.0962 28.9237 43.4509C29.1197 43.7962 29.3717 44.0622 29.6797 44.2489C29.997 44.4355 30.333 44.5289 30.6877 44.5289C31.0517 44.5289 31.3924 44.4402 31.7097 44.2629C32.027 44.0762 32.279 43.8149 32.4657 43.4789C32.6524 43.1335 32.7457 42.7229 32.7457 42.2469ZM40.932 38.2569C41.856 38.2569 42.6026 38.5509 43.172 39.1389C43.7413 39.7175 44.026 40.5295 44.026 41.5749V46.1249H42.066V41.8409C42.066 41.2249 41.912 40.7535 41.604 40.4269C41.296 40.0909 40.876 39.9229 40.344 39.9229C39.8026 39.9229 39.3733 40.0909 39.056 40.4269C38.748 40.7535 38.594 41.2249 38.594 41.8409V46.1249H36.634V38.3689H38.594V39.3349C38.8553 38.9989 39.1866 38.7375 39.588 38.5509C39.9986 38.3549 40.4466 38.2569 40.932 38.2569ZM50.1878 38.2569C51.1118 38.2569 51.8585 38.5509 52.4278 39.1389C52.9972 39.7175 53.2818 40.5295 53.2818 41.5749V46.1249H51.3218V41.8409C51.3218 41.2249 51.1678 40.7535 50.8598 40.4269C50.5518 40.0909 50.1318 39.9229 49.5998 39.9229C49.0585 39.9229 48.6292 40.0909 48.3118 40.4269C48.0038 40.7535 47.8498 41.2249 47.8498 41.8409V46.1249H45.8898V38.3689H47.8498V39.3349C48.1112 38.9989 48.4425 38.7375 48.8438 38.5509C49.2545 38.3549 49.7025 38.2569 50.1878 38.2569ZM62.3557 42.0789C62.3557 42.3589 62.337 42.6109 62.2997 42.8349H56.6297C56.6764 43.3949 56.8724 43.8335 57.2177 44.1509C57.563 44.4682 57.9877 44.6269 58.4917 44.6269C59.2197 44.6269 59.7377 44.3142 60.0457 43.6889H62.1597C61.9357 44.4355 61.5064 45.0515 60.8717 45.5369C60.237 46.0129 59.4577 46.2509 58.5337 46.2509C57.787 46.2509 57.115 46.0875 56.5177 45.7609C55.9297 45.4249 55.4677 44.9535 55.1317 44.3469C54.805 43.7402 54.6417 43.0402 54.6417 42.2469C54.6417 41.4442 54.805 40.7395 55.1317 40.1329C55.4584 39.5262 55.9157 39.0595 56.5037 38.7329C57.0917 38.4062 57.7684 38.2429 58.5337 38.2429C59.271 38.2429 59.929 38.4015 60.5077 38.7189C61.0957 39.0362 61.5484 39.4889 61.8657 40.0769C62.1924 40.6555 62.3557 41.3229 62.3557 42.0789ZM60.3257 41.5189C60.3164 41.0149 60.1344 40.6135 59.7797 40.3149C59.425 40.0069 58.991 39.8529 58.4777 39.8529C57.9924 39.8529 57.5817 40.0022 57.2457 40.3009C56.919 40.5902 56.7184 40.9962 56.6437 41.5189H60.3257ZM65.7463 39.5729C65.9983 39.1622 66.325 38.8402 66.7263 38.6069C67.137 38.3735 67.6036 38.2569 68.1263 38.2569V40.3149H67.6083C66.9923 40.3149 66.5256 40.4595 66.2083 40.7489C65.9003 41.0382 65.7463 41.5422 65.7463 42.2609V46.1249H63.7863V38.3689H65.7463V39.5729Z" fill="#043A4E"/>
</g>
<defs>
<filter id="filter0_f_6782_65609" x="99.6562" y="94.0598" width="67.4482" height="67.4482" filterUnits="userSpaceOnUse" color-interpolation-filters="sRGB">
<feFlood flood-opacity="0" result="BackgroundImageFix"/>
<feBlend mode="normal" in="SourceGraphic" in2="BackgroundImageFix" result="shape"/>
<feGaussianBlur stdDeviation="0.5" result="effect1_foregroundBlur_6782_65609"/>
</filter>
<radialGradient id="paint0_radial_6782_65609" cx="0" cy="0" r="1" gradientUnits="userSpaceOnUse" gradientTransform="translate(133.38 127.784) rotate(-90) scale(40.2647)">
<stop stop-color="white"/>
<stop offset="1" stop-color="#F5F7F8" stop-opacity="0"/>
</radialGradient>
</defs>
</svg>
