<svg width="100" height="101" viewBox="0 0 100 101" fill="none" xmlns="http://www.w3.org/2000/svg">
<g clip-path="url(#clip0_2172_74446)">
<path d="M96.4807 50.1151C98.0251 48.3167 99.1074 46.1686 99.6336 43.8572C100.16 41.5458 100.114 39.1409 99.5006 36.8512C98.887 34.5615 97.724 32.456 96.1125 30.7175C94.501 28.9789 92.4897 27.6599 90.253 26.8747C90.6912 24.5449 90.5544 22.1434 89.8544 19.8785C89.1543 17.6135 87.9122 15.5536 86.2358 13.8775C84.5594 12.2013 82.4994 10.9594 80.2344 10.2597C77.9694 9.55997 75.5678 9.42345 73.2381 9.862C72.4535 7.62478 71.1347 5.61288 69.3961 4.00098C67.6576 2.38908 65.5519 1.22591 63.2618 0.612446C60.9717 -0.00101557 58.5665 -0.0462218 56.255 0.480752C53.9435 1.00773 51.7956 2.09095 49.9977 3.63638C48.1992 2.09202 46.0512 1.00977 43.7398 0.48352C41.4284 -0.0427262 39.0235 0.00292572 36.7338 0.616513C34.444 1.2301 32.3386 2.39309 30.6 4.0046C28.8615 5.61611 27.5424 7.62746 26.7572 9.86417C24.4276 9.42632 22.0263 9.56345 19.7617 10.2637C17.4971 10.9639 15.4375 12.206 13.7616 13.8824C12.0857 15.5587 10.8441 17.6186 10.1444 19.8834C9.44481 22.1482 9.30829 24.5495 9.74673 26.879C7.51002 27.6642 5.49867 28.9833 3.88716 30.7218C2.27565 32.4603 1.11265 34.5658 0.499062 36.8555C-0.114525 39.1453 -0.160184 41.5502 0.366062 43.8615C0.892308 46.1729 1.97458 48.321 3.51895 50.1194C1.97411 51.9178 0.891505 54.066 0.36511 56.3777C-0.161286 58.6893 -0.115588 61.0945 0.498269 63.3844C1.11213 65.6744 2.27557 67.7799 3.88763 69.5183C5.49969 71.2567 7.51167 72.5753 9.7489 73.3599C9.31008 75.6894 9.44644 78.0909 10.1462 80.3558C10.8459 82.6207 12.0878 84.6807 13.7641 86.3568C15.4405 88.0329 17.5006 89.2746 19.7656 89.974C22.0306 90.6734 24.4321 90.8095 26.7616 90.3704C27.5468 92.6071 28.8658 94.6184 30.6044 96.2299C32.3429 97.8415 34.4483 99.0044 36.7381 99.618C39.0278 100.232 41.4327 100.277 43.7441 99.751C46.0555 99.2248 48.2036 98.1425 50.002 96.5982C51.8004 98.143 53.9486 99.2256 56.2603 99.752C58.5719 100.278 60.977 100.233 63.267 99.6188C65.5569 99.005 67.6625 97.8415 69.4008 96.2295C71.1392 94.6174 72.4579 92.6054 73.2425 90.3682C75.5721 90.8069 77.9736 90.6704 80.2385 89.9707C82.5035 89.271 84.5635 88.0291 86.2397 86.3529C87.916 84.6766 89.1579 82.6166 89.8576 80.3517C90.5574 78.0867 90.6938 75.6852 90.2551 73.3556C92.492 72.5705 94.5035 71.2515 96.1151 69.5129C97.7267 67.7743 98.8896 65.6687 99.5031 63.3788C100.116 61.0889 100.162 58.6839 99.6351 56.3725C99.1084 54.0611 98.0257 51.9132 96.4807 50.1151Z" fill="#043A4E"/>
<path d="M41.0246 69.2014L27.1301 55.3157C26.6028 54.7875 26.3066 54.0717 26.3066 53.3253C26.3066 52.579 26.6028 51.8632 27.1301 51.335L28.8182 49.6448C29.3464 49.1175 30.0622 48.8213 30.8085 48.8213C31.5549 48.8213 32.2707 49.1175 32.7989 49.6448L42.899 59.7384L66.6855 34.461C67.1973 33.918 67.9037 33.6002 68.6496 33.5774C69.3956 33.5547 70.12 33.8288 70.664 34.3397L72.3976 35.9757C72.9413 36.4876 73.2595 37.1945 73.2822 37.941C73.305 38.6874 73.0304 39.4123 72.5189 39.9564L45.0724 69.1386C44.814 69.414 44.5028 69.6347 44.1574 69.7874C43.812 69.9402 43.4394 70.0219 43.0618 70.0278C42.6842 70.0336 42.3092 69.9635 41.9593 69.8215C41.6093 69.6796 41.2914 69.4687 41.0246 69.2014Z" fill="#CBE2D1"/>
</g>
<defs>
<clipPath id="clip0_2172_74446">
<rect width="100" height="100" fill="white" transform="translate(0 0.117188)"/>
</clipPath>
</defs>
</svg>
