<svg width="15" height="15" viewBox="0 0 15 15" fill="none" xmlns="http://www.w3.org/2000/svg">
<path d="M13.0521 10.7832H8.96875" stroke="#CBE2D1" stroke-miterlimit="10" stroke-linecap="round" stroke-linejoin="round"/>
<path d="M3.13281 10.7832H1.38281" stroke="#CBE2D1" stroke-miterlimit="10" stroke-linecap="round" stroke-linejoin="round"/>
<path d="M13.0547 4.36523H11.3047" stroke="#CBE2D1" stroke-miterlimit="10" stroke-linecap="round" stroke-linejoin="round"/>
<path d="M5.46615 4.36523H1.38281" stroke="#CBE2D1" stroke-miterlimit="10" stroke-linecap="round" stroke-linejoin="round"/>
<path d="M4.29948 9.0332H7.79948C8.44115 9.0332 8.96615 9.32487 8.96615 10.1999V11.3665C8.96615 12.2415 8.44115 12.5332 7.79948 12.5332H4.29948C3.65781 12.5332 3.13281 12.2415 3.13281 11.3665V10.1999C3.13281 9.32487 3.65781 9.0332 4.29948 9.0332Z" stroke="#CBE2D1" stroke-miterlimit="10" stroke-linecap="round" stroke-linejoin="round"/>
<path d="M6.63542 2.61523H10.1354C10.7771 2.61523 11.3021 2.9069 11.3021 3.7819V4.94857C11.3021 5.82357 10.7771 6.11523 10.1354 6.11523H6.63542C5.99375 6.11523 5.46875 5.82357 5.46875 4.94857V3.7819C5.46875 2.9069 5.99375 2.61523 6.63542 2.61523Z" stroke="#CBE2D1" stroke-miterlimit="10" stroke-linecap="round" stroke-linejoin="round"/>
</svg>
