<svg width="19" height="23" viewBox="0 0 19 23" fill="none" xmlns="http://www.w3.org/2000/svg">
<path fill-rule="evenodd" clip-rule="evenodd" d="M9.69261 15.9731C5.45787 15.9731 3.31118 16.7006 3.31118 18.1367C3.31118 19.5857 5.45787 20.3202 9.69261 20.3202C13.9264 20.3202 16.0721 19.5927 16.0721 18.1566C16.0721 16.7076 13.9264 15.9731 9.69261 15.9731ZM9.69251 21.811C7.74558 21.811 1.82031 21.811 1.82031 18.1368C1.82031 14.8611 6.31346 14.4824 9.69251 14.4824C11.6394 14.4824 17.5627 14.4824 17.5627 18.1566C17.5627 21.4323 13.0706 21.811 9.69251 21.811Z" fill="white"/>
<path d="M9.69261 15.7231C7.56745 15.7231 5.93907 15.9048 4.8336 16.2796C3.73414 16.6523 3.06118 17.254 3.06118 18.1367H3.56118C3.56118 17.5833 3.96156 17.1032 4.99413 16.7531C6.02069 16.4051 7.58303 16.2231 9.69261 16.2231V15.7231ZM3.06118 18.1367C3.06118 19.0245 3.73224 19.6317 4.83293 20.0083C5.93869 20.3867 7.56735 20.5702 9.69261 20.5702V20.0702C7.58313 20.0702 6.02107 19.8864 4.9948 19.5353C3.96346 19.1824 3.56118 18.6979 3.56118 18.1367H3.06118ZM9.69261 20.5702C11.8173 20.5702 13.4452 20.3884 14.5503 20.0137C15.6494 19.6409 16.3221 19.0392 16.3221 18.1566H15.8221C15.8221 18.71 15.4218 19.1901 14.3897 19.5401C13.3635 19.8881 11.8017 20.0702 9.69261 20.0702V20.5702ZM16.3221 18.1566C16.3221 17.2688 15.6513 16.6616 14.551 16.2849C13.4456 15.9066 11.8174 15.7231 9.69261 15.7231V16.2231C11.8016 16.2231 13.3631 16.4069 14.389 16.758C15.4199 17.1108 15.8221 17.5953 15.8221 18.1566H16.3221ZM9.69251 21.561C8.71548 21.561 6.77915 21.5598 5.09064 21.1101C4.24669 20.8854 3.48695 20.5541 2.94191 20.0734C2.40517 19.6001 2.07031 18.9776 2.07031 18.1368H1.57031C1.57031 19.133 1.97611 19.8884 2.6112 20.4484C3.23799 21.0012 4.08125 21.3588 4.96198 21.5933C6.72284 22.0622 8.7226 22.061 9.69251 22.061V21.561ZM2.07031 18.1368C2.07031 17.3818 2.32658 16.8059 2.75592 16.3565C3.19115 15.901 3.81608 15.5637 4.56678 15.3189C6.07157 14.8281 8.00467 14.7324 9.69251 14.7324V14.2324C8.00129 14.2324 5.9983 14.3261 4.41175 14.8435C3.61678 15.1028 2.90723 15.4744 2.3944 16.0111C1.87568 16.5541 1.57031 17.2539 1.57031 18.1368H2.07031ZM9.69251 14.7324C10.6695 14.7324 12.6054 14.7336 14.2934 15.1833C15.1371 15.408 15.8965 15.7393 16.4414 16.22C16.9779 16.6933 17.3127 17.3158 17.3127 18.1566H17.8127C17.8127 17.1604 17.4071 16.4051 16.7722 15.845C16.1456 15.2923 15.3025 14.9347 14.4221 14.7001C12.6617 14.2312 10.6624 14.2324 9.69251 14.2324V14.7324ZM17.3127 18.1566C17.3127 18.9116 17.0565 19.4875 16.6273 19.9369C16.1921 20.3924 15.5674 20.7297 14.8168 20.9745C13.3124 21.4653 11.3798 21.561 9.69251 21.561V22.061C11.3832 22.061 13.3857 21.9673 14.9719 21.4499C15.7667 21.1906 16.4761 20.819 16.9888 20.2822C17.5074 19.7393 17.8127 19.0395 17.8127 18.1566H17.3127Z" fill="white"/>
<path fill-rule="evenodd" clip-rule="evenodd" d="M9.69299 3.94838C7.82266 3.94838 6.30088 5.46928 6.30088 7.33961C6.29477 9.20383 7.80519 10.7239 9.66766 10.7308L9.69299 11.3546V10.7308C11.5624 10.7308 13.0833 9.20907 13.0833 7.33961C13.0833 5.46928 11.5624 3.94838 9.69299 3.94838ZM9.69332 11.9787H9.66536C7.11276 11.9708 5.045 9.88908 5.05374 7.33823C5.05374 4.78301 7.1346 2.70215 9.69332 2.70215C12.2512 2.70215 14.3311 4.78301 14.3311 7.34085C14.3311 9.89869 12.2512 11.9787 9.69332 11.9787Z" fill="white"/>
<path d="M6.30088 7.33961L6.55088 7.34043V7.33961H6.30088ZM9.66766 10.7308L9.91745 10.7207L9.90774 10.4817L9.66859 10.4808L9.66766 10.7308ZM9.69299 11.3546L9.4432 11.3647L9.94299 11.3546H9.69299ZM9.69299 10.7308V10.4808H9.44299V10.7308H9.69299ZM9.66536 11.9787L9.66459 12.2287H9.66536V11.9787ZM5.05374 7.33823L5.30374 7.33909V7.33823H5.05374ZM9.69299 3.69838C7.68467 3.69838 6.05088 5.33113 6.05088 7.33961H6.55088C6.55088 5.60744 7.96064 4.19838 9.69299 4.19838V3.69838ZM6.05088 7.33879C6.04432 9.34105 7.66624 10.9733 9.66672 10.9808L9.66859 10.4808C7.94413 10.4744 6.54522 9.06661 6.55088 7.34043L6.05088 7.33879ZM9.41786 10.741L9.4432 11.3647L9.94278 11.3444L9.91745 10.7207L9.41786 10.741ZM9.94299 11.3546V10.7308H9.44299V11.3546H9.94299ZM9.69299 10.9808C11.7006 10.9808 13.3333 9.34706 13.3333 7.33961H12.8333C12.8333 9.07109 11.4243 10.4808 9.69299 10.4808V10.9808ZM13.3333 7.33961C13.3333 5.33125 11.7006 3.69838 9.69299 3.69838V4.19838C11.4243 4.19838 12.8333 5.60731 12.8333 7.33961H13.3333ZM9.69332 11.7287H9.66536V12.2287H9.69332V11.7287ZM9.66613 11.7287C7.25161 11.7212 5.29547 9.75181 5.30374 7.33909L4.80374 7.33738C4.79453 10.0264 6.97392 12.2204 9.66459 12.2287L9.66613 11.7287ZM5.30374 7.33823C5.30374 4.92121 7.27255 2.95215 9.69332 2.95215V2.45215C6.99665 2.45215 4.80374 4.64482 4.80374 7.33823H5.30374ZM9.69332 2.95215C12.113 2.95215 14.0811 4.92102 14.0811 7.34085H14.5811C14.5811 4.645 12.3893 2.45215 9.69332 2.45215V2.95215ZM14.0811 7.34085C14.0811 9.76062 12.1131 11.7287 9.69332 11.7287V12.2287C12.3892 12.2287 14.5811 10.0368 14.5811 7.34085H14.0811Z" fill="white"/>
</svg>
