<svg width="336" height="267" viewBox="0 0 336 267" fill="none" xmlns="http://www.w3.org/2000/svg">
<path d="M172.205 66.9257C173.265 65.8587 174.507 64.9773 175.161 63.5299C176.404 60.7805 175.846 57.8424 172.779 56.3518C171.276 55.6188 171.375 54.7281 171.446 53.6302C171.865 47.0335 175.27 42.3913 180.865 39.0636C184.013 37.1925 187.111 35.2132 189.878 32.7668C193.441 29.6185 195.232 25.6474 195.758 21.0022C196.313 16.1126 195.433 11.6128 192.514 7.53659C189.779 3.7171 185.971 1.73159 181.497 0.921304C175.759 -0.117843 170.334 0.714093 165.386 3.98926C160.547 7.1933 158.338 11.7055 158.579 17.4456C158.672 19.6043 160.426 21.964 162.452 22.3599C164.891 22.8362 166.638 22.697 168.333 20.0775C169.12 18.8651 169.702 17.5291 170.802 16.5116C173.919 13.6199 177.206 13.8024 180.394 15.9302C183.068 17.7147 183.737 21.7816 182.296 24.8804C180.825 28.0443 178.355 30.2865 175.762 32.439C173.358 34.4338 170.892 36.3853 169.29 39.113C168.212 40.9439 167.419 42.9325 167.403 45.1284" stroke="#CBE2D1" stroke-linecap="round" stroke-linejoin="round"/>
<path d="M213.721 187.386C213.823 188.66 214.892 189.31 215.602 190.151C221.237 196.838 226.015 204.04 229.045 212.286C230.91 217.367 231.97 222.609 232.196 228.052C232.431 233.721 231.957 239.251 229.987 244.598C227.403 251.6 222.855 256.83 216.054 260.071C209.724 263.089 202.976 264.212 196.067 264.704C190.949 265.066 185.828 265.195 180.734 264.521C176.558 263.971 172.561 262.808 169.109 260.219C167.638 259.115 166.64 257.674 165.847 256.044C165.54 255.416 165.395 254.643 164.62 254.337" stroke="#CBE2D1" stroke-linecap="round" stroke-linejoin="round"/>
<path d="M335.171 230.5C335.171 238.999 334.675 246.999 334.675 246.999C334.675 246.999 334.551 253.009 330.349 253.763C323.157 255.056 316.077 254.527 308.99 253.111C302.874 251.889 297.022 249.817 291.17 247.708C283.967 245.11 276.828 242.293 269.219 241.007C267.066 240.642 264.912 240.49 262.762 240.459C258.354 240.398 253.928 240.156 249.55 241.019C249.123 241.103 248.632 240.741 248.171 241.044" stroke="#CBE2D1" stroke-linecap="round" stroke-linejoin="round"/>
<path d="M210.159 191.252C211.677 193.315 213.369 195.257 214.503 197.589C217.27 203.289 218.112 209.249 217.313 215.533C216.411 222.643 213.542 228.751 208.44 233.762C205.499 236.65 201.943 238.682 198.228 240.42C192.499 243.098 186.485 244.936 180.258 245.968C175.115 246.822 169.922 247.363 164.776 248.183C160.358 248.888 155.887 249.352 151.599 250.768C149.409 251.492 147.478 252.664 145.582 253.907C145.071 254.241 144.65 254.585 144.015 254.498" stroke="#CBE2D1" stroke-linecap="round" stroke-linejoin="round"/>
<path d="M169.418 163.573C170.877 165.929 171.348 168.438 170.664 171.15C170.298 172.6 169.805 174.004 169.093 175.316C168.622 176.182 168.541 176.98 169.108 177.796C170.146 179.287 170.453 180.963 170.512 182.744C170.713 188.769 169.316 194.559 168.033 200.376C166.992 205.105 165.604 209.734 163.978 214.284C161.477 221.276 158.587 228.099 155.182 234.711C151.904 241.082 147.808 246.967 144.304 253.181C142.439 256.49 139.371 258.846 137.968 262.378" stroke="#CBE2D1" stroke-linecap="round" stroke-linejoin="round"/>
<path d="M144.477 166.047C143.002 167.367 141.056 167.773 139.352 168.651C130.324 173.29 122.399 179.293 115.632 186.895C110.288 192.901 106.059 199.606 102.874 206.898C99.6825 214.209 97.6903 221.916 96.8971 229.908C96.5191 233.718 96.231 237.522 96.2899 241.354C96.2992 241.997 96.2899 242.653 97.0768 242.721C97.712 242.774 97.9598 242.344 98.1984 241.679C99.9861 236.653 101.758 231.618 103.769 226.679C105.99 221.224 108.838 216.099 113.352 212.144C117.014 208.936 121.119 206.626 126.197 206.722C129.946 206.793 130.46 207.715 131.291 210.279C131.405 210.631 131.501 210.95 131.774 211.2" stroke="#CBE2D1" stroke-linecap="round" stroke-linejoin="round"/>
<path d="M48.2749 241.663C46.261 241.258 44.5725 240.08 42.7073 239.316C35.6093 236.418 28.3718 233.987 20.6943 233.359C15.4521 232.93 12.8061 232.788 7.66925 234C-0.329102 236 0.669798 246 0.669798 246C0.669798 246 1.16941 253.5 1.16941 257" stroke="#CBE2D1" stroke-linecap="round" stroke-linejoin="round"/>
<path d="M163.838 175.634C163.312 175.606 162.85 175.696 162.438 176.092C161.177 177.295 159.659 177.072 158.107 176.889C155.51 176.586 153.044 175.73 150.531 175.114C146.287 174.069 143.387 175.906 141.094 179.057C138.396 182.772 137.194 187.151 136.292 191.567C135.341 196.231 134.616 200.944 133.782 205.633C133.544 206.975 133.507 208.423 132.961 209.632C131.899 211.976 131.685 214.503 130.985 216.918C130.244 219.482 129.491 222.049 128.054 224.344" stroke="#CBE2D1" stroke-linecap="round" stroke-linejoin="round"/>
<path d="M217.595 185.686C222.88 191.45 227.683 197.568 231.54 204.393C234.923 210.384 237.389 216.721 238.982 223.413C240.327 229.061 240.931 234.795 241.129 240.581C241.163 241.558 241.024 242.539 241.002 243.519C240.999 243.671 241.194 243.828 241.309 244.001C242.359 243.782 243.137 243.018 244.085 242.591" stroke="#CBE2D1" stroke-linecap="round" stroke-linejoin="round"/>
<path d="M48.585 241.818C52.9225 243.776 57.195 245.897 61.6131 247.654C67.0598 249.816 72.646 251.711 78.4861 252.451C85.7113 253.363 92.8434 253.02 99.5511 249.714C99.737 249.621 99.9632 249.605 100.168 249.553" stroke="#CBE2D1" stroke-linecap="round" stroke-linejoin="round"/>
<path d="M203.808 90.894C204.018 92.1868 204.765 92.994 205.76 93.9001C207.702 95.6754 208.898 98.066 210.032 100.469C211.938 104.505 212.979 108.733 212.917 113.161C212.83 119.356 210.739 124.71 205.67 128.628C203.021 130.672 199.919 131.316 196.685 131.566C196.065 131.613 195.551 131.405 195.136 130.948" stroke="#CBE2D1" stroke-linecap="round" stroke-linejoin="round"/>
<path d="M100.791 248.776C102.669 248.544 103.936 247.171 105.24 246.095C107.93 243.871 110.117 241.144 111.626 237.949C111.902 237.364 112.115 236.73 112.239 236.096C112.462 234.952 111.626 234.027 110.396 233.931C107.573 233.715 105.463 234.967 103.899 237.188C101.519 240.562 100.528 244.261 100.519 248.47C100.509 251.69 101.033 254.516 102.811 257.127C105.81 261.528 110.102 264.033 115.204 265.152C122.11 266.668 128.824 265.737 135.327 263.139C136.505 262.669 137.543 262.427 138.754 262.99C140.56 263.828 142.519 263.897 144.477 263.943C149.573 264.064 154.63 263.668 159.658 262.857C161.901 262.496 162.951 261.685 163.181 259.446C163.444 256.858 164.284 254.458 165.08 252.027" stroke="#CBE2D1" stroke-linecap="round" stroke-linejoin="round"/>
<path d="M178.866 155.222C179.892 156.385 180.05 157.984 180.88 159.243C183.055 162.533 186.163 164.649 189.71 166.198C198.515 170.045 206.509 175.133 213.567 181.662C214.425 182.456 215.32 183.211 216.197 183.984" stroke="#CBE2D1" stroke-linecap="round" stroke-linejoin="round"/>
<path d="M178.402 158.934C179.173 161.757 178.572 164.16 176.239 166.053C175.536 166.625 174.975 167.33 174.628 168.206C175.285 169.808 176.546 170.321 178.089 170.033C179.071 169.851 180.059 169.968 181.054 169.65C182.466 169.198 183.839 169.894 185.054 170.55C192.328 174.481 198.729 179.571 204.591 185.367C205.093 185.862 205.483 186.397 205.669 187.074" stroke="#CBE2D1" stroke-linecap="round" stroke-linejoin="round"/>
<path d="M179.022 161.872C179.075 161.896 179.153 161.909 179.174 161.952C180.838 165.301 184.246 166.297 187.251 167.708C192.187 170.027 196.661 173.042 201.014 176.259C204.317 178.699 207.272 181.547 210.315 184.294" stroke="#CBE2D1" stroke-linecap="round" stroke-linejoin="round"/>
<path d="M196.217 119.038C197.601 120.386 197.53 122.136 197.416 123.828C197.366 124.543 197.22 125.198 197.642 125.922C196.619 127.063 196.232 128.798 194.519 129.414C194.314 129.488 194.048 129.825 194.069 130.01C194.333 132.256 192.75 132.949 191.098 133.561C190.135 133.917 189.001 133.985 188.186 134.538C186.339 135.788 184.446 134.987 182.581 134.94C180.304 134.885 179.935 134.98 179.35 137.133C178.69 139.555 178.191 142.035 178.117 144.549C178.058 146.606 178.045 148.672 178.172 150.738C178.222 151.56 178.804 151.981 178.922 152.736C179.232 154.718 177.819 155.856 176.967 157.208C175.195 160.013 172.512 161.834 169.55 163.226C169.147 163.415 168.354 163.508 168.041 162.938C167.502 161.967 166.52 161.584 165.677 161.129C161.941 159.116 159.199 156.237 157.293 152.454C156.745 151.369 155.983 150.333 155.028 149.476C154.449 148.956 153.771 148.663 153.169 148.922C152.348 149.281 152.079 150.15 152.231 151.041C152.392 151.978 152.553 152.927 152.869 153.815C153.08 154.406 152.968 154.956 152.996 155.525" stroke="#CBE2D1" stroke-linecap="round" stroke-linejoin="round"/>
<path d="M135.801 77.9049C135.045 77.1008 134.082 76.8132 133.013 76.8256C128.424 76.872 124.778 79.5348 123.194 83.7594C122.262 86.249 122.132 88.6954 122.522 91.1974C122.767 92.7653 124.198 93.9684 124.198 95.6879C124.198 95.9385 124.536 96.0529 124.369 96.4735C123.225 99.3281 124.651 101.929 125.499 104.48C126.33 106.986 127.798 109.262 130.072 110.845" stroke="#CBE2D1" stroke-linecap="round" stroke-linejoin="round"/>
<path d="M144.011 153.367C142.747 151.793 141.616 150.119 141.254 148.103C141.056 147.005 140.383 146.334 139.671 145.638C138.84 144.822 138.196 145.001 137.651 146.096C137.164 147.073 137.229 148.078 137.524 149.034C139.305 154.799 141.39 160.437 144.591 165.611C144.873 166.065 145.059 166.13 145.406 166.038C148.736 165.15 150.196 162.716 149.61 159.24C149.421 158.126 148.907 157.001 149.436 155.841" stroke="#CBE2D1" stroke-linecap="round" stroke-linejoin="round"/>
<path d="M133.786 106.048C133.433 107.131 132.364 107.619 131.751 108.507C130.251 110.681 129.145 113.001 128.839 115.636C128.451 118.994 128.591 122.257 130.189 125.393C131.624 128.204 133.811 130.125 136.587 131.374C138.527 132.247 140.661 132.389 142.762 131.993C143.295 131.894 143.803 131.956 144.317 131.872" stroke="#CBE2D1" stroke-linecap="round" stroke-linejoin="round"/>
<path d="M186.923 135.429C188.522 136.638 189.398 138.213 188.912 140.217C188.283 142.815 186.56 144.454 183.977 145.165C183.626 145.261 183.245 145.357 182.895 145.31C181.792 145.168 181.43 145.858 181.191 146.718C180.776 148.211 180.327 149.699 179.971 151.205C179.834 151.783 179.435 152.009 179.022 152.284" stroke="#CBE2D1" stroke-linecap="round" stroke-linejoin="round"/>
<path d="M123.564 98.1621C122.006 98.6879 121.733 100.138 121.423 101.416C120.159 106.602 121.773 110.929 125.572 114.56C126.386 115.339 127.146 116.165 128.366 116.254" stroke="#CBE2D1" stroke-linecap="round" stroke-linejoin="round"/>
<path d="M195.753 128.78C196.503 129.343 197.37 129.392 198.228 129.231C201.448 128.635 204.633 128.004 206.467 124.772C207.099 123.655 207.282 122.458 207.003 121.37C206.557 119.625 205.357 119.143 203.499 119.663C203.124 119.768 202.774 119.966 202.411 120.12" stroke="#CBE2D1" stroke-linecap="round" stroke-linejoin="round"/>
<path d="M144.786 135.12C146.025 136.125 145.474 137.6 145.654 138.84C145.821 140.003 145.942 141.203 146.013 142.387C146.242 146.108 147.218 149.612 148.966 152.903C149.04 153.045 149.074 153.209 149.124 153.367C150.025 156.172 152.138 158.906 154.855 160.789C157.238 162.441 159.825 163.517 162.756 163.736C164.565 163.872 166.362 164.111 168.023 163.105" stroke="#CBE2D1" stroke-linecap="round" stroke-linejoin="round"/>
<path d="M204.272 89.9664C204.479 89.6571 204.863 89.3479 204.863 89.0386C204.851 85.9521 205.254 82.8346 203.221 80.045C201.477 77.6544 199.302 76.2781 196.371 76.0462C195.875 76.006 195.454 76.1204 195.132 76.5132" stroke="#CBE2D1" stroke-linecap="round" stroke-linejoin="round"/>
<path d="M145.249 166.356C148.818 171.972 154.215 174.422 160.585 175.158C161.224 175.232 161.825 175.294 162.289 175.789" stroke="#CBE2D1" stroke-linecap="round" stroke-linejoin="round"/>
<path d="M151.448 66.6165C150.67 65.6639 149.605 66.1557 148.827 66.3567C144.015 67.6185 140.04 70.1174 137.689 74.6699C137.27 75.4801 136.589 76.4141 137.339 77.5059C140.099 76.0894 142.99 75.61 146.026 76.0461" stroke="#CBE2D1" stroke-linecap="round" stroke-linejoin="round"/>
<path d="M137.04 77.2861C134.713 78.4304 132.455 79.7139 130.546 81.4767C127.659 84.1426 125.67 87.3931 124.644 91.2033C124.449 91.9239 124.198 92.6228 123.718 93.2135" stroke="#CBE2D1" stroke-linecap="round" stroke-linejoin="round"/>
<path d="M204.583 93.3682C204.236 93.7671 203.951 94.2434 204.13 94.7568C205.667 99.0959 205.298 103.416 204.143 107.758C204.003 108.284 203.848 108.801 203.483 109.129C201.819 110.619 200.933 112.852 198.857 113.95C198.65 114.058 198.495 114.33 198.392 114.559C196.964 117.785 194.764 120.38 192.06 122.628C191.102 123.423 190.182 124.001 188.937 123.989" stroke="#CBE2D1" stroke-linecap="round" stroke-linejoin="round"/>
<path d="M186.923 78.6781C186.219 77.4596 186.96 76.2998 187.093 75.1246C187.437 72.069 185.414 68.8866 182.585 68.166C180.55 67.6465 178.567 67.9062 176.708 68.8031C174.898 69.6753 174.4 69.6227 173.123 68.1753C172.5 67.4702 171.995 66.5516 170.809 66.6042C170.319 66.6259 169.895 66.6908 169.569 67.0805" stroke="#CBE2D1" stroke-linecap="round" stroke-linejoin="round"/>
<path d="M138.9 116.254C137.952 116.381 136.803 115.84 136.127 116.882C135.111 118.453 134.829 120.228 135.517 121.967C136.917 125.514 139.318 128.099 143.08 129.256C143.467 129.377 143.808 129.655 144.167 129.862C145.772 130.787 147.609 130.623 148.783 129.216C149.465 128.402 150.444 127.846 150.844 126.773C151.172 125.888 152.021 125.761 152.833 125.498C154.205 125.056 155.693 124.608 155.786 122.746" stroke="#CBE2D1" stroke-linecap="round" stroke-linejoin="round"/>
<path d="M187.077 73.8843C189.041 74.2647 191.058 74.4904 192.663 75.8853C192.862 76.0584 193.174 76.1945 193.429 76.1883C194.522 76.1605 195.117 76.8254 195.774 77.577C196.902 78.8666 198.321 79.8934 199.309 81.3129C201.025 83.784 202.494 86.3819 203.2 89.3478C203.265 89.6261 203.498 89.8673 203.653 90.124" stroke="#CBE2D1" stroke-linecap="round" stroke-linejoin="round"/>
<path d="M161.518 123.213C159.504 125.384 157.372 127.425 154.695 128.764C153.242 129.491 151.628 129.788 150.054 130.171C149.45 130.32 148.991 129.961 148.505 129.708" stroke="#CBE2D1" stroke-linecap="round" stroke-linejoin="round"/>
<path d="M135.336 84.2446C132.675 84.2756 130.772 85.7353 129.499 87.8291C128.294 89.8084 127.479 92.029 127.587 94.4505C127.597 94.6608 127.69 94.9083 127.439 95.0691C125.936 96.0247 126.856 97.1381 127.299 98.1556C127.975 99.6989 128.142 101.394 129.236 102.847C130.379 104.372 131.826 105.157 133.489 105.717C134.568 106.082 135.463 105.278 136.424 104.956C138.543 104.248 140.021 102.609 141.718 101.134C142.831 102.445 144.591 100.948 145.721 102.179" stroke="#CBE2D1" stroke-linecap="round" stroke-linejoin="round"/>
<path d="M143.856 137.594C143.775 136.774 144.02 136.013 142.963 135.37C141.166 134.275 140.119 134.984 139.369 136.672C138.297 139.088 139.252 142.431 141.377 143.856C141.52 143.952 141.709 144.107 141.836 144.076C143.493 143.665 144.423 145.313 145.866 145.483" stroke="#CBE2D1" stroke-linecap="round" stroke-linejoin="round"/>
<path d="M166.318 64.2968C165.172 64.1669 164.382 63.2391 163.226 63.0319C159.561 62.3731 156.416 63.1742 153.395 65.4473C152.153 66.3813 151.289 67.4019 150.526 68.6328C150.173 69.2049 149.935 69.8266 150.365 70.4853" stroke="#CBE2D1" stroke-linecap="round" stroke-linejoin="round"/>
<path d="M137.815 84.7085C141.756 86.1621 143.569 91.9207 140.449 95.8422" stroke="#CBE2D1" stroke-linecap="round" stroke-linejoin="round"/>
<path d="M151.757 106.512C153.256 108.018 154.852 106.933 156.401 106.648C156.788 106.577 157.049 106.116 157.609 106.104C160.24 109.407 161.2 113.18 159.76 117.321C159.304 118.633 158.87 119.832 159.193 121.206" stroke="#CBE2D1" stroke-linecap="round" stroke-linejoin="round"/>
<path d="M186.767 79.606C187.219 80.2678 188.018 80.1193 188.638 80.3451C192.396 81.7152 194.989 84.1924 196.377 87.9532C197.645 91.3861 198.15 94.788 196.216 98.1622" stroke="#CBE2D1" stroke-linecap="round" stroke-linejoin="round"/>
<path d="M172.515 116.718C173.825 119.273 174.866 121.97 176.84 124.153C177.748 125.158 179.095 125.737 179.641 127.079" stroke="#CBE2D1" stroke-linecap="round" stroke-linejoin="round"/>
<path d="M168.332 83.0078C167.152 83.883 167.294 85.1634 167.238 86.4098C167.124 88.9365 166.616 91.454 167.217 93.9962C167.319 94.4261 167.576 94.7044 167.716 95.0693" stroke="#CBE2D1" stroke-linecap="round" stroke-linejoin="round"/>
<path d="M162.136 123.213C164.385 125.167 166.656 127.048 169.881 127.097C170.65 127.11 171.272 127.722 171.554 128.328C173.042 131.517 175.613 133.32 178.863 134.359C179.359 134.517 179.796 134.86 180.26 135.12" stroke="#CBE2D1" stroke-linecap="round" stroke-linejoin="round"/>
<path d="M142.153 122.749C142.59 124.722 145.187 126.123 147.42 126.306C148.557 126.398 149.735 126.043 150.828 126.615" stroke="#CBE2D1" stroke-linecap="round" stroke-linejoin="round"/>
<path d="M144.167 84.7085C141.673 87.761 144.201 94.0763 148.66 93.9866C148.867 93.9835 149.09 93.934 149.276 93.9959C149.791 94.1629 150.227 95.0257 150.801 94.4227C151.377 93.8134 151.95 93.0897 151.916 92.131C151.863 90.7269 152.666 89.5609 153.038 88.2775C153.363 87.161 154.481 87.5445 155.324 87.4919" stroke="#CBE2D1" stroke-linecap="round" stroke-linejoin="round"/>
<path d="M167.093 47.1323C167.238 50.1199 168.252 52.9219 168.893 55.9805C168.221 56.7661 167.338 57.6073 166.761 58.7207C165.77 60.6381 166.408 62.534 166.616 64.4545C166.702 65.2586 167.446 65.4256 167.895 65.8122C168.85 66.6287 169.705 67.3709 169.664 68.7843C169.618 70.4606 170.628 71.7564 171.43 73.1141" stroke="#CBE2D1" stroke-linecap="round" stroke-linejoin="round"/>
<path d="M180.88 135.12C181.654 136.737 180.762 138.806 182.274 140.223C181.887 141.274 182.054 142.459 181.5 143.47" stroke="#CBE2D1" stroke-linecap="round" stroke-linejoin="round"/>
<path d="M201.794 111.77C202.999 112.958 202.295 114.448 202.376 115.794C202.453 117.071 202.088 118.336 202.199 119.663C202.305 120.897 201.53 122.022 200.849 123.049C200.049 124.252 199.457 125.709 197.763 125.996" stroke="#CBE2D1" stroke-linecap="round" stroke-linejoin="round"/>
<path d="M170.19 93.832C170.977 95.5856 170.246 97.3453 170.137 99.0865C170.069 100.181 170.277 101.165 170.5 102.182" stroke="#CBE2D1" stroke-linecap="round" stroke-linejoin="round"/>
<path d="M167.714 118.729C168.55 121.509 169.567 124.237 170.192 127.079" stroke="#CBE2D1" stroke-linecap="round" stroke-linejoin="round"/>
<path d="M145.716 82.2344C143.99 83.6787 144.102 83.623 145.065 85.4972C146.069 87.4518 146.453 89.6105 146.503 91.8217C146.512 92.2918 146.116 92.5145 146.026 92.9042" stroke="#CBE2D1" stroke-linecap="round" stroke-linejoin="round"/>
<path d="M177.008 113.316C173.262 116.202 169.346 118.741 164.46 119.177C163.741 119.242 163.308 119.653 162.924 120.13C162.146 121.085 161.21 121.552 159.968 121.364C159.717 121.326 159.398 121.261 159.203 121.373C157.337 122.446 155.348 122.604 153.31 122.115C151.603 121.707 149.967 122.14 148.359 122.48C146.274 122.919 144.226 122.217 142.141 122.508C141.574 122.588 140.691 121.812 140.44 120.897C140.058 119.496 139.544 118.129 139.228 116.715C138.875 115.126 139.175 113.514 139.389 111.931C139.467 111.365 139.581 110.864 139.206 110.381" stroke="#CBE2D1" stroke-linecap="round" stroke-linejoin="round"/>
<path d="M135.956 87.0284C135.355 86.9263 134.871 87.1861 134.571 87.6531C133.267 89.685 132.238 91.8283 132.083 94.2962C131.993 95.7127 132.427 96.9745 133.158 98.1683C133.397 98.558 133.84 98.858 133.787 99.3992" stroke="#CBE2D1" stroke-linecap="round" stroke-linejoin="round"/>
<path d="M196.217 88.1108C195.718 88.5902 195.092 88.3985 194.513 88.4139C193.605 88.4356 192.731 88.4263 192.012 89.1716C191.737 89.4593 191.173 89.6943 190.801 89.6263C187.83 89.085 187.328 92.0911 185.528 93.2138C185.546 94.7601 184.902 96.3714 185.72 97.8312C186.048 98.4219 186.144 98.9291 185.819 99.3837C184.623 101.066 184.199 103.015 183.864 104.969C183.746 105.656 183.591 106.259 183.204 106.819" stroke="#CBE2D1" stroke-linecap="round" stroke-linejoin="round"/>
<path d="M165.854 78.6781C164.367 76.8751 162.167 76.4452 160.119 75.7524C158.669 75.2607 157.129 74.7288 155.649 75.3195C154.366 75.8298 152.854 75.5792 151.723 76.6308C151.432 76.9029 150.704 76.5751 150.208 76.8225" stroke="#CBE2D1" stroke-linecap="round" stroke-linejoin="round"/>
<path d="M178.402 90.2756C177.246 90.1642 176.369 90.8261 175.461 91.3642C173.996 92.2363 172.49 92.9631 170.814 93.3868C167.933 94.1136 166.867 96.2816 167.855 99.0929C168.174 99.999 168.382 100.945 168.639 101.873" stroke="#CBE2D1" stroke-linecap="round" stroke-linejoin="round"/>
<path d="M149.434 78.8325C148.148 79.2469 146.645 79.3304 146.038 80.849C145.846 81.3314 145.722 81.8448 146.016 82.3953C147.544 85.2839 149.753 87.322 152.997 88.1106" stroke="#CBE2D1" stroke-linecap="round" stroke-linejoin="round"/>
<path d="M157.334 106.048C156.11 104.555 154.691 103.311 152.841 102.649C151.94 102.328 151.267 102.85 151.648 103.71C152.091 104.712 151.819 105.501 151.366 106.361C150.933 106.407 150.369 106.345 149.907 106.534C148.541 107.097 148.206 109.246 149.281 110.375C151.763 112.979 152.491 116.245 152.838 119.656C152.915 120.426 152.946 121.203 152.996 121.976" stroke="#CBE2D1" stroke-linecap="round" stroke-linejoin="round"/>
<path d="M164.615 80.0694C162.613 79.6055 160.953 80.6199 159.379 81.5168C158.27 82.1477 156.95 82.6766 156.38 84.0807C155.949 85.1414 156.268 86.3878 155.497 87.3558C155.435 87.43 155.642 87.7857 155.791 87.9527C157.225 89.5609 157.613 91.6856 158.582 93.5196C158.679 93.7051 158.886 93.8319 159.041 93.9866" stroke="#CBE2D1" stroke-linecap="round" stroke-linejoin="round"/>
<path d="M194.048 129.862C191.96 129.643 189.887 129.315 188.174 127.991C187.275 127.298 186.42 127.864 185.878 128.223C184.803 128.935 183.985 128.461 183.219 127.979C181.804 127.088 180.394 126.937 178.863 127.54C177.912 127.914 176.908 127.803 175.92 127.861C174.526 127.942 173.107 127.592 171.737 128.084" stroke="#CBE2D1" stroke-linecap="round" stroke-linejoin="round"/>
<path d="M185.218 97.5434C184.754 97.5434 184.289 97.5526 183.824 97.5434C181.609 97.4908 180.729 98.1588 180.596 100.33C180.438 102.872 178.712 104.425 177.138 106.027C175.168 108.034 172.748 109.33 169.882 109.593C169.374 109.639 168.85 109.503 168.333 109.453" stroke="#CBE2D1" stroke-linecap="round" stroke-linejoin="round"/>
<path d="M186.768 73.7296C184.701 73.5316 182.641 73.4976 180.568 73.7079C179.571 73.81 178.886 74.1656 178.558 75.1213" stroke="#CBE2D1" stroke-linecap="round" stroke-linejoin="round"/>
<path d="M186.147 99.3989C188.499 102.158 190.643 102.529 194.228 100.778C195.966 101.694 196.682 103.497 197.732 104.991C198.193 105.649 198.001 106.426 197.329 107.155C195.17 109.497 192.855 111.665 190.488 113.78" stroke="#CBE2D1" stroke-linecap="round" stroke-linejoin="round"/>
<path d="M185.218 114.863C186.445 114.461 187.808 114.634 188.973 113.833C189.298 113.607 190.06 113.638 190.661 114.062C192.043 115.03 193.732 115.079 195.275 114.792C196.275 114.606 197.146 114.606 198.075 114.863" stroke="#CBE2D1" stroke-linecap="round" stroke-linejoin="round"/>
<path d="M160.277 87.1827C160.01 86.3662 160.528 85.8033 160.89 85.1693C161.937 83.3261 163.71 82.0705 164.816 80.2519C165.228 79.5746 166.253 79.5685 167.09 79.6118C166.662 81.8107 165.169 83.5457 164.435 85.6301C163.403 88.5527 161.033 90.7609 159.964 93.6804" stroke="#CBE2D1" stroke-linecap="round" stroke-linejoin="round"/>
<path d="M169.573 70.1729C168.036 72.1491 166.196 73.547 163.531 73.5965C162.341 73.6181 161.149 73.847 159.971 74.0542C159.324 74.1686 158.54 74.1934 158.419 75.1212" stroke="#CBE2D1" stroke-linecap="round" stroke-linejoin="round"/>
<path d="M189.091 97.2342C191.538 95.9384 193.782 96.7703 195.895 98.0291C197.58 99.0342 198.475 100.902 199.99 102.13C200.322 102.399 200.183 103.209 199.91 103.376C199.142 103.843 198.962 104.913 197.998 105.121" stroke="#CBE2D1" stroke-linecap="round" stroke-linejoin="round"/>
<path d="M172.204 80.8428C172.219 82.9273 172.083 84.9901 171.618 87.0374C171.482 87.6405 171.215 88.0395 170.81 88.4199" stroke="#CBE2D1" stroke-linecap="round" stroke-linejoin="round"/>
<path d="M139.054 104.038C139.438 104.783 139.035 105.387 138.759 106.055C138.096 107.653 136.622 108.977 137.136 111.012C137.213 111.315 136.804 111.971 136.544 112.37C135.671 113.709 135.543 114.968 136.575 116.254" stroke="#CBE2D1" stroke-linecap="round" stroke-linejoin="round"/>
<path d="M197.921 93.0591C200.059 94.0085 201.462 96.0157 201.93 97.8961C202.5 100.182 203.752 102.575 202.884 105.124C202.822 105.309 202.965 105.628 202.863 105.727C201.502 107.023 202.209 108.591 202.255 110.072" stroke="#CBE2D1" stroke-linecap="round" stroke-linejoin="round"/>
<path d="M160.742 102.801C159.36 101.143 159.078 99.0621 158.588 97.0766C158.263 95.756 159.202 93.8014 160.125 93.687C160.33 93.6622 160.534 93.7365 160.751 93.8076C162.811 94.4849 164.949 94.5189 167.093 94.4509" stroke="#CBE2D1" stroke-linecap="round" stroke-linejoin="round"/>
<path d="M166.783 65.0703C165.23 66.1466 163.328 65.5404 161.658 66.1218C161.116 66.3105 160.484 66.2115 160.276 66.9259" stroke="#CBE2D1" stroke-linecap="round" stroke-linejoin="round"/>
<path d="M197.767 106.976C199.186 108.386 198.423 110.168 198.479 111.773C198.504 112.5 198.458 113.155 198.851 113.78" stroke="#CBE2D1" stroke-linecap="round" stroke-linejoin="round"/>
<path d="M189.866 130.017C188.983 130.808 187.806 130.876 186.759 131.04C185.541 131.229 184.444 131.77 183.223 131.974C182.006 132.178 181.343 133.524 181.036 134.81" stroke="#CBE2D1" stroke-linecap="round" stroke-linejoin="round"/>
<path d="M192.653 76.2036C191.81 77.085 190.602 77.1964 189.542 77.5644C187.374 78.3159 185.772 80.0231 183.662 80.8303C183.033 81.0715 183.027 81.6437 182.918 82.0859C182.587 83.4405 182.088 84.5756 181.097 85.692C179.458 87.5384 178.417 89.7682 178.652 92.4434C178.717 93.1856 178.191 93.9712 177.515 94.6485C176.31 95.8577 175.142 97.203 174.705 98.938C174.578 99.4391 174.265 99.6092 173.918 99.8751C173.162 100.45 172.391 101.035 171.762 101.737C171.207 102.355 170.665 102.739 169.887 102.325C168.958 101.83 168 101.987 167.099 102.207C165.308 102.64 163.465 102.142 161.643 102.714C160.85 102.962 160.354 103.323 160.174 103.899C159.995 104.465 159.88 105.263 160.586 105.736C162.544 107.05 163.341 109.15 164.31 111.145C165.336 113.251 165.952 115.32 164.478 117.504C164.202 117.912 163.911 118.453 164.146 119.034" stroke="#CBE2D1" stroke-linecap="round" stroke-linejoin="round"/>
<path d="M172.979 109.141C175.96 112.985 179.954 114.696 184.753 114.708" stroke="#CBE2D1" stroke-linecap="round" stroke-linejoin="round"/>
<path d="M183.05 108.059C183.264 110.412 184.295 112.521 185.064 114.708" stroke="#CBE2D1" stroke-linecap="round" stroke-linejoin="round"/>
<path d="M156.558 67.2352C158.717 66.295 160.511 67.0496 162.131 68.4754C164.886 70.9031 166.717 73.7824 166.98 77.5926C167.116 79.5441 168.043 81.3503 168.796 83.1626C170.01 86.0852 171.249 89.0016 170.357 92.2891C170.267 92.6262 170.345 93.0066 170.345 93.3685" stroke="#CBE2D1" stroke-linecap="round" stroke-linejoin="round"/>
<path d="M171.431 109.605C171.74 111.788 171.79 114.024 172.67 116.1" stroke="#CBE2D1" stroke-linecap="round" stroke-linejoin="round"/>
<path d="M150.517 80.2241C150.021 81.2664 150.867 82.0024 151.158 82.8467C151.632 84.223 152.119 85.6178 153.15 86.7188" stroke="#CBE2D1" stroke-linecap="round" stroke-linejoin="round"/>
<path d="M154.7 112.388C155.939 114.398 157.176 116.412 158.424 118.416C158.536 118.595 158.728 118.728 158.883 118.883" stroke="#CBE2D1" stroke-linecap="round" stroke-linejoin="round"/>
<path d="M204.117 90.3528C203.373 90.9373 202.806 90.8847 201.911 90.3373C200.492 89.4713 199.02 88.4044 197.146 88.7291" stroke="#CBE2D1" stroke-linecap="round" stroke-linejoin="round"/>
<path d="M183.823 107.75C184.988 108.699 185.264 110.248 186.277 111.331C187.079 112.188 188.279 112.633 188.78 113.78" stroke="#CBE2D1" stroke-linecap="round" stroke-linejoin="round"/>
<path d="M135.492 117.801C133.301 117.736 131.136 117.439 128.985 117.027" stroke="#CBE2D1" stroke-linecap="round" stroke-linejoin="round"/>
<path d="M151.911 77.1318C152.221 77.5432 152.444 78.1029 152.856 78.3442C154.771 79.4699 155.595 81.4245 156.713 83.1626" stroke="#CBE2D1" stroke-linecap="round" stroke-linejoin="round"/>
<path d="M151.448 114.089C150.518 114.501 149.62 115.033 148.65 115.292C147.659 115.558 146.745 116.23 145.496 115.425C144.886 115.033 143.591 115.654 142.618 115.877C141.441 116.146 140.26 116.298 139.052 116.254" stroke="#CBE2D1" stroke-linecap="round" stroke-linejoin="round"/>
<path d="M195.443 118.265C194.055 117.117 192.707 117.968 191.427 118.447C190.2 118.908 189.553 120.185 188.472 120.893" stroke="#CBE2D1" stroke-linecap="round" stroke-linejoin="round"/>
<path d="M180.57 78.9873C178.733 79.5007 176.704 79.2873 175.015 80.2615C174.117 80.7811 173.079 80.9419 172.403 80.5986C171.623 80.2027 170.792 80.1192 170.027 79.7759C169.497 79.5378 168.899 79.4512 168.329 79.2966" stroke="#CBE2D1" stroke-linecap="round" stroke-linejoin="round"/>
<path d="M135.647 78.2139C136.558 79.6427 135.34 80.9695 135.421 82.3921C135.474 83.3292 135.356 84.1735 136.112 84.8632" stroke="#CBE2D1" stroke-linecap="round" stroke-linejoin="round"/>
<path d="M148.349 108.058C147.838 108.148 147.407 108.532 146.791 108.232C144.957 107.335 143.089 107.898 141.217 108.188C140.536 108.293 140.052 108.726 139.873 109.159C139.383 110.344 138.317 110.567 137.351 110.996" stroke="#CBE2D1" stroke-linecap="round" stroke-linejoin="round"/>
<path d="M146.489 116.1C146.805 117.844 147.905 119.112 149.138 120.259C149.677 120.76 150.269 121.193 150.672 121.821" stroke="#CBE2D1" stroke-linecap="round" stroke-linejoin="round"/>
<path d="M156.25 67.5444C154.444 68.5248 152.634 69.5021 150.828 70.4794C150.788 70.5011 150.698 70.4608 150.679 70.4856C149.415 72.0536 147.522 73.0154 146.487 74.8092C146.224 75.2638 145.979 75.6937 146.336 76.204" stroke="#CBE2D1" stroke-linecap="round" stroke-linejoin="round"/>
<path d="M174.528 80.688C174.758 81.3622 175.38 81.69 175.935 81.8941C177.531 82.4849 178.702 83.6941 180.105 84.5539" stroke="#CBE2D1" stroke-linecap="round" stroke-linejoin="round"/>
<path d="M127.745 94.7598C129.242 94.6361 130.726 94.2742 132.238 94.4567C134.062 94.6794 135.94 94.8711 137.182 96.47C137.91 97.404 138.586 98.4185 137.802 99.7731C136.832 99.8782 135.723 99.937 134.555 99.7483C133.189 99.5287 131.785 100.039 130.366 99.5937C129.567 99.3432 128.864 98.5916 127.9 98.9349" stroke="#CBE2D1" stroke-linecap="round" stroke-linejoin="round"/>
<path d="M150.517 98.7803C149.235 98.7308 148.129 99.6277 146.796 99.4205C146.121 99.3153 145.439 99.3463 144.94 98.7803" stroke="#CBE2D1" stroke-linecap="round" stroke-linejoin="round"/>
<path d="M183.668 107.518C181.025 108.51 179.895 111.127 177.937 112.852" stroke="#CBE2D1" stroke-linecap="round" stroke-linejoin="round"/>
<path d="M140.757 80.8428C139.784 81.8324 138.956 83.0417 137.919 83.8736C135.558 85.7602 136.177 88.2065 136.518 90.4147C136.788 92.1651 136.326 93.7301 136.264 95.3785" stroke="#CBE2D1" stroke-linecap="round" stroke-linejoin="round"/>
<path d="M146.335 76.3586C146.955 76.3122 147.568 76.3586 148.2 76.2287C149.926 75.873 150.511 76.5998 149.898 78.2142C149.817 78.4276 149.703 78.6317 149.483 79.0956C151.748 80.3791 154.18 81.6285 155.323 84.2449" stroke="#CBE2D1" stroke-linecap="round" stroke-linejoin="round"/>
<path d="M182.118 85.1729C183.711 86.444 183.596 88.4573 184.287 90.1212" stroke="#CBE2D1" stroke-linecap="round" stroke-linejoin="round"/>
<path d="M167.869 109.76C167.767 110.48 167.674 111.204 167.556 111.925C167.367 113.1 166.871 114.065 165.7 114.553" stroke="#CBE2D1" stroke-linecap="round" stroke-linejoin="round"/>
<path d="M186.302 98.1619C187.488 97.7258 188.514 97.5403 189.753 98.4093C191.002 99.2845 192.805 99.3093 193.738 100.791" stroke="#CBE2D1" stroke-linecap="round" stroke-linejoin="round"/>
<path d="M151.758 102.646C150.311 101.61 148.492 101.403 146.98 101.694C145.623 101.954 144.536 103.42 143.219 104.162C141.989 104.858 141.555 106.045 140.908 107.128C140.709 107.456 140.889 107.749 140.914 108.059" stroke="#CBE2D1" stroke-linecap="round" stroke-linejoin="round"/>
<path d="M191.88 89.6572C193.519 90.4953 195.192 91.2407 196.992 91.6675" stroke="#CBE2D1" stroke-linecap="round" stroke-linejoin="round"/>
<path d="M130.38 111.46C131.991 112.602 133.484 113.944 135.492 114.399" stroke="#CBE2D1" stroke-linecap="round" stroke-linejoin="round"/>
<path d="M187.697 125.378C185.807 125.39 184.19 126.213 182.585 127.079" stroke="#CBE2D1" stroke-linecap="round" stroke-linejoin="round"/>
<path d="M183.823 90.7393C182.296 90.7671 181.227 91.8464 179.963 92.465C179.566 92.6598 179.272 92.8454 178.866 92.5949" stroke="#CBE2D1" stroke-linecap="round" stroke-linejoin="round"/>
<path d="M143.237 104.502C144.092 105.39 145.242 105.776 146.348 106.172C146.992 106.401 147.6 106.59 148.04 107.131" stroke="#CBE2D1" stroke-linecap="round" stroke-linejoin="round"/>
<path d="M184.134 92.4404C183.276 93.928 183.013 95.6074 182.585 97.2341" stroke="#CBE2D1" stroke-linecap="round" stroke-linejoin="round"/>
<path d="M136.11 118.419C136.953 119.387 137.7 120.435 138.886 121.072C139.416 121.357 139.875 121.546 140.448 121.357" stroke="#CBE2D1" stroke-linecap="round" stroke-linejoin="round"/>
<path d="M146.024 102.646C147.697 103.519 149.191 104.564 149.742 106.512" stroke="#CBE2D1" stroke-linecap="round" stroke-linejoin="round"/>
<path d="M180.415 102.646C180.623 102.903 180.92 103.132 181.019 103.426C181.527 104.926 182.268 106.283 183.358 107.44" stroke="#CBE2D1" stroke-linecap="round" stroke-linejoin="round"/>
<path d="M190.95 124.295C192.251 125.532 193.791 126.148 195.598 126.166C196.115 126.173 196.629 126.358 197.147 126.46" stroke="#CBE2D1" stroke-linecap="round" stroke-linejoin="round"/>
<path d="M176.079 69.709C177.297 71.0481 178.375 72.48 179.022 74.1934" stroke="#CBE2D1" stroke-linecap="round" stroke-linejoin="round"/>
<path d="M181.655 79.915C180.409 79.1109 180.338 77.58 179.514 76.4913C177.955 74.4316 176.967 74.1533 174.668 75.0811C173.612 75.5048 172.589 76.346 171.272 75.9099C170.814 75.7584 170.606 76.2687 170.358 76.5254C169.401 77.5274 168.487 78.5758 167.558 79.6057" stroke="#CBE2D1" stroke-linecap="round" stroke-linejoin="round"/>
<path d="M158.108 107.286C156.423 109.914 154.39 112.209 151.757 113.935" stroke="#CBE2D1" stroke-linecap="round" stroke-linejoin="round"/>
<path d="M167.093 114.089C168.032 115.41 167.474 117 167.867 118.419" stroke="#CBE2D1" stroke-linecap="round" stroke-linejoin="round"/>
<path d="M147.108 108.522C146.711 109.942 145.72 111.173 146.247 112.88C146.433 113.486 145.612 114.399 145.249 115.172" stroke="#CBE2D1" stroke-linecap="round" stroke-linejoin="round"/>
<path d="M185.063 135.429C184.133 136.873 183.204 138.315 182.274 139.759" stroke="#CBE2D1" stroke-linecap="round" stroke-linejoin="round"/>
<path d="M180.648 98.7803C179.232 97.5927 177.822 98.3349 176.574 98.9937C175.936 99.3308 175.468 99.4668 174.839 99.2442" stroke="#CBE2D1" stroke-linecap="round" stroke-linejoin="round"/>
<path d="M171.741 76.2036C172.293 77.5087 171.961 78.8819 172.051 80.2241" stroke="#CBE2D1" stroke-linecap="round" stroke-linejoin="round"/>
<path d="M167.248 98.1621C165.813 99.1301 165.008 100.602 164.149 102.028" stroke="#CBE2D1" stroke-linecap="round" stroke-linejoin="round"/>
<path d="M170.657 104.966C171.494 106.122 171.537 107.561 172.051 108.832" stroke="#CBE2D1" stroke-linecap="round" stroke-linejoin="round"/>
<path d="M155.63 89.8115C154.726 90.2476 154.323 91.194 153.604 91.8063C153.173 92.1743 152.935 93.0341 152.067 92.595" stroke="#CBE2D1" stroke-linecap="round" stroke-linejoin="round"/>
<path d="M169.572 105.584C168.627 106.701 168.648 108.204 168.022 109.45" stroke="#CBE2D1" stroke-linecap="round" stroke-linejoin="round"/>
<path d="M146.491 79.9149C146.438 79.8623 146.388 79.8098 146.336 79.7603C144.629 78.149 144.201 78.1397 142.305 79.5995C141.955 79.8685 141.812 80.4376 141.224 80.3788" stroke="#CBE2D1" stroke-linecap="round" stroke-linejoin="round"/>
<path d="M149.898 94.7598C149.43 95.2762 148.795 95.5268 148.212 95.8731C146.985 96.6061 145.288 96.7236 144.752 98.4586C144.6 98.9504 143.974 98.9411 143.55 98.6164C142.639 97.9205 141.495 97.5463 140.755 96.6123" stroke="#CBE2D1" stroke-linecap="round" stroke-linejoin="round"/>
<path d="M154.235 156.459C153.042 155.59 151.555 155.142 150.638 153.855C150.474 153.626 149.848 153.728 149.433 153.676" stroke="#CBE2D1" stroke-linecap="round" stroke-linejoin="round"/>
<path d="M163.995 85.9458C163.583 85.9984 163.038 85.8994 162.778 86.1252C161.285 87.4303 159.11 87.6251 157.808 89.1993C157.579 89.4777 157.319 89.49 157.024 89.5024" stroke="#CBE2D1" stroke-linecap="round" stroke-linejoin="round"/>
<path d="M152.997 107.595C152.985 108.968 153.908 109.973 154.391 111.151" stroke="#CBE2D1" stroke-linecap="round" stroke-linejoin="round"/>
<path d="M188.007 90.1209C186.793 89.722 185.213 89.9044 183.979 90.5848C184.125 91.59 184.255 92.6013 185.374 93.059" stroke="#CBE2D1" stroke-linecap="round" stroke-linejoin="round"/>
<path d="M137.04 92.5952C138.475 93.1705 138.552 94.9704 139.828 95.6879" stroke="#CBE2D1" stroke-linecap="round" stroke-linejoin="round"/>
<path d="M177.937 94.6055C178.909 95.5364 178.801 96.86 179.176 98.0074" stroke="#CBE2D1" stroke-linecap="round" stroke-linejoin="round"/>
<path d="M155.011 95.1465C156.086 95.6537 156.941 96.6557 158.264 96.6155" stroke="#CBE2D1" stroke-linecap="round" stroke-linejoin="round"/>
<path d="M148.968 72.8018C149.581 73.8347 149.147 74.9697 149.278 76.0491" stroke="#CBE2D1" stroke-linecap="round" stroke-linejoin="round"/>
<path d="M200.245 103.729C201.252 104.518 200.983 106.011 201.949 106.822" stroke="#CBE2D1" stroke-linecap="round" stroke-linejoin="round"/>
<path d="M152.841 122.285C152.546 123.358 151.809 124.326 152.066 125.532" stroke="#CBE2D1" stroke-linecap="round" stroke-linejoin="round"/>
<path d="M174.064 69.3999C173.785 70.3896 173.878 71.2462 174.665 72.0473C175.278 72.672 175.718 73.4699 176.233 74.1936" stroke="#CBE2D1" stroke-linecap="round" stroke-linejoin="round"/>
<path d="M152.222 96.1519C150.5 97.859 151.157 100.005 151.138 102.028" stroke="#CBE2D1" stroke-linecap="round" stroke-linejoin="round"/>
<path d="M137.659 77.5957C138.691 78.3689 139.726 79.142 140.757 79.9152" stroke="#CBE2D1" stroke-linecap="round" stroke-linejoin="round"/>
<path d="M203.963 94.7598C202.901 95.3938 203.034 96.8226 202.104 97.5432" stroke="#CBE2D1" stroke-linecap="round" stroke-linejoin="round"/>
<path d="M171.896 81.4614C170.675 81.5078 169.873 82.4851 168.798 82.8531" stroke="#CBE2D1" stroke-linecap="round" stroke-linejoin="round"/>
<path d="M184.598 128.78C184.617 129.463 184.05 129.76 183.663 130.165C183.235 130.614 182.941 131.078 183.204 131.718" stroke="#CBE2D1" stroke-linecap="round" stroke-linejoin="round"/>
<path d="M141.688 80.688C142.677 81.5106 143.216 82.757 144.322 83.4714" stroke="#CBE2D1" stroke-linecap="round" stroke-linejoin="round"/>
<path d="M156.56 91.9766C156.405 92.1312 156.192 92.258 156.105 92.4436C155.274 94.2146 153.99 95.4136 152.251 96.0404C151.854 95.5888 151.417 95.0971 150.983 94.6023" stroke="#CBE2D1" stroke-linecap="round" stroke-linejoin="round"/>
<path d="M148.813 110.533C148.119 111.386 147.614 112.429 146.489 112.852" stroke="#CBE2D1" stroke-linecap="round" stroke-linejoin="round"/>
<path d="M173.754 70.9463C172.282 72.2205 170.867 73.5225 171.121 75.74" stroke="#CBE2D1" stroke-linecap="round" stroke-linejoin="round"/>
<path d="M201.949 99.7085C201.168 100.262 200.877 101.202 200.245 101.873" stroke="#CBE2D1" stroke-linecap="round" stroke-linejoin="round"/>
<path d="M155.63 104.657C154.561 105.541 153.208 104.799 152.067 105.275" stroke="#CBE2D1" stroke-linecap="round" stroke-linejoin="round"/>
</svg>
