<svg width="8" height="13" viewBox="0 0 8 13" fill="none" xmlns="http://www.w3.org/2000/svg">
<path d="M0.359478 0.624625C0.433465 0.55045 0.521359 0.491601 0.618125 0.451447C0.714891 0.411294 0.818629 0.390625 0.923396 0.390625C1.02816 0.390625 1.1319 0.411294 1.22867 0.451447C1.32543 0.491601 1.41333 0.55045 1.48731 0.624625L6.78241 5.91972C6.84148 5.97867 6.88834 6.04869 6.92032 6.12577C6.95229 6.20285 6.96875 6.28549 6.96875 6.36894C6.96875 6.45239 6.95229 6.53502 6.92032 6.61211C6.88834 6.68919 6.84148 6.75921 6.78241 6.81816L1.48731 12.1133C1.17509 12.4255 0.671703 12.4255 0.359478 12.1133C0.0472517 11.801 0.0472517 11.2976 0.359478 10.9854L4.97277 6.36575L0.353106 1.74609C0.0472527 1.44023 0.0472517 0.930479 0.359478 0.624625Z" fill="#CBE2D1" stroke="#CBE2D1" stroke-width="0.2"/>
</svg>
