<svg width="102" height="102" viewBox="0 0 102 102" fill="none" xmlns="http://www.w3.org/2000/svg">
<path d="M49.8097 94.7775C74.5452 94.7775 93.6724 75.7683 94.2627 51.328C94.3218 47.6088 95.3844 46.0739 97.8048 46.1329C100.284 46.1329 101.406 47.904 101.347 51.6822C100.875 77.1851 82.2787 98.2015 57.0709 101.566C28.6753 105.345 2.34583 83.9741 0.161553 55.2833C-1.96369 28.0093 17.1045 4.3364 44.0833 0.735292C54.0602 -0.56347 63.6238 0.971431 72.6561 5.39903C75.1355 6.63876 75.962 8.82304 74.7223 10.7712C73.6597 12.4241 71.8296 12.8374 69.7043 11.8338C64.8635 9.53145 59.8456 8.11462 54.4734 7.52427C32.6306 5.22192 11.4962 21.2203 7.77702 42.945C3.46749 67.9757 19.8201 90.7041 44.9098 94.3642C46.7989 94.6594 48.688 94.6594 49.8097 94.7775Z" fill="#CBE2D1"/>
<path d="M49.7499 58.7077C50.4583 58.0583 51.0486 57.527 51.58 56.9366C65.7483 42.9454 79.9166 29.0133 94.0849 15.0221C94.6752 14.4317 95.2065 13.8414 95.915 13.4281C97.5089 12.5426 99.1028 12.6607 100.343 14.0185C101.582 15.3763 101.7 16.9112 100.638 18.4461C100.284 18.9774 99.7522 19.4497 99.2799 19.9219C84.049 34.9167 68.8181 49.9115 53.5871 64.9063C50.3993 68.0352 49.1595 68.0352 45.9126 64.8473C39.2417 58.2354 32.5118 51.6235 25.7818 45.0117C25.3686 44.5984 24.8963 44.1852 24.5421 43.7719C23.2433 42.2961 23.2433 40.2889 24.424 38.9311C25.7228 37.5143 27.789 37.3962 29.3829 38.6359C30.0323 39.1082 30.5636 39.7576 31.154 40.2889C37.3526 46.4285 43.4922 52.5681 49.7499 58.7077Z" fill="#CBE2D1"/>
</svg>
