<svg width="150" height="150" viewBox="0 0 150 150" fill="none" xmlns="http://www.w3.org/2000/svg">
<path d="M148.75 75.0092C148.75 115.641 115.632 148.759 75 148.759C34.368 148.759 1.25 115.641 1.25 75.0092C1.25 34.3772 34.368 1.25916 75 1.25916C115.632 1.25916 148.75 34.3772 148.75 75.0092Z" stroke="#CBE2D1" stroke-width="1.5"/>
<path d="M66.0328 39.4788C62.6199 38.9166 59.4092 41.2191 58.847 44.6321C58.2848 48.045 60.5874 51.2556 64.0003 51.8178C67.2819 52.3584 70.6239 50.0775 71.1861 46.6646C71.7482 43.2516 69.3145 40.0193 66.0328 39.4788Z" fill="#CBE2D1"/>
<path d="M104.295 45.0147C100.882 44.4525 97.6709 46.755 97.1087 50.1679C96.5466 53.5809 98.8491 56.7915 102.262 57.3537C105.544 57.8943 108.886 55.6134 109.448 52.2005C110.01 48.7875 107.576 45.5552 104.295 45.0147Z" fill="#CBE2D1"/>
<path d="M94.0593 68.6002C92.869 68.4709 91.9892 69.1782 91.8599 70.3685C91.084 77.5104 86.2051 83.0021 81.1794 82.4561C76.0214 81.8957 72.568 75.4987 73.344 68.3568C73.4733 67.1665 72.6337 66.2724 71.5756 66.1574C70.3853 66.0281 69.5056 66.7354 69.3763 67.9257C68.356 77.316 73.3419 85.6191 80.7483 86.4238C88.0224 87.2141 94.8074 80.1899 95.8276 70.7996C95.9569 69.6093 95.1174 68.7152 94.0593 68.6002Z" fill="#CBE2D1"/>
</svg>
