<svg width="33" height="18" viewBox="0 0 33 18" fill="none" xmlns="http://www.w3.org/2000/svg">
<path d="M26.3125 4.59505C26.3125 6.90505 27.7325 8.77504 29.4725 8.77504C31.2125 8.77504 32.6325 6.90505 32.6325 4.59505C32.6325 2.28505 31.2125 0.415039 29.4725 0.415039C27.7325 0.415039 26.3125 2.28505 26.3125 4.59505Z" fill="#043A4E"/>
<path d="M0 4.59505C0 6.90505 1.42 8.77504 3.16 8.77504C4.9 8.77504 6.32001 6.90505 6.32001 4.59505C6.32001 2.28505 4.9 0.415039 3.16 0.415039C1.42 0.415039 0 2.28505 0 4.59505Z" fill="#043A4E"/>
<path d="M25.3514 9.92527C24.4014 13.9453 20.6114 17.1253 16.4314 17.1453C12.2714 17.1553 8.39137 14.0853 7.42137 10.0553C7.13137 8.84526 8.98136 8.24526 9.27136 9.46526C10.0414 12.6553 13.0114 15.2153 16.3514 15.2153C19.6814 15.2153 22.7014 12.7053 23.4514 9.49526C23.7414 8.28526 25.6314 8.71526 25.3414 9.93526L25.3514 9.92527Z" fill="#043A4E"/>
</svg>
