<svg width="44" height="44" viewBox="0 0 44 44" fill="none" xmlns="http://www.w3.org/2000/svg">
<path d="M43.25 22C43.25 33.7068 33.7068 43.25 22 43.25C10.2932 43.25 0.75 33.7068 0.75 22C0.75 10.2932 10.2932 0.75 22 0.75C33.7068 0.75 43.25 10.2932 43.25 22Z" fill="#FF9D48" stroke="#043A4E" stroke-width="1.5"/>
<path d="M19.3453 11.5079C18.3375 11.3419 17.3893 12.0218 17.2233 13.0296C17.0573 14.0375 17.7373 14.9856 18.7451 15.1516C19.7142 15.3112 20.7011 14.6377 20.8671 13.6298C21.0331 12.622 20.3144 11.6675 19.3453 11.5079Z" fill="#043A4E"/>
<path d="M30.65 13.1426C29.6422 12.9766 28.694 13.6566 28.528 14.6644C28.362 15.6722 29.042 16.6204 30.0498 16.7864C31.0189 16.946 32.0057 16.2725 32.1718 15.2646C32.3378 14.2568 31.6191 13.3023 30.65 13.1426Z" fill="#043A4E"/>
<path d="M27.6237 20.1075C27.2722 20.0693 27.0124 20.2782 26.9743 20.6297C26.7451 22.7387 25.3044 24.3604 23.8203 24.1992C22.2971 24.0337 21.2773 22.1447 21.5065 20.0356C21.5446 19.6841 21.2967 19.4201 20.9843 19.3862C20.6328 19.348 20.373 19.5568 20.3348 19.9083C20.0335 22.6813 21.5059 25.1332 23.693 25.3709C25.841 25.6042 27.8447 23.53 28.1459 20.757C28.1841 20.4055 27.9362 20.1415 27.6237 20.1075Z" fill="#043A4E"/>
</svg>
