<svg width="21" height="22" viewBox="0 0 21 22" fill="none" xmlns="http://www.w3.org/2000/svg">
<path d="M19.8359 10.915C19.8359 16.3208 15.6472 20.665 10.5859 20.665C5.52466 20.665 1.33594 16.3208 1.33594 10.915C1.33594 5.50932 5.52466 1.16504 10.5859 1.16504C15.6472 1.16504 19.8359 5.50932 19.8359 10.915Z" stroke="#CBE2D1" stroke-width="1.5"/>
<path d="M9.37642 5.91317C8.91536 5.83074 8.4844 6.15009 8.41188 6.62791C8.33936 7.10573 8.65319 7.55824 9.11424 7.64067C9.55756 7.71993 10.0063 7.40375 10.0788 6.92593C10.1513 6.44811 9.81974 5.99243 9.37642 5.91317Z" fill="#CBE2D1"/>
<path d="M14.5122 6.69332C14.0511 6.61089 13.6201 6.93025 13.5476 7.40807C13.4751 7.88589 13.7889 8.33839 14.25 8.42082C14.6933 8.50008 15.142 8.1839 15.2145 7.70608C15.287 7.22826 14.9555 6.77258 14.5122 6.69332Z" fill="#CBE2D1"/>
<path d="M13.1422 10.0345C12.9816 10.0152 12.8637 10.1131 12.8475 10.2793C12.7499 11.2767 12.0977 12.039 11.4197 11.9574C10.724 11.8736 10.2523 10.9759 10.3499 9.97857C10.3661 9.81235 10.2521 9.6865 10.1094 9.66931C9.94884 9.64997 9.83095 9.7479 9.81468 9.91412C9.68635 11.2254 10.3665 12.3912 11.3655 12.5115C12.3467 12.6296 13.2543 11.6551 13.3827 10.3438C13.3989 10.1776 13.2849 10.0517 13.1422 10.0345Z" fill="#CBE2D1"/>
</svg>
