<svg width="61" height="61" viewBox="0 0 61 61" fill="none" xmlns="http://www.w3.org/2000/svg">
<circle opacity="0.5" cx="30.7441" cy="30.2891" r="30" fill="white"/>
<g clip-path="url(#clip0_0_134887)">
<path d="M44.0363 20.5918H24.2758C23.7964 20.5918 23.3367 20.7866 22.9978 21.1334C22.6588 21.4801 22.4684 21.9505 22.4684 22.4409V42.657C22.4684 43.1474 22.6588 43.6177 22.9978 43.9645C23.3367 44.3112 23.7964 44.5061 24.2758 44.5061H37.9475L43.4473 49.139V44.5061H44.022C44.5013 44.5061 44.961 44.3112 45.3 43.9645C45.6389 43.6177 45.8294 43.1474 45.8294 42.657V22.4409C45.8294 21.953 45.6409 21.4849 45.3051 21.1385C44.9692 20.7922 44.5132 20.5957 44.0363 20.5918Z" fill="white"/>
<path d="M24.4944 20.5918H44.12C44.5772 20.5918 45.0157 20.7777 45.3391 21.1085C45.6624 21.4392 45.844 21.8879 45.844 22.3557V28.0733C45.844 28.0913 45.8371 28.1085 45.8247 28.1211C45.8123 28.1338 45.7955 28.1409 45.7779 28.1409H22.5347C22.5172 28.1409 22.5004 28.1338 22.488 28.1211C22.4756 28.1085 22.4687 28.0913 22.4687 28.0733V22.6614C22.4671 22.3889 22.5185 22.1189 22.6198 21.8669C22.7211 21.6149 22.8703 21.386 23.0588 21.1935C23.2472 21.0009 23.4712 20.8486 23.7176 20.7454C23.9641 20.6421 24.2281 20.5899 24.4944 20.5918Z" fill="#6D597A"/>
<path d="M32.551 31.7041V39.8352H30.712V33.2151H29.123V31.7041H32.551Z" fill="#043A4E"/>
<path d="M40.166 31.7041V32.9241L37.2064 39.8352H35.195L38.0454 33.2386H35.422V34.5703H33.787V31.7041H40.166Z" fill="#043A4E"/>
<path d="M37.4209 24.8694C37.4209 24.9106 35.8147 24.9458 33.8349 24.9458C31.8551 24.9458 30.246 24.9164 30.246 24.8694C30.246 24.8224 31.8522 24.793 33.8349 24.793C35.8176 24.793 37.4209 24.8341 37.4209 24.8694Z" fill="#263238"/>
<path d="M44.0366 20.5918C44.0366 20.5918 44.0768 20.5918 44.1601 20.5918C44.2805 20.5971 44.4 20.6158 44.5164 20.6477C44.7456 20.7088 44.9608 20.8155 45.1496 20.9618C45.3385 21.1081 45.4973 21.291 45.6169 21.5002C45.7931 21.8081 45.8807 22.1607 45.8698 22.5173C45.8698 22.9024 45.8698 23.3257 45.8698 23.7784C45.8698 24.6897 45.8698 25.7333 45.8698 26.9004C45.8698 29.2521 45.8698 32.0712 45.8698 35.3108C45.8698 36.9305 45.8698 38.6532 45.8698 40.464C45.8698 40.9197 45.8698 41.3783 45.8698 41.8427V42.5424C45.8783 42.7852 45.8462 43.0278 45.775 43.2596C45.6201 43.7381 45.2864 44.1344 44.8469 44.362C44.6419 44.4712 44.4187 44.54 44.1888 44.5649C43.9389 44.5649 43.7061 44.5649 43.4619 44.5649L43.528 44.4973C43.528 45.9671 43.528 47.5222 43.528 49.1272V49.2801L43.413 49.1831L37.9018 44.5649L37.9478 44.5825H24.253C23.9332 44.5783 23.6198 44.4908 23.3423 44.3282C23.0648 44.1657 22.8323 43.9335 22.6669 43.6536C22.558 43.4721 22.4794 43.2734 22.4341 43.0656C22.3996 42.8569 22.3861 42.6451 22.3939 42.4336V38.7561C22.3939 35.5401 22.3939 32.4387 22.3939 29.4843C22.3939 28.0047 22.3939 26.5652 22.3939 25.1659C22.3939 24.4663 22.3939 23.7804 22.3939 23.1082C22.381 22.7677 22.3925 22.4268 22.4284 22.0881C22.4939 21.7494 22.6466 21.4348 22.8709 21.1768C23.0911 20.9249 23.3727 20.7372 23.6869 20.633C23.9955 20.5469 24.3162 20.5151 24.6352 20.5389H29.8993L40.2436 20.5654H43.0567H43.7866C43.9532 20.5654 44.0366 20.5654 44.0366 20.5654H43.7866H43.0567H40.2436L29.8993 20.5889H26.4713H24.6495C24.3442 20.566 24.0372 20.5958 23.7415 20.6771C23.4476 20.7767 23.1842 20.953 22.9772 21.1886C22.7685 21.4291 22.6266 21.7225 22.5663 22.0381C22.5334 22.3692 22.5238 22.7022 22.5376 23.0347V25.0925C22.5376 26.4917 22.5376 27.9312 22.5376 29.4108C22.5376 32.3505 22.5376 35.4666 22.5376 38.6826V42.4189C22.5303 42.6157 22.5428 42.8127 22.5749 43.0068C22.6153 43.2019 22.6871 43.3887 22.7875 43.5595C22.9913 43.905 23.3047 44.1685 23.6754 44.3062C24.0621 44.4168 24.4652 44.4547 24.865 44.4179H37.9679L37.988 44.4355L43.4849 49.0714L43.3699 49.1243C43.3699 47.5192 43.3699 45.9553 43.3699 44.4943V44.4267H43.4389C43.6774 44.4267 43.9245 44.4267 44.1572 44.4267C44.4997 44.4002 44.8269 44.2709 45.0979 44.0549C45.3688 43.8389 45.5714 43.5459 45.6802 43.2126C45.7498 42.9946 45.7809 42.7657 45.7721 42.5365V41.8368C45.7721 41.3724 45.7721 40.9138 45.7721 40.4581C45.7721 38.6473 45.7721 36.9305 45.7721 35.3049C45.7721 32.0712 45.7721 29.2345 45.7865 26.8945C45.7865 25.7186 45.7865 24.6838 45.7865 23.7725C45.7865 22.8612 45.9014 22.0587 45.5508 21.5178C45.3186 21.0998 44.9345 20.7924 44.4819 20.6624C44.3358 20.6253 44.1868 20.6017 44.0366 20.5918Z" fill="#263238"/>
<path d="M37.6437 18.249H37.5949C37.1886 18.249 36.8593 18.586 36.8593 19.0016V22.8967C36.8593 23.3123 37.1886 23.6492 37.5949 23.6492H37.6437C38.05 23.6492 38.3793 23.3123 38.3793 22.8967V19.0016C38.3793 18.586 38.05 18.249 37.6437 18.249Z" fill="#E0E0E0"/>
<path d="M37.6448 23.6488C37.8012 23.6263 37.9495 23.5636 38.0758 23.4666C38.2168 23.3483 38.3075 23.1786 38.3287 22.9933C38.3287 22.7787 38.3287 22.5112 38.3287 22.229C38.3287 21.641 38.3287 20.9708 38.3287 20.2241C38.3287 19.8449 38.3287 19.448 38.3287 19.0482C38.3334 18.9519 38.318 18.8556 38.2837 18.7658C38.2494 18.6759 38.1968 18.5946 38.1294 18.5271C38.0621 18.4596 37.9815 18.4074 37.893 18.3741C37.8045 18.3408 37.7101 18.3271 37.6161 18.3339C37.5213 18.3337 37.4276 18.3543 37.3414 18.3944C37.2551 18.4344 37.1783 18.493 37.1161 18.5661C37.0557 18.6392 37.0103 18.724 36.9826 18.8154C36.955 18.9068 36.9456 19.003 36.9552 19.0982C36.9552 19.5098 36.9552 19.9066 36.9552 20.2741C36.9552 21.0237 36.9552 21.7028 36.9552 22.2819C36.9552 22.423 36.9552 22.5582 36.9552 22.6875C36.9448 22.8049 36.9448 22.923 36.9552 23.0403C36.9901 23.2243 37.093 23.3875 37.2425 23.496C37.3761 23.5842 37.5293 23.6368 37.6879 23.6488C37.6462 23.6576 37.6032 23.6576 37.5615 23.6488C37.4368 23.6427 37.3159 23.6031 37.2109 23.5342C37.0413 23.4222 36.9207 23.2473 36.8747 23.0462C36.8563 22.9237 36.8496 22.7996 36.8546 22.6758C36.8546 22.5464 36.8546 22.4112 36.8546 22.2701C36.8546 21.6822 36.8546 21.0119 36.8374 20.2623C36.8374 19.886 36.8374 19.4892 36.8374 19.0864C36.8272 18.9731 36.8392 18.8588 36.8728 18.7503C36.9063 18.6417 36.9607 18.5412 37.0328 18.4544C37.1079 18.3631 37.2016 18.2895 37.3073 18.2387C37.4129 18.188 37.5281 18.1613 37.6448 18.1604C37.7601 18.154 37.8754 18.1724 37.9833 18.2144C38.0912 18.2564 38.1893 18.3212 38.2712 18.4044C38.3392 18.4935 38.3892 18.5955 38.4183 18.7045C38.4474 18.8135 38.455 18.9274 38.4407 19.0394C38.4407 19.448 38.4407 19.8449 38.4407 20.2153C38.4407 20.962 38.4407 21.641 38.4235 22.2201C38.4235 22.5141 38.4235 22.7581 38.4034 22.9962C38.389 23.0974 38.3549 23.1945 38.3031 23.2819C38.2512 23.3693 38.1828 23.4451 38.1017 23.5048C38.003 23.5815 37.8858 23.6293 37.7626 23.6429C37.7241 23.6527 37.6841 23.6547 37.6448 23.6488Z" fill="#263238"/>
<path d="M30.5089 18.249H30.4601C30.0538 18.249 29.7245 18.586 29.7245 19.0016V22.8967C29.7245 23.3123 30.0538 23.6492 30.4601 23.6492H30.5089C30.9152 23.6492 31.2445 23.3123 31.2445 22.8967V19.0016C31.2445 18.586 30.9152 18.249 30.5089 18.249Z" fill="#E0E0E0"/>
<path d="M30.5076 23.6489C30.6651 23.6272 30.8145 23.5644 30.9415 23.4667C31.0825 23.3484 31.1732 23.1787 31.1944 22.9934C31.1944 22.7788 31.1944 22.5113 31.1944 22.2291C31.1944 21.6411 31.1944 20.9709 31.1771 20.2242C31.1771 19.845 31.1771 19.4481 31.1771 19.0483C31.1818 18.952 31.1665 18.8557 31.1322 18.7659C31.0978 18.6761 31.0452 18.5947 30.9779 18.5272C30.9105 18.4597 30.8299 18.4075 30.7414 18.3742C30.653 18.3409 30.5586 18.3272 30.4645 18.334C30.3697 18.3334 30.2759 18.3539 30.1896 18.3939C30.1033 18.434 30.0265 18.4928 29.9645 18.5662C29.9037 18.6392 29.8579 18.7238 29.8298 18.8152C29.8016 18.9067 29.7918 19.0029 29.8007 19.0983C29.8007 19.5099 29.8007 19.9067 29.8007 20.2742C29.8007 21.0238 29.8007 21.7029 29.7835 22.282C29.7835 22.4231 29.7835 22.5583 29.7835 22.6877C29.773 22.805 29.773 22.9231 29.7835 23.0404C29.8173 23.2249 29.9205 23.3885 30.0708 23.4961C30.2034 23.5844 30.3556 23.637 30.5134 23.6489C30.5134 23.6489 30.4731 23.6489 30.3869 23.6489C30.2632 23.6427 30.1433 23.6031 30.0392 23.5343C29.8687 23.4233 29.7479 23.2479 29.703 23.0463C29.6851 22.9237 29.6774 22.7998 29.6801 22.6759C29.6801 22.5466 29.6801 22.4113 29.6801 22.2702C29.6801 21.6823 29.6801 21.012 29.6801 20.2624C29.6801 19.8862 29.6801 19.4893 29.6801 19.0866C29.6632 18.8575 29.7343 18.6308 29.8783 18.4545C29.9534 18.363 30.047 18.2893 30.1527 18.2386C30.2584 18.1878 30.3736 18.1612 30.4904 18.1606C30.6053 18.1538 30.7203 18.172 30.8277 18.2141C30.9352 18.2561 31.0328 18.3211 31.1139 18.4046C31.1926 18.4865 31.2541 18.5841 31.2946 18.6913C31.3351 18.7984 31.3538 18.9129 31.3495 19.0278C31.3495 19.4364 31.3495 19.8332 31.3495 20.2036C31.3495 20.9503 31.3495 21.6294 31.3495 22.2085C31.3495 22.5025 31.3495 22.7465 31.3294 22.9846C31.3019 23.1859 31.1988 23.3683 31.0421 23.4931C30.9432 23.5694 30.8261 23.6171 30.703 23.6313C30.6413 23.6582 30.5729 23.6644 30.5076 23.6489Z" fill="#263238"/>
<g opacity="0.3">
<path opacity="0.3" d="M28.8521 20.8184C28.9479 21.7758 28.8584 22.7432 28.5886 23.6652C28.3188 24.5872 27.8741 25.4458 27.2798 26.192C26.6855 26.9381 25.9534 27.5571 25.1252 28.0136C24.297 28.4701 23.3889 28.7552 22.453 28.8525L22.7403 24.834L26.3005 20.8742L28.8521 20.8184Z" fill="black"/>
</g>
<path d="M23.217 27.1842C26.8054 26.2587 28.9811 22.5323 28.0764 18.861C27.1717 15.1898 23.5293 12.964 19.9408 13.8896C16.3523 14.8151 14.1766 18.5415 15.0813 22.2128C15.986 25.884 19.6285 28.1098 23.217 27.1842Z" fill="white"/>
<path d="M21.5735 28.1297C20.1503 28.1288 18.7573 27.7093 17.5607 26.9211C16.364 26.133 15.414 25.0095 14.824 23.6845C14.234 22.3595 14.0288 20.8889 14.2328 19.4479C14.4369 18.0069 15.0416 16.6563 15.9749 15.5571C16.9082 14.4579 18.1308 13.6563 19.4969 13.248C20.863 12.8397 22.315 12.8419 23.68 13.2542C25.0449 13.6665 26.2652 14.4716 27.1954 15.5736C28.1257 16.6755 28.7266 18.0279 28.9266 19.4694C29.2006 21.4626 28.6908 23.4855 27.509 25.0947C26.3272 26.7038 24.5698 27.7678 22.6223 28.0533C22.275 28.1047 21.9245 28.1303 21.5735 28.1297ZM21.5907 14.422C21.3023 14.4217 21.0143 14.4423 20.7287 14.4837C19.559 14.6556 18.4653 15.1784 17.5859 15.986C16.7065 16.7936 16.0809 17.8498 15.7881 19.0211C15.4953 20.1924 15.5484 21.4262 15.9409 22.5666C16.3333 23.7069 17.0473 24.7027 17.9927 25.428C18.9382 26.1533 20.0726 26.5757 21.2525 26.6416C22.4325 26.7075 23.6051 26.4141 24.6221 25.7984C25.6391 25.1827 26.4549 24.2724 26.9664 23.1826C27.4779 22.0927 27.662 20.8721 27.4956 19.6752C27.2932 18.2196 26.5848 16.8873 25.5004 15.9225C24.4159 14.9577 23.0279 14.425 21.5907 14.422Z" fill="#043A4E"/>
<path d="M21.5889 14.4214C21.6213 14.4168 21.6542 14.4168 21.6866 14.4214C21.7498 14.4214 21.8446 14.4214 21.9739 14.4214C22.3402 14.4384 22.7039 14.4915 23.0601 14.5802C23.6248 14.723 24.166 14.9498 24.6664 15.2534C25.333 15.6553 25.9182 16.1842 26.3904 16.8114C26.9609 17.5739 27.3478 18.4631 27.5197 19.4071C27.5636 19.666 27.5942 19.927 27.6116 20.1891C27.6188 20.3232 27.6188 20.4577 27.6116 20.5918C27.6116 20.727 27.6116 20.8652 27.6116 21.0004C27.5659 21.5658 27.45 22.1229 27.2668 22.6584C27.0539 23.215 26.7708 23.7407 26.4249 24.2223C26.0575 24.7166 25.6253 25.1568 25.1405 25.5305C24.1008 26.3072 22.8461 26.7243 21.5588 26.7211C20.2715 26.7179 19.0187 26.2946 17.9828 25.5128C17.4971 25.139 17.0648 24.6977 16.6983 24.2017C16.3602 23.7163 16.0858 23.1875 15.8823 22.629C15.7009 22.0943 15.587 21.5382 15.5432 20.974C15.4668 19.8302 15.7032 18.6873 16.226 17.6733C16.7487 16.6593 17.5371 15.8142 18.5028 15.2328C19.1893 14.8231 19.9498 14.5601 20.7384 14.4596L21.201 14.4332L21.4883 14.4185C21.5208 14.4152 21.5536 14.4152 21.586 14.4185H21.4883L21.201 14.4449L20.7412 14.4861C20.5602 14.5155 20.3562 14.5567 20.1263 14.6154C18.8234 14.9562 17.6724 15.7399 16.8621 16.8378C16.3043 17.5876 15.9255 18.4604 15.7558 19.3865C15.6613 19.8999 15.6333 20.4237 15.6725 20.9446C15.7165 21.497 15.8295 22.0413 16.0087 22.5643C16.2088 23.1088 16.4783 23.6238 16.8104 24.0959C17.1696 24.5791 17.5922 25.0094 18.0661 25.3747C19.0774 26.1354 20.2992 26.5472 21.5545 26.5503C22.8098 26.5535 24.0335 26.1479 25.0485 25.3923C25.5239 25.0288 25.9475 24.5995 26.3071 24.1165C26.6409 23.6456 26.9124 23.1316 27.1145 22.5878C27.2978 22.0666 27.4138 21.523 27.4593 20.971C27.4766 20.8387 27.4593 20.7035 27.4593 20.5712C27.4665 20.44 27.4665 20.3085 27.4593 20.1773C27.4335 19.9157 27.422 19.6599 27.3731 19.4101C27.209 18.483 26.8351 17.6081 26.2812 16.8555C25.4698 15.7597 24.324 14.9724 23.0256 14.6184C22.6733 14.5243 22.3138 14.4614 21.951 14.4303C21.7211 14.4273 21.5889 14.4273 21.5889 14.4214Z" fill="#263238"/>
<path d="M21.5732 28.129C21.5732 28.129 21.6134 28.129 21.6938 28.129L22.0444 28.1026C22.1996 28.0879 22.3892 28.0702 22.6191 28.035L23.3863 27.8733C24.0751 27.6825 24.736 27.3987 25.3517 27.0296C26.1585 26.5255 26.8668 25.8726 27.4407 25.1041C28.1275 24.1668 28.5944 23.0806 28.8056 21.9292C28.8388 21.7742 28.8618 21.6171 28.8745 21.4589C28.8745 21.3002 28.909 21.1414 28.9234 20.9768C28.9378 20.8122 28.9234 20.6534 28.9234 20.4859V20.2389L28.9004 19.9891C28.856 19.3012 28.7167 18.6233 28.4866 17.9754C27.9701 16.5274 27.0321 15.2762 25.799 14.3905C24.5659 13.5048 23.097 13.0272 21.5904 13.022C20.0794 13.0169 18.6037 13.4887 17.3645 14.373C16.1252 15.2574 15.1827 16.5112 14.6654 17.9636C14.2123 19.2323 14.106 20.6034 14.358 21.9292C14.4649 22.5268 14.6414 23.1091 14.8838 23.6637C15.0008 23.9234 15.1312 24.1766 15.2746 24.4221L15.4872 24.7778L15.7257 25.1041C16.2928 25.8734 16.9991 26.5241 17.8061 27.0208C18.4197 27.394 19.0812 27.678 19.7715 27.8645C20.0227 27.9342 20.278 27.9873 20.5358 28.0232C20.7258 28.0581 20.9178 28.0806 21.1105 28.0908L21.464 28.1173C21.5041 28.1141 21.5445 28.1141 21.5846 28.1173H21.464H21.1105C20.9179 28.113 20.7258 28.0943 20.5358 28.0614C20.2759 28.0326 20.0184 27.9834 19.7658 27.9144C19.0661 27.7374 18.3946 27.4592 17.7716 27.0884C16.9439 26.5931 16.2171 25.9393 15.6309 25.1629L15.3895 24.8336L15.1712 24.475C15.0235 24.2219 14.8892 23.9609 14.7689 23.6931C14.5207 23.1293 14.3393 22.5371 14.2287 21.9292C13.972 20.5833 14.0773 19.1914 14.5333 17.9019C15.06 16.4233 16.0192 15.1466 17.2804 14.2456C18.5416 13.3445 20.0435 12.8629 21.5818 12.8662C23.1207 12.8675 24.6219 13.3535 25.8814 14.2581C27.1409 15.1628 28.0977 16.4421 28.6217 17.9225C28.8555 18.5846 28.9958 19.2775 29.0383 19.9802L29.0584 20.2331V20.4859C29.0584 20.6534 29.0584 20.821 29.0584 20.9856C29.0584 21.1502 29.0125 21.309 29.0125 21.4707C29.0002 21.632 28.9762 21.7922 28.9406 21.9498C28.7155 23.1189 28.2287 24.2187 27.5183 25.1629C26.933 25.9382 26.2108 26.5943 25.3891 27.0972C24.7633 27.4629 24.0927 27.7416 23.3949 27.9262L22.6191 28.0732C22.4285 28.1009 22.2367 28.1186 22.0444 28.1261C21.8892 28.1261 21.7571 28.1261 21.691 28.1261L21.5732 28.129Z" fill="#263238"/>
<path d="M24.9793 11.0883L24.3671 12.0928L28.3042 14.6043L28.9165 13.5998L24.9793 11.0883Z" fill="#455A64"/>
<path d="M28.296 14.6333C28.296 14.6333 28.3477 14.5274 28.4483 14.3393L28.8707 13.5985L28.8851 13.6602C27.9943 13.1105 26.5547 12.2286 24.9427 11.185L25.0462 11.1615L25.026 11.1938L24.9657 11.2879L24.8881 11.4173L24.733 11.6701L24.4456 12.1639L24.414 12.0581C25.5145 12.7695 26.4771 13.4045 27.1725 13.8689L27.9943 14.4187C28.1868 14.5509 28.2816 14.6244 28.2816 14.6333C28.1807 14.5885 28.0844 14.5333 27.9943 14.4686L27.1725 13.966C26.4656 13.5309 25.4657 12.9077 24.3307 12.1874L24.2675 12.1463L24.3077 12.0846L24.595 11.5878L24.7617 11.3467L24.8393 11.2203L24.8795 11.1556L24.8996 11.1115V11.0939L25.0203 11.0527C26.6352 12.0846 28.0604 13.0106 28.9339 13.5897L28.9713 13.6161L28.9483 13.6543C28.7414 13.9748 28.5776 14.2246 28.4684 14.3893C28.4188 14.4761 28.3611 14.5579 28.296 14.6333Z" fill="#043A4E"/>
<path d="M15.5137 12.7381L12.2948 16.4854L13.1625 17.2655L16.3814 13.5183L15.5137 12.7381Z" fill="#455A64"/>
<path d="M13.165 17.2646C13.165 17.2646 13.2512 17.147 13.4064 16.9529L14.0701 16.1445C14.6448 15.4655 15.4207 14.5277 16.3229 13.4694V13.5753L15.4609 12.7962H15.5672L15.5385 12.8168L15.5069 12.8609L15.4465 12.9315L15.323 13.0755L15.0787 13.3695L14.6075 13.9074L13.7253 14.9216L12.3289 16.5149V16.4503C12.5788 16.6884 12.7829 16.8853 12.9438 17.0382C13.0229 17.1099 13.0978 17.1865 13.1679 17.2675C13.0802 17.2135 12.9975 17.1515 12.9208 17.0823C12.7685 16.9559 12.5415 16.7678 12.257 16.5179L12.2225 16.4885L12.2513 16.4532L13.6133 14.8334L14.4753 13.8075L14.9695 13.2578C15.0471 13.1637 15.1304 13.0696 15.2109 12.9638L15.3345 12.8198L15.3948 12.7463L15.4264 12.711L15.4436 12.6934H15.55C15.8373 12.9638 16.1247 13.2254 16.412 13.4753L16.4666 13.5253L16.4177 13.5811C15.5069 14.6453 14.6851 15.5801 14.0989 16.2386L13.4121 17.0059C13.3354 17.0976 13.2529 17.184 13.165 17.2646Z" fill="#043A4E"/>
<path d="M18.6561 21.1356L19.2279 20.0214L21.2709 20.968L23.4691 16.873L24.4978 17.4757L21.6502 22.6407L18.6561 21.1356Z" fill="#043A4E"/>
<path d="M21.6539 22.6495L18.6483 21.1385L19.223 20.0185L21.2603 20.9592L23.4671 16.8643L24.5015 17.4698L21.6539 22.6495ZM18.6684 21.1327L21.6511 22.6319L24.4929 17.4786L23.4757 16.8907L21.2746 20.9769L19.2431 20.0332L18.6684 21.1327Z" fill="#263238"/>
<path d="M17.5866 28.999C17.478 28.9649 17.373 28.9196 17.2734 28.8638C17.1533 28.8066 17.0362 28.7428 16.9228 28.6727C16.7685 28.5829 16.6188 28.4848 16.4746 28.3788C16.093 28.1172 15.7343 27.8221 15.4028 27.4969C14.9975 27.0993 14.6299 26.6632 14.3051 26.1946C13.991 25.7252 13.7198 25.2273 13.4948 24.7071C13.3125 24.2774 13.1654 23.833 13.0552 23.3784C13.011 23.2039 12.9755 23.0273 12.9489 22.8492C12.9223 22.7163 12.9041 22.5818 12.8943 22.4465C12.877 22.3318 12.8713 22.2155 12.877 22.0996C12.9058 22.0996 12.9518 22.5876 13.1644 23.349C13.2861 23.7944 13.4407 24.2298 13.627 24.6512C13.8599 25.1641 14.1348 25.6558 14.4488 26.1211C14.7652 26.5809 15.1189 27.0126 15.5062 27.4116C15.8306 27.731 16.1773 28.0257 16.5435 28.2935C17.1642 28.7609 17.601 28.9843 17.5866 28.999Z" fill="#263238"/>
<path d="M14.1963 27.4325C14.0126 27.2658 13.8513 27.075 13.7164 26.8651C13.3668 26.3785 13.0619 25.8599 12.8056 25.3159C12.5496 24.7706 12.3446 24.2016 12.1935 23.6168C12.1154 23.3794 12.0699 23.132 12.0585 22.8818C12.1501 23.1119 12.2278 23.3475 12.2912 23.5874C12.4694 24.155 12.6844 24.7099 12.9349 25.2483C13.1894 25.785 13.4773 26.3044 13.7969 26.8034C13.9446 27.003 14.078 27.2133 14.1963 27.4325Z" fill="#263238"/>
</g>
<defs>
<clipPath id="clip0_0_134887">
<rect width="34.4754" height="38.2364" fill="white" transform="translate(11.4316 11.0527)"/>
</clipPath>
</defs>
</svg>
