<svg width="22" height="21" viewBox="0 0 22 21" fill="none" xmlns="http://www.w3.org/2000/svg">
<path d="M13.0449 1.71596C15.4873 1.9611 17.4469 3.43042 17.8649 5.95097H16.4513L18.7327 9.3453L21.0156 5.95097H19.441C19.023 2.55665 16.4528 0.350411 13.2058 0.0360939C12.7562 7.28325e-08 12.3396 0.385001 12.3396 0.875276C12.3697 1.29637 12.6584 1.67987 13.0449 1.71596ZM9.51073 0H1.57459C1.12492 0 0.771506 0.385001 0.771506 0.875276V8.43543C0.771506 8.9257 1.12492 9.31071 1.57459 9.31071H9.51073C9.96039 9.31071 10.3138 8.9257 10.3138 8.43543V0.875276C10.3138 0.385001 9.96039 0 9.51073 0ZM8.73922 7.63084H2.3461V1.67987H8.74072V7.63084H8.73922ZM7.96771 19.2516C5.23661 19.0064 3.14768 17.1867 3.05143 14.1759H4.56136L2.28143 10.7815L0 14.1759H1.50993C1.57309 18.062 4.30419 20.581 7.8083 20.9314C8.25797 20.966 8.67606 20.581 8.67606 20.0907C8.67883 19.889 8.60871 19.693 8.47858 19.5389C8.34845 19.3847 8.16705 19.2827 7.96771 19.2516ZM19.4726 11.6553H11.535C11.0838 11.6553 10.7319 12.0418 10.7319 12.5306V20.1268C10.7319 20.6156 11.0838 21.0006 11.535 21.0006H19.4711C19.9208 21.0006 20.2727 20.6156 20.2727 20.1268V12.5306C20.2742 12.0418 19.8892 11.6553 19.4726 11.6553ZM18.6996 19.2861H12.3065V13.3698H18.6996V19.2861Z" fill="#FF9D48"/>
</svg>
