<svg width="20" height="17" viewBox="0 0 20 17" fill="none" xmlns="http://www.w3.org/2000/svg">
<path d="M17 7.27V5.64C17 2.53 14.47 0 11.36 0H5.64C2.53 0 0 2.53 0 5.64V12.25C0 12.66 0.34 13 0.75 13H6.03C6.3 15.25 8.21 17 10.53 17H19.25C19.66 17 20 16.66 20 16.25V11.53C20 9.57 18.75 7.89 17 7.27ZM1.5 11.5V5.64C1.5 3.36 3.36 1.5 5.64 1.5H11.36C13.64 1.5 15.5 3.36 15.5 5.64V7.36C15.5 7.76 15.44 8.14 15.33 8.5C14.84 10.23 13.24 11.5 11.36 11.5H1.5ZM18.5 15.5H10.53C9.04 15.5 7.8 14.42 7.55 13H11.36C13.97 13 16.16 11.22 16.81 8.82C17.81 9.31 18.5 10.34 18.5 11.53V15.5Z" fill="#6D597A"/>
<path d="M4.5 7.49987C4.37 7.49987 4.24 7.47987 4.12 7.41987C4 7.36987 3.89 7.29987 3.79 7.20987C3.61 7.01987 3.5 6.75987 3.5 6.49987C3.5 6.23987 3.61 5.97987 3.79 5.78987C3.89 5.69987 3.99 5.62987 4.12 5.57987C4.48 5.41987 4.93 5.50987 5.21 5.78987C5.39 5.97987 5.5 6.23987 5.5 6.49987C5.5 6.75987 5.39 7.01987 5.21 7.20987C5.16 7.24987 5.11 7.28987 5.05 7.32987C5 7.36987 4.94 7.39987 4.88 7.41987C4.82 7.44987 4.76 7.46987 4.7 7.47987C4.63 7.48987 4.57 7.49987 4.5 7.49987Z" fill="#6D597A"/>
<path d="M8.5 7.49987C8.37 7.49987 8.24 7.47987 8.12 7.41987C7.99 7.36987 7.89 7.29987 7.79 7.20987C7.61 7.01987 7.5 6.75987 7.5 6.49987C7.5 6.23987 7.61 5.97987 7.79 5.78987C7.89 5.69987 7.99 5.62987 8.12 5.57987C8.48 5.41987 8.93 5.50987 9.21 5.78987C9.39 5.97987 9.5 6.23987 9.5 6.49987C9.5 6.75987 9.39 7.01987 9.21 7.20987C9.02 7.38987 8.76 7.49987 8.5 7.49987Z" fill="#6D597A"/>
<path d="M12.5 7.49971C12.24 7.49971 11.98 7.38971 11.79 7.20971C11.61 7.01971 11.5 6.75971 11.5 6.49971C11.5 6.23971 11.61 5.97971 11.79 5.78971C12.16 5.41971 12.83 5.41971 13.21 5.78971C13.39 5.97971 13.5 6.23971 13.5 6.49971C13.5 6.75971 13.39 7.01971 13.21 7.20971C13.16 7.24971 13.11 7.29971 13.05 7.32971C13 7.36971 12.94 7.39971 12.88 7.41971C12.82 7.44971 12.76 7.46971 12.69 7.47971C12.63 7.48971 12.56 7.49971 12.5 7.49971Z" fill="#6D597A"/>
</svg>
