<?xml version="1.0" encoding="UTF-8"?>
<svg id="Layer_2" xmlns="http://www.w3.org/2000/svg" viewBox="0 0 1107.68 861.82">
  <g id="Objects">
    <path d="M609.1,1.55c11.32-1.46,22.65-2.48,34-.23,20.78-.78,33.3,13.64,47.15,25.59,7.18,6.67,15.6,11.94,22.15,19.33,7.71,7.83,17.36,13.43,24.8,21.57,7.23,6.39,15.65,11.35,22.3,18.44,13.31,12.72,27.32,24.6,41.96,35.75,1.69,1.34,3.19,2.87,4.58,4.52,13.29,12.75,27.35,24.61,41.95,35.83,6.49,7.29,14.84,12.53,21.68,19.45,15.72,14.9,32.97,28.01,49.32,42.17,6.56,7,14.91,12.04,21.3,19.24,7.56,7.87,17.4,13.04,24.96,20.92,5.35,6.12,12.49,10.13,18.5,15.47,6.82,8.64,16.46,14.2,24.12,21.92,7.7,7.82,17.35,13.4,24.78,21.53,7.22,6.4,15.63,11.35,22.29,18.42,13.48,14.03,30.69,24.17,42.28,40.19,3.51,5.35,8.02,10.36,6.28,17.58,4.29,15.1,5.91,30.31,1.72,45.73,2,4.53-.87,8.5-1.46,12.73-4.45,10.56-11.64,18.63-20.63,25.91-18.18,14.72-35.26,30.77-53.15,45.85-14.86,11.59-27.91,25.3-42.91,36.71-1.5,1.45-3.03,2.88-4.54,4.32-13.98,11.68-27.54,23.85-41.59,35.45-1.46,1.52-2.98,2.99-4.5,4.46-14.03,11.77-27.71,23.95-41.78,35.67-1.47,1.55-3,3.04-4.54,4.54-57.67,48.6-113.72,99.09-171.57,147.49-10.49,8.78-18.94,20.2-32.46,25.06-10.47,6.19-18.46,15.85-29.78,20.91-38.02,16.97-80.84-.88-96.98-42.43-4.05-3.92-6.21-8.7-6.53-14.32-.2-31.73-.73-63.46-.43-95.2.14-14.87-.92-15.38-15.93-13.32-8.11,1.11-16.1,2.88-24.2,4.01-3.58.17-7.05,1.1-10.57,1.64-13.78,2.12-19.36-.98-22.42-14.2-3.78-16.34-7.06-32.84-7.91-49.69,1.39-4.98,5.08-7.58,9.6-9.33,40.71-7.64,81.7-13.52,123.01-16.62,22.23-1.67,25.21,1.4,25.03,23.48-.36,46.06.42,92.11-.09,138.16-.06,5.43-1.74,11.31,2.26,16.15,19.17-8.16,30.6-25.94,47.05-37.38,51.43-43.71,101.89-88.57,153.48-132.09,16.62-14.18,32.79-28.88,49.49-42.98,15.7-12.97,30.48-26.99,46.17-39.97,15.18-13.37,31.07-25.92,45.91-39.69,6.55-7.09,15.22-11.7,21.85-18.7,7.47-7.92,17.43-12.98,24.43-21.43,3.86-3.86,6.47-8.78,10.5-12.49,4.89-3.59,2.66-6.16-.81-9.38-9.96-9.24-20.43-17.85-31.19-26.12-7.23-8.44-17.16-13.83-24.84-21.78-5.69-7.89-14.91-11.86-21.22-19.05-7.58-7.91-17.53-13.03-25.01-21.06-5.7-7.75-14.78-11.75-21.04-18.87-6.45-7.02-15.16-11.42-21.57-18.49-6.47-7.05-15.23-11.44-21.65-18.55-7.2-8.46-17.26-13.65-24.86-21.66-15.52-12.4-29.28-26.87-45.51-38.43-1.69-1.32-3.22-2.82-4.66-4.4-12.86-10.98-24.44-23.52-39.28-32.08-3.36-1.65-5.85-4.19-7.63-7.45-13.21-14.62-29.45-25.84-43.96-39.01-22.27-16.88-41.46-37.5-65.16-54.17-4.21,6.21-2.88,12.46-2.87,18.24.1,46.93-.15,93.87.03,140.8.08,21.96-1.93,24.32-23.48,27.66-12.58,1.95-25.19,3.75-37.63,6.46-16.04,2.3-31.4,7.48-47.13,11.1-20.59,4.52-40.12,12.36-59.95,19.24-31.17,11.35-61.57,24.36-90.01,41.6-16.19,7.88-30.96,18.08-45.93,27.96-18.56,11.51-35.44,25.24-52,39.39-16.35,13.12-31.52,27.51-45.95,42.68-1.43,1.55-2.93,3.04-4.41,4.54-28.21,31.84-54.64,64.98-75.45,102.27-2.18,3.72-4.38,7.43-6.66,11.1-9.05,16.1-17.27,32.58-23.7,49.92-17.11,39.01-29.14,79.54-36.78,121.39-2.67,10.82-4.24,21.79-5.46,33.32,7.47-.81,11.31-6.19,16.57-9,31.57-21.07,63.88-40.93,97.24-59.06,3.82-2.06,7.72-3.97,11.54-6.06,11.15-5.27,22.01-11.12,33.08-16.54,14.01-5.43,27.61-11.83,41.5-17.56q23.42-7.49,31.86,14.7c5.04,13.18,10.67,26.15,13.3,40.12-.54,10.48-9.6,11.53-16.53,14.95-15.18,5.84-30.48,11.42-44.98,18.88-9.34,5.98-20.17,8.97-29.65,14.68-8.29,3.64-16.03,8.25-23.65,13.1-6.96,3.3-13.37,7.96-21.35,8.77-29.69,16.03-58,34.42-84.61,54.95-37.73,29.11-82.06,13.16-96.26-23.6-4.99-15.4-.55-30.82-.08-46.23-2.68-11.86,1.95-23.54.87-35.36,1.83-8.8,3.23-17.69,4.98-26.51,6.69-30.57,14.64-60.79,25.39-90.22,2.08-4.84,4.52-9.54,6.15-14.58,2.52-6.08,5.18-12.11,7.22-18.4,14.08-27.66,26.65-56.11,42.83-82.68,12.76-17.36,23.15-36.37,36.76-53.15,4.92-5.01,8.42-11.18,13.17-16.34,22.1-25.61,42.76-52.61,70.13-73.18,3.72-3.19,7.1-6.73,10.54-10.2,18.15-14.66,36.22-29.43,55.24-42.98,17.07-13.33,37.6-21.54,53.63-36.41,22.26-6.91,41.83-19.62,62.86-29.18,9.28-3.48,18.32-7.49,27.21-11.87,39.8-15.57,80.63-27.81,122.28-37.29,5.09-1.16,10.25-1.8,10.72-8.58.63-41.11,0-82.19.27-123.25-.14-3.52.25-6.99,1.1-10.4,5.89-18.07,13.76-34.83,30.14-46.15,7.68-5.31,15.68-9.26,25.31-8.67Z"   stroke="#6D597A" stroke-width="2" fill="#6D597A"/>
  </g>
</svg>