<svg width="35" height="35" viewBox="0 0 35 35" fill="none" xmlns="http://www.w3.org/2000/svg">
<path d="M6.2793 28.7152H11.946L14.071 24.4652M24.696 28.7152L23.2793 21.6318H16.196L17.6126 11.7152M16.196 6.0485C16.196 6.42423 16.3452 6.78456 16.6109 7.05024C16.8766 7.31591 17.2369 7.46517 17.6126 7.46517C17.9884 7.46517 18.3487 7.31591 18.6144 7.05024C18.88 6.78456 19.0293 6.42423 19.0293 6.0485C19.0293 5.67278 18.88 5.31244 18.6144 5.04677C18.3487 4.78109 17.9884 4.63184 17.6126 4.63184C17.2369 4.63184 16.8766 4.78109 16.6109 5.04677C16.3452 5.31244 16.196 5.67278 16.196 6.0485Z" stroke="#CBE2D1" stroke-width="3" stroke-linecap="round" stroke-linejoin="round"/>
<path d="M6.2793 14.5482L11.946 13.1315L17.6126 11.7148L23.2793 13.8398L28.946 15.9648" stroke="#CBE2D1" stroke-width="3" stroke-linecap="round" stroke-linejoin="round"/>
</svg>
