<svg width="31" height="18" viewBox="0 0 31 18" fill="none" xmlns="http://www.w3.org/2000/svg">
<path d="M24 4.41504C24 6.62504 25.35 8.41504 27.03 8.41504C28.71 8.41504 30.06 6.62504 30.06 4.41504C30.06 2.20504 28.71 0.415039 27.03 0.415039C25.35 0.415039 24 2.20504 24 4.41504Z" fill="#043A4E"/>
<path d="M3.03 8.60547C4.70342 8.60547 6.06 6.81461 6.06 4.60547C6.06 2.39633 4.70342 0.605469 3.03 0.605469C1.35658 0.605469 0 2.39633 0 4.60547C0 6.81461 1.35658 8.60547 3.03 8.60547Z" fill="#043A4E"/>
<path d="M6.5772 15.6855C7.6372 11.8755 11.3872 8.98547 15.3772 9.13547C19.3572 9.28547 22.9372 12.3655 23.7172 16.2655C23.9472 17.4355 22.1572 17.9355 21.9272 16.7555C21.3172 13.6755 18.5772 11.1155 15.3772 10.9855C12.1972 10.8655 9.20719 13.1355 8.36719 16.1755C8.04719 17.3255 6.2572 16.8355 6.5772 15.6855Z" fill="#043A4E"/>
</svg>
