<svg width="44" height="44" viewBox="0 0 44 44" fill="none" xmlns="http://www.w3.org/2000/svg">
<path d="M43.25 22C43.25 33.7068 33.7068 43.25 22 43.25C10.2932 43.25 0.75 33.7068 0.75 22C0.75 10.2932 10.2932 0.75 22 0.75C33.7068 0.75 43.25 10.2932 43.25 22Z" fill="#FF9D48" stroke="#043A4E" stroke-width="1.5"/>
<path d="M19.6427 32.2146C17.1025 32.2146 14.6441 34.4241 15.8733 35.7783C16.5698 36.5267 22.7566 36.5267 23.4531 35.7783C24.6823 34.4241 22.4288 32.2146 19.6427 32.2146Z" fill="#043A4E"/>
<path d="M11.5549 25.3396L8.67188 27.4479C8.71623 28.5938 9.60333 29.4646 10.7122 29.4646C11.8654 29.4646 12.7969 28.5021 12.7969 27.3104C12.7969 26.4396 12.309 25.6604 11.5549 25.3396Z" fill="#043A4E"/>
<path d="M27.9219 27.3104C27.9219 28.5021 28.8434 29.4646 29.9844 29.4646C31.0814 29.4646 31.9591 28.5938 32.0469 27.4479L29.1945 25.3396C28.4485 25.6604 27.9219 26.4396 27.9219 27.3104Z" fill="#043A4E"/>
</svg>
