<svg width="14" height="14" viewBox="0 0 14 14" fill="none" xmlns="http://www.w3.org/2000/svg">
<path d="M5.39453 5.2793C6.43286 5.65846 7.56453 5.65846 8.60286 5.2793" stroke="#CBE2D1" stroke-width="0.875" stroke-linecap="round" stroke-linejoin="round"/>
<path d="M9.81055 1.16699H4.18721C2.94471 1.16699 1.93555 2.18199 1.93555 3.41866V11.6378C1.93555 12.6878 2.68805 13.1312 3.60971 12.6237L6.45638 11.0428C6.75971 10.8737 7.24971 10.8737 7.54721 11.0428L10.3939 12.6237C11.3155 13.137 12.068 12.6937 12.068 11.6378V3.41866C12.0622 2.18199 11.053 1.16699 9.81055 1.16699Z" stroke="#CBE2D1" stroke-width="0.875" stroke-linecap="round" stroke-linejoin="round"/>
<path d="M9.81055 1.16699H4.18721C2.94471 1.16699 1.93555 2.18199 1.93555 3.41866V11.6378C1.93555 12.6878 2.68805 13.1312 3.60971 12.6237L6.45638 11.0428C6.75971 10.8737 7.24971 10.8737 7.54721 11.0428L10.3939 12.6237C11.3155 13.137 12.068 12.6937 12.068 11.6378V3.41866C12.0622 2.18199 11.053 1.16699 9.81055 1.16699Z" fill="#CBE2D1" stroke="#CBE2D1" stroke-width="0.875" stroke-linecap="round" stroke-linejoin="round"/>
<path d="M9.81055 1.16699H4.18721C2.94471 1.16699 1.93555 2.18199 1.93555 3.41866V11.6378C1.93555 12.6878 2.68805 13.1312 3.60971 12.6237L6.45638 11.0428C6.75971 10.8737 7.24971 10.8737 7.54721 11.0428L10.3939 12.6237C11.3155 13.137 12.068 12.6937 12.068 11.6378V3.41866C12.0622 2.18199 11.053 1.16699 9.81055 1.16699Z" fill="#CBE2D1" stroke="#CBE2D1" stroke-width="0.875" stroke-linecap="round" stroke-linejoin="round"/>
</svg>
