<svg width="24" height="25" viewBox="0 0 24 25" fill="none" xmlns="http://www.w3.org/2000/svg">
<path d="M4.02 6.53445C2.75 8.21445 2 10.3045 2 12.5645C2 18.0845 6.48 22.5645 12 22.5645C17.52 22.5645 22 18.0845 22 12.5645C22 7.04445 17.52 2.56445 12 2.56445" stroke="white" stroke-linecap="round" stroke-linejoin="round"/>
<path d="M5 12.5645C5 16.4345 8.13 19.5645 12 19.5645C15.87 19.5645 19 16.4345 19 12.5645C19 8.69445 15.87 5.56445 12 5.56445" stroke="white" stroke-linecap="round" stroke-linejoin="round"/>
<path d="M12 16.5645C14.21 16.5645 16 14.7745 16 12.5645C16 10.3545 14.21 8.56445 12 8.56445" stroke="white" stroke-linecap="round" stroke-linejoin="round"/>
</svg>
