<svg width="16" height="16" viewBox="0 0 16 16" fill="none" xmlns="http://www.w3.org/2000/svg">
<path d="M14.0001 14.0001L11.1048 11.1047M11.1048 11.1047C11.6001 10.6095 11.9929 10.0215 12.261 9.37444C12.529 8.72735 12.6669 8.03381 12.6669 7.33341C12.6669 6.63301 12.529 5.93947 12.261 5.29238C11.9929 4.64529 11.6001 4.05734 11.1048 3.56208C10.6095 3.06682 10.0216 2.67396 9.3745 2.40593C8.72742 2.13789 8.03387 1.99994 7.33347 1.99994C6.63307 1.99994 5.93953 2.13789 5.29244 2.40593C4.64535 2.67396 4.0574 3.06682 3.56214 3.56208C2.56192 4.5623 2 5.91889 2 7.33341C2 8.74793 2.56192 10.1045 3.56214 11.1047C4.56236 12.105 5.91895 12.6669 7.33347 12.6669C8.748 12.6669 10.1046 12.105 11.1048 11.1047Z" stroke="#6D597A" stroke-width="1.5" stroke-linecap="round" stroke-linejoin="round"/>
</svg>
