<svg width="25" height="23" viewBox="0 0 25 23" fill="none" xmlns="http://www.w3.org/2000/svg">
<g clip-path="url(#clip0_4710_3285)">
<path d="M1.20856 10.4092C2.95456 10.4678 4.69656 10.3121 6.45456 10.5406C6.81056 6.40853 8.85856 3.32769 12.2106 1.07973C15.1746 2.91934 17.2706 5.44628 18.0866 8.94558C18.1466 9.20636 18.1986 9.46714 18.2426 9.73196C18.2866 9.99477 18.3146 10.2596 18.3526 10.5466C20.1026 10.3081 21.8506 10.4739 23.6126 10.4072C23.6206 10.488 23.6306 10.5386 23.6306 10.5911C23.6306 11.6221 23.6426 12.6551 23.6266 13.6861C23.5706 17.618 20.6886 21.0264 16.8506 21.6935C16.3686 21.7764 15.8766 21.8229 15.3886 21.8269C13.4026 21.841 11.4166 21.8411 9.43056 21.8309C5.65456 21.8127 2.43056 19.302 1.47256 15.6106C1.31256 14.992 1.23656 14.3411 1.20856 13.7003C1.16456 12.6713 1.19456 11.6383 1.19456 10.6073C1.19656 10.5527 1.20256 10.5002 1.20856 10.4092ZM12.3886 15.2185C12.4246 15.2083 12.4346 15.2083 12.4366 15.2023C12.4506 15.1841 12.4646 15.1639 12.4746 15.1437C13.3986 13.2535 14.8146 11.889 16.7346 11.0621C16.8486 11.0136 16.8846 10.9489 16.8666 10.8297C16.8106 10.4415 16.7866 10.0453 16.7086 9.66121C16.1346 6.80476 14.6246 4.58105 12.2526 2.93955C12.2206 2.95977 12.1926 2.97392 12.1666 2.99211C9.59056 4.94898 8.17056 7.54667 7.93656 10.8034C7.92456 10.9611 7.98656 11.0156 8.12056 11.0723C9.16056 11.5129 10.0726 12.1477 10.8546 12.9685C11.4866 13.6295 11.9946 14.3815 12.3886 15.2185ZM13.1626 20.3188C13.9546 20.3188 14.7246 20.3431 15.4926 20.3148C18.1426 20.2137 20.1066 18.9704 21.3866 16.6275C22.1866 15.1639 22.1886 13.5668 22.1206 11.9577C22.1006 11.9496 22.0786 11.9355 22.0586 11.9355C21.0386 11.9536 20.0046 11.8667 19.0046 12.0163C16.1846 12.4368 14.3386 14.0864 13.4406 16.8175C13.0666 17.9475 13.1726 19.12 13.1626 20.3188ZM11.6666 20.331C11.6506 19.2373 11.7226 18.178 11.4786 17.1268C10.8586 14.4624 8.53056 12.3014 5.84456 12.0123C4.82656 11.9031 3.79256 11.9557 2.76656 11.9375C2.74656 11.9375 2.72456 11.9536 2.69456 11.9678C2.69456 12.5096 2.68856 13.0513 2.69456 13.5951C2.72856 16.7973 4.98656 19.5506 8.08856 20.1854C9.26256 20.4239 10.4486 20.2743 11.6666 20.331Z" fill="#FF9D48" stroke="#FF9D48" stroke-width="0.5"/>
</g>
<defs>
<clipPath id="clip0_4710_3285">
<rect width="24" height="21.2" fill="white" transform="translate(0.410156 0.859375)"/>
</clipPath>
</defs>
</svg>
