<svg width="53" height="53" viewBox="0 0 53 53" fill="none" xmlns="http://www.w3.org/2000/svg">
<circle cx="26.3984" cy="26.8027" r="26" fill="#4EA692"/>
<path d="M17.6426 22.2162L18.3687 22.4038L17.6426 22.2162ZM21.7787 18.3232L21.92 19.0598L21.7787 18.3232ZM24.2188 28.6266L24.0072 27.9071L24.2188 28.6266ZM25.5267 29.9346L24.8072 29.723L25.5267 29.9346ZM31.9372 36.5108L32.1248 37.237L31.9372 36.5108ZM35.8301 32.3746L36.5667 32.5159L35.8301 32.3746ZM37.9038 21.5621L37.1672 21.4208L37.9038 21.5621ZM32.5912 16.2496L32.45 15.513L32.5912 16.2496ZM19.4137 33.6791C19.1208 33.972 19.1208 34.4468 19.4137 34.7397C19.7065 35.0326 20.1814 35.0326 20.4743 34.7397L19.4137 33.6791ZM22.1457 33.0684C22.4385 32.7755 22.4385 32.3006 22.1457 32.0077C21.8528 31.7148 21.3779 31.7148 21.085 32.0077L22.1457 33.0684ZM20.2493 37.8574C19.9564 38.1503 19.9564 38.6252 20.2493 38.9181C20.5422 39.211 21.0171 39.211 21.31 38.9181L20.2493 37.8574ZM22.9813 37.2467C23.2742 36.9538 23.2742 36.479 22.9813 36.1861C22.6884 35.8932 22.2136 35.8932 21.9207 36.1861L22.9813 37.2467ZM15.2353 32.8434C14.9424 33.1363 14.9424 33.6112 15.2353 33.904C15.5282 34.1969 16.0031 34.1969 16.296 33.904L15.2353 32.8434ZM17.9673 32.2327C18.2602 31.9398 18.2602 31.4649 17.9673 31.172C17.6744 30.8792 17.1995 30.8792 16.9066 31.172L17.9673 32.2327ZM37.1672 21.4208L35.0936 32.2334L36.5667 32.5159L38.6404 21.7034L37.1672 21.4208ZM21.92 19.0598L32.7325 16.9861L32.45 15.513L21.6374 17.5866L21.92 19.0598ZM18.3687 22.4038C18.809 20.6993 20.1957 19.3905 21.92 19.0598L21.6374 17.5866C19.3392 18.0274 17.5005 19.7674 16.9164 22.0286L18.3687 22.4038ZM24.0072 27.9071C20.651 28.8941 17.4888 25.8102 18.3687 22.4038L16.9164 22.0286C15.7501 26.5435 19.9375 30.6674 24.4303 29.3462L24.0072 27.9071ZM26.2462 30.1462C26.649 28.7767 25.3766 27.5044 24.0072 27.9071L24.4303 29.3462C24.6608 29.2784 24.8749 29.4925 24.8072 29.723L26.2462 30.1462ZM31.7496 35.7846C28.3431 36.6646 25.2593 33.5024 26.2462 30.1462L24.8072 29.723C23.4859 34.2159 27.6098 38.4033 32.1248 37.237L31.7496 35.7846ZM35.0936 32.2334C34.7629 33.9577 33.4541 35.3443 31.7496 35.7846L32.1248 37.237C34.386 36.6528 36.126 34.8142 36.5667 32.5159L35.0936 32.2334ZM38.6404 21.7034C39.3445 18.0321 36.1213 14.8089 32.45 15.513L32.7325 16.9861C35.3626 16.4817 37.6716 18.7908 37.1672 21.4208L38.6404 21.7034ZM20.4743 34.7397L22.1457 33.0684L21.085 32.0077L19.4137 33.6791L20.4743 34.7397ZM21.31 38.9181L22.9813 37.2467L21.9207 36.1861L20.2493 37.8574L21.31 38.9181ZM16.296 33.904L17.9673 32.2327L16.9066 31.172L15.2353 32.8434L16.296 33.904Z" fill="#CBE2D1"/>
</svg>
