<svg width="52" height="52" viewBox="0 0 52 52" fill="none" xmlns="http://www.w3.org/2000/svg">
<circle cx="26" cy="26" r="26" fill="#4EA692"/>
<path d="M20.2058 23.3506L20.9298 23.5465L20.2058 23.3506ZM23.414 20.4683L23.5491 21.206L23.414 20.4683ZM25.3066 28.0967L25.1039 27.3747L25.3066 28.0967ZM26.3211 29.0651L25.6043 28.8443L26.3211 29.0651ZM31.2933 33.9341L31.4729 34.6623L31.2933 33.9341ZM34.3129 30.8717L35.0482 31.0194L34.3129 30.8717ZM35.9213 22.8663L35.186 22.7185L35.9213 22.8663ZM31.8006 18.9329L31.6656 18.1952L31.8006 18.9329ZM21.473 31.6876C21.1734 31.9736 21.1624 32.4484 21.4484 32.748C21.7344 33.0476 22.2091 33.0587 22.5088 32.7726L21.473 31.6876ZM23.8051 31.5352C24.1047 31.2492 24.1158 30.7745 23.8298 30.4748C23.5438 30.1752 23.069 30.1642 22.7694 30.4502L23.8051 31.5352ZM22.1212 34.7812C21.8216 35.0672 21.8106 35.542 22.0966 35.8416C22.3826 36.1412 22.8573 36.1522 23.1569 35.8662L22.1212 34.7812ZM24.4533 34.6288C24.7529 34.3428 24.764 33.8681 24.478 33.5684C24.192 33.2688 23.7172 33.2578 23.4176 33.5438L24.4533 34.6288ZM18.2321 31.0689C17.9325 31.3549 17.9215 31.8296 18.2075 32.1293C18.4935 32.4289 18.9682 32.4399 19.2679 32.1539L18.2321 31.0689ZM20.5642 30.9165C20.8638 30.6305 20.8749 30.1557 20.5889 29.8561C20.3029 29.5565 19.8281 29.5455 19.5285 29.8315L20.5642 30.9165ZM35.186 22.7185L33.5776 30.724L35.0482 31.0194L36.6566 23.014L35.186 22.7185ZM23.5491 21.206L31.9357 19.6707L31.6656 18.1952L23.2789 19.7305L23.5491 21.206ZM20.9298 23.5465C21.2482 22.3701 22.2601 21.442 23.5491 21.206L23.2789 19.7305C21.4478 20.0657 19.9581 21.3949 19.4819 23.1546L20.9298 23.5465ZM25.1039 27.3747C22.5609 28.0885 20.3041 25.8584 20.9298 23.5465L19.4819 23.1546C18.5204 26.7076 21.9642 29.814 25.5093 28.8188L25.1039 27.3747ZM27.0379 29.2859C27.417 28.0554 26.2233 27.0604 25.1039 27.3747L25.5093 28.8188C25.5338 28.812 25.5504 28.8136 25.5621 28.8167C25.5758 28.8203 25.5882 28.8275 25.5971 28.836C25.606 28.8446 25.6069 28.8498 25.6061 28.8471C25.6057 28.8456 25.6053 28.8434 25.6054 28.8412C25.6054 28.8388 25.6058 28.8396 25.6043 28.8443L27.0379 29.2859ZM31.1138 33.2059C28.5278 33.8435 26.338 31.5575 27.0379 29.2859L25.6043 28.8443C24.5138 32.3841 27.9147 35.5396 31.4729 34.6623L31.1138 33.2059ZM33.5776 30.724C33.3391 31.9108 32.3875 32.8918 31.1138 33.2059L31.4729 34.6623C33.2751 34.2179 34.6882 32.8109 35.0482 31.0194L33.5776 30.724ZM36.6566 23.014C37.2408 20.1064 34.5745 17.6627 31.6656 18.1952L31.9357 19.6707C33.9144 19.3085 35.5391 20.9607 35.186 22.7185L36.6566 23.014ZM22.5088 32.7726L23.8051 31.5352L22.7694 30.4502L21.473 31.6876L22.5088 32.7726ZM23.1569 35.8662L24.4533 34.6288L23.4176 33.5438L22.1212 34.7812L23.1569 35.8662ZM19.2679 32.1539L20.5642 30.9165L19.5285 29.8315L18.2321 31.0689L19.2679 32.1539Z" fill="#CBE2D1"/>
</svg>
