<svg width="30" height="26" viewBox="0 0 30 26" fill="none" xmlns="http://www.w3.org/2000/svg">
<g clip-path="url(#clip0_21503_36142)">
<path d="M21.8984 12.0251C22.0824 12.0014 22.2665 11.9848 22.451 12.0213C22.7886 12.0087 22.9921 12.2429 23.2172 12.4371C23.3338 12.5454 23.4707 12.631 23.5771 12.7511C23.7024 12.8783 23.8592 12.9692 23.9801 13.1015C24.0976 13.2053 24.2344 13.2858 24.3425 13.401C24.5588 13.6076 24.7864 13.8006 25.0243 13.9818C25.0518 14.0035 25.0762 14.0284 25.0988 14.0552C25.3147 14.2623 25.5432 14.455 25.7805 14.6372C25.8859 14.7557 26.0216 14.8408 26.1328 14.9532C26.3882 15.1952 26.6685 15.4082 26.9342 15.6382C27.0408 15.7519 27.1765 15.8338 27.2803 15.9508C27.4032 16.0786 27.5631 16.1626 27.686 16.2906C27.7729 16.39 27.8889 16.4552 27.9866 16.5419C28.0974 16.6823 28.2541 16.7726 28.3785 16.898C28.5037 17.025 28.6605 17.1157 28.7812 17.2478C28.8985 17.3517 29.0352 17.4321 29.1434 17.547C29.3625 17.7749 29.6421 17.9396 29.8305 18.1999C29.8875 18.2868 29.9608 18.3682 29.9325 18.4854C30.0023 18.7307 30.0286 18.9778 29.9605 19.2283C29.993 19.3019 29.9464 19.3664 29.9368 19.4351C29.8645 19.6066 29.7476 19.7377 29.6015 19.856C29.3061 20.0951 29.0285 20.3559 28.7378 20.6008C28.4963 20.7891 28.2843 21.0118 28.0405 21.1972C28.0162 21.2207 27.9913 21.2439 27.9668 21.2673C27.7396 21.4571 27.5192 21.6548 27.2909 21.8432C27.2672 21.8679 27.2425 21.8918 27.2178 21.9157C26.9898 22.1069 26.7675 22.3047 26.5389 22.4951C26.515 22.5203 26.4901 22.5445 26.4651 22.5689C25.5279 23.3584 24.6171 24.1786 23.677 24.9648C23.5066 25.1074 23.3693 25.2929 23.1496 25.3719C22.9794 25.4724 22.8496 25.6294 22.6656 25.7116C22.0478 25.9872 21.352 25.6973 21.0897 25.0223C21.0239 24.9586 20.9888 24.881 20.9836 24.7897C20.9803 24.2742 20.9717 23.7588 20.9766 23.2432C20.9789 23.0016 20.9616 22.9933 20.7177 23.0268C20.5859 23.0448 20.4561 23.0736 20.3245 23.0919C20.2663 23.0947 20.2099 23.1098 20.1527 23.1186C19.9288 23.153 19.8381 23.1027 19.7884 22.8879C19.7269 22.6225 19.6736 22.3544 19.6598 22.0807C19.6824 21.9998 19.7424 21.9576 19.8158 21.9291C20.4774 21.805 21.1435 21.7095 21.8148 21.6592C22.176 21.632 22.2244 21.6819 22.2215 22.0406C22.2157 22.7888 22.2283 23.5369 22.22 24.285C22.2191 24.3732 22.1918 24.4687 22.2568 24.5473C22.5683 24.4148 22.754 24.1259 23.0213 23.9401C23.8571 23.23 24.6771 22.5013 25.5154 21.7943C25.7855 21.564 26.0483 21.3252 26.3196 21.0961C26.5748 20.8854 26.8149 20.6577 27.0699 20.4468C27.3166 20.2296 27.5748 20.0258 27.816 19.8021C27.9224 19.6869 28.0633 19.612 28.171 19.4983C28.2924 19.3696 28.4543 19.2874 28.568 19.1502C28.6307 19.0875 28.6732 19.0075 28.7386 18.9473C28.8181 18.889 28.7819 18.8472 28.7255 18.7949C28.5636 18.6448 28.3935 18.5049 28.2186 18.3706C28.1011 18.2335 27.9398 18.1459 27.815 18.0168C27.7225 17.8886 27.5727 17.8241 27.4701 17.7073C27.347 17.5788 27.1853 17.4956 27.0637 17.3652C26.9711 17.2393 26.8236 17.1743 26.7218 17.0587C26.617 16.9446 26.4755 16.8732 26.3713 16.7583C26.2662 16.6438 26.1238 16.5725 26.0195 16.457C25.9025 16.3195 25.739 16.2352 25.6155 16.1051C25.3633 15.9037 25.1397 15.6686 24.876 15.4808C24.8485 15.4594 24.8236 15.435 24.8002 15.4093C24.5913 15.231 24.4031 15.0273 24.1619 14.8882C24.1073 14.8614 24.0669 14.8201 24.0379 14.7672C23.8233 14.5297 23.5594 14.3474 23.3236 14.1335C22.9617 13.8593 22.6499 13.5243 22.2647 13.2535C22.1963 13.3544 22.2179 13.4559 22.2181 13.5498C22.2197 14.3122 22.2157 15.0747 22.2186 15.8371C22.2199 16.1938 22.1872 16.2321 21.837 16.2864C21.6326 16.3181 21.4277 16.3473 21.2255 16.3913C20.9649 16.4287 20.7153 16.5128 20.4597 16.5716C20.1251 16.6451 19.8077 16.7724 19.4855 16.8842C18.9789 17.0686 18.4849 17.2799 18.0228 17.56C17.7597 17.688 17.5197 17.8537 17.2764 18.0142C16.9748 18.2012 16.7005 18.4242 16.4314 18.6541C16.1657 18.8672 15.9192 19.1009 15.6847 19.3474C15.6615 19.3726 15.6371 19.3968 15.613 19.4211C15.1546 19.9384 14.7251 20.4767 14.387 21.0825C14.3515 21.1429 14.3158 21.2032 14.2787 21.2628C14.1317 21.5243 13.9981 21.792 13.8936 22.0737C13.6156 22.7074 13.4201 23.3658 13.2959 24.0457C13.2525 24.2214 13.227 24.3996 13.2072 24.5869C13.3286 24.5738 13.391 24.4864 13.4765 24.4407C13.9895 24.0985 14.5145 23.7758 15.0566 23.4813C15.1187 23.4479 15.1821 23.4168 15.2442 23.3829C15.4254 23.2973 15.6018 23.2022 15.7817 23.1142C16.0094 23.026 16.2304 22.922 16.4561 22.8289C16.7098 22.7478 16.8824 22.8274 16.9738 23.0677C17.0557 23.2818 17.1472 23.4925 17.19 23.7195C17.1812 23.8897 17.034 23.9068 16.9213 23.9623C16.6747 24.0572 16.426 24.1478 16.1904 24.269C16.0386 24.3662 15.8626 24.4147 15.7086 24.5075C15.5739 24.5666 15.4481 24.6415 15.3243 24.7203C15.2112 24.7739 15.107 24.8496 14.9773 24.8628C14.4949 25.1232 14.0348 25.4219 13.6024 25.7554C12.9893 26.2283 12.2689 25.9692 12.0382 25.372C11.9571 25.1219 12.0292 24.8714 12.0369 24.6211C11.9933 24.4284 12.0686 24.2387 12.051 24.0466C12.0807 23.9037 12.1035 23.7593 12.1319 23.616C12.2406 23.1194 12.3698 22.6285 12.5445 22.1504C12.5783 22.0718 12.618 21.9954 12.6445 21.9136C12.6854 21.8148 12.7286 21.7168 12.7618 21.6147C12.9906 21.1653 13.1949 20.7032 13.4578 20.2715C13.6651 19.9895 13.834 19.6807 14.0551 19.4081C14.1351 19.3267 14.192 19.2265 14.2692 19.1427C14.6283 18.7267 14.964 18.2881 15.4088 17.9539C15.4692 17.9021 15.5242 17.8446 15.5801 17.7882C15.875 17.5501 16.1686 17.3101 16.4777 17.09C16.7551 16.8735 17.0887 16.7401 17.3492 16.4985C17.7109 16.3863 18.029 16.1798 18.3707 16.0245C18.5215 15.968 18.6684 15.9029 18.8129 15.8317C19.4596 15.5788 20.1231 15.3799 20.7999 15.2259C20.8827 15.2071 20.9665 15.1967 20.9741 15.0866C20.9844 14.4187 20.9741 13.7514 20.9785 13.0844C20.9763 13.0272 20.9826 12.9709 20.9964 12.9155C21.0921 12.6219 21.22 12.3497 21.4862 12.1658C21.611 12.0795 21.741 12.0153 21.8975 12.0249L21.8984 12.0251Z" fill="#292D32"/>
</g>
<path d="M21 5.25V10.35C21 11.62 20.58 12.69 19.83 13.43C19.09 14.18 18.02 14.6 16.75 14.6V16.41C16.75 17.09 15.99 17.5 15.43 17.12L14.46 16.48C14.55 16.17 14.59 15.83 14.59 15.47V11.4C14.59 9.36002 13.23 8 11.19 8H4.39999C4.25999 8 4.13 8.01002 4 8.02002V5.25C4 2.7 5.7 1 8.25 1H16.75C19.3 1 21 2.7 21 5.25Z" stroke="#6D597A" stroke-width="1.5" stroke-miterlimit="10" stroke-linecap="round" stroke-linejoin="round"/>
<path d="M14.59 11.4V15.47C14.59 15.83 14.55 16.17 14.46 16.48C14.09 17.95 12.87 18.87 11.19 18.87H8.47L5.45 20.88C5 21.19 4.39999 20.86 4.39999 20.32V18.87C3.37999 18.87 2.53 18.53 1.94 17.94C1.34 17.34 1 16.49 1 15.47V11.4C1 9.50002 2.18 8.19002 4 8.02002C4.13 8.01002 4.25999 8 4.39999 8H11.19C13.23 8 14.59 9.36002 14.59 11.4Z"  stroke="#6D597A" stroke-width="1.5" stroke-miterlimit="10" stroke-linecap="round" stroke-linejoin="round"/>
<defs>
<clipPath id="clip0_21503_36142">
<rect width="18" height="14" fill="white" transform="translate(12 12)"/>
</clipPath>
</defs>
</svg>
