<svg width="30" height="28" viewBox="0 0 30 28" fill="none" xmlns="http://www.w3.org/2000/svg">
<g clip-path="url(#clip0_21503_36124)">
<path d="M21.8984 14.0251C22.0824 14.0014 22.2665 13.9848 22.451 14.0213C22.7886 14.0087 22.9921 14.2429 23.2172 14.4371C23.3338 14.5454 23.4707 14.631 23.5771 14.7511C23.7024 14.8783 23.8592 14.9692 23.9801 15.1015C24.0976 15.2053 24.2344 15.2858 24.3425 15.401C24.5588 15.6076 24.7864 15.8006 25.0243 15.9818C25.0518 16.0035 25.0762 16.0284 25.0988 16.0552C25.3147 16.2623 25.5432 16.455 25.7805 16.6372C25.8859 16.7557 26.0216 16.8408 26.1328 16.9532C26.3882 17.1952 26.6685 17.4082 26.9342 17.6382C27.0408 17.7519 27.1765 17.8338 27.2803 17.9508C27.4032 18.0786 27.5631 18.1626 27.686 18.2906C27.7729 18.39 27.8889 18.4552 27.9866 18.5419C28.0974 18.6823 28.2541 18.7726 28.3785 18.898C28.5037 19.025 28.6605 19.1157 28.7812 19.2478C28.8985 19.3517 29.0352 19.4321 29.1434 19.547C29.3625 19.7749 29.6421 19.9396 29.8305 20.1999C29.8875 20.2868 29.9608 20.3682 29.9325 20.4854C30.0023 20.7307 30.0286 20.9778 29.9605 21.2283C29.993 21.3019 29.9464 21.3664 29.9368 21.4351C29.8645 21.6066 29.7476 21.7377 29.6015 21.856C29.3061 22.0951 29.0285 22.3559 28.7378 22.6008C28.4963 22.7891 28.2843 23.0118 28.0405 23.1972C28.0162 23.2207 27.9913 23.2439 27.9668 23.2673C27.7396 23.4571 27.5192 23.6548 27.2909 23.8432C27.2672 23.8679 27.2425 23.8918 27.2178 23.9157C26.9898 24.1069 26.7675 24.3047 26.5389 24.4951C26.515 24.5203 26.4901 24.5445 26.4651 24.5689C25.5279 25.3584 24.6171 26.1786 23.677 26.9648C23.5066 27.1074 23.3693 27.2929 23.1496 27.3719C22.9794 27.4724 22.8496 27.6294 22.6656 27.7116C22.0478 27.9872 21.352 27.6973 21.0897 27.0223C21.0239 26.9586 20.9888 26.881 20.9836 26.7897C20.9803 26.2742 20.9717 25.7588 20.9766 25.2432C20.9789 25.0016 20.9616 24.9933 20.7177 25.0268C20.5859 25.0448 20.4561 25.0736 20.3245 25.0919C20.2663 25.0947 20.2099 25.1098 20.1527 25.1186C19.9288 25.153 19.8381 25.1027 19.7884 24.8879C19.7269 24.6225 19.6736 24.3544 19.6598 24.0807C19.6824 23.9998 19.7424 23.9576 19.8158 23.9291C20.4774 23.805 21.1435 23.7095 21.8148 23.6592C22.176 23.632 22.2244 23.6819 22.2215 24.0406C22.2157 24.7888 22.2283 25.5369 22.22 26.285C22.2191 26.3732 22.1918 26.4687 22.2568 26.5473C22.5683 26.4148 22.754 26.1259 23.0213 25.9401C23.8571 25.23 24.6771 24.5013 25.5154 23.7943C25.7855 23.564 26.0483 23.3252 26.3196 23.0961C26.5748 22.8854 26.8149 22.6577 27.0699 22.4468C27.3166 22.2296 27.5748 22.0258 27.816 21.8021C27.9224 21.6869 28.0633 21.612 28.171 21.4983C28.2924 21.3696 28.4543 21.2874 28.568 21.1502C28.6307 21.0875 28.6732 21.0075 28.7386 20.9473C28.8181 20.889 28.7819 20.8472 28.7255 20.7949C28.5636 20.6448 28.3935 20.5049 28.2186 20.3706C28.1011 20.2335 27.9398 20.1459 27.815 20.0168C27.7225 19.8886 27.5727 19.8241 27.4701 19.7073C27.347 19.5788 27.1853 19.4956 27.0637 19.3652C26.9711 19.2393 26.8236 19.1743 26.7218 19.0587C26.617 18.9446 26.4755 18.8732 26.3713 18.7583C26.2662 18.6438 26.1238 18.5725 26.0195 18.457C25.9025 18.3195 25.739 18.2352 25.6155 18.1051C25.3633 17.9037 25.1397 17.6686 24.876 17.4808C24.8485 17.4594 24.8236 17.435 24.8002 17.4093C24.5913 17.231 24.4031 17.0273 24.1619 16.8882C24.1073 16.8614 24.0669 16.8201 24.0379 16.7672C23.8233 16.5297 23.5594 16.3474 23.3236 16.1335C22.9617 15.8593 22.6499 15.5243 22.2647 15.2535C22.1963 15.3544 22.2179 15.4559 22.2181 15.5498C22.2197 16.3122 22.2157 17.0747 22.2186 17.8371C22.2199 18.1938 22.1872 18.2321 21.837 18.2864C21.6326 18.3181 21.4277 18.3473 21.2255 18.3913C20.9649 18.4287 20.7153 18.5128 20.4597 18.5716C20.1251 18.6451 19.8077 18.7724 19.4855 18.8842C18.9789 19.0686 18.4849 19.2799 18.0228 19.56C17.7597 19.688 17.5197 19.8537 17.2764 20.0142C16.9748 20.2012 16.7005 20.4242 16.4314 20.6541C16.1657 20.8672 15.9192 21.1009 15.6847 21.3474C15.6615 21.3726 15.6371 21.3968 15.613 21.4211C15.1546 21.9384 14.7251 22.4767 14.387 23.0825C14.3515 23.1429 14.3158 23.2032 14.2787 23.2628C14.1317 23.5243 13.9981 23.792 13.8936 24.0737C13.6156 24.7074 13.4201 25.3658 13.2959 26.0457C13.2525 26.2214 13.227 26.3996 13.2072 26.5869C13.3286 26.5738 13.391 26.4864 13.4765 26.4407C13.9895 26.0985 14.5145 25.7758 15.0566 25.4813C15.1187 25.4479 15.1821 25.4168 15.2442 25.3829C15.4254 25.2973 15.6018 25.2022 15.7817 25.1142C16.0094 25.026 16.2304 24.922 16.4561 24.8289C16.7098 24.7478 16.8824 24.8274 16.9738 25.0677C17.0557 25.2818 17.1472 25.4925 17.19 25.7195C17.1812 25.8897 17.034 25.9068 16.9213 25.9623C16.6747 26.0572 16.426 26.1478 16.1904 26.269C16.0386 26.3662 15.8626 26.4147 15.7086 26.5075C15.5739 26.5666 15.4481 26.6415 15.3243 26.7203C15.2112 26.7739 15.107 26.8496 14.9773 26.8628C14.4949 27.1232 14.0348 27.4219 13.6024 27.7554C12.9893 28.2283 12.2689 27.9692 12.0382 27.372C11.9571 27.1219 12.0292 26.8714 12.0369 26.6211C11.9933 26.4284 12.0686 26.2387 12.051 26.0466C12.0807 25.9037 12.1035 25.7593 12.1319 25.616C12.2406 25.1194 12.3698 24.6285 12.5445 24.1504C12.5783 24.0718 12.618 23.9954 12.6445 23.9136C12.6854 23.8148 12.7286 23.7168 12.7618 23.6147C12.9906 23.1653 13.1949 22.7032 13.4578 22.2715C13.6651 21.9895 13.834 21.6807 14.0551 21.4081C14.1351 21.3267 14.192 21.2265 14.2692 21.1427C14.6283 20.7267 14.964 20.2881 15.4088 19.9539C15.4692 19.9021 15.5242 19.8446 15.5801 19.7882C15.875 19.5501 16.1686 19.3101 16.4777 19.09C16.7551 18.8735 17.0887 18.7401 17.3492 18.4985C17.7109 18.3863 18.029 18.1798 18.3707 18.0245C18.5215 17.968 18.6684 17.9029 18.8129 17.8317C19.4596 17.5788 20.1231 17.3799 20.7999 17.2259C20.8827 17.2071 20.9665 17.1967 20.9741 17.0866C20.9844 16.4187 20.9741 15.7514 20.9785 15.0844C20.9763 15.0272 20.9826 14.9709 20.9964 14.9155C21.0921 14.6219 21.22 14.3497 21.4862 14.1658C21.611 14.0795 21.741 14.0153 21.8975 14.0249L21.8984 14.0251Z" fill="#292D32"/>
</g>
<path d="M7.81484 9.87C7.71484 9.86 7.59484 9.86 7.48484 9.87C5.10484 9.79 3.21484 7.84 3.21484 5.44C3.21484 2.99 5.19484 1 7.65484 1C10.1048 1 12.0948 2.99 12.0948 5.44C12.0848 7.84 10.1948 9.79 7.81484 9.87Z"  stroke="#6D597A" stroke-width="1.5" stroke-linecap="round" stroke-linejoin="round"/>
<path d="M15.0636 3C17.0036 3 18.5636 4.57 18.5636 6.5C18.5636 8.39 17.0636 9.93 15.1936 10C15.1136 9.99 15.0236 9.99 14.9336 10"  stroke="#6D597A" stroke-width="1.5" stroke-linecap="round" stroke-linejoin="round"/>
<path d="M2.815 13.56C0.395 15.18 0.395 17.82 2.815 19.43C5.565 21.27 10.075 21.27 12.825 19.43C15.245 17.81 15.245 15.17 12.825 13.56C10.085 11.73 5.575 11.73 2.815 13.56Z"  stroke="#6D597A" stroke-width="1.5" stroke-linecap="round" stroke-linejoin="round"/>
<path d="M16.9941 19C17.7141 18.85 18.3941 18.56 18.9541 18.13C20.5141 16.96 20.5141 15.03 18.9541 13.86C18.4041 13.44 17.7341 13.16 17.0241 13"  stroke="#6D597A" stroke-width="1.5" stroke-linecap="round" stroke-linejoin="round"/>
<defs>
<clipPath id="clip0_21503_36124">
<rect width="18" height="14" fill="white" transform="translate(12 14)"/>
</clipPath>
</defs>
</svg>
