<svg width="201" height="201" viewBox="0 0 201 201" fill="none" xmlns="http://www.w3.org/2000/svg">
<g clip-path="url(#clip0_19496_34313)">
<path d="M184.107 98.0565C181.933 56.4473 152.588 23.7045 111.481 17.5294C107.997 17.0037 104.45 16.9174 100.927 16.7134C95.2388 16.3838 91.5667 13.0726 91.6373 8.23145C91.7157 3.22547 95.6232 -0.250459 101.532 0.0163165C142.835 1.88375 173.498 21.0524 191.058 58.4246C219.729 119.414 180.921 190.204 114.345 199.941C58.2354 208.149 6.19836 167.787 0.368517 111.066C-0.557352 102.074 0.454827 92.8387 1.13746 83.7604C1.5847 77.8521 5.86881 74.6037 10.7806 75.4041C15.8415 76.2201 18.5328 80.5748 17.5128 86.7499C15.206 100.709 16.3751 114.369 20.926 127.731C32.9544 163.032 68.8593 186.555 104.976 184.068C144.671 181.338 176.731 151.498 182.529 114.016C183.345 108.735 183.597 103.376 184.107 98.0486V98.0565Z" fill="#CBE2D1"/>
<path d="M57.35 16.729C52.8619 16.729 49.1348 16.7604 45.4 16.7211C39.8134 16.6584 36.0157 13.253 36 8.36477C35.9844 3.50788 39.7663 0.0711756 45.3764 0.0397902C55.8356 -0.0151343 66.2948 0.0711754 76.7462 0.000558275C80.7949 -0.0308271 84.004 1.25597 85.5576 5.16346C87.0798 8.99248 85.9264 12.2644 83.0311 15.1048C77.1777 20.8483 71.4028 26.6703 64.6706 33.3789C69.6609 33.3789 73.4899 33.2691 77.3111 33.4025C83.0311 33.5986 86.5698 37.3727 86.1461 42.6219C85.793 47.0708 82.3877 50.1858 77.2797 50.2407C66.5616 50.3584 55.8435 50.2957 45.1254 50.2643C41.265 50.2486 38.2363 48.6636 36.7062 44.9915C35.1762 41.2959 36.259 38.1024 39.0052 35.3641C44.0975 30.2875 49.1819 25.203 54.2507 20.1108C55.1295 19.2241 55.9376 18.2747 57.3421 16.7368L57.35 16.729Z" fill="#FF9D48"/>
<path d="M91.5983 75.3647C91.5983 68.0519 91.5983 60.7312 91.5983 53.4184C91.5983 45.8467 94.6427 41.7195 100.151 41.798C105.557 41.8764 108.507 45.9016 108.507 53.2301C108.507 66.2943 108.586 79.3585 108.444 92.4148C108.413 95.1767 109.19 96.9421 111.465 98.5899C120.442 105.118 129.261 111.858 138.143 118.512C141.313 120.889 142.521 124.059 141.54 127.818C140.685 131.121 138.339 133.443 134.926 133.64C132.76 133.765 130.085 133.247 128.374 132.007C117.272 123.965 106.381 115.632 95.4038 107.425C92.6498 105.369 91.5748 102.599 91.5905 99.2647C91.614 91.3006 91.5905 83.3287 91.5905 75.3647H91.5983Z" fill="#CBE2D1"/>
<path d="M14.9011 43.6431C12.3993 43.6431 10.3218 43.6612 8.23984 43.6386C5.1257 43.6024 3.00877 41.6395 3.00003 38.8217C2.99128 36.0221 5.09945 34.041 8.22672 34.0229C14.057 33.9913 19.8873 34.041 25.7132 34.0003C27.9701 33.9822 29.759 34.724 30.625 36.9764C31.4735 39.1836 30.8305 41.0696 29.2166 42.7069C25.9538 46.0177 22.7346 49.3737 18.9819 53.2407C21.7636 53.2407 23.8981 53.1774 26.0281 53.2543C29.2166 53.3674 31.1892 55.5429 30.953 58.5687C30.7562 61.1332 28.858 62.9288 26.0106 62.9605C20.036 63.0283 14.0614 62.9921 8.08676 62.974C5.93485 62.965 4.24656 62.0514 3.39367 59.9346C2.54078 57.8044 3.14436 55.9635 4.67519 54.385C7.51379 51.4587 10.348 48.5279 13.1735 45.5925C13.6634 45.0814 14.1139 44.5342 14.8968 43.6477L14.9011 43.6431Z" fill="#FF9D48"/>
</g>
<defs>
<clipPath id="clip0_19496_34313">
<rect width="200.623" height="201" fill="white"/>
</clipPath>
</defs>
</svg>
