<svg width="335" height="168" viewBox="0 0 335 168" fill="none" xmlns="http://www.w3.org/2000/svg">
<path d="M218 168H53L69.545 126H203.806L218 168Z" fill="white" fill-opacity="0.18"/>
<g style="mix-blend-mode:multiply">
<path d="M213.495 147.554H56.7129L72.4426 127.25H200.01L213.495 147.554Z" fill="white" fill-opacity="0.17"/>
</g>
<g style="mix-blend-mode:multiply" opacity="0.73">
<path d="M136 131.281C211.111 131.281 272 128.595 272 125.281C272 121.968 211.111 119.281 136 119.281C60.8893 119.281 0 121.968 0 125.281C0 128.595 60.8893 131.281 136 131.281Z" fill="#6F4B91"/>
</g>
<path d="M261.287 72.5146H2.96523C1.50879 72.5146 0.328125 73.6953 0.328125 75.1518V97.7422C0.328125 99.1986 1.50879 100.379 2.96523 100.379H261.287C262.743 100.379 263.924 99.1986 263.924 97.7422V75.1518C263.924 73.6953 262.743 72.5146 261.287 72.5146Z" fill="#402B54"/>
<path d="M265.238 105.01H1.64258V125.242H265.238V105.01Z" fill="#9478A6"/>
<path d="M264.845 100.165H2.02139C1.30304 100.165 0.720703 100.747 0.720703 101.466V103.71C0.720703 104.428 1.30304 105.01 2.02139 105.01H264.845C265.564 105.01 266.146 104.428 266.146 103.71V101.466C266.146 100.747 265.564 100.165 264.845 100.165Z" fill="#CBE2D1"/>
<g style="mix-blend-mode:multiply">
<path d="M259.228 84.7991C258.256 84.5776 257.099 84.4704 255.934 84.4704C255.14 84.4704 254.69 84.7849 255.176 85.0064L255.391 85.0993L257.677 86.1213L257.77 86.1641C257.77 86.1641 257.627 86.1356 257.349 86.0855H257.313C257.313 86.0855 257.263 86.0784 257.242 86.0712C257.17 86.0569 257.084 86.0498 256.991 86.0355C256.949 86.0141 256.906 85.9926 256.856 85.9712C256.963 85.9712 257.077 85.9712 257.184 85.9855C256.155 85.4352 254.533 85.1565 253.89 84.4918C253.418 83.9987 253.361 83.4198 253.318 82.9124C253.247 81.9977 253.954 81.0972 254.283 80.2039C254.597 79.332 254.476 78.4744 253.504 77.6525C252.46 76.7735 249.216 76.2089 246.636 76.0303C245.535 75.9516 243.92 75.8659 242.176 75.9302C241.49 75.9016 240.783 75.9088 240.083 75.9445C240.075 75.9445 240.061 75.9445 240.054 75.9445C238.725 76.0231 237.453 76.0445 236.073 76.0445C233.529 76.0445 231.056 75.9874 228.498 75.9874C226.332 75.9874 224.06 76.1517 222.109 76.459C221.809 75.8016 220.665 75.2656 219.093 74.8868C218.185 74.4366 216.785 74.115 215.127 74.0578C213.661 74.0078 212.296 74.1578 211.232 74.4294C210.71 74.4794 210.188 74.5366 209.681 74.6152C201.234 75.923 187.641 78.4815 174.841 76.1732C174.841 76.1732 156.682 68.0832 130.332 78.4458L114.967 84.0916C114.967 84.0916 96.4928 83.7772 73.2234 85.0564L67.8634 85.0779L67.7491 85.0207C66.5056 84.3918 64.5688 83.963 62.3891 83.8558C58.437 83.6628 53.4916 83.8201 53.4916 83.8201C49.0464 83.3269 44.9371 83.1983 42.3071 83.184C40.2418 83.1697 38.1764 83.2626 36.2397 83.5127C31.9088 84.0702 32.9951 84.7706 35.818 85.4066C32.3233 85.428 28.4641 85.6424 24.7693 86.2499C23.3329 86.4857 22.2323 86.9431 22.0679 87.4934C21.8535 88.2081 23.1756 89.0657 30.7439 89.0228L47.1597 88.6726L115.496 89.8589C117.775 89.9018 120.048 89.7374 122.092 89.3873C122.492 89.3158 122.935 89.2372 123.4 89.1586C161.355 88.9084 172.04 86.1713 174.319 85.3995L191.807 84.9778C194.237 84.9206 196.624 85.1922 198.282 85.7139C199.997 86.4429 203.185 86.7359 206.015 86.4286L207.079 86.3142C207.351 87.1146 209.302 87.7293 211.66 87.7293L247.129 87.6435H260.743C261.722 87.6435 262.537 87.3791 262.587 87.0432C262.659 86.4357 262.216 85.4852 259.221 84.7991H259.228Z" fill="#ECB8FF"/>
</g>
<path d="M257.742 73.164C257.134 68.6259 252.939 68.8189 249.873 68.1829C246.7 67.5254 243.698 66.9679 240.411 66.7535C235.666 66.4462 231.042 66.3104 226.318 67.5397C222.673 68.483 218.943 70.6913 215.369 71.263C215.033 73.893 215.341 77.3377 215.341 77.3377C215.341 81.2469 213.39 85.592 217.235 86.6569C220.608 87.5931 224.81 86.5354 228.205 86.3353C235.701 85.885 242.634 88.0647 249.88 88.515C251.696 88.6293 253.539 88.5721 255.369 88.5864C257.756 88.6079 258.342 88.9295 258.342 85.6563C258.342 82.0187 258.242 76.8517 257.749 73.1712L257.742 73.164Z" fill="#CBE2D1"/>
<path d="M237.366 82.0839C235.93 81.4621 234.186 81.5193 232.721 82.4055C231.456 83.1773 231.606 83.6918 231.278 85.0926C230.899 86.7363 229.655 87.3009 228.505 87.8011C225.324 89.1876 221.744 89.1804 218.414 89.1804C214.747 89.1804 210.888 89.0447 207.286 88.1585C204.571 87.4938 201.848 87.5582 199.082 87.6082C200.526 86.8792 202.076 86.5862 203.613 86.3933C204.342 86.3004 205.914 86.3647 206.457 85.6357C207.386 84.3994 206.021 84.1564 205.643 83.2702C203.592 78.5248 214.826 80.5545 210.717 76.0307C211.767 74.9801 214.14 75.4875 215.341 75.6733C217.699 76.045 220.057 76.681 222.387 77.217C225.432 77.9174 228.548 78.0603 231.556 78.9822C232.957 79.411 234.894 79.7755 236.03 81.0262" fill="#6F4B91"/>
<path d="M245.556 76.0735C244.863 74.7014 244.169 73.415 243.984 71.9285C243.769 70.2205 243.712 68.5196 243.726 66.8115C243.741 65.2964 244.227 63.8314 244.312 62.3235C244.391 60.9156 243.884 59.3862 243.441 58.0283C242.84 56.1917 241.282 54.8195 240.067 53.2473L236.901 50.9103C235.386 49.7883 233.264 49.2594 231.213 49.6025C231.206 49.6025 231.191 49.6025 231.184 49.6025C229.855 49.8312 228.583 49.8955 227.203 49.8955C224.659 49.8955 222.186 49.7383 219.628 49.7383C214.211 49.7383 208.122 52.7113 208.122 57.4352C208.122 62.3949 207.65 68.1051 201.654 70.8494C198.853 72.1286 195.415 72.9576 192.878 74.5084C192.042 75.0158 190.884 76.924 192.221 77.4814C192.564 77.6244 193.271 77.4099 193.607 77.3599C194.779 77.1741 195.937 76.924 197.138 76.8239C199.139 76.6596 201.283 76.6881 203.262 76.9597C207.5 77.5457 211.274 79.1466 215.519 79.6897C219.742 80.2329 223.709 80.7617 228.004 80.5902C231.27 80.4616 234.443 79.7397 237.695 79.6468C240.417 79.5682 243.119 79.3967 245.856 79.411C246.721 79.411 247.6 79.6325 248.443 79.5611C248.415 78.2318 246.185 77.2956 245.563 76.0735H245.556Z" fill="#043A4E"/>
<path d="M165.956 76.3023C165.956 76.3023 157.773 88.3943 105.081 87.794L44.7424 82.4841C39.7041 82.041 34.7586 80.8189 30.1705 78.6892C25.4109 76.4809 21.5874 73.5937 27.3476 71.464C29.2843 70.7493 31.3497 70.4778 33.4151 70.5207C36.0522 70.5707 40.1543 70.9352 44.5995 72.3645C44.5995 72.3645 49.5378 71.9214 53.4971 72.4788C55.6768 72.7861 57.6135 74.0225 58.857 75.8449L58.9714 76.0092L112.857 75.2874C112.857 75.2874 151.377 59.6078 165.949 62.9167V76.288L165.956 76.3023Z" fill="#6F4B91"/>
<path d="M165.956 50.2888C165.956 50.2888 147.797 26.9193 121.447 56.8565L106.082 73.1722C106.082 73.1722 81.5334 71.9645 53.39 77.9819L39.2183 78.8681C39.2183 78.8681 26.8189 74.2156 15.8846 79.3826C14.4481 80.0616 13.3475 81.3908 13.1832 82.9774C12.9688 85.0499 14.2909 87.5155 21.8591 87.394L38.2749 86.3792L106.611 89.7953C108.891 89.9239 111.163 89.4522 113.207 88.4231C122.133 83.935 147.461 70.9997 153.192 65.7969L165.963 65.8898V50.2888H165.956Z" fill="#6F4B91"/>
<path d="M213.039 62.6237C212.717 65.4823 212.274 68.4553 211.846 71.3926C211.417 74.337 208.801 76.724 205.349 77.3171L197.124 79.8685C194.286 80.7475 191.106 79.8971 189.391 77.796C187.883 76.4238 185.775 75.652 183.574 75.652C183.359 75.652 183.138 75.6591 182.916 75.6734L164.764 76.9455L165.185 67.5978L165.957 50.2887C178.764 56.9564 192.357 49.5668 200.804 45.7791C206.014 43.4422 212.453 46.1651 213.232 51.1034C213.747 54.3193 213.525 58.3357 213.039 62.6237Z" fill="#FF9D48"/>
<path d="M218.225 69.4564H210.392C208.055 69.4564 206.154 67.5625 206.154 65.2184C206.154 62.8815 208.048 60.9805 210.392 60.9805H218.225V69.4564Z" fill="#FBA57F"/>
<path d="M228.81 75.8099C223.422 77.5251 216.69 75.2668 214.439 70.2498C214.396 70.1426 214.339 70.0211 214.303 69.8997C212.938 66.1334 215.954 60.6877 219.763 57.4931C219.813 55.6279 220.113 53.5482 222.464 52.3404C224.315 51.3971 227.052 51.2827 227.603 52.8764C227.774 53.3624 227.724 53.9556 227.538 54.5845C233.434 54.3915 240.724 56.9571 242.11 60.9521C242.468 61.9884 242.696 63.0246 242.739 64.0537C242.875 68.2488 239.766 72.3366 228.81 75.8099Z" fill="#FDBCA0"/>
<path d="M228.81 75.8096C223.422 77.5248 216.69 75.2664 214.439 70.2495C214.396 70.1423 214.338 70.0208 214.303 69.8993C217.797 70.1352 224.63 70.2567 224.63 70.2567L225.752 71.3858L226.952 69.6421C233.899 68.5701 240.073 65.5113 242.732 64.0605C242.868 68.2556 239.759 72.3435 228.803 75.8167L228.81 75.8096Z" fill="#FBA57F"/>
<path d="M229.575 61.6736C229.575 61.8022 229.661 61.9237 229.789 61.9737C231.819 62.7884 231.212 64.6394 231.183 64.718C231.119 64.8967 231.219 65.0897 231.397 65.154C231.576 65.2111 231.769 65.1182 231.833 64.9396C232.133 64.0605 232.141 62.181 230.047 61.3377C229.868 61.2662 229.668 61.352 229.596 61.5306C229.575 61.5807 229.568 61.6235 229.575 61.6736Z" fill="#043A4E"/>
<path d="M232.599 70.221C232.541 70.3139 232.534 70.4354 232.599 70.5355C233.592 72.0791 232.27 73.0511 232.213 73.094C232.084 73.1869 232.055 73.3655 232.148 73.4942C232.241 73.6228 232.42 73.6514 232.549 73.5585C233.185 73.1082 234.106 71.8219 233.077 70.221C232.992 70.0852 232.813 70.0495 232.677 70.1353C232.641 70.1567 232.613 70.1853 232.591 70.221H232.599Z" fill="#043A4E"/>
<path d="M224.493 70.6072C224.435 70.4714 224.493 70.3142 224.636 70.257C224.771 70.1998 224.929 70.257 224.986 70.3999C224.986 70.3999 225.2 70.8716 225.507 70.8859C225.65 70.8859 226.036 70.793 226.601 69.7425C226.672 69.6138 226.837 69.5638 226.965 69.6353C227.094 69.7067 227.144 69.8711 227.073 69.9997C226.544 70.9788 226.022 71.4433 225.479 71.4219C224.829 71.3933 224.507 70.6429 224.493 70.6143V70.6072Z" fill="#043A4E"/>
<path d="M227.925 66.3909C227.653 66.3909 227.382 66.3052 227.153 66.1479C226.86 65.9407 226.667 65.6334 226.61 65.2832C226.553 64.933 226.631 64.5757 226.839 64.2827C227.046 63.9897 227.353 63.7967 227.703 63.7324C227.861 63.7109 228.025 63.811 228.046 63.9754C228.075 64.1397 227.968 64.2898 227.803 64.3184C227.61 64.3541 227.439 64.4613 227.325 64.6186C227.21 64.7829 227.167 64.9759 227.203 65.1688C227.239 65.3618 227.346 65.5333 227.503 65.6477C227.668 65.762 227.861 65.8049 228.054 65.7692C228.218 65.7477 228.375 65.8478 228.397 66.0121C228.425 66.1765 228.318 66.3266 228.154 66.3552C228.075 66.3695 227.996 66.3766 227.925 66.3766V66.3909Z" fill="#043A4E"/>
<path d="M229.182 73.2227C228.56 73.2227 228.003 72.7867 227.874 72.1578C227.724 71.436 228.188 70.7214 228.91 70.5713C229.075 70.5427 229.232 70.6427 229.267 70.8C229.303 70.9643 229.196 71.1216 229.039 71.1573C228.639 71.2431 228.381 71.6361 228.467 72.0363C228.553 72.4365 228.946 72.6938 229.346 72.6081C229.51 72.5723 229.668 72.6795 229.703 72.8368C229.739 73.0011 229.632 73.1584 229.475 73.1941C229.382 73.2155 229.289 73.2227 229.196 73.2227H229.182Z" fill="#043A4E"/>
<path d="M223.051 68.9921C223.036 69.6711 222.35 70.2142 221.521 70.1928C220.692 70.1713 220.035 69.6067 220.049 68.9278C220.063 68.2489 220.749 67.7057 221.578 67.7272C222.407 67.7486 223.065 68.3132 223.051 68.9921Z" fill="#043A4E"/>
<path d="M245.005 74.2728C244.533 72.8506 244.476 71.1855 244.433 69.7061C244.361 67.069 245.069 64.4605 245.398 61.8734C245.712 59.3578 245.591 56.8851 244.619 54.5053C243.575 51.9539 240.331 50.3316 237.751 49.8242C235.192 49.3168 229.847 48.5807 226.638 53.812C225.859 55.0841 225.98 56.6064 226.745 57.8427C227.46 58.9862 228.553 59.9867 229.818 60.5299C230.926 61.0087 232.219 60.8014 233.284 61.2016C232.634 62.1736 232.627 63.6458 232.605 64.7821C232.555 67.2191 232.777 68.8199 233.884 71.0711C235.735 74.8374 239.981 76.9242 243.883 78.0391C245.319 78.4464 246.863 78.3392 248.306 78.5751C247.277 76.9814 245.655 76.1881 245.012 74.2728H245.005Z" fill="#043A4E"/>
<path d="M253.703 81.6409C253.667 82.3126 253.281 82.8701 252.731 83.1559C252.467 83.2989 252.174 83.3775 251.859 83.3775H238.245L202.769 83.6276C200.897 83.6276 199.274 82.5199 198.553 80.9048C198.331 80.4116 198.188 79.8685 198.152 79.2968L198.367 76.0022L200.096 49.7527C200.096 47.3657 201.583 45.3146 203.691 44.5142C204.198 44.3212 204.742 44.1998 205.306 44.1569C205.413 44.1497 205.521 44.1426 205.635 44.1426C205.835 44.1426 206.042 44.1497 206.249 44.1712C208.329 44.3713 210.016 45.7649 210.809 47.6087C211.266 48.6664 211.324 49.8599 211.138 50.9962L207.25 74.337C211.302 73.7796 230.777 77.2028 236.594 78.2534C241.897 75.5448 246.921 78.1676 248.364 78.8251C248.386 78.8537 248.407 78.8608 248.436 78.8608L248.472 78.8751C248.743 79.0181 248.886 79.1038 248.886 79.1038L248.793 78.9823L246.506 76.0379L246.292 75.7592C245.799 75.1303 246.256 74.2155 247.042 74.2155C248.207 74.2155 249.365 74.53 250.337 75.166C253.331 77.1385 253.774 79.8828 253.703 81.6409Z" fill="#FDBCA0"/>
<path d="M252.583 83.2807C252.318 83.4236 252.025 83.5023 251.711 83.5023H238.096L202.621 83.7524C200.176 83.7524 198.154 81.8657 198.004 79.4215L198.218 76.127C199.505 78.2566 202.249 80.5364 208.124 80.7437L235.066 80.6508C236.145 80.6508 236.896 79.5645 236.51 78.5497L236.446 78.3781C236.574 78.5282 238.768 80.9009 243.278 81.0295C243.535 81.0367 243.799 81.0367 244.071 81.0295C249.274 80.8795 251.654 82.5446 251.654 82.5446L252.575 83.2736L252.583 83.2807Z" fill="#FBA57F"/>
<path d="M248.363 78.8252C248.363 78.8252 248.413 78.8607 248.434 78.8607L248.377 78.8465L248.363 78.8252Z" fill="#FCC775"/>
<path d="M251.809 79.9177L248.793 78.9815L246.506 76.0371C250.208 76.7303 251.809 79.9177 251.809 79.9177Z" fill="#FBA57F"/>
<path d="M217.885 51.6679C215.148 49.481 212.153 50.9675 210.745 53.8762C209.595 56.2489 208.873 59.3291 209.466 61.9233C209.766 63.2454 210.231 64.4675 210.81 65.6681L212.196 68.1194C211.96 65.1178 214.805 61.1943 216.706 59.0503C218.628 56.8778 220.936 54.1049 217.885 51.6607V51.6679Z" fill="#043A4E"/>
<path d="M202.699 79.7356L198.404 81.0291C198.183 80.536 198.04 79.9929 198.004 79.4211L198.218 76.1266L199.948 49.877C199.948 47.4901 201.434 45.439 203.543 44.6386C204.05 44.4456 204.593 44.3241 205.158 44.2812C201.477 45.3389 197.182 73.368 202.699 79.7356Z" fill="#FBA57F"/>
<path d="M188.347 90.1021C186.932 91.5243 185.86 92.4891 184.888 94.3043C183.202 97.4488 183.816 100.586 183.616 104.038C183.452 106.768 182.63 110.913 179.907 112.278C176.177 114.15 171.017 111.042 168.029 109.019C160.418 103.881 150.913 99.9573 141.88 103.952C131.625 108.498 121.962 116.187 110.099 112.821C108.241 112.299 106.047 111.292 105.589 109.241C105.211 107.526 105.532 105.803 104.003 104.453C100.194 101.079 92.6326 106.904 89.1665 108.476C82.1629 111.656 74.7304 112.707 67.0263 112.407C61.7736 112.199 59.165 109.384 56.2206 105.46C49.3313 96.2768 34.4378 101.923 25.2615 103.995C21.4238 104.86 18.1435 106.318 14.1414 106.318C10.9111 106.318 6.02997 106.132 3.67873 103.616C0.970167 100.708 5.05088 98.0349 6.21578 95.3763C6.82324 93.9899 7.70228 92.2461 7.40212 90.7024C7.11626 89.1945 6.11573 87.9581 5.8656 86.393C5.36534 83.2557 4.53633 79.3393 6.08 76.3663C7.65225 73.329 11.0612 70.8777 14.4916 71.5138C15.8065 71.7639 16.9428 71.9497 18.0291 72.0283C18.6652 72.0784 19.2798 72.0926 19.9087 72.0569C19.9444 72.0569 19.973 72.0569 20.0087 72.0569C21.1951 71.9854 22.4243 71.7425 23.8751 71.2708C27.5484 70.0702 31.3647 69.2983 35.1453 68.648C38.3398 68.0977 41.6201 67.7547 44.8647 67.3402C46.2511 67.1615 47.9734 67.04 49.6672 67.09C51.3181 67.14 52.9332 67.3473 54.191 67.8047C55.8776 68.4264 57.4141 69.6056 58.8506 70.5919C60.2227 71.5352 61.2804 72.8287 62.7026 73.5434C63.2029 73.8078 63.7532 73.9937 64.3749 74.0651C68.4199 74.5154 72.7365 73.6292 76.71 73.1718C77.589 73.0717 78.4681 72.9431 79.3399 72.8002C82.0985 72.3499 84.8285 71.7853 87.6443 71.6924C90.5244 71.5995 93.4331 71.6924 96.2917 71.5567C96.4775 71.5567 96.6562 71.5424 96.842 71.5352C102.681 71.2136 107.505 68.5837 111.628 64.7674C113.129 63.3952 114.537 61.8587 115.866 60.215C120.497 54.512 126.843 50.3598 132.968 46.3934C143.709 39.4469 147.14 40.9406 154.308 41.6195C161.455 42.2984 167.065 48.2873 173.983 49.9381C177.313 50.7314 181.022 51.7034 184.459 51.589L185.975 51.4175C184.081 53.0827 182.937 55.9913 183.273 58.5141C183.759 62.2017 187.604 63.6739 188.183 67.09C188.876 71.1922 183.237 73.1289 184.495 77.7885C185.36 80.9902 188.998 82.9912 189.655 86.3501C189.955 87.8581 189.398 89.0516 188.347 90.1093V90.1021Z" fill="#9478A6"/>
<path d="M193.543 80.669C192.5 78.4392 191.085 76.8098 191.056 74.287C191.02 71.4355 192.786 68.9271 193.35 66.1471C193.929 63.2813 193.472 61.3803 191.821 59.0433C190.441 57.0923 189.034 54.9483 189.72 52.4756C190.02 51.3821 191.035 50.4531 190.813 49.3025C187.883 49.1881 184.917 49.281 181.98 49.281C179.293 49.281 175.105 48.4663 175.019 51.8038C171.925 53.6262 170.538 57.6068 173.39 60.9157C175.662 63.5528 179.757 64.5105 180 68.5269C180.272 72.922 176.62 75.7235 175.212 79.4898C174.719 80.8119 174.297 83.0059 174.647 84.4352C175.148 86.4363 177.013 87.1081 177.999 88.7018C179.779 91.5818 177.892 94.8407 176.634 97.4278C174.533 101.751 171.975 108.069 172.925 112.95C173.075 113.701 173.347 115.38 173.976 115.909C175.019 116.795 176.048 115.659 177.585 115.43C180.3 115.023 181.78 116.209 184.174 117.252C185.589 117.867 188.319 118.46 189.905 118.017C192.893 117.181 189.798 115.48 189.72 113.215C189.498 106.797 193.343 101.23 194.879 95.2338C196.066 90.6099 195.537 84.9284 193.543 80.6618V80.669Z" fill="#CBE2D1"/>
<g style="mix-blend-mode:multiply" opacity="0.33">
<path d="M288.055 150.198C313.983 150.198 335.002 149.023 335.002 147.575C335.002 146.126 313.983 144.952 288.055 144.952C262.128 144.952 241.109 146.126 241.109 147.575C241.109 149.023 262.128 150.198 288.055 150.198Z" fill="#6F4B91"/>
</g>
<path d="M292.724 70.4122C294.689 69.6761 292.924 68.7971 291.702 68.4398C290.709 68.1539 288.222 67.6751 289.244 65.9813C290.316 64.209 291.316 66.4101 292.16 66.6674C294.039 67.232 292.095 64.8593 291.631 64.2233C290.995 63.3585 289.658 61.5862 291.323 61.3003C292.674 61.0716 294.053 62.9583 294.611 63.8945C295.004 64.5663 295.962 67.6965 296.991 67.0105C297.762 66.4888 296.991 63.3585 298.813 65.6026C299.556 66.5173 299.428 67.9752 299.756 69.0187C300.242 70.548 300.442 71.1769 301.8 70.7982C302.501 70.598 302.529 69.719 303.394 70.3193C303.837 70.6266 303.959 72.0345 303.951 72.5276C303.887 77.0157 302.072 80.0101 301.221 80.3961C300.071 80.9106 297.948 80.1388 296.969 79.5742C296.483 79.2883 295.597 78.8238 295.669 78.1163C295.747 77.323 296.969 77.4445 297.019 76.9728C297.155 75.6507 294.711 76.9014 294.032 76.7084C293.16 76.4583 291.716 74.886 292.645 74.0642C292.738 73.9784 296.555 73.7283 294.382 72.4991C293.181 71.8201 291.874 73.6782 290.716 72.3418C289.051 70.4265 291.995 70.691 292.731 70.4194L292.724 70.4122Z" fill="#9478A6"/>
<path d="M293.047 71.1199C293.89 70.7697 294.762 70.4552 295.684 70.3838C295.041 69.5762 294.376 68.7686 293.89 67.8753C293.754 67.6252 294.169 67.4536 294.305 67.7038C294.362 67.811 294.426 67.9182 294.49 68.0254C294.562 67.7538 294.483 67.3464 294.455 67.1249C294.39 66.5603 294.183 66.0529 293.962 65.5312C293.847 65.2668 294.262 65.0953 294.376 65.3597C294.662 66.0315 294.883 66.6747 294.926 67.4108C294.948 67.7681 294.969 68.1612 294.755 68.4613C295.441 69.4976 296.298 70.4481 297.013 71.4557C297.328 70.9698 297.556 70.4624 297.663 69.8764C297.785 69.2474 297.706 68.6043 297.778 67.9682C297.806 67.6823 298.257 67.7395 298.221 68.0254C298.135 68.7901 298.221 69.5405 298.028 70.298C297.878 70.8626 297.613 71.37 297.292 71.8488C298.114 73.0566 298.878 74.3144 299.5 75.6365C299.707 76.0796 299.893 76.5227 300.079 76.9729C300.501 76.3512 300.851 75.7008 301.094 74.9862C301.23 74.586 301.38 74.1643 301.437 73.7498C301.48 73.4354 301.451 73.1352 301.573 72.835C301.687 72.5706 302.102 72.735 301.987 73.0066C301.83 73.371 301.88 73.8499 301.78 74.2429C301.687 74.6217 301.566 75.0005 301.43 75.3649C301.158 76.1153 300.751 76.7943 300.293 77.4446C300.293 77.4518 300.279 77.4589 300.272 77.4661C300.579 78.245 300.879 79.024 301.222 79.7887C301.251 79.8101 301.273 79.8387 301.294 79.8816C301.33 79.9674 301.394 80.0817 301.415 80.1889C302.03 81.7612 302.645 83.3334 303.231 84.9128C303.331 85.1844 302.916 85.3559 302.816 85.0843C302.23 83.5121 301.616 81.9398 301.001 80.3747C301.001 80.3747 300.994 80.3676 300.987 80.3533C300.794 79.9459 300.608 79.5243 300.436 79.1026C299.622 79.3027 298.714 79.0597 297.956 78.7524C297.692 78.6452 297.856 78.2307 298.128 78.3379C298.785 78.6095 299.55 78.8168 300.265 78.681C299.879 77.7162 299.514 76.7442 299.078 75.8009C298.9 75.4293 298.714 75.0576 298.521 74.7003C298.507 74.7075 298.492 74.7218 298.478 74.7289C297.363 75.172 296.163 75.3435 294.976 75.1506C294.69 75.1005 294.748 74.6574 295.034 74.7075C296.148 74.8933 297.256 74.736 298.3 74.3144C297.692 73.2424 297.013 72.2133 296.298 71.2199C296.177 71.0484 296.048 70.884 295.92 70.7125C295.891 70.7768 295.841 70.8197 295.755 70.8269C294.862 70.8912 294.026 71.1985 293.211 71.5344C292.947 71.6416 292.768 71.2342 293.04 71.1199H293.047Z" fill="#ECB8FF"/>
<path d="M313.535 71.102C311.519 70.518 313.21 69.5059 314.41 69.0572C315.378 68.694 317.829 68.0349 316.676 66.4226C315.476 64.7352 314.647 67.0085 313.825 67.3283C311.99 68.0353 313.753 65.5194 314.17 64.8513C314.736 63.9384 315.939 62.0701 314.252 61.9152C312.891 61.7897 311.655 63.7785 311.171 64.7515C310.826 65.4506 310.11 68.6451 309.035 68.0329C308.221 67.5695 308.758 64.3918 307.111 66.7675C306.441 67.7379 306.678 69.181 306.427 70.2476C306.059 71.8029 305.905 72.4504 304.525 72.1772C303.807 72.0334 303.719 71.1577 302.906 71.823C302.486 72.1649 302.47 73.5777 302.516 74.0652C302.92 78.5385 304.958 81.3838 305.828 81.6987C307.01 82.1256 309.07 81.1985 310.001 80.556C310.465 80.2379 311.313 79.7047 311.191 78.9975C311.056 78.2098 309.844 78.4247 309.759 77.9648C309.525 76.6529 312.053 77.7165 312.713 77.4716C313.563 77.1592 314.882 75.4831 313.898 74.733C313.795 74.6531 309.972 74.6939 312.046 73.3036C313.193 72.5335 314.641 74.2893 315.689 72.8734C317.201 70.8389 314.288 71.3301 313.531 71.1083L313.535 71.102Z" fill="#9478A6"/>
<path d="M313.269 71.8357C312.398 71.5528 311.504 71.2979 310.587 71.2981C311.163 70.4399 311.769 69.589 312.191 68.6557C312.308 68.3939 311.881 68.2527 311.764 68.5145C311.712 68.6248 311.658 68.7414 311.6 68.8483C311.509 68.5801 311.56 68.1692 311.567 67.9456C311.588 67.3803 311.758 66.8547 311.937 66.3263C312.029 66.051 311.602 65.9098 311.51 66.1851C311.274 66.8781 311.107 67.5347 311.116 68.2705C311.124 68.6321 311.131 69.0256 311.362 69.3046C310.753 70.3888 309.97 71.4036 309.336 72.4583C308.985 71.9933 308.719 71.5086 308.564 70.9378C308.395 70.3185 308.422 69.6671 308.304 69.0431C308.252 68.7632 307.814 68.8519 307.866 69.1318C308.009 69.8908 307.982 70.6478 308.234 71.3847C308.421 71.9406 308.723 72.42 309.086 72.8758C308.356 74.1385 307.695 75.4545 307.169 76.8195C306.998 77.2714 306.847 77.7336 306.695 78.1957C306.224 77.6086 305.827 76.9888 305.529 76.292C305.366 75.9032 305.18 75.4945 305.094 75.0825C305.027 74.7703 305.036 74.4668 304.888 74.184C304.759 73.9273 304.359 74.1259 304.489 74.3826C304.673 74.7337 304.661 75.2225 304.79 75.6007C304.916 75.9691 305.058 76.3381 305.223 76.6949C305.552 77.4246 306.005 78.0751 306.513 78.6825C306.526 78.6893 306.532 78.6927 306.538 78.696C306.293 79.4974 306.047 80.2987 305.764 81.0797C305.734 81.1044 305.717 81.1358 305.703 81.177C305.678 81.2689 305.623 81.3855 305.607 81.4905C305.119 83.1029 304.621 84.7182 304.152 86.3407C304.07 86.6132 304.493 86.7607 304.579 86.482C305.045 84.8657 305.539 83.2567 306.034 81.6477C306.037 81.6414 306.041 81.6351 306.044 81.6288C306.208 81.2055 306.359 80.7753 306.497 80.3383C307.324 80.476 308.207 80.1645 308.941 79.7973C309.197 79.6678 308.999 79.2683 308.742 79.3978C308.105 79.7201 307.362 79.9847 306.635 79.9014C306.951 78.9103 307.238 77.912 307.6 76.9384C307.744 76.5528 307.909 76.171 308.071 75.7956C308.09 75.8057 308.102 75.8125 308.121 75.8227C309.268 76.1814 310.474 76.2637 311.643 75.9772C311.924 75.9091 311.835 75.4715 311.555 75.5395C310.459 75.8092 309.339 75.7327 308.269 75.3988C308.789 74.2831 309.392 73.2115 310.032 72.1602C310.143 71.9846 310.258 71.8027 310.369 71.6271C310.402 71.6857 310.458 71.7322 310.548 71.7318C311.443 71.7277 312.296 71.9685 313.138 72.2441C313.413 72.3358 313.554 71.9085 313.279 71.8168L313.269 71.8357Z" fill="#ECB8FF"/>
<path d="M308.71 83.4412C308.71 83.6413 308.624 83.8271 308.495 83.9557C308.359 84.0915 308.181 84.1701 307.981 84.1701L297.168 84.1844C296.768 84.1844 296.432 83.8557 296.432 83.4555C296.432 83.2554 296.517 83.0695 296.646 82.9338C296.775 82.798 296.961 82.7194 297.161 82.7194L307.973 82.7051C308.374 82.7051 308.71 83.0338 308.71 83.4412Z" fill="#ECB8FF"/>
<path d="M305.521 92.0884C305.521 92.2885 305.435 92.4743 305.307 92.6101C305.171 92.7459 304.992 92.8245 304.792 92.8245H300.383C299.975 92.8245 299.646 92.5029 299.646 92.0956C299.646 91.8955 299.732 91.7097 299.861 91.5739C299.918 91.5095 299.997 91.4595 300.075 91.4238C300.819 91.7811 301.655 91.9812 302.541 91.9812C303.441 91.9812 304.292 91.774 305.049 91.4023C305.328 91.5024 305.528 91.774 305.528 92.0884H305.521Z" fill="#ECB8FF"/>
<path d="M308.244 86.2571C308.244 88.5154 306.937 90.4664 305.036 91.4027C304.278 91.7743 303.428 91.9815 302.527 91.9815C301.648 91.9815 300.812 91.7814 300.062 91.4241C298.132 90.5093 296.803 88.544 296.803 86.2642C296.803 85.5281 296.939 84.8278 297.189 84.1846H307.837C308.094 84.8206 308.23 85.521 308.23 86.2571H308.244Z" fill="#A68DDB"/>
<path d="M256.967 148.811H259.997L272.761 95.1689H269.731L256.967 148.811Z" fill="#CBE2D1"/>
<path d="M320.05 148.811H317.02L304.256 95.1689H307.279L320.05 148.811Z" fill="#CBE2D1"/>
<path d="M289.856 94.4609H287.383V148.811H289.856V94.4609Z" fill="#CBE2D1"/>
<path d="M311.847 96.498H262.921C261.792 96.498 260.877 95.5833 260.877 94.4541C260.877 93.3249 261.792 92.4102 262.921 92.4102H311.847C312.976 92.4102 313.891 93.3249 313.891 94.4541C313.891 95.5833 312.976 96.498 311.847 96.498Z" fill="#CBE2D1"/>
<path d="M158 34.9952H237C237 34.9952 225.842 30.5379 218.353 26.0854C218.353 26.0854 210.953 21.3364 197.313 26.1715C194.798 27.061 192.458 28.381 190.292 29.9545C189.815 30.2988 189.261 30.6623 188.637 31.0114C185.961 32.4987 182.784 32.5561 179.943 31.437C178.671 30.9349 176.605 30.6957 173.47 31.8148C169.579 33.2018 165.56 34.2061 161.456 34.6365L158.005 35L158 34.9952Z" fill="white" fill-opacity="0.12"/>
<path d="M258 50.9957H330C330 50.9957 319.831 46.9436 313.005 42.8958C313.005 42.8958 306.261 38.5785 293.83 42.9741C291.537 43.7828 289.404 44.9827 287.431 46.4131C286.996 46.7262 286.491 47.0566 285.923 47.374C283.484 48.7261 280.588 48.7783 277.998 47.7609C276.839 47.3044 274.956 47.087 272.099 48.1044C268.553 49.3653 264.89 50.2783 261.15 50.6696L258.004 51L258 50.9957Z" fill="white" fill-opacity="0.12"/>
<path d="M279.994 16.282C278.576 21.8726 273.614 26 267.7 26C260.685 26 255 20.1817 255 13.0028C255 5.82396 260.685 0 267.7 0C269.302 0 270.838 0.30173 272.251 0.859645C267.867 1.4688 264.49 5.31158 264.49 9.96278C264.49 15.0409 268.512 19.157 273.475 19.157C276.045 19.157 278.364 18.0526 280 16.2763L279.994 16.282Z" fill="#CBE2D1"/>
</svg>
