<svg width="19" height="19" viewBox="0 0 19 19" fill="none" xmlns="http://www.w3.org/2000/svg">
<path d="M9.31329 18.8431C14.4113 18.8431 18.5441 14.7104 18.5441 9.61236C18.5441 4.51435 14.4113 0.381592 9.31329 0.381592C4.21528 0.381592 0.0825195 4.51435 0.0825195 9.61236C0.0825195 14.7104 4.21528 18.8431 9.31329 18.8431Z" fill="#CBE2D1"/>
<ellipse cx="5.22102" cy="6.78695" rx="1.076" ry="1.08407" fill="#6D597A"/>
<path d="M4.98384 11.4775C4.75912 11.5237 4.60992 11.7445 4.6717 11.9652C4.92557 12.8719 5.43725 13.6843 6.14791 14.3C6.96264 15.0058 7.99171 15.412 9.07022 15.4537C10.1487 15.4953 11.2142 15.1699 12.096 14.5296C12.8653 13.971 13.4559 13.2009 13.7989 12.317C13.8823 12.102 13.7563 11.8713 13.5376 11.8082C13.3178 11.7447 13.088 11.8747 13.0002 12.0893C12.7127 12.7922 12.2345 13.4043 11.6177 13.8523C10.8874 14.3825 10.005 14.652 9.11186 14.6175C8.21868 14.583 7.36645 14.2466 6.69173 13.6621C6.12114 13.1678 5.70544 12.5203 5.48903 11.797C5.42337 11.5775 5.20856 11.4313 4.98384 11.4775Z" fill="#6D597A"/>
<ellipse cx="13.1213" cy="6.78785" rx="1.0798" ry="1.0879" fill="#6D597A"/>
</svg>
