<svg width="14" height="12" viewBox="0 0 14 12" fill="none" xmlns="http://www.w3.org/2000/svg">
<path d="M2.57009 7.54173C2.07792 7.08893 1.58465 6.65681 1.1165 6.20029C0.122313 5.23213 -0.226199 4.06408 0.14471 2.74969C0.518897 1.42364 1.43716 0.575302 2.81919 0.259297C4.01331 -0.0132309 5.09217 0.26778 6.02408 1.04454C6.29284 1.26829 6.5392 1.51695 6.84675 1.80115C7.05105 1.58323 7.23732 1.35524 7.45364 1.15853C8.51393 0.195672 9.74137 -0.26296 11.1802 0.154846C12.6283 0.575302 13.5537 1.53445 13.9033 2.9639C14.1912 4.14149 13.8159 5.17646 13.0479 6.0969C12.9747 6.18492 12.8971 6.26922 12.8228 6.35353C13.8722 7.37842 13.1522 8.69864 12.0078 8.78454C11.7784 9.66893 11.4342 9.99978 10.617 10.1005C10.5318 10.6837 10.2423 11.1408 9.6272 11.3237C9.00938 11.5077 8.50409 11.2914 8.06436 10.8062C7.83602 11.039 7.61861 11.2495 7.41376 11.4716C7.00025 11.9202 6.49933 12.1164 5.89571 11.9297C5.3134 11.75 5.02825 11.3205 4.9567 10.7325C4.19794 10.6328 3.74018 10.2256 3.63093 9.48282C2.56354 9.33118 2.10687 8.40809 2.57009 7.54173ZM6.19834 5.12503C5.21398 6.07782 4.2706 6.98554 3.33486 7.90121C3.14585 8.08625 3.16224 8.35135 3.33868 8.52049C3.5184 8.69228 3.78169 8.70607 3.97835 8.52845C4.25148 8.2819 4.50603 8.01573 4.77425 7.76441C4.97035 7.58096 5.21508 7.57672 5.38114 7.74108C5.54993 7.90863 5.54065 8.13291 5.34508 8.32962C5.11784 8.55867 4.87967 8.77764 4.65243 9.00669C4.41426 9.24635 4.40224 9.55387 4.61474 9.76277C4.8327 9.97751 5.13751 9.96849 5.39042 9.73202C5.6133 9.52365 5.82743 9.30626 6.04867 9.0963C6.277 8.87891 6.51572 8.85452 6.69543 9.02525C6.88171 9.20234 6.86314 9.42821 6.63698 9.65249C6.42067 9.86722 6.19725 10.0756 5.98148 10.2909C5.74003 10.5326 5.72419 10.8333 5.93504 11.0448C6.153 11.2638 6.47201 11.25 6.73149 11.0051C6.95327 10.7956 7.16467 10.5751 7.39082 10.3704C7.49953 10.2723 7.51482 10.1922 7.46347 10.0512C7.28594 9.56447 7.36132 9.10531 7.72185 8.71773C7.86443 8.5645 8.05343 8.45156 8.22386 8.31795C7.64265 7.03856 8.37026 6.15364 9.89541 6.30103C10.4504 5.29311 11.2174 5.12132 12.2263 5.77825C13.1112 5.01581 13.416 3.69346 12.9244 2.59593C12.4382 1.51059 11.5615 0.913575 10.3488 0.829802C9.05909 0.740727 8.19054 1.45068 7.48041 2.28205C7.9054 2.72636 8.30853 3.15848 8.72369 3.57894C9.2847 4.14679 9.29999 5.03595 8.74773 5.59002C8.18344 6.15576 7.25644 6.16901 6.66102 5.61388C6.50424 5.46755 6.36549 5.30265 6.19834 5.12503ZM3.13656 6.96751C3.9483 6.17803 4.73765 5.40763 5.53136 4.64148C5.92521 4.26185 6.41302 4.26397 6.81288 4.6383C6.93743 4.75494 7.05651 4.87636 7.18051 4.99354C7.48696 5.2825 7.88027 5.30106 8.15067 5.0402C8.42052 4.77986 8.4014 4.39652 8.09112 4.10173C7.24497 3.29846 6.40264 2.49201 5.54502 1.70041C4.45414 0.694069 2.74599 0.716868 1.66877 1.73646C0.595919 2.75234 0.532007 4.4225 1.55733 5.49353C2.04569 6.00359 2.5914 6.46169 3.13656 6.96698V6.96751ZM11.2053 8.81158C11.1229 8.63608 11.0972 8.50246 11.0163 8.42028C10.5952 7.99399 10.168 7.57354 9.72662 7.1674C9.51467 6.97228 9.19129 7.00568 8.98917 7.20504C8.79798 7.3938 8.76247 7.70662 8.95312 7.90227C9.37756 8.33704 9.8173 8.75856 10.2636 9.17265C10.4187 9.31687 10.6416 9.35557 10.8186 9.23309C10.9737 9.12546 11.0808 8.95208 11.2053 8.81211V8.81158ZM12.5639 7.49931C12.4945 7.33282 12.4781 7.21565 12.4098 7.1446C12.1258 6.84874 11.8368 6.55501 11.5276 6.28513C11.3337 6.11599 11.0196 6.16106 10.8333 6.34133C10.6334 6.53433 10.5952 6.83124 10.7842 7.0359C11.0502 7.32381 11.3239 7.61277 11.6363 7.84819C11.7636 7.94415 12.0302 7.96536 12.1826 7.90333C12.3443 7.83758 12.4464 7.63239 12.5639 7.49984V7.49931ZM8.1381 9.5316C8.21949 9.70763 8.25063 9.84389 8.33312 9.93774C8.49699 10.1254 8.67999 10.2999 8.87173 10.4616C9.09569 10.6503 9.41088 10.6275 9.61191 10.4292C9.81566 10.2288 9.83369 9.93032 9.6343 9.71134C9.4666 9.5263 9.2836 9.35239 9.0946 9.18803C8.92307 9.03904 8.70129 9.00139 8.51447 9.12281C8.36425 9.2209 8.26319 9.39057 8.13756 9.5316H8.1381Z" fill="#CBE2D1"/>
</svg>
