<svg width="23" height="23" viewBox="0 0 23 23" fill="none" xmlns="http://www.w3.org/2000/svg">
<path d="M11.3398 1.45117V2.45117M11.3398 20.4512V21.4512M21.3398 11.4512H20.3398M2.33984 11.4512H1.33984M18.4098 4.38117L18.0178 4.77417M4.66184 18.1292L4.26884 18.5222M18.4098 18.5212L18.0178 18.1282M4.66184 4.77317L4.26884 4.38017M5.68084 9.45117C5.22761 10.7343 5.22399 12.1333 5.67058 13.4187C6.11716 14.7041 6.98743 15.7995 8.13856 16.5252C9.28969 17.2509 10.6533 17.5637 12.0056 17.4124C13.358 17.261 14.6187 16.6544 15.5809 15.6922C16.5431 14.73 17.1497 13.4693 17.301 12.117C17.4524 10.7646 17.1396 9.40101 16.4139 8.24988C15.6882 7.09875 14.5928 6.22849 13.3074 5.7819C12.022 5.33532 10.6229 5.33894 9.33984 5.79217" stroke="#FF9D48" stroke-width="1.5" stroke-linecap="round"/>
</svg>
