<svg width="36" height="49" viewBox="0 0 36 49" fill="none" xmlns="http://www.w3.org/2000/svg">
<g clip-path="url(#clip0_2_21254)">
<path d="M23.8311 23.6572C22.1097 21.0231 21.329 18.1613 21.0283 15.1608C20.6937 11.8137 20.9556 8.52116 22.3424 5.41177C22.6722 4.67155 23.0819 3.94867 23.5644 3.30501C25.8459 0.267407 29.2112 0.0346981 31.8758 2.74551C33.8785 4.78296 34.8799 7.36009 35.4618 10.1278C36.2983 14.0963 36.211 18.0177 34.8629 21.8772C34.6108 22.5976 34.2956 22.8278 33.4712 22.7536C30.2562 22.4614 27.0582 22.6397 23.8311 23.6596V23.6572ZM33.9804 15.1113C33.7937 11.7618 33.2433 8.55334 31.4297 5.70884C30.5399 4.31506 29.4901 2.96089 27.628 3.12181C25.7732 3.28025 24.9028 4.76315 24.2918 6.31042C22.437 10.9943 22.7061 15.6856 24.5246 20.3126C24.6458 20.622 25.2253 20.9439 25.5768 20.9265C27.8147 20.825 30.0526 20.6616 32.2832 20.4388C32.6323 20.4042 33.1633 20.013 33.2288 19.7036C33.5512 18.1885 33.7428 16.6462 33.9804 15.1113Z" fill="#FF9D48"/>
<path d="M15.1346 23.3532C15.0642 27.3266 14.4169 30.6291 12.79 33.6989C12.436 34.3673 12.1038 34.6322 11.2916 34.4168C8.51306 33.6766 5.68117 33.3349 2.81532 33.7508C1.85762 33.8895 1.38483 33.6196 1.07691 32.6319C-0.654234 27.0889 -0.317219 21.6921 2.21161 16.5007C2.8032 15.2851 3.73666 14.1612 4.73558 13.2526C7.01225 11.1855 9.84415 11.4058 11.9438 13.6685C13.6701 15.5277 14.4193 17.8623 14.8315 20.3181C15.0279 21.4866 15.0691 22.6823 15.1321 23.3532H15.1346ZM11.3498 31.8421C13.2337 27.1805 13.6798 22.3233 11.7668 17.3968C11.1437 15.7926 10.2394 14.2602 8.36759 14.0968C6.53219 13.9359 5.42416 15.3148 4.58768 16.7358C2.00552 21.1202 1.64668 25.8486 2.79593 30.743C2.86139 31.0178 3.28327 31.3792 3.56209 31.399C6.07395 31.5797 8.59307 31.6936 11.3498 31.8397V31.8421Z" fill="#CBE2D1"/>
<path d="M23.5113 26.2027C26.993 26.2027 30.2832 26.1829 33.5733 26.2374C33.8497 26.2423 34.3395 26.7127 34.3564 26.9925C34.5431 30.087 34.1212 33.0627 32.2858 35.6448C30.1207 38.6873 26.9057 38.5834 24.8861 35.4467C23.361 33.08 22.7379 28.5422 23.5113 26.2027ZM32.2713 28.3194H25.5067C25.1843 30.1959 25.725 32.8424 26.7627 34.3698C27.8804 36.0137 29.2721 36.078 30.4747 34.4763C31.7961 32.7161 32.1549 30.6465 32.2713 28.3194Z" fill="#FF9D48"/>
<path d="M1.78488 37.1484H12.5888C13.0228 40.441 12.9355 43.7509 10.9522 46.6994C9.07798 49.487 6.14425 49.5712 3.98881 46.9841C2.18736 44.8204 1.2539 40.8668 1.78488 37.1509V37.1484ZM10.6055 39.3938H3.82879C3.75605 41.6368 4.47857 44.1025 5.54539 45.4789C6.77222 47.0633 8.13725 47.0435 9.24528 45.3675C10.443 43.5578 10.6952 41.5055 10.603 39.3963L10.6055 39.3938Z" fill="#CBE2D1"/>
</g>
<defs>
<clipPath id="clip0_2_21254">
<rect width="36" height="48" fill="white" transform="translate(0 0.859375)"/>
</clipPath>
</defs>
</svg>
