<svg width="20" height="18" viewBox="0 0 20 18" fill="none" xmlns="http://www.w3.org/2000/svg">
<path d="M11.2966 1.34473L19.2111 15.0526C19.3318 15.2616 19.3953 15.4987 19.3953 15.7401C19.3953 15.9814 19.3318 16.2185 19.2111 16.4275C19.0905 16.6366 18.9169 16.8101 18.7079 16.9308C18.4988 17.0515 18.2617 17.1151 18.0204 17.1151H2.19137C1.95001 17.1151 1.71291 17.0515 1.50388 16.9308C1.29486 16.8101 1.12129 16.6366 1.00061 16.4275C0.879935 16.2185 0.816405 15.9814 0.816406 15.7401C0.816408 15.4987 0.879941 15.2616 1.00062 15.0526L8.91512 1.34473C9.44404 0.42806 10.7668 0.42806 11.2966 1.34473ZM10.1059 2.94889L2.9852 15.2817H17.2265L10.1059 2.94889ZM10.1059 12.2091C10.349 12.2091 10.5821 12.3056 10.7541 12.4775C10.926 12.6495 11.0225 12.8826 11.0225 13.1257C11.0225 13.3688 10.926 13.602 10.7541 13.7739C10.5821 13.9458 10.349 14.0424 10.1059 14.0424C9.86276 14.0424 9.6296 13.9458 9.45769 13.7739C9.28578 13.602 9.1892 13.3688 9.1892 13.1257C9.1892 12.8826 9.28578 12.6495 9.45769 12.4775C9.6296 12.3056 9.86276 12.2091 10.1059 12.2091ZM10.1059 5.79239C10.349 5.79239 10.5821 5.88897 10.7541 6.06088C10.926 6.23279 11.0225 6.46595 11.0225 6.70906V10.3757C11.0225 10.6188 10.926 10.852 10.7541 11.0239C10.5821 11.1958 10.349 11.2924 10.1059 11.2924C9.86276 11.2924 9.6296 11.1958 9.45769 11.0239C9.28578 10.852 9.1892 10.6188 9.1892 10.3757V6.70906C9.1892 6.46595 9.28578 6.23279 9.45769 6.06088C9.6296 5.88897 9.86276 5.79239 10.1059 5.79239Z" fill="#FF9D48"/>
</svg>
