<svg width="150" height="150" viewBox="0 0 150 150" fill="none" xmlns="http://www.w3.org/2000/svg">
<path d="M148.75 75.0092C148.75 115.641 115.632 148.759 75 148.759C34.368 148.759 1.25 115.641 1.25 75.0092C1.25 34.3772 34.368 1.25916 75 1.25916C115.632 1.25916 148.75 34.3772 148.75 75.0092Z" stroke="#CBE2D1" stroke-width="1.5"/>
<path d="M65.6885 93.6342C60.5623 93.6342 56.376 97.2339 56.376 101.773C56.376 102.399 56.974 102.947 57.6575 102.947C58.341 102.947 58.939 102.399 58.939 101.773C58.939 98.5643 62.0147 95.9818 65.6885 95.9818C69.3622 95.9818 72.4379 98.5643 72.4379 101.773C72.4379 102.399 73.0359 102.947 73.7194 102.947C74.4029 102.947 75.001 102.399 75.001 101.773C75.001 97.2339 70.8146 93.6342 65.6885 93.6342Z" fill="#CBE2D1"/>
<path d="M46.4227 80.8181L34.9191 80.8181C34.2617 80.8181 33.6865 81.7494 33.6865 83.1462C33.6865 84.3879 34.2617 85.4744 34.9191 85.4744L46.4227 85.4744C47.0801 85.4744 47.6553 84.3879 47.6553 83.1462C47.6553 81.7494 47.0801 80.8181 46.4227 80.8181Z" fill="#CBE2D1"/>
<path d="M89.5771 83.1455C89.5771 84.3872 90.1523 85.4736 90.8097 85.4736L102.313 85.4736C102.971 85.4736 103.546 84.3872 103.546 83.1455C103.546 81.7486 102.971 80.8174 102.313 80.8174L90.8097 80.8174C90.1523 80.8174 89.5771 81.7486 89.5771 83.1455Z" fill="#CBE2D1"/>
</svg>
