<svg width="22" height="22" viewBox="0 0 22 22" fill="none" xmlns="http://www.w3.org/2000/svg">
<path d="M21.043 10.915C21.043 16.2859 16.6638 20.665 11.293 20.665C5.92215 20.665 1.54297 16.2859 1.54297 10.915C1.54297 5.54422 5.92215 1.16504 11.293 1.16504C16.6638 1.16504 21.043 5.54422 21.043 10.915Z" stroke="#CBE2D1" stroke-width="1.5"/>
<path d="M9.98047 13.54C9.25799 13.54 8.66797 14.0474 8.66797 14.6871C8.66797 14.7753 8.75226 14.8525 8.84859 14.8525C8.94492 14.8525 9.02921 14.7753 9.02921 14.6871C9.02921 14.2349 9.46269 13.8709 9.98047 13.8709C10.4982 13.8709 10.9317 14.2349 10.9317 14.6871C10.9317 14.7753 11.016 14.8525 11.1123 14.8525C11.2087 14.8525 11.293 14.7753 11.293 14.6871C11.293 14.0474 10.7029 13.54 9.98047 13.54Z" fill="#CBE2D1"/>
<path d="M7.26574 11.7338L5.64442 11.7338C5.55177 11.7338 5.4707 11.865 5.4707 12.0619C5.4707 12.2369 5.55177 12.39 5.64442 12.39L7.26574 12.39C7.35839 12.39 7.43945 12.2369 7.43945 12.0619C7.43945 11.865 7.35839 11.7338 7.26574 11.7338Z" fill="#CBE2D1"/>
<path d="M13.3477 12.0618C13.3477 12.2368 13.4287 12.3899 13.5214 12.3899L15.1427 12.3899C15.2353 12.3899 15.3164 12.2368 15.3164 12.0618C15.3164 11.8649 15.2353 11.7336 15.1427 11.7336L13.5214 11.7336C13.4287 11.7336 13.3477 11.8649 13.3477 12.0618Z" fill="#CBE2D1"/>
</svg>
