<svg width="32" height="16" viewBox="0 0 32 16" fill="none" xmlns="http://www.w3.org/2000/svg">
<path d="M25.1719 4.41504C25.1719 6.62504 26.5219 8.41504 28.2019 8.41504C29.8819 8.41504 31.2319 6.62504 31.2319 4.41504C31.2319 2.20504 29.8819 0.415039 28.2019 0.415039C26.5219 0.415039 25.1719 2.20504 25.1719 4.41504Z" fill="#043A4E"/>
<path d="M0 4.41504C0 6.62504 1.35 8.41504 3.03 8.41504C4.71 8.41504 6.06 6.62504 6.06 4.41504C6.06 2.20504 4.71 0.415039 3.03 0.415039C1.35 0.415039 0 2.20504 0 4.41504Z" fill="#043A4E"/>
<path d="M22.61 15.4756C22.36 15.4756 22.1 15.3756 21.91 15.1856C20.11 13.4056 17.02 12.7155 13.64 13.3255C12.01 13.6255 10.44 14.1556 8.95998 14.9156C8.46998 15.1656 7.86999 14.9755 7.60999 14.4855C7.35999 13.9955 7.54998 13.3956 8.03998 13.1356C9.68998 12.2856 11.45 11.6956 13.27 11.3556C17.35 10.6056 21 11.4856 23.3 13.7556C23.69 14.1456 23.7 14.7756 23.3 15.1656C23.1 15.3656 22.85 15.4656 22.59 15.4656L22.61 15.4756Z" fill="#043A4E"/>
</svg>
