<svg width="22" height="22" viewBox="0 0 22 22" fill="none" xmlns="http://www.w3.org/2000/svg">
<rect width="22" height="22" rx="4" fill="black" fill-opacity="0.25"/>
<path d="M14.3391 15.8876H7.76406C7.47028 15.8876 7.14152 15.6567 7.0436 15.377L4.14777 7.27704C3.73508 6.11591 4.21771 5.75918 5.21097 6.47264L7.93892 8.42418C8.39358 8.73894 8.9112 8.57806 9.10705 8.06745L10.3381 4.78691C10.7298 3.7377 11.3803 3.7377 11.7721 4.78691L13.0031 8.06745C13.199 8.57806 13.7166 8.73894 14.1643 8.42418L16.7243 6.59855C17.8155 5.81514 18.3401 6.21384 17.8925 7.47989L15.0666 15.3909C14.9617 15.6567 14.6329 15.8876 14.3391 15.8876Z" stroke="#CBE2D1" stroke-width="1.02897" stroke-linecap="round" stroke-linejoin="round"/>
<path d="M7.2041 18H14.8983" stroke="#CBE2D1" stroke-width="1.02897" stroke-linecap="round" stroke-linejoin="round"/>
<path d="M9.30273 12.4042H12.8001" stroke="#CBE2D1" stroke-width="1.02897" stroke-linecap="round" stroke-linejoin="round"/>
</svg>
