<svg width="14" height="14" viewBox="0 0 14 14" fill="none" xmlns="http://www.w3.org/2000/svg">
<path d="M9.74154 11.0715H4.25821C4.01321 11.0715 3.73904 10.879 3.65737 10.6456L1.24237 3.89063C0.898205 2.9223 1.30071 2.6248 2.12904 3.2198L4.40404 4.8473C4.78321 5.1098 5.21487 4.97563 5.37821 4.5498L6.40487 1.81396C6.73154 0.938965 7.27404 0.938965 7.60071 1.81396L8.62737 4.5498C8.79071 4.97563 9.22237 5.1098 9.59571 4.8473L11.7307 3.3248C12.6407 2.67147 13.0782 3.00397 12.7049 4.0598L10.3482 10.6573C10.2607 10.879 9.98654 11.0715 9.74154 11.0715Z" stroke="#043A4E" stroke-width="0.772059" stroke-linecap="round" stroke-linejoin="round"/>
<path d="M5.54199 8.1665H8.45866" stroke="#043A4E" stroke-width="0.772059" stroke-linecap="round" stroke-linejoin="round"/>
</svg>
