<svg width="20" height="20" viewBox="0 0 20 20" fill="none" xmlns="http://www.w3.org/2000/svg">
<circle opacity="0.2" cx="10" cy="10" r="10" fill="#4EA692"/>
<path d="M12.7415 15.0715H7.25821C7.01321 15.0715 6.73904 14.879 6.65737 14.6456L4.24237 7.89063C3.89821 6.9223 4.30071 6.6248 5.12904 7.2198L7.40404 8.8473C7.78321 9.1098 8.21487 8.97563 8.37821 8.5498L9.40487 5.81396C9.73154 4.93896 10.274 4.93896 10.6007 5.81396L11.6274 8.5498C11.7907 8.97563 12.2224 9.1098 12.5957 8.8473L14.7307 7.3248C15.6407 6.67147 16.0782 7.00397 15.7049 8.0598L13.3482 14.6573C13.2607 14.879 12.9865 15.0715 12.7415 15.0715Z" stroke="#3C8D7A" stroke-width="0.772059" stroke-linecap="round" stroke-linejoin="round"/>
<path d="M8.54199 12.1665H11.4587" stroke="#3C8D7A" stroke-width="0.772059" stroke-linecap="round" stroke-linejoin="round"/>
</svg>
