<svg width="101" height="101" viewBox="0 0 101 101" fill="none" xmlns="http://www.w3.org/2000/svg">
<g clip-path="url(#clip0_6016_11134)">
<path d="M96.9807 50.1151C98.5251 48.3166 99.6074 46.1686 100.134 43.8572C100.66 41.5458 100.614 39.1409 100.001 36.8512C99.387 34.5614 98.224 32.456 96.6125 30.7174C95.001 28.9789 92.9897 27.6598 90.753 26.8746C91.1912 24.5449 91.0544 22.1433 90.3544 19.8784C89.6543 17.6135 88.4122 15.5536 86.7358 13.8774C85.0594 12.2012 82.9994 10.9594 80.7344 10.2597C78.4694 9.55994 76.0678 9.42342 73.7381 9.86197C72.9535 7.62475 71.6347 5.61285 69.8961 4.00095C68.1576 2.38905 66.0519 1.22588 63.7618 0.612416C61.4717 -0.00104609 59.0665 -0.0462523 56.755 0.480722C54.4435 1.0077 52.2956 2.09092 50.4977 3.63635C48.6992 2.09199 46.5512 1.00974 44.2398 0.483489C41.9284 -0.0427567 39.5235 0.0028952 37.2338 0.616483C34.944 1.23007 32.8386 2.39306 31.1 4.00457C29.3615 5.61608 28.0424 7.62743 27.2572 9.86414C24.9276 9.42629 22.5263 9.56342 20.2617 10.2636C17.9971 10.9638 15.9375 12.206 14.2616 13.8823C12.5857 15.5587 11.3441 17.6186 10.6444 19.8834C9.94481 22.1482 9.80829 24.5495 10.2467 26.879C8.01002 27.6642 5.99867 28.9832 4.38716 30.7218C2.77565 32.4603 1.61265 34.5658 0.999062 36.8555C0.385475 39.1453 0.339816 41.5501 0.866062 43.8615C1.39231 46.1729 2.47458 48.321 4.01895 50.1194C2.47411 51.9178 1.39151 54.066 0.86511 56.3776C0.338714 58.6893 0.384412 61.0944 0.998269 63.3844C1.61213 65.6743 2.77557 67.7799 4.38763 69.5182C5.99969 71.2566 8.01167 72.5753 10.2489 73.3598C9.81008 75.6894 9.94644 78.0909 10.6462 80.3558C11.3459 82.6207 12.5878 84.6806 14.2641 86.3568C15.9405 88.0329 18.0006 89.2745 20.2656 89.974C22.5306 90.6734 24.9321 90.8095 27.2616 90.3703C28.0468 92.607 29.3658 94.6184 31.1044 96.2299C32.8429 97.8414 34.9483 99.0044 37.2381 99.618C39.5278 100.232 41.9327 100.277 44.2441 99.751C46.5555 99.2247 48.7036 98.1425 50.502 96.5981C52.3004 98.143 54.4486 99.2256 56.7603 99.752C59.0719 100.278 61.477 100.233 63.767 99.6188C66.0569 99.0049 68.1625 97.8415 69.9008 96.2294C71.6392 94.6174 72.9579 92.6054 73.7425 90.3682C76.0721 90.8069 78.4736 90.6704 80.7385 89.9707C83.0035 89.271 85.0635 88.0291 86.7397 86.3528C88.416 84.6766 89.6579 82.6166 90.3576 80.3516C91.0574 78.0867 91.1938 75.6852 90.7551 73.3555C92.992 72.5705 95.0035 71.2514 96.6151 69.5129C98.2267 67.7743 99.3896 65.6687 100.003 63.3788C100.616 61.0889 100.662 58.6839 100.135 56.3725C99.6084 54.0611 98.5257 51.9132 96.9807 50.1151Z" fill="#CBE2D1"/>
<path d="M41.5246 69.2014L27.6301 55.3156C27.1028 54.7875 26.8066 54.0716 26.8066 53.3253C26.8066 52.5789 27.1028 51.8631 27.6301 51.335L29.3182 49.6447C29.8464 49.1174 30.5622 48.8213 31.3085 48.8213C32.0549 48.8213 32.7707 49.1174 33.2989 49.6447L43.399 59.7383L67.1855 34.461C67.6973 33.9179 68.4037 33.6001 69.1496 33.5774C69.8956 33.5546 70.62 33.8288 71.164 34.3396L72.8976 35.9757C73.4413 36.4876 73.7595 37.1944 73.7822 37.9409C73.805 38.6873 73.5304 39.4123 73.0189 39.9563L45.5724 69.1385C45.314 69.414 45.0028 69.6346 44.6574 69.7874C44.312 69.9401 43.9394 70.0218 43.5618 70.0277C43.1842 70.0336 42.8092 69.9634 42.4593 69.8215C42.1093 69.6795 41.7914 69.4687 41.5246 69.2014Z" fill="#4EA692"/>
</g>
<defs>
<clipPath id="clip0_6016_11134">
<rect width="100" height="100" fill="white" transform="translate(0.5 0.117188)"/>
</clipPath>
</defs>
</svg>
