<svg width="29" height="22" viewBox="0 0 29 22" fill="none" xmlns="http://www.w3.org/2000/svg">
<path d="M25.2738 16.6484L25.2745 16.6484L27.8895 16.6375V16.4875L27.8901 16.6375L27.8898 16.6375C28.3994 16.6373 28.8094 16.2041 28.8094 15.6891C28.8094 15.1739 28.3993 14.7406 27.8895 14.7406L27.8888 14.7406L25.2738 14.7516V14.9016L25.2732 14.7516L25.2735 14.7516C24.7638 14.7517 24.3539 15.185 24.3539 15.7C24.3539 16.2152 24.764 16.6484 25.2738 16.6484Z" fill="#FF9D48" stroke="#FF9D48" stroke-width="0.3"/>
<path d="M13.8783 1.93867L13.8783 1.93809C13.8783 1.42293 14.2884 0.989648 14.7982 0.989648C15.3079 0.989648 15.718 1.42275 15.7182 1.93776L15.7182 1.9375L13.8783 1.93867ZM13.8783 1.93867L13.8889 4.65059M13.8783 1.93867L13.8889 4.65059M15.7287 4.64855L15.7182 1.93809L15.7287 4.64697C15.7287 4.6475 15.7287 4.64803 15.7287 4.64855ZM15.7287 4.64855C15.7404 5.16782 15.3267 5.59902 14.8088 5.59902C14.2991 5.59902 13.889 5.16591 13.8889 4.65089M15.7287 4.64855L13.8889 4.65089M13.8889 4.65089L13.8889 4.65117L14.0389 4.65059H13.8889M13.8889 4.65089L13.8889 4.65059" fill="#FF9D48" stroke="#FF9D48" stroke-width="0.3"/>
<path d="M21.885 8.79487L21.885 8.79488L21.8868 8.79665C22.0716 8.97554 22.2984 9.06855 22.5396 9.06855C22.7799 9.06855 23.009 8.97597 23.1854 8.79299L23.1857 8.79268L25.0304 6.86874C25.3968 6.50062 25.3783 5.90604 25.0329 5.53509C24.6786 5.15447 24.0825 5.15419 23.7278 5.53425L21.8839 7.45744C21.5206 7.82237 21.521 8.43043 21.885 8.79487Z" fill="#FF9D48" stroke="#FF9D48" stroke-width="0.3"/>
<path d="M1.53848 16.4512L1.5391 16.4512L4.1541 16.4402V16.2902L4.15473 16.4402L4.15443 16.4402C4.66409 16.44 5.07402 16.0068 5.07402 15.4918C5.07402 14.9766 4.66391 14.5434 4.1541 14.5434L4.15347 14.5434L1.53848 14.5543V14.7043L1.53785 14.5543L1.53815 14.5543C1.02849 14.5545 0.618555 14.9877 0.618555 15.5027C0.618555 16.0179 1.02866 16.4512 1.53848 16.4512Z" fill="#FF9D48" stroke="#FF9D48" stroke-width="0.3"/>
<path d="M10.6146 21.1533L10.6153 21.1533L13.2303 21.1424V20.9924L13.2309 21.1424L13.2306 21.1424C13.7403 21.1422 14.1502 20.709 14.1502 20.1939C14.1502 19.6788 13.7401 19.2455 13.2303 19.2455L13.2296 19.2455L10.6146 19.2564V19.4064L10.614 19.2564L10.6143 19.2564C10.1047 19.2566 9.69473 19.6898 9.69473 20.2049C9.69473 20.72 10.1048 21.1533 10.6146 21.1533Z" fill="#FF9D48" stroke="#FF9D48" stroke-width="0.3"/>
<path d="M13.2689 21.1533L13.2696 21.1533L15.8846 21.1424V20.9924L15.8852 21.1424L15.8849 21.1424C16.3946 21.1422 16.8045 20.709 16.8045 20.1939C16.8045 19.6788 16.3944 19.2455 15.8846 19.2455L15.8839 19.2455L13.2689 19.2564V19.4064L13.2683 19.2564L13.2686 19.2564C12.759 19.2566 12.349 19.6898 12.349 20.2049C12.349 20.72 12.7591 21.1533 13.2689 21.1533Z" fill="#FF9D48" stroke="#FF9D48" stroke-width="0.3"/>
<path d="M16.1977 21.1533L16.1983 21.1533L18.8133 21.1424V20.9924L18.8139 21.1424L18.8136 21.1424C19.3233 21.1422 19.7332 20.709 19.7332 20.1939C19.7332 19.6788 19.3231 19.2455 18.8133 19.2455L18.8127 19.2455L16.1977 19.2564V19.4064L16.197 19.2564L16.1973 19.2564C15.6877 19.2566 15.2777 19.6898 15.2777 20.2049C15.2777 20.72 15.6878 21.1533 16.1977 21.1533Z" fill="#FF9D48" stroke="#FF9D48" stroke-width="0.3"/>
<path d="M6.42181 8.7931L6.42176 8.79315L6.42517 8.79645C6.60999 8.97534 6.83675 9.06836 7.07793 9.06836C7.31788 9.06836 7.54656 8.97609 7.72288 8.79374C8.08603 8.42909 8.08599 7.82152 7.72277 7.45693L5.86827 5.54467C5.5141 5.16557 4.91974 5.16532 4.56525 5.54391C4.20303 5.90866 4.20338 6.51551 4.5663 6.87979L6.42181 8.7931Z" fill="#FF9D48" stroke="#FF9D48" stroke-width="0.3"/>
<path d="M22.7822 16.55H22.9322V16.4V15.6016C22.9322 13.3212 22.0739 11.1837 20.5277 9.58026C18.9706 7.9655 16.9068 7.08437 14.7139 7.08437C12.5101 7.08437 10.4464 7.97663 8.90003 9.58026C7.34313 11.1948 6.49551 13.3324 6.49551 15.6016V16.4V16.55H6.64551H22.7822ZM21.0196 14.6531H8.40809C8.85082 11.4475 11.5175 8.99219 14.7139 8.99219C17.9102 8.99219 20.5769 11.4475 21.0196 14.6531Z" fill="#FF9D48" stroke="#FF9D48" stroke-width="0.3"/>
</svg>
