<svg width="19" height="19" viewBox="0 0 19 19" fill="none" xmlns="http://www.w3.org/2000/svg">
<g clip-path="url(#clip0_18880_33469)">
<path d="M1.24023 16.6387V15.1387C1.24023 14.343 1.5563 13.58 2.11891 13.0174C2.68152 12.4547 3.44458 12.1387 4.24023 12.1387H10.2402C11.0359 12.1387 11.7989 12.4547 12.3616 13.0174C12.5851 13.2409 12.7697 13.496 12.911 13.7723" stroke="#CBE2D1" stroke-linecap="round" stroke-linejoin="round"/>
<path d="M7.24023 9.13867C8.89709 9.13867 10.2402 7.79553 10.2402 6.13867C10.2402 4.48182 8.89709 3.13867 7.24023 3.13867C5.58338 3.13867 4.24023 4.48182 4.24023 6.13867C4.24023 7.79553 5.58338 9.13867 7.24023 9.13867Z" stroke="#CBE2D1" stroke-linecap="round" stroke-linejoin="round"/>
<path d="M17.7402 16.6388V15.1388C17.7397 14.4741 17.5185 13.8284 17.1113 13.3031C16.704 12.7777 16.1338 12.4025 15.4902 12.2363" stroke="#CBE2D1" stroke-linecap="round" stroke-linejoin="round"/>
<path d="M12.4902 3.23633C13.1355 3.40155 13.7075 3.77685 14.116 4.30306C14.5244 4.82927 14.7461 5.47645 14.7461 6.14258C14.7461 6.80871 14.5244 7.45589 14.116 7.9821C13.7075 8.5083 13.1355 8.8836 12.4902 9.04883" stroke="#CBE2D1" stroke-linecap="round" stroke-linejoin="round"/>
</g>
<defs>
<clipPath id="clip0_18880_33469">
<rect width="18" height="18" fill="white" transform="translate(0.490234 0.888672)"/>
</clipPath>
</defs>
</svg>
