<svg width="13" height="8" viewBox="0 0 13 8" fill="none" xmlns="http://www.w3.org/2000/svg">
<path d="M0.757437 7.50576C0.683263 7.43177 0.624413 7.34388 0.584259 7.24711C0.544106 7.15034 0.523437 7.04661 0.523437 6.94184C0.523437 6.83707 0.544106 6.73333 0.584259 6.63657C0.624413 6.5398 0.683263 6.45191 0.757437 6.37792L6.05253 1.08283C6.11148 1.02376 6.1815 0.976894 6.25858 0.944919C6.33567 0.912944 6.4183 0.896485 6.50175 0.896485C6.5852 0.896485 6.66784 0.912944 6.74492 0.944919C6.822 0.976894 6.89202 1.02376 6.95097 1.08283L12.2461 6.37792C12.5583 6.69015 12.5583 7.19353 12.2461 7.50576C11.9338 7.81798 11.4305 7.81798 11.1182 7.50576L6.49857 2.89246L1.8789 7.51213C1.57305 7.81798 1.06329 7.81798 0.757437 7.50576Z" fill="#CBE2D1" stroke="#CBE2D1" stroke-width="0.2"/>
</svg>
