<svg width="14" height="13" viewBox="0 0 14 13" fill="none" xmlns="http://www.w3.org/2000/svg">
<path d="M1.27734 0.046875H9.31543C9.73977 0.046875 10.0415 0.145784 10.2373 0.341797C10.433 0.537832 10.5319 0.839477 10.5322 1.26367V7.28418H10.5781L10.5693 7.3291C11.2255 7.46132 11.7744 7.73517 12.1914 8.2002L12.3623 8.41113C12.7158 8.89706 12.9168 9.40049 12.958 9.91211C12.9941 10.3597 12.9078 10.8159 12.6924 11.2754L12.5928 11.4727C12.3046 11.9978 11.928 12.3774 11.4756 12.6191C11.0797 12.8306 10.6232 12.9375 10.1123 12.9424L9.88965 12.9385C9.78917 12.9339 9.68876 12.9378 9.58984 12.9424L9.29492 12.9521C6.62534 12.9533 3.95475 12.9537 1.28516 12.9531L1.12891 12.9482C0.776868 12.9266 0.519955 12.8297 0.345703 12.6572C0.146696 12.46 0.0469074 12.1555 0.046875 11.7256V1.28125C0.0469307 0.849048 0.145952 0.543178 0.34375 0.344727C0.541579 0.146298 0.846537 0.0469221 1.27734 0.046875ZM1.06152 0.871094C1.00735 0.878837 0.959942 0.894349 0.925781 0.929688C0.892177 0.964726 0.877447 1.01234 0.870117 1.06738C0.862779 1.1227 0.862305 1.19379 0.862305 1.28223V11.6982C0.862305 11.7935 0.861925 11.8695 0.869141 11.9277C0.876353 11.9858 0.891909 12.0353 0.928711 12.0713C0.965363 12.1071 1.01618 12.1219 1.0752 12.1289C1.13438 12.1358 1.21148 12.1357 1.30859 12.1357H8.00879V12.1074L8.0459 12.0615C7.37379 11.2182 7.12936 10.3323 7.40527 9.37207L7.46777 9.17969C7.83707 8.14478 8.61397 7.55359 9.67969 7.32031L9.71582 7.31152V7.27441C9.71582 5.222 9.71365 3.19393 9.71875 1.16602L9.70996 1.06445C9.70393 1.03427 9.69493 1.00761 9.68262 0.984375C9.65731 0.936642 9.62015 0.90594 9.57715 0.887695C9.53556 0.870081 9.48896 0.864388 9.44434 0.862305H1.27051C1.18478 0.862305 1.11547 0.863412 1.06152 0.871094ZM10.1162 8.12012C9.08355 8.12717 8.23832 8.90061 8.12598 9.90527L8.11328 10.1104C8.10241 11.138 8.89846 12.0085 9.90723 12.1211L10.1123 12.1338C11.1433 12.1424 12.0082 11.3523 12.123 10.3408L12.1357 10.1367C12.1491 9.03865 11.2415 8.12174 10.1377 8.11816H10.1182L10.1162 8.12012Z" fill="#6D597A" stroke="#CBE2D1" stroke-width="0.0928571"/>
<path d="M5.29395 2.46674H7.89453C8.06186 2.46701 8.19252 2.50924 8.28027 2.57904C8.34523 2.63079 8.38895 2.69965 8.40723 2.78314L8.41699 2.87201C8.41793 2.9967 8.3701 3.09692 8.28418 3.16693C8.19716 3.23782 8.06701 3.28119 7.90039 3.28119H2.67188L2.55273 3.27338C2.44217 3.25816 2.35575 3.2209 2.29395 3.16791C2.23291 3.11557 2.19265 3.04496 2.17773 2.95697L2.17188 2.86322C2.17475 2.73601 2.22006 2.63982 2.2998 2.57416C2.36065 2.52414 2.44452 2.4888 2.55176 2.47455L2.66602 2.46771L5.29395 2.46674Z" fill="#6D597A" stroke="#CBE2D1" stroke-width="0.0928571"/>
<path d="M7.88184 4.88736C8.06283 4.88765 8.19935 4.92986 8.28809 5.00064C8.35326 5.05269 8.39572 5.12244 8.41113 5.20865L8.41699 5.30142C8.41307 5.42533 8.36287 5.52327 8.27539 5.59146C8.18678 5.66051 8.05591 5.70244 7.88672 5.70279H2.68652L2.56445 5.69498C2.45152 5.68035 2.36375 5.64487 2.30078 5.59341C2.21806 5.52566 2.17266 5.42537 2.17188 5.29361L2.17969 5.20084C2.19564 5.11376 2.23505 5.04557 2.2959 4.99576C2.35782 4.94509 2.44511 4.91056 2.55859 4.89615L2.68164 4.88834H5.3291L5.33008 4.88736H7.88184Z" fill="#6D597A" stroke="#CBE2D1" stroke-width="0.0928571"/>
<path d="M2.71875 7.29565H6.36621C6.54475 7.29572 6.68023 7.33834 6.76953 7.40991C6.83549 7.46281 6.87855 7.53361 6.89551 7.62085L6.9043 7.71362C6.90243 7.84082 6.85483 7.93772 6.77051 8.00366C6.70612 8.05387 6.61691 8.08879 6.50293 8.10327L6.37988 8.11011C5.75838 8.11237 5.137 8.11108 4.51465 8.11108C3.91138 8.11108 3.30817 8.11222 2.70508 8.11108L2.5752 8.10327C2.45496 8.08875 2.3635 8.05383 2.29883 8.00269C2.23567 7.95263 2.19438 7.88423 2.17871 7.79565L2.17188 7.69995C2.17398 7.56448 2.22064 7.46667 2.30664 7.40112C2.37261 7.35093 2.46512 7.31651 2.58691 7.30249L2.71875 7.29565Z" fill="#6D597A" stroke="#CBE2D1" stroke-width="0.0928571"/>
<path d="M2.66602 9.71631H5.80664C5.96779 9.71665 6.08858 9.75773 6.16895 9.82568C6.2484 9.893 6.2936 9.99148 6.29492 10.1196L6.28711 10.2104C6.27148 10.2959 6.23195 10.3648 6.17285 10.4165C6.11318 10.4687 6.03116 10.5064 5.92676 10.522L5.81445 10.5298C5.29601 10.5337 4.7778 10.5308 4.25879 10.5308H2.67383C2.50434 10.5299 2.37771 10.4876 2.29492 10.4175C2.23368 10.3655 2.19283 10.2953 2.17773 10.2075L2.17188 10.1138C2.17452 9.98622 2.21994 9.88963 2.2998 9.82373C2.36048 9.77373 2.44389 9.73863 2.55078 9.72412L2.66602 9.71631Z" fill="#6D597A" stroke="#CBE2D1" stroke-width="0.0928571"/>
<path d="M11.0137 9.11398C11.0932 9.1068 11.1714 9.12691 11.2441 9.17746L11.3154 9.23898C11.4058 9.33178 11.4417 9.43321 11.4297 9.53879C11.4205 9.61937 11.383 9.70633 11.3135 9.7966L11.2324 9.8884L10.1758 10.945C10.0407 11.0782 9.92631 11.1363 9.81934 11.1364C9.7391 11.1365 9.65468 11.1048 9.56055 11.0329L9.46289 10.947C9.37538 10.8617 9.28758 10.777 9.20117 10.6911L8.94629 10.4294C8.85461 10.3308 8.81109 10.2226 8.80859 10.1208C8.80677 10.0447 8.82778 9.96966 8.87305 9.90207L8.92676 9.83664C9.00837 9.75416 9.10745 9.71412 9.20898 9.71555C9.28546 9.71663 9.3656 9.74132 9.44238 9.79172L9.51758 9.85129C9.55926 9.8895 9.59759 9.93254 9.63965 9.98312C9.67834 10.0297 9.72208 10.0833 9.77246 10.1423V10.2429L9.85254 10.1589L10.666 9.30734C10.7873 9.18505 10.9061 9.12383 11.0137 9.11398Z" fill="#6D597A" stroke="#CBE2D1" stroke-width="0.0928571"/>
</svg>
