<svg width="21" height="21" viewBox="0 0 21 21" fill="none" xmlns="http://www.w3.org/2000/svg">
<path d="M19.7502 19.7502L15.2263 15.2263M15.2263 15.2263C16.0001 14.4524 16.6139 13.5337 17.0327 12.5227C17.4515 11.5116 17.6671 10.4279 17.6671 9.33355C17.6671 8.23917 17.4515 7.15551 17.0327 6.14444C16.6139 5.13336 16.0001 4.21468 15.2263 3.44084C14.4524 2.667 13.5337 2.05315 12.5227 1.63435C11.5116 1.21555 10.4279 1 9.33355 1C8.23917 1 7.15551 1.21555 6.14444 1.63435C5.13336 2.05315 4.21468 2.667 3.44084 3.44084C1.878 5.00368 1 7.12335 1 9.33355C1 11.5437 1.878 13.6634 3.44084 15.2263C5.00368 16.7891 7.12335 17.6671 9.33355 17.6671C11.5437 17.6671 13.6634 16.7891 15.2263 15.2263Z" stroke="#CBE2D1" stroke-width="1.5" stroke-linecap="round" stroke-linejoin="round"/>
</svg>
