<svg width="19" height="20" viewBox="0 0 19 20" fill="none" xmlns="http://www.w3.org/2000/svg">
<path d="M9.5 18.8605C4.57205 18.8605 0.55814 14.8204 0.55814 9.84118C0.55814 4.86193 4.57205 0.821811 9.5 0.821811C14.4279 0.821811 18.4419 4.86193 18.4419 9.84118C18.4419 14.8204 14.4279 18.8605 9.5 18.8605ZM9.5 1.04193C4.6805 1.04193 0.767442 4.99346 0.767442 9.84118C0.767442 14.6889 4.6805 18.6404 9.5 18.6404C14.3195 18.6404 18.2326 14.6889 18.2326 9.84118C18.2326 4.99346 14.3195 1.04193 9.5 1.04193Z" fill="#878787" stroke="#FF9D48" stroke-width="1.11628"/>
<path d="M12.7585 12.7805L12.7469 12.7727L12.7349 12.7654L9.99558 11.1174C9.99554 11.1173 9.9955 11.1173 9.99546 11.1173C9.99543 11.1173 9.99539 11.1172 9.99536 11.1172C9.48428 10.8093 9.08158 10.0919 9.08158 9.49288V5.84007C9.08158 5.81298 9.09251 5.78495 9.11523 5.76205C9.1379 5.73919 9.16362 5.73001 9.18623 5.73001C9.20884 5.73001 9.23456 5.73919 9.25723 5.76205C9.27995 5.78495 9.29088 5.81298 9.29088 5.84007V9.49288C9.29088 9.78429 9.40278 10.0789 9.5297 10.3039C9.65548 10.5269 9.84965 10.7765 10.1027 10.9259L12.8399 12.5727L12.8399 12.5727L12.8447 12.5755C12.8829 12.598 12.9125 12.6584 12.8783 12.7253C12.8469 12.7709 12.8073 12.7836 12.783 12.7836C12.7688 12.7836 12.7622 12.7819 12.7606 12.7815C12.7603 12.7814 12.76 12.7813 12.7599 12.7813C12.7597 12.7812 12.7597 12.7812 12.7598 12.7812C12.7599 12.7813 12.7596 12.7812 12.7585 12.7805Z" fill="#878787" stroke="#FF9D48" stroke-width="1.11628"/>
</svg>
