<svg width="44" height="46" viewBox="0 0 44 46" fill="none" xmlns="http://www.w3.org/2000/svg">
<g clip-path="url(#clip0_16547_33192)">
<path d="M23.2811 9.33851C33.2718 11.0803 36.5928 23.043 29.8318 30.3139C29.4667 30.8337 29.1969 31.4169 29.062 32.0379C29.2406 34.9978 27.717 35.1188 25.2907 35.0414C22.1066 34.8689 18.9364 34.849 15.7821 34.9799L15.1472 34.732C14.316 33.7043 14.7465 33.4702 14.5322 32.4704C14.0204 30.0977 12.9273 29.5442 11.8143 27.6496C6.78126 19.0773 13.4391 8.41601 23.283 9.33652L23.2811 9.33851Z" fill="#FFD268"/>
<path d="M28.0425 35.7233C27.8004 36.3641 26.7053 36.3026 26.4554 35.7233C26.0963 35.9276 25.7154 36.1161 25.2988 36.1518C23.7137 36.2907 18.3513 36.368 17.1213 35.9733C16.9209 35.9078 16.7265 35.8185 16.536 35.7233C15.8754 35.392 15.6135 35.3087 15.1473 34.7314C17.2205 33.9596 26.9236 35.1817 28.1278 34.3207C28.7328 33.8882 28.5345 32.5511 28.6852 31.9024C29.1078 30.0812 30.2862 29.3174 31.177 27.8473C34.8035 21.866 32.8355 14.2876 26.8561 10.8218L23.2812 9.33789C32.52 10.2029 37.5531 20.0825 32.5696 28.0497C30.6869 31.0612 30.7742 30.0137 29.9807 33.793C29.8121 34.5964 28.8261 35.5685 28.0405 35.7213L28.0425 35.7233Z" fill="#E5BD5D"/>
<path d="M25.8601 40.6831C27.1516 41.0085 26.3045 43.2066 25.0666 43.0637L24.029 43.3871C22.4221 43.3792 20.3509 43.395 19.115 43.4605C18.498 42.8594 18.5198 43.2224 17.9326 42.9606C16.7958 42.4567 17.2858 41.316 17.1311 40.4847L17.5656 40.2705C20.2061 40.2546 22.8327 40.3042 25.4455 40.4212L25.8601 40.6851V40.6831Z" fill="#EDEFF0"/>
<path d="M26.4553 35.7236C27.3163 35.7792 27.3203 37.2571 26.4553 37.3107C23.293 37.7174 19.7201 37.7829 16.7344 37.5091C16.3951 36.902 16.5578 36.41 16.536 35.7236C19.8332 35.6264 23.1621 35.8545 26.4553 35.7236Z" fill="#EDEFF0"/>
<path d="M26.4553 39.8896C26.4374 40.0463 26.3858 40.2784 26.2728 40.2864C24.4198 40.4193 18.8253 40.5621 17.2501 40.1951L16.7343 39.8896C16.4983 39.2825 16.3237 38.7092 16.7343 38.1041C20.0613 38.001 23.4081 38.0228 26.7727 38.1735C27.233 38.4493 27.1814 39.9729 26.4553 39.8896Z" fill="#ECEEEF"/>
<path d="M25.0666 43.0636C25.515 42.8117 25.7252 42.7661 25.4634 43.262C24.5468 44.1349 23.5549 44.7956 22.4876 45.2459C20.4025 45.3233 20.3867 44.7003 19.115 43.4604C19.0039 42.8613 19.4185 43.0755 19.7994 43.0636C21.3012 43.014 23.6462 42.891 25.0666 43.0636Z" fill="#424246"/>
<path d="M26.4553 37.3106C26.6815 36.7492 27.6655 36.7056 27.844 37.3106C27.8162 37.4574 27.5901 37.6777 27.6456 37.9058L27.4611 38.3026C23.9517 38.1201 20.4422 37.9871 16.9328 37.9058C16.9546 37.7173 16.7979 37.6241 16.7344 37.509C16.9407 37.1797 17.4863 37.3106 17.8235 37.3067C20.7001 37.2769 23.5827 37.3106 26.4553 37.3106Z" fill="#C1C4C5"/>
<path d="M26.4553 39.8899C26.5942 39.3066 27.6754 39.2967 27.844 39.8899C27.7349 40.1419 27.2508 40.5267 27.2489 40.6834C27.1278 41.3103 26.0566 41.233 25.8601 40.6834C22.9697 40.6834 19.978 40.8481 17.1311 40.4851C17.1014 40.3264 16.8058 40.0744 16.7344 39.8899H26.4553Z" fill="#C0C3C4"/>
<path d="M33.2005 2.79127C33.3493 2.94601 33.1013 3.47967 33.014 3.69392C32.6807 4.50136 31.4309 6.55267 30.9031 7.3363C30.7524 7.56246 30.4647 8.21912 30.1294 8.14572C29.689 8.05049 29.8696 7.48509 29.9846 7.21131C30.1374 6.8443 32.2284 3.24755 32.401 3.08091C32.5894 2.89839 33.0378 2.62264 33.2005 2.79127Z" fill="#FFD36C"/>
<path d="M11.38 2.79151C11.7668 2.73001 11.9156 2.82523 12.1795 3.08115C12.352 3.2478 14.443 6.84454 14.5958 7.21156C14.7089 7.48533 14.8914 8.04875 14.451 8.14596C14.0978 8.22333 13.6892 7.33852 13.5285 7.08856C13.2111 6.59854 11.1379 3.03354 11.38 2.79151Z" fill="#FFD36C"/>
<path d="M3.64282 10.5286C3.76185 10.4155 4.36296 10.598 4.57722 10.6833C5.11485 10.8936 8.11247 12.6474 8.5886 13.0203C9.16392 13.4687 9.0925 13.9904 8.39418 13.8158C8.07676 13.7365 4.21616 11.5364 3.96619 11.2944C3.78764 11.1218 3.40277 10.7607 3.64084 10.5306L3.64282 10.5286Z" fill="#FFD36C"/>
<path d="M40.9375 10.5284C41.1756 10.7585 40.7927 11.1196 40.6121 11.2922C40.3622 11.5342 36.5036 13.7343 36.1841 13.8137C35.4858 13.9882 35.4144 13.4665 35.9897 13.0181C36.4659 12.6472 39.4655 10.8914 40.0011 10.6811C40.2154 10.5978 40.8185 10.4133 40.9355 10.5264L40.9375 10.5284Z" fill="#FFD36C"/>
<path d="M35.8887 28.9788C36.1109 28.9192 36.3231 29.0522 36.5176 29.1315C37.3151 29.4608 39.6779 30.8614 40.4059 31.3931C41.0388 31.8554 41.138 32.4644 40.3345 32.264C39.9834 32.1767 36.099 29.9489 35.7855 29.6672C35.4959 29.4073 35.5613 29.066 35.8887 28.9807V28.9788Z" fill="#FFD36C"/>
<path d="M22.686 0.0140938V5.66811C22.686 6.00933 21.8925 6.00933 21.8925 5.66811V0.0140938C21.8925 -0.0255835 22.5432 0.039884 22.686 0.0140938Z" fill="#FFD268"/>
<path d="M8.34466 29.0102C8.87634 28.9249 9.21955 29.284 8.795 29.6669C8.48155 29.9486 4.59714 32.1765 4.246 32.2638C3.45841 32.4602 3.52189 31.8432 4.17061 31.3909C4.59714 31.0933 8.1066 29.0479 8.34466 29.0102Z" fill="#FFD36B"/>
<path d="M0.863529 21.043H6.51754C6.85877 21.043 6.85877 21.8365 6.51754 21.8365H1.16111C0.950819 21.8365 0.784175 21.2731 0.863529 21.043Z" fill="#FFD36B"/>
<path d="M43.715 21.043C43.7943 21.2731 43.6277 21.8365 43.4174 21.8365H38.061C37.7197 21.8365 37.7197 21.043 38.061 21.043H43.715Z" fill="#FFD36B"/>
<path d="M27.6456 37.9059C27.6615 37.9714 27.9769 38.1817 28.0365 38.6082C28.1079 39.1121 28.0404 39.4355 27.844 39.8898H26.4553C26.5763 39.4652 26.9235 38.5269 26.3264 38.3305L16.7344 38.1043C16.7741 38.0468 16.7661 37.894 16.9328 37.9059H27.6456Z" fill="#D4D7D8"/>
<path d="M27.2488 40.6831C27.2488 40.7089 27.4809 40.7406 27.4571 41.1672C27.4214 41.8675 27.4293 42.6154 26.6457 42.9606C26.0486 43.2244 26.0724 42.8455 25.4613 43.4605C25.2888 43.405 25.2907 43.3375 25.4613 43.2621C25.4356 43.03 25.2332 43.0836 25.0646 43.0637C25.9256 42.4964 26.3799 41.6671 25.8581 40.6831H27.2468H27.2488Z" fill="#D5D7D9"/>
<path d="M28.0424 35.7238C28.1972 36.3468 27.9313 36.8546 27.844 37.3109H26.4553C26.745 36.8229 26.743 36.2079 26.4553 35.7238C26.9394 35.704 27.6199 35.8052 28.0424 35.7238Z" fill="#D5D8D9"/>
<path d="M25.4633 43.2622V43.4606C24.3663 44.5656 24.281 45.1806 22.4875 45.2461C23.7711 44.8751 24.1084 42.9785 25.4633 43.2622Z" fill="#39393C"/>
<path d="M20.5037 13.9009C20.474 14.131 20.5811 14.4921 20.4759 14.6647C20.4125 14.7698 18.7976 15.3273 18.258 15.7181C17.2819 16.4244 16.2206 17.6722 15.7881 18.803C15.6075 19.2752 15.4211 20.771 15.3457 20.8424C15.0739 21.0924 14.5382 20.7313 14.562 20.1758C14.6712 17.6286 17.883 14.1072 20.5037 13.9009Z" fill="#EDEEED"/>
</g>
<defs>
<clipPath id="clip0_16547_33192">
<rect width="42.8931" height="45.2519" fill="white" transform="translate(0.843628)"/>
</clipPath>
</defs>
</svg>
