<svg width="150" height="150" viewBox="0 0 150 150" fill="none" xmlns="http://www.w3.org/2000/svg">
<path d="M148.75 75.0092C148.75 115.641 115.632 148.759 75 148.759C34.368 148.759 1.25 115.641 1.25 75.0092C1.25 34.3772 34.368 1.25916 75 1.25916C115.632 1.25916 148.75 34.3772 148.75 75.0092Z" stroke="#CBE2D1" stroke-width="1.5"/>
<path fill-rule="evenodd" clip-rule="evenodd" d="M92.0166 69.7383L92.1606 69.7685L91.765 70.9375L91.4729 71.9717L91.4009 71.9566C90.2548 75.6287 88.1644 78.7896 85.4396 81.0349L85.4239 81.1098L84.7225 81.5887C84.712 81.6386 84.7067 81.6636 84.7067 81.6636L83.5669 82.4417L83.5826 82.3668C80.7521 84.0421 77.782 84.5927 74.8319 83.9737C71.9538 83.3698 69.3835 81.6567 67.5371 79L67.5214 79.075L66.7904 77.9044C66.7904 77.9044 66.7957 77.8794 66.8062 77.8294L66.2844 77.0939L66.3721 77.0341C64.7639 73.9579 64.136 70.1483 64.4906 66.3102L64.6388 65.2458L64.8185 64.0315L64.8904 64.0466C65.2364 62.3977 65.745 60.8089 66.4163 59.2804L66.8051 58.5013L92.4923 63.8911L92.4632 64.7457C92.5115 66.4252 92.3626 68.0894 92.0166 69.7383ZM67.9191 64.2908C68.0151 64.311 68.1162 64.3061 68.2226 64.2762C68.4625 64.3266 68.7316 64.3569 69.0299 64.3674C69.1738 64.3976 69.3229 64.4028 69.4773 64.383C69.8715 64.4135 70.2845 64.4741 70.7162 64.5647C70.7642 64.5748 70.8174 64.5599 70.8759 64.52C71.3556 64.6206 71.8885 64.7063 72.4746 64.7772C72.6664 64.8174 72.8343 64.8526 72.9782 64.8828C73.4684 64.9335 73.9533 65.0092 74.433 65.1098C74.6249 65.1501 74.822 65.1654 75.0244 65.1557C75.6959 65.2966 76.4155 65.4475 77.183 65.6086C78.2383 65.83 79.3123 66.0815 80.4051 66.3629C80.7409 66.4334 81.0714 66.5288 81.3967 66.6492C82.1642 66.8103 82.9265 66.9963 83.6835 67.2073C84.0567 67.3378 84.4592 67.4483 84.891 67.5389C85.6 67.7398 86.3278 67.9708 87.0743 68.2318C87.4955 68.3723 87.9168 68.5129 88.338 68.6534C88.8552 68.8141 89.3723 68.9748 89.8895 69.1355C90.1306 67.9862 90.2654 66.8668 90.2937 65.7772L68.0602 61.1121C67.6482 62.1212 67.3029 63.1703 67.0242 64.2595C67.3225 64.27 67.6208 64.2804 67.9191 64.2908ZM69.2097 77.473C70.775 79.6794 72.9293 81.227 75.3037 81.7252C77.7501 82.2385 80.3447 81.6874 82.6649 80.2962C82.6274 80.2362 82.6087 80.2062 82.6087 80.2062C82.4587 79.966 82.3036 79.7509 82.1431 79.5607C82.0682 79.4406 81.9879 79.3456 81.9025 79.2755C81.7796 79.1453 81.6619 78.9902 81.5494 78.8101C81.416 78.73 81.3066 78.6548 81.2211 78.5847C81.0502 78.4445 80.9033 78.3094 80.7803 78.1793C80.6469 78.0991 80.5375 78.024 80.452 77.9539C80.2811 77.8137 80.105 77.6985 79.9236 77.6082C79.7902 77.5281 79.6567 77.4479 79.5233 77.3677C79.3419 77.2775 79.1605 77.1873 78.9791 77.0971C78.8457 77.0169 78.7071 76.9617 78.5632 76.9315C78.3338 76.8312 78.1045 76.7309 77.8751 76.6306C77.7792 76.6105 77.6832 76.5904 77.5873 76.5703C77.214 76.4398 76.8355 76.3343 76.4518 76.2538C76.116 76.1833 75.751 76.1328 75.3567 76.1022C75.2608 76.0821 75.1409 76.0569 74.997 76.0268C74.7467 76.0264 74.4963 76.026 74.246 76.0257C74.1501 76.0056 74.0249 76.0054 73.8705 76.0252C73.6202 76.0248 73.3938 76.0295 73.1915 76.0392C73.0371 76.0589 72.9067 76.0838 72.8002 76.1136C72.5979 76.1233 72.3903 76.158 72.1775 76.2177C72.0231 76.2374 71.8927 76.2622 71.7862 76.2921C71.5734 76.3518 71.3845 76.4165 71.2197 76.4862C71.0653 76.506 70.9349 76.5308 70.8284 76.5606C70.6531 76.6803 70.459 76.77 70.2461 76.8297C70.1397 76.8595 70.052 76.9194 69.9831 77.0092C69.7118 77.1088 69.4832 77.2435 69.2974 77.4131C69.2494 77.4031 69.2202 77.423 69.2097 77.473Z" fill="#CBE2D1"/>
<path d="M60.3124 33.8053C55.6683 32.8309 50.9843 36.0905 49.9368 41.0829C49.7419 42.0118 50.268 42.9706 51.3129 43.1899C52.2417 43.3848 53.2249 42.7426 53.4198 41.8138C54.0776 38.679 56.7951 36.7037 59.5815 37.2884C62.368 37.8731 64.0624 40.7741 63.4047 43.9088C63.2098 44.8377 63.852 45.8209 64.7808 46.0158C65.8257 46.235 66.6929 45.5685 66.8877 44.6397C67.9353 39.6473 64.9565 34.7798 60.3124 33.8053Z" fill="#CBE2D1"/>
<path d="M106.929 43.5865C102.284 42.612 97.6005 45.8717 96.553 50.8641C96.3581 51.7929 96.8842 52.7518 97.9291 52.971C98.8579 53.1659 99.8412 52.5237 100.036 51.5949C100.694 48.4601 103.411 46.4849 106.198 47.0695C108.984 47.6542 110.679 50.5552 110.021 53.6899C109.826 54.6188 110.468 55.602 111.397 55.7969C112.442 56.0161 113.309 55.3496 113.504 54.4208C114.551 49.4284 111.573 44.5609 106.929 43.5865Z" fill="#CBE2D1"/>
</svg>
