<svg width="22" height="22" viewBox="0 0 22 22" fill="none" xmlns="http://www.w3.org/2000/svg">
<path d="M20.8477 10.915C20.8477 16.2859 16.4685 20.665 11.0977 20.665C5.72684 20.665 1.34766 16.2859 1.34766 10.915C1.34766 5.54422 5.72684 1.16504 11.0977 1.16504C16.4685 1.16504 20.8477 5.54422 20.8477 10.915Z" stroke="#CBE2D1" stroke-width="1.5"/>
<path d="M9.97438 15.79C8.76198 15.79 7.58868 16.8446 8.17533 17.4909C8.50776 17.8481 11.4605 17.8481 11.793 17.4909C12.3796 16.8446 11.3041 15.79 9.97438 15.79Z" fill="#CBE2D1"/>
<path d="M6.11429 12.5088L4.73828 13.515C4.75945 14.0619 5.18284 14.4775 5.71207 14.4775C6.26247 14.4775 6.70703 14.0182 6.70703 13.4494C6.70703 13.0338 6.47417 12.6619 6.11429 12.5088Z" fill="#CBE2D1"/>
<path d="M13.9258 13.4494C13.9258 14.0182 14.3656 14.4775 14.9102 14.4775C15.4338 14.4775 15.8526 14.0619 15.8945 13.515L14.5332 12.5088C14.1771 12.6619 13.9258 13.0338 13.9258 13.4494Z" fill="#CBE2D1"/>
</svg>
