<svg width="44" height="44" viewBox="0 0 44 44" fill="none" xmlns="http://www.w3.org/2000/svg">
<path d="M43.25 22C43.25 33.7068 33.7068 43.25 22 43.25C10.2932 43.25 0.75 33.7068 0.75 22C0.75 10.2932 10.2932 0.75 22 0.75C33.7068 0.75 43.25 10.2932 43.25 22Z" fill="#FF9D48" stroke="#043A4E" stroke-width="1.5"/>
<path fill-rule="evenodd" clip-rule="evenodd" d="M27.0225 20.4435L27.065 20.4524L26.9482 20.7977L26.8619 21.1031L26.8407 21.0986C26.5022 22.183 25.8849 23.1164 25.0803 23.7794L25.0756 23.8016L24.8685 23.943C24.8654 23.9577 24.8638 23.9651 24.8638 23.9651L24.5272 24.1949L24.5319 24.1727C23.696 24.6675 22.819 24.8301 21.9478 24.6473C21.0979 24.4689 20.3389 23.9631 19.7936 23.1785L19.789 23.2007L19.5731 22.855C19.5731 22.855 19.5747 22.8476 19.5778 22.8328L19.4237 22.6157L19.4496 22.598C18.9747 21.6896 18.7893 20.5646 18.894 19.4312L18.9377 19.1169L18.9908 18.7583L19.012 18.7628C19.1142 18.2758 19.2644 17.8067 19.4626 17.3553L19.5775 17.1252L27.1629 18.7168L27.1544 18.9692C27.1686 19.4652 27.1246 19.9566 27.0225 20.4435ZM19.9064 18.8349C19.9348 18.8408 19.9646 18.8394 19.9961 18.8306C20.0669 18.8454 20.1464 18.8544 20.2344 18.8575C20.2769 18.8664 20.321 18.8679 20.3666 18.8621C20.483 18.8711 20.6049 18.889 20.7324 18.9158C20.7466 18.9187 20.7623 18.9143 20.7796 18.9025C20.9212 18.9323 21.0786 18.9576 21.2517 18.9785C21.3083 18.9904 21.3579 19.0008 21.4004 19.0097C21.5451 19.0247 21.6883 19.047 21.83 19.0767C21.8867 19.0886 21.9449 19.0931 22.0046 19.0903C22.2029 19.1319 22.4154 19.1765 22.6421 19.224C22.9537 19.2894 23.2709 19.3637 23.5936 19.4468C23.6927 19.4676 23.7903 19.4958 23.8864 19.5313C24.113 19.5789 24.3381 19.6338 24.5617 19.6961C24.6719 19.7347 24.7908 19.7673 24.9183 19.794C25.1276 19.8534 25.3425 19.9216 25.563 19.9986C25.6874 20.0402 25.8118 20.0817 25.9362 20.1232C26.0889 20.1706 26.2416 20.2181 26.3943 20.2655C26.4655 19.9261 26.5053 19.5956 26.5137 19.2738L19.9481 17.8962C19.8264 18.1942 19.7244 18.504 19.6422 18.8256C19.7303 18.8287 19.8183 18.8318 19.9064 18.8349ZM20.2875 22.7276C20.7498 23.3792 21.3859 23.8362 22.0871 23.9833C22.8096 24.1349 23.5757 23.9721 24.2609 23.5613C24.2498 23.5436 24.2443 23.5347 24.2443 23.5347C24.2 23.4638 24.1542 23.4003 24.1068 23.3441C24.0847 23.3086 24.061 23.2806 24.0358 23.2599C23.9994 23.2214 23.9647 23.1756 23.9315 23.1225C23.8921 23.0988 23.8598 23.0766 23.8345 23.0559C23.7841 23.0145 23.7407 22.9746 23.7044 22.9362C23.665 22.9125 23.6327 22.8903 23.6074 22.8696C23.557 22.8282 23.5049 22.7942 23.4514 22.7675C23.412 22.7439 23.3726 22.7202 23.3332 22.6965C23.2796 22.6699 23.226 22.6432 23.1725 22.6166C23.1331 22.5929 23.0921 22.5766 23.0496 22.5677C22.9819 22.5381 22.9142 22.5085 22.8465 22.4789C22.8181 22.4729 22.7898 22.467 22.7615 22.461C22.6512 22.4225 22.5395 22.3913 22.4261 22.3676C22.327 22.3468 22.2192 22.3318 22.1028 22.3228C22.0744 22.3169 22.039 22.3094 21.9965 22.3005C21.9226 22.3004 21.8487 22.3003 21.7748 22.3002C21.7464 22.2943 21.7095 22.2942 21.6639 22.3C21.59 22.2999 21.5231 22.3013 21.4634 22.3042C21.4178 22.31 21.3793 22.3174 21.3478 22.3262C21.2881 22.329 21.2268 22.3393 21.1639 22.3569C21.1183 22.3627 21.0798 22.3701 21.0484 22.3789C20.9855 22.3965 20.9298 22.4156 20.8811 22.4362C20.8355 22.442 20.797 22.4494 20.7656 22.4582C20.7138 22.4935 20.6565 22.52 20.5936 22.5376C20.5622 22.5464 20.5363 22.5641 20.5159 22.5907C20.4358 22.6201 20.3683 22.6598 20.3134 22.7099C20.2993 22.7069 20.2906 22.7128 20.2875 22.7276Z" fill="#043A4E"/>
<path d="M17.6591 9.83252C16.2877 9.54477 14.9045 10.5074 14.5951 11.9816C14.5376 12.2559 14.6929 12.5391 15.0015 12.6038C15.2758 12.6614 15.5661 12.4717 15.6237 12.1974C15.8179 11.2717 16.6204 10.6884 17.4433 10.8611C18.2661 11.0337 18.7665 11.8904 18.5722 12.8161C18.5147 13.0904 18.7043 13.3807 18.9786 13.4383C19.2872 13.503 19.5432 13.3062 19.6008 13.0319C19.9101 11.5577 19.0305 10.1203 17.6591 9.83252Z" fill="#043A4E"/>
<path d="M31.4247 12.721C30.0533 12.4332 28.6701 13.3958 28.3608 14.87C28.3032 15.1443 28.4586 15.4275 28.7671 15.4922C29.0414 15.5498 29.3318 15.3601 29.3893 15.0859C29.5835 14.1602 30.386 13.5769 31.2089 13.7495C32.0317 13.9222 32.5321 14.7788 32.3378 15.7045C32.2803 15.9788 32.4699 16.2692 32.7442 16.3267C33.0528 16.3915 33.3088 16.1946 33.3664 15.9203C33.6757 14.4461 32.7961 13.0087 31.4247 12.721Z" fill="#043A4E"/>
</svg>
