<svg width="32" height="19" viewBox="0 0 32 19" fill="none" xmlns="http://www.w3.org/2000/svg">
<path d="M25.6094 4.48504C25.6094 6.73504 26.9894 8.55504 28.6894 8.55504C30.3894 8.55504 31.7694 6.73504 31.7694 4.48504C31.7694 2.23504 30.3894 0.415039 28.6894 0.415039C26.9894 0.415039 25.6094 2.23504 25.6094 4.48504Z" fill="#043A4E"/>
<path d="M0 4.48504C0 6.73504 1.37999 8.55504 3.07999 8.55504C4.77999 8.55504 6.15999 6.73504 6.15999 4.48504C6.15999 2.23504 4.77999 0.415039 3.07999 0.415039C1.37999 0.415039 0 2.23504 0 4.48504Z" fill="#043A4E"/>
<path d="M5.00988 10.415C5.00988 14.8327 9.70945 18.415 15.5049 18.415C21.3004 18.415 26 14.8327 26 10.415H5H5.00988Z" fill="#043A4E"/>
</svg>
