<svg width="150" height="150" viewBox="0 0 150 150" fill="none" xmlns="http://www.w3.org/2000/svg">
<path d="M148.75 75.0092C148.75 115.641 115.632 148.759 75 148.759C34.368 148.759 1.25 115.641 1.25 75.0092C1.25 34.3772 34.368 1.25916 75 1.25916C115.632 1.25916 148.75 34.3772 148.75 75.0092Z" stroke="#CBE2D1" stroke-width="1.5"/>
<path d="M67.0254 109.6C58.4231 109.6 50.0983 117.082 54.2607 121.668C56.6194 124.202 77.5701 124.202 79.9288 121.668C84.0912 117.082 76.4601 109.6 67.0254 109.6Z" fill="#CBE2D1"/>
<path d="M39.6381 86.3182L29.875 93.4578C30.0252 97.338 33.0292 100.287 36.7843 100.287C40.6895 100.287 43.8437 97.0276 43.8437 92.9922C43.8437 90.0432 42.1915 87.4047 39.6381 86.3182Z" fill="#CBE2D1"/>
<path d="M95.0596 92.9924C95.0596 97.0278 98.1803 100.287 102.044 100.287C105.759 100.287 108.731 97.3383 109.028 93.4581L99.3691 86.3185C96.8428 87.4049 95.0596 90.0435 95.0596 92.9924Z" fill="#CBE2D1"/>
</svg>
