<svg width="22" height="22" viewBox="0 0 22 22" fill="none" xmlns="http://www.w3.org/2000/svg">
<path d="M21.2383 10.915C21.2383 16.2859 16.8591 20.665 11.4883 20.665C6.11746 20.665 1.73828 16.2859 1.73828 10.915C1.73828 5.54422 6.11746 1.16504 11.4883 1.16504C16.8591 1.16504 21.2383 5.54422 21.2383 10.915Z" stroke="#CBE2D1" stroke-width="1.5"/>
<path fill-rule="evenodd" clip-rule="evenodd" d="M13.8865 10.1722L13.9068 10.1765L13.8511 10.3412L13.8099 10.487L13.7997 10.4849C13.6382 11.0024 13.3436 11.4479 12.9596 11.7643L12.9573 11.7749L12.8585 11.8424C12.857 11.8494 12.8563 11.853 12.8563 11.853L12.6956 11.9626L12.6978 11.9521C12.2989 12.1882 11.8803 12.2658 11.4645 12.1785C11.0589 12.0934 10.6966 11.852 10.4364 11.4776L10.4342 11.4881L10.3312 11.3231C10.3312 11.3231 10.3319 11.3196 10.3334 11.3126L10.2598 11.2089L10.2722 11.2005C10.0455 10.7669 9.95704 10.23 10.007 9.68906L10.0279 9.53904L10.0532 9.36789L10.0634 9.37002C10.1121 9.13762 10.1838 8.91371 10.2784 8.69829L10.3332 8.58847L13.9536 9.3481L13.9495 9.46856C13.9563 9.70526 13.9353 9.93981 13.8865 10.1722ZM10.4902 9.40445C10.5038 9.40728 10.518 9.4066 10.533 9.40239C10.5668 9.40948 10.6047 9.41377 10.6468 9.41523C10.6671 9.41949 10.6881 9.42022 10.7098 9.41744C10.7654 9.42174 10.8236 9.43028 10.8845 9.44305C10.8912 9.44446 10.8987 9.44236 10.907 9.43674C10.9746 9.45093 11.0497 9.46301 11.1323 9.47299C11.1593 9.47866 11.183 9.48363 11.2033 9.48788C11.2723 9.49503 11.3407 9.50569 11.4083 9.51987C11.4353 9.52555 11.4631 9.5277 11.4916 9.52633C11.5863 9.54619 11.6877 9.56747 11.7959 9.59017C11.9446 9.62138 12.096 9.65682 12.25 9.69649C12.2973 9.70642 12.3439 9.71987 12.3898 9.73684C12.4979 9.75954 12.6054 9.78575 12.7121 9.81549C12.7647 9.83388 12.8214 9.84946 12.8822 9.86223C12.9822 9.89055 13.0847 9.9231 13.19 9.95988C13.2493 9.97969 13.3087 9.9995 13.3681 10.0193C13.4409 10.042 13.5138 10.0646 13.5867 10.0872C13.6207 9.92527 13.6397 9.76751 13.6437 9.61394L10.5101 8.95644C10.452 9.09866 10.4034 9.24652 10.3641 9.40004C10.4061 9.40151 10.4482 9.40298 10.4902 9.40445ZM10.6721 11.2623C10.8927 11.5733 11.1964 11.7914 11.531 11.8616C11.8758 11.934 12.2415 11.8563 12.5685 11.6602C12.5632 11.6518 12.5606 11.6475 12.5606 11.6475C12.5394 11.6137 12.5176 11.5834 12.495 11.5566C12.4844 11.5397 12.4731 11.5263 12.461 11.5164C12.4437 11.498 12.4271 11.4762 12.4113 11.4508C12.3925 11.4395 12.3771 11.4289 12.365 11.419C12.3409 11.3993 12.3202 11.3802 12.3029 11.3619C12.2841 11.3506 12.2687 11.34 12.2566 11.3301C12.2325 11.3103 12.2077 11.2941 12.1821 11.2814C12.1633 11.2701 12.1445 11.2588 12.1257 11.2475C12.1002 11.2348 12.0746 11.2221 12.049 11.2094C12.0302 11.1981 12.0107 11.1903 11.9904 11.186C11.9581 11.1719 11.9257 11.1578 11.8934 11.1436C11.8799 11.1408 11.8664 11.1379 11.8529 11.1351C11.8002 11.1167 11.7469 11.1018 11.6928 11.0905C11.6455 11.0806 11.5941 11.0734 11.5385 11.0691C11.525 11.0663 11.5081 11.0628 11.4878 11.0585C11.4525 11.0585 11.4172 11.0584 11.3819 11.0584C11.3684 11.0555 11.3508 11.0555 11.329 11.0583C11.2937 11.0582 11.2618 11.0589 11.2333 11.0603C11.2116 11.063 11.1932 11.0665 11.1782 11.0707C11.1497 11.0721 11.1204 11.077 11.0904 11.0854C11.0686 11.0882 11.0503 11.0917 11.0353 11.0959C11.0053 11.1043 10.9786 11.1134 10.9554 11.1233C10.9336 11.126 10.9153 11.1295 10.9003 11.1337C10.8756 11.1506 10.8482 11.1633 10.8182 11.1717C10.8032 11.1759 10.7908 11.1843 10.7811 11.197C10.7429 11.211 10.7107 11.23 10.6845 11.2539C10.6777 11.2525 10.6736 11.2553 10.6721 11.2623Z" fill="#CBE2D1"/>
<path d="M9.41816 5.10782C8.76362 4.97048 8.10346 5.4299 7.95583 6.13352C7.92836 6.26443 8.0025 6.39957 8.14978 6.43048C8.28068 6.45794 8.41926 6.36743 8.44673 6.23653C8.53943 5.79471 8.92244 5.51632 9.31516 5.59872C9.70788 5.68112 9.94669 6.08999 9.85399 6.5318C9.82652 6.66271 9.91703 6.80129 10.0479 6.82875C10.1952 6.85966 10.3174 6.76571 10.3449 6.6348C10.4925 5.93118 10.0727 5.24516 9.41816 5.10782Z" fill="#CBE2D1"/>
<path d="M15.9885 6.48636C15.3339 6.34902 14.6738 6.80844 14.5261 7.51206C14.4987 7.64297 14.5728 7.77811 14.7201 7.80902C14.851 7.83648 14.9896 7.74597 15.017 7.61507C15.1097 7.17325 15.4927 6.89486 15.8855 6.97726C16.2782 7.05966 16.517 7.46853 16.4243 7.91034C16.3968 8.04125 16.4873 8.17983 16.6182 8.20729C16.7655 8.23819 16.8877 8.14425 16.9152 8.01334C17.0628 7.30972 16.643 6.6237 15.9885 6.48636Z" fill="#CBE2D1"/>
</svg>
