<svg width="44" height="44" viewBox="0 0 44 44" fill="none" xmlns="http://www.w3.org/2000/svg">
<path d="M43.25 22C43.25 33.7068 33.7068 43.25 22 43.25C10.2932 43.25 0.75 33.7068 0.75 22C0.75 10.2932 10.2932 0.75 22 0.75C33.7068 0.75 43.25 10.2932 43.25 22Z" fill="#FF9D48" stroke="#043A4E" stroke-width="1.5"/>
<path d="M19.25 27.5C17.7362 27.5 16.5 28.563 16.5 29.9034C16.5 30.0882 16.6766 30.25 16.8784 30.25C17.0803 30.25 17.2569 30.0882 17.2569 29.9034C17.2569 28.9559 18.1651 28.1933 19.25 28.1933C20.3349 28.1933 21.2431 28.9559 21.2431 29.9034C21.2431 30.0882 21.4197 30.25 21.6216 30.25C21.8234 30.25 22 30.0882 22 29.9034C22 28.563 20.7638 27.5 19.25 27.5Z" fill="#043A4E"/>
<path d="M13.5579 23.7153L10.1608 23.7153C9.96673 23.7153 9.79688 23.9903 9.79688 24.4028C9.79688 24.7695 9.96673 25.0903 10.1608 25.0903L13.5579 25.0903C13.752 25.0903 13.9219 24.7695 13.9219 24.4028C13.9219 23.9903 13.752 23.7153 13.5579 23.7153Z" fill="#043A4E"/>
<path d="M26.3047 24.4026C26.3047 24.7693 26.4745 25.0901 26.6687 25.0901L30.0657 25.0901C30.2598 25.0901 30.4297 24.7693 30.4297 24.4026C30.4297 23.9901 30.2598 23.7151 30.0657 23.7151L26.6687 23.7151C26.4745 23.7151 26.3047 23.9901 26.3047 24.4026Z" fill="#043A4E"/>
</svg>
