<svg width="364" height="347" viewBox="0 0 364 347" fill="none" xmlns="http://www.w3.org/2000/svg">
<path d="M397.458 178.499C400.498 136.181 366.267 75.9992 315.004 102.242C296.84 111.541 329.75 142.41 341.909 175.745C354.069 209.08 347.095 221.187 362.957 223.512C378.819 225.837 395.432 206.69 397.458 178.499Z" fill="#4EA692"/>
<path d="M105.312 248.612C106.792 255.398 107.702 262.814 112.418 270.437C117.073 277.962 116.021 278.969 128.516 286.382C140.72 293.613 155.729 294.773 167.131 303.617C191.274 322.366 184.029 358.623 198.241 382.958C213.077 408.372 252.538 416.887 272.759 392.9C291.141 371.096 287.173 335.272 282.89 309.284C278.112 280.285 276.722 252.08 286.159 223.617C300.803 179.431 319.729 115.176 279.823 77.6763C260.799 59.7939 230.471 64.6386 208.458 73.2237C170.1 88.181 152.933 97.2258 129.282 131.273C108.623 161.009 101.476 187.186 102.609 226.49C102.609 226.49 103.833 241.827 105.312 248.612Z" fill="#7A6687"/>
<path d="M260.819 252.259C251.426 229.186 268.477 191.273 297.235 193.447C311.962 194.565 322.802 209.013 324.98 222.852C329.188 249.542 298.115 265.306 275.282 263.651C268.132 263.133 263.417 258.648 260.813 252.257L260.819 252.259Z" fill="#FF9D48"/>
<mask id="path-4-outside-1_13757_30605" maskUnits="userSpaceOnUse" x="59.8279" y="41.0301" width="346.691" height="377.371" fill="black">
<rect fill="white" x="59.8279" y="41.0301" width="346.691" height="377.371"/>
<path d="M200.905 189.128C202.175 187.126 202.984 184.999 203.544 182.779C203.816 181.671 203.961 180.536 204.036 179.393C204.11 178.257 204.075 177.109 203.899 175.977C203.593 173.72 202.788 171.542 201.667 169.569C200.535 167.601 199.06 165.845 197.409 164.301C195.759 162.757 193.937 161.411 192.042 160.185L190.589 159.308C190.117 159.004 189.582 158.743 189.085 158.51C188.072 158.031 187.048 157.564 186.013 157.125C183.947 156.241 181.85 155.426 179.698 154.745C177.542 154.078 175.345 153.486 173.041 153.281C171.887 153.194 170.702 153.201 169.506 153.524C169.208 153.623 168.906 153.713 168.623 153.865L168.193 154.095C168.046 154.198 167.9 154.3 167.753 154.45C167.608 154.593 167.471 154.787 167.386 155.038C167.301 155.289 167.299 155.577 167.37 155.817C167.513 156.29 167.78 156.564 168.02 156.798C169.024 157.658 170.087 158.083 171.162 158.519C172.237 158.931 173.325 159.26 174.422 159.56C176.612 160.15 178.831 160.582 181.07 160.908C183.305 161.226 185.566 161.464 187.831 161.479C190.096 161.494 192.378 161.387 194.652 160.973C195.788 160.758 196.92 160.461 198.01 159.982C198.555 159.743 199.09 159.46 199.59 159.093C199.835 158.912 200.085 158.717 200.304 158.495L200.388 158.411L200.434 158.371C200.754 158.063 200.544 157.456 200.556 157.588C200.532 157.539 200.496 157.479 200.47 157.439L200.42 157.374C200.387 157.33 200.354 157.287 200.33 157.263C200.216 157.128 200.113 157.029 200.013 156.924C198.365 155.324 196.68 153.881 194.981 152.409C193.241 150.939 191.467 149.593 189.617 148.286C187.761 146.992 185.823 145.8 183.75 144.841C182.716 144.378 181.668 143.911 180.489 143.639C179.331 143.375 178.032 143.319 176.829 143.8C175.63 144.274 174.701 145.199 174.051 146.196C173.709 146.688 173.435 147.212 173.183 147.743C173.053 147.987 172.909 148.386 172.883 148.77C172.857 149.177 172.989 149.614 173.207 149.936C173.666 150.587 174.28 150.875 174.839 151.113C175.407 151.346 175.981 151.492 176.548 151.612C177.691 151.848 178.828 151.961 179.96 152.04C184.486 152.269 188.979 152.031 193.451 151.546C195.684 151.302 197.908 150.991 200.124 150.654C202.336 150.307 204.567 149.951 206.765 149.383C208.95 148.787 211.163 148.104 213.136 146.764C214.1 146.09 215.053 145.213 215.502 143.956C215.728 143.337 215.785 142.651 215.671 141.996C215.555 141.349 215.278 140.751 214.926 140.231C214.577 139.705 214.127 139.264 213.607 138.888C213.063 138.536 212.586 138.294 212.077 138.025C211.072 137.501 210.059 137.021 209.035 136.554C206.983 135.627 204.912 134.757 202.802 133.978C198.592 132.391 194.246 131.134 189.802 130.332C185.36 129.547 180.777 129.227 176.241 129.922L176.22 129.915C175.863 129.978 175.624 130.305 175.679 130.66C175.696 130.754 175.731 130.838 175.776 130.917C176.161 131.504 176.532 131.942 176.965 132.385C177.384 132.823 177.83 133.23 178.292 133.611C179.217 134.372 180.193 135.055 181.224 135.645C183.272 136.843 185.457 137.752 187.69 138.476C189.915 139.222 192.222 139.7 194.511 140.116C196.791 140.512 199.073 140.878 201.355 141.243C205.915 141.964 210.455 142.694 214.909 143.771C219.374 144.82 223.738 146.235 228.015 147.885C230.158 148.707 232.27 149.599 234.367 150.534C235.403 150.989 236.492 151.478 237.603 151.903C238.722 152.306 239.869 152.67 241.058 152.889C242.239 153.153 243.474 153.212 244.703 153.172C245.936 153.094 247.182 152.812 248.334 152.314C250.691 151.328 252.449 149.322 253.596 147.19C254.752 145.028 255.366 142.675 255.726 140.316C256.054 137.954 256.12 135.567 255.85 133.179C255.706 131.954 255.439 130.831 255.23 129.703L254.561 126.299L253.236 119.503C252.374 114.969 251.563 110.428 250.891 105.878C250.13 101.403 250.361 96.7826 249.757 92.0798C249.453 89.7439 248.985 87.3522 247.91 85.123L247.503 84.2966C247.346 84.0275 247.17 83.7678 247.011 83.5058C246.708 82.9628 246.272 82.503 245.88 82.0098C245.47 81.543 244.999 81.143 244.563 80.7071C244.086 80.3215 243.588 79.9525 243.087 79.5906C241.021 78.2341 238.664 77.4276 236.292 77.0236C233.912 76.6172 231.515 76.5894 229.161 76.7679C224.432 77.1344 219.875 78.319 215.44 79.7535C211.012 81.2143 206.7 82.9945 202.488 84.9524C198.285 86.9057 194.151 89.0821 190.105 91.2565C185.917 93.519 182.257 96.4646 178.859 99.675C172.065 106.137 166.839 114.034 162.755 122.382C158.752 130.726 154.986 139.174 150.377 147.137C148.071 151.11 145.518 154.942 142.613 158.488C139.714 162.044 136.481 165.31 133.026 168.333C132.151 169.077 131.299 169.845 130.4 170.565L127.704 172.716C125.928 174.043 123.872 175.179 121.922 176.407C119.949 177.628 117.984 178.875 116.104 180.27C115.164 180.968 114.243 181.705 113.377 182.516C112.511 183.327 111.687 184.224 111.056 185.331C110.749 185.883 110.516 186.524 110.462 187.226C110.424 187.926 110.562 188.557 110.755 189.143C111.139 190.321 111.715 191.381 112.342 192.386C113.612 194.393 115.137 196.19 116.787 197.854C118.447 199.513 120.251 201.029 122.251 202.299C123.265 202.915 124.306 203.499 125.433 203.946C126.556 204.382 127.788 204.711 129.095 204.626C129.751 204.601 130.411 204.4 131.032 204.122C131.318 203.939 131.628 203.78 131.881 203.553C132.119 203.322 132.405 203.115 132.593 202.842C133.017 202.346 133.377 201.732 133.57 201.045C133.768 200.367 133.745 199.631 133.596 198.964C132.955 196.234 130.177 194.476 127.429 194.778C126.059 194.929 124.813 195.636 123.889 196.523C122.94 197.41 122.229 198.449 121.643 199.516C121.041 200.584 120.59 201.704 120.23 202.838C120.04 203.398 119.869 203.973 119.727 204.557C119.554 205.139 119.465 205.709 119.354 206.271C118.911 208.546 118.491 210.821 118.005 213.081L117.295 216.474C117.03 217.609 116.854 218.742 116.375 219.684C116.119 220.134 115.841 220.6 115.456 220.838C115.081 221.095 114.679 221.151 114.304 220.959C113.934 220.778 113.596 220.383 113.405 219.91C113.175 219.456 113.07 218.917 112.994 218.387C112.944 217.849 112.93 217.3 112.981 216.749C113.008 216.198 113.109 215.688 113.339 215.246C113.559 214.808 113.896 214.474 114.34 214.297C114.779 214.109 115.301 214.078 115.818 214.133C116.871 214.258 117.888 214.723 118.85 215.305C119.805 215.884 120.701 216.588 121.54 217.345C123.212 218.872 124.725 220.657 126.51 222.183C127.402 222.949 128.355 223.649 129.367 224.248C130.365 224.842 131.382 225.403 132.425 225.932C134.498 226.987 137.667 227.511 139.875 228.26L139.661 227.908C136.295 229.513 131.943 230.963 128.377 232.076C126.593 232.624 124.785 233.099 122.954 233.431C121.13 233.742 119.259 233.956 117.458 233.73C116.563 233.61 115.661 233.417 114.897 232.982C114.122 232.559 113.522 231.924 113.133 231.136C112.743 230.355 112.594 229.472 112.795 228.644C113.01 227.82 113.541 227.08 114.195 226.493C115.53 225.313 117.325 224.64 119.107 224.452C120.008 224.365 120.917 224.417 121.764 224.656C122.612 224.888 123.39 225.351 123.933 226.015C124.484 226.675 124.772 227.524 124.858 228.402C124.952 229.282 124.848 230.2 124.638 231.081C124.442 231.967 124.126 232.828 123.724 233.66C123.338 234.49 122.853 235.286 122.344 236.058C120.256 239.128 117.57 241.771 114.984 244.497C113.691 245.859 112.385 247.234 111.185 248.7C109.985 250.166 108.851 251.719 108.006 253.457C107.152 255.177 106.643 257.149 106.762 259.11C106.859 261.064 107.428 262.946 108.221 264.687C109.835 268.179 112.282 271.194 115.079 273.766C117.886 276.334 121.082 278.482 124.541 280.07C127.992 281.656 131.764 282.695 135.575 282.865C139.363 283.125 143.164 282.972 146.92 282.501C154.443 281.552 161.726 279.427 168.88 277.113L179.587 273.586C183.161 272.428 186.744 271.289 190.306 270.072C197.423 267.633 204.503 264.878 211.029 260.999C211.843 260.507 212.66 260.031 213.441 259.495C214.234 258.972 215.024 258.455 215.779 257.879L216.928 257.036C217.306 256.747 217.664 256.421 218.039 256.116C218.802 255.518 219.438 254.797 220.124 254.117C221.388 252.672 222.587 251.142 223.472 249.425C223.982 248.605 224.303 247.681 224.717 246.813C225.004 245.894 225.387 245 225.56 244.042C226.505 240.288 226.218 236.205 224.684 232.619C224.224 231.759 223.86 230.852 223.268 230.075C222.988 229.676 222.736 229.262 222.434 228.88L221.477 227.787L220.999 227.241L220.47 226.749L219.413 225.767L218.273 224.884C217.896 224.581 217.512 224.298 217.099 224.054L215.885 223.275L214.613 222.595C213.777 222.112 212.869 221.796 211.997 221.397C210.196 220.746 208.362 220.165 206.485 219.833C202.737 219.075 198.892 219.005 195.106 219.306C191.316 219.638 187.567 220.417 183.965 221.661C180.369 222.908 176.933 224.649 173.802 226.813C167.518 231.158 162.47 236.995 158.146 243.173C153.875 249.409 149.9 255.785 146.043 262.258C142.202 268.736 138.558 275.337 135.16 282.061C135.017 282.34 135.116 282.686 135.39 282.843C137.469 284.068 139.497 285.491 141.433 286.972C143.366 288.459 145.232 290.052 146.947 291.786C148.666 293.505 150.289 295.344 151.619 297.363L152.132 298.113C152.303 298.363 152.433 298.64 152.585 298.899C152.869 299.428 153.19 299.944 153.455 300.483L154.167 302.132C154.299 302.401 154.387 302.687 154.464 302.977L154.715 303.839L154.967 304.701L155.142 305.6C155.251 306.198 155.391 306.797 155.474 307.402L155.74 309.212L155.938 311.033C156.16 313.469 156.209 315.918 156.222 318.38C156.235 320.842 156.231 323.329 156.409 325.823C156.58 328.314 156.952 330.801 157.528 333.229C157.792 334.455 158.18 335.643 158.519 336.839C158.888 338.012 159.251 339.184 159.584 340.369C160.263 342.728 160.866 345.101 161.267 347.503C161.668 349.904 161.868 352.332 161.788 354.762C161.722 357.197 161.434 359.629 161.059 362.055C160.694 364.476 156.095 360.816 155.746 363.283C155.386 365.738 147.273 352.522 147.125 355.009C146.842 359.971 158.838 363.066 160.059 367.954C160.141 368.278 171.196 343.04 171.016 366.434C172.896 346.5 166.117 378.578 185.552 373.449L194.844 369.241C195.653 367.49 192.336 379.226 193.334 377.532C194.342 375.832 187.139 374.998 188.24 373.354C190.449 370.068 171.822 375.107 174.281 372.002C179.246 365.841 184.52 359.785 188.702 352.918C190.763 349.479 192.535 345.782 193.411 341.805C193.855 339.834 194.127 337.805 194.153 335.773C194.183 333.75 194.043 331.758 194.015 329.788C193.978 327.822 194.055 325.871 194.475 323.997C194.904 322.117 195.611 320.292 196.418 318.5C198.036 314.927 200.05 311.343 200.74 307.255L201.122 304.287C201.214 303.31 201.478 302.367 201.65 301.409C201.869 300.458 202.161 299.525 202.439 298.587L202.944 297.213L203.195 296.522L203.493 295.854C205.054 292.262 207.208 288.95 209.65 285.847C212.08 282.733 214.734 279.783 217.351 276.78C218.654 275.269 219.967 273.777 221.221 272.201C222.464 270.629 223.646 269.005 224.757 267.332C229.184 260.637 232.566 253.347 235.498 245.921C236.933 242.181 238.144 238.398 239.576 234.713C240.999 231.033 242.687 227.444 244.962 224.269C249.703 217.992 255.343 212.316 261.521 207.414C267.717 202.551 274.573 198.359 282.081 196.062C285.856 194.948 289.725 194.026 293.613 193.591C295.556 193.401 297.522 193.307 299.419 193.558C301.317 193.785 303.179 194.376 304.599 195.537C306.049 196.685 306.848 198.453 307.198 200.3C307.506 202.173 307.435 204.126 307.159 206.049C306.866 207.975 306.413 209.878 305.773 211.719C305.134 213.559 304.274 215.316 303.269 216.985C301.276 220.343 298.562 223.233 295.534 225.705C292.481 228.159 289.056 230.128 285.519 231.907C281.988 233.695 278.364 235.357 274.851 237.279C273.093 238.244 271.368 239.277 269.712 240.412C268.042 241.543 266.477 242.837 264.976 244.13C263.468 245.419 261.974 246.714 260.369 247.795C258.773 248.871 257.021 249.725 255.186 249.88C253.348 250.066 251.542 249.333 249.994 248.265C248.437 247.152 247.08 245.78 246.455 244.04C245.12 240.594 247.222 236.28 250.591 234.924C251.421 234.598 252.317 234.501 253.144 234.725C253.959 234.938 254.723 235.468 255.159 236.161C255.608 236.865 255.773 237.769 255.749 238.69C255.732 239.612 255.562 240.563 255.327 241.492C254.313 245.238 252.517 248.815 250.817 252.393C249.955 254.182 249.084 255.976 248.264 257.803C247.44 259.693 246.978 261.833 247.238 263.922C247.447 266.018 248.221 267.953 249.035 269.774C249.854 271.604 250.783 273.367 251.422 275.185C252.075 276.983 252.39 278.906 252.476 280.848C252.551 282.795 252.428 284.762 252.271 286.734C251.963 290.663 251.419 294.721 252.137 298.782C252.492 300.775 253.14 302.827 254.328 304.534C255.477 306.261 256.951 307.737 258.575 308.959C261.832 311.424 265.556 313.078 269.322 314.418C273.105 315.756 276.978 316.757 280.864 317.625L286.694 318.889C288.66 319.291 290.674 319.622 292.689 319.688C294.707 319.772 296.723 319.743 298.721 319.532C300.724 319.354 302.713 319.027 304.676 318.612C308.605 317.775 312.44 316.553 316.14 315.022C319.845 313.5 323.431 311.69 326.859 309.619C330.292 307.556 333.572 305.235 336.639 302.648C339.717 300.074 342.558 297.211 345.07 294.068C346.304 292.478 347.469 290.832 348.494 289.082C349.499 287.342 350.424 285.558 351.264 283.738C352.093 281.906 352.838 280.037 353.497 278.14C354.135 276.235 354.686 274.301 355.135 272.34C355.562 270.371 355.892 268.386 356.106 266.386C356.299 264.378 356.374 262.363 356.33 260.347C356.153 256.317 355.636 252.372 355.152 248.422C354.143 240.549 353.173 232.633 354.238 224.798C355.207 216.938 356.935 209.176 359.155 201.564C360.262 197.754 361.484 193.982 362.802 190.235L364.818 184.619C365.498 182.729 366.035 180.79 366.52 178.841C367.408 174.924 367.935 170.893 367.777 166.853L367.706 165.341C367.668 164.839 367.606 164.338 367.554 163.832C367.473 162.82 367.263 161.837 367.099 160.837C366.673 158.86 366.165 156.894 365.385 155.021C364.677 153.125 363.709 151.332 362.675 149.597C361.626 147.905 360.558 146.222 359.477 144.551C357.317 141.21 355.077 137.914 352.822 134.636C350.578 131.355 348.306 128.104 346.179 124.758C345.103 123.096 344.098 121.395 343.104 119.681C342.122 117.956 341.245 116.226 340.285 114.436C338.351 110.899 335.917 107.633 333.028 104.813C330.148 101.989 326.84 99.6271 323.329 97.6767C323.04 97.5148 322.676 97.6234 322.516 97.9055C322.354 98.1947 322.462 98.5595 322.744 98.719C326.191 100.6 329.423 102.879 332.248 105.606C335.075 108.325 337.471 111.49 339.382 114.931C340.319 116.649 341.231 118.462 342.215 120.181C343.221 121.906 344.239 123.62 345.319 125.29C347.465 128.651 349.741 131.912 351.996 135.189C354.253 138.459 356.49 141.738 358.646 145.07C360.768 148.431 363.087 151.682 364.471 155.36C365.222 157.175 365.724 159.09 366.145 161.01C366.302 161.983 366.513 162.943 366.586 163.929C366.636 164.418 366.703 164.905 366.736 165.396L366.803 166.875C366.961 170.819 366.453 174.769 365.587 178.621C364.719 182.481 363.203 186.153 361.88 189.914C360.545 193.664 359.316 197.457 358.186 201.284C355.94 208.927 354.181 216.735 353.181 224.664C352.635 228.632 352.594 232.668 352.802 236.653C353.015 240.647 353.494 244.611 353.964 248.556C354.419 252.496 354.922 256.46 355.042 260.375C355.065 262.335 354.961 264.293 354.756 266.241C354.528 268.188 354.185 270.121 353.746 272.029C353.293 273.932 352.727 275.814 352.092 277.663C351.433 279.513 350.684 281.324 349.86 283.094C349.027 284.868 348.077 286.587 347.079 288.258C346.071 289.909 344.923 291.481 343.708 292.99C338.711 298.964 332.383 303.767 325.604 307.544C322.21 309.444 318.689 311.084 315.076 312.452C311.468 313.831 307.761 314.887 304.02 315.573C300.29 316.294 296.51 316.621 292.829 316.398L291.453 316.308L290.097 316.136C289.64 316.094 289.2 316 288.75 315.912C288.293 315.821 287.882 315.762 287.379 315.64L281.585 314.364C277.764 313.518 274.005 312.556 270.404 311.295C266.817 310.04 263.356 308.483 260.531 306.349C259.114 305.292 257.912 304.076 257.009 302.73C256.061 301.4 255.597 299.939 255.257 298.206C254.605 294.8 255.035 290.984 255.335 286.964C255.482 284.949 255.606 282.862 255.5 280.697C255.392 278.539 255.019 276.292 254.209 274.152C253.428 272.047 252.473 270.314 251.668 268.561C250.864 266.832 250.204 265.192 250.038 263.607C249.815 262.026 250.127 260.467 250.768 258.907C251.526 257.14 252.384 255.341 253.217 253.543C254.06 251.739 254.91 249.915 255.701 248.03C256.484 246.142 257.242 244.214 257.766 242.102C258.02 241.044 258.223 239.928 258.229 238.706C258.249 238.104 258.174 237.454 258.039 236.792C257.872 236.128 257.639 235.448 257.221 234.818C256.815 234.2 256.279 233.635 255.683 233.249C255.103 232.836 254.444 232.541 253.753 232.362C253.06 232.168 252.339 232.147 251.652 232.195C250.971 232.268 250.317 232.431 249.715 232.675C247.322 233.673 245.658 235.542 244.655 237.699C243.647 239.847 243.47 242.492 244.351 244.775C244.78 245.913 245.433 246.935 246.212 247.799C246.59 248.239 247.016 248.632 247.441 248.984L248.747 249.987C249.21 250.296 249.718 250.564 250.205 250.849C250.695 251.127 251.278 251.293 251.811 251.513C252.363 251.7 252.968 251.778 253.542 251.9C254.136 251.917 254.734 251.968 255.321 251.911C257.7 251.684 259.731 250.596 261.459 249.413C263.194 248.208 264.707 246.856 266.199 245.544C267.685 244.223 269.143 242.989 270.734 241.879C272.313 240.757 273.971 239.734 275.68 238.769C279.093 236.836 282.696 235.168 286.254 233.324C289.812 231.505 293.34 229.443 296.493 226.862C299.624 224.273 302.432 221.223 304.501 217.69C305.538 215.929 306.422 214.075 307.086 212.139C307.743 210.201 308.201 208.211 308.492 206.197C308.759 204.182 308.833 202.102 308.473 200.028C308.263 198.996 307.945 197.976 307.445 197.022C306.952 196.071 306.236 195.212 305.402 194.537C303.714 193.172 301.63 192.53 299.601 192.219C297.554 191.893 295.504 191.879 293.464 191.956C291.424 192.033 289.399 192.275 287.398 192.589C285.383 192.899 283.432 193.302 281.459 193.866C279.471 194.425 277.535 195.137 275.677 195.996C274.743 196.416 273.81 196.836 272.909 197.323C272.002 197.784 271.09 198.259 270.218 198.78C266.685 200.808 263.342 203.125 260.177 205.646C257.013 208.168 254.013 210.888 251.196 213.776C248.36 216.672 245.755 219.711 243.319 223.032C240.926 226.439 239.217 230.206 237.806 233.969C236.383 237.745 235.213 241.55 233.845 245.233C231.033 252.587 227.776 259.839 223.507 266.445C222.437 268.091 221.301 269.699 220.098 271.244C218.902 272.792 217.587 274.291 216.307 275.802C213.722 278.808 211.065 281.789 208.611 284.975C206.149 288.135 203.94 291.564 202.347 295.298L202.039 295.994L201.781 296.707L201.266 298.133C200.985 299.103 200.688 300.074 200.465 301.063C200.287 302.059 200.025 303.043 199.931 304.052L199.563 307.001C198.939 310.823 196.996 314.318 195.348 317.954C194.529 319.781 193.788 321.683 193.335 323.682C192.893 325.693 192.815 327.74 192.861 329.749C192.901 331.755 193.036 333.738 193.013 335.691C193 337.64 192.736 339.575 192.309 341.495C191.467 345.324 189.767 348.901 187.75 352.284C185.704 355.656 183.362 358.864 180.926 361.993C178.496 365.131 175.916 368.146 173.44 371.277C170.964 374.408 167.432 362.736 165.211 366.057C164.106 367.715 162.54 363.42 161.525 365.141C160.507 366.87 159.132 361.422 158.282 363.271L148.485 357.728L167.653 366.148C166.46 361.413 157.794 366.831 158.069 361.938C158.212 359.489 164.489 369.977 164.842 367.543C165.186 365.114 161.649 364.608 162.026 362.15C162.408 359.703 162.701 357.233 162.779 354.738C162.865 352.246 162.665 349.745 162.252 347.284C161.846 344.826 161.232 342.416 160.553 340.033C159.886 337.638 159.058 335.317 158.521 332.941C157.959 330.566 157.606 328.141 157.434 325.698C157.263 323.255 157.274 320.794 157.264 318.325C157.266 313.388 157.025 308.368 155.754 303.511L155.488 302.596C155.409 302.289 155.312 301.984 155.177 301.698L154.432 299.957C154.16 299.393 153.83 298.857 153.532 298.299C153.375 298.03 153.233 297.742 153.057 297.482L152.53 296.703C151.155 294.605 149.492 292.72 147.732 290.955C145.984 289.179 144.087 287.559 142.115 286.043C140.143 284.526 138.116 283.102 135.951 281.825L136.165 282.537C139.561 275.844 143.202 269.275 147.044 262.821C150.895 256.387 154.865 249.977 159.208 243.885C163.605 237.868 168.728 232.328 174.852 228.313C180.958 224.284 188.004 221.958 195.272 221.267C198.894 220.934 202.564 220.953 206.135 221.571C207.932 221.836 209.667 222.352 211.386 222.918C212.217 223.272 213.082 223.549 213.877 223.987L215.085 224.596L216.245 225.302C216.641 225.524 217.009 225.784 217.371 226.059L218.466 226.862L219.481 227.759L219.993 228.205L220.448 228.703L221.359 229.692C221.642 230.036 221.889 230.416 222.151 230.777C222.719 231.481 223.067 232.32 223.505 233.101C223.685 233.514 223.829 233.938 223.989 234.361L224.23 234.995L224.392 235.65C224.49 236.091 224.615 236.526 224.696 236.97L224.854 238.32C224.961 240.125 224.868 241.958 224.403 243.73C224.25 244.63 223.884 245.474 223.606 246.341C223.207 247.166 222.898 248.03 222.41 248.809C221.563 250.435 220.413 251.87 219.207 253.238C218.552 253.872 217.942 254.562 217.219 255.117C216.865 255.406 216.531 255.708 216.158 255.982L215.026 256.799C214.286 257.357 213.5 257.859 212.729 258.366C211.96 258.889 211.155 259.353 210.355 259.826C203.926 263.586 196.883 266.161 189.783 268.478C186.226 269.633 182.634 270.705 179.032 271.805L168.273 275.154C161.143 277.396 153.964 279.429 146.669 280.294C143.025 280.716 139.373 280.927 135.74 280.68C132.142 280.542 128.709 279.61 125.427 278.138C122.157 276.678 119.087 274.7 116.397 272.308C113.714 269.918 111.368 267.098 109.839 263.923C109.086 262.347 108.554 260.662 108.448 258.993C108.316 257.332 108.703 255.694 109.446 254.113C110.176 252.528 111.223 251.042 112.368 249.621C113.515 248.193 114.77 246.825 116.049 245.458C118.594 242.711 121.293 240.008 123.451 236.753C124.506 235.126 125.468 233.347 125.908 231.343C126.138 230.357 126.256 229.324 126.14 228.252C126.036 227.192 125.663 226.074 124.921 225.198C124.188 224.317 123.167 223.723 122.132 223.452C121.094 223.165 120.038 223.119 119.02 223.222C116.986 223.445 115.012 224.177 113.417 225.581C112.635 226.285 111.95 227.221 111.659 228.339C111.38 229.469 111.601 230.68 112.092 231.639C112.56 232.614 113.398 233.49 114.353 233.998C115.308 234.53 116.339 234.743 117.334 234.872C119.339 235.112 121.285 234.867 123.178 234.54C125.069 234.196 126.917 233.694 128.73 233.132C132.357 231.984 135.862 230.579 139.312 228.938C139.681 228.767 140.613 228.244 140.436 227.871C140.348 227.682 139.703 227.451 139.516 227.388L139.189 227.277C137.038 226.548 134.975 225.956 132.943 224.923C131.926 224.41 130.931 223.857 129.952 223.277C128.985 222.71 128.096 222.056 127.248 221.328C125.536 219.868 124.049 218.123 122.303 216.507C121.422 215.712 120.482 214.97 119.447 214.346C118.425 213.728 117.269 213.176 115.97 213.024C115.324 212.949 114.618 212.982 113.948 213.259C113.274 213.527 112.699 214.093 112.389 214.724C112.065 215.35 111.946 216.03 111.916 216.637C111.86 217.25 111.867 217.868 111.935 218.492C112.02 219.113 112.149 219.749 112.44 220.352C112.7 220.952 113.142 221.558 113.851 221.918C114.016 222.022 114.214 222.074 114.418 222.11C114.516 222.128 114.621 222.147 114.721 222.157L115.026 222.132L115.327 222.091C115.419 222.058 115.51 222.024 115.603 221.984C115.781 221.908 115.973 221.837 116.103 221.713C116.732 221.294 117.059 220.708 117.383 220.154C117.521 219.865 117.628 219.573 117.749 219.286C117.849 218.991 117.917 218.694 118.003 218.395C118.154 217.806 118.26 217.258 118.388 216.693L119.148 213.317L120.671 206.558C120.799 205.993 120.912 205.423 121.09 204.899C121.241 204.358 121.414 203.824 121.616 203.3C121.993 202.235 122.453 201.207 123.009 200.251C123.557 199.292 124.214 198.394 125.008 197.678C125.799 196.97 126.731 196.438 127.721 196.277C128.708 196.123 129.741 196.329 130.574 196.892C131.413 197.432 132.038 198.3 132.246 199.243C132.469 200.191 132.2 201.149 131.552 201.929C131.248 202.331 130.859 202.631 130.445 202.883C130.001 203.085 129.538 203.248 129.033 203.277C128.02 203.365 126.941 203.128 125.919 202.749C124.889 202.368 123.891 201.846 122.939 201.259C121.037 200.055 119.278 198.594 117.663 196.99C116.058 195.382 114.572 193.637 113.361 191.738C112.762 190.791 112.222 189.792 111.883 188.764C111.713 188.251 111.611 187.728 111.63 187.246C111.661 186.776 111.822 186.279 112.081 185.822C112.603 184.895 113.354 184.045 114.175 183.274C114.996 182.504 115.888 181.782 116.799 181.098C118.628 179.733 120.569 178.486 122.525 177.268C124.478 176.033 126.49 174.93 128.397 173.503L131.109 171.325C132.018 170.601 132.875 169.819 133.76 169.07C137.255 166.021 140.567 162.733 143.52 159.14C144.274 158.259 144.98 157.329 145.68 156.398C146.405 155.483 147.045 154.516 147.73 153.579C148.061 153.099 148.422 152.645 148.76 152.167C149.098 151.69 149.433 151.219 149.79 150.756C150.511 149.831 151.179 148.873 151.855 147.918C152.545 146.967 153.18 145.99 153.776 144.983C154.378 143.987 154.941 142.961 155.455 141.918C156.524 139.848 157.5 137.745 158.429 135.619C160.305 131.381 161.94 127.028 163.823 122.816C164.319 121.776 164.787 120.726 165.302 119.7C165.839 118.682 166.536 117.757 167.166 116.794C167.775 115.824 168.405 114.861 169.045 113.917C169.694 112.969 170.295 111.996 170.987 111.086C173.629 107.347 176.626 103.857 179.957 100.727C183.28 97.6197 186.928 94.758 190.892 92.6599C195.007 90.4929 199.067 88.3953 203.263 86.4875C207.441 84.5822 211.693 82.8377 216.042 81.422C220.39 80.0303 224.842 78.8979 229.34 78.5735C231.584 78.4136 233.835 78.448 236.006 78.8318C238.181 79.2086 240.272 79.9492 242.068 81.1343C242.502 81.4574 242.929 81.7782 243.351 82.1133C243.727 82.4889 244.151 82.8408 244.496 83.2378C244.82 83.6516 245.194 84.0344 245.452 84.4981C245.592 84.7217 245.742 84.9405 245.879 85.1712L246.235 85.8919C247.184 87.8304 247.642 90.0424 247.934 92.2703C248.53 96.7383 248.32 101.437 249.116 106.093C249.807 110.681 250.635 115.244 251.517 119.785L252.864 126.589L253.543 129.988C253.764 131.127 254.029 132.257 254.152 133.332C254.413 135.533 254.353 137.81 254.058 140.023C253.735 142.227 253.161 144.417 252.133 146.342C251.117 148.255 249.633 149.921 247.692 150.743C246.727 151.161 245.694 151.403 244.621 151.479C243.548 151.508 242.456 151.474 241.378 151.237C240.299 151.047 239.231 150.709 238.182 150.338C237.14 149.945 236.11 149.492 235.038 149.024C232.919 148.082 230.774 147.195 228.6 146.37C224.259 144.723 219.811 143.295 215.279 142.256C210.75 141.185 206.16 140.462 201.6 139.765C199.32 139.417 197.043 139.061 194.775 138.677C192.522 138.273 190.293 137.822 188.135 137.115C185.979 136.424 183.875 135.559 181.929 134.435C180.951 133.879 180.033 133.24 179.167 132.539C178.736 132.184 178.326 131.813 177.947 131.421C177.564 131.043 177.198 130.591 176.944 130.208L176.481 131.196C180.799 130.507 185.258 130.793 189.607 131.546C193.96 132.31 198.246 133.53 202.406 135.076C204.492 135.831 206.539 136.701 208.565 137.611C209.575 138.074 210.573 138.548 211.552 139.056C212.027 139.305 212.55 139.578 212.944 139.832C213.328 140.114 213.687 140.468 213.958 140.872C214.516 141.677 214.722 142.651 214.396 143.517C214.097 144.4 213.334 145.142 212.478 145.733C210.734 146.918 208.606 147.606 206.494 148.179C204.365 148.73 202.177 149.077 199.965 149.424C197.763 149.766 195.559 150.067 193.345 150.302C188.93 150.782 184.466 151.006 180.065 150.787C178.971 150.713 177.872 150.604 176.827 150.386C176.306 150.274 175.792 150.139 175.329 149.95C174.863 149.768 174.44 149.505 174.255 149.226C174.082 148.96 174.095 148.708 174.325 148.242C174.56 147.761 174.799 147.29 175.096 146.862C175.671 145.992 176.414 145.284 177.309 144.931C178.204 144.578 179.236 144.6 180.245 144.83C181.257 145.052 182.265 145.498 183.263 145.948C185.245 146.868 187.133 148.02 188.941 149.289C190.739 150.563 192.52 151.935 194.179 153.361C195.849 154.824 197.553 156.306 199.106 157.833C199.194 157.926 199.289 158.023 199.358 158.102C199.382 158.126 199.396 158.155 199.396 158.155L199.413 158.177C199.413 158.177 199.387 158.136 199.377 158.117C199.41 158.28 199.195 157.711 199.513 157.434L199.479 157.463L199.409 157.527C199.238 157.701 199.044 157.851 198.842 157.999C198.438 158.294 197.982 158.532 197.497 158.736C196.535 159.146 195.489 159.424 194.425 159.616C192.295 160.006 190.082 160.073 187.887 159.993C183.487 159.839 179.063 159.284 174.796 158.198C173.732 157.917 172.677 157.608 171.662 157.232C170.663 156.853 169.619 156.419 168.909 155.827C168.742 155.682 168.628 155.523 168.605 155.451C168.591 155.398 168.574 155.425 168.675 155.291C168.718 155.234 168.81 155.177 168.887 155.115L169.192 154.946C169.391 154.829 169.633 154.751 169.861 154.668C170.82 154.385 171.905 154.345 172.973 154.402C175.134 154.535 177.3 155.053 179.413 155.681C181.533 156.311 183.624 157.076 185.686 157.903C186.718 158.324 187.738 158.758 188.751 159.213L189.503 159.564C189.732 159.666 189.98 159.83 190.217 159.958L191.654 160.789C193.524 161.968 195.327 163.275 196.954 164.771C198.581 166.267 200.03 167.958 201.138 169.855C202.246 171.751 203.056 173.842 203.296 176.036C203.875 180.387 202.496 184.953 199.956 188.391L199.927 188.429C199.731 188.699 199.789 189.07 200.052 189.263C200.314 189.456 200.693 189.401 200.886 189.138L200.905 189.104L200.905 189.128Z"/>
</mask>
<path d="M200.905 189.128C202.175 187.126 202.984 184.999 203.544 182.779C203.816 181.671 203.961 180.536 204.036 179.393C204.11 178.257 204.075 177.109 203.899 175.977C203.593 173.72 202.788 171.542 201.667 169.569C200.535 167.601 199.06 165.845 197.409 164.301C195.759 162.757 193.937 161.411 192.042 160.185L190.589 159.308C190.117 159.004 189.582 158.743 189.085 158.51C188.072 158.031 187.048 157.564 186.013 157.125C183.947 156.241 181.85 155.426 179.698 154.745C177.542 154.078 175.345 153.486 173.041 153.281C171.887 153.194 170.702 153.201 169.506 153.524C169.208 153.623 168.906 153.713 168.623 153.865L168.193 154.095C168.046 154.198 167.9 154.3 167.753 154.45C167.608 154.593 167.471 154.787 167.386 155.038C167.301 155.289 167.299 155.577 167.37 155.817C167.513 156.29 167.78 156.564 168.02 156.798C169.024 157.658 170.087 158.083 171.162 158.519C172.237 158.931 173.325 159.26 174.422 159.56C176.612 160.15 178.831 160.582 181.07 160.908C183.305 161.226 185.566 161.464 187.831 161.479C190.096 161.494 192.378 161.387 194.652 160.973C195.788 160.758 196.92 160.461 198.01 159.982C198.555 159.743 199.09 159.46 199.59 159.093C199.835 158.912 200.085 158.717 200.304 158.495L200.388 158.411L200.434 158.371C200.754 158.063 200.544 157.456 200.556 157.588C200.532 157.539 200.496 157.479 200.47 157.439L200.42 157.374C200.387 157.33 200.354 157.287 200.33 157.263C200.216 157.128 200.113 157.029 200.013 156.924C198.365 155.324 196.68 153.881 194.981 152.409C193.241 150.939 191.467 149.593 189.617 148.286C187.761 146.992 185.823 145.8 183.75 144.841C182.716 144.378 181.668 143.911 180.489 143.639C179.331 143.375 178.032 143.319 176.829 143.8C175.63 144.274 174.701 145.199 174.051 146.196C173.709 146.688 173.435 147.212 173.183 147.743C173.053 147.987 172.909 148.386 172.883 148.77C172.857 149.177 172.989 149.614 173.207 149.936C173.666 150.587 174.28 150.875 174.839 151.113C175.407 151.346 175.981 151.492 176.548 151.612C177.691 151.848 178.828 151.961 179.96 152.04C184.486 152.269 188.979 152.031 193.451 151.546C195.684 151.302 197.908 150.991 200.124 150.654C202.336 150.307 204.567 149.951 206.765 149.383C208.95 148.787 211.163 148.104 213.136 146.764C214.1 146.09 215.053 145.213 215.502 143.956C215.728 143.337 215.785 142.651 215.671 141.996C215.555 141.349 215.278 140.751 214.926 140.231C214.577 139.705 214.127 139.264 213.607 138.888C213.063 138.536 212.586 138.294 212.077 138.025C211.072 137.501 210.059 137.021 209.035 136.554C206.983 135.627 204.912 134.757 202.802 133.978C198.592 132.391 194.246 131.134 189.802 130.332C185.36 129.547 180.777 129.227 176.241 129.922L176.22 129.915C175.863 129.978 175.624 130.305 175.679 130.66C175.696 130.754 175.731 130.838 175.776 130.917C176.161 131.504 176.532 131.942 176.965 132.385C177.384 132.823 177.83 133.23 178.292 133.611C179.217 134.372 180.193 135.055 181.224 135.645C183.272 136.843 185.457 137.752 187.69 138.476C189.915 139.222 192.222 139.7 194.511 140.116C196.791 140.512 199.073 140.878 201.355 141.243C205.915 141.964 210.455 142.694 214.909 143.771C219.374 144.82 223.738 146.235 228.015 147.885C230.158 148.707 232.27 149.599 234.367 150.534C235.403 150.989 236.492 151.478 237.603 151.903C238.722 152.306 239.869 152.67 241.058 152.889C242.239 153.153 243.474 153.212 244.703 153.172C245.936 153.094 247.182 152.812 248.334 152.314C250.691 151.328 252.449 149.322 253.596 147.19C254.752 145.028 255.366 142.675 255.726 140.316C256.054 137.954 256.12 135.567 255.85 133.179C255.706 131.954 255.439 130.831 255.23 129.703L254.561 126.299L253.236 119.503C252.374 114.969 251.563 110.428 250.891 105.878C250.13 101.403 250.361 96.7826 249.757 92.0798C249.453 89.7439 248.985 87.3522 247.91 85.123L247.503 84.2966C247.346 84.0275 247.17 83.7678 247.011 83.5058C246.708 82.9628 246.272 82.503 245.88 82.0098C245.47 81.543 244.999 81.143 244.563 80.7071C244.086 80.3215 243.588 79.9525 243.087 79.5906C241.021 78.2341 238.664 77.4276 236.292 77.0236C233.912 76.6172 231.515 76.5894 229.161 76.7679C224.432 77.1344 219.875 78.319 215.44 79.7535C211.012 81.2143 206.7 82.9945 202.488 84.9524C198.285 86.9057 194.151 89.0821 190.105 91.2565C185.917 93.519 182.257 96.4646 178.859 99.675C172.065 106.137 166.839 114.034 162.755 122.382C158.752 130.726 154.986 139.174 150.377 147.137C148.071 151.11 145.518 154.942 142.613 158.488C139.714 162.044 136.481 165.31 133.026 168.333C132.151 169.077 131.299 169.845 130.4 170.565L127.704 172.716C125.928 174.043 123.872 175.179 121.922 176.407C119.949 177.628 117.984 178.875 116.104 180.27C115.164 180.968 114.243 181.705 113.377 182.516C112.511 183.327 111.687 184.224 111.056 185.331C110.749 185.883 110.516 186.524 110.462 187.226C110.424 187.926 110.562 188.557 110.755 189.143C111.139 190.321 111.715 191.381 112.342 192.386C113.612 194.393 115.137 196.19 116.787 197.854C118.447 199.513 120.251 201.029 122.251 202.299C123.265 202.915 124.306 203.499 125.433 203.946C126.556 204.382 127.788 204.711 129.095 204.626C129.751 204.601 130.411 204.4 131.032 204.122C131.318 203.939 131.628 203.78 131.881 203.553C132.119 203.322 132.405 203.115 132.593 202.842C133.017 202.346 133.377 201.732 133.57 201.045C133.768 200.367 133.745 199.631 133.596 198.964C132.955 196.234 130.177 194.476 127.429 194.778C126.059 194.929 124.813 195.636 123.889 196.523C122.94 197.41 122.229 198.449 121.643 199.516C121.041 200.584 120.59 201.704 120.23 202.838C120.04 203.398 119.869 203.973 119.727 204.557C119.554 205.139 119.465 205.709 119.354 206.271C118.911 208.546 118.491 210.821 118.005 213.081L117.295 216.474C117.03 217.609 116.854 218.742 116.375 219.684C116.119 220.134 115.841 220.6 115.456 220.838C115.081 221.095 114.679 221.151 114.304 220.959C113.934 220.778 113.596 220.383 113.405 219.91C113.175 219.456 113.07 218.917 112.994 218.387C112.944 217.849 112.93 217.3 112.981 216.749C113.008 216.198 113.109 215.688 113.339 215.246C113.559 214.808 113.896 214.474 114.34 214.297C114.779 214.109 115.301 214.078 115.818 214.133C116.871 214.258 117.888 214.723 118.85 215.305C119.805 215.884 120.701 216.588 121.54 217.345C123.212 218.872 124.725 220.657 126.51 222.183C127.402 222.949 128.355 223.649 129.367 224.248C130.365 224.842 131.382 225.403 132.425 225.932C134.498 226.987 137.667 227.511 139.875 228.26L139.661 227.908C136.295 229.513 131.943 230.963 128.377 232.076C126.593 232.624 124.785 233.099 122.954 233.431C121.13 233.742 119.259 233.956 117.458 233.73C116.563 233.61 115.661 233.417 114.897 232.982C114.122 232.559 113.522 231.924 113.133 231.136C112.743 230.355 112.594 229.472 112.795 228.644C113.01 227.82 113.541 227.08 114.195 226.493C115.53 225.313 117.325 224.64 119.107 224.452C120.008 224.365 120.917 224.417 121.764 224.656C122.612 224.888 123.39 225.351 123.933 226.015C124.484 226.675 124.772 227.524 124.858 228.402C124.952 229.282 124.848 230.2 124.638 231.081C124.442 231.967 124.126 232.828 123.724 233.66C123.338 234.49 122.853 235.286 122.344 236.058C120.256 239.128 117.57 241.771 114.984 244.497C113.691 245.859 112.385 247.234 111.185 248.7C109.985 250.166 108.851 251.719 108.006 253.457C107.152 255.177 106.643 257.149 106.762 259.11C106.859 261.064 107.428 262.946 108.221 264.687C109.835 268.179 112.282 271.194 115.079 273.766C117.886 276.334 121.082 278.482 124.541 280.07C127.992 281.656 131.764 282.695 135.575 282.865C139.363 283.125 143.164 282.972 146.92 282.501C154.443 281.552 161.726 279.427 168.88 277.113L179.587 273.586C183.161 272.428 186.744 271.289 190.306 270.072C197.423 267.633 204.503 264.878 211.029 260.999C211.843 260.507 212.66 260.031 213.441 259.495C214.234 258.972 215.024 258.455 215.779 257.879L216.928 257.036C217.306 256.747 217.664 256.421 218.039 256.116C218.802 255.518 219.438 254.797 220.124 254.117C221.388 252.672 222.587 251.142 223.472 249.425C223.982 248.605 224.303 247.681 224.717 246.813C225.004 245.894 225.387 245 225.56 244.042C226.505 240.288 226.218 236.205 224.684 232.619C224.224 231.759 223.86 230.852 223.268 230.075C222.988 229.676 222.736 229.262 222.434 228.88L221.477 227.787L220.999 227.241L220.47 226.749L219.413 225.767L218.273 224.884C217.896 224.581 217.512 224.298 217.099 224.054L215.885 223.275L214.613 222.595C213.777 222.112 212.869 221.796 211.997 221.397C210.196 220.746 208.362 220.165 206.485 219.833C202.737 219.075 198.892 219.005 195.106 219.306C191.316 219.638 187.567 220.417 183.965 221.661C180.369 222.908 176.933 224.649 173.802 226.813C167.518 231.158 162.47 236.995 158.146 243.173C153.875 249.409 149.9 255.785 146.043 262.258C142.202 268.736 138.558 275.337 135.16 282.061C135.017 282.34 135.116 282.686 135.39 282.843C137.469 284.068 139.497 285.491 141.433 286.972C143.366 288.459 145.232 290.052 146.947 291.786C148.666 293.505 150.289 295.344 151.619 297.363L152.132 298.113C152.303 298.363 152.433 298.64 152.585 298.899C152.869 299.428 153.19 299.944 153.455 300.483L154.167 302.132C154.299 302.401 154.387 302.687 154.464 302.977L154.715 303.839L154.967 304.701L155.142 305.6C155.251 306.198 155.391 306.797 155.474 307.402L155.74 309.212L155.938 311.033C156.16 313.469 156.209 315.918 156.222 318.38C156.235 320.842 156.231 323.329 156.409 325.823C156.58 328.314 156.952 330.801 157.528 333.229C157.792 334.455 158.18 335.643 158.519 336.839C158.888 338.012 159.251 339.184 159.584 340.369C160.263 342.728 160.866 345.101 161.267 347.503C161.668 349.904 161.868 352.332 161.788 354.762C161.722 357.197 161.434 359.629 161.059 362.055C160.694 364.476 156.095 360.816 155.746 363.283C155.386 365.738 147.273 352.522 147.125 355.009C146.842 359.971 158.838 363.066 160.059 367.954C160.141 368.278 171.196 343.04 171.016 366.434C172.896 346.5 166.117 378.578 185.552 373.449L194.844 369.241C195.653 367.49 192.336 379.226 193.334 377.532C194.342 375.832 187.139 374.998 188.24 373.354C190.449 370.068 171.822 375.107 174.281 372.002C179.246 365.841 184.52 359.785 188.702 352.918C190.763 349.479 192.535 345.782 193.411 341.805C193.855 339.834 194.127 337.805 194.153 335.773C194.183 333.75 194.043 331.758 194.015 329.788C193.978 327.822 194.055 325.871 194.475 323.997C194.904 322.117 195.611 320.292 196.418 318.5C198.036 314.927 200.05 311.343 200.74 307.255L201.122 304.287C201.214 303.31 201.478 302.367 201.65 301.409C201.869 300.458 202.161 299.525 202.439 298.587L202.944 297.213L203.195 296.522L203.493 295.854C205.054 292.262 207.208 288.95 209.65 285.847C212.08 282.733 214.734 279.783 217.351 276.78C218.654 275.269 219.967 273.777 221.221 272.201C222.464 270.629 223.646 269.005 224.757 267.332C229.184 260.637 232.566 253.347 235.498 245.921C236.933 242.181 238.144 238.398 239.576 234.713C240.999 231.033 242.687 227.444 244.962 224.269C249.703 217.992 255.343 212.316 261.521 207.414C267.717 202.551 274.573 198.359 282.081 196.062C285.856 194.948 289.725 194.026 293.613 193.591C295.556 193.401 297.522 193.307 299.419 193.558C301.317 193.785 303.179 194.376 304.599 195.537C306.049 196.685 306.848 198.453 307.198 200.3C307.506 202.173 307.435 204.126 307.159 206.049C306.866 207.975 306.413 209.878 305.773 211.719C305.134 213.559 304.274 215.316 303.269 216.985C301.276 220.343 298.562 223.233 295.534 225.705C292.481 228.159 289.056 230.128 285.519 231.907C281.988 233.695 278.364 235.357 274.851 237.279C273.093 238.244 271.368 239.277 269.712 240.412C268.042 241.543 266.477 242.837 264.976 244.13C263.468 245.419 261.974 246.714 260.369 247.795C258.773 248.871 257.021 249.725 255.186 249.88C253.348 250.066 251.542 249.333 249.994 248.265C248.437 247.152 247.08 245.78 246.455 244.04C245.12 240.594 247.222 236.28 250.591 234.924C251.421 234.598 252.317 234.501 253.144 234.725C253.959 234.938 254.723 235.468 255.159 236.161C255.608 236.865 255.773 237.769 255.749 238.69C255.732 239.612 255.562 240.563 255.327 241.492C254.313 245.238 252.517 248.815 250.817 252.393C249.955 254.182 249.084 255.976 248.264 257.803C247.44 259.693 246.978 261.833 247.238 263.922C247.447 266.018 248.221 267.953 249.035 269.774C249.854 271.604 250.783 273.367 251.422 275.185C252.075 276.983 252.39 278.906 252.476 280.848C252.551 282.795 252.428 284.762 252.271 286.734C251.963 290.663 251.419 294.721 252.137 298.782C252.492 300.775 253.14 302.827 254.328 304.534C255.477 306.261 256.951 307.737 258.575 308.959C261.832 311.424 265.556 313.078 269.322 314.418C273.105 315.756 276.978 316.757 280.864 317.625L286.694 318.889C288.66 319.291 290.674 319.622 292.689 319.688C294.707 319.772 296.723 319.743 298.721 319.532C300.724 319.354 302.713 319.027 304.676 318.612C308.605 317.775 312.44 316.553 316.14 315.022C319.845 313.5 323.431 311.69 326.859 309.619C330.292 307.556 333.572 305.235 336.639 302.648C339.717 300.074 342.558 297.211 345.07 294.068C346.304 292.478 347.469 290.832 348.494 289.082C349.499 287.342 350.424 285.558 351.264 283.738C352.093 281.906 352.838 280.037 353.497 278.14C354.135 276.235 354.686 274.301 355.135 272.34C355.562 270.371 355.892 268.386 356.106 266.386C356.299 264.378 356.374 262.363 356.33 260.347C356.153 256.317 355.636 252.372 355.152 248.422C354.143 240.549 353.173 232.633 354.238 224.798C355.207 216.938 356.935 209.176 359.155 201.564C360.262 197.754 361.484 193.982 362.802 190.235L364.818 184.619C365.498 182.729 366.035 180.79 366.52 178.841C367.408 174.924 367.935 170.893 367.777 166.853L367.706 165.341C367.668 164.839 367.606 164.338 367.554 163.832C367.473 162.82 367.263 161.837 367.099 160.837C366.673 158.86 366.165 156.894 365.385 155.021C364.677 153.125 363.709 151.332 362.675 149.597C361.626 147.905 360.558 146.222 359.477 144.551C357.317 141.21 355.077 137.914 352.822 134.636C350.578 131.355 348.306 128.104 346.179 124.758C345.103 123.096 344.098 121.395 343.104 119.681C342.122 117.956 341.245 116.226 340.285 114.436C338.351 110.899 335.917 107.633 333.028 104.813C330.148 101.989 326.84 99.6271 323.329 97.6767C323.04 97.5148 322.676 97.6234 322.516 97.9055C322.354 98.1947 322.462 98.5595 322.744 98.719C326.191 100.6 329.423 102.879 332.248 105.606C335.075 108.325 337.471 111.49 339.382 114.931C340.319 116.649 341.231 118.462 342.215 120.181C343.221 121.906 344.239 123.62 345.319 125.29C347.465 128.651 349.741 131.912 351.996 135.189C354.253 138.459 356.49 141.738 358.646 145.07C360.768 148.431 363.087 151.682 364.471 155.36C365.222 157.175 365.724 159.09 366.145 161.01C366.302 161.983 366.513 162.943 366.586 163.929C366.636 164.418 366.703 164.905 366.736 165.396L366.803 166.875C366.961 170.819 366.453 174.769 365.587 178.621C364.719 182.481 363.203 186.153 361.88 189.914C360.545 193.664 359.316 197.457 358.186 201.284C355.94 208.927 354.181 216.735 353.181 224.664C352.635 228.632 352.594 232.668 352.802 236.653C353.015 240.647 353.494 244.611 353.964 248.556C354.419 252.496 354.922 256.46 355.042 260.375C355.065 262.335 354.961 264.293 354.756 266.241C354.528 268.188 354.185 270.121 353.746 272.029C353.293 273.932 352.727 275.814 352.092 277.663C351.433 279.513 350.684 281.324 349.86 283.094C349.027 284.868 348.077 286.587 347.079 288.258C346.071 289.909 344.923 291.481 343.708 292.99C338.711 298.964 332.383 303.767 325.604 307.544C322.21 309.444 318.689 311.084 315.076 312.452C311.468 313.831 307.761 314.887 304.02 315.573C300.29 316.294 296.51 316.621 292.829 316.398L291.453 316.308L290.097 316.136C289.64 316.094 289.2 316 288.75 315.912C288.293 315.821 287.882 315.762 287.379 315.64L281.585 314.364C277.764 313.518 274.005 312.556 270.404 311.295C266.817 310.04 263.356 308.483 260.531 306.349C259.114 305.292 257.912 304.076 257.009 302.73C256.061 301.4 255.597 299.939 255.257 298.206C254.605 294.8 255.035 290.984 255.335 286.964C255.482 284.949 255.606 282.862 255.5 280.697C255.392 278.539 255.019 276.292 254.209 274.152C253.428 272.047 252.473 270.314 251.668 268.561C250.864 266.832 250.204 265.192 250.038 263.607C249.815 262.026 250.127 260.467 250.768 258.907C251.526 257.14 252.384 255.341 253.217 253.543C254.06 251.739 254.91 249.915 255.701 248.03C256.484 246.142 257.242 244.214 257.766 242.102C258.02 241.044 258.223 239.928 258.229 238.706C258.249 238.104 258.174 237.454 258.039 236.792C257.872 236.128 257.639 235.448 257.221 234.818C256.815 234.2 256.279 233.635 255.683 233.249C255.103 232.836 254.444 232.541 253.753 232.362C253.06 232.168 252.339 232.147 251.652 232.195C250.971 232.268 250.317 232.431 249.715 232.675C247.322 233.673 245.658 235.542 244.655 237.699C243.647 239.847 243.47 242.492 244.351 244.775C244.78 245.913 245.433 246.935 246.212 247.799C246.59 248.239 247.016 248.632 247.441 248.984L248.747 249.987C249.21 250.296 249.718 250.564 250.205 250.849C250.695 251.127 251.278 251.293 251.811 251.513C252.363 251.7 252.968 251.778 253.542 251.9C254.136 251.917 254.734 251.968 255.321 251.911C257.7 251.684 259.731 250.596 261.459 249.413C263.194 248.208 264.707 246.856 266.199 245.544C267.685 244.223 269.143 242.989 270.734 241.879C272.313 240.757 273.971 239.734 275.68 238.769C279.093 236.836 282.696 235.168 286.254 233.324C289.812 231.505 293.34 229.443 296.493 226.862C299.624 224.273 302.432 221.223 304.501 217.69C305.538 215.929 306.422 214.075 307.086 212.139C307.743 210.201 308.201 208.211 308.492 206.197C308.759 204.182 308.833 202.102 308.473 200.028C308.263 198.996 307.945 197.976 307.445 197.022C306.952 196.071 306.236 195.212 305.402 194.537C303.714 193.172 301.63 192.53 299.601 192.219C297.554 191.893 295.504 191.879 293.464 191.956C291.424 192.033 289.399 192.275 287.398 192.589C285.383 192.899 283.432 193.302 281.459 193.866C279.471 194.425 277.535 195.137 275.677 195.996C274.743 196.416 273.81 196.836 272.909 197.323C272.002 197.784 271.09 198.259 270.218 198.78C266.685 200.808 263.342 203.125 260.177 205.646C257.013 208.168 254.013 210.888 251.196 213.776C248.36 216.672 245.755 219.711 243.319 223.032C240.926 226.439 239.217 230.206 237.806 233.969C236.383 237.745 235.213 241.55 233.845 245.233C231.033 252.587 227.776 259.839 223.507 266.445C222.437 268.091 221.301 269.699 220.098 271.244C218.902 272.792 217.587 274.291 216.307 275.802C213.722 278.808 211.065 281.789 208.611 284.975C206.149 288.135 203.94 291.564 202.347 295.298L202.039 295.994L201.781 296.707L201.266 298.133C200.985 299.103 200.688 300.074 200.465 301.063C200.287 302.059 200.025 303.043 199.931 304.052L199.563 307.001C198.939 310.823 196.996 314.318 195.348 317.954C194.529 319.781 193.788 321.683 193.335 323.682C192.893 325.693 192.815 327.74 192.861 329.749C192.901 331.755 193.036 333.738 193.013 335.691C193 337.64 192.736 339.575 192.309 341.495C191.467 345.324 189.767 348.901 187.75 352.284C185.704 355.656 183.362 358.864 180.926 361.993C178.496 365.131 175.916 368.146 173.44 371.277C170.964 374.408 167.432 362.736 165.211 366.057C164.106 367.715 162.54 363.42 161.525 365.141C160.507 366.87 159.132 361.422 158.282 363.271L148.485 357.728L167.653 366.148C166.46 361.413 157.794 366.831 158.069 361.938C158.212 359.489 164.489 369.977 164.842 367.543C165.186 365.114 161.649 364.608 162.026 362.15C162.408 359.703 162.701 357.233 162.779 354.738C162.865 352.246 162.665 349.745 162.252 347.284C161.846 344.826 161.232 342.416 160.553 340.033C159.886 337.638 159.058 335.317 158.521 332.941C157.959 330.566 157.606 328.141 157.434 325.698C157.263 323.255 157.274 320.794 157.264 318.325C157.266 313.388 157.025 308.368 155.754 303.511L155.488 302.596C155.409 302.289 155.312 301.984 155.177 301.698L154.432 299.957C154.16 299.393 153.83 298.857 153.532 298.299C153.375 298.03 153.233 297.742 153.057 297.482L152.53 296.703C151.155 294.605 149.492 292.72 147.732 290.955C145.984 289.179 144.087 287.559 142.115 286.043C140.143 284.526 138.116 283.102 135.951 281.825L136.165 282.537C139.561 275.844 143.202 269.275 147.044 262.821C150.895 256.387 154.865 249.977 159.208 243.885C163.605 237.868 168.728 232.328 174.852 228.313C180.958 224.284 188.004 221.958 195.272 221.267C198.894 220.934 202.564 220.953 206.135 221.571C207.932 221.836 209.667 222.352 211.386 222.918C212.217 223.272 213.082 223.549 213.877 223.987L215.085 224.596L216.245 225.302C216.641 225.524 217.009 225.784 217.371 226.059L218.466 226.862L219.481 227.759L219.993 228.205L220.448 228.703L221.359 229.692C221.642 230.036 221.889 230.416 222.151 230.777C222.719 231.481 223.067 232.32 223.505 233.101C223.685 233.514 223.829 233.938 223.989 234.361L224.23 234.995L224.392 235.65C224.49 236.091 224.615 236.526 224.696 236.97L224.854 238.32C224.961 240.125 224.868 241.958 224.403 243.73C224.25 244.63 223.884 245.474 223.606 246.341C223.207 247.166 222.898 248.03 222.41 248.809C221.563 250.435 220.413 251.87 219.207 253.238C218.552 253.872 217.942 254.562 217.219 255.117C216.865 255.406 216.531 255.708 216.158 255.982L215.026 256.799C214.286 257.357 213.5 257.859 212.729 258.366C211.96 258.889 211.155 259.353 210.355 259.826C203.926 263.586 196.883 266.161 189.783 268.478C186.226 269.633 182.634 270.705 179.032 271.805L168.273 275.154C161.143 277.396 153.964 279.429 146.669 280.294C143.025 280.716 139.373 280.927 135.74 280.68C132.142 280.542 128.709 279.61 125.427 278.138C122.157 276.678 119.087 274.7 116.397 272.308C113.714 269.918 111.368 267.098 109.839 263.923C109.086 262.347 108.554 260.662 108.448 258.993C108.316 257.332 108.703 255.694 109.446 254.113C110.176 252.528 111.223 251.042 112.368 249.621C113.515 248.193 114.77 246.825 116.049 245.458C118.594 242.711 121.293 240.008 123.451 236.753C124.506 235.126 125.468 233.347 125.908 231.343C126.138 230.357 126.256 229.324 126.14 228.252C126.036 227.192 125.663 226.074 124.921 225.198C124.188 224.317 123.167 223.723 122.132 223.452C121.094 223.165 120.038 223.119 119.02 223.222C116.986 223.445 115.012 224.177 113.417 225.581C112.635 226.285 111.95 227.221 111.659 228.339C111.38 229.469 111.601 230.68 112.092 231.639C112.56 232.614 113.398 233.49 114.353 233.998C115.308 234.53 116.339 234.743 117.334 234.872C119.339 235.112 121.285 234.867 123.178 234.54C125.069 234.196 126.917 233.694 128.73 233.132C132.357 231.984 135.862 230.579 139.312 228.938C139.681 228.767 140.613 228.244 140.436 227.871C140.348 227.682 139.703 227.451 139.516 227.388L139.189 227.277C137.038 226.548 134.975 225.956 132.943 224.923C131.926 224.41 130.931 223.857 129.952 223.277C128.985 222.71 128.096 222.056 127.248 221.328C125.536 219.868 124.049 218.123 122.303 216.507C121.422 215.712 120.482 214.97 119.447 214.346C118.425 213.728 117.269 213.176 115.97 213.024C115.324 212.949 114.618 212.982 113.948 213.259C113.274 213.527 112.699 214.093 112.389 214.724C112.065 215.35 111.946 216.03 111.916 216.637C111.86 217.25 111.867 217.868 111.935 218.492C112.02 219.113 112.149 219.749 112.44 220.352C112.7 220.952 113.142 221.558 113.851 221.918C114.016 222.022 114.214 222.074 114.418 222.11C114.516 222.128 114.621 222.147 114.721 222.157L115.026 222.132L115.327 222.091C115.419 222.058 115.51 222.024 115.603 221.984C115.781 221.908 115.973 221.837 116.103 221.713C116.732 221.294 117.059 220.708 117.383 220.154C117.521 219.865 117.628 219.573 117.749 219.286C117.849 218.991 117.917 218.694 118.003 218.395C118.154 217.806 118.26 217.258 118.388 216.693L119.148 213.317L120.671 206.558C120.799 205.993 120.912 205.423 121.09 204.899C121.241 204.358 121.414 203.824 121.616 203.3C121.993 202.235 122.453 201.207 123.009 200.251C123.557 199.292 124.214 198.394 125.008 197.678C125.799 196.97 126.731 196.438 127.721 196.277C128.708 196.123 129.741 196.329 130.574 196.892C131.413 197.432 132.038 198.3 132.246 199.243C132.469 200.191 132.2 201.149 131.552 201.929C131.248 202.331 130.859 202.631 130.445 202.883C130.001 203.085 129.538 203.248 129.033 203.277C128.02 203.365 126.941 203.128 125.919 202.749C124.889 202.368 123.891 201.846 122.939 201.259C121.037 200.055 119.278 198.594 117.663 196.99C116.058 195.382 114.572 193.637 113.361 191.738C112.762 190.791 112.222 189.792 111.883 188.764C111.713 188.251 111.611 187.728 111.63 187.246C111.661 186.776 111.822 186.279 112.081 185.822C112.603 184.895 113.354 184.045 114.175 183.274C114.996 182.504 115.888 181.782 116.799 181.098C118.628 179.733 120.569 178.486 122.525 177.268C124.478 176.033 126.49 174.93 128.397 173.503L131.109 171.325C132.018 170.601 132.875 169.819 133.76 169.07C137.255 166.021 140.567 162.733 143.52 159.14C144.274 158.259 144.98 157.329 145.68 156.398C146.405 155.483 147.045 154.516 147.73 153.579C148.061 153.099 148.422 152.645 148.76 152.167C149.098 151.69 149.433 151.219 149.79 150.756C150.511 149.831 151.179 148.873 151.855 147.918C152.545 146.967 153.18 145.99 153.776 144.983C154.378 143.987 154.941 142.961 155.455 141.918C156.524 139.848 157.5 137.745 158.429 135.619C160.305 131.381 161.94 127.028 163.823 122.816C164.319 121.776 164.787 120.726 165.302 119.7C165.839 118.682 166.536 117.757 167.166 116.794C167.775 115.824 168.405 114.861 169.045 113.917C169.694 112.969 170.295 111.996 170.987 111.086C173.629 107.347 176.626 103.857 179.957 100.727C183.28 97.6197 186.928 94.758 190.892 92.6599C195.007 90.4929 199.067 88.3953 203.263 86.4875C207.441 84.5822 211.693 82.8377 216.042 81.422C220.39 80.0303 224.842 78.8979 229.34 78.5735C231.584 78.4136 233.835 78.448 236.006 78.8318C238.181 79.2086 240.272 79.9492 242.068 81.1343C242.502 81.4574 242.929 81.7782 243.351 82.1133C243.727 82.4889 244.151 82.8408 244.496 83.2378C244.82 83.6516 245.194 84.0344 245.452 84.4981C245.592 84.7217 245.742 84.9405 245.879 85.1712L246.235 85.8919C247.184 87.8304 247.642 90.0424 247.934 92.2703C248.53 96.7383 248.32 101.437 249.116 106.093C249.807 110.681 250.635 115.244 251.517 119.785L252.864 126.589L253.543 129.988C253.764 131.127 254.029 132.257 254.152 133.332C254.413 135.533 254.353 137.81 254.058 140.023C253.735 142.227 253.161 144.417 252.133 146.342C251.117 148.255 249.633 149.921 247.692 150.743C246.727 151.161 245.694 151.403 244.621 151.479C243.548 151.508 242.456 151.474 241.378 151.237C240.299 151.047 239.231 150.709 238.182 150.338C237.14 149.945 236.11 149.492 235.038 149.024C232.919 148.082 230.774 147.195 228.6 146.37C224.259 144.723 219.811 143.295 215.279 142.256C210.75 141.185 206.16 140.462 201.6 139.765C199.32 139.417 197.043 139.061 194.775 138.677C192.522 138.273 190.293 137.822 188.135 137.115C185.979 136.424 183.875 135.559 181.929 134.435C180.951 133.879 180.033 133.24 179.167 132.539C178.736 132.184 178.326 131.813 177.947 131.421C177.564 131.043 177.198 130.591 176.944 130.208L176.481 131.196C180.799 130.507 185.258 130.793 189.607 131.546C193.96 132.31 198.246 133.53 202.406 135.076C204.492 135.831 206.539 136.701 208.565 137.611C209.575 138.074 210.573 138.548 211.552 139.056C212.027 139.305 212.55 139.578 212.944 139.832C213.328 140.114 213.687 140.468 213.958 140.872C214.516 141.677 214.722 142.651 214.396 143.517C214.097 144.4 213.334 145.142 212.478 145.733C210.734 146.918 208.606 147.606 206.494 148.179C204.365 148.73 202.177 149.077 199.965 149.424C197.763 149.766 195.559 150.067 193.345 150.302C188.93 150.782 184.466 151.006 180.065 150.787C178.971 150.713 177.872 150.604 176.827 150.386C176.306 150.274 175.792 150.139 175.329 149.95C174.863 149.768 174.44 149.505 174.255 149.226C174.082 148.96 174.095 148.708 174.325 148.242C174.56 147.761 174.799 147.29 175.096 146.862C175.671 145.992 176.414 145.284 177.309 144.931C178.204 144.578 179.236 144.6 180.245 144.83C181.257 145.052 182.265 145.498 183.263 145.948C185.245 146.868 187.133 148.02 188.941 149.289C190.739 150.563 192.52 151.935 194.179 153.361C195.849 154.824 197.553 156.306 199.106 157.833C199.194 157.926 199.289 158.023 199.358 158.102C199.382 158.126 199.396 158.155 199.396 158.155L199.413 158.177C199.413 158.177 199.387 158.136 199.377 158.117C199.41 158.28 199.195 157.711 199.513 157.434L199.479 157.463L199.409 157.527C199.238 157.701 199.044 157.851 198.842 157.999C198.438 158.294 197.982 158.532 197.497 158.736C196.535 159.146 195.489 159.424 194.425 159.616C192.295 160.006 190.082 160.073 187.887 159.993C183.487 159.839 179.063 159.284 174.796 158.198C173.732 157.917 172.677 157.608 171.662 157.232C170.663 156.853 169.619 156.419 168.909 155.827C168.742 155.682 168.628 155.523 168.605 155.451C168.591 155.398 168.574 155.425 168.675 155.291C168.718 155.234 168.81 155.177 168.887 155.115L169.192 154.946C169.391 154.829 169.633 154.751 169.861 154.668C170.82 154.385 171.905 154.345 172.973 154.402C175.134 154.535 177.3 155.053 179.413 155.681C181.533 156.311 183.624 157.076 185.686 157.903C186.718 158.324 187.738 158.758 188.751 159.213L189.503 159.564C189.732 159.666 189.98 159.83 190.217 159.958L191.654 160.789C193.524 161.968 195.327 163.275 196.954 164.771C198.581 166.267 200.03 167.958 201.138 169.855C202.246 171.751 203.056 173.842 203.296 176.036C203.875 180.387 202.496 184.953 199.956 188.391L199.927 188.429C199.731 188.699 199.789 189.07 200.052 189.263C200.314 189.456 200.693 189.401 200.886 189.138L200.905 189.104L200.905 189.128Z" fill="#CBE2D1"/>
<path d="M200.905 189.128C202.175 187.126 202.984 184.999 203.544 182.779C203.816 181.671 203.961 180.536 204.036 179.393C204.11 178.257 204.075 177.109 203.899 175.977C203.593 173.72 202.788 171.542 201.667 169.569C200.535 167.601 199.06 165.845 197.409 164.301C195.759 162.757 193.937 161.411 192.042 160.185L190.589 159.308C190.117 159.004 189.582 158.743 189.085 158.51C188.072 158.031 187.048 157.564 186.013 157.125C183.947 156.241 181.85 155.426 179.698 154.745C177.542 154.078 175.345 153.486 173.041 153.281C171.887 153.194 170.702 153.201 169.506 153.524C169.208 153.623 168.906 153.713 168.623 153.865L168.193 154.095C168.046 154.198 167.9 154.3 167.753 154.45C167.608 154.593 167.471 154.787 167.386 155.038C167.301 155.289 167.299 155.577 167.37 155.817C167.513 156.29 167.78 156.564 168.02 156.798C169.024 157.658 170.087 158.083 171.162 158.519C172.237 158.931 173.325 159.26 174.422 159.56C176.612 160.15 178.831 160.582 181.07 160.908C183.305 161.226 185.566 161.464 187.831 161.479C190.096 161.494 192.378 161.387 194.652 160.973C195.788 160.758 196.92 160.461 198.01 159.982C198.555 159.743 199.09 159.46 199.59 159.093C199.835 158.912 200.085 158.717 200.304 158.495L200.388 158.411L200.434 158.371C200.754 158.063 200.544 157.456 200.556 157.588C200.532 157.539 200.496 157.479 200.47 157.439L200.42 157.374C200.387 157.33 200.354 157.287 200.33 157.263C200.216 157.128 200.113 157.029 200.013 156.924C198.365 155.324 196.68 153.881 194.981 152.409C193.241 150.939 191.467 149.593 189.617 148.286C187.761 146.992 185.823 145.8 183.75 144.841C182.716 144.378 181.668 143.911 180.489 143.639C179.331 143.375 178.032 143.319 176.829 143.8C175.63 144.274 174.701 145.199 174.051 146.196C173.709 146.688 173.435 147.212 173.183 147.743C173.053 147.987 172.909 148.386 172.883 148.77C172.857 149.177 172.989 149.614 173.207 149.936C173.666 150.587 174.28 150.875 174.839 151.113C175.407 151.346 175.981 151.492 176.548 151.612C177.691 151.848 178.828 151.961 179.96 152.04C184.486 152.269 188.979 152.031 193.451 151.546C195.684 151.302 197.908 150.991 200.124 150.654C202.336 150.307 204.567 149.951 206.765 149.383C208.95 148.787 211.163 148.104 213.136 146.764C214.1 146.09 215.053 145.213 215.502 143.956C215.728 143.337 215.785 142.651 215.671 141.996C215.555 141.349 215.278 140.751 214.926 140.231C214.577 139.705 214.127 139.264 213.607 138.888C213.063 138.536 212.586 138.294 212.077 138.025C211.072 137.501 210.059 137.021 209.035 136.554C206.983 135.627 204.912 134.757 202.802 133.978C198.592 132.391 194.246 131.134 189.802 130.332C185.36 129.547 180.777 129.227 176.241 129.922L176.22 129.915C175.863 129.978 175.624 130.305 175.679 130.66C175.696 130.754 175.731 130.838 175.776 130.917C176.161 131.504 176.532 131.942 176.965 132.385C177.384 132.823 177.83 133.23 178.292 133.611C179.217 134.372 180.193 135.055 181.224 135.645C183.272 136.843 185.457 137.752 187.69 138.476C189.915 139.222 192.222 139.7 194.511 140.116C196.791 140.512 199.073 140.878 201.355 141.243C205.915 141.964 210.455 142.694 214.909 143.771C219.374 144.82 223.738 146.235 228.015 147.885C230.158 148.707 232.27 149.599 234.367 150.534C235.403 150.989 236.492 151.478 237.603 151.903C238.722 152.306 239.869 152.67 241.058 152.889C242.239 153.153 243.474 153.212 244.703 153.172C245.936 153.094 247.182 152.812 248.334 152.314C250.691 151.328 252.449 149.322 253.596 147.19C254.752 145.028 255.366 142.675 255.726 140.316C256.054 137.954 256.12 135.567 255.85 133.179C255.706 131.954 255.439 130.831 255.23 129.703L254.561 126.299L253.236 119.503C252.374 114.969 251.563 110.428 250.891 105.878C250.13 101.403 250.361 96.7826 249.757 92.0798C249.453 89.7439 248.985 87.3522 247.91 85.123L247.503 84.2966C247.346 84.0275 247.17 83.7678 247.011 83.5058C246.708 82.9628 246.272 82.503 245.88 82.0098C245.47 81.543 244.999 81.143 244.563 80.7071C244.086 80.3215 243.588 79.9525 243.087 79.5906C241.021 78.2341 238.664 77.4276 236.292 77.0236C233.912 76.6172 231.515 76.5894 229.161 76.7679C224.432 77.1344 219.875 78.319 215.44 79.7535C211.012 81.2143 206.7 82.9945 202.488 84.9524C198.285 86.9057 194.151 89.0821 190.105 91.2565C185.917 93.519 182.257 96.4646 178.859 99.675C172.065 106.137 166.839 114.034 162.755 122.382C158.752 130.726 154.986 139.174 150.377 147.137C148.071 151.11 145.518 154.942 142.613 158.488C139.714 162.044 136.481 165.31 133.026 168.333C132.151 169.077 131.299 169.845 130.4 170.565L127.704 172.716C125.928 174.043 123.872 175.179 121.922 176.407C119.949 177.628 117.984 178.875 116.104 180.27C115.164 180.968 114.243 181.705 113.377 182.516C112.511 183.327 111.687 184.224 111.056 185.331C110.749 185.883 110.516 186.524 110.462 187.226C110.424 187.926 110.562 188.557 110.755 189.143C111.139 190.321 111.715 191.381 112.342 192.386C113.612 194.393 115.137 196.19 116.787 197.854C118.447 199.513 120.251 201.029 122.251 202.299C123.265 202.915 124.306 203.499 125.433 203.946C126.556 204.382 127.788 204.711 129.095 204.626C129.751 204.601 130.411 204.4 131.032 204.122C131.318 203.939 131.628 203.78 131.881 203.553C132.119 203.322 132.405 203.115 132.593 202.842C133.017 202.346 133.377 201.732 133.57 201.045C133.768 200.367 133.745 199.631 133.596 198.964C132.955 196.234 130.177 194.476 127.429 194.778C126.059 194.929 124.813 195.636 123.889 196.523C122.94 197.41 122.229 198.449 121.643 199.516C121.041 200.584 120.59 201.704 120.23 202.838C120.04 203.398 119.869 203.973 119.727 204.557C119.554 205.139 119.465 205.709 119.354 206.271C118.911 208.546 118.491 210.821 118.005 213.081L117.295 216.474C117.03 217.609 116.854 218.742 116.375 219.684C116.119 220.134 115.841 220.6 115.456 220.838C115.081 221.095 114.679 221.151 114.304 220.959C113.934 220.778 113.596 220.383 113.405 219.91C113.175 219.456 113.07 218.917 112.994 218.387C112.944 217.849 112.93 217.3 112.981 216.749C113.008 216.198 113.109 215.688 113.339 215.246C113.559 214.808 113.896 214.474 114.34 214.297C114.779 214.109 115.301 214.078 115.818 214.133C116.871 214.258 117.888 214.723 118.85 215.305C119.805 215.884 120.701 216.588 121.54 217.345C123.212 218.872 124.725 220.657 126.51 222.183C127.402 222.949 128.355 223.649 129.367 224.248C130.365 224.842 131.382 225.403 132.425 225.932C134.498 226.987 137.667 227.511 139.875 228.26L139.661 227.908C136.295 229.513 131.943 230.963 128.377 232.076C126.593 232.624 124.785 233.099 122.954 233.431C121.13 233.742 119.259 233.956 117.458 233.73C116.563 233.61 115.661 233.417 114.897 232.982C114.122 232.559 113.522 231.924 113.133 231.136C112.743 230.355 112.594 229.472 112.795 228.644C113.01 227.82 113.541 227.08 114.195 226.493C115.53 225.313 117.325 224.64 119.107 224.452C120.008 224.365 120.917 224.417 121.764 224.656C122.612 224.888 123.39 225.351 123.933 226.015C124.484 226.675 124.772 227.524 124.858 228.402C124.952 229.282 124.848 230.2 124.638 231.081C124.442 231.967 124.126 232.828 123.724 233.66C123.338 234.49 122.853 235.286 122.344 236.058C120.256 239.128 117.57 241.771 114.984 244.497C113.691 245.859 112.385 247.234 111.185 248.7C109.985 250.166 108.851 251.719 108.006 253.457C107.152 255.177 106.643 257.149 106.762 259.11C106.859 261.064 107.428 262.946 108.221 264.687C109.835 268.179 112.282 271.194 115.079 273.766C117.886 276.334 121.082 278.482 124.541 280.07C127.992 281.656 131.764 282.695 135.575 282.865C139.363 283.125 143.164 282.972 146.92 282.501C154.443 281.552 161.726 279.427 168.88 277.113L179.587 273.586C183.161 272.428 186.744 271.289 190.306 270.072C197.423 267.633 204.503 264.878 211.029 260.999C211.843 260.507 212.66 260.031 213.441 259.495C214.234 258.972 215.024 258.455 215.779 257.879L216.928 257.036C217.306 256.747 217.664 256.421 218.039 256.116C218.802 255.518 219.438 254.797 220.124 254.117C221.388 252.672 222.587 251.142 223.472 249.425C223.982 248.605 224.303 247.681 224.717 246.813C225.004 245.894 225.387 245 225.56 244.042C226.505 240.288 226.218 236.205 224.684 232.619C224.224 231.759 223.86 230.852 223.268 230.075C222.988 229.676 222.736 229.262 222.434 228.88L221.477 227.787L220.999 227.241L220.47 226.749L219.413 225.767L218.273 224.884C217.896 224.581 217.512 224.298 217.099 224.054L215.885 223.275L214.613 222.595C213.777 222.112 212.869 221.796 211.997 221.397C210.196 220.746 208.362 220.165 206.485 219.833C202.737 219.075 198.892 219.005 195.106 219.306C191.316 219.638 187.567 220.417 183.965 221.661C180.369 222.908 176.933 224.649 173.802 226.813C167.518 231.158 162.47 236.995 158.146 243.173C153.875 249.409 149.9 255.785 146.043 262.258C142.202 268.736 138.558 275.337 135.16 282.061C135.017 282.34 135.116 282.686 135.39 282.843C137.469 284.068 139.497 285.491 141.433 286.972C143.366 288.459 145.232 290.052 146.947 291.786C148.666 293.505 150.289 295.344 151.619 297.363L152.132 298.113C152.303 298.363 152.433 298.64 152.585 298.899C152.869 299.428 153.19 299.944 153.455 300.483L154.167 302.132C154.299 302.401 154.387 302.687 154.464 302.977L154.715 303.839L154.967 304.701L155.142 305.6C155.251 306.198 155.391 306.797 155.474 307.402L155.74 309.212L155.938 311.033C156.16 313.469 156.209 315.918 156.222 318.38C156.235 320.842 156.231 323.329 156.409 325.823C156.58 328.314 156.952 330.801 157.528 333.229C157.792 334.455 158.18 335.643 158.519 336.839C158.888 338.012 159.251 339.184 159.584 340.369C160.263 342.728 160.866 345.101 161.267 347.503C161.668 349.904 161.868 352.332 161.788 354.762C161.722 357.197 161.434 359.629 161.059 362.055C160.694 364.476 156.095 360.816 155.746 363.283C155.386 365.738 147.273 352.522 147.125 355.009C146.842 359.971 158.838 363.066 160.059 367.954C160.141 368.278 171.196 343.04 171.016 366.434C172.896 346.5 166.117 378.578 185.552 373.449L194.844 369.241C195.653 367.49 192.336 379.226 193.334 377.532C194.342 375.832 187.139 374.998 188.24 373.354C190.449 370.068 171.822 375.107 174.281 372.002C179.246 365.841 184.52 359.785 188.702 352.918C190.763 349.479 192.535 345.782 193.411 341.805C193.855 339.834 194.127 337.805 194.153 335.773C194.183 333.75 194.043 331.758 194.015 329.788C193.978 327.822 194.055 325.871 194.475 323.997C194.904 322.117 195.611 320.292 196.418 318.5C198.036 314.927 200.05 311.343 200.74 307.255L201.122 304.287C201.214 303.31 201.478 302.367 201.65 301.409C201.869 300.458 202.161 299.525 202.439 298.587L202.944 297.213L203.195 296.522L203.493 295.854C205.054 292.262 207.208 288.95 209.65 285.847C212.08 282.733 214.734 279.783 217.351 276.78C218.654 275.269 219.967 273.777 221.221 272.201C222.464 270.629 223.646 269.005 224.757 267.332C229.184 260.637 232.566 253.347 235.498 245.921C236.933 242.181 238.144 238.398 239.576 234.713C240.999 231.033 242.687 227.444 244.962 224.269C249.703 217.992 255.343 212.316 261.521 207.414C267.717 202.551 274.573 198.359 282.081 196.062C285.856 194.948 289.725 194.026 293.613 193.591C295.556 193.401 297.522 193.307 299.419 193.558C301.317 193.785 303.179 194.376 304.599 195.537C306.049 196.685 306.848 198.453 307.198 200.3C307.506 202.173 307.435 204.126 307.159 206.049C306.866 207.975 306.413 209.878 305.773 211.719C305.134 213.559 304.274 215.316 303.269 216.985C301.276 220.343 298.562 223.233 295.534 225.705C292.481 228.159 289.056 230.128 285.519 231.907C281.988 233.695 278.364 235.357 274.851 237.279C273.093 238.244 271.368 239.277 269.712 240.412C268.042 241.543 266.477 242.837 264.976 244.13C263.468 245.419 261.974 246.714 260.369 247.795C258.773 248.871 257.021 249.725 255.186 249.88C253.348 250.066 251.542 249.333 249.994 248.265C248.437 247.152 247.08 245.78 246.455 244.04C245.12 240.594 247.222 236.28 250.591 234.924C251.421 234.598 252.317 234.501 253.144 234.725C253.959 234.938 254.723 235.468 255.159 236.161C255.608 236.865 255.773 237.769 255.749 238.69C255.732 239.612 255.562 240.563 255.327 241.492C254.313 245.238 252.517 248.815 250.817 252.393C249.955 254.182 249.084 255.976 248.264 257.803C247.44 259.693 246.978 261.833 247.238 263.922C247.447 266.018 248.221 267.953 249.035 269.774C249.854 271.604 250.783 273.367 251.422 275.185C252.075 276.983 252.39 278.906 252.476 280.848C252.551 282.795 252.428 284.762 252.271 286.734C251.963 290.663 251.419 294.721 252.137 298.782C252.492 300.775 253.14 302.827 254.328 304.534C255.477 306.261 256.951 307.737 258.575 308.959C261.832 311.424 265.556 313.078 269.322 314.418C273.105 315.756 276.978 316.757 280.864 317.625L286.694 318.889C288.66 319.291 290.674 319.622 292.689 319.688C294.707 319.772 296.723 319.743 298.721 319.532C300.724 319.354 302.713 319.027 304.676 318.612C308.605 317.775 312.44 316.553 316.14 315.022C319.845 313.5 323.431 311.69 326.859 309.619C330.292 307.556 333.572 305.235 336.639 302.648C339.717 300.074 342.558 297.211 345.07 294.068C346.304 292.478 347.469 290.832 348.494 289.082C349.499 287.342 350.424 285.558 351.264 283.738C352.093 281.906 352.838 280.037 353.497 278.14C354.135 276.235 354.686 274.301 355.135 272.34C355.562 270.371 355.892 268.386 356.106 266.386C356.299 264.378 356.374 262.363 356.33 260.347C356.153 256.317 355.636 252.372 355.152 248.422C354.143 240.549 353.173 232.633 354.238 224.798C355.207 216.938 356.935 209.176 359.155 201.564C360.262 197.754 361.484 193.982 362.802 190.235L364.818 184.619C365.498 182.729 366.035 180.79 366.52 178.841C367.408 174.924 367.935 170.893 367.777 166.853L367.706 165.341C367.668 164.839 367.606 164.338 367.554 163.832C367.473 162.82 367.263 161.837 367.099 160.837C366.673 158.86 366.165 156.894 365.385 155.021C364.677 153.125 363.709 151.332 362.675 149.597C361.626 147.905 360.558 146.222 359.477 144.551C357.317 141.21 355.077 137.914 352.822 134.636C350.578 131.355 348.306 128.104 346.179 124.758C345.103 123.096 344.098 121.395 343.104 119.681C342.122 117.956 341.245 116.226 340.285 114.436C338.351 110.899 335.917 107.633 333.028 104.813C330.148 101.989 326.84 99.6271 323.329 97.6767C323.04 97.5148 322.676 97.6234 322.516 97.9055C322.354 98.1947 322.462 98.5595 322.744 98.719C326.191 100.6 329.423 102.879 332.248 105.606C335.075 108.325 337.471 111.49 339.382 114.931C340.319 116.649 341.231 118.462 342.215 120.181C343.221 121.906 344.239 123.62 345.319 125.29C347.465 128.651 349.741 131.912 351.996 135.189C354.253 138.459 356.49 141.738 358.646 145.07C360.768 148.431 363.087 151.682 364.471 155.36C365.222 157.175 365.724 159.09 366.145 161.01C366.302 161.983 366.513 162.943 366.586 163.929C366.636 164.418 366.703 164.905 366.736 165.396L366.803 166.875C366.961 170.819 366.453 174.769 365.587 178.621C364.719 182.481 363.203 186.153 361.88 189.914C360.545 193.664 359.316 197.457 358.186 201.284C355.94 208.927 354.181 216.735 353.181 224.664C352.635 228.632 352.594 232.668 352.802 236.653C353.015 240.647 353.494 244.611 353.964 248.556C354.419 252.496 354.922 256.46 355.042 260.375C355.065 262.335 354.961 264.293 354.756 266.241C354.528 268.188 354.185 270.121 353.746 272.029C353.293 273.932 352.727 275.814 352.092 277.663C351.433 279.513 350.684 281.324 349.86 283.094C349.027 284.868 348.077 286.587 347.079 288.258C346.071 289.909 344.923 291.481 343.708 292.99C338.711 298.964 332.383 303.767 325.604 307.544C322.21 309.444 318.689 311.084 315.076 312.452C311.468 313.831 307.761 314.887 304.02 315.573C300.29 316.294 296.51 316.621 292.829 316.398L291.453 316.308L290.097 316.136C289.64 316.094 289.2 316 288.75 315.912C288.293 315.821 287.882 315.762 287.379 315.64L281.585 314.364C277.764 313.518 274.005 312.556 270.404 311.295C266.817 310.04 263.356 308.483 260.531 306.349C259.114 305.292 257.912 304.076 257.009 302.73C256.061 301.4 255.597 299.939 255.257 298.206C254.605 294.8 255.035 290.984 255.335 286.964C255.482 284.949 255.606 282.862 255.5 280.697C255.392 278.539 255.019 276.292 254.209 274.152C253.428 272.047 252.473 270.314 251.668 268.561C250.864 266.832 250.204 265.192 250.038 263.607C249.815 262.026 250.127 260.467 250.768 258.907C251.526 257.14 252.384 255.341 253.217 253.543C254.06 251.739 254.91 249.915 255.701 248.03C256.484 246.142 257.242 244.214 257.766 242.102C258.02 241.044 258.223 239.928 258.229 238.706C258.249 238.104 258.174 237.454 258.039 236.792C257.872 236.128 257.639 235.448 257.221 234.818C256.815 234.2 256.279 233.635 255.683 233.249C255.103 232.836 254.444 232.541 253.753 232.362C253.06 232.168 252.339 232.147 251.652 232.195C250.971 232.268 250.317 232.431 249.715 232.675C247.322 233.673 245.658 235.542 244.655 237.699C243.647 239.847 243.47 242.492 244.351 244.775C244.78 245.913 245.433 246.935 246.212 247.799C246.59 248.239 247.016 248.632 247.441 248.984L248.747 249.987C249.21 250.296 249.718 250.564 250.205 250.849C250.695 251.127 251.278 251.293 251.811 251.513C252.363 251.7 252.968 251.778 253.542 251.9C254.136 251.917 254.734 251.968 255.321 251.911C257.7 251.684 259.731 250.596 261.459 249.413C263.194 248.208 264.707 246.856 266.199 245.544C267.685 244.223 269.143 242.989 270.734 241.879C272.313 240.757 273.971 239.734 275.68 238.769C279.093 236.836 282.696 235.168 286.254 233.324C289.812 231.505 293.34 229.443 296.493 226.862C299.624 224.273 302.432 221.223 304.501 217.69C305.538 215.929 306.422 214.075 307.086 212.139C307.743 210.201 308.201 208.211 308.492 206.197C308.759 204.182 308.833 202.102 308.473 200.028C308.263 198.996 307.945 197.976 307.445 197.022C306.952 196.071 306.236 195.212 305.402 194.537C303.714 193.172 301.63 192.53 299.601 192.219C297.554 191.893 295.504 191.879 293.464 191.956C291.424 192.033 289.399 192.275 287.398 192.589C285.383 192.899 283.432 193.302 281.459 193.866C279.471 194.425 277.535 195.137 275.677 195.996C274.743 196.416 273.81 196.836 272.909 197.323C272.002 197.784 271.09 198.259 270.218 198.78C266.685 200.808 263.342 203.125 260.177 205.646C257.013 208.168 254.013 210.888 251.196 213.776C248.36 216.672 245.755 219.711 243.319 223.032C240.926 226.439 239.217 230.206 237.806 233.969C236.383 237.745 235.213 241.55 233.845 245.233C231.033 252.587 227.776 259.839 223.507 266.445C222.437 268.091 221.301 269.699 220.098 271.244C218.902 272.792 217.587 274.291 216.307 275.802C213.722 278.808 211.065 281.789 208.611 284.975C206.149 288.135 203.94 291.564 202.347 295.298L202.039 295.994L201.781 296.707L201.266 298.133C200.985 299.103 200.688 300.074 200.465 301.063C200.287 302.059 200.025 303.043 199.931 304.052L199.563 307.001C198.939 310.823 196.996 314.318 195.348 317.954C194.529 319.781 193.788 321.683 193.335 323.682C192.893 325.693 192.815 327.74 192.861 329.749C192.901 331.755 193.036 333.738 193.013 335.691C193 337.64 192.736 339.575 192.309 341.495C191.467 345.324 189.767 348.901 187.75 352.284C185.704 355.656 183.362 358.864 180.926 361.993C178.496 365.131 175.916 368.146 173.44 371.277C170.964 374.408 167.432 362.736 165.211 366.057C164.106 367.715 162.54 363.42 161.525 365.141C160.507 366.87 159.132 361.422 158.282 363.271L148.485 357.728L167.653 366.148C166.46 361.413 157.794 366.831 158.069 361.938C158.212 359.489 164.489 369.977 164.842 367.543C165.186 365.114 161.649 364.608 162.026 362.15C162.408 359.703 162.701 357.233 162.779 354.738C162.865 352.246 162.665 349.745 162.252 347.284C161.846 344.826 161.232 342.416 160.553 340.033C159.886 337.638 159.058 335.317 158.521 332.941C157.959 330.566 157.606 328.141 157.434 325.698C157.263 323.255 157.274 320.794 157.264 318.325C157.266 313.388 157.025 308.368 155.754 303.511L155.488 302.596C155.409 302.289 155.312 301.984 155.177 301.698L154.432 299.957C154.16 299.393 153.83 298.857 153.532 298.299C153.375 298.03 153.233 297.742 153.057 297.482L152.53 296.703C151.155 294.605 149.492 292.72 147.732 290.955C145.984 289.179 144.087 287.559 142.115 286.043C140.143 284.526 138.116 283.102 135.951 281.825L136.165 282.537C139.561 275.844 143.202 269.275 147.044 262.821C150.895 256.387 154.865 249.977 159.208 243.885C163.605 237.868 168.728 232.328 174.852 228.313C180.958 224.284 188.004 221.958 195.272 221.267C198.894 220.934 202.564 220.953 206.135 221.571C207.932 221.836 209.667 222.352 211.386 222.918C212.217 223.272 213.082 223.549 213.877 223.987L215.085 224.596L216.245 225.302C216.641 225.524 217.009 225.784 217.371 226.059L218.466 226.862L219.481 227.759L219.993 228.205L220.448 228.703L221.359 229.692C221.642 230.036 221.889 230.416 222.151 230.777C222.719 231.481 223.067 232.32 223.505 233.101C223.685 233.514 223.829 233.938 223.989 234.361L224.23 234.995L224.392 235.65C224.49 236.091 224.615 236.526 224.696 236.97L224.854 238.32C224.961 240.125 224.868 241.958 224.403 243.73C224.25 244.63 223.884 245.474 223.606 246.341C223.207 247.166 222.898 248.03 222.41 248.809C221.563 250.435 220.413 251.87 219.207 253.238C218.552 253.872 217.942 254.562 217.219 255.117C216.865 255.406 216.531 255.708 216.158 255.982L215.026 256.799C214.286 257.357 213.5 257.859 212.729 258.366C211.96 258.889 211.155 259.353 210.355 259.826C203.926 263.586 196.883 266.161 189.783 268.478C186.226 269.633 182.634 270.705 179.032 271.805L168.273 275.154C161.143 277.396 153.964 279.429 146.669 280.294C143.025 280.716 139.373 280.927 135.74 280.68C132.142 280.542 128.709 279.61 125.427 278.138C122.157 276.678 119.087 274.7 116.397 272.308C113.714 269.918 111.368 267.098 109.839 263.923C109.086 262.347 108.554 260.662 108.448 258.993C108.316 257.332 108.703 255.694 109.446 254.113C110.176 252.528 111.223 251.042 112.368 249.621C113.515 248.193 114.77 246.825 116.049 245.458C118.594 242.711 121.293 240.008 123.451 236.753C124.506 235.126 125.468 233.347 125.908 231.343C126.138 230.357 126.256 229.324 126.14 228.252C126.036 227.192 125.663 226.074 124.921 225.198C124.188 224.317 123.167 223.723 122.132 223.452C121.094 223.165 120.038 223.119 119.02 223.222C116.986 223.445 115.012 224.177 113.417 225.581C112.635 226.285 111.95 227.221 111.659 228.339C111.38 229.469 111.601 230.68 112.092 231.639C112.56 232.614 113.398 233.49 114.353 233.998C115.308 234.53 116.339 234.743 117.334 234.872C119.339 235.112 121.285 234.867 123.178 234.54C125.069 234.196 126.917 233.694 128.73 233.132C132.357 231.984 135.862 230.579 139.312 228.938C139.681 228.767 140.613 228.244 140.436 227.871C140.348 227.682 139.703 227.451 139.516 227.388L139.189 227.277C137.038 226.548 134.975 225.956 132.943 224.923C131.926 224.41 130.931 223.857 129.952 223.277C128.985 222.71 128.096 222.056 127.248 221.328C125.536 219.868 124.049 218.123 122.303 216.507C121.422 215.712 120.482 214.97 119.447 214.346C118.425 213.728 117.269 213.176 115.97 213.024C115.324 212.949 114.618 212.982 113.948 213.259C113.274 213.527 112.699 214.093 112.389 214.724C112.065 215.35 111.946 216.03 111.916 216.637C111.86 217.25 111.867 217.868 111.935 218.492C112.02 219.113 112.149 219.749 112.44 220.352C112.7 220.952 113.142 221.558 113.851 221.918C114.016 222.022 114.214 222.074 114.418 222.11C114.516 222.128 114.621 222.147 114.721 222.157L115.026 222.132L115.327 222.091C115.419 222.058 115.51 222.024 115.603 221.984C115.781 221.908 115.973 221.837 116.103 221.713C116.732 221.294 117.059 220.708 117.383 220.154C117.521 219.865 117.628 219.573 117.749 219.286C117.849 218.991 117.917 218.694 118.003 218.395C118.154 217.806 118.26 217.258 118.388 216.693L119.148 213.317L120.671 206.558C120.799 205.993 120.912 205.423 121.09 204.899C121.241 204.358 121.414 203.824 121.616 203.3C121.993 202.235 122.453 201.207 123.009 200.251C123.557 199.292 124.214 198.394 125.008 197.678C125.799 196.97 126.731 196.438 127.721 196.277C128.708 196.123 129.741 196.329 130.574 196.892C131.413 197.432 132.038 198.3 132.246 199.243C132.469 200.191 132.2 201.149 131.552 201.929C131.248 202.331 130.859 202.631 130.445 202.883C130.001 203.085 129.538 203.248 129.033 203.277C128.02 203.365 126.941 203.128 125.919 202.749C124.889 202.368 123.891 201.846 122.939 201.259C121.037 200.055 119.278 198.594 117.663 196.99C116.058 195.382 114.572 193.637 113.361 191.738C112.762 190.791 112.222 189.792 111.883 188.764C111.713 188.251 111.611 187.728 111.63 187.246C111.661 186.776 111.822 186.279 112.081 185.822C112.603 184.895 113.354 184.045 114.175 183.274C114.996 182.504 115.888 181.782 116.799 181.098C118.628 179.733 120.569 178.486 122.525 177.268C124.478 176.033 126.49 174.93 128.397 173.503L131.109 171.325C132.018 170.601 132.875 169.819 133.76 169.07C137.255 166.021 140.567 162.733 143.52 159.14C144.274 158.259 144.98 157.329 145.68 156.398C146.405 155.483 147.045 154.516 147.73 153.579C148.061 153.099 148.422 152.645 148.76 152.167C149.098 151.69 149.433 151.219 149.79 150.756C150.511 149.831 151.179 148.873 151.855 147.918C152.545 146.967 153.18 145.99 153.776 144.983C154.378 143.987 154.941 142.961 155.455 141.918C156.524 139.848 157.5 137.745 158.429 135.619C160.305 131.381 161.94 127.028 163.823 122.816C164.319 121.776 164.787 120.726 165.302 119.7C165.839 118.682 166.536 117.757 167.166 116.794C167.775 115.824 168.405 114.861 169.045 113.917C169.694 112.969 170.295 111.996 170.987 111.086C173.629 107.347 176.626 103.857 179.957 100.727C183.28 97.6197 186.928 94.758 190.892 92.6599C195.007 90.4929 199.067 88.3953 203.263 86.4875C207.441 84.5822 211.693 82.8377 216.042 81.422C220.39 80.0303 224.842 78.8979 229.34 78.5735C231.584 78.4136 233.835 78.448 236.006 78.8318C238.181 79.2086 240.272 79.9492 242.068 81.1343C242.502 81.4574 242.929 81.7782 243.351 82.1133C243.727 82.4889 244.151 82.8408 244.496 83.2378C244.82 83.6516 245.194 84.0344 245.452 84.4981C245.592 84.7217 245.742 84.9405 245.879 85.1712L246.235 85.8919C247.184 87.8304 247.642 90.0424 247.934 92.2703C248.53 96.7383 248.32 101.437 249.116 106.093C249.807 110.681 250.635 115.244 251.517 119.785L252.864 126.589L253.543 129.988C253.764 131.127 254.029 132.257 254.152 133.332C254.413 135.533 254.353 137.81 254.058 140.023C253.735 142.227 253.161 144.417 252.133 146.342C251.117 148.255 249.633 149.921 247.692 150.743C246.727 151.161 245.694 151.403 244.621 151.479C243.548 151.508 242.456 151.474 241.378 151.237C240.299 151.047 239.231 150.709 238.182 150.338C237.14 149.945 236.11 149.492 235.038 149.024C232.919 148.082 230.774 147.195 228.6 146.37C224.259 144.723 219.811 143.295 215.279 142.256C210.75 141.185 206.16 140.462 201.6 139.765C199.32 139.417 197.043 139.061 194.775 138.677C192.522 138.273 190.293 137.822 188.135 137.115C185.979 136.424 183.875 135.559 181.929 134.435C180.951 133.879 180.033 133.24 179.167 132.539C178.736 132.184 178.326 131.813 177.947 131.421C177.564 131.043 177.198 130.591 176.944 130.208L176.481 131.196C180.799 130.507 185.258 130.793 189.607 131.546C193.96 132.31 198.246 133.53 202.406 135.076C204.492 135.831 206.539 136.701 208.565 137.611C209.575 138.074 210.573 138.548 211.552 139.056C212.027 139.305 212.55 139.578 212.944 139.832C213.328 140.114 213.687 140.468 213.958 140.872C214.516 141.677 214.722 142.651 214.396 143.517C214.097 144.4 213.334 145.142 212.478 145.733C210.734 146.918 208.606 147.606 206.494 148.179C204.365 148.73 202.177 149.077 199.965 149.424C197.763 149.766 195.559 150.067 193.345 150.302C188.93 150.782 184.466 151.006 180.065 150.787C178.971 150.713 177.872 150.604 176.827 150.386C176.306 150.274 175.792 150.139 175.329 149.95C174.863 149.768 174.44 149.505 174.255 149.226C174.082 148.96 174.095 148.708 174.325 148.242C174.56 147.761 174.799 147.29 175.096 146.862C175.671 145.992 176.414 145.284 177.309 144.931C178.204 144.578 179.236 144.6 180.245 144.83C181.257 145.052 182.265 145.498 183.263 145.948C185.245 146.868 187.133 148.02 188.941 149.289C190.739 150.563 192.52 151.935 194.179 153.361C195.849 154.824 197.553 156.306 199.106 157.833C199.194 157.926 199.289 158.023 199.358 158.102C199.382 158.126 199.396 158.155 199.396 158.155L199.413 158.177C199.413 158.177 199.387 158.136 199.377 158.117C199.41 158.28 199.195 157.711 199.513 157.434L199.479 157.463L199.409 157.527C199.238 157.701 199.044 157.851 198.842 157.999C198.438 158.294 197.982 158.532 197.497 158.736C196.535 159.146 195.489 159.424 194.425 159.616C192.295 160.006 190.082 160.073 187.887 159.993C183.487 159.839 179.063 159.284 174.796 158.198C173.732 157.917 172.677 157.608 171.662 157.232C170.663 156.853 169.619 156.419 168.909 155.827C168.742 155.682 168.628 155.523 168.605 155.451C168.591 155.398 168.574 155.425 168.675 155.291C168.718 155.234 168.81 155.177 168.887 155.115L169.192 154.946C169.391 154.829 169.633 154.751 169.861 154.668C170.82 154.385 171.905 154.345 172.973 154.402C175.134 154.535 177.3 155.053 179.413 155.681C181.533 156.311 183.624 157.076 185.686 157.903C186.718 158.324 187.738 158.758 188.751 159.213L189.503 159.564C189.732 159.666 189.98 159.83 190.217 159.958L191.654 160.789C193.524 161.968 195.327 163.275 196.954 164.771C198.581 166.267 200.03 167.958 201.138 169.855C202.246 171.751 203.056 173.842 203.296 176.036C203.875 180.387 202.496 184.953 199.956 188.391L199.927 188.429C199.731 188.699 199.789 189.07 200.052 189.263C200.314 189.456 200.693 189.401 200.886 189.138L200.905 189.104L200.905 189.128Z" stroke="#CBE2D1" stroke-width="0.153605" mask="url(#path-4-outside-1_13757_30605)"/>
</svg>
