<svg width="375" height="271" viewBox="0 0 375 271" fill="none" xmlns="http://www.w3.org/2000/svg">
<g clip-path="url(#clip0_14066_31112)">
<path fill-rule="evenodd" clip-rule="evenodd" d="M331.483 28.348C335.99 24.5495 336.765 30.4583 357.819 18.5702C386.689 2.25043 357.995 -2.28676 346.693 3.62213C342.222 5.97865 337.856 9.74205 334.335 15.2641C330.04 22.0522 325.956 19.6957 326.942 29.2625C327.54 35.2417 327.998 31.2673 331.483 28.348Z" fill="#A3D1AC"/>
<path fill-rule="evenodd" clip-rule="evenodd" d="M326.372 67.0394C341.722 62.7133 358.517 47.2728 367.635 34.5405C384.923 10.307 368.41 14.6684 352.602 24.622C344.187 29.933 337.849 28.6668 334.153 30.6716C328.731 33.5909 329.716 46.5342 320.598 39.7108C314.295 34.9978 309.12 34.8923 302.818 39.1481C287.185 49.6996 295.353 75.8324 326.372 67.0746" fill="#F89C4B"/>
<path fill-rule="evenodd" clip-rule="evenodd" d="M59.3586 181.911C73.9699 194.538 94.9538 192.92 98.4042 173.294C100.305 162.496 94.7074 153.774 102.629 145.156C166.496 75.9381 -17.9933 115.155 59.3234 181.911" fill="#EFF7F2"/>
<path fill-rule="evenodd" clip-rule="evenodd" d="M28.0248 216.308C96.9268 301.67 126.149 206.249 78.4426 198.265C61.1203 195.345 55.5574 191.899 52.3183 187.432C27.039 152.752 11.5827 195.943 28.0248 216.308Z" fill="#6D5A7A"/>
<path fill-rule="evenodd" clip-rule="evenodd" d="M117.985 214.866C123.302 217.997 153.088 232.065 140.694 212.756C134.674 203.365 131.611 199.602 140.096 193.271C182.697 161.546 51.0197 175.614 117.95 214.901" fill="#F89C4B"/>
<path fill-rule="evenodd" clip-rule="evenodd" d="M106.013 270.65C105.907 270.931 105.59 271.072 105.308 270.966C105.027 270.861 104.886 270.544 104.991 270.263C106.118 267.203 106.752 263.44 107.421 259.36C109.252 248.14 111.435 234.845 125.694 228.021C130.517 225.735 137.242 226.509 143.544 227.212C148.473 227.775 153.191 228.338 156.395 227.318C160.374 226.087 162.064 222.253 159.036 212.581C158.965 212.37 159.036 212.124 159.247 211.983C159.775 211.561 160.338 211.174 160.867 210.822C161.289 210.541 161.676 210.26 162.028 210.013C163.683 208.747 164.387 207.235 161.219 203.12C161.043 202.873 161.078 202.557 161.324 202.381C164.915 199.497 164.387 197.668 163.155 196.12C162.803 195.698 162.416 195.276 161.993 194.854C160.409 193.201 158.93 191.689 160.514 189.473C161.958 187.468 163.824 186.343 165.444 185.358C166.359 184.795 167.169 184.303 167.732 183.775C169.387 182.122 168.718 179.59 160.972 171.817C158.719 169.566 156.958 167.877 155.621 166.576C153.191 164.219 152.029 163.129 151.466 162.004C150.938 160.984 150.903 160.069 150.832 158.381C150.762 156.868 150.656 154.653 150.163 151.1C147.945 136.047 140.199 124.581 129.707 116.772H129.637C126.891 116.35 123.44 115.612 119.462 114.768C96.9993 109.949 58.4466 101.684 49.4333 132.002C48.3419 135.695 47.9546 139.177 48.0602 142.378C51.6514 138.544 55.2426 135.203 58.9043 132.424C63.6573 126.656 70.875 121.134 82.7753 116.632C91.7885 113.22 100.767 112.27 107.632 113.677C111.259 114.416 114.286 115.823 116.434 117.828C118.265 119.551 119.462 121.767 119.814 124.44C128.194 126.445 132.911 128.555 133.827 131.404C135.094 135.378 129.003 140.514 115.026 148.392C110.977 150.678 107.139 153.14 104.604 156.165C102.14 159.155 100.907 162.742 101.999 167.385C103.548 173.857 103.794 178.781 102.914 182.368C102.14 185.569 100.485 187.679 98.1259 188.875C95.8022 190.036 92.8095 190.247 89.324 189.649C82.9161 188.523 74.7831 184.584 65.8755 178.605C57.8832 173.223 53.1302 170.902 50.7008 170.586C49.715 170.445 49.2221 170.726 49.1517 171.254C49.0813 172.028 49.5038 173.259 50.3839 174.771C53.3414 180.012 60.9111 188.277 68.1288 193.518C85.944 206.426 92.211 219.158 91.4364 229.288C90.9787 235.302 88.0565 240.367 83.5851 244.025C79.1488 247.647 73.2339 249.863 66.7204 250.215C54.0456 250.848 39.1878 244.236 29.1183 226.755C18.8376 208.888 16.2674 196.683 17.711 188.031C17.3237 188.242 16.9012 188.418 16.5139 188.594C12.7466 190.282 9.0498 190.598 6.12754 189.649C3.13486 188.664 0.987176 186.307 0.318225 182.685C-0.738014 176.881 2.07862 167.631 11.8312 155.11C10.1412 146.95 10.1412 136.856 10.6342 130.173C11.5144 118.601 16.866 111.989 22.7809 109.422C26.1609 107.944 29.7521 107.804 32.78 108.788C35.8431 109.808 38.378 111.954 39.6103 115.084C41.4763 119.762 40.4553 126.585 34.0475 134.921C30.2098 139.916 25.2807 144.066 21.0557 147.618C17.9926 150.186 15.3168 152.437 13.662 154.477C13.4156 154.758 13.2043 155.075 12.9579 155.356C13.2748 156.868 13.662 158.275 14.1197 159.612C15.2464 162.883 16.7956 165.45 18.8728 166.752C20.8797 168.018 23.4499 168.053 26.7242 166.365C28.9423 165.204 31.4773 163.199 34.3291 160.245L34.3995 159.823C34.7868 157.396 34.9629 155.04 35.1037 152.578C35.2797 149.904 35.4558 147.161 35.9839 144.031C38.8709 126.937 49.4685 115.295 63.1292 108.929C71.8608 104.884 81.8599 102.985 91.8941 103.196C101.964 103.442 112.068 105.799 121.046 110.23C124.215 111.813 127.278 113.642 130.13 115.752C138.545 116.878 143.579 111.954 149.213 106.432C156.888 98.9051 165.725 90.2176 185.618 93.3128C185.899 93.3479 186.111 93.6293 186.075 93.9107C186.04 94.1921 185.759 94.4031 185.442 94.3679C166.077 91.3783 157.451 99.8196 149.952 107.206C144.495 112.552 139.601 117.335 131.714 117.019C141.713 124.968 149.037 136.328 151.184 150.995C151.712 154.582 151.818 156.833 151.889 158.381C151.959 159.928 151.994 160.773 152.417 161.546C152.91 162.496 154.001 163.551 156.36 165.837C157.698 167.139 159.458 168.827 161.712 171.078C170.091 179.484 170.619 182.439 168.471 184.584C167.838 185.217 166.958 185.745 166.007 186.343C164.493 187.257 162.733 188.347 161.395 190.176C160.338 191.654 161.5 192.849 162.768 194.151C163.19 194.573 163.613 195.03 163.965 195.487C165.514 197.422 166.218 199.638 162.38 202.944C165.796 207.516 164.775 209.345 162.697 210.963C162.31 211.244 161.923 211.526 161.5 211.807C161.078 212.088 160.655 212.405 160.233 212.722C163.366 222.921 161.324 227.037 156.747 228.443C153.332 229.499 148.509 228.971 143.439 228.373C137.277 227.67 130.693 226.896 126.151 229.077C112.385 235.654 110.273 248.632 108.477 259.606C107.808 263.721 107.174 267.555 106.013 270.685M127.63 115.401C125.377 113.853 122.983 112.481 120.518 111.25C111.681 106.854 101.717 104.533 91.8237 104.322C81.9303 104.111 72.1073 105.975 63.5165 109.949C50.1375 116.175 39.7864 127.57 36.9697 144.277C36.4416 147.337 36.2656 150.045 36.1247 152.683C35.9839 154.758 35.8783 156.763 35.5966 158.838C38.9414 155.145 42.7438 150.186 47.0392 143.714C46.7223 140.056 47.0744 136.047 48.3771 131.756C57.672 100.488 96.8233 108.859 119.673 113.783C122.666 114.416 125.377 115.014 127.701 115.436M35.2797 160.737C34.7516 163.727 33.977 166.47 33.0616 169.003C34.47 168.229 35.8431 167.526 37.1458 166.857C37.4978 166.681 37.8499 166.506 38.4485 166.189C44.293 163.164 46.6519 158.029 48.9404 152.015C48.1306 149.94 47.5321 147.724 47.2152 145.367C42.7438 152.05 38.7653 157.08 35.2797 160.702M32.4279 170.621C29.1183 178.71 24.0484 184.267 18.8728 187.327C17.1124 195.804 19.4361 207.973 29.9281 226.228C39.7511 243.286 54.2216 249.758 66.5444 249.125C72.8114 248.808 78.5151 246.698 82.7753 243.216C87.0002 239.769 89.7817 234.95 90.2042 229.252C90.9435 219.475 84.8173 207.094 67.3542 194.432C59.9957 189.086 52.2852 180.715 49.2925 175.334C48.3419 173.61 47.849 172.168 47.9546 171.148C48.0954 169.917 48.9404 169.284 50.7008 169.53C53.271 169.847 58.2353 172.239 66.3684 177.725C75.1351 183.634 83.1626 187.503 89.3944 188.629C92.6687 189.192 95.4149 189.016 97.5274 187.961C99.6047 186.941 101.048 185.041 101.752 182.157C102.597 178.745 102.351 173.962 100.837 167.666C99.6399 162.672 100.943 158.768 103.654 155.532C106.294 152.366 110.237 149.834 114.392 147.513C127.841 139.916 133.792 135.167 132.7 131.791C131.926 129.364 127.56 127.465 119.814 125.636C119.814 125.741 119.814 125.882 119.814 125.988C119.849 129.681 118.371 134.112 114.955 139.283C104.78 154.934 102.597 154.512 97.8795 153.633C96.3303 153.351 94.4995 153 91.9646 153.246C89.2183 153.527 86.0848 156.833 82.6344 160.491C79.5009 163.833 76.0858 167.42 72.3537 169.355C65.9107 172.696 58.6226 171.148 50.3135 155.145C50.0319 154.618 49.7854 154.09 49.539 153.527C47.2856 159.295 44.7859 164.184 38.9414 167.209L37.6387 167.877C36.0543 168.686 34.3643 169.566 32.7096 170.515L32.4279 170.656V170.621ZM15.9858 187.609C16.6195 187.327 17.2533 187.011 17.887 186.659C19.7882 178.218 25.668 173.364 31.6181 169.847C32.5687 167.49 33.3433 164.923 33.9418 162.109C31.4421 164.536 29.1888 166.224 27.1819 167.315C23.5555 169.249 20.598 169.144 18.2743 167.666C15.9858 166.224 14.2958 163.446 13.0987 159.964C12.7114 158.873 12.3946 157.677 12.0777 156.446C2.99403 168.335 0.318225 177.022 1.33926 182.474C1.93779 185.674 3.83902 187.749 6.4092 188.594C9.08501 189.473 12.465 189.156 16.021 187.574M19.2601 185.815C23.6259 182.966 27.8509 178.218 30.8435 171.57C25.8792 174.701 21.1613 178.957 19.2601 185.815ZM12.6058 153.984L12.7466 153.809C14.4366 151.698 17.1828 149.377 20.2811 146.774C24.4709 143.257 29.3296 139.177 33.0968 134.253C39.223 126.304 40.2441 119.832 38.5189 115.471C37.3922 112.657 35.1389 110.723 32.3575 109.808C29.5408 108.894 26.2665 109.035 23.133 110.406C17.5701 112.833 12.5002 119.129 11.6552 130.243C11.1623 136.609 11.1623 146.106 12.641 153.984M48.3067 143.714L48.1306 143.96C48.3419 146.247 48.8348 148.427 49.539 150.432L49.715 149.975C51.3698 145.508 53.1654 140.689 56.2989 135.941C53.6231 138.227 50.9473 140.83 48.3067 143.714ZM63.3053 129.364C67.0373 126.972 70.9102 125.073 74.9239 123.701C84.7821 120.29 95.7318 119.868 108.794 122.259C112.456 122.928 115.73 123.561 118.582 124.229C118.23 122.013 117.173 120.149 115.589 118.672C113.582 116.772 110.73 115.506 107.315 114.803C100.661 113.431 91.8941 114.381 83.0569 117.722C74.0437 121.134 67.7767 125.143 63.2348 129.399M75.276 124.721C69.8187 126.621 64.6784 129.434 59.6789 133.233C54.961 138.966 52.7429 144.945 50.7008 150.397C50.4896 150.96 50.2783 151.487 50.1023 152.05C50.4544 152.929 50.8769 153.809 51.2994 154.653C59.1859 169.882 65.9459 171.465 71.8608 168.405C75.452 166.541 78.7616 163.024 81.8599 159.753C85.4511 155.954 88.7254 152.507 91.8589 152.191C94.5699 151.944 96.4712 152.296 98.0907 152.578C102.316 153.386 104.252 153.738 114.04 138.72C117.349 133.725 118.758 129.505 118.723 126.023C118.723 125.812 118.723 125.601 118.723 125.39C115.8 124.721 112.42 124.053 108.583 123.35C95.6966 120.993 84.9582 121.415 75.276 124.757" fill="#CBE2D1"/>
<path fill-rule="evenodd" clip-rule="evenodd" d="M185.443 94.4026C185.126 94.3675 184.915 94.0861 184.95 93.8047C184.985 93.4882 185.267 93.2772 185.549 93.3123C206.603 95.6688 211.11 99.6433 215.792 103.794C219.348 106.959 223.045 110.195 234.84 112.868C249.205 116.104 255.789 110.441 261.703 105.341C266.14 101.543 270.189 98.0254 276.772 98.5881C286.314 99.3619 292.616 98.4123 297.123 96.3019C301.594 94.1916 304.305 90.8855 306.699 86.911C307.122 86.2076 307.333 85.8559 307.544 85.469C310.044 81.2132 313.459 75.4098 317.649 70.7319C303.319 70.4505 298.144 63.4865 297.932 55.8542C297.827 52.0908 298.989 48.1515 300.855 44.8454C302.756 41.504 305.361 38.7606 308.213 37.3889C309.41 36.791 310.678 36.4393 311.91 36.3689C313.213 35.0675 314.656 34.1179 316.205 33.6255C318.635 32.8517 321.24 33.1683 323.881 35.1379C325.007 26.8725 329.866 22.3353 335.042 17.4816C337.682 15.0195 340.393 12.4871 342.717 9.32167C347.294 3.09623 351.132 0.317647 354.054 0.0362714C356.624 -0.209932 358.525 1.40798 359.617 4.32725C360.286 6.08585 360.673 8.30168 360.779 10.8692C365.884 8.26651 370.531 6.68377 373.031 7.91479C375.989 9.39201 376.024 14.4216 370.461 25.6415C365.919 34.7862 361.06 41.5392 355.497 47.5184C349.935 53.4977 343.738 58.6328 336.52 64.5065C336.52 64.5065 336.168 64.6472 335.992 64.5768C330.077 62.361 324.726 65.1044 320.184 69.6064C324.303 69.4306 328.599 68.5864 332.401 67.4258C337.189 65.9837 341.168 64.0844 342.999 62.572C344.372 61.4465 345.604 60.0045 346.872 58.5272C350.322 54.5176 353.702 50.5784 358.913 53.7087C359.159 53.8494 359.265 54.2011 359.089 54.4473C358.948 54.6935 358.596 54.799 358.349 54.6232C353.913 51.9853 350.85 55.5376 347.681 59.1955C346.414 60.6727 345.111 62.2203 343.668 63.381C341.731 64.9637 337.612 66.9333 332.683 68.4106C328.669 69.6416 324.092 70.5209 319.691 70.6264C319.48 70.6264 319.268 70.6264 319.057 70.6264C314.621 75.3394 311.03 81.4594 308.424 85.891L307.579 87.3331C305.115 91.4834 302.263 94.9302 297.545 97.1812C292.863 99.3971 286.384 100.382 276.667 99.5729C270.541 99.0805 266.633 102.422 262.408 106.08C256.317 111.32 249.522 117.194 234.593 113.853C222.517 111.145 218.75 107.803 215.053 104.532C210.511 100.523 206.145 96.6537 185.443 94.3323M318.635 69.6064C323.529 64.5065 329.444 61.13 336.098 63.4513C343.175 57.6831 349.266 52.5832 354.723 46.7446C360.215 40.8358 365.039 34.1531 369.51 25.1139C374.721 14.6326 374.967 10.0251 372.573 8.86443C370.32 7.73893 365.778 9.39201 360.814 11.9947C360.814 13.0851 360.779 14.2457 360.673 15.4064C359.546 29.2642 351.589 49.1012 335.535 58.6679C319.198 68.4106 310.607 66.6168 307.157 60.8134C304.692 56.6983 304.868 50.5432 306.734 45.1267C307.685 42.2778 309.093 39.6399 310.819 37.5648C310.114 37.7054 309.41 37.9516 308.741 38.2682C306.066 39.5696 303.601 42.1371 301.841 45.3026C300.045 48.4681 298.954 52.1963 299.059 55.7487C299.235 62.9941 304.376 69.6064 318.67 69.5712M359.687 12.5927C353.913 15.7581 347.681 20.0491 343.773 22.7574C341.661 24.1994 340.217 25.2194 339.724 25.4304C336.309 26.8373 334.091 30.038 332.683 33.8717C331.521 37.002 330.852 40.5895 330.535 43.9661C331.697 46.3577 332.859 49.1715 333.915 52.5128C334.725 54.9749 334.443 57.0852 333.774 58.2459C333.704 58.3866 333.598 58.5272 333.493 58.6328C333.985 58.3514 334.443 58.07 334.936 57.7886C350.674 48.3977 358.455 28.9476 359.546 15.3712C359.617 14.4216 359.652 13.5071 359.687 12.6278M343.139 21.8429C347.188 19.0291 353.667 14.5975 359.687 11.3968C359.617 8.72375 359.265 6.43757 358.596 4.67897C357.68 2.25211 356.166 0.915571 354.16 1.09143C351.554 1.33763 347.998 3.97553 343.632 9.91959C341.238 13.1554 338.492 15.723 335.851 18.2202C330.711 23.0387 325.888 27.5407 324.972 35.9468C326.557 37.3889 328.141 39.464 329.69 42.2426C330.077 39.253 330.711 36.2282 331.732 33.4848C333.246 29.3697 335.675 25.958 339.372 24.4104C339.76 24.2698 341.203 23.2849 343.245 21.8781M330.359 46.1467C330.253 48.0108 330.218 49.8046 330.218 51.3522C330.253 55.0804 330.887 57.1204 331.591 57.9293C331.838 58.1755 332.049 58.281 332.225 58.2459C332.436 58.2107 332.648 57.9997 332.824 57.6831C333.387 56.7335 333.563 54.9749 332.859 52.8294C332.049 50.297 331.204 48.0812 330.324 46.1467M329.127 51.3522C329.127 49.2419 329.162 46.7446 329.408 44.1419C327.894 41.1171 326.345 38.8661 324.796 37.3186C324.655 39.7454 324.831 42.4888 325.395 45.6191C325.606 46.8502 325.606 47.7295 325.395 48.257C325.219 48.6791 324.937 48.9253 324.514 48.9605C324.198 48.9605 323.81 48.855 323.458 48.5736C322.684 47.9757 321.592 46.4633 320.395 43.9661C318.142 39.3585 315.255 37.4944 312.368 37.4241C310.396 39.4992 308.777 42.3833 307.72 45.5136C305.995 50.6839 305.784 56.4521 308.072 60.2858C311.065 65.2803 318.353 66.8982 332.225 59.3362C331.732 59.3362 331.239 59.1603 330.781 58.6328C329.901 57.6479 329.162 55.3618 329.127 51.3522ZM323.775 36.3689C321.275 34.2938 318.811 33.9069 316.557 34.6455C315.466 34.9972 314.445 35.6303 313.459 36.4393C316.346 36.8613 319.128 39.0068 321.346 43.544C322.472 45.8653 323.458 47.237 324.127 47.7646C324.268 47.8701 324.374 47.9405 324.409 47.9405C324.409 47.9405 324.374 47.9405 324.409 47.9053C324.55 47.5536 324.55 46.8853 324.374 45.8653C323.74 42.2426 323.564 39.1475 323.81 36.4041" fill="#CBE2D1"/>
</g>
<defs>
<clipPath id="clip0_14066_31112">
<rect width="375" height="271" fill="white"/>
</clipPath>
</defs>
</svg>
