<svg width="214" height="197" viewBox="0 0 214 197" fill="none" xmlns="http://www.w3.org/2000/svg">
<path d="M130.662 25.9672C141.2 -23.0895 22.7188 12.8286 0.587891 60.7193C3.39342 82.6972 25.3713 76.9404 31.0479 96.9726C33.9628 110.046 60.1599 120.685 76.6505 119.431C119.608 112.939 155.402 47.3402 130.662 25.9672Z" fill="#043A4E"/>
<path d="M1.79005 59.7286C1.66617 59.9545 1.38198 60.0419 1.15608 59.918C0.930181 59.7942 0.842729 59.51 0.966609 59.2841C19.4685 24.9254 63.3223 4.65274 95.5458 0.746858C103.897 -0.266048 111.483 -0.178599 117.648 1.05292C123.878 2.29173 128.68 4.69646 131.406 8.31814C134.779 12.7997 134.954 19.0739 130.706 27.2136C130.589 27.4395 130.305 27.5342 130.079 27.4103C129.853 27.2937 129.759 27.0095 129.883 26.7836C133.941 19.0083 133.81 13.0693 130.662 8.88654C128.083 5.46161 123.477 3.17346 117.473 1.97838C111.402 0.768721 103.919 0.688562 95.6624 1.68689C63.672 5.56363 20.1462 25.6687 1.79734 59.7359L1.79005 59.7286Z" fill="black"/>
<path fill-rule="evenodd" clip-rule="evenodd" d="M86.82 138.7C88.0515 139.982 95.4917 143.99 101.329 145.025C116.267 147.663 138.143 146.774 138.42 138.758L139.681 102.395L155.829 97.6878C146.326 57.8128 78.0172 59.0589 68.748 95.764L84.8962 100.471L86.8128 138.7H86.82Z" fill="#FFFAFF"/>
<path fill-rule="evenodd" clip-rule="evenodd" d="M121.578 172.992L118.138 172.388L114.75 195.939C126.045 195.939 155.164 198.126 160.149 191.669C161.883 189.425 154.363 187.749 141.639 181.416C133.339 177.284 134.163 166.558 121.578 172.992Z" fill="black"/>
<path fill-rule="evenodd" clip-rule="evenodd" d="M123.81 196.115C117.281 196.231 116.188 195.306 110.65 196.115C-6.27893 189.972 8.90737 119.367 85.1886 143.801C85.451 142.27 86.1578 139.968 86.8282 138.7C100.448 142.321 120.677 142.11 138.428 138.758C139.244 140.616 139.798 143.094 140.257 145.411C228.118 112.481 238.757 186.19 123.818 196.115H123.81Z" fill="#F7EBE4"/>
<path d="M114.062 173.108C113.821 173.203 113.551 173.086 113.457 172.846C113.362 172.606 113.479 172.336 113.719 172.241L178.603 146.416C178.844 146.321 179.113 146.438 179.208 146.678C179.303 146.919 179.186 147.188 178.946 147.283L114.062 173.108Z" fill="black"/>
<path d="M55.5906 148.048C55.3501 147.953 55.2262 147.684 55.321 147.443C55.4157 147.203 55.6853 147.079 55.9258 147.174L117.749 170.769C117.99 170.864 118.114 171.133 118.019 171.374C117.924 171.614 117.655 171.738 117.414 171.644L55.5906 148.048Z" fill="black"/>
<path d="M123.77 196.581C121.081 196.625 119.325 196.501 117.795 196.392C115.623 196.231 113.925 196.107 110.712 196.581C110.675 196.581 110.639 196.581 110.595 196.581C66.5519 194.264 41.1636 182.794 30.6848 170.668C26.3198 165.618 24.5199 160.43 25.0154 155.722C25.5182 151 28.3238 146.774 33.177 143.662C42.8834 137.424 60.8315 135.617 84.8133 143.196C84.959 142.496 85.1777 141.687 85.4254 140.915C85.7169 139.997 86.0594 139.115 86.3946 138.481C86.4966 138.284 86.7298 138.19 86.9338 138.248C93.5942 140.019 101.843 140.864 110.61 140.878C119.689 140.886 129.323 139.997 138.322 138.299C138.541 138.255 138.752 138.379 138.84 138.568C139.255 139.516 139.605 140.631 139.911 141.797C140.166 142.788 140.392 143.801 140.589 144.784C168.316 134.488 188.37 134.816 199.191 140.405C204.584 143.188 207.717 147.269 208.402 152.006C209.087 156.721 207.346 162.062 202.988 167.382C192.56 180.119 167.012 192.857 123.828 196.588C123.807 196.588 123.777 196.588 123.756 196.588L123.77 196.581ZM117.86 195.459C119.383 195.568 121.132 195.692 123.756 195.648C166.655 191.939 191.977 179.354 202.267 166.784C206.449 161.676 208.125 156.597 207.477 152.137C206.828 147.706 203.87 143.866 198.762 141.236C188.079 135.719 168.134 135.464 140.436 145.834C140.399 145.848 140.363 145.863 140.326 145.87C140.071 145.921 139.824 145.754 139.773 145.506C139.539 144.347 139.292 143.145 139 142.037C138.745 141.061 138.454 140.121 138.118 139.29C129.177 140.951 119.624 141.826 110.61 141.811C101.916 141.804 93.7254 140.973 87.0577 139.246C86.8027 139.793 86.5403 140.485 86.3144 141.199C86.0157 142.132 85.7679 143.108 85.6295 143.881C85.6295 143.881 85.6222 143.924 85.6149 143.946C85.5347 144.194 85.2724 144.325 85.0246 144.245C61.0938 136.579 43.2405 138.306 33.6798 144.449C29.0743 147.408 26.4146 151.386 25.9409 155.824C25.4672 160.277 27.1943 165.21 31.3844 170.056C41.7175 182.014 66.8725 193.338 110.61 195.641C113.896 195.167 115.63 195.291 117.853 195.451L117.86 195.459Z" fill="black"/>
<path d="M85.0204 144.238C84.7799 144.151 84.6487 143.888 84.7362 143.64C84.8236 143.4 85.0859 143.269 85.3337 143.356C86.4195 143.742 87.4834 144.143 88.5255 144.559C89.604 144.989 90.6169 145.411 91.5642 145.834C91.7974 145.936 91.9067 146.213 91.8047 146.453C91.7026 146.686 91.4257 146.796 91.1852 146.694C90.2015 146.257 89.1959 145.834 88.1757 145.433C87.1773 145.04 86.128 144.639 85.0131 144.245L85.0204 144.238Z" fill="black"/>
<path d="M140.089 144.967C140.33 144.879 140.599 145.01 140.687 145.251C140.774 145.491 140.643 145.761 140.402 145.848C138.85 146.402 137.378 146.971 135.986 147.546C134.529 148.151 133.159 148.771 131.869 149.39C131.636 149.499 131.359 149.404 131.243 149.171C131.133 148.938 131.228 148.661 131.461 148.545C132.773 147.911 134.157 147.284 135.629 146.679C137.043 146.096 138.53 145.52 140.096 144.959L140.089 144.967Z" fill="black"/>
<path fill-rule="evenodd" clip-rule="evenodd" d="M110.449 173.283L113.888 172.679L117.277 196.23C105.982 196.23 76.8624 198.417 71.8781 191.96C70.1437 189.716 77.664 188.04 90.3873 181.707C98.6873 177.575 97.8638 166.849 110.449 173.283Z" fill="#B2D6C4"/>
<path fill-rule="evenodd" clip-rule="evenodd" d="M85.4881 112.189L84.8978 100.471L68.7496 95.7637L61.1492 122.136L30.0697 133.839C27.9054 131.478 24.4587 129.095 21.092 126.646C17.8055 130.938 27.1112 135.027 23.0595 136.87C18.7602 135.347 22.3017 126.442 18.046 125.961C18.2865 123.681 17.1424 122.609 14.9782 122.485L14.5992 124.985C14.6794 125.116 14.6648 125.269 14.5336 125.437L14.5992 124.985C14.3588 124.591 13.2803 124.387 12.1143 124.533C11.218 127.361 9.79703 136.455 12.2674 142.416C13.3458 145.032 22.7389 147.633 26.5428 147.699C40.9129 148.26 58.2198 146.351 70.3673 141.818C80.5766 138.007 83.9942 125.721 84.9051 114.404C85.1091 113.675 85.2986 112.932 85.4808 112.189H85.4881Z" fill="#FDBCA0"/>
<path d="M15.0459 141.162C15.1406 141.402 15.0167 141.672 14.7763 141.766C14.5358 141.861 14.2662 141.737 14.1714 141.497C11.9853 135.886 13.45 128.132 14.2152 124.11C14.3463 123.432 14.4483 122.864 14.5212 122.412C14.5577 122.157 14.7981 121.982 15.0532 122.018C15.3082 122.055 15.4831 122.295 15.4467 122.55C15.3811 122.973 15.2718 123.571 15.1333 124.277C14.39 128.213 12.9545 135.791 15.0459 141.154V141.162Z" fill="black"/>
<path d="M18.8221 140.805C18.9168 141.045 18.8002 141.315 18.5598 141.41C18.3193 141.505 18.0497 141.388 17.955 141.147C17.1898 139.253 16.84 136.71 16.7817 134.115C16.7161 131.106 17.0441 128.031 17.6052 125.837C17.6707 125.59 17.9258 125.437 18.1736 125.495C18.4213 125.56 18.5744 125.815 18.5088 126.063C17.9695 128.191 17.6489 131.171 17.7145 134.094C17.7728 136.578 18.108 139.005 18.8221 140.79V140.805Z" fill="black"/>
<path d="M24.3738 136.658C24.6288 136.695 24.811 136.928 24.7746 137.183C24.7382 137.438 24.505 137.62 24.2499 137.584C23.0403 137.423 22.2387 136.957 21.6484 136.308C21.08 135.674 20.7375 134.887 20.4315 134.035C20.344 133.794 20.4752 133.525 20.7157 133.437C20.9561 133.35 21.2258 133.481 21.3132 133.722C21.5828 134.479 21.8743 135.164 22.3407 135.682C22.7852 136.177 23.4119 136.527 24.3665 136.658H24.3738Z" fill="black"/>
<path fill-rule="evenodd" clip-rule="evenodd" d="M212.45 126.456C211.291 126.311 210.213 126.515 209.965 126.908L210.031 127.36C209.892 127.192 209.878 127.039 209.965 126.908L209.586 124.409C207.422 124.533 206.278 125.604 206.518 127.885C202.263 128.366 205.804 137.27 201.505 138.793C197.453 136.95 206.759 132.854 203.472 128.562C200.106 131.018 196.659 133.401 194.495 135.755L163.415 124.052L155.815 97.6797L139.666 102.387L139.076 114.105C139.258 114.848 139.455 115.584 139.652 116.32C140.555 127.637 143.973 139.923 154.19 143.734C166.337 148.267 183.644 150.176 198.014 149.615C201.818 149.549 211.204 146.948 212.29 144.332C214.753 138.371 213.339 129.284 212.443 126.449L212.45 126.456Z" fill="#FDBCA0"/>
<path d="M210.395 143.42C210.301 143.661 210.031 143.777 209.79 143.69C209.55 143.595 209.433 143.326 209.521 143.085C211.612 137.722 210.177 130.143 209.433 126.208C209.302 125.501 209.186 124.904 209.12 124.481C209.084 124.226 209.258 123.986 209.514 123.949C209.769 123.913 210.009 124.088 210.045 124.343C210.111 124.794 210.22 125.363 210.352 126.041C211.109 130.063 212.581 137.809 210.395 143.428V143.42Z" fill="black"/>
<path d="M206.615 143.078C206.52 143.319 206.243 143.435 206.01 143.34C205.77 143.246 205.653 142.969 205.748 142.736C206.469 140.95 206.804 138.524 206.855 136.039C206.921 133.124 206.6 130.136 206.061 128.008C205.996 127.761 206.149 127.506 206.396 127.44C206.644 127.374 206.899 127.527 206.965 127.775C207.519 129.969 207.854 133.044 207.788 136.053C207.73 138.648 207.373 141.191 206.615 143.085V143.078Z" fill="black"/>
<path d="M200.318 139.507C200.063 139.543 199.83 139.361 199.794 139.106C199.757 138.851 199.939 138.618 200.194 138.581C201.149 138.457 201.776 138.1 202.22 137.605C202.687 137.087 202.978 136.402 203.248 135.644C203.335 135.404 203.598 135.273 203.845 135.36C204.086 135.448 204.217 135.71 204.13 135.958C203.823 136.818 203.481 137.605 202.913 138.231C202.322 138.88 201.521 139.346 200.311 139.507H200.318Z" fill="black"/>
<path d="M86.1673 116.226C86.1819 116.481 85.9779 116.7 85.7228 116.714C85.4678 116.729 85.2492 116.525 85.2346 116.27L83.9812 91.2458C83.9666 90.9908 84.1707 90.7721 84.4257 90.7576C84.6808 90.743 84.8994 90.947 84.914 91.2021L86.1673 116.226Z" fill="black"/>
<path d="M139.521 120.583C139.521 120.838 139.302 121.049 139.047 121.042C138.792 121.042 138.581 120.823 138.588 120.568L139.28 90.4144C139.28 90.1593 139.499 89.948 139.754 89.9553C140.009 89.9553 140.22 90.1739 140.213 90.4289L139.521 120.583Z" fill="black"/>
<path d="M65.1916 120.117C65.432 120.029 65.7017 120.146 65.7964 120.386C65.8838 120.627 65.7673 120.897 65.5268 120.991L46.9228 128.001C46.6824 128.089 46.4127 127.972 46.318 127.732C46.2306 127.491 46.3472 127.222 46.5876 127.127L65.1916 120.117Z" fill="black"/>
<path d="M159.063 122.915C158.823 122.828 158.699 122.558 158.794 122.31C158.881 122.07 159.158 121.946 159.398 122.041L178.002 129.051C178.243 129.138 178.367 129.408 178.272 129.656C178.185 129.896 177.908 130.02 177.667 129.925L159.063 122.915Z" fill="black"/>
<path fill-rule="evenodd" clip-rule="evenodd" d="M106.33 47.9387C108.101 45.5048 116.087 42.8232 117.392 44.0183C117.355 52.3984 120.103 64.5096 121.451 68.7944C116.321 71.8622 105.944 71.2428 101.506 69.217C103.641 65.1581 106.549 51.0503 106.33 47.9387Z" fill="#FDBCA0"/>
<path d="M122.048 67.7444C122.23 67.5622 122.529 67.5695 122.711 67.7517C122.893 67.9338 122.886 68.2326 122.704 68.4148C120.765 70.2949 116.867 71.1329 112.8 71.264C107.86 71.4171 102.613 70.5208 100.347 69.1654C100.128 69.0342 100.055 68.7427 100.186 68.5241C100.318 68.3055 100.609 68.2326 100.828 68.3638C102.956 69.639 107.991 70.477 112.771 70.3313C116.633 70.2074 120.292 69.4423 122.048 67.7444Z" fill="black"/>
<path fill-rule="evenodd" clip-rule="evenodd" d="M99.8482 35.1057C97.837 34.0856 96.1246 34.9381 96.0153 37.015C95.9059 39.0918 97.4435 41.5985 99.4548 42.6187C101.466 43.6389 103.178 42.7863 103.288 40.7095C103.397 38.6327 101.859 36.1259 99.8482 35.1057Z" fill="#FDBCA0"/>
<path fill-rule="evenodd" clip-rule="evenodd" d="M123.222 35.0556C119.229 34.9171 119.768 29.5757 116.838 27.7539C113.727 32.4614 104.924 35.3179 99.3129 34.8734C98.8538 45.0535 102.607 52.7195 110.695 52.6612C117.217 52.6102 120.635 48.5658 122.012 42.9256C126.61 44.4122 130.633 31.9804 123.222 35.0556Z" fill="#FDBCA0"/>
<path fill-rule="evenodd" clip-rule="evenodd" d="M118.45 29.5392C118.035 28.8251 117.539 28.1911 116.84 27.7539C113.728 32.4614 104.918 35.3179 99.3145 34.8734C107.512 37.1543 116.541 32.3958 118.45 29.5392Z" fill="#FAA581"/>
<path d="M110.194 41.8569C110.449 41.8569 110.661 42.0609 110.668 42.316C110.668 42.571 110.464 42.7824 110.209 42.7897C110.005 42.7897 109.895 42.8698 109.859 42.9791C109.83 43.0666 109.823 43.1686 109.844 43.2779C109.866 43.3945 109.91 43.5111 109.983 43.5985C110.078 43.7297 110.223 43.8098 110.391 43.7588C110.639 43.686 110.901 43.8244 110.974 44.0722C111.047 44.3199 110.908 44.5823 110.668 44.6551C110.048 44.8446 109.546 44.5823 109.232 44.1523C109.079 43.941 108.97 43.6932 108.926 43.4382C108.882 43.1759 108.897 42.899 108.985 42.6512C109.152 42.1994 109.538 41.8569 110.209 41.8496L110.194 41.8569Z" fill="black"/>
<path d="M108.589 34.721C108.844 34.772 109.011 35.0198 108.96 35.2676C108.909 35.5226 108.662 35.6902 108.414 35.6392C107.722 35.5007 106.534 35.5663 105.397 35.7193C104.151 35.887 102.992 36.1639 102.606 36.4116C102.387 36.5501 102.103 36.4918 101.958 36.2732C101.819 36.0546 101.877 35.7704 102.096 35.6246C102.592 35.304 103.91 34.9761 105.273 34.7866C106.505 34.619 107.802 34.5607 108.596 34.7137L108.589 34.721Z" fill="black"/>
<path d="M118.968 35.4351C119.201 35.5444 119.303 35.8286 119.186 36.0618C119.077 36.295 118.793 36.397 118.56 36.2804C117.707 35.8724 116.738 35.661 115.783 35.5663C114.807 35.4643 113.823 35.4861 112.963 35.5444C112.708 35.559 112.482 35.3623 112.468 35.1072C112.453 34.8522 112.65 34.6263 112.905 34.6117C113.801 34.5534 114.836 34.5315 115.878 34.6335C116.942 34.7429 118.006 34.976 118.968 35.4351Z" fill="black"/>
<path d="M112.44 45.7054C112.585 45.4941 112.877 45.443 113.088 45.5888C113.3 45.7345 113.351 46.026 113.205 46.2373C113.066 46.4414 112.906 46.6235 112.738 46.7911C112.236 47.2794 111.602 47.5927 110.924 47.6656C110.246 47.7385 109.525 47.5709 108.84 47.0972C108.621 46.9442 108.41 46.762 108.199 46.5507C108.016 46.3612 108.024 46.0697 108.213 45.8876C108.403 45.7054 108.694 45.7127 108.876 45.9021C109.037 46.0697 109.204 46.2082 109.372 46.3248C109.86 46.66 110.363 46.7839 110.822 46.7328C111.288 46.6818 111.726 46.4632 112.083 46.1135C112.206 45.9896 112.323 45.8511 112.432 45.7054H112.44Z" fill="black"/>
<path d="M118.941 38.8597C119.087 38.6483 119.379 38.5973 119.59 38.7431C119.801 38.8888 119.852 39.1803 119.706 39.3916C119.204 40.1058 117.914 40.543 116.478 40.5794C115.225 40.6086 113.833 40.3317 112.769 39.654C112.551 39.5155 112.485 39.2313 112.623 39.0127C112.762 38.7941 113.046 38.7285 113.265 38.867C114.168 39.4353 115.363 39.6758 116.456 39.6467C117.608 39.6248 118.606 39.326 118.941 38.8597Z" fill="black"/>
<path d="M101.63 39.4144C101.477 39.2031 101.521 38.9116 101.732 38.7659C101.943 38.6128 102.235 38.6566 102.381 38.8679C102.738 39.3561 103.758 39.6986 104.946 39.7569C106.024 39.8079 107.197 39.6112 108.116 39.0501C108.334 38.9189 108.626 38.9845 108.757 39.2031C108.888 39.4217 108.822 39.7132 108.604 39.8444C107.518 40.5075 106.141 40.748 104.902 40.6897C103.452 40.6168 102.14 40.1286 101.623 39.4144H101.63Z" fill="black"/>
<path d="M121.546 42.8673C121.583 42.6123 121.816 42.4301 122.071 42.4666C122.326 42.503 122.508 42.7362 122.472 42.9912C122.1 45.804 120.818 47.9537 119.266 49.5132C116.875 51.9325 113.822 52.9745 112.532 52.9964C112.277 52.9964 112.059 52.7924 112.059 52.5373C112.059 52.2823 112.263 52.0637 112.518 52.0637C113.662 52.0418 116.402 51.0799 118.602 48.8573C120.023 47.4145 121.204 45.447 121.546 42.8673Z" fill="black"/>
</svg>
