<svg width="135" height="60" viewBox="0 0 135 60" fill="none" xmlns="http://www.w3.org/2000/svg">
<path d="M24.5181 46.0122H2.23966V42.5146L18.0105 19.3459H2.7272V15.0216H24.0942V18.498L8.32332 41.6879H24.5181V46.0122ZM49.9126 22.5467V46.0122H45.9911L45.3128 42.8538H45.0372C44.5426 43.6593 43.9138 44.3305 43.1507 44.8675C42.3875 45.3904 41.5396 45.779 40.607 46.0334C39.6743 46.3019 38.6921 46.4362 37.6605 46.4362C35.8941 46.4362 34.382 46.1394 33.1243 45.5459C31.8807 44.9382 30.9268 44.0055 30.2626 42.7478C29.5984 41.4901 29.2664 39.865 29.2664 37.8724V22.5467H34.2689V36.9397C34.2689 38.7627 34.6364 40.1264 35.3712 41.0308C36.1202 41.9352 37.279 42.3875 38.8476 42.3875C40.3597 42.3875 41.5608 42.0766 42.4511 41.4548C43.3414 40.833 43.9703 39.9144 44.3377 38.6991C44.7193 37.4838 44.91 35.9929 44.91 34.2265V22.5467H49.9126ZM83.5741 22.1015C86.2026 22.1015 88.181 22.7799 89.5094 24.1365C90.8519 25.4931 91.5231 27.6694 91.5231 30.6653V46.0122H86.5417V31.5556C86.5417 29.775 86.1955 28.4325 85.5031 27.5281C84.8106 26.6236 83.7578 26.1714 82.3447 26.1714C80.3662 26.1714 78.9389 26.8074 78.0628 28.0792C77.2007 29.3369 76.7697 31.167 76.7697 33.5693V46.0122H71.7883V31.5556C71.7883 30.3685 71.6329 29.3793 71.322 28.5879C71.0252 27.7824 70.566 27.1818 69.9442 26.7862C69.3224 26.3763 68.5381 26.1714 67.5913 26.1714C66.2205 26.1714 65.1253 26.4823 64.3057 27.1041C63.5002 27.7259 62.9208 28.6445 62.5675 29.8598C62.2142 31.061 62.0375 32.5377 62.0375 34.29V46.0122H57.0561V22.5467H60.9353L61.6348 25.7051H61.9104C62.3908 24.8855 62.9844 24.2142 63.6909 23.6913C64.4116 23.1543 65.2101 22.7587 66.0862 22.5043C66.9624 22.2358 67.8739 22.1015 68.8207 22.1015C70.573 22.1015 72.0498 22.4124 73.251 23.0342C74.4522 23.6419 75.3495 24.5746 75.943 25.8323H76.3246C77.0594 24.5604 78.084 23.6207 79.3982 23.013C80.7125 22.4054 82.1044 22.1015 83.5741 22.1015Z" fill="#CBE2D1"/>
<path d="M103.478 46.0122H98.4759V13.029H103.478V46.0122ZM131.374 34.2265C131.374 36.1766 131.12 37.9077 130.611 39.4198C130.102 40.9319 129.36 42.2108 128.385 43.2565C127.41 44.2882 126.237 45.0795 124.867 45.6307C123.496 46.1677 121.948 46.4362 120.224 46.4362C118.613 46.4362 117.137 46.1677 115.794 45.6307C114.452 45.0795 113.286 44.2882 112.297 43.2565C111.322 42.2108 110.565 40.9319 110.028 39.4198C109.491 37.9077 109.223 36.1766 109.223 34.2265C109.223 31.6404 109.668 29.45 110.558 27.6553C111.463 25.8464 112.749 24.4686 114.416 23.5218C116.084 22.5749 118.069 22.1015 120.373 22.1015C122.535 22.1015 124.443 22.5749 126.096 23.5218C127.749 24.4686 129.043 25.8464 129.975 27.6553C130.908 29.4641 131.374 31.6545 131.374 34.2265ZM114.353 34.2265C114.353 35.9364 114.558 37.399 114.967 38.6143C115.391 39.8296 116.041 40.7623 116.918 41.4124C117.794 42.0483 118.924 42.3663 120.309 42.3663C121.694 42.3663 122.825 42.0483 123.701 41.4124C124.577 40.7623 125.22 39.8296 125.63 38.6143C126.04 37.399 126.244 35.9364 126.244 34.2265C126.244 32.5165 126.04 31.068 125.63 29.881C125.22 28.6798 124.577 27.7683 123.701 27.1465C122.825 26.5106 121.687 26.1926 120.288 26.1926C118.225 26.1926 116.72 26.8851 115.773 28.27C114.826 29.6549 114.353 31.6404 114.353 34.2265Z" fill="#FF9D48"/>
<path d="M45.7717 9.75635C43.449 9.75635 41.7508 11.3512 40.2784 12.9925C38.806 11.3512 37.1078 9.75635 34.7851 9.75635C32.2022 9.75635 30.1084 11.78 30.1084 14.2763C30.1084 16.7725 32.2022 18.7962 34.7851 18.7962C37.1006 18.7962 38.7411 17.2454 40.2784 15.5275C41.8012 17.2338 43.449 18.7962 45.7717 18.7962C48.3545 18.7962 50.4483 16.7725 50.4483 14.2763C50.4483 11.78 48.3545 9.75635 45.7717 9.75635ZM38.8372 14.3134C37.3359 15.9756 36.195 16.939 34.7851 16.939C33.2634 16.939 32.03 15.7469 32.03 14.2763C32.03 12.8056 33.2634 11.6135 34.7851 11.6135C36.207 11.6135 37.4272 12.6512 38.8276 14.2089L38.8708 14.26L38.8372 14.3134ZM45.7717 16.939C44.3593 16.939 43.18 15.9338 41.734 14.3134L41.6859 14.26L41.7292 14.2089C43.1271 12.6512 44.3617 11.6135 45.7717 11.6135C47.2933 11.6135 48.5268 12.8056 48.5268 14.2763C48.5268 15.7469 47.2933 16.939 45.7717 16.939Z" fill="#4EA692"/>
<path d="M121.17 52.7363C119.468 49.3606 116.579 51.386 116.579 53.2765C116.579 56.1121 121.17 59.6228 121.17 59.6228C121.17 59.6228 125.76 56.1121 125.76 53.2765C125.76 51.386 122.871 49.3606 121.17 52.7363Z" fill="#4EA692"/>
</svg>
