<svg width="156" height="157" viewBox="0 0 156 157" fill="none" xmlns="http://www.w3.org/2000/svg">
<g opacity="0.5">
<circle cx="78" cy="78.5" r="78" fill="#CBE2D1" fill-opacity="0.12"/>
<circle cx="78" cy="78.5" r="78" fill="#CBE2D1" fill-opacity="0.12"/>
</g>
<circle cx="78.0009" cy="78.4999" r="63.5556" fill="#CBE2D1" fill-opacity="0.12"/>
<circle cx="78.0009" cy="78.4999" r="63.5556" fill="#CBE2D1" fill-opacity="0.12"/>
<path d="M121.586 57.7751C121.113 45.682 109.755 29.7108 96.3652 38.7814C91.6209 41.9954 101.701 49.699 106.107 58.762C110.514 67.825 108.958 71.4792 113.426 71.6336C117.894 71.788 121.902 65.8313 121.586 57.7751Z" fill="#4EA692"/>
<path d="M42.8188 86.9481C43.4399 88.8245 43.9228 90.8981 45.4667 92.9089C46.9908 94.894 46.7304 95.2129 50.4237 96.9168C54.0305 98.5784 58.2258 98.4297 61.6607 100.574C68.9342 105.121 68.0543 115.63 72.7495 122.076C77.6515 128.808 88.8514 129.967 93.7091 122.523C98.1245 115.757 95.9108 105.728 93.9155 98.4971C91.6894 90.4284 90.4269 82.4769 92.1568 74.1077C94.8404 61.1158 98.0864 42.2985 85.8615 32.9377C80.0332 28.4737 71.7796 30.8121 65.9464 33.9463C55.7823 39.407 51.3064 42.5173 45.8113 52.9218C41.0112 62.0088 39.845 69.6569 41.3816 80.7628C41.3816 80.7628 42.1976 85.0717 42.8188 86.9481Z" fill="#7A6687"/>
<path d="M86.031 83.0346C82.7106 76.7926 86.2563 65.5025 94.2933 65.2035C98.409 65.052 101.862 68.8029 102.897 72.6565C104.893 80.0889 96.7724 85.5463 90.3933 85.804C88.3961 85.8846 86.9497 84.7633 86.0293 83.0342L86.031 83.0346Z" fill="#FF9D48"/>
<mask id="path-6-outside-1_19561_34287" maskUnits="userSpaceOnUse" x="31.5586" y="25.9981" width="91.2159" height="105.127" fill="black">
<rect fill="white" x="31.5586" y="25.9981" width="91.2159" height="105.127"/>
<path d="M66.9437 67.4495C67.2333 66.8414 67.3913 66.2126 67.4775 65.5657C67.5184 65.2428 67.5232 64.9163 67.5086 64.5899C67.4936 64.2656 67.4483 63.9412 67.3644 63.6259C67.2093 62.9959 66.9186 62.4042 66.5464 61.8806C66.1716 61.3587 65.7083 60.9077 65.2028 60.5225C64.6973 60.1374 64.1505 59.8138 63.5874 59.5265L63.1574 59.3242C63.017 59.253 62.8607 59.1959 62.7158 59.1459C62.4203 59.0423 62.1218 58.9424 61.8216 58.851C61.2215 58.666 60.6148 58.5017 59.9975 58.3771C59.3793 58.2568 58.7521 58.1587 58.1071 58.174C57.7847 58.1861 57.4565 58.2257 57.135 58.3553C57.0556 58.3929 56.9747 58.4279 56.9009 58.48L56.789 58.5591C56.7515 58.5927 56.7141 58.6264 56.6781 58.6737C56.6425 58.7189 56.6104 58.7781 56.5946 58.8521C56.5789 58.926 56.5874 59.0076 56.6144 59.0734C56.6688 59.2029 56.7513 59.2722 56.8252 59.3307C57.13 59.5427 57.4378 59.6292 57.7493 59.7186C58.0601 59.8013 58.3717 59.8599 58.6851 59.91C59.3103 60.0076 59.9388 60.0594 60.5695 60.0808C61.1985 60.0995 61.8326 60.0951 62.4607 60.0273C63.0888 59.9596 63.7179 59.8566 64.3353 59.667C64.6434 59.5698 64.9478 59.4497 65.2348 59.2792C65.3783 59.1939 65.5179 59.0967 65.645 58.9768C65.7074 58.9177 65.7706 58.8544 65.8244 58.7845L65.8451 58.7581L65.8565 58.7452C65.9357 58.6478 65.8586 58.4823 65.8658 58.5193C65.8578 58.5064 65.8461 58.4905 65.8376 58.4798L65.8217 58.463C65.8111 58.4517 65.8006 58.4405 65.7932 58.4345C65.7574 58.3999 65.7259 58.3752 65.6949 58.3483C65.1884 57.9475 64.6766 57.5919 64.16 57.2286C63.6321 56.8672 63.0987 56.5422 62.5451 56.2305C61.9906 55.9229 61.4166 55.6464 60.8123 55.4406C60.5113 55.3424 60.2062 55.2432 59.8711 55.2038C59.5422 55.1657 59.1802 55.1911 58.8621 55.3657C58.5443 55.5382 58.3157 55.8302 58.1667 56.1334C58.087 56.2838 58.0276 56.4409 57.9743 56.5994C57.9457 56.6727 57.9184 56.7906 57.9231 56.9001C57.9285 57.0164 57.9786 57.136 58.0492 57.2204C58.1965 57.3905 58.3756 57.4527 58.5378 57.5022C58.7026 57.5501 58.8662 57.5733 59.027 57.5893C59.3511 57.6197 59.6696 57.6156 59.9858 57.6021C61.2472 57.5231 62.4848 57.3126 63.7092 57.0327C64.3203 56.8926 64.9268 56.7337 65.5305 56.5675C66.1326 56.3988 66.7398 56.2267 67.3314 55.9959C67.9182 55.7574 68.5103 55.4934 69.0154 55.0507C69.2615 54.829 69.4982 54.5499 69.5838 54.1795C69.6271 53.9966 69.6214 53.8006 69.5695 53.6185C69.5172 53.4386 69.4219 53.2779 69.3083 53.1419C69.1952 53.0037 69.0567 52.8931 68.9009 52.803C68.7392 52.7204 68.5994 52.667 68.4501 52.6071C68.1553 52.4903 67.8598 52.3867 67.5613 52.2869C66.9639 52.0892 66.3629 51.9085 65.754 51.7548C64.538 51.4389 63.2946 51.2209 62.0381 51.1351C60.7828 51.0539 59.5028 51.1088 58.2674 51.4504L58.2612 51.449C58.1642 51.4782 58.1082 51.5786 58.1347 51.6775C58.1421 51.7035 58.1545 51.7262 58.1695 51.7472C58.2943 51.9012 58.4108 52.0136 58.5447 52.1254C58.6744 52.2362 58.8105 52.3375 58.9505 52.4307C59.2305 52.6172 59.5221 52.7797 59.8261 52.914C60.4309 53.1886 61.0649 53.3766 61.706 53.511C62.3458 53.6517 63.0002 53.7138 63.6474 53.7587C64.2915 53.7986 64.9352 53.8295 65.579 53.8604C66.8649 53.9197 68.1458 53.9822 69.4137 54.1459C70.6835 54.3012 71.9369 54.5634 73.1734 54.8949C73.7928 55.0599 74.4058 55.2455 75.016 55.4438C75.3174 55.5399 75.6344 55.6439 75.9555 55.7289C76.2779 55.8075 76.6072 55.8744 76.9434 55.8986C77.279 55.936 77.6231 55.9132 77.9623 55.8628C78.3016 55.8014 78.6383 55.6818 78.942 55.504C79.5643 55.1494 79.9893 54.525 80.2407 53.884C80.4938 53.2345 80.5907 52.5479 80.617 51.8676C80.6347 51.1876 80.5786 50.5089 80.4296 49.8404C80.3515 49.4976 80.2427 49.1878 80.1496 48.8748L79.8584 47.9311L79.2796 46.0467C78.8999 44.7888 78.5339 43.5274 78.2061 42.259C77.856 41.0143 77.7763 39.6973 77.4626 38.3834C77.3058 37.7308 77.1016 37.0677 76.7344 36.47L76.5958 36.2487C76.5441 36.1774 76.4873 36.1094 76.4351 36.0402C76.3341 35.8959 76.1991 35.7794 76.075 35.6521C75.947 35.5328 75.8038 35.4344 75.6695 35.3247C75.5254 35.2305 75.3758 35.1418 75.2258 35.0551C74.611 34.7363 73.933 34.5827 73.2628 34.5436C72.5907 34.5042 71.9257 34.5725 71.2788 34.6981C69.98 34.9524 68.7538 35.4333 67.5695 35.981C66.388 36.536 65.2484 37.1779 64.142 37.867C63.0381 38.5544 61.96 39.303 60.9064 40.0481C59.8163 40.8228 58.8937 41.7742 58.0519 42.7925C56.3703 44.8404 55.1677 47.2455 54.2955 49.742C53.4459 52.2348 52.6649 54.7495 51.6354 57.1534C51.1201 58.353 50.5316 59.5208 49.8371 60.6184C49.1442 61.7185 48.3499 62.7474 47.4867 63.7143C47.2672 63.953 47.055 64.1978 46.8282 64.4304L46.1482 65.1262C45.6971 65.5589 45.1628 65.9464 44.6605 66.3565C44.1519 66.7653 43.6461 67.1813 43.1686 67.6368C42.9298 67.8645 42.6975 68.1026 42.4827 68.36C42.2678 68.6175 42.0675 68.8981 41.9271 69.2319C41.8592 69.3983 41.8145 69.5875 41.8213 69.7882C41.8327 69.9877 41.8906 70.1622 41.9623 70.3221C42.1054 70.644 42.298 70.9261 42.5029 71.191C42.9172 71.7195 43.3957 72.1805 43.9048 72.5997C44.4163 73.0172 44.9635 73.3895 45.5571 73.6859C45.8573 73.8282 46.1639 73.9608 46.4902 74.0515C46.815 74.1395 47.1664 74.1936 47.5262 74.1279C47.7072 74.0997 47.8837 74.0219 48.0473 73.9234C48.1209 73.8624 48.2017 73.8074 48.2647 73.7351C48.3235 73.6619 48.3963 73.5941 48.44 73.5109C48.5421 73.3566 48.6228 73.171 48.6548 72.9701C48.6885 72.7718 48.6594 72.5639 48.5972 72.3796C48.3346 71.6259 47.5103 71.2161 46.7582 71.3889C46.3832 71.4756 46.0598 71.7154 45.8313 71.9964C45.5961 72.2781 45.4312 72.5953 45.3022 72.9162C45.1686 73.2383 45.0783 73.5701 45.0137 73.9031C44.9786 74.0679 44.9491 74.2362 44.9279 74.4063C44.898 74.5767 44.891 74.7411 44.8778 74.9042C44.8258 75.5632 44.7803 76.2215 44.7159 76.8777L44.6246 77.8621C44.5866 78.1923 44.573 78.519 44.4695 78.8014C44.4125 78.9369 44.35 79.0779 44.2509 79.1576C44.155 79.2424 44.0452 79.271 43.9353 79.2287C43.8271 79.1891 43.7212 79.0879 43.6535 78.9599C43.5757 78.8385 43.5299 78.6889 43.4923 78.541C43.4618 78.3903 43.4409 78.2352 43.4378 78.0773C43.4281 77.9203 43.4402 77.7725 43.4902 77.6397C43.5376 77.5087 43.6206 77.4033 43.7381 77.3388C43.854 77.2717 43.9977 77.2462 44.1426 77.2454C44.4382 77.2473 44.7346 77.3467 45.0192 77.4811C45.3018 77.615 45.5721 77.7861 45.828 77.9738C46.339 78.3535 46.8138 78.8115 47.3559 79.1871C47.6268 79.376 47.9129 79.5439 48.2119 79.6815C48.5068 79.8183 48.8061 79.9449 49.1117 80.0618C49.7188 80.2948 50.6134 80.3426 51.2486 80.4845L51.1782 80.3918C50.2955 80.9538 49.1346 81.5034 48.181 81.9322C47.7036 82.1443 47.2174 82.3367 46.7203 82.4891C46.2246 82.6351 45.7128 82.7554 45.2065 82.7485C44.9548 82.7432 44.6989 82.717 44.4737 82.618C44.2456 82.5228 44.0596 82.3617 43.9275 82.1507C43.7949 81.9419 43.7263 81.6963 43.7561 81.4551C43.7902 81.2148 43.9142 80.988 44.0773 80.8009C44.4106 80.4238 44.8869 80.1761 45.375 80.066C45.6219 80.0127 45.8756 79.9985 46.1175 80.0393C46.3599 80.0779 46.5899 80.1847 46.7608 80.3556C46.9343 80.525 47.0404 80.7567 47.0916 81.0028C47.1448 81.2493 47.1448 81.5126 47.1138 81.7691C47.087 82.0265 47.0262 82.2807 46.9407 82.5294C46.8598 82.777 46.75 83.018 46.6329 83.253C46.1499 84.1898 45.4877 85.0246 44.8558 85.8795C44.5398 86.3069 44.221 86.7381 43.934 87.1919C43.6469 87.6457 43.3811 88.1219 43.201 88.6417C43.0177 89.1563 42.9381 89.7317 43.032 90.2838C43.1197 90.8346 43.336 91.3499 43.6098 91.8183C44.1657 92.757 44.9376 93.5337 45.7927 94.174C46.6503 94.8126 47.603 95.3198 48.6107 95.66C49.6164 95.9997 50.6941 96.174 51.7554 96.1012C52.8133 96.0542 53.8617 95.89 54.8881 95.6367C56.9433 95.1286 58.8954 94.2942 60.806 93.4107L63.6633 92.0702C64.6176 91.6282 65.5751 91.1914 66.5243 90.7328C68.4207 89.8151 70.297 88.8088 71.9848 87.5015C72.1952 87.336 72.4067 87.1752 72.6064 86.9985C72.8099 86.8248 73.0129 86.6533 73.2041 86.4658L73.4963 86.1902C73.5919 86.0965 73.6811 85.9925 73.7756 85.8941C73.9682 85.7002 74.122 85.4757 74.291 85.2611C74.5965 84.8114 74.881 84.3393 75.073 83.8245C75.1887 83.5759 75.2489 83.3038 75.3367 83.0445C75.3878 82.7748 75.4661 82.509 75.4842 82.232C75.6291 81.1378 75.4227 79.9894 74.8859 79.0219C74.7317 78.7926 74.6027 78.5469 74.4145 78.3455C74.3244 78.2413 74.2418 78.1321 74.1462 78.0333L73.8472 77.754L73.6976 77.6144L73.5358 77.4919L73.2121 77.2469L72.8688 77.033C72.755 76.9589 72.6399 76.8912 72.5178 76.8351L72.1571 76.6527L71.7833 76.5006C71.5368 76.3902 71.2753 76.3296 71.0213 76.2441C70.5018 76.117 69.9757 76.0106 69.445 75.9761C68.3829 75.8805 67.3153 75.9829 66.2753 76.1888C65.2355 76.4037 64.2209 76.7437 63.2612 77.211C62.3036 77.6788 61.4057 78.2817 60.6052 78.9948C58.9989 80.4266 57.7818 82.2419 56.7757 84.1309C55.786 86.0346 54.8827 87.9687 54.0154 89.9263C53.1523 91.8848 52.3479 93.872 51.6154 95.8863C51.5846 95.9701 51.6227 96.0649 51.7036 96.1007C52.3178 96.3818 52.9239 96.7208 53.5064 97.0789C54.0886 97.4391 54.6552 97.8312 55.1842 98.2681C55.7142 98.7008 56.2211 99.1704 56.6524 99.7005L56.8179 99.8969C56.8731 99.9623 56.9178 100.036 56.9679 100.105C57.0632 100.246 57.1681 100.382 57.2583 100.526L57.5069 100.971C57.552 101.044 57.585 101.122 57.6155 101.202L57.712 101.438L57.8085 101.674L57.8849 101.924C57.9337 102.089 57.9913 102.255 58.0331 102.424L58.163 102.928L58.2746 103.438C58.4118 104.122 58.5015 104.815 58.5817 105.512C58.6619 106.209 58.7382 106.915 58.8651 107.616C58.9899 108.317 59.1704 109.01 59.4055 109.68C59.5168 110.019 59.6614 110.344 59.7923 110.672C59.9313 110.993 60.0681 111.313 60.1974 111.639C60.459 112.286 60.6998 112.939 60.8857 113.607C61.0715 114.275 61.2025 114.957 61.2559 115.649C61.3134 116.341 61.309 117.039 61.2807 117.739C61.2549 118.437 61.2764 117.83 61.2565 118.54C61.2478 118.855 61.2812 119.252 61.2812 119.252C61.2812 119.252 61.7733 119.756 62.5996 119.987C63.6853 120.29 63.9381 119.959 64.428 121.261C65.6959 119.677 63.5995 121.844 68.4226 120.19L70.637 119.123L71.3519 118.746C71.3765 118.313 70.7754 118.714 70.2495 118.983C69.1355 119.553 69.4008 119.454 68.0478 120.034C67.5562 120.201 64.6693 121.097 65.2542 120.138C66.4385 118.234 67.7115 116.349 68.6567 114.27C69.1208 113.229 69.497 112.124 69.6161 110.969C69.6779 110.396 69.6901 109.813 69.6339 109.236C69.5794 108.661 69.4786 108.101 69.4096 107.543C69.3382 106.987 69.299 106.432 69.3569 105.887C69.4174 105.341 69.5564 104.801 69.7243 104.267C70.0617 103.203 70.5083 102.123 70.5724 100.942L70.586 100.088C70.581 99.8082 70.6247 99.5325 70.6428 99.2554C70.6737 98.979 70.7257 98.7051 70.7735 98.4303L70.8709 98.0249L70.9187 97.8209L70.9806 97.6222C71.3015 96.554 71.7953 95.5466 72.3755 94.5895C72.9521 93.6293 73.5959 92.7085 74.2275 91.7739C74.5417 91.3041 74.8591 90.8393 75.1575 90.3527C75.4533 89.8676 75.7303 89.3695 75.986 88.86C77.0046 86.8211 77.7149 84.647 78.2965 82.4485C78.5779 81.3427 78.7957 80.2316 79.078 79.1415C79.3579 78.0531 79.714 76.9817 80.2457 76.0093C81.3642 74.0791 82.7507 72.2905 84.3101 70.7044C85.8758 69.1286 87.6453 67.7222 89.6546 66.8319C90.6659 66.3961 91.7095 66.0117 92.7734 65.7646C93.3059 65.6489 93.8478 65.5597 94.3814 65.5704C94.9142 65.5743 95.4486 65.6826 95.8784 65.9668C96.3157 66.246 96.5923 66.7216 96.7465 67.2341C96.8902 67.7554 96.9315 68.3113 96.9148 68.8653C96.8935 69.4205 96.8271 69.9745 96.7071 70.5165C96.5871 71.0585 96.4036 71.5842 96.177 72.0891C95.7291 73.1045 95.0669 74.0102 94.3047 74.8071C93.5348 75.6002 92.647 76.2673 91.7224 76.8841C90.7993 77.5035 89.8467 78.0897 88.9329 78.7466C88.4758 79.0761 88.03 79.4236 87.6065 79.7982C87.1789 80.1719 86.7853 80.5886 86.4095 81.0027C86.0317 81.4163 85.658 81.8308 85.2468 82.1883C84.8381 82.5441 84.3791 82.8421 83.8755 82.9443C83.3721 83.0554 82.8488 82.9054 82.3866 82.6516C81.9204 82.3859 81.5016 82.04 81.2742 81.5665C80.7974 80.6322 81.2455 79.3424 82.1369 78.8509C82.3568 78.7318 82.6021 78.6759 82.8383 78.7132C83.0708 78.7474 83.2989 78.8736 83.4414 79.056C83.5877 79.2414 83.6616 79.4925 83.6835 79.7541C83.7075 80.0162 83.6899 80.2912 83.6537 80.562C83.4892 81.6562 83.1029 82.7275 82.743 83.7958C82.5598 84.3303 82.374 84.8665 82.2039 85.4106C82.0343 85.9725 81.9729 86.5941 82.1097 87.1779C82.2328 87.7654 82.5077 88.2894 82.7899 88.7796C83.0736 89.2723 83.3859 89.7427 83.6195 90.2376C83.8565 90.7265 84.0037 91.2618 84.0877 91.8096C84.1693 92.359 84.1963 92.9205 84.2142 93.4845C84.2509 94.6082 84.2264 95.7758 84.5517 96.9042C84.7122 97.458 84.9554 98.0191 85.3377 98.4653C85.7099 98.9181 86.1643 99.2896 86.6523 99.5845C87.6316 100.18 88.7149 100.53 89.8003 100.79C90.8902 101.049 91.9946 101.209 93.0985 101.332L94.7534 101.505C95.3107 101.556 95.8791 101.586 96.4398 101.541C97.0015 101.5 97.5593 101.428 98.1064 101.304C98.6558 101.19 99.1968 101.034 99.7279 100.854C100.791 100.492 101.815 100.023 102.793 99.4714C103.772 98.9222 104.71 98.295 105.595 97.5986C106.482 96.9048 107.319 96.1422 108.089 95.3114C108.862 94.4837 109.56 93.5816 110.158 92.6108C110.451 92.1207 110.723 91.617 110.952 91.0883C111.177 90.563 111.377 90.0279 111.554 89.4852C111.726 88.9395 111.875 88.3861 111.998 87.8272C112.116 87.2669 112.208 86.7011 112.272 86.1309C112.329 85.5594 112.358 84.9861 112.355 84.4122C112.346 83.8369 112.305 83.2632 112.23 82.6931C112.055 81.5564 111.789 80.4545 111.532 79.3502C111.008 77.1503 110.493 74.9371 110.544 72.6821C110.568 70.4233 110.806 68.1678 111.184 65.9394C111.372 64.8239 111.594 63.7158 111.842 62.6116L112.226 60.9554C112.356 60.3979 112.445 59.8312 112.518 59.2633C112.642 58.1246 112.663 56.9651 112.494 55.825L112.427 55.3984C112.401 55.2576 112.368 55.1175 112.338 54.9757C112.284 54.6914 112.195 54.4193 112.119 54.141C111.939 53.5941 111.737 53.0531 111.463 52.547C111.208 52.0318 110.884 51.5545 110.543 51.0955C110.2 50.6492 109.851 50.2061 109.5 49.7669C108.797 48.8884 108.074 48.0252 107.347 47.1679C106.623 46.309 105.893 45.4597 105.199 44.5788C104.849 44.1421 104.518 43.6918 104.189 43.2377C103.863 42.7798 103.567 42.3173 103.245 41.8404C102.599 40.8993 101.823 40.0509 100.934 39.3435C100.049 38.6343 99.0585 38.0701 98.0248 37.6289C97.9397 37.5922 97.842 37.6346 97.8066 37.7196C97.7707 37.8068 97.812 37.9068 97.8951 37.943C98.9088 38.3664 99.8753 38.9099 100.743 39.5928C101.611 40.2736 102.373 41.0947 103.01 42.0093C103.323 42.4666 103.632 42.9517 103.958 43.4075C104.291 43.8646 104.626 44.318 104.977 44.7573C105.677 45.6416 106.409 46.4935 107.136 47.3508C107.863 48.206 108.585 49.0645 109.286 49.9404C109.978 50.8255 110.722 51.6733 111.22 52.672C111.485 53.1628 111.683 53.6896 111.86 54.2204C111.934 54.4914 112.022 54.7568 112.073 55.0338C112.102 55.1709 112.135 55.3067 112.16 55.445L112.224 55.8622C112.391 56.9751 112.373 58.111 112.253 59.2306C112.132 60.3524 111.826 61.4416 111.577 62.5501C111.324 63.6555 111.101 64.7699 110.907 65.8908C110.522 68.1289 110.278 70.3982 110.247 72.6777C110.219 73.8202 110.333 74.9656 110.515 76.0885C110.698 77.214 110.954 78.3225 111.207 79.4259C111.456 80.5283 111.719 81.6361 111.874 82.742C111.941 83.297 111.973 83.8553 111.977 84.414C111.974 84.9733 111.939 85.5321 111.877 86.087C111.811 86.641 111.712 87.1923 111.594 87.7369C111.469 88.2822 111.317 88.8194 111.144 89.3474C110.969 89.8769 110.759 90.3944 110.534 90.8998C110.306 91.4001 110.037 91.8822 109.747 92.3487C108.548 94.2012 106.944 95.764 105.183 97.0505C104.302 97.697 103.377 98.2739 102.418 98.7769C101.461 99.2824 100.467 99.7 99.4515 100.013C98.4405 100.336 97.4032 100.549 96.3762 100.603L95.992 100.622L95.6107 100.616C95.4828 100.618 95.3579 100.606 95.2306 100.595C95.1012 100.584 94.9853 100.58 94.8423 100.562L93.197 100.385C92.1117 100.266 91.0402 100.113 90.0031 99.8704C88.97 99.6286 87.9625 99.2973 87.1131 98.7822C86.6878 98.5278 86.3167 98.2214 86.0247 97.8684C85.7206 97.5216 85.5466 97.122 85.3985 96.6418C85.1119 95.6969 85.1123 94.6014 85.0703 93.4522C85.0484 92.8763 85.0178 92.2807 84.9212 91.6704C84.8242 91.0622 84.6508 90.4369 84.3599 89.8562C84.0779 89.2842 83.7593 88.8235 83.4818 88.352C83.205 87.8874 82.9713 87.4434 82.876 86.9994C82.7648 86.5585 82.8029 86.1066 82.9319 85.6441C83.0872 85.1188 83.2689 84.5817 83.4438 84.0453C83.6213 83.5073 83.8002 82.9629 83.9607 82.4034C84.1191 81.8434 84.269 81.2727 84.3485 80.6574C84.3862 80.3493 84.4075 80.0265 84.3713 79.6798C84.3582 79.5086 84.317 79.3268 84.2589 79.1434C84.1922 78.9603 84.1064 78.7751 83.9709 78.6099C83.8392 78.4476 83.6732 78.3043 83.4959 78.2138C83.3224 78.1153 83.1306 78.0525 82.9335 78.024C82.7354 77.9908 82.5351 78.008 82.346 78.0433C82.1598 78.0858 81.9835 78.1526 81.8242 78.241C81.1922 78.6001 80.7891 79.1829 80.5783 79.8263C80.3659 80.4672 80.3991 81.2227 80.7142 81.842C80.8686 82.151 81.0813 82.4198 81.3239 82.64C81.4424 82.7528 81.5728 82.8505 81.7013 82.9368L82.0946 83.1795C82.2324 83.2524 82.3817 83.3123 82.5255 83.3776C82.6697 83.4408 82.8365 83.4692 82.991 83.5148C83.1498 83.5502 83.3199 83.5528 83.4828 83.5693C83.6478 83.5553 83.8152 83.5506 83.9761 83.5157C84.6282 83.3758 85.1573 83.0027 85.5993 82.6123C86.0426 82.2155 86.4199 81.7841 86.7925 81.3649C87.1634 80.9431 87.5289 80.5467 87.9352 80.1815C88.3379 79.8133 88.7654 79.4705 89.2093 79.1425C90.0948 78.486 91.0413 77.8984 91.97 77.2625C92.8994 76.6335 93.813 75.9368 94.6064 75.1047C95.3936 74.2713 96.0769 73.3172 96.5402 72.2499C96.7727 71.7175 96.96 71.164 97.0838 70.594C97.2056 70.0236 97.2707 69.445 97.2887 68.8647C97.3001 68.2852 97.2557 67.6932 97.0914 67.1164C97.0012 66.8307 96.8814 66.5516 96.7132 66.2971C96.547 66.0431 96.3219 65.8224 96.0697 65.6576C95.5596 65.3245 94.962 65.2088 94.3901 65.1851C93.8126 65.1579 93.2442 65.219 92.6812 65.3058C92.1182 65.3925 91.5648 65.5256 91.0201 65.6784C90.4712 65.8302 89.9431 66.0066 89.4138 66.2293C88.8803 66.4509 88.366 66.7145 87.8779 67.0172C87.6322 67.1659 87.3866 67.3147 87.1522 67.4815C86.915 67.641 86.677 67.8047 86.4516 67.9801C85.5356 68.6675 84.6813 69.4306 83.8829 70.246C83.0844 71.0614 82.3376 71.9282 81.6468 72.8363C80.951 73.7477 80.3237 74.6921 79.7519 75.7109C79.1946 76.7528 78.8384 77.8751 78.5644 78.9869C78.2874 80.1025 78.0816 81.2186 77.817 82.306C77.2665 84.4804 76.5895 86.6399 75.612 88.6481C75.3669 89.1489 75.102 89.6409 74.8166 90.1172C74.5334 90.5939 74.2155 91.0608 73.9079 91.5299C73.285 92.4642 72.6415 93.3939 72.0604 94.3752C71.4765 95.3493 70.971 96.3917 70.6456 97.5009L70.582 97.708L70.5328 97.9184L70.4343 98.339C70.3867 98.6228 70.3346 98.9077 70.3035 99.1951C70.2852 99.4832 70.2433 99.7704 70.2486 100.059L70.2384 100.907C70.1844 102.01 69.7544 103.063 69.4109 104.146C69.2408 104.69 69.0947 105.253 69.0312 105.834C68.9713 106.418 69.0133 107.001 69.0887 107.569C69.162 108.136 69.2612 108.694 69.3157 109.249C69.3727 109.801 69.3597 110.359 69.3011 110.916C69.1869 112.029 68.8271 113.097 68.3732 114.12C67.9111 115.141 67.3618 116.125 66.7844 117.089C66.2085 118.056 65.5872 118.993 64.9985 119.96C64.4098 120.926 64.5673 120.873 64.333 120.394C64.0578 119.832 63.575 119.848 63.3295 119.786C62.645 119.671 62.5041 119.681 62.1551 119.477L61.5303 119.095C61.5303 119.095 61.4751 119.063 61.4778 119.012C61.4794 118.983 61.4877 118.941 61.4909 118.912C61.5006 118.824 61.5026 118.808 61.5114 118.725C61.5222 118.622 61.5249 118.552 61.5281 118.437C61.5308 118.34 61.5235 118.444 61.5516 117.735C61.5813 117.029 61.5858 116.32 61.5298 115.61C61.4759 114.901 61.3429 114.198 61.1519 113.514C60.963 112.83 60.7178 112.166 60.4555 111.513C60.1962 110.855 59.8946 110.223 59.6717 109.567C59.4421 108.911 59.2688 108.235 59.1454 107.548C59.022 106.861 58.9484 106.163 58.8687 105.463C58.7159 104.063 58.4929 102.648 57.9895 101.312L57.8875 101.061C57.8558 100.976 57.8196 100.893 57.7733 100.816L57.5128 100.346C57.4198 100.195 57.3117 100.054 57.2116 99.9051C57.1598 99.8338 57.1115 99.7566 57.0547 99.6886L56.8844 99.4845C56.4381 98.9333 55.9185 98.4521 55.376 98.0077C54.8364 97.5596 54.2603 97.1609 53.6667 96.7937C53.0731 96.4265 52.467 96.0875 51.8274 95.7942L51.9089 95.9894C52.6416 93.984 53.4463 92.0058 54.3101 90.0541C55.1772 88.1075 56.0782 86.164 57.092 84.2989C58.1234 82.4532 59.3706 80.7199 60.9429 79.3868C62.5095 78.0501 64.3899 77.1665 66.3825 76.7396C67.3758 76.5298 68.3934 76.4185 69.4023 76.4801C69.9084 76.4979 70.4054 76.589 70.8992 76.6949C71.1405 76.7687 71.3889 76.8198 71.6228 76.9185L71.9766 77.0529L72.3199 77.2159C72.4366 77.2663 72.5465 77.3285 72.6555 77.3949L72.9838 77.5877L73.293 77.8095L73.4488 77.9195L73.5903 78.0463L73.8737 78.2978C73.9629 78.3863 74.0431 78.4861 74.1268 78.58C74.3062 78.7618 74.4285 78.9883 74.5744 79.1957C74.637 79.3071 74.6901 79.423 74.7477 79.5377L74.8342 79.7097L74.8993 79.8902C74.9403 80.0123 74.9883 80.1314 75.0247 80.2547L75.1104 80.6324C75.1964 81.1407 75.2274 81.6634 75.1538 82.1803C75.1393 82.4405 75.0642 82.6915 75.0142 82.9459C74.9291 83.1925 74.8704 83.4472 74.7595 83.6836C74.5754 84.1715 74.3014 84.6149 74.0095 85.0411C73.8478 85.2418 73.7004 85.4567 73.5171 85.6371C73.4281 85.7301 73.3449 85.8266 73.2502 85.9161L72.9618 86.1837C72.774 86.3653 72.5719 86.5326 72.3739 86.7009C72.1771 86.8738 71.9686 87.0309 71.7617 87.1905C70.0969 88.4609 68.2252 89.4151 66.3299 90.2976C65.3801 90.7384 64.418 91.1565 63.454 91.583L60.5768 92.8748C58.6707 93.7372 56.7445 94.5419 54.7498 95.0193C53.7532 95.2549 52.7476 95.4309 51.7331 95.4765C50.7318 95.5517 49.7515 95.3969 48.7963 95.0839C47.8448 94.774 46.9324 94.3112 46.1125 93.7186C45.2946 93.1265 44.557 92.4017 44.0343 91.5502C43.7767 91.1274 43.5769 90.6667 43.4956 90.197C43.4073 89.7302 43.4636 89.2537 43.6205 88.7819C43.7733 88.3091 44.0172 87.8546 44.2903 87.4154C44.5638 86.974 44.869 86.5464 45.1808 86.1181C45.8008 85.2584 46.4645 84.4062 46.9613 83.4149C47.2031 82.92 47.4145 82.3852 47.4739 81.8031C47.5071 81.5161 47.5077 81.2196 47.4421 80.9195C47.3802 80.6223 47.2422 80.3171 47.0093 80.0924C46.7789 79.8661 46.4773 79.7301 46.182 79.6863C45.8856 79.6378 45.5916 79.6584 45.3127 79.7201C44.756 79.8481 44.2316 80.1183 43.8333 80.5671C43.6385 80.7914 43.4778 81.0787 43.432 81.4049C43.3898 81.7341 43.4887 82.0704 43.6544 82.3266C43.8146 82.5881 44.0741 82.8099 44.3546 82.9234C44.6357 83.0438 44.928 83.0714 45.2078 83.0764C45.7709 83.0804 46.3023 82.949 46.8168 82.7961C47.3301 82.6385 47.8268 82.4374 48.3117 82.2204C49.2809 81.7795 50.2087 81.2696 51.1135 80.6949C51.2106 80.6347 51.4527 80.4565 51.3919 80.3566C51.3617 80.3056 51.1756 80.2609 51.122 80.2489L51.0279 80.2279C50.4091 80.0897 49.819 79.9874 49.2238 79.7593C48.926 79.6463 48.6329 79.5211 48.3438 79.3879C48.0582 79.2577 47.7914 79.1007 47.5337 78.9214C47.0141 78.5619 46.5477 78.1146 46.0136 77.712C45.7445 77.5147 45.4611 77.3341 45.1547 77.1904C44.8525 77.0476 44.515 76.928 44.1502 76.9262C43.9689 76.9255 43.7741 76.9573 43.5972 77.0572C43.4187 77.1545 43.2769 77.3331 43.2107 77.522C43.1403 77.7099 43.1286 77.9065 43.1392 78.0793C43.1428 78.2549 43.1638 78.43 43.2021 78.6046C43.2451 78.778 43.3004 78.9541 43.3998 79.1158C43.4906 79.2777 43.6319 79.4354 43.8397 79.515C43.8885 79.5392 43.9451 79.5474 44.0026 79.5514C44.0303 79.5532 44.0601 79.5554 44.0883 79.555L44.1718 79.5383L44.2541 79.5168C44.2784 79.5045 44.3026 79.4922 44.3273 79.4778C44.3741 79.4507 44.4251 79.4244 44.4573 79.3851C44.6187 79.2464 44.6909 79.0699 44.7634 78.9024C44.7926 78.816 44.8132 78.7298 44.8379 78.6446C44.8564 78.558 44.8661 78.4716 44.8805 78.3841C44.9042 78.2123 44.9165 78.0535 44.9343 77.8893L45.04 76.908L45.2519 74.9435C45.2697 74.7792 45.2833 74.6141 45.3162 74.4598C45.3414 74.3017 45.3727 74.1449 45.4122 73.9899C45.4835 73.6761 45.5791 73.3699 45.7034 73.0811C45.8257 72.7919 45.9795 72.5164 46.1773 72.2884C46.3746 72.0624 46.6163 71.8818 46.8855 71.8047C47.1543 71.7297 47.447 71.7553 47.6952 71.8882C47.9448 72.0147 48.145 72.241 48.232 72.5016C48.323 72.7632 48.2784 73.0432 48.1231 73.2852C48.0513 73.4086 47.9528 73.5061 47.8461 73.5907C47.7293 73.662 47.6061 73.723 47.467 73.7473C47.1889 73.8047 46.8827 73.7717 46.5875 73.6969C46.2903 73.6217 45.9975 73.5054 45.7154 73.3693C45.1509 73.0883 44.618 72.7302 44.1207 72.327C43.6259 71.9221 43.1596 71.4749 42.765 70.9751C42.5698 70.7256 42.3889 70.4595 42.263 70.179C42.2 70.0388 42.1553 69.8938 42.1457 69.7566C42.1397 69.6225 42.1688 69.4763 42.2263 69.3386C42.3421 69.059 42.5239 68.7942 42.7274 68.5497C42.9308 68.3052 43.1556 68.0721 43.3868 67.8493C43.8513 67.4042 44.3505 66.9889 44.8545 66.5813C45.3573 66.1691 45.8807 65.7924 46.3645 65.3273L47.0484 64.6235C47.2778 64.3892 47.4908 64.1402 47.7128 63.8998C48.5866 62.9242 49.4022 61.8868 50.1085 60.7742C50.2901 60.5004 50.457 60.2146 50.6218 59.9282C50.7945 59.6459 50.9416 59.3512 51.1023 59.0639C51.179 58.9173 51.2651 58.7771 51.3438 58.6309C51.4226 58.4847 51.5009 58.3407 51.5854 58.198C51.7564 57.913 51.9118 57.6202 52.0693 57.3278C52.2309 57.0363 52.3764 56.739 52.5105 56.4348C52.6462 56.1331 52.7704 55.8244 52.8802 55.5125C53.1122 54.8915 53.3173 54.2644 53.5084 53.6321C53.8965 52.3708 54.2141 51.085 54.605 49.8311C54.7102 49.5204 54.8071 49.2078 54.9181 48.9006C55.0352 48.5948 55.1996 48.3106 55.3443 48.0175C55.4827 47.7231 55.6274 47.43 55.7753 47.1421C55.9256 46.8526 56.062 46.5577 56.2255 46.2777C56.8413 45.1338 57.5634 44.0489 58.389 43.0559C59.2132 42.0691 60.135 41.1418 61.1682 40.4209C62.2413 39.6757 63.3011 38.9518 64.4044 38.2775C65.5031 37.6044 66.6271 36.9746 67.7881 36.4349C68.9497 35.902 70.1483 35.4393 71.3847 35.2042C72.0016 35.0875 72.6263 35.0256 73.2401 35.0653C73.8543 35.1029 74.4568 35.2464 74.9915 35.5251C75.1218 35.603 75.2501 35.6803 75.3774 35.7619C75.4934 35.8564 75.6219 35.9426 75.7298 36.0442C75.8323 36.1512 75.9478 36.2478 76.0339 36.3711C76.0796 36.43 76.1279 36.4872 76.1732 36.5483L76.2941 36.7413C76.6175 37.2606 76.8131 37.8731 76.9633 38.4954C77.2674 39.743 77.3555 41.0818 77.7209 42.3763C78.0551 43.655 78.4264 44.9221 78.8123 46.1813L79.3972 48.0671L79.6909 49.0092C79.7877 49.3252 79.8961 49.6371 79.9637 49.9378C80.1045 50.5535 80.1587 51.2008 80.1459 51.8376C80.1249 52.4726 80.0338 53.1118 79.8088 53.6901C79.5868 54.2647 79.2275 54.7842 78.7151 55.0792C78.4607 55.2283 78.1819 55.3298 77.8869 55.3856C77.5906 55.4279 77.287 55.453 76.9808 55.42C76.6759 55.4006 76.3693 55.3388 76.0671 55.2669C75.7662 55.1886 75.4668 55.0929 75.1551 54.9945C74.5387 54.7949 73.9166 54.6117 73.2884 54.447C72.0341 54.1181 70.7571 53.855 69.4691 53.7046C68.1808 53.5452 66.8861 53.4862 65.6009 53.4337C64.9583 53.4075 64.3162 53.3791 63.6758 53.3423C63.0389 53.2997 62.4072 53.2427 61.7871 53.1108C61.1682 52.9836 60.5581 52.8053 59.9841 52.5487C59.6956 52.4223 59.4212 52.2703 59.1596 52.099C59.029 52.0122 58.9039 51.9201 58.7868 51.8209C58.6688 51.7259 58.5532 51.6094 58.4709 51.5091L58.3735 51.8038C59.5486 51.4709 60.7931 51.4103 62.0216 51.4855C63.2518 51.5633 64.4775 51.7729 65.6784 52.0788C66.2799 52.2264 66.8743 52.4079 67.4639 52.6015C67.7582 52.7005 68.0496 52.8032 68.3367 52.916C68.4761 52.9715 68.6294 53.0323 68.7464 53.0916C68.8616 53.1594 68.9723 53.2483 69.0599 53.3542C69.2396 53.5648 69.3268 53.8344 69.2636 54.0902C69.2081 54.3501 69.0198 54.5847 68.801 54.7793C68.3545 55.1709 67.7863 55.4335 67.2188 55.6631C66.6459 55.8871 66.0504 56.0551 65.4483 56.2238C64.8487 56.3909 64.2473 56.5465 63.6411 56.6833C62.4326 56.9601 61.2025 57.1656 59.9759 57.2435C59.6705 57.2572 59.3627 57.2615 59.0663 57.2329C58.9184 57.2176 58.7718 57.1959 58.6374 57.157C58.5027 57.1203 58.3775 57.0591 58.3174 56.986C58.2611 56.9158 58.257 56.8441 58.3062 56.7046C58.3563 56.5608 58.4081 56.4197 58.477 56.289C58.6092 56.0241 58.7932 55.7997 59.0302 55.6711C59.2673 55.5426 59.5538 55.5158 59.8406 55.5489C60.1279 55.5799 60.4211 55.6741 60.7117 55.77C61.2897 55.9677 61.8486 56.2342 62.389 56.5364C62.927 56.8403 63.4633 57.1726 63.9673 57.5242C64.4757 57.8856 64.9939 58.2515 65.4717 58.6349C65.499 58.6587 65.5284 58.683 65.55 58.7033C65.5574 58.7094 65.5622 58.7171 65.5622 58.7171L65.5675 58.7227C65.5675 58.7227 65.559 58.7119 65.5557 58.7068C65.5699 58.752 65.4926 58.5975 65.572 58.509L65.5636 58.5182L65.5463 58.5387C65.5043 58.5935 65.455 58.6422 65.4037 58.6905C65.3009 58.7871 65.1819 58.869 65.0539 58.9422C64.8 59.0891 64.519 59.2012 64.2301 59.2893C63.6518 59.4678 63.0407 59.5571 62.43 59.6044C61.2059 59.7006 59.9627 59.6841 58.7463 59.512C58.4427 59.4663 58.141 59.4122 57.8479 59.3378C57.5593 59.2623 57.2565 59.1726 57.0413 59.0271C56.9905 58.9914 56.954 58.95 56.9452 58.9304C56.9397 58.9159 56.9358 58.9239 56.9597 58.8827C56.97 58.8651 56.9935 58.846 57.0129 58.826L57.0922 58.7684C57.1438 58.7291 57.2085 58.6992 57.2691 58.6685C57.5261 58.5577 57.8254 58.5117 58.123 58.4941C58.7261 58.4628 59.3425 58.5407 59.9476 58.6515C60.5548 58.7628 61.158 58.913 61.755 59.0818C62.0541 59.1685 62.3503 59.259 62.6451 59.3558L62.8644 59.4314C62.9311 59.4529 63.005 59.4916 63.0745 59.5204L63.4985 59.7103C64.0535 59.9847 64.5938 60.298 65.0913 60.6703C65.5887 61.0425 66.0429 61.476 66.4088 61.9783C66.7748 62.4805 67.0643 63.0476 67.1989 63.662C67.4949 64.8768 67.2546 66.2153 66.6577 67.2705L66.6509 67.2823C66.6052 67.365 66.6328 67.4686 66.7114 67.5149C66.7901 67.5613 66.8933 67.5334 66.9386 67.4528L66.9429 67.4427L66.9437 67.4495Z"/>
</mask>
<path d="M66.9437 67.4495C67.2333 66.8414 67.3913 66.2126 67.4775 65.5657C67.5184 65.2428 67.5232 64.9163 67.5086 64.5899C67.4936 64.2656 67.4483 63.9412 67.3644 63.6259C67.2093 62.9959 66.9186 62.4042 66.5464 61.8806C66.1716 61.3587 65.7083 60.9077 65.2028 60.5225C64.6973 60.1374 64.1505 59.8138 63.5874 59.5265L63.1574 59.3242C63.017 59.253 62.8607 59.1959 62.7158 59.1459C62.4203 59.0423 62.1218 58.9424 61.8216 58.851C61.2215 58.666 60.6148 58.5017 59.9975 58.3771C59.3793 58.2568 58.7521 58.1587 58.1071 58.174C57.7847 58.1861 57.4565 58.2257 57.135 58.3553C57.0556 58.3929 56.9747 58.4279 56.9009 58.48L56.789 58.5591C56.7515 58.5927 56.7141 58.6264 56.6781 58.6737C56.6425 58.7189 56.6104 58.7781 56.5946 58.8521C56.5789 58.926 56.5874 59.0076 56.6144 59.0734C56.6688 59.2029 56.7513 59.2722 56.8252 59.3307C57.13 59.5427 57.4378 59.6292 57.7493 59.7186C58.0601 59.8013 58.3717 59.8599 58.6851 59.91C59.3103 60.0076 59.9388 60.0594 60.5695 60.0808C61.1985 60.0995 61.8326 60.0951 62.4607 60.0273C63.0888 59.9596 63.7179 59.8566 64.3353 59.667C64.6434 59.5698 64.9478 59.4497 65.2348 59.2792C65.3783 59.1939 65.5179 59.0967 65.645 58.9768C65.7074 58.9177 65.7706 58.8544 65.8244 58.7845L65.8451 58.7581L65.8565 58.7452C65.9357 58.6478 65.8586 58.4823 65.8658 58.5193C65.8578 58.5064 65.8461 58.4905 65.8376 58.4798L65.8217 58.463C65.8111 58.4517 65.8006 58.4405 65.7932 58.4345C65.7574 58.3999 65.7259 58.3752 65.6949 58.3483C65.1884 57.9475 64.6766 57.5919 64.16 57.2286C63.6321 56.8672 63.0987 56.5422 62.5451 56.2305C61.9906 55.9229 61.4166 55.6464 60.8123 55.4406C60.5113 55.3424 60.2062 55.2432 59.8711 55.2038C59.5422 55.1657 59.1802 55.1911 58.8621 55.3657C58.5443 55.5382 58.3157 55.8302 58.1667 56.1334C58.087 56.2838 58.0276 56.4409 57.9743 56.5994C57.9457 56.6727 57.9184 56.7906 57.9231 56.9001C57.9285 57.0164 57.9786 57.136 58.0492 57.2204C58.1965 57.3905 58.3756 57.4527 58.5378 57.5022C58.7026 57.5501 58.8662 57.5733 59.027 57.5893C59.3511 57.6197 59.6696 57.6156 59.9858 57.6021C61.2472 57.5231 62.4848 57.3126 63.7092 57.0327C64.3203 56.8926 64.9268 56.7337 65.5305 56.5675C66.1326 56.3988 66.7398 56.2267 67.3314 55.9959C67.9182 55.7574 68.5103 55.4934 69.0154 55.0507C69.2615 54.829 69.4982 54.5499 69.5838 54.1795C69.6271 53.9966 69.6214 53.8006 69.5695 53.6185C69.5172 53.4386 69.4219 53.2779 69.3083 53.1419C69.1952 53.0037 69.0567 52.8931 68.9009 52.803C68.7392 52.7204 68.5994 52.667 68.4501 52.6071C68.1553 52.4903 67.8598 52.3867 67.5613 52.2869C66.9639 52.0892 66.3629 51.9085 65.754 51.7548C64.538 51.4389 63.2946 51.2209 62.0381 51.1351C60.7828 51.0539 59.5028 51.1088 58.2674 51.4504L58.2612 51.449C58.1642 51.4782 58.1082 51.5786 58.1347 51.6775C58.1421 51.7035 58.1545 51.7262 58.1695 51.7472C58.2943 51.9012 58.4108 52.0136 58.5447 52.1254C58.6744 52.2362 58.8105 52.3375 58.9505 52.4307C59.2305 52.6172 59.5221 52.7797 59.8261 52.914C60.4309 53.1886 61.0649 53.3766 61.706 53.511C62.3458 53.6517 63.0002 53.7138 63.6474 53.7587C64.2915 53.7986 64.9352 53.8295 65.579 53.8604C66.8649 53.9197 68.1458 53.9822 69.4137 54.1459C70.6835 54.3012 71.9369 54.5634 73.1734 54.8949C73.7928 55.0599 74.4058 55.2455 75.016 55.4438C75.3174 55.5399 75.6344 55.6439 75.9555 55.7289C76.2779 55.8075 76.6072 55.8744 76.9434 55.8986C77.279 55.936 77.6231 55.9132 77.9623 55.8628C78.3016 55.8014 78.6383 55.6818 78.942 55.504C79.5643 55.1494 79.9893 54.525 80.2407 53.884C80.4938 53.2345 80.5907 52.5479 80.617 51.8676C80.6347 51.1876 80.5786 50.5089 80.4296 49.8404C80.3515 49.4976 80.2427 49.1878 80.1496 48.8748L79.8584 47.9311L79.2796 46.0467C78.8999 44.7888 78.5339 43.5274 78.2061 42.259C77.856 41.0143 77.7763 39.6973 77.4626 38.3834C77.3058 37.7308 77.1016 37.0677 76.7344 36.47L76.5958 36.2487C76.5441 36.1774 76.4873 36.1094 76.4351 36.0402C76.3341 35.8959 76.1991 35.7794 76.075 35.6521C75.947 35.5328 75.8038 35.4344 75.6695 35.3247C75.5254 35.2305 75.3758 35.1418 75.2258 35.0551C74.611 34.7363 73.933 34.5827 73.2628 34.5436C72.5907 34.5042 71.9257 34.5725 71.2788 34.6981C69.98 34.9524 68.7538 35.4333 67.5695 35.981C66.388 36.536 65.2484 37.1779 64.142 37.867C63.0381 38.5544 61.96 39.303 60.9064 40.0481C59.8163 40.8228 58.8937 41.7742 58.0519 42.7925C56.3703 44.8404 55.1677 47.2455 54.2955 49.742C53.4459 52.2348 52.6649 54.7495 51.6354 57.1534C51.1201 58.353 50.5316 59.5208 49.8371 60.6184C49.1442 61.7185 48.3499 62.7474 47.4867 63.7143C47.2672 63.953 47.055 64.1978 46.8282 64.4304L46.1482 65.1262C45.6971 65.5589 45.1628 65.9464 44.6605 66.3565C44.1519 66.7653 43.6461 67.1813 43.1686 67.6368C42.9298 67.8645 42.6975 68.1026 42.4827 68.36C42.2678 68.6175 42.0675 68.8981 41.9271 69.2319C41.8592 69.3983 41.8145 69.5875 41.8213 69.7882C41.8327 69.9877 41.8906 70.1622 41.9623 70.3221C42.1054 70.644 42.298 70.9261 42.5029 71.191C42.9172 71.7195 43.3957 72.1805 43.9048 72.5997C44.4163 73.0172 44.9635 73.3895 45.5571 73.6859C45.8573 73.8282 46.1639 73.9608 46.4902 74.0515C46.815 74.1395 47.1664 74.1936 47.5262 74.1279C47.7072 74.0997 47.8837 74.0219 48.0473 73.9234C48.1209 73.8624 48.2017 73.8074 48.2647 73.7351C48.3235 73.6619 48.3963 73.5941 48.44 73.5109C48.5421 73.3566 48.6228 73.171 48.6548 72.9701C48.6885 72.7718 48.6594 72.5639 48.5972 72.3796C48.3346 71.6259 47.5103 71.2161 46.7582 71.3889C46.3832 71.4756 46.0598 71.7154 45.8313 71.9964C45.5961 72.2781 45.4312 72.5953 45.3022 72.9162C45.1686 73.2383 45.0783 73.5701 45.0137 73.9031C44.9786 74.0679 44.9491 74.2362 44.9279 74.4063C44.898 74.5767 44.891 74.7411 44.8778 74.9042C44.8258 75.5632 44.7803 76.2215 44.7159 76.8777L44.6246 77.8621C44.5866 78.1923 44.573 78.519 44.4695 78.8014C44.4125 78.9369 44.35 79.0779 44.2509 79.1576C44.155 79.2424 44.0452 79.271 43.9353 79.2287C43.8271 79.1891 43.7212 79.0879 43.6535 78.9599C43.5757 78.8385 43.5299 78.6889 43.4923 78.541C43.4618 78.3903 43.4409 78.2352 43.4378 78.0773C43.4281 77.9203 43.4402 77.7725 43.4902 77.6397C43.5376 77.5087 43.6206 77.4033 43.7381 77.3388C43.854 77.2717 43.9977 77.2462 44.1426 77.2454C44.4382 77.2473 44.7346 77.3467 45.0192 77.4811C45.3018 77.615 45.5721 77.7861 45.828 77.9738C46.339 78.3535 46.8138 78.8115 47.3559 79.1871C47.6268 79.376 47.9129 79.5439 48.2119 79.6815C48.5068 79.8183 48.8061 79.9449 49.1117 80.0618C49.7188 80.2948 50.6134 80.3426 51.2486 80.4845L51.1782 80.3918C50.2955 80.9538 49.1346 81.5034 48.181 81.9322C47.7036 82.1443 47.2174 82.3367 46.7203 82.4891C46.2246 82.6351 45.7128 82.7554 45.2065 82.7485C44.9548 82.7432 44.6989 82.717 44.4737 82.618C44.2456 82.5228 44.0596 82.3617 43.9275 82.1507C43.7949 81.9419 43.7263 81.6963 43.7561 81.4551C43.7902 81.2148 43.9142 80.988 44.0773 80.8009C44.4106 80.4238 44.8869 80.1761 45.375 80.066C45.6219 80.0127 45.8756 79.9985 46.1175 80.0393C46.3599 80.0779 46.5899 80.1847 46.7608 80.3556C46.9343 80.525 47.0404 80.7567 47.0916 81.0028C47.1448 81.2493 47.1448 81.5126 47.1138 81.7691C47.087 82.0265 47.0262 82.2807 46.9407 82.5294C46.8598 82.777 46.75 83.018 46.6329 83.253C46.1499 84.1898 45.4877 85.0246 44.8558 85.8795C44.5398 86.3069 44.221 86.7381 43.934 87.1919C43.6469 87.6457 43.3811 88.1219 43.201 88.6417C43.0177 89.1563 42.9381 89.7317 43.032 90.2838C43.1197 90.8346 43.336 91.3499 43.6098 91.8183C44.1657 92.757 44.9376 93.5337 45.7927 94.174C46.6503 94.8126 47.603 95.3198 48.6107 95.66C49.6164 95.9997 50.6941 96.174 51.7554 96.1012C52.8133 96.0542 53.8617 95.89 54.8881 95.6367C56.9433 95.1286 58.8954 94.2942 60.806 93.4107L63.6633 92.0702C64.6176 91.6282 65.5751 91.1914 66.5243 90.7328C68.4207 89.8151 70.297 88.8088 71.9848 87.5015C72.1952 87.336 72.4067 87.1752 72.6064 86.9985C72.8099 86.8248 73.0129 86.6533 73.2041 86.4658L73.4963 86.1902C73.5919 86.0965 73.6811 85.9925 73.7756 85.8941C73.9682 85.7002 74.122 85.4757 74.291 85.2611C74.5965 84.8114 74.881 84.3393 75.073 83.8245C75.1887 83.5759 75.2489 83.3038 75.3367 83.0445C75.3878 82.7748 75.4661 82.509 75.4842 82.232C75.6291 81.1378 75.4227 79.9894 74.8859 79.0219C74.7317 78.7926 74.6027 78.5469 74.4145 78.3455C74.3244 78.2413 74.2418 78.1321 74.1462 78.0333L73.8472 77.754L73.6976 77.6144L73.5358 77.4919L73.2121 77.2469L72.8688 77.033C72.755 76.9589 72.6399 76.8912 72.5178 76.8351L72.1571 76.6527L71.7833 76.5006C71.5368 76.3902 71.2753 76.3296 71.0213 76.2441C70.5018 76.117 69.9757 76.0106 69.445 75.9761C68.3829 75.8805 67.3153 75.9829 66.2753 76.1888C65.2355 76.4037 64.2209 76.7437 63.2612 77.211C62.3036 77.6788 61.4057 78.2817 60.6052 78.9948C58.9989 80.4266 57.7818 82.2419 56.7757 84.1309C55.786 86.0346 54.8827 87.9687 54.0154 89.9263C53.1523 91.8848 52.3479 93.872 51.6154 95.8863C51.5846 95.9701 51.6227 96.0649 51.7036 96.1007C52.3178 96.3818 52.9239 96.7208 53.5064 97.0789C54.0886 97.4391 54.6552 97.8312 55.1842 98.2681C55.7142 98.7008 56.2211 99.1704 56.6524 99.7005L56.8179 99.8969C56.8731 99.9623 56.9178 100.036 56.9679 100.105C57.0632 100.246 57.1681 100.382 57.2583 100.526L57.5069 100.971C57.552 101.044 57.585 101.122 57.6155 101.202L57.712 101.438L57.8085 101.674L57.8849 101.924C57.9337 102.089 57.9913 102.255 58.0331 102.424L58.163 102.928L58.2746 103.438C58.4118 104.122 58.5015 104.815 58.5817 105.512C58.6619 106.209 58.7382 106.915 58.8651 107.616C58.9899 108.317 59.1704 109.01 59.4055 109.68C59.5168 110.019 59.6614 110.344 59.7923 110.672C59.9313 110.993 60.0681 111.313 60.1974 111.639C60.459 112.286 60.6998 112.939 60.8857 113.607C61.0715 114.275 61.2025 114.957 61.2559 115.649C61.3134 116.341 61.309 117.039 61.2807 117.739C61.2549 118.437 61.2764 117.83 61.2565 118.54C61.2478 118.855 61.2812 119.252 61.2812 119.252C61.2812 119.252 61.7733 119.756 62.5996 119.987C63.6853 120.29 63.9381 119.959 64.428 121.261C65.6959 119.677 63.5995 121.844 68.4226 120.19L70.637 119.123L71.3519 118.746C71.3765 118.313 70.7754 118.714 70.2495 118.983C69.1355 119.553 69.4008 119.454 68.0478 120.034C67.5562 120.201 64.6693 121.097 65.2542 120.138C66.4385 118.234 67.7115 116.349 68.6567 114.27C69.1208 113.229 69.497 112.124 69.6161 110.969C69.6779 110.396 69.6901 109.813 69.6339 109.236C69.5794 108.661 69.4786 108.101 69.4096 107.543C69.3382 106.987 69.299 106.432 69.3569 105.887C69.4174 105.341 69.5564 104.801 69.7243 104.267C70.0617 103.203 70.5083 102.123 70.5724 100.942L70.586 100.088C70.581 99.8082 70.6247 99.5325 70.6428 99.2554C70.6737 98.979 70.7257 98.7051 70.7735 98.4303L70.8709 98.0249L70.9187 97.8209L70.9806 97.6222C71.3015 96.554 71.7953 95.5466 72.3755 94.5895C72.9521 93.6293 73.5959 92.7085 74.2275 91.7739C74.5417 91.3041 74.8591 90.8393 75.1575 90.3527C75.4533 89.8676 75.7303 89.3695 75.986 88.86C77.0046 86.8211 77.7149 84.647 78.2965 82.4485C78.5779 81.3427 78.7957 80.2316 79.078 79.1415C79.3579 78.0531 79.714 76.9817 80.2457 76.0093C81.3642 74.0791 82.7507 72.2905 84.3101 70.7044C85.8758 69.1286 87.6453 67.7222 89.6546 66.8319C90.6659 66.3961 91.7095 66.0117 92.7734 65.7646C93.3059 65.6489 93.8478 65.5597 94.3814 65.5704C94.9142 65.5743 95.4486 65.6826 95.8784 65.9668C96.3157 66.246 96.5923 66.7216 96.7465 67.2341C96.8902 67.7554 96.9315 68.3113 96.9148 68.8653C96.8935 69.4205 96.8271 69.9745 96.7071 70.5165C96.5871 71.0585 96.4036 71.5842 96.177 72.0891C95.7291 73.1045 95.0669 74.0102 94.3047 74.8071C93.5348 75.6002 92.647 76.2673 91.7224 76.8841C90.7993 77.5035 89.8467 78.0897 88.9329 78.7466C88.4758 79.0761 88.03 79.4236 87.6065 79.7982C87.1789 80.1719 86.7853 80.5886 86.4095 81.0027C86.0317 81.4163 85.658 81.8308 85.2468 82.1883C84.8381 82.5441 84.3791 82.8421 83.8755 82.9443C83.3721 83.0554 82.8488 82.9054 82.3866 82.6516C81.9204 82.3859 81.5016 82.04 81.2742 81.5665C80.7974 80.6322 81.2455 79.3424 82.1369 78.8509C82.3568 78.7318 82.6021 78.6759 82.8383 78.7132C83.0708 78.7474 83.2989 78.8736 83.4414 79.056C83.5877 79.2414 83.6616 79.4925 83.6835 79.7541C83.7075 80.0162 83.6899 80.2912 83.6537 80.562C83.4892 81.6562 83.1029 82.7275 82.743 83.7958C82.5598 84.3303 82.374 84.8665 82.2039 85.4106C82.0343 85.9725 81.9729 86.5941 82.1097 87.1779C82.2328 87.7654 82.5077 88.2894 82.7899 88.7796C83.0736 89.2723 83.3859 89.7427 83.6195 90.2376C83.8565 90.7265 84.0037 91.2618 84.0877 91.8096C84.1693 92.359 84.1963 92.9205 84.2142 93.4845C84.2509 94.6082 84.2264 95.7758 84.5517 96.9042C84.7122 97.458 84.9554 98.0191 85.3377 98.4653C85.7099 98.9181 86.1643 99.2896 86.6523 99.5845C87.6316 100.18 88.7149 100.53 89.8003 100.79C90.8902 101.049 91.9946 101.209 93.0985 101.332L94.7534 101.505C95.3107 101.556 95.8791 101.586 96.4398 101.541C97.0015 101.5 97.5593 101.428 98.1064 101.304C98.6558 101.19 99.1968 101.034 99.7279 100.854C100.791 100.492 101.815 100.023 102.793 99.4714C103.772 98.9222 104.71 98.295 105.595 97.5986C106.482 96.9048 107.319 96.1422 108.089 95.3114C108.862 94.4837 109.56 93.5816 110.158 92.6108C110.451 92.1207 110.723 91.617 110.952 91.0883C111.177 90.563 111.377 90.0279 111.554 89.4852C111.726 88.9395 111.875 88.3861 111.998 87.8272C112.116 87.2669 112.208 86.7011 112.272 86.1309C112.329 85.5594 112.358 84.9861 112.355 84.4122C112.346 83.8369 112.305 83.2632 112.23 82.6931C112.055 81.5564 111.789 80.4545 111.532 79.3502C111.008 77.1503 110.493 74.9371 110.544 72.6821C110.568 70.4233 110.806 68.1678 111.184 65.9394C111.372 64.8239 111.594 63.7158 111.842 62.6116L112.226 60.9554C112.356 60.3979 112.445 59.8312 112.518 59.2633C112.642 58.1246 112.663 56.9651 112.494 55.825L112.427 55.3984C112.401 55.2576 112.368 55.1175 112.338 54.9757C112.284 54.6914 112.195 54.4193 112.119 54.141C111.939 53.5941 111.737 53.0531 111.463 52.547C111.208 52.0318 110.884 51.5545 110.543 51.0955C110.2 50.6492 109.851 50.2061 109.5 49.7669C108.797 48.8884 108.074 48.0252 107.347 47.1679C106.623 46.309 105.893 45.4597 105.199 44.5788C104.849 44.1421 104.518 43.6918 104.189 43.2377C103.863 42.7798 103.567 42.3173 103.245 41.8404C102.599 40.8993 101.823 40.0509 100.934 39.3435C100.049 38.6343 99.0585 38.0701 98.0248 37.6289C97.9397 37.5922 97.842 37.6346 97.8066 37.7196C97.7707 37.8068 97.812 37.9068 97.8951 37.943C98.9088 38.3664 99.8753 38.9099 100.743 39.5928C101.611 40.2736 102.373 41.0947 103.01 42.0093C103.323 42.4666 103.632 42.9517 103.958 43.4075C104.291 43.8646 104.626 44.318 104.977 44.7573C105.677 45.6416 106.409 46.4935 107.136 47.3508C107.863 48.206 108.585 49.0645 109.286 49.9404C109.978 50.8255 110.722 51.6733 111.22 52.672C111.485 53.1628 111.683 53.6896 111.86 54.2204C111.934 54.4914 112.022 54.7568 112.073 55.0338C112.102 55.1709 112.135 55.3067 112.16 55.445L112.224 55.8622C112.391 56.9751 112.373 58.111 112.253 59.2306C112.132 60.3524 111.826 61.4416 111.577 62.5501C111.324 63.6555 111.101 64.7699 110.907 65.8908C110.522 68.1289 110.278 70.3982 110.247 72.6777C110.219 73.8202 110.333 74.9656 110.515 76.0885C110.698 77.214 110.954 78.3225 111.207 79.4259C111.456 80.5283 111.719 81.6361 111.874 82.742C111.941 83.297 111.973 83.8553 111.977 84.414C111.974 84.9733 111.939 85.5321 111.877 86.087C111.811 86.641 111.712 87.1923 111.594 87.7369C111.469 88.2822 111.317 88.8194 111.144 89.3474C110.969 89.8769 110.759 90.3944 110.534 90.8998C110.306 91.4001 110.037 91.8822 109.747 92.3487C108.548 94.2012 106.944 95.764 105.183 97.0505C104.302 97.697 103.377 98.2739 102.418 98.7769C101.461 99.2824 100.467 99.7 99.4515 100.013C98.4405 100.336 97.4032 100.549 96.3762 100.603L95.992 100.622L95.6107 100.616C95.4828 100.618 95.3579 100.606 95.2306 100.595C95.1012 100.584 94.9853 100.58 94.8423 100.562L93.197 100.385C92.1117 100.266 91.0402 100.113 90.0031 99.8704C88.97 99.6286 87.9625 99.2973 87.1131 98.7822C86.6878 98.5278 86.3167 98.2214 86.0247 97.8684C85.7206 97.5216 85.5466 97.122 85.3985 96.6418C85.1119 95.6969 85.1123 94.6014 85.0703 93.4522C85.0484 92.8763 85.0178 92.2807 84.9212 91.6704C84.8242 91.0622 84.6508 90.4369 84.3599 89.8562C84.0779 89.2842 83.7593 88.8235 83.4818 88.352C83.205 87.8874 82.9713 87.4434 82.876 86.9994C82.7648 86.5585 82.8029 86.1066 82.9319 85.6441C83.0872 85.1188 83.2689 84.5817 83.4438 84.0453C83.6213 83.5073 83.8002 82.9629 83.9607 82.4034C84.1191 81.8434 84.269 81.2727 84.3485 80.6574C84.3862 80.3493 84.4075 80.0265 84.3713 79.6798C84.3582 79.5086 84.317 79.3268 84.2589 79.1434C84.1922 78.9603 84.1064 78.7751 83.9709 78.6099C83.8392 78.4476 83.6732 78.3043 83.4959 78.2138C83.3224 78.1153 83.1306 78.0525 82.9335 78.024C82.7354 77.9908 82.5351 78.008 82.346 78.0433C82.1598 78.0858 81.9835 78.1526 81.8242 78.241C81.1922 78.6001 80.7891 79.1829 80.5783 79.8263C80.3659 80.4672 80.3991 81.2227 80.7142 81.842C80.8686 82.151 81.0813 82.4198 81.3239 82.64C81.4424 82.7528 81.5728 82.8505 81.7013 82.9368L82.0946 83.1795C82.2324 83.2524 82.3817 83.3123 82.5255 83.3776C82.6697 83.4408 82.8365 83.4692 82.991 83.5148C83.1498 83.5502 83.3199 83.5528 83.4828 83.5693C83.6478 83.5553 83.8152 83.5506 83.9761 83.5157C84.6282 83.3758 85.1573 83.0027 85.5993 82.6123C86.0426 82.2155 86.4199 81.7841 86.7925 81.3649C87.1634 80.9431 87.5289 80.5467 87.9352 80.1815C88.3379 79.8133 88.7654 79.4705 89.2093 79.1425C90.0948 78.486 91.0413 77.8984 91.97 77.2625C92.8994 76.6335 93.813 75.9368 94.6064 75.1047C95.3936 74.2713 96.0769 73.3172 96.5402 72.2499C96.7727 71.7175 96.96 71.164 97.0838 70.594C97.2056 70.0236 97.2707 69.445 97.2887 68.8647C97.3001 68.2852 97.2557 67.6932 97.0914 67.1164C97.0012 66.8307 96.8814 66.5516 96.7132 66.2971C96.547 66.0431 96.3219 65.8224 96.0697 65.6576C95.5596 65.3245 94.962 65.2088 94.3901 65.1851C93.8126 65.1579 93.2442 65.219 92.6812 65.3058C92.1182 65.3925 91.5648 65.5256 91.0201 65.6784C90.4712 65.8302 89.9431 66.0066 89.4138 66.2293C88.8803 66.4509 88.366 66.7145 87.8779 67.0172C87.6322 67.1659 87.3866 67.3147 87.1522 67.4815C86.915 67.641 86.677 67.8047 86.4516 67.9801C85.5356 68.6675 84.6813 69.4306 83.8829 70.246C83.0844 71.0614 82.3376 71.9282 81.6468 72.8363C80.951 73.7477 80.3237 74.6921 79.7519 75.7109C79.1946 76.7528 78.8384 77.8751 78.5644 78.9869C78.2874 80.1025 78.0816 81.2186 77.817 82.306C77.2665 84.4804 76.5895 86.6399 75.612 88.6481C75.3669 89.1489 75.102 89.6409 74.8166 90.1172C74.5334 90.5939 74.2155 91.0608 73.9079 91.5299C73.285 92.4642 72.6415 93.3939 72.0604 94.3752C71.4765 95.3493 70.971 96.3917 70.6456 97.5009L70.582 97.708L70.5328 97.9184L70.4343 98.339C70.3867 98.6228 70.3346 98.9077 70.3035 99.1951C70.2852 99.4832 70.2433 99.7704 70.2486 100.059L70.2384 100.907C70.1844 102.01 69.7544 103.063 69.4109 104.146C69.2408 104.69 69.0947 105.253 69.0312 105.834C68.9713 106.418 69.0133 107.001 69.0887 107.569C69.162 108.136 69.2612 108.694 69.3157 109.249C69.3727 109.801 69.3597 110.359 69.3011 110.916C69.1869 112.029 68.8271 113.097 68.3732 114.12C67.9111 115.141 67.3618 116.125 66.7844 117.089C66.2085 118.056 65.5872 118.993 64.9985 119.96C64.4098 120.926 64.5673 120.873 64.333 120.394C64.0578 119.832 63.575 119.848 63.3295 119.786C62.645 119.671 62.5041 119.681 62.1551 119.477L61.5303 119.095C61.5303 119.095 61.4751 119.063 61.4778 119.012C61.4794 118.983 61.4877 118.941 61.4909 118.912C61.5006 118.824 61.5026 118.808 61.5114 118.725C61.5222 118.622 61.5249 118.552 61.5281 118.437C61.5308 118.34 61.5235 118.444 61.5516 117.735C61.5813 117.029 61.5858 116.32 61.5298 115.61C61.4759 114.901 61.3429 114.198 61.1519 113.514C60.963 112.83 60.7178 112.166 60.4555 111.513C60.1962 110.855 59.8946 110.223 59.6717 109.567C59.4421 108.911 59.2688 108.235 59.1454 107.548C59.022 106.861 58.9484 106.163 58.8687 105.463C58.7159 104.063 58.4929 102.648 57.9895 101.312L57.8875 101.061C57.8558 100.976 57.8196 100.893 57.7733 100.816L57.5128 100.346C57.4198 100.195 57.3117 100.054 57.2116 99.9051C57.1598 99.8338 57.1115 99.7566 57.0547 99.6886L56.8844 99.4845C56.4381 98.9333 55.9185 98.4521 55.376 98.0077C54.8364 97.5596 54.2603 97.1609 53.6667 96.7937C53.0731 96.4265 52.467 96.0875 51.8274 95.7942L51.9089 95.9894C52.6416 93.984 53.4463 92.0058 54.3101 90.0541C55.1772 88.1075 56.0782 86.164 57.092 84.2989C58.1234 82.4532 59.3706 80.7199 60.9429 79.3868C62.5095 78.0501 64.3899 77.1665 66.3825 76.7396C67.3758 76.5298 68.3934 76.4185 69.4023 76.4801C69.9084 76.4979 70.4054 76.589 70.8992 76.6949C71.1405 76.7687 71.3889 76.8198 71.6228 76.9185L71.9766 77.0529L72.3199 77.2159C72.4366 77.2663 72.5465 77.3285 72.6555 77.3949L72.9838 77.5877L73.293 77.8095L73.4488 77.9195L73.5903 78.0463L73.8737 78.2978C73.9629 78.3863 74.0431 78.4861 74.1268 78.58C74.3062 78.7618 74.4285 78.9883 74.5744 79.1957C74.637 79.3071 74.6901 79.423 74.7477 79.5377L74.8342 79.7097L74.8993 79.8902C74.9403 80.0123 74.9883 80.1314 75.0247 80.2547L75.1104 80.6324C75.1964 81.1407 75.2274 81.6634 75.1538 82.1803C75.1393 82.4405 75.0642 82.6915 75.0142 82.9459C74.9291 83.1925 74.8704 83.4472 74.7595 83.6836C74.5754 84.1715 74.3014 84.6149 74.0095 85.0411C73.8478 85.2418 73.7004 85.4567 73.5171 85.6371C73.4281 85.7301 73.3449 85.8266 73.2502 85.9161L72.9618 86.1837C72.774 86.3653 72.5719 86.5326 72.3739 86.7009C72.1771 86.8738 71.9686 87.0309 71.7617 87.1905C70.0969 88.4609 68.2252 89.4151 66.3299 90.2976C65.3801 90.7384 64.418 91.1565 63.454 91.583L60.5768 92.8748C58.6707 93.7372 56.7445 94.5419 54.7498 95.0193C53.7532 95.2549 52.7476 95.4309 51.7331 95.4765C50.7318 95.5517 49.7515 95.3969 48.7963 95.0839C47.8448 94.774 46.9324 94.3112 46.1125 93.7186C45.2946 93.1265 44.557 92.4017 44.0343 91.5502C43.7767 91.1274 43.5769 90.6667 43.4956 90.197C43.4073 89.7302 43.4636 89.2537 43.6205 88.7819C43.7733 88.3091 44.0172 87.8546 44.2903 87.4154C44.5638 86.974 44.869 86.5464 45.1808 86.1181C45.8008 85.2584 46.4645 84.4062 46.9613 83.4149C47.2031 82.92 47.4145 82.3852 47.4739 81.8031C47.5071 81.5161 47.5077 81.2196 47.4421 80.9195C47.3802 80.6223 47.2422 80.3171 47.0093 80.0924C46.7789 79.8661 46.4773 79.7301 46.182 79.6863C45.8856 79.6378 45.5916 79.6584 45.3127 79.7201C44.756 79.8481 44.2316 80.1183 43.8333 80.5671C43.6385 80.7914 43.4778 81.0787 43.432 81.4049C43.3898 81.7341 43.4887 82.0704 43.6544 82.3266C43.8146 82.5881 44.0741 82.8099 44.3546 82.9234C44.6357 83.0438 44.928 83.0714 45.2078 83.0764C45.7709 83.0804 46.3023 82.949 46.8168 82.7961C47.3301 82.6385 47.8268 82.4374 48.3117 82.2204C49.2809 81.7795 50.2087 81.2696 51.1135 80.6949C51.2106 80.6347 51.4527 80.4565 51.3919 80.3566C51.3617 80.3056 51.1756 80.2609 51.122 80.2489L51.0279 80.2279C50.4091 80.0897 49.819 79.9874 49.2238 79.7593C48.926 79.6463 48.6329 79.5211 48.3438 79.3879C48.0582 79.2577 47.7914 79.1007 47.5337 78.9214C47.0141 78.5619 46.5477 78.1146 46.0136 77.712C45.7445 77.5147 45.4611 77.3341 45.1547 77.1904C44.8525 77.0476 44.515 76.928 44.1502 76.9262C43.9689 76.9255 43.7741 76.9573 43.5972 77.0572C43.4187 77.1545 43.2769 77.3331 43.2107 77.522C43.1403 77.7099 43.1286 77.9065 43.1392 78.0793C43.1428 78.2549 43.1638 78.43 43.2021 78.6046C43.2451 78.778 43.3004 78.9541 43.3998 79.1158C43.4906 79.2777 43.6319 79.4354 43.8397 79.515C43.8885 79.5392 43.9451 79.5474 44.0026 79.5514C44.0303 79.5532 44.0601 79.5554 44.0883 79.555L44.1718 79.5383L44.2541 79.5168C44.2784 79.5045 44.3026 79.4922 44.3273 79.4778C44.3741 79.4507 44.4251 79.4244 44.4573 79.3851C44.6187 79.2464 44.6909 79.0699 44.7634 78.9024C44.7926 78.816 44.8132 78.7298 44.8379 78.6446C44.8564 78.558 44.8661 78.4716 44.8805 78.3841C44.9042 78.2123 44.9165 78.0535 44.9343 77.8893L45.04 76.908L45.2519 74.9435C45.2697 74.7792 45.2833 74.6141 45.3162 74.4598C45.3414 74.3017 45.3727 74.1449 45.4122 73.9899C45.4835 73.6761 45.5791 73.3699 45.7034 73.0811C45.8257 72.7919 45.9795 72.5164 46.1773 72.2884C46.3746 72.0624 46.6163 71.8818 46.8855 71.8047C47.1543 71.7297 47.447 71.7553 47.6952 71.8882C47.9448 72.0147 48.145 72.241 48.232 72.5016C48.323 72.7632 48.2784 73.0432 48.1231 73.2852C48.0513 73.4086 47.9528 73.5061 47.8461 73.5907C47.7293 73.662 47.6061 73.723 47.467 73.7473C47.1889 73.8047 46.8827 73.7717 46.5875 73.6969C46.2903 73.6217 45.9975 73.5054 45.7154 73.3693C45.1509 73.0883 44.618 72.7302 44.1207 72.327C43.6259 71.9221 43.1596 71.4749 42.765 70.9751C42.5698 70.7256 42.3889 70.4595 42.263 70.179C42.2 70.0388 42.1553 69.8938 42.1457 69.7566C42.1397 69.6225 42.1688 69.4763 42.2263 69.3386C42.3421 69.059 42.5239 68.7942 42.7274 68.5497C42.9308 68.3052 43.1556 68.0721 43.3868 67.8493C43.8513 67.4042 44.3505 66.9889 44.8545 66.5813C45.3573 66.1691 45.8807 65.7924 46.3645 65.3273L47.0484 64.6235C47.2778 64.3892 47.4908 64.1402 47.7128 63.8998C48.5866 62.9242 49.4022 61.8868 50.1085 60.7742C50.2901 60.5004 50.457 60.2146 50.6218 59.9282C50.7945 59.6459 50.9416 59.3512 51.1023 59.0639C51.179 58.9173 51.2651 58.7771 51.3438 58.6309C51.4226 58.4847 51.5009 58.3407 51.5854 58.198C51.7564 57.913 51.9118 57.6202 52.0693 57.3278C52.2309 57.0363 52.3764 56.739 52.5105 56.4348C52.6462 56.1331 52.7704 55.8244 52.8802 55.5125C53.1122 54.8915 53.3173 54.2644 53.5084 53.6321C53.8965 52.3708 54.2141 51.085 54.605 49.8311C54.7102 49.5204 54.8071 49.2078 54.9181 48.9006C55.0352 48.5948 55.1996 48.3106 55.3443 48.0175C55.4827 47.7231 55.6274 47.43 55.7753 47.1421C55.9256 46.8526 56.062 46.5577 56.2255 46.2777C56.8413 45.1338 57.5634 44.0489 58.389 43.0559C59.2132 42.0691 60.135 41.1418 61.1682 40.4209C62.2413 39.6757 63.3011 38.9518 64.4044 38.2775C65.5031 37.6044 66.6271 36.9746 67.7881 36.4349C68.9497 35.902 70.1483 35.4393 71.3847 35.2042C72.0016 35.0875 72.6263 35.0256 73.2401 35.0653C73.8543 35.1029 74.4568 35.2464 74.9915 35.5251C75.1218 35.603 75.2501 35.6803 75.3774 35.7619C75.4934 35.8564 75.6219 35.9426 75.7298 36.0442C75.8323 36.1512 75.9478 36.2478 76.0339 36.3711C76.0796 36.43 76.1279 36.4872 76.1732 36.5483L76.2941 36.7413C76.6175 37.2606 76.8131 37.8731 76.9633 38.4954C77.2674 39.743 77.3555 41.0818 77.7209 42.3763C78.0551 43.655 78.4264 44.9221 78.8123 46.1813L79.3972 48.0671L79.6909 49.0092C79.7877 49.3252 79.8961 49.6371 79.9637 49.9378C80.1045 50.5535 80.1587 51.2008 80.1459 51.8376C80.1249 52.4726 80.0338 53.1118 79.8088 53.6901C79.5868 54.2647 79.2275 54.7842 78.7151 55.0792C78.4607 55.2283 78.1819 55.3298 77.8869 55.3856C77.5906 55.4279 77.287 55.453 76.9808 55.42C76.6759 55.4006 76.3693 55.3388 76.0671 55.2669C75.7662 55.1886 75.4668 55.0929 75.1551 54.9945C74.5387 54.7949 73.9166 54.6117 73.2884 54.447C72.0341 54.1181 70.7571 53.855 69.4691 53.7046C68.1808 53.5452 66.8861 53.4862 65.6009 53.4337C64.9583 53.4075 64.3162 53.3791 63.6758 53.3423C63.0389 53.2997 62.4072 53.2427 61.7871 53.1108C61.1682 52.9836 60.5581 52.8053 59.9841 52.5487C59.6956 52.4223 59.4212 52.2703 59.1596 52.099C59.029 52.0122 58.9039 51.9201 58.7868 51.8209C58.6688 51.7259 58.5532 51.6094 58.4709 51.5091L58.3735 51.8038C59.5486 51.4709 60.7931 51.4103 62.0216 51.4855C63.2518 51.5633 64.4775 51.7729 65.6784 52.0788C66.2799 52.2264 66.8743 52.4079 67.4639 52.6015C67.7582 52.7005 68.0496 52.8032 68.3367 52.916C68.4761 52.9715 68.6294 53.0323 68.7464 53.0916C68.8616 53.1594 68.9723 53.2483 69.0599 53.3542C69.2396 53.5648 69.3268 53.8344 69.2636 54.0902C69.2081 54.3501 69.0198 54.5847 68.801 54.7793C68.3545 55.1709 67.7863 55.4335 67.2188 55.6631C66.6459 55.8871 66.0504 56.0551 65.4483 56.2238C64.8487 56.3909 64.2473 56.5465 63.6411 56.6833C62.4326 56.9601 61.2025 57.1656 59.9759 57.2435C59.6705 57.2572 59.3627 57.2615 59.0663 57.2329C58.9184 57.2176 58.7718 57.1959 58.6374 57.157C58.5027 57.1203 58.3775 57.0591 58.3174 56.986C58.2611 56.9158 58.257 56.8441 58.3062 56.7046C58.3563 56.5608 58.4081 56.4197 58.477 56.289C58.6092 56.0241 58.7932 55.7997 59.0302 55.6711C59.2673 55.5426 59.5538 55.5158 59.8406 55.5489C60.1279 55.5799 60.4211 55.6741 60.7117 55.77C61.2897 55.9677 61.8486 56.2342 62.389 56.5364C62.927 56.8403 63.4633 57.1726 63.9673 57.5242C64.4757 57.8856 64.9939 58.2515 65.4717 58.6349C65.499 58.6587 65.5284 58.683 65.55 58.7033C65.5574 58.7094 65.5622 58.7171 65.5622 58.7171L65.5675 58.7227C65.5675 58.7227 65.559 58.7119 65.5557 58.7068C65.5699 58.752 65.4926 58.5975 65.572 58.509L65.5636 58.5182L65.5463 58.5387C65.5043 58.5935 65.455 58.6422 65.4037 58.6905C65.3009 58.7871 65.1819 58.869 65.0539 58.9422C64.8 59.0891 64.519 59.2012 64.2301 59.2893C63.6518 59.4678 63.0407 59.5571 62.43 59.6044C61.2059 59.7006 59.9627 59.6841 58.7463 59.512C58.4427 59.4663 58.141 59.4122 57.8479 59.3378C57.5593 59.2623 57.2565 59.1726 57.0413 59.0271C56.9905 58.9914 56.954 58.95 56.9452 58.9304C56.9397 58.9159 56.9358 58.9239 56.9597 58.8827C56.97 58.8651 56.9935 58.846 57.0129 58.826L57.0922 58.7684C57.1438 58.7291 57.2085 58.6992 57.2691 58.6685C57.5261 58.5577 57.8254 58.5117 58.123 58.4941C58.7261 58.4628 59.3425 58.5407 59.9476 58.6515C60.5548 58.7628 61.158 58.913 61.755 59.0818C62.0541 59.1685 62.3503 59.259 62.6451 59.3558L62.8644 59.4314C62.9311 59.4529 63.005 59.4916 63.0745 59.5204L63.4985 59.7103C64.0535 59.9847 64.5938 60.298 65.0913 60.6703C65.5887 61.0425 66.0429 61.476 66.4088 61.9783C66.7748 62.4805 67.0643 63.0476 67.1989 63.662C67.4949 64.8768 67.2546 66.2153 66.6577 67.2705L66.6509 67.2823C66.6052 67.365 66.6328 67.4686 66.7114 67.5149C66.7901 67.5613 66.8933 67.5334 66.9386 67.4528L66.9429 67.4427L66.9437 67.4495Z" fill="#CBE2D1"/>
<path d="M66.9437 67.4495C67.2333 66.8414 67.3913 66.2126 67.4775 65.5657C67.5184 65.2428 67.5232 64.9163 67.5086 64.5899C67.4936 64.2656 67.4483 63.9412 67.3644 63.6259C67.2093 62.9959 66.9186 62.4042 66.5464 61.8806C66.1716 61.3587 65.7083 60.9077 65.2028 60.5225C64.6973 60.1374 64.1505 59.8138 63.5874 59.5265L63.1574 59.3242C63.017 59.253 62.8607 59.1959 62.7158 59.1459C62.4203 59.0423 62.1218 58.9424 61.8216 58.851C61.2215 58.666 60.6148 58.5017 59.9975 58.3771C59.3793 58.2568 58.7521 58.1587 58.1071 58.174C57.7847 58.1861 57.4565 58.2257 57.135 58.3553C57.0556 58.3929 56.9747 58.4279 56.9009 58.48L56.789 58.5591C56.7515 58.5927 56.7141 58.6264 56.6781 58.6737C56.6425 58.7189 56.6104 58.7781 56.5946 58.8521C56.5789 58.926 56.5874 59.0076 56.6144 59.0734C56.6688 59.2029 56.7513 59.2722 56.8252 59.3307C57.13 59.5427 57.4378 59.6292 57.7493 59.7186C58.0601 59.8013 58.3717 59.8599 58.6851 59.91C59.3103 60.0076 59.9388 60.0594 60.5695 60.0808C61.1985 60.0995 61.8326 60.0951 62.4607 60.0273C63.0888 59.9596 63.7179 59.8566 64.3353 59.667C64.6434 59.5698 64.9478 59.4497 65.2348 59.2792C65.3783 59.1939 65.5179 59.0967 65.645 58.9768C65.7074 58.9177 65.7706 58.8544 65.8244 58.7845L65.8451 58.7581L65.8565 58.7452C65.9357 58.6478 65.8586 58.4823 65.8658 58.5193C65.8578 58.5064 65.8461 58.4905 65.8376 58.4798L65.8217 58.463C65.8111 58.4517 65.8006 58.4405 65.7932 58.4345C65.7574 58.3999 65.7259 58.3752 65.6949 58.3483C65.1884 57.9475 64.6766 57.5919 64.16 57.2286C63.6321 56.8672 63.0987 56.5422 62.5451 56.2305C61.9906 55.9229 61.4166 55.6464 60.8123 55.4406C60.5113 55.3424 60.2062 55.2432 59.8711 55.2038C59.5422 55.1657 59.1802 55.1911 58.8621 55.3657C58.5443 55.5382 58.3157 55.8302 58.1667 56.1334C58.087 56.2838 58.0276 56.4409 57.9743 56.5994C57.9457 56.6727 57.9184 56.7906 57.9231 56.9001C57.9285 57.0164 57.9786 57.136 58.0492 57.2204C58.1965 57.3905 58.3756 57.4527 58.5378 57.5022C58.7026 57.5501 58.8662 57.5733 59.027 57.5893C59.3511 57.6197 59.6696 57.6156 59.9858 57.6021C61.2472 57.5231 62.4848 57.3126 63.7092 57.0327C64.3203 56.8926 64.9268 56.7337 65.5305 56.5675C66.1326 56.3988 66.7398 56.2267 67.3314 55.9959C67.9182 55.7574 68.5103 55.4934 69.0154 55.0507C69.2615 54.829 69.4982 54.5499 69.5838 54.1795C69.6271 53.9966 69.6214 53.8006 69.5695 53.6185C69.5172 53.4386 69.4219 53.2779 69.3083 53.1419C69.1952 53.0037 69.0567 52.8931 68.9009 52.803C68.7392 52.7204 68.5994 52.667 68.4501 52.6071C68.1553 52.4903 67.8598 52.3867 67.5613 52.2869C66.9639 52.0892 66.3629 51.9085 65.754 51.7548C64.538 51.4389 63.2946 51.2209 62.0381 51.1351C60.7828 51.0539 59.5028 51.1088 58.2674 51.4504L58.2612 51.449C58.1642 51.4782 58.1082 51.5786 58.1347 51.6775C58.1421 51.7035 58.1545 51.7262 58.1695 51.7472C58.2943 51.9012 58.4108 52.0136 58.5447 52.1254C58.6744 52.2362 58.8105 52.3375 58.9505 52.4307C59.2305 52.6172 59.5221 52.7797 59.8261 52.914C60.4309 53.1886 61.0649 53.3766 61.706 53.511C62.3458 53.6517 63.0002 53.7138 63.6474 53.7587C64.2915 53.7986 64.9352 53.8295 65.579 53.8604C66.8649 53.9197 68.1458 53.9822 69.4137 54.1459C70.6835 54.3012 71.9369 54.5634 73.1734 54.8949C73.7928 55.0599 74.4058 55.2455 75.016 55.4438C75.3174 55.5399 75.6344 55.6439 75.9555 55.7289C76.2779 55.8075 76.6072 55.8744 76.9434 55.8986C77.279 55.936 77.6231 55.9132 77.9623 55.8628C78.3016 55.8014 78.6383 55.6818 78.942 55.504C79.5643 55.1494 79.9893 54.525 80.2407 53.884C80.4938 53.2345 80.5907 52.5479 80.617 51.8676C80.6347 51.1876 80.5786 50.5089 80.4296 49.8404C80.3515 49.4976 80.2427 49.1878 80.1496 48.8748L79.8584 47.9311L79.2796 46.0467C78.8999 44.7888 78.5339 43.5274 78.2061 42.259C77.856 41.0143 77.7763 39.6973 77.4626 38.3834C77.3058 37.7308 77.1016 37.0677 76.7344 36.47L76.5958 36.2487C76.5441 36.1774 76.4873 36.1094 76.4351 36.0402C76.3341 35.8959 76.1991 35.7794 76.075 35.6521C75.947 35.5328 75.8038 35.4344 75.6695 35.3247C75.5254 35.2305 75.3758 35.1418 75.2258 35.0551C74.611 34.7363 73.933 34.5827 73.2628 34.5436C72.5907 34.5042 71.9257 34.5725 71.2788 34.6981C69.98 34.9524 68.7538 35.4333 67.5695 35.981C66.388 36.536 65.2484 37.1779 64.142 37.867C63.0381 38.5544 61.96 39.303 60.9064 40.0481C59.8163 40.8228 58.8937 41.7742 58.0519 42.7925C56.3703 44.8404 55.1677 47.2455 54.2955 49.742C53.4459 52.2348 52.6649 54.7495 51.6354 57.1534C51.1201 58.353 50.5316 59.5208 49.8371 60.6184C49.1442 61.7185 48.3499 62.7474 47.4867 63.7143C47.2672 63.953 47.055 64.1978 46.8282 64.4304L46.1482 65.1262C45.6971 65.5589 45.1628 65.9464 44.6605 66.3565C44.1519 66.7653 43.6461 67.1813 43.1686 67.6368C42.9298 67.8645 42.6975 68.1026 42.4827 68.36C42.2678 68.6175 42.0675 68.8981 41.9271 69.2319C41.8592 69.3983 41.8145 69.5875 41.8213 69.7882C41.8327 69.9877 41.8906 70.1622 41.9623 70.3221C42.1054 70.644 42.298 70.9261 42.5029 71.191C42.9172 71.7195 43.3957 72.1805 43.9048 72.5997C44.4163 73.0172 44.9635 73.3895 45.5571 73.6859C45.8573 73.8282 46.1639 73.9608 46.4902 74.0515C46.815 74.1395 47.1664 74.1936 47.5262 74.1279C47.7072 74.0997 47.8837 74.0219 48.0473 73.9234C48.1209 73.8624 48.2017 73.8074 48.2647 73.7351C48.3235 73.6619 48.3963 73.5941 48.44 73.5109C48.5421 73.3566 48.6228 73.171 48.6548 72.9701C48.6885 72.7718 48.6594 72.5639 48.5972 72.3796C48.3346 71.6259 47.5103 71.2161 46.7582 71.3889C46.3832 71.4756 46.0598 71.7154 45.8313 71.9964C45.5961 72.2781 45.4312 72.5953 45.3022 72.9162C45.1686 73.2383 45.0783 73.5701 45.0137 73.9031C44.9786 74.0679 44.9491 74.2362 44.9279 74.4063C44.898 74.5767 44.891 74.7411 44.8778 74.9042C44.8258 75.5632 44.7803 76.2215 44.7159 76.8777L44.6246 77.8621C44.5866 78.1923 44.573 78.519 44.4695 78.8014C44.4125 78.9369 44.35 79.0779 44.2509 79.1576C44.155 79.2424 44.0452 79.271 43.9353 79.2287C43.8271 79.1891 43.7212 79.0879 43.6535 78.9599C43.5757 78.8385 43.5299 78.6889 43.4923 78.541C43.4618 78.3903 43.4409 78.2352 43.4378 78.0773C43.4281 77.9203 43.4402 77.7725 43.4902 77.6397C43.5376 77.5087 43.6206 77.4033 43.7381 77.3388C43.854 77.2717 43.9977 77.2462 44.1426 77.2454C44.4382 77.2473 44.7346 77.3467 45.0192 77.4811C45.3018 77.615 45.5721 77.7861 45.828 77.9738C46.339 78.3535 46.8138 78.8115 47.3559 79.1871C47.6268 79.376 47.9129 79.5439 48.2119 79.6815C48.5068 79.8183 48.8061 79.9449 49.1117 80.0618C49.7188 80.2948 50.6134 80.3426 51.2486 80.4845L51.1782 80.3918C50.2955 80.9538 49.1346 81.5034 48.181 81.9322C47.7036 82.1443 47.2174 82.3367 46.7203 82.4891C46.2246 82.6351 45.7128 82.7554 45.2065 82.7485C44.9548 82.7432 44.6989 82.717 44.4737 82.618C44.2456 82.5228 44.0596 82.3617 43.9275 82.1507C43.7949 81.9419 43.7263 81.6963 43.7561 81.4551C43.7902 81.2148 43.9142 80.988 44.0773 80.8009C44.4106 80.4238 44.8869 80.1761 45.375 80.066C45.6219 80.0127 45.8756 79.9985 46.1175 80.0393C46.3599 80.0779 46.5899 80.1847 46.7608 80.3556C46.9343 80.525 47.0404 80.7567 47.0916 81.0028C47.1448 81.2493 47.1448 81.5126 47.1138 81.7691C47.087 82.0265 47.0262 82.2807 46.9407 82.5294C46.8598 82.777 46.75 83.018 46.6329 83.253C46.1499 84.1898 45.4877 85.0246 44.8558 85.8795C44.5398 86.3069 44.221 86.7381 43.934 87.1919C43.6469 87.6457 43.3811 88.1219 43.201 88.6417C43.0177 89.1563 42.9381 89.7317 43.032 90.2838C43.1197 90.8346 43.336 91.3499 43.6098 91.8183C44.1657 92.757 44.9376 93.5337 45.7927 94.174C46.6503 94.8126 47.603 95.3198 48.6107 95.66C49.6164 95.9997 50.6941 96.174 51.7554 96.1012C52.8133 96.0542 53.8617 95.89 54.8881 95.6367C56.9433 95.1286 58.8954 94.2942 60.806 93.4107L63.6633 92.0702C64.6176 91.6282 65.5751 91.1914 66.5243 90.7328C68.4207 89.8151 70.297 88.8088 71.9848 87.5015C72.1952 87.336 72.4067 87.1752 72.6064 86.9985C72.8099 86.8248 73.0129 86.6533 73.2041 86.4658L73.4963 86.1902C73.5919 86.0965 73.6811 85.9925 73.7756 85.8941C73.9682 85.7002 74.122 85.4757 74.291 85.2611C74.5965 84.8114 74.881 84.3393 75.073 83.8245C75.1887 83.5759 75.2489 83.3038 75.3367 83.0445C75.3878 82.7748 75.4661 82.509 75.4842 82.232C75.6291 81.1378 75.4227 79.9894 74.8859 79.0219C74.7317 78.7926 74.6027 78.5469 74.4145 78.3455C74.3244 78.2413 74.2418 78.1321 74.1462 78.0333L73.8472 77.754L73.6976 77.6144L73.5358 77.4919L73.2121 77.2469L72.8688 77.033C72.755 76.9589 72.6399 76.8912 72.5178 76.8351L72.1571 76.6527L71.7833 76.5006C71.5368 76.3902 71.2753 76.3296 71.0213 76.2441C70.5018 76.117 69.9757 76.0106 69.445 75.9761C68.3829 75.8805 67.3153 75.9829 66.2753 76.1888C65.2355 76.4037 64.2209 76.7437 63.2612 77.211C62.3036 77.6788 61.4057 78.2817 60.6052 78.9948C58.9989 80.4266 57.7818 82.2419 56.7757 84.1309C55.786 86.0346 54.8827 87.9687 54.0154 89.9263C53.1523 91.8848 52.3479 93.872 51.6154 95.8863C51.5846 95.9701 51.6227 96.0649 51.7036 96.1007C52.3178 96.3818 52.9239 96.7208 53.5064 97.0789C54.0886 97.4391 54.6552 97.8312 55.1842 98.2681C55.7142 98.7008 56.2211 99.1704 56.6524 99.7005L56.8179 99.8969C56.8731 99.9623 56.9178 100.036 56.9679 100.105C57.0632 100.246 57.1681 100.382 57.2583 100.526L57.5069 100.971C57.552 101.044 57.585 101.122 57.6155 101.202L57.712 101.438L57.8085 101.674L57.8849 101.924C57.9337 102.089 57.9913 102.255 58.0331 102.424L58.163 102.928L58.2746 103.438C58.4118 104.122 58.5015 104.815 58.5817 105.512C58.6619 106.209 58.7382 106.915 58.8651 107.616C58.9899 108.317 59.1704 109.01 59.4055 109.68C59.5168 110.019 59.6614 110.344 59.7923 110.672C59.9313 110.993 60.0681 111.313 60.1974 111.639C60.459 112.286 60.6998 112.939 60.8857 113.607C61.0715 114.275 61.2025 114.957 61.2559 115.649C61.3134 116.341 61.309 117.039 61.2807 117.739C61.2549 118.437 61.2764 117.83 61.2565 118.54C61.2478 118.855 61.2812 119.252 61.2812 119.252C61.2812 119.252 61.7733 119.756 62.5996 119.987C63.6853 120.29 63.9381 119.959 64.428 121.261C65.6959 119.677 63.5995 121.844 68.4226 120.19L70.637 119.123L71.3519 118.746C71.3765 118.313 70.7754 118.714 70.2495 118.983C69.1355 119.553 69.4008 119.454 68.0478 120.034C67.5562 120.201 64.6693 121.097 65.2542 120.138C66.4385 118.234 67.7115 116.349 68.6567 114.27C69.1208 113.229 69.497 112.124 69.6161 110.969C69.6779 110.396 69.6901 109.813 69.6339 109.236C69.5794 108.661 69.4786 108.101 69.4096 107.543C69.3382 106.987 69.299 106.432 69.3569 105.887C69.4174 105.341 69.5564 104.801 69.7243 104.267C70.0617 103.203 70.5083 102.123 70.5724 100.942L70.586 100.088C70.581 99.8082 70.6247 99.5325 70.6428 99.2554C70.6737 98.979 70.7257 98.7051 70.7735 98.4303L70.8709 98.0249L70.9187 97.8209L70.9806 97.6222C71.3015 96.554 71.7953 95.5466 72.3755 94.5895C72.9521 93.6293 73.5959 92.7085 74.2275 91.7739C74.5417 91.3041 74.8591 90.8393 75.1575 90.3527C75.4533 89.8676 75.7303 89.3695 75.986 88.86C77.0046 86.8211 77.7149 84.647 78.2965 82.4485C78.5779 81.3427 78.7957 80.2316 79.078 79.1415C79.3579 78.0531 79.714 76.9817 80.2457 76.0093C81.3642 74.0791 82.7507 72.2905 84.3101 70.7044C85.8758 69.1286 87.6453 67.7222 89.6546 66.8319C90.6659 66.3961 91.7095 66.0117 92.7734 65.7646C93.3059 65.6489 93.8478 65.5597 94.3814 65.5704C94.9142 65.5743 95.4486 65.6826 95.8784 65.9668C96.3157 66.246 96.5923 66.7216 96.7465 67.2341C96.8902 67.7554 96.9315 68.3113 96.9148 68.8653C96.8935 69.4205 96.8271 69.9745 96.7071 70.5165C96.5871 71.0585 96.4036 71.5842 96.177 72.0891C95.7291 73.1045 95.0669 74.0102 94.3047 74.8071C93.5348 75.6002 92.647 76.2673 91.7224 76.8841C90.7993 77.5035 89.8467 78.0897 88.9329 78.7466C88.4758 79.0761 88.03 79.4236 87.6065 79.7982C87.1789 80.1719 86.7853 80.5886 86.4095 81.0027C86.0317 81.4163 85.658 81.8308 85.2468 82.1883C84.8381 82.5441 84.3791 82.8421 83.8755 82.9443C83.3721 83.0554 82.8488 82.9054 82.3866 82.6516C81.9204 82.3859 81.5016 82.04 81.2742 81.5665C80.7974 80.6322 81.2455 79.3424 82.1369 78.8509C82.3568 78.7318 82.6021 78.6759 82.8383 78.7132C83.0708 78.7474 83.2989 78.8736 83.4414 79.056C83.5877 79.2414 83.6616 79.4925 83.6835 79.7541C83.7075 80.0162 83.6899 80.2912 83.6537 80.562C83.4892 81.6562 83.1029 82.7275 82.743 83.7958C82.5598 84.3303 82.374 84.8665 82.2039 85.4106C82.0343 85.9725 81.9729 86.5941 82.1097 87.1779C82.2328 87.7654 82.5077 88.2894 82.7899 88.7796C83.0736 89.2723 83.3859 89.7427 83.6195 90.2376C83.8565 90.7265 84.0037 91.2618 84.0877 91.8096C84.1693 92.359 84.1963 92.9205 84.2142 93.4845C84.2509 94.6082 84.2264 95.7758 84.5517 96.9042C84.7122 97.458 84.9554 98.0191 85.3377 98.4653C85.7099 98.9181 86.1643 99.2896 86.6523 99.5845C87.6316 100.18 88.7149 100.53 89.8003 100.79C90.8902 101.049 91.9946 101.209 93.0985 101.332L94.7534 101.505C95.3107 101.556 95.8791 101.586 96.4398 101.541C97.0015 101.5 97.5593 101.428 98.1064 101.304C98.6558 101.19 99.1968 101.034 99.7279 100.854C100.791 100.492 101.815 100.023 102.793 99.4714C103.772 98.9222 104.71 98.295 105.595 97.5986C106.482 96.9048 107.319 96.1422 108.089 95.3114C108.862 94.4837 109.56 93.5816 110.158 92.6108C110.451 92.1207 110.723 91.617 110.952 91.0883C111.177 90.563 111.377 90.0279 111.554 89.4852C111.726 88.9395 111.875 88.3861 111.998 87.8272C112.116 87.2669 112.208 86.7011 112.272 86.1309C112.329 85.5594 112.358 84.9861 112.355 84.4122C112.346 83.8369 112.305 83.2632 112.23 82.6931C112.055 81.5564 111.789 80.4545 111.532 79.3502C111.008 77.1503 110.493 74.9371 110.544 72.6821C110.568 70.4233 110.806 68.1678 111.184 65.9394C111.372 64.8239 111.594 63.7158 111.842 62.6116L112.226 60.9554C112.356 60.3979 112.445 59.8312 112.518 59.2633C112.642 58.1246 112.663 56.9651 112.494 55.825L112.427 55.3984C112.401 55.2576 112.368 55.1175 112.338 54.9757C112.284 54.6914 112.195 54.4193 112.119 54.141C111.939 53.5941 111.737 53.0531 111.463 52.547C111.208 52.0318 110.884 51.5545 110.543 51.0955C110.2 50.6492 109.851 50.2061 109.5 49.7669C108.797 48.8884 108.074 48.0252 107.347 47.1679C106.623 46.309 105.893 45.4597 105.199 44.5788C104.849 44.1421 104.518 43.6918 104.189 43.2377C103.863 42.7798 103.567 42.3173 103.245 41.8404C102.599 40.8993 101.823 40.0509 100.934 39.3435C100.049 38.6343 99.0585 38.0701 98.0248 37.6289C97.9397 37.5922 97.842 37.6346 97.8066 37.7196C97.7707 37.8068 97.812 37.9068 97.8951 37.943C98.9088 38.3664 99.8753 38.9099 100.743 39.5928C101.611 40.2736 102.373 41.0947 103.01 42.0093C103.323 42.4666 103.632 42.9517 103.958 43.4075C104.291 43.8646 104.626 44.318 104.977 44.7573C105.677 45.6416 106.409 46.4935 107.136 47.3508C107.863 48.206 108.585 49.0645 109.286 49.9404C109.978 50.8255 110.722 51.6733 111.22 52.672C111.485 53.1628 111.683 53.6896 111.86 54.2204C111.934 54.4914 112.022 54.7568 112.073 55.0338C112.102 55.1709 112.135 55.3067 112.16 55.445L112.224 55.8622C112.391 56.9751 112.373 58.111 112.253 59.2306C112.132 60.3524 111.826 61.4416 111.577 62.5501C111.324 63.6555 111.101 64.7699 110.907 65.8908C110.522 68.1289 110.278 70.3982 110.247 72.6777C110.219 73.8202 110.333 74.9656 110.515 76.0885C110.698 77.214 110.954 78.3225 111.207 79.4259C111.456 80.5283 111.719 81.6361 111.874 82.742C111.941 83.297 111.973 83.8553 111.977 84.414C111.974 84.9733 111.939 85.5321 111.877 86.087C111.811 86.641 111.712 87.1923 111.594 87.7369C111.469 88.2822 111.317 88.8194 111.144 89.3474C110.969 89.8769 110.759 90.3944 110.534 90.8998C110.306 91.4001 110.037 91.8822 109.747 92.3487C108.548 94.2012 106.944 95.764 105.183 97.0505C104.302 97.697 103.377 98.2739 102.418 98.7769C101.461 99.2824 100.467 99.7 99.4515 100.013C98.4405 100.336 97.4032 100.549 96.3762 100.603L95.992 100.622L95.6107 100.616C95.4828 100.618 95.3579 100.606 95.2306 100.595C95.1012 100.584 94.9853 100.58 94.8423 100.562L93.197 100.385C92.1117 100.266 91.0402 100.113 90.0031 99.8704C88.97 99.6286 87.9625 99.2973 87.1131 98.7822C86.6878 98.5278 86.3167 98.2214 86.0247 97.8684C85.7206 97.5216 85.5466 97.122 85.3985 96.6418C85.1119 95.6969 85.1123 94.6014 85.0703 93.4522C85.0484 92.8763 85.0178 92.2807 84.9212 91.6704C84.8242 91.0622 84.6508 90.4369 84.3599 89.8562C84.0779 89.2842 83.7593 88.8235 83.4818 88.352C83.205 87.8874 82.9713 87.4434 82.876 86.9994C82.7648 86.5585 82.8029 86.1066 82.9319 85.6441C83.0872 85.1188 83.2689 84.5817 83.4438 84.0453C83.6213 83.5073 83.8002 82.9629 83.9607 82.4034C84.1191 81.8434 84.269 81.2727 84.3485 80.6574C84.3862 80.3493 84.4075 80.0265 84.3713 79.6798C84.3582 79.5086 84.317 79.3268 84.2589 79.1434C84.1922 78.9603 84.1064 78.7751 83.9709 78.6099C83.8392 78.4476 83.6732 78.3043 83.4959 78.2138C83.3224 78.1153 83.1306 78.0525 82.9335 78.024C82.7354 77.9908 82.5351 78.008 82.346 78.0433C82.1598 78.0858 81.9835 78.1526 81.8242 78.241C81.1922 78.6001 80.7891 79.1829 80.5783 79.8263C80.3659 80.4672 80.3991 81.2227 80.7142 81.842C80.8686 82.151 81.0813 82.4198 81.3239 82.64C81.4424 82.7528 81.5728 82.8505 81.7013 82.9368L82.0946 83.1795C82.2324 83.2524 82.3817 83.3123 82.5255 83.3776C82.6697 83.4408 82.8365 83.4692 82.991 83.5148C83.1498 83.5502 83.3199 83.5528 83.4828 83.5693C83.6478 83.5553 83.8152 83.5506 83.9761 83.5157C84.6282 83.3758 85.1573 83.0027 85.5993 82.6123C86.0426 82.2155 86.4199 81.7841 86.7925 81.3649C87.1634 80.9431 87.5289 80.5467 87.9352 80.1815C88.3379 79.8133 88.7654 79.4705 89.2093 79.1425C90.0948 78.486 91.0413 77.8984 91.97 77.2625C92.8994 76.6335 93.813 75.9368 94.6064 75.1047C95.3936 74.2713 96.0769 73.3172 96.5402 72.2499C96.7727 71.7175 96.96 71.164 97.0838 70.594C97.2056 70.0236 97.2707 69.445 97.2887 68.8647C97.3001 68.2852 97.2557 67.6932 97.0914 67.1164C97.0012 66.8307 96.8814 66.5516 96.7132 66.2971C96.547 66.0431 96.3219 65.8224 96.0697 65.6576C95.5596 65.3245 94.962 65.2088 94.3901 65.1851C93.8126 65.1579 93.2442 65.219 92.6812 65.3058C92.1182 65.3925 91.5648 65.5256 91.0201 65.6784C90.4712 65.8302 89.9431 66.0066 89.4138 66.2293C88.8803 66.4509 88.366 66.7145 87.8779 67.0172C87.6322 67.1659 87.3866 67.3147 87.1522 67.4815C86.915 67.641 86.677 67.8047 86.4516 67.9801C85.5356 68.6675 84.6813 69.4306 83.8829 70.246C83.0844 71.0614 82.3376 71.9282 81.6468 72.8363C80.951 73.7477 80.3237 74.6921 79.7519 75.7109C79.1946 76.7528 78.8384 77.8751 78.5644 78.9869C78.2874 80.1025 78.0816 81.2186 77.817 82.306C77.2665 84.4804 76.5895 86.6399 75.612 88.6481C75.3669 89.1489 75.102 89.6409 74.8166 90.1172C74.5334 90.5939 74.2155 91.0608 73.9079 91.5299C73.285 92.4642 72.6415 93.3939 72.0604 94.3752C71.4765 95.3493 70.971 96.3917 70.6456 97.5009L70.582 97.708L70.5328 97.9184L70.4343 98.339C70.3867 98.6228 70.3346 98.9077 70.3035 99.1951C70.2852 99.4832 70.2433 99.7704 70.2486 100.059L70.2384 100.907C70.1844 102.01 69.7544 103.063 69.4109 104.146C69.2408 104.69 69.0947 105.253 69.0312 105.834C68.9713 106.418 69.0133 107.001 69.0887 107.569C69.162 108.136 69.2612 108.694 69.3157 109.249C69.3727 109.801 69.3597 110.359 69.3011 110.916C69.1869 112.029 68.8271 113.097 68.3732 114.12C67.9111 115.141 67.3618 116.125 66.7844 117.089C66.2085 118.056 65.5872 118.993 64.9985 119.96C64.4098 120.926 64.5673 120.873 64.333 120.394C64.0578 119.832 63.575 119.848 63.3295 119.786C62.645 119.671 62.5041 119.681 62.1551 119.477L61.5303 119.095C61.5303 119.095 61.4751 119.063 61.4778 119.012C61.4794 118.983 61.4877 118.941 61.4909 118.912C61.5006 118.824 61.5026 118.808 61.5114 118.725C61.5222 118.622 61.5249 118.552 61.5281 118.437C61.5308 118.34 61.5235 118.444 61.5516 117.735C61.5813 117.029 61.5858 116.32 61.5298 115.61C61.4759 114.901 61.3429 114.198 61.1519 113.514C60.963 112.83 60.7178 112.166 60.4555 111.513C60.1962 110.855 59.8946 110.223 59.6717 109.567C59.4421 108.911 59.2688 108.235 59.1454 107.548C59.022 106.861 58.9484 106.163 58.8687 105.463C58.7159 104.063 58.4929 102.648 57.9895 101.312L57.8875 101.061C57.8558 100.976 57.8196 100.893 57.7733 100.816L57.5128 100.346C57.4198 100.195 57.3117 100.054 57.2116 99.9051C57.1598 99.8338 57.1115 99.7566 57.0547 99.6886L56.8844 99.4845C56.4381 98.9333 55.9185 98.4521 55.376 98.0077C54.8364 97.5596 54.2603 97.1609 53.6667 96.7937C53.0731 96.4265 52.467 96.0875 51.8274 95.7942L51.9089 95.9894C52.6416 93.984 53.4463 92.0058 54.3101 90.0541C55.1772 88.1075 56.0782 86.164 57.092 84.2989C58.1234 82.4532 59.3706 80.7199 60.9429 79.3868C62.5095 78.0501 64.3899 77.1665 66.3825 76.7396C67.3758 76.5298 68.3934 76.4185 69.4023 76.4801C69.9084 76.4979 70.4054 76.589 70.8992 76.6949C71.1405 76.7687 71.3889 76.8198 71.6228 76.9185L71.9766 77.0529L72.3199 77.2159C72.4366 77.2663 72.5465 77.3285 72.6555 77.3949L72.9838 77.5877L73.293 77.8095L73.4488 77.9195L73.5903 78.0463L73.8737 78.2978C73.9629 78.3863 74.0431 78.4861 74.1268 78.58C74.3062 78.7618 74.4285 78.9883 74.5744 79.1957C74.637 79.3071 74.6901 79.423 74.7477 79.5377L74.8342 79.7097L74.8993 79.8902C74.9403 80.0123 74.9883 80.1314 75.0247 80.2547L75.1104 80.6324C75.1964 81.1407 75.2274 81.6634 75.1538 82.1803C75.1393 82.4405 75.0642 82.6915 75.0142 82.9459C74.9291 83.1925 74.8704 83.4472 74.7595 83.6836C74.5754 84.1715 74.3014 84.6149 74.0095 85.0411C73.8478 85.2418 73.7004 85.4567 73.5171 85.6371C73.4281 85.7301 73.3449 85.8266 73.2502 85.9161L72.9618 86.1837C72.774 86.3653 72.5719 86.5326 72.3739 86.7009C72.1771 86.8738 71.9686 87.0309 71.7617 87.1905C70.0969 88.4609 68.2252 89.4151 66.3299 90.2976C65.3801 90.7384 64.418 91.1565 63.454 91.583L60.5768 92.8748C58.6707 93.7372 56.7445 94.5419 54.7498 95.0193C53.7532 95.2549 52.7476 95.4309 51.7331 95.4765C50.7318 95.5517 49.7515 95.3969 48.7963 95.0839C47.8448 94.774 46.9324 94.3112 46.1125 93.7186C45.2946 93.1265 44.557 92.4017 44.0343 91.5502C43.7767 91.1274 43.5769 90.6667 43.4956 90.197C43.4073 89.7302 43.4636 89.2537 43.6205 88.7819C43.7733 88.3091 44.0172 87.8546 44.2903 87.4154C44.5638 86.974 44.869 86.5464 45.1808 86.1181C45.8008 85.2584 46.4645 84.4062 46.9613 83.4149C47.2031 82.92 47.4145 82.3852 47.4739 81.8031C47.5071 81.5161 47.5077 81.2196 47.4421 80.9195C47.3802 80.6223 47.2422 80.3171 47.0093 80.0924C46.7789 79.8661 46.4773 79.7301 46.182 79.6863C45.8856 79.6378 45.5916 79.6584 45.3127 79.7201C44.756 79.8481 44.2316 80.1183 43.8333 80.5671C43.6385 80.7914 43.4778 81.0787 43.432 81.4049C43.3898 81.7341 43.4887 82.0704 43.6544 82.3266C43.8146 82.5881 44.0741 82.8099 44.3546 82.9234C44.6357 83.0438 44.928 83.0714 45.2078 83.0764C45.7709 83.0804 46.3023 82.949 46.8168 82.7961C47.3301 82.6385 47.8268 82.4374 48.3117 82.2204C49.2809 81.7795 50.2087 81.2696 51.1135 80.6949C51.2106 80.6347 51.4527 80.4565 51.3919 80.3566C51.3617 80.3056 51.1756 80.2609 51.122 80.2489L51.0279 80.2279C50.4091 80.0897 49.819 79.9874 49.2238 79.7593C48.926 79.6463 48.6329 79.5211 48.3438 79.3879C48.0582 79.2577 47.7914 79.1007 47.5337 78.9214C47.0141 78.5619 46.5477 78.1146 46.0136 77.712C45.7445 77.5147 45.4611 77.3341 45.1547 77.1904C44.8525 77.0476 44.515 76.928 44.1502 76.9262C43.9689 76.9255 43.7741 76.9573 43.5972 77.0572C43.4187 77.1545 43.2769 77.3331 43.2107 77.522C43.1403 77.7099 43.1286 77.9065 43.1392 78.0793C43.1428 78.2549 43.1638 78.43 43.2021 78.6046C43.2451 78.778 43.3004 78.9541 43.3998 79.1158C43.4906 79.2777 43.6319 79.4354 43.8397 79.515C43.8885 79.5392 43.9451 79.5474 44.0026 79.5514C44.0303 79.5532 44.0601 79.5554 44.0883 79.555L44.1718 79.5383L44.2541 79.5168C44.2784 79.5045 44.3026 79.4922 44.3273 79.4778C44.3741 79.4507 44.4251 79.4244 44.4573 79.3851C44.6187 79.2464 44.6909 79.0699 44.7634 78.9024C44.7926 78.816 44.8132 78.7298 44.8379 78.6446C44.8564 78.558 44.8661 78.4716 44.8805 78.3841C44.9042 78.2123 44.9165 78.0535 44.9343 77.8893L45.04 76.908L45.2519 74.9435C45.2697 74.7792 45.2833 74.6141 45.3162 74.4598C45.3414 74.3017 45.3727 74.1449 45.4122 73.9899C45.4835 73.6761 45.5791 73.3699 45.7034 73.0811C45.8257 72.7919 45.9795 72.5164 46.1773 72.2884C46.3746 72.0624 46.6163 71.8818 46.8855 71.8047C47.1543 71.7297 47.447 71.7553 47.6952 71.8882C47.9448 72.0147 48.145 72.241 48.232 72.5016C48.323 72.7632 48.2784 73.0432 48.1231 73.2852C48.0513 73.4086 47.9528 73.5061 47.8461 73.5907C47.7293 73.662 47.6061 73.723 47.467 73.7473C47.1889 73.8047 46.8827 73.7717 46.5875 73.6969C46.2903 73.6217 45.9975 73.5054 45.7154 73.3693C45.1509 73.0883 44.618 72.7302 44.1207 72.327C43.6259 71.9221 43.1596 71.4749 42.765 70.9751C42.5698 70.7256 42.3889 70.4595 42.263 70.179C42.2 70.0388 42.1553 69.8938 42.1457 69.7566C42.1397 69.6225 42.1688 69.4763 42.2263 69.3386C42.3421 69.059 42.5239 68.7942 42.7274 68.5497C42.9308 68.3052 43.1556 68.0721 43.3868 67.8493C43.8513 67.4042 44.3505 66.9889 44.8545 66.5813C45.3573 66.1691 45.8807 65.7924 46.3645 65.3273L47.0484 64.6235C47.2778 64.3892 47.4908 64.1402 47.7128 63.8998C48.5866 62.9242 49.4022 61.8868 50.1085 60.7742C50.2901 60.5004 50.457 60.2146 50.6218 59.9282C50.7945 59.6459 50.9416 59.3512 51.1023 59.0639C51.179 58.9173 51.2651 58.7771 51.3438 58.6309C51.4226 58.4847 51.5009 58.3407 51.5854 58.198C51.7564 57.913 51.9118 57.6202 52.0693 57.3278C52.2309 57.0363 52.3764 56.739 52.5105 56.4348C52.6462 56.1331 52.7704 55.8244 52.8802 55.5125C53.1122 54.8915 53.3173 54.2644 53.5084 53.6321C53.8965 52.3708 54.2141 51.085 54.605 49.8311C54.7102 49.5204 54.8071 49.2078 54.9181 48.9006C55.0352 48.5948 55.1996 48.3106 55.3443 48.0175C55.4827 47.7231 55.6274 47.43 55.7753 47.1421C55.9256 46.8526 56.062 46.5577 56.2255 46.2777C56.8413 45.1338 57.5634 44.0489 58.389 43.0559C59.2132 42.0691 60.135 41.1418 61.1682 40.4209C62.2413 39.6757 63.3011 38.9518 64.4044 38.2775C65.5031 37.6044 66.6271 36.9746 67.7881 36.4349C68.9497 35.902 70.1483 35.4393 71.3847 35.2042C72.0016 35.0875 72.6263 35.0256 73.2401 35.0653C73.8543 35.1029 74.4568 35.2464 74.9915 35.5251C75.1218 35.603 75.2501 35.6803 75.3774 35.7619C75.4934 35.8564 75.6219 35.9426 75.7298 36.0442C75.8323 36.1512 75.9478 36.2478 76.0339 36.3711C76.0796 36.43 76.1279 36.4872 76.1732 36.5483L76.2941 36.7413C76.6175 37.2606 76.8131 37.8731 76.9633 38.4954C77.2674 39.743 77.3555 41.0818 77.7209 42.3763C78.0551 43.655 78.4264 44.9221 78.8123 46.1813L79.3972 48.0671L79.6909 49.0092C79.7877 49.3252 79.8961 49.6371 79.9637 49.9378C80.1045 50.5535 80.1587 51.2008 80.1459 51.8376C80.1249 52.4726 80.0338 53.1118 79.8088 53.6901C79.5868 54.2647 79.2275 54.7842 78.7151 55.0792C78.4607 55.2283 78.1819 55.3298 77.8869 55.3856C77.5906 55.4279 77.287 55.453 76.9808 55.42C76.6759 55.4006 76.3693 55.3388 76.0671 55.2669C75.7662 55.1886 75.4668 55.0929 75.1551 54.9945C74.5387 54.7949 73.9166 54.6117 73.2884 54.447C72.0341 54.1181 70.7571 53.855 69.4691 53.7046C68.1808 53.5452 66.8861 53.4862 65.6009 53.4337C64.9583 53.4075 64.3162 53.3791 63.6758 53.3423C63.0389 53.2997 62.4072 53.2427 61.7871 53.1108C61.1682 52.9836 60.5581 52.8053 59.9841 52.5487C59.6956 52.4223 59.4212 52.2703 59.1596 52.099C59.029 52.0122 58.9039 51.9201 58.7868 51.8209C58.6688 51.7259 58.5532 51.6094 58.4709 51.5091L58.3735 51.8038C59.5486 51.4709 60.7931 51.4103 62.0216 51.4855C63.2518 51.5633 64.4775 51.7729 65.6784 52.0788C66.2799 52.2264 66.8743 52.4079 67.4639 52.6015C67.7582 52.7005 68.0496 52.8032 68.3367 52.916C68.4761 52.9715 68.6294 53.0323 68.7464 53.0916C68.8616 53.1594 68.9723 53.2483 69.0599 53.3542C69.2396 53.5648 69.3268 53.8344 69.2636 54.0902C69.2081 54.3501 69.0198 54.5847 68.801 54.7793C68.3545 55.1709 67.7863 55.4335 67.2188 55.6631C66.6459 55.8871 66.0504 56.0551 65.4483 56.2238C64.8487 56.3909 64.2473 56.5465 63.6411 56.6833C62.4326 56.9601 61.2025 57.1656 59.9759 57.2435C59.6705 57.2572 59.3627 57.2615 59.0663 57.2329C58.9184 57.2176 58.7718 57.1959 58.6374 57.157C58.5027 57.1203 58.3775 57.0591 58.3174 56.986C58.2611 56.9158 58.257 56.8441 58.3062 56.7046C58.3563 56.5608 58.4081 56.4197 58.477 56.289C58.6092 56.0241 58.7932 55.7997 59.0302 55.6711C59.2673 55.5426 59.5538 55.5158 59.8406 55.5489C60.1279 55.5799 60.4211 55.6741 60.7117 55.77C61.2897 55.9677 61.8486 56.2342 62.389 56.5364C62.927 56.8403 63.4633 57.1726 63.9673 57.5242C64.4757 57.8856 64.9939 58.2515 65.4717 58.6349C65.499 58.6587 65.5284 58.683 65.55 58.7033C65.5574 58.7094 65.5622 58.7171 65.5622 58.7171L65.5675 58.7227C65.5675 58.7227 65.559 58.7119 65.5557 58.7068C65.5699 58.752 65.4926 58.5975 65.572 58.509L65.5636 58.5182L65.5463 58.5387C65.5043 58.5935 65.455 58.6422 65.4037 58.6905C65.3009 58.7871 65.1819 58.869 65.0539 58.9422C64.8 59.0891 64.519 59.2012 64.2301 59.2893C63.6518 59.4678 63.0407 59.5571 62.43 59.6044C61.2059 59.7006 59.9627 59.6841 58.7463 59.512C58.4427 59.4663 58.141 59.4122 57.8479 59.3378C57.5593 59.2623 57.2565 59.1726 57.0413 59.0271C56.9905 58.9914 56.954 58.95 56.9452 58.9304C56.9397 58.9159 56.9358 58.9239 56.9597 58.8827C56.97 58.8651 56.9935 58.846 57.0129 58.826L57.0922 58.7684C57.1438 58.7291 57.2085 58.6992 57.2691 58.6685C57.5261 58.5577 57.8254 58.5117 58.123 58.4941C58.7261 58.4628 59.3425 58.5407 59.9476 58.6515C60.5548 58.7628 61.158 58.913 61.755 59.0818C62.0541 59.1685 62.3503 59.259 62.6451 59.3558L62.8644 59.4314C62.9311 59.4529 63.005 59.4916 63.0745 59.5204L63.4985 59.7103C64.0535 59.9847 64.5938 60.298 65.0913 60.6703C65.5887 61.0425 66.0429 61.476 66.4088 61.9783C66.7748 62.4805 67.0643 63.0476 67.1989 63.662C67.4949 64.8768 67.2546 66.2153 66.6577 67.2705L66.6509 67.2823C66.6052 67.365 66.6328 67.4686 66.7114 67.5149C66.7901 67.5613 66.8933 67.5334 66.9386 67.4528L66.9429 67.4427L66.9437 67.4495Z" stroke="#CBE2D1" stroke-width="0.0955018" mask="url(#path-6-outside-1_19561_34287)"/>
</svg>
