<svg width="162" height="43" viewBox="0 0 162 43" fill="none" xmlns="http://www.w3.org/2000/svg">
<path d="M27.9783 41.6328H0.0848985V37.2537L19.8306 8.24562H0.695316V2.83148H27.4475V7.18402L7.70185 36.2187H27.9783V41.6328ZM59.7731 12.2531V41.6328H54.8633L54.014 37.6784H53.669C53.0497 38.6869 52.2623 39.5273 51.3069 40.1997C50.3515 40.8543 49.2899 41.3409 48.1221 41.6594C46.9544 41.9955 45.7247 42.1636 44.4331 42.1636C42.2214 42.1636 40.3282 41.7921 38.7535 41.0489C37.1965 40.2881 36.0022 39.1204 35.1706 37.5457C34.3391 35.971 33.9233 33.9362 33.9233 31.4415V12.2531H40.1867V30.2737C40.1867 32.5562 40.6467 34.2636 41.5668 35.3959C42.5045 36.5283 43.9554 37.0945 45.9193 37.0945C47.8125 37.0945 49.3164 36.7052 50.4311 35.9267C51.5458 35.1482 52.3331 33.9982 52.7931 32.4765C53.2709 30.9549 53.5097 29.0883 53.5097 26.8766V12.2531H59.7731ZM101.918 11.6958C105.209 11.6958 107.686 12.5451 109.35 14.2436C111.031 15.9422 111.871 18.667 111.871 22.4179V41.6328H105.634V23.5326C105.634 21.3032 105.201 19.6224 104.334 18.49C103.467 17.3577 102.149 16.7915 100.379 16.7915C97.9021 16.7915 96.1151 17.5877 95.0181 19.1801C93.9388 20.7548 93.3992 23.046 93.3992 26.0539V41.6328H87.1623V23.5326C87.1623 22.0464 86.9677 20.8078 86.5784 19.817C86.2069 18.8085 85.6318 18.0565 84.8533 17.5611C84.0748 17.048 83.0929 16.7915 81.9074 16.7915C80.1912 16.7915 78.8199 17.1807 77.7937 17.9592C76.7852 18.7377 76.0598 19.8878 75.6175 21.4094C75.1751 22.9133 74.954 24.7623 74.954 26.9562V41.6328H68.7171V12.2531H73.5739L74.4497 16.2076H74.7947C75.3963 15.1814 76.1394 14.3409 77.0241 13.6863C77.9264 13.014 78.9261 12.5185 80.0231 12.2001C81.1201 11.8639 82.2613 11.6958 83.4467 11.6958C85.6407 11.6958 87.4896 12.0851 88.9936 12.8636C90.4975 13.6244 91.621 14.7921 92.3641 16.3668H92.8418C93.7619 14.7744 95.0447 13.5978 96.6901 12.837C98.3356 12.0762 100.078 11.6958 101.918 11.6958Z" fill="#6D597A"/>
<path d="M126.839 41.6328H120.576V0.336729H126.839V41.6328ZM161.766 26.8766C161.766 29.3183 161.447 31.4857 160.811 33.3789C160.174 35.2721 159.245 36.8733 158.024 38.1826C156.803 39.4742 155.334 40.4651 153.618 41.1551C151.902 41.8274 149.965 42.1636 147.806 42.1636C145.789 42.1636 143.94 41.8274 142.259 41.1551C140.578 40.4651 139.119 39.4742 137.88 38.1826C136.659 36.8733 135.713 35.2721 135.04 33.3789C134.368 31.4857 134.032 29.3183 134.032 26.8766C134.032 23.6388 134.589 20.8963 135.704 18.6493C136.836 16.3845 138.446 14.6594 140.534 13.474C142.622 12.2885 145.108 11.6958 147.992 11.6958C150.699 11.6958 153.087 12.2885 155.158 13.474C157.228 14.6594 158.847 16.3845 160.014 18.6493C161.182 20.914 161.766 23.6565 161.766 26.8766ZM140.454 26.8766C140.454 29.0175 140.711 30.8488 141.224 32.3704C141.755 33.892 142.569 35.0598 143.666 35.8737C144.763 36.6699 146.178 37.0679 147.912 37.0679C149.646 37.0679 151.062 36.6699 152.159 35.8737C153.256 35.0598 154.061 33.892 154.574 32.3704C155.087 30.8488 155.343 29.0175 155.343 26.8766C155.343 24.7357 155.087 22.9222 154.574 21.4359C154.061 19.932 153.256 18.7908 152.159 18.0123C151.062 17.2161 149.637 16.818 147.886 16.818C145.302 16.818 143.418 17.685 142.233 19.4189C141.047 21.1529 140.454 23.6388 140.454 26.8766Z" fill="#FF9D48"/>
</svg>
