<svg width="422" height="474" viewBox="0 0 422 474" fill="none" xmlns="http://www.w3.org/2000/svg">
<path d="M396.958 178.499C399.998 136.181 365.767 75.9992 314.504 102.242C296.34 111.541 329.25 142.41 341.409 175.745C353.569 209.08 346.595 221.187 362.457 223.512C378.319 225.837 394.932 206.69 396.958 178.499Z" fill="#4EA692"/>
<path d="M104.812 248.612C106.292 255.398 107.202 262.814 111.918 270.437C116.573 277.962 115.521 278.969 128.016 286.382C140.22 293.613 155.229 294.773 166.631 303.617C190.774 322.366 183.529 358.623 197.741 382.958C212.577 408.372 252.038 416.887 272.259 392.9C290.641 371.096 286.673 335.272 282.39 309.284C277.612 280.285 276.222 252.08 285.659 223.617C300.303 179.431 319.229 115.176 279.323 77.6763C260.299 59.7939 229.971 64.6386 207.958 73.2237C169.6 88.181 152.433 97.2258 128.782 131.273C108.123 161.009 100.976 187.186 102.109 226.49C102.109 226.49 103.333 241.827 104.812 248.612Z" fill="#7A6687"/>
<path d="M260.319 252.259C250.926 229.186 267.977 191.273 296.735 193.447C311.462 194.565 322.302 209.013 324.48 222.852C328.688 249.542 297.615 265.306 274.782 263.651C267.632 263.133 262.917 258.648 260.313 252.257L260.319 252.259Z" fill="#FF9D48"/>
<mask id="path-4-outside-1_13757_30605" maskUnits="userSpaceOnUse" x="59.3279" y="41.0301" width="346.691" height="377.371" fill="black">
<rect fill="white" x="59.3279" y="41.0301" width="346.691" height="377.371"/>
<path d="M200.405 189.128C201.675 187.126 202.484 184.999 203.044 182.779C203.316 181.671 203.461 180.536 203.536 179.393C203.61 178.257 203.575 177.109 203.399 175.977C203.093 173.72 202.288 171.542 201.167 169.569C200.035 167.601 198.56 165.845 196.909 164.301C195.259 162.757 193.437 161.411 191.542 160.185L190.089 159.308C189.617 159.004 189.082 158.743 188.585 158.51C187.572 158.031 186.548 157.564 185.513 157.125C183.447 156.241 181.35 155.426 179.198 154.745C177.042 154.078 174.845 153.486 172.541 153.281C171.387 153.194 170.202 153.201 169.006 153.524C168.708 153.623 168.406 153.713 168.123 153.865L167.693 154.095C167.546 154.198 167.4 154.3 167.253 154.45C167.108 154.593 166.971 154.787 166.886 155.038C166.801 155.289 166.799 155.577 166.87 155.817C167.013 156.29 167.28 156.564 167.52 156.798C168.524 157.658 169.587 158.083 170.662 158.519C171.737 158.931 172.825 159.26 173.922 159.56C176.112 160.15 178.331 160.582 180.57 160.908C182.805 161.226 185.066 161.464 187.331 161.479C189.596 161.494 191.878 161.387 194.152 160.973C195.288 160.758 196.42 160.461 197.51 159.982C198.055 159.743 198.59 159.46 199.09 159.093C199.335 158.912 199.585 158.717 199.804 158.495L199.888 158.411L199.934 158.371C200.254 158.063 200.044 157.456 200.056 157.588C200.032 157.539 199.996 157.479 199.97 157.439L199.92 157.374C199.887 157.33 199.854 157.287 199.83 157.263C199.716 157.128 199.613 157.029 199.513 156.924C197.865 155.324 196.18 153.881 194.481 152.409C192.741 150.939 190.967 149.593 189.117 148.286C187.261 146.992 185.323 145.8 183.25 144.841C182.216 144.378 181.168 143.911 179.989 143.639C178.831 143.375 177.532 143.319 176.329 143.8C175.13 144.274 174.201 145.199 173.551 146.196C173.209 146.688 172.935 147.212 172.683 147.743C172.553 147.987 172.409 148.386 172.383 148.77C172.357 149.177 172.489 149.614 172.707 149.936C173.166 150.587 173.78 150.875 174.339 151.113C174.907 151.346 175.481 151.492 176.048 151.612C177.191 151.848 178.328 151.961 179.46 152.04C183.986 152.269 188.479 152.031 192.951 151.546C195.184 151.302 197.408 150.991 199.624 150.654C201.836 150.307 204.067 149.951 206.265 149.383C208.45 148.787 210.663 148.104 212.636 146.764C213.6 146.09 214.553 145.213 215.002 143.956C215.228 143.337 215.285 142.651 215.171 141.996C215.055 141.349 214.778 140.751 214.426 140.231C214.077 139.705 213.627 139.264 213.107 138.888C212.563 138.536 212.086 138.294 211.577 138.025C210.572 137.501 209.559 137.021 208.535 136.554C206.483 135.627 204.412 134.757 202.302 133.978C198.092 132.391 193.746 131.134 189.302 130.332C184.86 129.547 180.277 129.227 175.741 129.922L175.72 129.915C175.363 129.978 175.124 130.305 175.179 130.66C175.196 130.754 175.231 130.838 175.276 130.917C175.661 131.504 176.032 131.942 176.465 132.385C176.884 132.823 177.33 133.23 177.792 133.611C178.717 134.372 179.693 135.055 180.724 135.645C182.772 136.843 184.957 137.752 187.19 138.476C189.415 139.222 191.722 139.7 194.011 140.116C196.291 140.512 198.573 140.878 200.855 141.243C205.415 141.964 209.955 142.694 214.409 143.771C218.874 144.82 223.238 146.235 227.515 147.885C229.658 148.707 231.77 149.599 233.867 150.534C234.903 150.989 235.992 151.478 237.103 151.903C238.222 152.306 239.369 152.67 240.558 152.889C241.739 153.153 242.974 153.212 244.203 153.172C245.436 153.094 246.682 152.812 247.834 152.314C250.191 151.328 251.949 149.322 253.096 147.19C254.252 145.028 254.866 142.675 255.226 140.316C255.554 137.954 255.62 135.567 255.35 133.179C255.206 131.954 254.939 130.831 254.73 129.703L254.061 126.299L252.736 119.503C251.874 114.969 251.063 110.428 250.391 105.878C249.63 101.403 249.861 96.7826 249.257 92.0798C248.953 89.7439 248.485 87.3522 247.41 85.123L247.003 84.2966C246.846 84.0275 246.67 83.7678 246.511 83.5058C246.208 82.9628 245.772 82.503 245.38 82.0098C244.97 81.543 244.499 81.143 244.063 80.7071C243.586 80.3215 243.088 79.9525 242.587 79.5906C240.521 78.2341 238.164 77.4276 235.792 77.0236C233.412 76.6172 231.015 76.5894 228.661 76.7679C223.932 77.1344 219.375 78.319 214.94 79.7535C210.512 81.2143 206.2 82.9945 201.988 84.9524C197.785 86.9057 193.651 89.0821 189.605 91.2565C185.417 93.519 181.757 96.4646 178.359 99.675C171.565 106.137 166.339 114.034 162.255 122.382C158.252 130.726 154.486 139.174 149.877 147.137C147.571 151.11 145.018 154.942 142.113 158.488C139.214 162.044 135.981 165.31 132.526 168.333C131.651 169.077 130.799 169.845 129.9 170.565L127.204 172.716C125.428 174.043 123.372 175.179 121.422 176.407C119.449 177.628 117.484 178.875 115.604 180.27C114.664 180.968 113.743 181.705 112.877 182.516C112.011 183.327 111.187 184.224 110.556 185.331C110.249 185.883 110.016 186.524 109.962 187.226C109.924 187.926 110.062 188.557 110.255 189.143C110.639 190.321 111.215 191.381 111.842 192.386C113.112 194.393 114.637 196.19 116.287 197.854C117.947 199.513 119.751 201.029 121.751 202.299C122.765 202.915 123.806 203.499 124.933 203.946C126.056 204.382 127.288 204.711 128.595 204.626C129.251 204.601 129.911 204.4 130.532 204.122C130.818 203.939 131.128 203.78 131.381 203.553C131.619 203.322 131.905 203.115 132.093 202.842C132.517 202.346 132.877 201.732 133.07 201.045C133.268 200.367 133.245 199.631 133.096 198.964C132.455 196.234 129.677 194.476 126.929 194.778C125.559 194.929 124.313 195.636 123.389 196.523C122.44 197.41 121.729 198.449 121.143 199.516C120.541 200.584 120.09 201.704 119.73 202.838C119.54 203.398 119.369 203.973 119.227 204.557C119.054 205.139 118.965 205.709 118.854 206.271C118.411 208.546 117.991 210.821 117.505 213.081L116.795 216.474C116.53 217.609 116.354 218.742 115.875 219.684C115.619 220.134 115.341 220.6 114.956 220.838C114.581 221.095 114.179 221.151 113.804 220.959C113.434 220.778 113.096 220.383 112.905 219.91C112.675 219.456 112.57 218.917 112.494 218.387C112.444 217.849 112.43 217.3 112.481 216.749C112.508 216.198 112.609 215.688 112.839 215.246C113.059 214.808 113.396 214.474 113.84 214.297C114.279 214.109 114.801 214.078 115.318 214.133C116.371 214.258 117.388 214.723 118.35 215.305C119.305 215.884 120.201 216.588 121.04 217.345C122.712 218.872 124.225 220.657 126.01 222.183C126.902 222.949 127.855 223.649 128.867 224.248C129.865 224.842 130.882 225.403 131.925 225.932C133.998 226.987 137.167 227.511 139.375 228.26L139.161 227.908C135.795 229.513 131.443 230.963 127.877 232.076C126.093 232.624 124.285 233.099 122.454 233.431C120.63 233.742 118.759 233.956 116.958 233.73C116.063 233.61 115.161 233.417 114.397 232.982C113.622 232.559 113.022 231.924 112.633 231.136C112.243 230.355 112.094 229.472 112.295 228.644C112.51 227.82 113.041 227.08 113.695 226.493C115.03 225.313 116.825 224.64 118.607 224.452C119.508 224.365 120.417 224.417 121.264 224.656C122.112 224.888 122.89 225.351 123.433 226.015C123.984 226.675 124.272 227.524 124.358 228.402C124.452 229.282 124.348 230.2 124.138 231.081C123.942 231.967 123.626 232.828 123.224 233.66C122.838 234.49 122.353 235.286 121.844 236.058C119.756 239.128 117.07 241.771 114.484 244.497C113.191 245.859 111.885 247.234 110.685 248.7C109.485 250.166 108.351 251.719 107.506 253.457C106.652 255.177 106.143 257.149 106.262 259.11C106.359 261.064 106.928 262.946 107.721 264.687C109.335 268.179 111.782 271.194 114.579 273.766C117.386 276.334 120.582 278.482 124.041 280.07C127.492 281.656 131.264 282.695 135.075 282.865C138.863 283.125 142.664 282.972 146.42 282.501C153.943 281.552 161.226 279.427 168.38 277.113L179.087 273.586C182.661 272.428 186.244 271.289 189.806 270.072C196.923 267.633 204.003 264.878 210.529 260.999C211.343 260.507 212.16 260.031 212.941 259.495C213.734 258.972 214.524 258.455 215.279 257.879L216.428 257.036C216.806 256.747 217.164 256.421 217.539 256.116C218.302 255.518 218.938 254.797 219.624 254.117C220.888 252.672 222.087 251.142 222.972 249.425C223.482 248.605 223.803 247.681 224.217 246.813C224.504 245.894 224.887 245 225.06 244.042C226.005 240.288 225.718 236.205 224.184 232.619C223.724 231.759 223.36 230.852 222.768 230.075C222.488 229.676 222.236 229.262 221.934 228.88L220.977 227.787L220.499 227.241L219.97 226.749L218.913 225.767L217.773 224.884C217.396 224.581 217.012 224.298 216.599 224.054L215.385 223.275L214.113 222.595C213.277 222.112 212.369 221.796 211.497 221.397C209.696 220.746 207.862 220.165 205.985 219.833C202.237 219.075 198.392 219.005 194.606 219.306C190.816 219.638 187.067 220.417 183.465 221.661C179.869 222.908 176.433 224.649 173.302 226.813C167.018 231.158 161.97 236.995 157.646 243.173C153.375 249.409 149.4 255.785 145.543 262.258C141.702 268.736 138.058 275.337 134.66 282.061C134.517 282.34 134.616 282.686 134.89 282.843C136.969 284.068 138.997 285.491 140.933 286.972C142.866 288.459 144.732 290.052 146.447 291.786C148.166 293.505 149.789 295.344 151.119 297.363L151.632 298.113C151.803 298.363 151.933 298.64 152.085 298.899C152.369 299.428 152.69 299.944 152.955 300.483L153.667 302.132C153.799 302.401 153.887 302.687 153.964 302.977L154.215 303.839L154.467 304.701L154.642 305.6C154.751 306.198 154.891 306.797 154.974 307.402L155.24 309.212L155.438 311.033C155.66 313.469 155.709 315.918 155.722 318.38C155.735 320.842 155.731 323.329 155.909 325.823C156.08 328.314 156.452 330.801 157.028 333.229C157.292 334.455 157.68 335.643 158.019 336.839C158.388 338.012 158.751 339.184 159.084 340.369C159.763 342.728 160.366 345.101 160.767 347.503C161.168 349.904 161.368 352.332 161.288 354.762C161.222 357.197 160.934 359.629 160.559 362.055C160.194 364.476 155.595 360.816 155.246 363.283C154.886 365.738 146.773 352.522 146.625 355.009C146.342 359.971 158.338 363.066 159.559 367.954C159.641 368.278 170.696 343.04 170.516 366.434C172.396 346.5 165.617 378.578 185.052 373.449L194.344 369.241C195.153 367.49 191.836 379.226 192.834 377.532C193.842 375.832 186.639 374.998 187.74 373.354C189.949 370.068 171.322 375.107 173.781 372.002C178.746 365.841 184.02 359.785 188.202 352.918C190.263 349.479 192.035 345.782 192.911 341.805C193.355 339.834 193.627 337.805 193.653 335.773C193.683 333.75 193.543 331.758 193.515 329.788C193.478 327.822 193.555 325.871 193.975 323.997C194.404 322.117 195.111 320.292 195.918 318.5C197.536 314.927 199.55 311.343 200.24 307.255L200.622 304.287C200.714 303.31 200.978 302.367 201.15 301.409C201.369 300.458 201.661 299.525 201.939 298.587L202.444 297.213L202.695 296.522L202.993 295.854C204.554 292.262 206.708 288.95 209.15 285.847C211.58 282.733 214.234 279.783 216.851 276.78C218.154 275.269 219.467 273.777 220.721 272.201C221.964 270.629 223.146 269.005 224.257 267.332C228.684 260.637 232.066 253.347 234.998 245.921C236.433 242.181 237.644 238.398 239.076 234.713C240.499 231.033 242.187 227.444 244.462 224.269C249.203 217.992 254.843 212.316 261.021 207.414C267.217 202.551 274.073 198.359 281.581 196.062C285.356 194.948 289.225 194.026 293.113 193.591C295.056 193.401 297.022 193.307 298.919 193.558C300.817 193.785 302.679 194.376 304.099 195.537C305.549 196.685 306.348 198.453 306.698 200.3C307.006 202.173 306.935 204.126 306.659 206.049C306.366 207.975 305.913 209.878 305.273 211.719C304.634 213.559 303.774 215.316 302.769 216.985C300.776 220.343 298.062 223.233 295.034 225.705C291.981 228.159 288.556 230.128 285.019 231.907C281.488 233.695 277.864 235.357 274.351 237.279C272.593 238.244 270.868 239.277 269.212 240.412C267.542 241.543 265.977 242.837 264.476 244.13C262.968 245.419 261.474 246.714 259.869 247.795C258.273 248.871 256.521 249.725 254.686 249.88C252.848 250.066 251.042 249.333 249.494 248.265C247.937 247.152 246.58 245.78 245.955 244.04C244.62 240.594 246.722 236.28 250.091 234.924C250.921 234.598 251.817 234.501 252.644 234.725C253.459 234.938 254.223 235.468 254.659 236.161C255.108 236.865 255.273 237.769 255.249 238.69C255.232 239.612 255.062 240.563 254.827 241.492C253.813 245.238 252.017 248.815 250.317 252.393C249.455 254.182 248.584 255.976 247.764 257.803C246.94 259.693 246.478 261.833 246.738 263.922C246.947 266.018 247.721 267.953 248.535 269.774C249.354 271.604 250.283 273.367 250.922 275.185C251.575 276.983 251.89 278.906 251.976 280.848C252.051 282.795 251.928 284.762 251.771 286.734C251.463 290.663 250.919 294.721 251.637 298.782C251.992 300.775 252.64 302.827 253.828 304.534C254.977 306.261 256.451 307.737 258.075 308.959C261.332 311.424 265.056 313.078 268.822 314.418C272.605 315.756 276.478 316.757 280.364 317.625L286.194 318.889C288.16 319.291 290.174 319.622 292.189 319.688C294.207 319.772 296.223 319.743 298.221 319.532C300.224 319.354 302.213 319.027 304.176 318.612C308.105 317.775 311.94 316.553 315.64 315.022C319.345 313.5 322.931 311.69 326.359 309.619C329.792 307.556 333.072 305.235 336.139 302.648C339.217 300.074 342.058 297.211 344.57 294.068C345.804 292.478 346.969 290.832 347.994 289.082C348.999 287.342 349.924 285.558 350.764 283.738C351.593 281.906 352.338 280.037 352.997 278.14C353.635 276.235 354.186 274.301 354.635 272.34C355.062 270.371 355.392 268.386 355.606 266.386C355.799 264.378 355.874 262.363 355.83 260.347C355.653 256.317 355.136 252.372 354.652 248.422C353.643 240.549 352.673 232.633 353.738 224.798C354.707 216.938 356.435 209.176 358.655 201.564C359.762 197.754 360.984 193.982 362.302 190.235L364.318 184.619C364.998 182.729 365.535 180.79 366.02 178.841C366.908 174.924 367.435 170.893 367.277 166.853L367.206 165.341C367.168 164.839 367.106 164.338 367.054 163.832C366.973 162.82 366.763 161.837 366.599 160.837C366.173 158.86 365.665 156.894 364.885 155.021C364.177 153.125 363.209 151.332 362.175 149.597C361.126 147.905 360.058 146.222 358.977 144.551C356.817 141.21 354.577 137.914 352.322 134.636C350.078 131.355 347.806 128.104 345.679 124.758C344.603 123.096 343.598 121.395 342.604 119.681C341.622 117.956 340.745 116.226 339.785 114.436C337.851 110.899 335.417 107.633 332.528 104.813C329.648 101.989 326.34 99.6271 322.829 97.6767C322.54 97.5148 322.176 97.6234 322.016 97.9055C321.854 98.1947 321.962 98.5595 322.244 98.719C325.691 100.6 328.923 102.879 331.748 105.606C334.575 108.325 336.971 111.49 338.882 114.931C339.819 116.649 340.731 118.462 341.715 120.181C342.721 121.906 343.739 123.62 344.819 125.29C346.965 128.651 349.241 131.912 351.496 135.189C353.753 138.459 355.99 141.738 358.146 145.07C360.268 148.431 362.587 151.682 363.971 155.36C364.722 157.175 365.224 159.09 365.645 161.01C365.802 161.983 366.013 162.943 366.086 163.929C366.136 164.418 366.203 164.905 366.236 165.396L366.303 166.875C366.461 170.819 365.953 174.769 365.087 178.621C364.219 182.481 362.703 186.153 361.38 189.914C360.045 193.664 358.816 197.457 357.686 201.284C355.44 208.927 353.681 216.735 352.681 224.664C352.135 228.632 352.094 232.668 352.302 236.653C352.515 240.647 352.994 244.611 353.464 248.556C353.919 252.496 354.422 256.46 354.542 260.375C354.565 262.335 354.461 264.293 354.256 266.241C354.028 268.188 353.685 270.121 353.246 272.029C352.793 273.932 352.227 275.814 351.592 277.663C350.933 279.513 350.184 281.324 349.36 283.094C348.527 284.868 347.577 286.587 346.579 288.258C345.571 289.909 344.423 291.481 343.208 292.99C338.211 298.964 331.883 303.767 325.104 307.544C321.71 309.444 318.189 311.084 314.576 312.452C310.968 313.831 307.261 314.887 303.52 315.573C299.79 316.294 296.01 316.621 292.329 316.398L290.953 316.308L289.597 316.136C289.14 316.094 288.7 316 288.25 315.912C287.793 315.821 287.382 315.762 286.879 315.64L281.085 314.364C277.264 313.518 273.505 312.556 269.904 311.295C266.317 310.04 262.856 308.483 260.031 306.349C258.614 305.292 257.412 304.076 256.509 302.73C255.561 301.4 255.097 299.939 254.757 298.206C254.105 294.8 254.535 290.984 254.835 286.964C254.982 284.949 255.106 282.862 255 280.697C254.892 278.539 254.519 276.292 253.709 274.152C252.928 272.047 251.973 270.314 251.168 268.561C250.364 266.832 249.704 265.192 249.538 263.607C249.315 262.026 249.627 260.467 250.268 258.907C251.026 257.14 251.884 255.341 252.717 253.543C253.56 251.739 254.41 249.915 255.201 248.03C255.984 246.142 256.742 244.214 257.266 242.102C257.52 241.044 257.723 239.928 257.729 238.706C257.749 238.104 257.674 237.454 257.539 236.792C257.372 236.128 257.139 235.448 256.721 234.818C256.315 234.2 255.779 233.635 255.183 233.249C254.603 232.836 253.944 232.541 253.253 232.362C252.56 232.168 251.839 232.147 251.152 232.195C250.471 232.268 249.817 232.431 249.215 232.675C246.822 233.673 245.158 235.542 244.155 237.699C243.147 239.847 242.97 242.492 243.851 244.775C244.28 245.913 244.933 246.935 245.712 247.799C246.09 248.239 246.516 248.632 246.941 248.984L248.247 249.987C248.71 250.296 249.218 250.564 249.705 250.849C250.195 251.127 250.778 251.293 251.311 251.513C251.863 251.7 252.468 251.778 253.042 251.9C253.636 251.917 254.234 251.968 254.821 251.911C257.2 251.684 259.231 250.596 260.959 249.413C262.694 248.208 264.207 246.856 265.699 245.544C267.185 244.223 268.643 242.989 270.234 241.879C271.813 240.757 273.471 239.734 275.18 238.769C278.593 236.836 282.196 235.168 285.754 233.324C289.312 231.505 292.84 229.443 295.993 226.862C299.124 224.273 301.932 221.223 304.001 217.69C305.038 215.929 305.922 214.075 306.586 212.139C307.243 210.201 307.701 208.211 307.992 206.197C308.259 204.182 308.333 202.102 307.973 200.028C307.763 198.996 307.445 197.976 306.945 197.022C306.452 196.071 305.736 195.212 304.902 194.537C303.214 193.172 301.13 192.53 299.101 192.219C297.054 191.893 295.004 191.879 292.964 191.956C290.924 192.033 288.899 192.275 286.898 192.589C284.883 192.899 282.932 193.302 280.959 193.866C278.971 194.425 277.035 195.137 275.177 195.996C274.243 196.416 273.31 196.836 272.409 197.323C271.502 197.784 270.59 198.259 269.718 198.78C266.185 200.808 262.842 203.125 259.677 205.646C256.513 208.168 253.513 210.888 250.696 213.776C247.86 216.672 245.255 219.711 242.819 223.032C240.426 226.439 238.717 230.206 237.306 233.969C235.883 237.745 234.713 241.55 233.345 245.233C230.533 252.587 227.276 259.839 223.007 266.445C221.937 268.091 220.801 269.699 219.598 271.244C218.402 272.792 217.087 274.291 215.807 275.802C213.222 278.808 210.565 281.789 208.111 284.975C205.649 288.135 203.44 291.564 201.847 295.298L201.539 295.994L201.281 296.707L200.766 298.133C200.485 299.103 200.188 300.074 199.965 301.063C199.787 302.059 199.525 303.043 199.431 304.052L199.063 307.001C198.439 310.823 196.496 314.318 194.848 317.954C194.029 319.781 193.288 321.683 192.835 323.682C192.393 325.693 192.315 327.74 192.361 329.749C192.401 331.755 192.536 333.738 192.513 335.691C192.5 337.64 192.236 339.575 191.809 341.495C190.967 345.324 189.267 348.901 187.25 352.284C185.204 355.656 182.862 358.864 180.426 361.993C177.996 365.131 175.416 368.146 172.94 371.277C170.464 374.408 166.932 362.736 164.711 366.057C163.606 367.715 162.04 363.42 161.025 365.141C160.007 366.87 158.632 361.422 157.782 363.271L147.985 357.728L167.153 366.148C165.96 361.413 157.294 366.831 157.569 361.938C157.712 359.489 163.989 369.977 164.342 367.543C164.686 365.114 161.149 364.608 161.526 362.15C161.908 359.703 162.201 357.233 162.279 354.738C162.365 352.246 162.165 349.745 161.752 347.284C161.346 344.826 160.732 342.416 160.053 340.033C159.386 337.638 158.558 335.317 158.021 332.941C157.459 330.566 157.106 328.141 156.934 325.698C156.763 323.255 156.774 320.794 156.764 318.325C156.766 313.388 156.525 308.368 155.254 303.511L154.988 302.596C154.909 302.289 154.812 301.984 154.677 301.698L153.932 299.957C153.66 299.393 153.33 298.857 153.032 298.299C152.875 298.03 152.733 297.742 152.557 297.482L152.03 296.703C150.655 294.605 148.992 292.72 147.232 290.955C145.484 289.179 143.587 287.559 141.615 286.043C139.643 284.526 137.616 283.102 135.451 281.825L135.665 282.537C139.061 275.844 142.702 269.275 146.544 262.821C150.395 256.387 154.365 249.977 158.708 243.885C163.105 237.868 168.228 232.328 174.352 228.313C180.458 224.284 187.504 221.958 194.772 221.267C198.394 220.934 202.064 220.953 205.635 221.571C207.432 221.836 209.167 222.352 210.886 222.918C211.717 223.272 212.582 223.549 213.377 223.987L214.585 224.596L215.745 225.302C216.141 225.524 216.509 225.784 216.871 226.059L217.966 226.862L218.981 227.759L219.493 228.205L219.948 228.703L220.859 229.692C221.142 230.036 221.389 230.416 221.651 230.777C222.219 231.481 222.567 232.32 223.005 233.101C223.185 233.514 223.329 233.938 223.489 234.361L223.73 234.995L223.892 235.65C223.99 236.091 224.115 236.526 224.196 236.97L224.354 238.32C224.461 240.125 224.368 241.958 223.903 243.73C223.75 244.63 223.384 245.474 223.106 246.341C222.707 247.166 222.398 248.03 221.91 248.809C221.063 250.435 219.913 251.87 218.707 253.238C218.052 253.872 217.442 254.562 216.719 255.117C216.365 255.406 216.031 255.708 215.658 255.982L214.526 256.799C213.786 257.357 213 257.859 212.229 258.366C211.46 258.889 210.655 259.353 209.855 259.826C203.426 263.586 196.383 266.161 189.283 268.478C185.726 269.633 182.134 270.705 178.532 271.805L167.773 275.154C160.643 277.396 153.464 279.429 146.169 280.294C142.525 280.716 138.873 280.927 135.24 280.68C131.642 280.542 128.209 279.61 124.927 278.138C121.657 276.678 118.587 274.7 115.897 272.308C113.214 269.918 110.868 267.098 109.339 263.923C108.586 262.347 108.054 260.662 107.948 258.993C107.816 257.332 108.203 255.694 108.946 254.113C109.676 252.528 110.723 251.042 111.868 249.621C113.015 248.193 114.27 246.825 115.549 245.458C118.094 242.711 120.793 240.008 122.951 236.753C124.006 235.126 124.968 233.347 125.408 231.343C125.638 230.357 125.756 229.324 125.64 228.252C125.536 227.192 125.163 226.074 124.421 225.198C123.688 224.317 122.667 223.723 121.632 223.452C120.594 223.165 119.538 223.119 118.52 223.222C116.486 223.445 114.512 224.177 112.917 225.581C112.135 226.285 111.45 227.221 111.159 228.339C110.88 229.469 111.101 230.68 111.592 231.639C112.06 232.614 112.898 233.49 113.853 233.998C114.808 234.53 115.839 234.743 116.834 234.872C118.839 235.112 120.785 234.867 122.678 234.54C124.569 234.196 126.417 233.694 128.23 233.132C131.857 231.984 135.362 230.579 138.812 228.938C139.181 228.767 140.113 228.244 139.936 227.871C139.848 227.682 139.203 227.451 139.016 227.388L138.689 227.277C136.538 226.548 134.475 225.956 132.443 224.923C131.426 224.41 130.431 223.857 129.452 223.277C128.485 222.71 127.596 222.056 126.748 221.328C125.036 219.868 123.549 218.123 121.803 216.507C120.922 215.712 119.982 214.97 118.947 214.346C117.925 213.728 116.769 213.176 115.47 213.024C114.824 212.949 114.118 212.982 113.448 213.259C112.774 213.527 112.199 214.093 111.889 214.724C111.565 215.35 111.446 216.03 111.416 216.637C111.36 217.25 111.367 217.868 111.435 218.492C111.52 219.113 111.649 219.749 111.94 220.352C112.2 220.952 112.642 221.558 113.351 221.918C113.516 222.022 113.714 222.074 113.918 222.11C114.016 222.128 114.121 222.147 114.221 222.157L114.526 222.132L114.827 222.091C114.919 222.058 115.01 222.024 115.103 221.984C115.281 221.908 115.473 221.837 115.603 221.713C116.232 221.294 116.559 220.708 116.883 220.154C117.021 219.865 117.128 219.573 117.249 219.286C117.349 218.991 117.417 218.694 117.503 218.395C117.654 217.806 117.76 217.258 117.888 216.693L118.648 213.317L120.171 206.558C120.299 205.993 120.412 205.423 120.59 204.899C120.741 204.358 120.914 203.824 121.116 203.3C121.493 202.235 121.953 201.207 122.509 200.251C123.057 199.292 123.714 198.394 124.508 197.678C125.299 196.97 126.231 196.438 127.221 196.277C128.208 196.123 129.241 196.329 130.074 196.892C130.913 197.432 131.538 198.3 131.746 199.243C131.969 200.191 131.7 201.149 131.052 201.929C130.748 202.331 130.359 202.631 129.945 202.883C129.501 203.085 129.038 203.248 128.533 203.277C127.52 203.365 126.441 203.128 125.419 202.749C124.389 202.368 123.391 201.846 122.439 201.259C120.537 200.055 118.778 198.594 117.163 196.99C115.558 195.382 114.072 193.637 112.861 191.738C112.262 190.791 111.722 189.792 111.383 188.764C111.213 188.251 111.111 187.728 111.13 187.246C111.161 186.776 111.322 186.279 111.581 185.822C112.103 184.895 112.854 184.045 113.675 183.274C114.496 182.504 115.388 181.782 116.299 181.098C118.128 179.733 120.069 178.486 122.025 177.268C123.978 176.033 125.99 174.93 127.897 173.503L130.609 171.325C131.518 170.601 132.375 169.819 133.26 169.07C136.755 166.021 140.067 162.733 143.02 159.14C143.774 158.259 144.48 157.329 145.18 156.398C145.905 155.483 146.545 154.516 147.23 153.579C147.561 153.099 147.922 152.645 148.26 152.167C148.598 151.69 148.933 151.219 149.29 150.756C150.011 149.831 150.679 148.873 151.355 147.918C152.045 146.967 152.68 145.99 153.276 144.983C153.878 143.987 154.441 142.961 154.955 141.918C156.024 139.848 157 137.745 157.929 135.619C159.805 131.381 161.44 127.028 163.323 122.816C163.819 121.776 164.287 120.726 164.802 119.7C165.339 118.682 166.036 117.757 166.666 116.794C167.275 115.824 167.905 114.861 168.545 113.917C169.194 112.969 169.795 111.996 170.487 111.086C173.129 107.347 176.126 103.857 179.457 100.727C182.78 97.6197 186.428 94.758 190.392 92.6599C194.507 90.4929 198.567 88.3953 202.763 86.4875C206.941 84.5822 211.193 82.8377 215.542 81.422C219.89 80.0303 224.342 78.8979 228.84 78.5735C231.084 78.4136 233.335 78.448 235.506 78.8318C237.681 79.2086 239.772 79.9492 241.568 81.1343C242.002 81.4574 242.429 81.7782 242.851 82.1133C243.227 82.4889 243.651 82.8408 243.996 83.2378C244.32 83.6516 244.694 84.0344 244.952 84.4981C245.092 84.7217 245.242 84.9405 245.379 85.1712L245.735 85.8919C246.684 87.8304 247.142 90.0424 247.434 92.2703C248.03 96.7383 247.82 101.437 248.616 106.093C249.307 110.681 250.135 115.244 251.017 119.785L252.364 126.589L253.043 129.988C253.264 131.127 253.529 132.257 253.652 133.332C253.913 135.533 253.853 137.81 253.558 140.023C253.235 142.227 252.661 144.417 251.633 146.342C250.617 148.255 249.133 149.921 247.192 150.743C246.227 151.161 245.194 151.403 244.121 151.479C243.048 151.508 241.956 151.474 240.878 151.237C239.799 151.047 238.731 150.709 237.682 150.338C236.64 149.945 235.61 149.492 234.538 149.024C232.419 148.082 230.274 147.195 228.1 146.37C223.759 144.723 219.311 143.295 214.779 142.256C210.25 141.185 205.66 140.462 201.1 139.765C198.82 139.417 196.543 139.061 194.275 138.677C192.022 138.273 189.793 137.822 187.635 137.115C185.479 136.424 183.375 135.559 181.429 134.435C180.451 133.879 179.533 133.24 178.667 132.539C178.236 132.184 177.826 131.813 177.447 131.421C177.064 131.043 176.698 130.591 176.444 130.208L175.981 131.196C180.299 130.507 184.758 130.793 189.107 131.546C193.46 132.31 197.746 133.53 201.906 135.076C203.992 135.831 206.039 136.701 208.065 137.611C209.075 138.074 210.073 138.548 211.052 139.056C211.527 139.305 212.05 139.578 212.444 139.832C212.828 140.114 213.187 140.468 213.458 140.872C214.016 141.677 214.222 142.651 213.896 143.517C213.597 144.4 212.834 145.142 211.978 145.733C210.234 146.918 208.106 147.606 205.994 148.179C203.865 148.73 201.677 149.077 199.465 149.424C197.263 149.766 195.059 150.067 192.845 150.302C188.43 150.782 183.966 151.006 179.565 150.787C178.471 150.713 177.372 150.604 176.327 150.386C175.806 150.274 175.292 150.139 174.829 149.95C174.363 149.768 173.94 149.505 173.755 149.226C173.582 148.96 173.595 148.708 173.825 148.242C174.06 147.761 174.299 147.29 174.596 146.862C175.171 145.992 175.914 145.284 176.809 144.931C177.704 144.578 178.736 144.6 179.745 144.83C180.757 145.052 181.765 145.498 182.763 145.948C184.745 146.868 186.633 148.02 188.441 149.289C190.239 150.563 192.02 151.935 193.679 153.361C195.349 154.824 197.053 156.306 198.606 157.833C198.694 157.926 198.789 158.023 198.858 158.102C198.882 158.126 198.896 158.155 198.896 158.155L198.913 158.177C198.913 158.177 198.887 158.136 198.877 158.117C198.91 158.28 198.695 157.711 199.013 157.434L198.979 157.463L198.909 157.527C198.738 157.701 198.544 157.851 198.342 157.999C197.938 158.294 197.482 158.532 196.997 158.736C196.035 159.146 194.989 159.424 193.925 159.616C191.795 160.006 189.582 160.073 187.387 159.993C182.987 159.839 178.563 159.284 174.296 158.198C173.232 157.917 172.177 157.608 171.162 157.232C170.163 156.853 169.119 156.419 168.409 155.827C168.242 155.682 168.128 155.523 168.105 155.451C168.091 155.398 168.074 155.425 168.175 155.291C168.218 155.234 168.31 155.177 168.387 155.115L168.692 154.946C168.891 154.829 169.133 154.751 169.361 154.668C170.32 154.385 171.405 154.345 172.473 154.402C174.634 154.535 176.8 155.053 178.913 155.681C181.033 156.311 183.124 157.076 185.186 157.903C186.218 158.324 187.238 158.758 188.251 159.213L189.003 159.564C189.232 159.666 189.48 159.83 189.717 159.958L191.154 160.789C193.024 161.968 194.827 163.275 196.454 164.771C198.081 166.267 199.53 167.958 200.638 169.855C201.746 171.751 202.556 173.842 202.796 176.036C203.375 180.387 201.996 184.953 199.456 188.391L199.427 188.429C199.231 188.699 199.289 189.07 199.552 189.263C199.814 189.456 200.193 189.401 200.386 189.138L200.405 189.104L200.405 189.128Z"/>
</mask>
<path d="M200.405 189.128C201.675 187.126 202.484 184.999 203.044 182.779C203.316 181.671 203.461 180.536 203.536 179.393C203.61 178.257 203.575 177.109 203.399 175.977C203.093 173.72 202.288 171.542 201.167 169.569C200.035 167.601 198.56 165.845 196.909 164.301C195.259 162.757 193.437 161.411 191.542 160.185L190.089 159.308C189.617 159.004 189.082 158.743 188.585 158.51C187.572 158.031 186.548 157.564 185.513 157.125C183.447 156.241 181.35 155.426 179.198 154.745C177.042 154.078 174.845 153.486 172.541 153.281C171.387 153.194 170.202 153.201 169.006 153.524C168.708 153.623 168.406 153.713 168.123 153.865L167.693 154.095C167.546 154.198 167.4 154.3 167.253 154.45C167.108 154.593 166.971 154.787 166.886 155.038C166.801 155.289 166.799 155.577 166.87 155.817C167.013 156.29 167.28 156.564 167.52 156.798C168.524 157.658 169.587 158.083 170.662 158.519C171.737 158.931 172.825 159.26 173.922 159.56C176.112 160.15 178.331 160.582 180.57 160.908C182.805 161.226 185.066 161.464 187.331 161.479C189.596 161.494 191.878 161.387 194.152 160.973C195.288 160.758 196.42 160.461 197.51 159.982C198.055 159.743 198.59 159.46 199.09 159.093C199.335 158.912 199.585 158.717 199.804 158.495L199.888 158.411L199.934 158.371C200.254 158.063 200.044 157.456 200.056 157.588C200.032 157.539 199.996 157.479 199.97 157.439L199.92 157.374C199.887 157.33 199.854 157.287 199.83 157.263C199.716 157.128 199.613 157.029 199.513 156.924C197.865 155.324 196.18 153.881 194.481 152.409C192.741 150.939 190.967 149.593 189.117 148.286C187.261 146.992 185.323 145.8 183.25 144.841C182.216 144.378 181.168 143.911 179.989 143.639C178.831 143.375 177.532 143.319 176.329 143.8C175.13 144.274 174.201 145.199 173.551 146.196C173.209 146.688 172.935 147.212 172.683 147.743C172.553 147.987 172.409 148.386 172.383 148.77C172.357 149.177 172.489 149.614 172.707 149.936C173.166 150.587 173.78 150.875 174.339 151.113C174.907 151.346 175.481 151.492 176.048 151.612C177.191 151.848 178.328 151.961 179.46 152.04C183.986 152.269 188.479 152.031 192.951 151.546C195.184 151.302 197.408 150.991 199.624 150.654C201.836 150.307 204.067 149.951 206.265 149.383C208.45 148.787 210.663 148.104 212.636 146.764C213.6 146.09 214.553 145.213 215.002 143.956C215.228 143.337 215.285 142.651 215.171 141.996C215.055 141.349 214.778 140.751 214.426 140.231C214.077 139.705 213.627 139.264 213.107 138.888C212.563 138.536 212.086 138.294 211.577 138.025C210.572 137.501 209.559 137.021 208.535 136.554C206.483 135.627 204.412 134.757 202.302 133.978C198.092 132.391 193.746 131.134 189.302 130.332C184.86 129.547 180.277 129.227 175.741 129.922L175.72 129.915C175.363 129.978 175.124 130.305 175.179 130.66C175.196 130.754 175.231 130.838 175.276 130.917C175.661 131.504 176.032 131.942 176.465 132.385C176.884 132.823 177.33 133.23 177.792 133.611C178.717 134.372 179.693 135.055 180.724 135.645C182.772 136.843 184.957 137.752 187.19 138.476C189.415 139.222 191.722 139.7 194.011 140.116C196.291 140.512 198.573 140.878 200.855 141.243C205.415 141.964 209.955 142.694 214.409 143.771C218.874 144.82 223.238 146.235 227.515 147.885C229.658 148.707 231.77 149.599 233.867 150.534C234.903 150.989 235.992 151.478 237.103 151.903C238.222 152.306 239.369 152.67 240.558 152.889C241.739 153.153 242.974 153.212 244.203 153.172C245.436 153.094 246.682 152.812 247.834 152.314C250.191 151.328 251.949 149.322 253.096 147.19C254.252 145.028 254.866 142.675 255.226 140.316C255.554 137.954 255.62 135.567 255.35 133.179C255.206 131.954 254.939 130.831 254.73 129.703L254.061 126.299L252.736 119.503C251.874 114.969 251.063 110.428 250.391 105.878C249.63 101.403 249.861 96.7826 249.257 92.0798C248.953 89.7439 248.485 87.3522 247.41 85.123L247.003 84.2966C246.846 84.0275 246.67 83.7678 246.511 83.5058C246.208 82.9628 245.772 82.503 245.38 82.0098C244.97 81.543 244.499 81.143 244.063 80.7071C243.586 80.3215 243.088 79.9525 242.587 79.5906C240.521 78.2341 238.164 77.4276 235.792 77.0236C233.412 76.6172 231.015 76.5894 228.661 76.7679C223.932 77.1344 219.375 78.319 214.94 79.7535C210.512 81.2143 206.2 82.9945 201.988 84.9524C197.785 86.9057 193.651 89.0821 189.605 91.2565C185.417 93.519 181.757 96.4646 178.359 99.675C171.565 106.137 166.339 114.034 162.255 122.382C158.252 130.726 154.486 139.174 149.877 147.137C147.571 151.11 145.018 154.942 142.113 158.488C139.214 162.044 135.981 165.31 132.526 168.333C131.651 169.077 130.799 169.845 129.9 170.565L127.204 172.716C125.428 174.043 123.372 175.179 121.422 176.407C119.449 177.628 117.484 178.875 115.604 180.27C114.664 180.968 113.743 181.705 112.877 182.516C112.011 183.327 111.187 184.224 110.556 185.331C110.249 185.883 110.016 186.524 109.962 187.226C109.924 187.926 110.062 188.557 110.255 189.143C110.639 190.321 111.215 191.381 111.842 192.386C113.112 194.393 114.637 196.19 116.287 197.854C117.947 199.513 119.751 201.029 121.751 202.299C122.765 202.915 123.806 203.499 124.933 203.946C126.056 204.382 127.288 204.711 128.595 204.626C129.251 204.601 129.911 204.4 130.532 204.122C130.818 203.939 131.128 203.78 131.381 203.553C131.619 203.322 131.905 203.115 132.093 202.842C132.517 202.346 132.877 201.732 133.07 201.045C133.268 200.367 133.245 199.631 133.096 198.964C132.455 196.234 129.677 194.476 126.929 194.778C125.559 194.929 124.313 195.636 123.389 196.523C122.44 197.41 121.729 198.449 121.143 199.516C120.541 200.584 120.09 201.704 119.73 202.838C119.54 203.398 119.369 203.973 119.227 204.557C119.054 205.139 118.965 205.709 118.854 206.271C118.411 208.546 117.991 210.821 117.505 213.081L116.795 216.474C116.53 217.609 116.354 218.742 115.875 219.684C115.619 220.134 115.341 220.6 114.956 220.838C114.581 221.095 114.179 221.151 113.804 220.959C113.434 220.778 113.096 220.383 112.905 219.91C112.675 219.456 112.57 218.917 112.494 218.387C112.444 217.849 112.43 217.3 112.481 216.749C112.508 216.198 112.609 215.688 112.839 215.246C113.059 214.808 113.396 214.474 113.84 214.297C114.279 214.109 114.801 214.078 115.318 214.133C116.371 214.258 117.388 214.723 118.35 215.305C119.305 215.884 120.201 216.588 121.04 217.345C122.712 218.872 124.225 220.657 126.01 222.183C126.902 222.949 127.855 223.649 128.867 224.248C129.865 224.842 130.882 225.403 131.925 225.932C133.998 226.987 137.167 227.511 139.375 228.26L139.161 227.908C135.795 229.513 131.443 230.963 127.877 232.076C126.093 232.624 124.285 233.099 122.454 233.431C120.63 233.742 118.759 233.956 116.958 233.73C116.063 233.61 115.161 233.417 114.397 232.982C113.622 232.559 113.022 231.924 112.633 231.136C112.243 230.355 112.094 229.472 112.295 228.644C112.51 227.82 113.041 227.08 113.695 226.493C115.03 225.313 116.825 224.64 118.607 224.452C119.508 224.365 120.417 224.417 121.264 224.656C122.112 224.888 122.89 225.351 123.433 226.015C123.984 226.675 124.272 227.524 124.358 228.402C124.452 229.282 124.348 230.2 124.138 231.081C123.942 231.967 123.626 232.828 123.224 233.66C122.838 234.49 122.353 235.286 121.844 236.058C119.756 239.128 117.07 241.771 114.484 244.497C113.191 245.859 111.885 247.234 110.685 248.7C109.485 250.166 108.351 251.719 107.506 253.457C106.652 255.177 106.143 257.149 106.262 259.11C106.359 261.064 106.928 262.946 107.721 264.687C109.335 268.179 111.782 271.194 114.579 273.766C117.386 276.334 120.582 278.482 124.041 280.07C127.492 281.656 131.264 282.695 135.075 282.865C138.863 283.125 142.664 282.972 146.42 282.501C153.943 281.552 161.226 279.427 168.38 277.113L179.087 273.586C182.661 272.428 186.244 271.289 189.806 270.072C196.923 267.633 204.003 264.878 210.529 260.999C211.343 260.507 212.16 260.031 212.941 259.495C213.734 258.972 214.524 258.455 215.279 257.879L216.428 257.036C216.806 256.747 217.164 256.421 217.539 256.116C218.302 255.518 218.938 254.797 219.624 254.117C220.888 252.672 222.087 251.142 222.972 249.425C223.482 248.605 223.803 247.681 224.217 246.813C224.504 245.894 224.887 245 225.06 244.042C226.005 240.288 225.718 236.205 224.184 232.619C223.724 231.759 223.36 230.852 222.768 230.075C222.488 229.676 222.236 229.262 221.934 228.88L220.977 227.787L220.499 227.241L219.97 226.749L218.913 225.767L217.773 224.884C217.396 224.581 217.012 224.298 216.599 224.054L215.385 223.275L214.113 222.595C213.277 222.112 212.369 221.796 211.497 221.397C209.696 220.746 207.862 220.165 205.985 219.833C202.237 219.075 198.392 219.005 194.606 219.306C190.816 219.638 187.067 220.417 183.465 221.661C179.869 222.908 176.433 224.649 173.302 226.813C167.018 231.158 161.97 236.995 157.646 243.173C153.375 249.409 149.4 255.785 145.543 262.258C141.702 268.736 138.058 275.337 134.66 282.061C134.517 282.34 134.616 282.686 134.89 282.843C136.969 284.068 138.997 285.491 140.933 286.972C142.866 288.459 144.732 290.052 146.447 291.786C148.166 293.505 149.789 295.344 151.119 297.363L151.632 298.113C151.803 298.363 151.933 298.64 152.085 298.899C152.369 299.428 152.69 299.944 152.955 300.483L153.667 302.132C153.799 302.401 153.887 302.687 153.964 302.977L154.215 303.839L154.467 304.701L154.642 305.6C154.751 306.198 154.891 306.797 154.974 307.402L155.24 309.212L155.438 311.033C155.66 313.469 155.709 315.918 155.722 318.38C155.735 320.842 155.731 323.329 155.909 325.823C156.08 328.314 156.452 330.801 157.028 333.229C157.292 334.455 157.68 335.643 158.019 336.839C158.388 338.012 158.751 339.184 159.084 340.369C159.763 342.728 160.366 345.101 160.767 347.503C161.168 349.904 161.368 352.332 161.288 354.762C161.222 357.197 160.934 359.629 160.559 362.055C160.194 364.476 155.595 360.816 155.246 363.283C154.886 365.738 146.773 352.522 146.625 355.009C146.342 359.971 158.338 363.066 159.559 367.954C159.641 368.278 170.696 343.04 170.516 366.434C172.396 346.5 165.617 378.578 185.052 373.449L194.344 369.241C195.153 367.49 191.836 379.226 192.834 377.532C193.842 375.832 186.639 374.998 187.74 373.354C189.949 370.068 171.322 375.107 173.781 372.002C178.746 365.841 184.02 359.785 188.202 352.918C190.263 349.479 192.035 345.782 192.911 341.805C193.355 339.834 193.627 337.805 193.653 335.773C193.683 333.75 193.543 331.758 193.515 329.788C193.478 327.822 193.555 325.871 193.975 323.997C194.404 322.117 195.111 320.292 195.918 318.5C197.536 314.927 199.55 311.343 200.24 307.255L200.622 304.287C200.714 303.31 200.978 302.367 201.15 301.409C201.369 300.458 201.661 299.525 201.939 298.587L202.444 297.213L202.695 296.522L202.993 295.854C204.554 292.262 206.708 288.95 209.15 285.847C211.58 282.733 214.234 279.783 216.851 276.78C218.154 275.269 219.467 273.777 220.721 272.201C221.964 270.629 223.146 269.005 224.257 267.332C228.684 260.637 232.066 253.347 234.998 245.921C236.433 242.181 237.644 238.398 239.076 234.713C240.499 231.033 242.187 227.444 244.462 224.269C249.203 217.992 254.843 212.316 261.021 207.414C267.217 202.551 274.073 198.359 281.581 196.062C285.356 194.948 289.225 194.026 293.113 193.591C295.056 193.401 297.022 193.307 298.919 193.558C300.817 193.785 302.679 194.376 304.099 195.537C305.549 196.685 306.348 198.453 306.698 200.3C307.006 202.173 306.935 204.126 306.659 206.049C306.366 207.975 305.913 209.878 305.273 211.719C304.634 213.559 303.774 215.316 302.769 216.985C300.776 220.343 298.062 223.233 295.034 225.705C291.981 228.159 288.556 230.128 285.019 231.907C281.488 233.695 277.864 235.357 274.351 237.279C272.593 238.244 270.868 239.277 269.212 240.412C267.542 241.543 265.977 242.837 264.476 244.13C262.968 245.419 261.474 246.714 259.869 247.795C258.273 248.871 256.521 249.725 254.686 249.88C252.848 250.066 251.042 249.333 249.494 248.265C247.937 247.152 246.58 245.78 245.955 244.04C244.62 240.594 246.722 236.28 250.091 234.924C250.921 234.598 251.817 234.501 252.644 234.725C253.459 234.938 254.223 235.468 254.659 236.161C255.108 236.865 255.273 237.769 255.249 238.69C255.232 239.612 255.062 240.563 254.827 241.492C253.813 245.238 252.017 248.815 250.317 252.393C249.455 254.182 248.584 255.976 247.764 257.803C246.94 259.693 246.478 261.833 246.738 263.922C246.947 266.018 247.721 267.953 248.535 269.774C249.354 271.604 250.283 273.367 250.922 275.185C251.575 276.983 251.89 278.906 251.976 280.848C252.051 282.795 251.928 284.762 251.771 286.734C251.463 290.663 250.919 294.721 251.637 298.782C251.992 300.775 252.64 302.827 253.828 304.534C254.977 306.261 256.451 307.737 258.075 308.959C261.332 311.424 265.056 313.078 268.822 314.418C272.605 315.756 276.478 316.757 280.364 317.625L286.194 318.889C288.16 319.291 290.174 319.622 292.189 319.688C294.207 319.772 296.223 319.743 298.221 319.532C300.224 319.354 302.213 319.027 304.176 318.612C308.105 317.775 311.94 316.553 315.64 315.022C319.345 313.5 322.931 311.69 326.359 309.619C329.792 307.556 333.072 305.235 336.139 302.648C339.217 300.074 342.058 297.211 344.57 294.068C345.804 292.478 346.969 290.832 347.994 289.082C348.999 287.342 349.924 285.558 350.764 283.738C351.593 281.906 352.338 280.037 352.997 278.14C353.635 276.235 354.186 274.301 354.635 272.34C355.062 270.371 355.392 268.386 355.606 266.386C355.799 264.378 355.874 262.363 355.83 260.347C355.653 256.317 355.136 252.372 354.652 248.422C353.643 240.549 352.673 232.633 353.738 224.798C354.707 216.938 356.435 209.176 358.655 201.564C359.762 197.754 360.984 193.982 362.302 190.235L364.318 184.619C364.998 182.729 365.535 180.79 366.02 178.841C366.908 174.924 367.435 170.893 367.277 166.853L367.206 165.341C367.168 164.839 367.106 164.338 367.054 163.832C366.973 162.82 366.763 161.837 366.599 160.837C366.173 158.86 365.665 156.894 364.885 155.021C364.177 153.125 363.209 151.332 362.175 149.597C361.126 147.905 360.058 146.222 358.977 144.551C356.817 141.21 354.577 137.914 352.322 134.636C350.078 131.355 347.806 128.104 345.679 124.758C344.603 123.096 343.598 121.395 342.604 119.681C341.622 117.956 340.745 116.226 339.785 114.436C337.851 110.899 335.417 107.633 332.528 104.813C329.648 101.989 326.34 99.6271 322.829 97.6767C322.54 97.5148 322.176 97.6234 322.016 97.9055C321.854 98.1947 321.962 98.5595 322.244 98.719C325.691 100.6 328.923 102.879 331.748 105.606C334.575 108.325 336.971 111.49 338.882 114.931C339.819 116.649 340.731 118.462 341.715 120.181C342.721 121.906 343.739 123.62 344.819 125.29C346.965 128.651 349.241 131.912 351.496 135.189C353.753 138.459 355.99 141.738 358.146 145.07C360.268 148.431 362.587 151.682 363.971 155.36C364.722 157.175 365.224 159.09 365.645 161.01C365.802 161.983 366.013 162.943 366.086 163.929C366.136 164.418 366.203 164.905 366.236 165.396L366.303 166.875C366.461 170.819 365.953 174.769 365.087 178.621C364.219 182.481 362.703 186.153 361.38 189.914C360.045 193.664 358.816 197.457 357.686 201.284C355.44 208.927 353.681 216.735 352.681 224.664C352.135 228.632 352.094 232.668 352.302 236.653C352.515 240.647 352.994 244.611 353.464 248.556C353.919 252.496 354.422 256.46 354.542 260.375C354.565 262.335 354.461 264.293 354.256 266.241C354.028 268.188 353.685 270.121 353.246 272.029C352.793 273.932 352.227 275.814 351.592 277.663C350.933 279.513 350.184 281.324 349.36 283.094C348.527 284.868 347.577 286.587 346.579 288.258C345.571 289.909 344.423 291.481 343.208 292.99C338.211 298.964 331.883 303.767 325.104 307.544C321.71 309.444 318.189 311.084 314.576 312.452C310.968 313.831 307.261 314.887 303.52 315.573C299.79 316.294 296.01 316.621 292.329 316.398L290.953 316.308L289.597 316.136C289.14 316.094 288.7 316 288.25 315.912C287.793 315.821 287.382 315.762 286.879 315.64L281.085 314.364C277.264 313.518 273.505 312.556 269.904 311.295C266.317 310.04 262.856 308.483 260.031 306.349C258.614 305.292 257.412 304.076 256.509 302.73C255.561 301.4 255.097 299.939 254.757 298.206C254.105 294.8 254.535 290.984 254.835 286.964C254.982 284.949 255.106 282.862 255 280.697C254.892 278.539 254.519 276.292 253.709 274.152C252.928 272.047 251.973 270.314 251.168 268.561C250.364 266.832 249.704 265.192 249.538 263.607C249.315 262.026 249.627 260.467 250.268 258.907C251.026 257.14 251.884 255.341 252.717 253.543C253.56 251.739 254.41 249.915 255.201 248.03C255.984 246.142 256.742 244.214 257.266 242.102C257.52 241.044 257.723 239.928 257.729 238.706C257.749 238.104 257.674 237.454 257.539 236.792C257.372 236.128 257.139 235.448 256.721 234.818C256.315 234.2 255.779 233.635 255.183 233.249C254.603 232.836 253.944 232.541 253.253 232.362C252.56 232.168 251.839 232.147 251.152 232.195C250.471 232.268 249.817 232.431 249.215 232.675C246.822 233.673 245.158 235.542 244.155 237.699C243.147 239.847 242.97 242.492 243.851 244.775C244.28 245.913 244.933 246.935 245.712 247.799C246.09 248.239 246.516 248.632 246.941 248.984L248.247 249.987C248.71 250.296 249.218 250.564 249.705 250.849C250.195 251.127 250.778 251.293 251.311 251.513C251.863 251.7 252.468 251.778 253.042 251.9C253.636 251.917 254.234 251.968 254.821 251.911C257.2 251.684 259.231 250.596 260.959 249.413C262.694 248.208 264.207 246.856 265.699 245.544C267.185 244.223 268.643 242.989 270.234 241.879C271.813 240.757 273.471 239.734 275.18 238.769C278.593 236.836 282.196 235.168 285.754 233.324C289.312 231.505 292.84 229.443 295.993 226.862C299.124 224.273 301.932 221.223 304.001 217.69C305.038 215.929 305.922 214.075 306.586 212.139C307.243 210.201 307.701 208.211 307.992 206.197C308.259 204.182 308.333 202.102 307.973 200.028C307.763 198.996 307.445 197.976 306.945 197.022C306.452 196.071 305.736 195.212 304.902 194.537C303.214 193.172 301.13 192.53 299.101 192.219C297.054 191.893 295.004 191.879 292.964 191.956C290.924 192.033 288.899 192.275 286.898 192.589C284.883 192.899 282.932 193.302 280.959 193.866C278.971 194.425 277.035 195.137 275.177 195.996C274.243 196.416 273.31 196.836 272.409 197.323C271.502 197.784 270.59 198.259 269.718 198.78C266.185 200.808 262.842 203.125 259.677 205.646C256.513 208.168 253.513 210.888 250.696 213.776C247.86 216.672 245.255 219.711 242.819 223.032C240.426 226.439 238.717 230.206 237.306 233.969C235.883 237.745 234.713 241.55 233.345 245.233C230.533 252.587 227.276 259.839 223.007 266.445C221.937 268.091 220.801 269.699 219.598 271.244C218.402 272.792 217.087 274.291 215.807 275.802C213.222 278.808 210.565 281.789 208.111 284.975C205.649 288.135 203.44 291.564 201.847 295.298L201.539 295.994L201.281 296.707L200.766 298.133C200.485 299.103 200.188 300.074 199.965 301.063C199.787 302.059 199.525 303.043 199.431 304.052L199.063 307.001C198.439 310.823 196.496 314.318 194.848 317.954C194.029 319.781 193.288 321.683 192.835 323.682C192.393 325.693 192.315 327.74 192.361 329.749C192.401 331.755 192.536 333.738 192.513 335.691C192.5 337.64 192.236 339.575 191.809 341.495C190.967 345.324 189.267 348.901 187.25 352.284C185.204 355.656 182.862 358.864 180.426 361.993C177.996 365.131 175.416 368.146 172.94 371.277C170.464 374.408 166.932 362.736 164.711 366.057C163.606 367.715 162.04 363.42 161.025 365.141C160.007 366.87 158.632 361.422 157.782 363.271L147.985 357.728L167.153 366.148C165.96 361.413 157.294 366.831 157.569 361.938C157.712 359.489 163.989 369.977 164.342 367.543C164.686 365.114 161.149 364.608 161.526 362.15C161.908 359.703 162.201 357.233 162.279 354.738C162.365 352.246 162.165 349.745 161.752 347.284C161.346 344.826 160.732 342.416 160.053 340.033C159.386 337.638 158.558 335.317 158.021 332.941C157.459 330.566 157.106 328.141 156.934 325.698C156.763 323.255 156.774 320.794 156.764 318.325C156.766 313.388 156.525 308.368 155.254 303.511L154.988 302.596C154.909 302.289 154.812 301.984 154.677 301.698L153.932 299.957C153.66 299.393 153.33 298.857 153.032 298.299C152.875 298.03 152.733 297.742 152.557 297.482L152.03 296.703C150.655 294.605 148.992 292.72 147.232 290.955C145.484 289.179 143.587 287.559 141.615 286.043C139.643 284.526 137.616 283.102 135.451 281.825L135.665 282.537C139.061 275.844 142.702 269.275 146.544 262.821C150.395 256.387 154.365 249.977 158.708 243.885C163.105 237.868 168.228 232.328 174.352 228.313C180.458 224.284 187.504 221.958 194.772 221.267C198.394 220.934 202.064 220.953 205.635 221.571C207.432 221.836 209.167 222.352 210.886 222.918C211.717 223.272 212.582 223.549 213.377 223.987L214.585 224.596L215.745 225.302C216.141 225.524 216.509 225.784 216.871 226.059L217.966 226.862L218.981 227.759L219.493 228.205L219.948 228.703L220.859 229.692C221.142 230.036 221.389 230.416 221.651 230.777C222.219 231.481 222.567 232.32 223.005 233.101C223.185 233.514 223.329 233.938 223.489 234.361L223.73 234.995L223.892 235.65C223.99 236.091 224.115 236.526 224.196 236.97L224.354 238.32C224.461 240.125 224.368 241.958 223.903 243.73C223.75 244.63 223.384 245.474 223.106 246.341C222.707 247.166 222.398 248.03 221.91 248.809C221.063 250.435 219.913 251.87 218.707 253.238C218.052 253.872 217.442 254.562 216.719 255.117C216.365 255.406 216.031 255.708 215.658 255.982L214.526 256.799C213.786 257.357 213 257.859 212.229 258.366C211.46 258.889 210.655 259.353 209.855 259.826C203.426 263.586 196.383 266.161 189.283 268.478C185.726 269.633 182.134 270.705 178.532 271.805L167.773 275.154C160.643 277.396 153.464 279.429 146.169 280.294C142.525 280.716 138.873 280.927 135.24 280.68C131.642 280.542 128.209 279.61 124.927 278.138C121.657 276.678 118.587 274.7 115.897 272.308C113.214 269.918 110.868 267.098 109.339 263.923C108.586 262.347 108.054 260.662 107.948 258.993C107.816 257.332 108.203 255.694 108.946 254.113C109.676 252.528 110.723 251.042 111.868 249.621C113.015 248.193 114.27 246.825 115.549 245.458C118.094 242.711 120.793 240.008 122.951 236.753C124.006 235.126 124.968 233.347 125.408 231.343C125.638 230.357 125.756 229.324 125.64 228.252C125.536 227.192 125.163 226.074 124.421 225.198C123.688 224.317 122.667 223.723 121.632 223.452C120.594 223.165 119.538 223.119 118.52 223.222C116.486 223.445 114.512 224.177 112.917 225.581C112.135 226.285 111.45 227.221 111.159 228.339C110.88 229.469 111.101 230.68 111.592 231.639C112.06 232.614 112.898 233.49 113.853 233.998C114.808 234.53 115.839 234.743 116.834 234.872C118.839 235.112 120.785 234.867 122.678 234.54C124.569 234.196 126.417 233.694 128.23 233.132C131.857 231.984 135.362 230.579 138.812 228.938C139.181 228.767 140.113 228.244 139.936 227.871C139.848 227.682 139.203 227.451 139.016 227.388L138.689 227.277C136.538 226.548 134.475 225.956 132.443 224.923C131.426 224.41 130.431 223.857 129.452 223.277C128.485 222.71 127.596 222.056 126.748 221.328C125.036 219.868 123.549 218.123 121.803 216.507C120.922 215.712 119.982 214.97 118.947 214.346C117.925 213.728 116.769 213.176 115.47 213.024C114.824 212.949 114.118 212.982 113.448 213.259C112.774 213.527 112.199 214.093 111.889 214.724C111.565 215.35 111.446 216.03 111.416 216.637C111.36 217.25 111.367 217.868 111.435 218.492C111.52 219.113 111.649 219.749 111.94 220.352C112.2 220.952 112.642 221.558 113.351 221.918C113.516 222.022 113.714 222.074 113.918 222.11C114.016 222.128 114.121 222.147 114.221 222.157L114.526 222.132L114.827 222.091C114.919 222.058 115.01 222.024 115.103 221.984C115.281 221.908 115.473 221.837 115.603 221.713C116.232 221.294 116.559 220.708 116.883 220.154C117.021 219.865 117.128 219.573 117.249 219.286C117.349 218.991 117.417 218.694 117.503 218.395C117.654 217.806 117.76 217.258 117.888 216.693L118.648 213.317L120.171 206.558C120.299 205.993 120.412 205.423 120.59 204.899C120.741 204.358 120.914 203.824 121.116 203.3C121.493 202.235 121.953 201.207 122.509 200.251C123.057 199.292 123.714 198.394 124.508 197.678C125.299 196.97 126.231 196.438 127.221 196.277C128.208 196.123 129.241 196.329 130.074 196.892C130.913 197.432 131.538 198.3 131.746 199.243C131.969 200.191 131.7 201.149 131.052 201.929C130.748 202.331 130.359 202.631 129.945 202.883C129.501 203.085 129.038 203.248 128.533 203.277C127.52 203.365 126.441 203.128 125.419 202.749C124.389 202.368 123.391 201.846 122.439 201.259C120.537 200.055 118.778 198.594 117.163 196.99C115.558 195.382 114.072 193.637 112.861 191.738C112.262 190.791 111.722 189.792 111.383 188.764C111.213 188.251 111.111 187.728 111.13 187.246C111.161 186.776 111.322 186.279 111.581 185.822C112.103 184.895 112.854 184.045 113.675 183.274C114.496 182.504 115.388 181.782 116.299 181.098C118.128 179.733 120.069 178.486 122.025 177.268C123.978 176.033 125.99 174.93 127.897 173.503L130.609 171.325C131.518 170.601 132.375 169.819 133.26 169.07C136.755 166.021 140.067 162.733 143.02 159.14C143.774 158.259 144.48 157.329 145.18 156.398C145.905 155.483 146.545 154.516 147.23 153.579C147.561 153.099 147.922 152.645 148.26 152.167C148.598 151.69 148.933 151.219 149.29 150.756C150.011 149.831 150.679 148.873 151.355 147.918C152.045 146.967 152.68 145.99 153.276 144.983C153.878 143.987 154.441 142.961 154.955 141.918C156.024 139.848 157 137.745 157.929 135.619C159.805 131.381 161.44 127.028 163.323 122.816C163.819 121.776 164.287 120.726 164.802 119.7C165.339 118.682 166.036 117.757 166.666 116.794C167.275 115.824 167.905 114.861 168.545 113.917C169.194 112.969 169.795 111.996 170.487 111.086C173.129 107.347 176.126 103.857 179.457 100.727C182.78 97.6197 186.428 94.758 190.392 92.6599C194.507 90.4929 198.567 88.3953 202.763 86.4875C206.941 84.5822 211.193 82.8377 215.542 81.422C219.89 80.0303 224.342 78.8979 228.84 78.5735C231.084 78.4136 233.335 78.448 235.506 78.8318C237.681 79.2086 239.772 79.9492 241.568 81.1343C242.002 81.4574 242.429 81.7782 242.851 82.1133C243.227 82.4889 243.651 82.8408 243.996 83.2378C244.32 83.6516 244.694 84.0344 244.952 84.4981C245.092 84.7217 245.242 84.9405 245.379 85.1712L245.735 85.8919C246.684 87.8304 247.142 90.0424 247.434 92.2703C248.03 96.7383 247.82 101.437 248.616 106.093C249.307 110.681 250.135 115.244 251.017 119.785L252.364 126.589L253.043 129.988C253.264 131.127 253.529 132.257 253.652 133.332C253.913 135.533 253.853 137.81 253.558 140.023C253.235 142.227 252.661 144.417 251.633 146.342C250.617 148.255 249.133 149.921 247.192 150.743C246.227 151.161 245.194 151.403 244.121 151.479C243.048 151.508 241.956 151.474 240.878 151.237C239.799 151.047 238.731 150.709 237.682 150.338C236.64 149.945 235.61 149.492 234.538 149.024C232.419 148.082 230.274 147.195 228.1 146.37C223.759 144.723 219.311 143.295 214.779 142.256C210.25 141.185 205.66 140.462 201.1 139.765C198.82 139.417 196.543 139.061 194.275 138.677C192.022 138.273 189.793 137.822 187.635 137.115C185.479 136.424 183.375 135.559 181.429 134.435C180.451 133.879 179.533 133.24 178.667 132.539C178.236 132.184 177.826 131.813 177.447 131.421C177.064 131.043 176.698 130.591 176.444 130.208L175.981 131.196C180.299 130.507 184.758 130.793 189.107 131.546C193.46 132.31 197.746 133.53 201.906 135.076C203.992 135.831 206.039 136.701 208.065 137.611C209.075 138.074 210.073 138.548 211.052 139.056C211.527 139.305 212.05 139.578 212.444 139.832C212.828 140.114 213.187 140.468 213.458 140.872C214.016 141.677 214.222 142.651 213.896 143.517C213.597 144.4 212.834 145.142 211.978 145.733C210.234 146.918 208.106 147.606 205.994 148.179C203.865 148.73 201.677 149.077 199.465 149.424C197.263 149.766 195.059 150.067 192.845 150.302C188.43 150.782 183.966 151.006 179.565 150.787C178.471 150.713 177.372 150.604 176.327 150.386C175.806 150.274 175.292 150.139 174.829 149.95C174.363 149.768 173.94 149.505 173.755 149.226C173.582 148.96 173.595 148.708 173.825 148.242C174.06 147.761 174.299 147.29 174.596 146.862C175.171 145.992 175.914 145.284 176.809 144.931C177.704 144.578 178.736 144.6 179.745 144.83C180.757 145.052 181.765 145.498 182.763 145.948C184.745 146.868 186.633 148.02 188.441 149.289C190.239 150.563 192.02 151.935 193.679 153.361C195.349 154.824 197.053 156.306 198.606 157.833C198.694 157.926 198.789 158.023 198.858 158.102C198.882 158.126 198.896 158.155 198.896 158.155L198.913 158.177C198.913 158.177 198.887 158.136 198.877 158.117C198.91 158.28 198.695 157.711 199.013 157.434L198.979 157.463L198.909 157.527C198.738 157.701 198.544 157.851 198.342 157.999C197.938 158.294 197.482 158.532 196.997 158.736C196.035 159.146 194.989 159.424 193.925 159.616C191.795 160.006 189.582 160.073 187.387 159.993C182.987 159.839 178.563 159.284 174.296 158.198C173.232 157.917 172.177 157.608 171.162 157.232C170.163 156.853 169.119 156.419 168.409 155.827C168.242 155.682 168.128 155.523 168.105 155.451C168.091 155.398 168.074 155.425 168.175 155.291C168.218 155.234 168.31 155.177 168.387 155.115L168.692 154.946C168.891 154.829 169.133 154.751 169.361 154.668C170.32 154.385 171.405 154.345 172.473 154.402C174.634 154.535 176.8 155.053 178.913 155.681C181.033 156.311 183.124 157.076 185.186 157.903C186.218 158.324 187.238 158.758 188.251 159.213L189.003 159.564C189.232 159.666 189.48 159.83 189.717 159.958L191.154 160.789C193.024 161.968 194.827 163.275 196.454 164.771C198.081 166.267 199.53 167.958 200.638 169.855C201.746 171.751 202.556 173.842 202.796 176.036C203.375 180.387 201.996 184.953 199.456 188.391L199.427 188.429C199.231 188.699 199.289 189.07 199.552 189.263C199.814 189.456 200.193 189.401 200.386 189.138L200.405 189.104L200.405 189.128Z" fill="#CBE2D1"/>
<path d="M200.405 189.128C201.675 187.126 202.484 184.999 203.044 182.779C203.316 181.671 203.461 180.536 203.536 179.393C203.61 178.257 203.575 177.109 203.399 175.977C203.093 173.72 202.288 171.542 201.167 169.569C200.035 167.601 198.56 165.845 196.909 164.301C195.259 162.757 193.437 161.411 191.542 160.185L190.089 159.308C189.617 159.004 189.082 158.743 188.585 158.51C187.572 158.031 186.548 157.564 185.513 157.125C183.447 156.241 181.35 155.426 179.198 154.745C177.042 154.078 174.845 153.486 172.541 153.281C171.387 153.194 170.202 153.201 169.006 153.524C168.708 153.623 168.406 153.713 168.123 153.865L167.693 154.095C167.546 154.198 167.4 154.3 167.253 154.45C167.108 154.593 166.971 154.787 166.886 155.038C166.801 155.289 166.799 155.577 166.87 155.817C167.013 156.29 167.28 156.564 167.52 156.798C168.524 157.658 169.587 158.083 170.662 158.519C171.737 158.931 172.825 159.26 173.922 159.56C176.112 160.15 178.331 160.582 180.57 160.908C182.805 161.226 185.066 161.464 187.331 161.479C189.596 161.494 191.878 161.387 194.152 160.973C195.288 160.758 196.42 160.461 197.51 159.982C198.055 159.743 198.59 159.46 199.09 159.093C199.335 158.912 199.585 158.717 199.804 158.495L199.888 158.411L199.934 158.371C200.254 158.063 200.044 157.456 200.056 157.588C200.032 157.539 199.996 157.479 199.97 157.439L199.92 157.374C199.887 157.33 199.854 157.287 199.83 157.263C199.716 157.128 199.613 157.029 199.513 156.924C197.865 155.324 196.18 153.881 194.481 152.409C192.741 150.939 190.967 149.593 189.117 148.286C187.261 146.992 185.323 145.8 183.25 144.841C182.216 144.378 181.168 143.911 179.989 143.639C178.831 143.375 177.532 143.319 176.329 143.8C175.13 144.274 174.201 145.199 173.551 146.196C173.209 146.688 172.935 147.212 172.683 147.743C172.553 147.987 172.409 148.386 172.383 148.77C172.357 149.177 172.489 149.614 172.707 149.936C173.166 150.587 173.78 150.875 174.339 151.113C174.907 151.346 175.481 151.492 176.048 151.612C177.191 151.848 178.328 151.961 179.46 152.04C183.986 152.269 188.479 152.031 192.951 151.546C195.184 151.302 197.408 150.991 199.624 150.654C201.836 150.307 204.067 149.951 206.265 149.383C208.45 148.787 210.663 148.104 212.636 146.764C213.6 146.09 214.553 145.213 215.002 143.956C215.228 143.337 215.285 142.651 215.171 141.996C215.055 141.349 214.778 140.751 214.426 140.231C214.077 139.705 213.627 139.264 213.107 138.888C212.563 138.536 212.086 138.294 211.577 138.025C210.572 137.501 209.559 137.021 208.535 136.554C206.483 135.627 204.412 134.757 202.302 133.978C198.092 132.391 193.746 131.134 189.302 130.332C184.86 129.547 180.277 129.227 175.741 129.922L175.72 129.915C175.363 129.978 175.124 130.305 175.179 130.66C175.196 130.754 175.231 130.838 175.276 130.917C175.661 131.504 176.032 131.942 176.465 132.385C176.884 132.823 177.33 133.23 177.792 133.611C178.717 134.372 179.693 135.055 180.724 135.645C182.772 136.843 184.957 137.752 187.19 138.476C189.415 139.222 191.722 139.7 194.011 140.116C196.291 140.512 198.573 140.878 200.855 141.243C205.415 141.964 209.955 142.694 214.409 143.771C218.874 144.82 223.238 146.235 227.515 147.885C229.658 148.707 231.77 149.599 233.867 150.534C234.903 150.989 235.992 151.478 237.103 151.903C238.222 152.306 239.369 152.67 240.558 152.889C241.739 153.153 242.974 153.212 244.203 153.172C245.436 153.094 246.682 152.812 247.834 152.314C250.191 151.328 251.949 149.322 253.096 147.19C254.252 145.028 254.866 142.675 255.226 140.316C255.554 137.954 255.62 135.567 255.35 133.179C255.206 131.954 254.939 130.831 254.73 129.703L254.061 126.299L252.736 119.503C251.874 114.969 251.063 110.428 250.391 105.878C249.63 101.403 249.861 96.7826 249.257 92.0798C248.953 89.7439 248.485 87.3522 247.41 85.123L247.003 84.2966C246.846 84.0275 246.67 83.7678 246.511 83.5058C246.208 82.9628 245.772 82.503 245.38 82.0098C244.97 81.543 244.499 81.143 244.063 80.7071C243.586 80.3215 243.088 79.9525 242.587 79.5906C240.521 78.2341 238.164 77.4276 235.792 77.0236C233.412 76.6172 231.015 76.5894 228.661 76.7679C223.932 77.1344 219.375 78.319 214.94 79.7535C210.512 81.2143 206.2 82.9945 201.988 84.9524C197.785 86.9057 193.651 89.0821 189.605 91.2565C185.417 93.519 181.757 96.4646 178.359 99.675C171.565 106.137 166.339 114.034 162.255 122.382C158.252 130.726 154.486 139.174 149.877 147.137C147.571 151.11 145.018 154.942 142.113 158.488C139.214 162.044 135.981 165.31 132.526 168.333C131.651 169.077 130.799 169.845 129.9 170.565L127.204 172.716C125.428 174.043 123.372 175.179 121.422 176.407C119.449 177.628 117.484 178.875 115.604 180.27C114.664 180.968 113.743 181.705 112.877 182.516C112.011 183.327 111.187 184.224 110.556 185.331C110.249 185.883 110.016 186.524 109.962 187.226C109.924 187.926 110.062 188.557 110.255 189.143C110.639 190.321 111.215 191.381 111.842 192.386C113.112 194.393 114.637 196.19 116.287 197.854C117.947 199.513 119.751 201.029 121.751 202.299C122.765 202.915 123.806 203.499 124.933 203.946C126.056 204.382 127.288 204.711 128.595 204.626C129.251 204.601 129.911 204.4 130.532 204.122C130.818 203.939 131.128 203.78 131.381 203.553C131.619 203.322 131.905 203.115 132.093 202.842C132.517 202.346 132.877 201.732 133.07 201.045C133.268 200.367 133.245 199.631 133.096 198.964C132.455 196.234 129.677 194.476 126.929 194.778C125.559 194.929 124.313 195.636 123.389 196.523C122.44 197.41 121.729 198.449 121.143 199.516C120.541 200.584 120.09 201.704 119.73 202.838C119.54 203.398 119.369 203.973 119.227 204.557C119.054 205.139 118.965 205.709 118.854 206.271C118.411 208.546 117.991 210.821 117.505 213.081L116.795 216.474C116.53 217.609 116.354 218.742 115.875 219.684C115.619 220.134 115.341 220.6 114.956 220.838C114.581 221.095 114.179 221.151 113.804 220.959C113.434 220.778 113.096 220.383 112.905 219.91C112.675 219.456 112.57 218.917 112.494 218.387C112.444 217.849 112.43 217.3 112.481 216.749C112.508 216.198 112.609 215.688 112.839 215.246C113.059 214.808 113.396 214.474 113.84 214.297C114.279 214.109 114.801 214.078 115.318 214.133C116.371 214.258 117.388 214.723 118.35 215.305C119.305 215.884 120.201 216.588 121.04 217.345C122.712 218.872 124.225 220.657 126.01 222.183C126.902 222.949 127.855 223.649 128.867 224.248C129.865 224.842 130.882 225.403 131.925 225.932C133.998 226.987 137.167 227.511 139.375 228.26L139.161 227.908C135.795 229.513 131.443 230.963 127.877 232.076C126.093 232.624 124.285 233.099 122.454 233.431C120.63 233.742 118.759 233.956 116.958 233.73C116.063 233.61 115.161 233.417 114.397 232.982C113.622 232.559 113.022 231.924 112.633 231.136C112.243 230.355 112.094 229.472 112.295 228.644C112.51 227.82 113.041 227.08 113.695 226.493C115.03 225.313 116.825 224.64 118.607 224.452C119.508 224.365 120.417 224.417 121.264 224.656C122.112 224.888 122.89 225.351 123.433 226.015C123.984 226.675 124.272 227.524 124.358 228.402C124.452 229.282 124.348 230.2 124.138 231.081C123.942 231.967 123.626 232.828 123.224 233.66C122.838 234.49 122.353 235.286 121.844 236.058C119.756 239.128 117.07 241.771 114.484 244.497C113.191 245.859 111.885 247.234 110.685 248.7C109.485 250.166 108.351 251.719 107.506 253.457C106.652 255.177 106.143 257.149 106.262 259.11C106.359 261.064 106.928 262.946 107.721 264.687C109.335 268.179 111.782 271.194 114.579 273.766C117.386 276.334 120.582 278.482 124.041 280.07C127.492 281.656 131.264 282.695 135.075 282.865C138.863 283.125 142.664 282.972 146.42 282.501C153.943 281.552 161.226 279.427 168.38 277.113L179.087 273.586C182.661 272.428 186.244 271.289 189.806 270.072C196.923 267.633 204.003 264.878 210.529 260.999C211.343 260.507 212.16 260.031 212.941 259.495C213.734 258.972 214.524 258.455 215.279 257.879L216.428 257.036C216.806 256.747 217.164 256.421 217.539 256.116C218.302 255.518 218.938 254.797 219.624 254.117C220.888 252.672 222.087 251.142 222.972 249.425C223.482 248.605 223.803 247.681 224.217 246.813C224.504 245.894 224.887 245 225.06 244.042C226.005 240.288 225.718 236.205 224.184 232.619C223.724 231.759 223.36 230.852 222.768 230.075C222.488 229.676 222.236 229.262 221.934 228.88L220.977 227.787L220.499 227.241L219.97 226.749L218.913 225.767L217.773 224.884C217.396 224.581 217.012 224.298 216.599 224.054L215.385 223.275L214.113 222.595C213.277 222.112 212.369 221.796 211.497 221.397C209.696 220.746 207.862 220.165 205.985 219.833C202.237 219.075 198.392 219.005 194.606 219.306C190.816 219.638 187.067 220.417 183.465 221.661C179.869 222.908 176.433 224.649 173.302 226.813C167.018 231.158 161.97 236.995 157.646 243.173C153.375 249.409 149.4 255.785 145.543 262.258C141.702 268.736 138.058 275.337 134.66 282.061C134.517 282.34 134.616 282.686 134.89 282.843C136.969 284.068 138.997 285.491 140.933 286.972C142.866 288.459 144.732 290.052 146.447 291.786C148.166 293.505 149.789 295.344 151.119 297.363L151.632 298.113C151.803 298.363 151.933 298.64 152.085 298.899C152.369 299.428 152.69 299.944 152.955 300.483L153.667 302.132C153.799 302.401 153.887 302.687 153.964 302.977L154.215 303.839L154.467 304.701L154.642 305.6C154.751 306.198 154.891 306.797 154.974 307.402L155.24 309.212L155.438 311.033C155.66 313.469 155.709 315.918 155.722 318.38C155.735 320.842 155.731 323.329 155.909 325.823C156.08 328.314 156.452 330.801 157.028 333.229C157.292 334.455 157.68 335.643 158.019 336.839C158.388 338.012 158.751 339.184 159.084 340.369C159.763 342.728 160.366 345.101 160.767 347.503C161.168 349.904 161.368 352.332 161.288 354.762C161.222 357.197 160.934 359.629 160.559 362.055C160.194 364.476 155.595 360.816 155.246 363.283C154.886 365.738 146.773 352.522 146.625 355.009C146.342 359.971 158.338 363.066 159.559 367.954C159.641 368.278 170.696 343.04 170.516 366.434C172.396 346.5 165.617 378.578 185.052 373.449L194.344 369.241C195.153 367.49 191.836 379.226 192.834 377.532C193.842 375.832 186.639 374.998 187.74 373.354C189.949 370.068 171.322 375.107 173.781 372.002C178.746 365.841 184.02 359.785 188.202 352.918C190.263 349.479 192.035 345.782 192.911 341.805C193.355 339.834 193.627 337.805 193.653 335.773C193.683 333.75 193.543 331.758 193.515 329.788C193.478 327.822 193.555 325.871 193.975 323.997C194.404 322.117 195.111 320.292 195.918 318.5C197.536 314.927 199.55 311.343 200.24 307.255L200.622 304.287C200.714 303.31 200.978 302.367 201.15 301.409C201.369 300.458 201.661 299.525 201.939 298.587L202.444 297.213L202.695 296.522L202.993 295.854C204.554 292.262 206.708 288.95 209.15 285.847C211.58 282.733 214.234 279.783 216.851 276.78C218.154 275.269 219.467 273.777 220.721 272.201C221.964 270.629 223.146 269.005 224.257 267.332C228.684 260.637 232.066 253.347 234.998 245.921C236.433 242.181 237.644 238.398 239.076 234.713C240.499 231.033 242.187 227.444 244.462 224.269C249.203 217.992 254.843 212.316 261.021 207.414C267.217 202.551 274.073 198.359 281.581 196.062C285.356 194.948 289.225 194.026 293.113 193.591C295.056 193.401 297.022 193.307 298.919 193.558C300.817 193.785 302.679 194.376 304.099 195.537C305.549 196.685 306.348 198.453 306.698 200.3C307.006 202.173 306.935 204.126 306.659 206.049C306.366 207.975 305.913 209.878 305.273 211.719C304.634 213.559 303.774 215.316 302.769 216.985C300.776 220.343 298.062 223.233 295.034 225.705C291.981 228.159 288.556 230.128 285.019 231.907C281.488 233.695 277.864 235.357 274.351 237.279C272.593 238.244 270.868 239.277 269.212 240.412C267.542 241.543 265.977 242.837 264.476 244.13C262.968 245.419 261.474 246.714 259.869 247.795C258.273 248.871 256.521 249.725 254.686 249.88C252.848 250.066 251.042 249.333 249.494 248.265C247.937 247.152 246.58 245.78 245.955 244.04C244.62 240.594 246.722 236.28 250.091 234.924C250.921 234.598 251.817 234.501 252.644 234.725C253.459 234.938 254.223 235.468 254.659 236.161C255.108 236.865 255.273 237.769 255.249 238.69C255.232 239.612 255.062 240.563 254.827 241.492C253.813 245.238 252.017 248.815 250.317 252.393C249.455 254.182 248.584 255.976 247.764 257.803C246.94 259.693 246.478 261.833 246.738 263.922C246.947 266.018 247.721 267.953 248.535 269.774C249.354 271.604 250.283 273.367 250.922 275.185C251.575 276.983 251.89 278.906 251.976 280.848C252.051 282.795 251.928 284.762 251.771 286.734C251.463 290.663 250.919 294.721 251.637 298.782C251.992 300.775 252.64 302.827 253.828 304.534C254.977 306.261 256.451 307.737 258.075 308.959C261.332 311.424 265.056 313.078 268.822 314.418C272.605 315.756 276.478 316.757 280.364 317.625L286.194 318.889C288.16 319.291 290.174 319.622 292.189 319.688C294.207 319.772 296.223 319.743 298.221 319.532C300.224 319.354 302.213 319.027 304.176 318.612C308.105 317.775 311.94 316.553 315.64 315.022C319.345 313.5 322.931 311.69 326.359 309.619C329.792 307.556 333.072 305.235 336.139 302.648C339.217 300.074 342.058 297.211 344.57 294.068C345.804 292.478 346.969 290.832 347.994 289.082C348.999 287.342 349.924 285.558 350.764 283.738C351.593 281.906 352.338 280.037 352.997 278.14C353.635 276.235 354.186 274.301 354.635 272.34C355.062 270.371 355.392 268.386 355.606 266.386C355.799 264.378 355.874 262.363 355.83 260.347C355.653 256.317 355.136 252.372 354.652 248.422C353.643 240.549 352.673 232.633 353.738 224.798C354.707 216.938 356.435 209.176 358.655 201.564C359.762 197.754 360.984 193.982 362.302 190.235L364.318 184.619C364.998 182.729 365.535 180.79 366.02 178.841C366.908 174.924 367.435 170.893 367.277 166.853L367.206 165.341C367.168 164.839 367.106 164.338 367.054 163.832C366.973 162.82 366.763 161.837 366.599 160.837C366.173 158.86 365.665 156.894 364.885 155.021C364.177 153.125 363.209 151.332 362.175 149.597C361.126 147.905 360.058 146.222 358.977 144.551C356.817 141.21 354.577 137.914 352.322 134.636C350.078 131.355 347.806 128.104 345.679 124.758C344.603 123.096 343.598 121.395 342.604 119.681C341.622 117.956 340.745 116.226 339.785 114.436C337.851 110.899 335.417 107.633 332.528 104.813C329.648 101.989 326.34 99.6271 322.829 97.6767C322.54 97.5148 322.176 97.6234 322.016 97.9055C321.854 98.1947 321.962 98.5595 322.244 98.719C325.691 100.6 328.923 102.879 331.748 105.606C334.575 108.325 336.971 111.49 338.882 114.931C339.819 116.649 340.731 118.462 341.715 120.181C342.721 121.906 343.739 123.62 344.819 125.29C346.965 128.651 349.241 131.912 351.496 135.189C353.753 138.459 355.99 141.738 358.146 145.07C360.268 148.431 362.587 151.682 363.971 155.36C364.722 157.175 365.224 159.09 365.645 161.01C365.802 161.983 366.013 162.943 366.086 163.929C366.136 164.418 366.203 164.905 366.236 165.396L366.303 166.875C366.461 170.819 365.953 174.769 365.087 178.621C364.219 182.481 362.703 186.153 361.38 189.914C360.045 193.664 358.816 197.457 357.686 201.284C355.44 208.927 353.681 216.735 352.681 224.664C352.135 228.632 352.094 232.668 352.302 236.653C352.515 240.647 352.994 244.611 353.464 248.556C353.919 252.496 354.422 256.46 354.542 260.375C354.565 262.335 354.461 264.293 354.256 266.241C354.028 268.188 353.685 270.121 353.246 272.029C352.793 273.932 352.227 275.814 351.592 277.663C350.933 279.513 350.184 281.324 349.36 283.094C348.527 284.868 347.577 286.587 346.579 288.258C345.571 289.909 344.423 291.481 343.208 292.99C338.211 298.964 331.883 303.767 325.104 307.544C321.71 309.444 318.189 311.084 314.576 312.452C310.968 313.831 307.261 314.887 303.52 315.573C299.79 316.294 296.01 316.621 292.329 316.398L290.953 316.308L289.597 316.136C289.14 316.094 288.7 316 288.25 315.912C287.793 315.821 287.382 315.762 286.879 315.64L281.085 314.364C277.264 313.518 273.505 312.556 269.904 311.295C266.317 310.04 262.856 308.483 260.031 306.349C258.614 305.292 257.412 304.076 256.509 302.73C255.561 301.4 255.097 299.939 254.757 298.206C254.105 294.8 254.535 290.984 254.835 286.964C254.982 284.949 255.106 282.862 255 280.697C254.892 278.539 254.519 276.292 253.709 274.152C252.928 272.047 251.973 270.314 251.168 268.561C250.364 266.832 249.704 265.192 249.538 263.607C249.315 262.026 249.627 260.467 250.268 258.907C251.026 257.14 251.884 255.341 252.717 253.543C253.56 251.739 254.41 249.915 255.201 248.03C255.984 246.142 256.742 244.214 257.266 242.102C257.52 241.044 257.723 239.928 257.729 238.706C257.749 238.104 257.674 237.454 257.539 236.792C257.372 236.128 257.139 235.448 256.721 234.818C256.315 234.2 255.779 233.635 255.183 233.249C254.603 232.836 253.944 232.541 253.253 232.362C252.56 232.168 251.839 232.147 251.152 232.195C250.471 232.268 249.817 232.431 249.215 232.675C246.822 233.673 245.158 235.542 244.155 237.699C243.147 239.847 242.97 242.492 243.851 244.775C244.28 245.913 244.933 246.935 245.712 247.799C246.09 248.239 246.516 248.632 246.941 248.984L248.247 249.987C248.71 250.296 249.218 250.564 249.705 250.849C250.195 251.127 250.778 251.293 251.311 251.513C251.863 251.7 252.468 251.778 253.042 251.9C253.636 251.917 254.234 251.968 254.821 251.911C257.2 251.684 259.231 250.596 260.959 249.413C262.694 248.208 264.207 246.856 265.699 245.544C267.185 244.223 268.643 242.989 270.234 241.879C271.813 240.757 273.471 239.734 275.18 238.769C278.593 236.836 282.196 235.168 285.754 233.324C289.312 231.505 292.84 229.443 295.993 226.862C299.124 224.273 301.932 221.223 304.001 217.69C305.038 215.929 305.922 214.075 306.586 212.139C307.243 210.201 307.701 208.211 307.992 206.197C308.259 204.182 308.333 202.102 307.973 200.028C307.763 198.996 307.445 197.976 306.945 197.022C306.452 196.071 305.736 195.212 304.902 194.537C303.214 193.172 301.13 192.53 299.101 192.219C297.054 191.893 295.004 191.879 292.964 191.956C290.924 192.033 288.899 192.275 286.898 192.589C284.883 192.899 282.932 193.302 280.959 193.866C278.971 194.425 277.035 195.137 275.177 195.996C274.243 196.416 273.31 196.836 272.409 197.323C271.502 197.784 270.59 198.259 269.718 198.78C266.185 200.808 262.842 203.125 259.677 205.646C256.513 208.168 253.513 210.888 250.696 213.776C247.86 216.672 245.255 219.711 242.819 223.032C240.426 226.439 238.717 230.206 237.306 233.969C235.883 237.745 234.713 241.55 233.345 245.233C230.533 252.587 227.276 259.839 223.007 266.445C221.937 268.091 220.801 269.699 219.598 271.244C218.402 272.792 217.087 274.291 215.807 275.802C213.222 278.808 210.565 281.789 208.111 284.975C205.649 288.135 203.44 291.564 201.847 295.298L201.539 295.994L201.281 296.707L200.766 298.133C200.485 299.103 200.188 300.074 199.965 301.063C199.787 302.059 199.525 303.043 199.431 304.052L199.063 307.001C198.439 310.823 196.496 314.318 194.848 317.954C194.029 319.781 193.288 321.683 192.835 323.682C192.393 325.693 192.315 327.74 192.361 329.749C192.401 331.755 192.536 333.738 192.513 335.691C192.5 337.64 192.236 339.575 191.809 341.495C190.967 345.324 189.267 348.901 187.25 352.284C185.204 355.656 182.862 358.864 180.426 361.993C177.996 365.131 175.416 368.146 172.94 371.277C170.464 374.408 166.932 362.736 164.711 366.057C163.606 367.715 162.04 363.42 161.025 365.141C160.007 366.87 158.632 361.422 157.782 363.271L147.985 357.728L167.153 366.148C165.96 361.413 157.294 366.831 157.569 361.938C157.712 359.489 163.989 369.977 164.342 367.543C164.686 365.114 161.149 364.608 161.526 362.15C161.908 359.703 162.201 357.233 162.279 354.738C162.365 352.246 162.165 349.745 161.752 347.284C161.346 344.826 160.732 342.416 160.053 340.033C159.386 337.638 158.558 335.317 158.021 332.941C157.459 330.566 157.106 328.141 156.934 325.698C156.763 323.255 156.774 320.794 156.764 318.325C156.766 313.388 156.525 308.368 155.254 303.511L154.988 302.596C154.909 302.289 154.812 301.984 154.677 301.698L153.932 299.957C153.66 299.393 153.33 298.857 153.032 298.299C152.875 298.03 152.733 297.742 152.557 297.482L152.03 296.703C150.655 294.605 148.992 292.72 147.232 290.955C145.484 289.179 143.587 287.559 141.615 286.043C139.643 284.526 137.616 283.102 135.451 281.825L135.665 282.537C139.061 275.844 142.702 269.275 146.544 262.821C150.395 256.387 154.365 249.977 158.708 243.885C163.105 237.868 168.228 232.328 174.352 228.313C180.458 224.284 187.504 221.958 194.772 221.267C198.394 220.934 202.064 220.953 205.635 221.571C207.432 221.836 209.167 222.352 210.886 222.918C211.717 223.272 212.582 223.549 213.377 223.987L214.585 224.596L215.745 225.302C216.141 225.524 216.509 225.784 216.871 226.059L217.966 226.862L218.981 227.759L219.493 228.205L219.948 228.703L220.859 229.692C221.142 230.036 221.389 230.416 221.651 230.777C222.219 231.481 222.567 232.32 223.005 233.101C223.185 233.514 223.329 233.938 223.489 234.361L223.73 234.995L223.892 235.65C223.99 236.091 224.115 236.526 224.196 236.97L224.354 238.32C224.461 240.125 224.368 241.958 223.903 243.73C223.75 244.63 223.384 245.474 223.106 246.341C222.707 247.166 222.398 248.03 221.91 248.809C221.063 250.435 219.913 251.87 218.707 253.238C218.052 253.872 217.442 254.562 216.719 255.117C216.365 255.406 216.031 255.708 215.658 255.982L214.526 256.799C213.786 257.357 213 257.859 212.229 258.366C211.46 258.889 210.655 259.353 209.855 259.826C203.426 263.586 196.383 266.161 189.283 268.478C185.726 269.633 182.134 270.705 178.532 271.805L167.773 275.154C160.643 277.396 153.464 279.429 146.169 280.294C142.525 280.716 138.873 280.927 135.24 280.68C131.642 280.542 128.209 279.61 124.927 278.138C121.657 276.678 118.587 274.7 115.897 272.308C113.214 269.918 110.868 267.098 109.339 263.923C108.586 262.347 108.054 260.662 107.948 258.993C107.816 257.332 108.203 255.694 108.946 254.113C109.676 252.528 110.723 251.042 111.868 249.621C113.015 248.193 114.27 246.825 115.549 245.458C118.094 242.711 120.793 240.008 122.951 236.753C124.006 235.126 124.968 233.347 125.408 231.343C125.638 230.357 125.756 229.324 125.64 228.252C125.536 227.192 125.163 226.074 124.421 225.198C123.688 224.317 122.667 223.723 121.632 223.452C120.594 223.165 119.538 223.119 118.52 223.222C116.486 223.445 114.512 224.177 112.917 225.581C112.135 226.285 111.45 227.221 111.159 228.339C110.88 229.469 111.101 230.68 111.592 231.639C112.06 232.614 112.898 233.49 113.853 233.998C114.808 234.53 115.839 234.743 116.834 234.872C118.839 235.112 120.785 234.867 122.678 234.54C124.569 234.196 126.417 233.694 128.23 233.132C131.857 231.984 135.362 230.579 138.812 228.938C139.181 228.767 140.113 228.244 139.936 227.871C139.848 227.682 139.203 227.451 139.016 227.388L138.689 227.277C136.538 226.548 134.475 225.956 132.443 224.923C131.426 224.41 130.431 223.857 129.452 223.277C128.485 222.71 127.596 222.056 126.748 221.328C125.036 219.868 123.549 218.123 121.803 216.507C120.922 215.712 119.982 214.97 118.947 214.346C117.925 213.728 116.769 213.176 115.47 213.024C114.824 212.949 114.118 212.982 113.448 213.259C112.774 213.527 112.199 214.093 111.889 214.724C111.565 215.35 111.446 216.03 111.416 216.637C111.36 217.25 111.367 217.868 111.435 218.492C111.52 219.113 111.649 219.749 111.94 220.352C112.2 220.952 112.642 221.558 113.351 221.918C113.516 222.022 113.714 222.074 113.918 222.11C114.016 222.128 114.121 222.147 114.221 222.157L114.526 222.132L114.827 222.091C114.919 222.058 115.01 222.024 115.103 221.984C115.281 221.908 115.473 221.837 115.603 221.713C116.232 221.294 116.559 220.708 116.883 220.154C117.021 219.865 117.128 219.573 117.249 219.286C117.349 218.991 117.417 218.694 117.503 218.395C117.654 217.806 117.76 217.258 117.888 216.693L118.648 213.317L120.171 206.558C120.299 205.993 120.412 205.423 120.59 204.899C120.741 204.358 120.914 203.824 121.116 203.3C121.493 202.235 121.953 201.207 122.509 200.251C123.057 199.292 123.714 198.394 124.508 197.678C125.299 196.97 126.231 196.438 127.221 196.277C128.208 196.123 129.241 196.329 130.074 196.892C130.913 197.432 131.538 198.3 131.746 199.243C131.969 200.191 131.7 201.149 131.052 201.929C130.748 202.331 130.359 202.631 129.945 202.883C129.501 203.085 129.038 203.248 128.533 203.277C127.52 203.365 126.441 203.128 125.419 202.749C124.389 202.368 123.391 201.846 122.439 201.259C120.537 200.055 118.778 198.594 117.163 196.99C115.558 195.382 114.072 193.637 112.861 191.738C112.262 190.791 111.722 189.792 111.383 188.764C111.213 188.251 111.111 187.728 111.13 187.246C111.161 186.776 111.322 186.279 111.581 185.822C112.103 184.895 112.854 184.045 113.675 183.274C114.496 182.504 115.388 181.782 116.299 181.098C118.128 179.733 120.069 178.486 122.025 177.268C123.978 176.033 125.99 174.93 127.897 173.503L130.609 171.325C131.518 170.601 132.375 169.819 133.26 169.07C136.755 166.021 140.067 162.733 143.02 159.14C143.774 158.259 144.48 157.329 145.18 156.398C145.905 155.483 146.545 154.516 147.23 153.579C147.561 153.099 147.922 152.645 148.26 152.167C148.598 151.69 148.933 151.219 149.29 150.756C150.011 149.831 150.679 148.873 151.355 147.918C152.045 146.967 152.68 145.99 153.276 144.983C153.878 143.987 154.441 142.961 154.955 141.918C156.024 139.848 157 137.745 157.929 135.619C159.805 131.381 161.44 127.028 163.323 122.816C163.819 121.776 164.287 120.726 164.802 119.7C165.339 118.682 166.036 117.757 166.666 116.794C167.275 115.824 167.905 114.861 168.545 113.917C169.194 112.969 169.795 111.996 170.487 111.086C173.129 107.347 176.126 103.857 179.457 100.727C182.78 97.6197 186.428 94.758 190.392 92.6599C194.507 90.4929 198.567 88.3953 202.763 86.4875C206.941 84.5822 211.193 82.8377 215.542 81.422C219.89 80.0303 224.342 78.8979 228.84 78.5735C231.084 78.4136 233.335 78.448 235.506 78.8318C237.681 79.2086 239.772 79.9492 241.568 81.1343C242.002 81.4574 242.429 81.7782 242.851 82.1133C243.227 82.4889 243.651 82.8408 243.996 83.2378C244.32 83.6516 244.694 84.0344 244.952 84.4981C245.092 84.7217 245.242 84.9405 245.379 85.1712L245.735 85.8919C246.684 87.8304 247.142 90.0424 247.434 92.2703C248.03 96.7383 247.82 101.437 248.616 106.093C249.307 110.681 250.135 115.244 251.017 119.785L252.364 126.589L253.043 129.988C253.264 131.127 253.529 132.257 253.652 133.332C253.913 135.533 253.853 137.81 253.558 140.023C253.235 142.227 252.661 144.417 251.633 146.342C250.617 148.255 249.133 149.921 247.192 150.743C246.227 151.161 245.194 151.403 244.121 151.479C243.048 151.508 241.956 151.474 240.878 151.237C239.799 151.047 238.731 150.709 237.682 150.338C236.64 149.945 235.61 149.492 234.538 149.024C232.419 148.082 230.274 147.195 228.1 146.37C223.759 144.723 219.311 143.295 214.779 142.256C210.25 141.185 205.66 140.462 201.1 139.765C198.82 139.417 196.543 139.061 194.275 138.677C192.022 138.273 189.793 137.822 187.635 137.115C185.479 136.424 183.375 135.559 181.429 134.435C180.451 133.879 179.533 133.24 178.667 132.539C178.236 132.184 177.826 131.813 177.447 131.421C177.064 131.043 176.698 130.591 176.444 130.208L175.981 131.196C180.299 130.507 184.758 130.793 189.107 131.546C193.46 132.31 197.746 133.53 201.906 135.076C203.992 135.831 206.039 136.701 208.065 137.611C209.075 138.074 210.073 138.548 211.052 139.056C211.527 139.305 212.05 139.578 212.444 139.832C212.828 140.114 213.187 140.468 213.458 140.872C214.016 141.677 214.222 142.651 213.896 143.517C213.597 144.4 212.834 145.142 211.978 145.733C210.234 146.918 208.106 147.606 205.994 148.179C203.865 148.73 201.677 149.077 199.465 149.424C197.263 149.766 195.059 150.067 192.845 150.302C188.43 150.782 183.966 151.006 179.565 150.787C178.471 150.713 177.372 150.604 176.327 150.386C175.806 150.274 175.292 150.139 174.829 149.95C174.363 149.768 173.94 149.505 173.755 149.226C173.582 148.96 173.595 148.708 173.825 148.242C174.06 147.761 174.299 147.29 174.596 146.862C175.171 145.992 175.914 145.284 176.809 144.931C177.704 144.578 178.736 144.6 179.745 144.83C180.757 145.052 181.765 145.498 182.763 145.948C184.745 146.868 186.633 148.02 188.441 149.289C190.239 150.563 192.02 151.935 193.679 153.361C195.349 154.824 197.053 156.306 198.606 157.833C198.694 157.926 198.789 158.023 198.858 158.102C198.882 158.126 198.896 158.155 198.896 158.155L198.913 158.177C198.913 158.177 198.887 158.136 198.877 158.117C198.91 158.28 198.695 157.711 199.013 157.434L198.979 157.463L198.909 157.527C198.738 157.701 198.544 157.851 198.342 157.999C197.938 158.294 197.482 158.532 196.997 158.736C196.035 159.146 194.989 159.424 193.925 159.616C191.795 160.006 189.582 160.073 187.387 159.993C182.987 159.839 178.563 159.284 174.296 158.198C173.232 157.917 172.177 157.608 171.162 157.232C170.163 156.853 169.119 156.419 168.409 155.827C168.242 155.682 168.128 155.523 168.105 155.451C168.091 155.398 168.074 155.425 168.175 155.291C168.218 155.234 168.31 155.177 168.387 155.115L168.692 154.946C168.891 154.829 169.133 154.751 169.361 154.668C170.32 154.385 171.405 154.345 172.473 154.402C174.634 154.535 176.8 155.053 178.913 155.681C181.033 156.311 183.124 157.076 185.186 157.903C186.218 158.324 187.238 158.758 188.251 159.213L189.003 159.564C189.232 159.666 189.48 159.83 189.717 159.958L191.154 160.789C193.024 161.968 194.827 163.275 196.454 164.771C198.081 166.267 199.53 167.958 200.638 169.855C201.746 171.751 202.556 173.842 202.796 176.036C203.375 180.387 201.996 184.953 199.456 188.391L199.427 188.429C199.231 188.699 199.289 189.07 199.552 189.263C199.814 189.456 200.193 189.401 200.386 189.138L200.405 189.104L200.405 189.128Z" stroke="#CBE2D1" stroke-width="0.153605" mask="url(#path-4-outside-1_13757_30605)"/>
</svg>
